<svg xmlns="http://www.w3.org/2000/svg" xmlns:xlink="http://www.w3.org/1999/xlink" width="1620" zoomAndPan="magnify" viewBox="0 0 1215 809.999993" height="1080" preserveAspectRatio="xMidYMid meet" version="1.0"><defs><g/></defs><g fill="#000000" fill-opacity="1"><g transform="translate(0.00000525, 70.743654)"><g><path d="M 34.125 0 L 22.171875 0 L 22.171875 -44.78125 C 17.785156 -40.738281 12.675781 -37.738281 6.84375 -35.78125 L 6.84375 -46.515625 C 10.019531 -47.671875 13.394531 -49.601562 16.96875 -52.3125 C 20.550781 -55.03125 23.035156 -58.351562 24.421875 -62.28125 L 34.125 -62.28125 Z M 34.125 0 "/></g></g></g><g fill="#000000" fill-opacity="1"><g transform="translate(48.157027, 70.743654)"><g><path d="M 26.25 -62.28125 C 30.863281 -62.28125 34.773438 -60.953125 37.984375 -58.296875 C 41.191406 -55.640625 43.140625 -51.828125 43.828125 -46.859375 L 32.390625 -45.5625 C 32.109375 -47.695312 31.40625 -49.367188 30.28125 -50.578125 C 29.15625 -51.796875 27.550781 -52.40625 25.46875 -52.40625 C 22.289062 -52.40625 19.976562 -50.90625 18.53125 -47.90625 C 17.09375 -44.90625 16.285156 -40.628906 16.109375 -35.078125 C 17.328125 -36.640625 18.859375 -37.878906 20.703125 -38.796875 C 22.546875 -39.722656 24.625 -40.1875 26.9375 -40.1875 C 30.226562 -40.1875 33.242188 -39.347656 35.984375 -37.671875 C 38.734375 -36.003906 40.929688 -33.625 42.578125 -30.53125 C 44.222656 -27.445312 45.046875 -23.910156 45.046875 -19.921875 C 45.046875 -15.816406 44.207031 -12.175781 42.53125 -9 C 40.851562 -5.832031 38.515625 -3.363281 35.515625 -1.59375 C 32.515625 0.164062 29.050781 1.046875 25.125 1.046875 C 22.113281 1.046875 19.265625 0.453125 16.578125 -0.734375 C 13.898438 -1.921875 11.632812 -3.726562 9.78125 -6.15625 C 7.707031 -8.925781 6.164062 -12.242188 5.15625 -16.109375 C 4.144531 -19.984375 3.640625 -24.71875 3.640625 -30.3125 C 3.640625 -40.425781 5.546875 -48.28125 9.359375 -53.875 C 13.171875 -59.476562 18.800781 -62.28125 26.25 -62.28125 Z M 16.984375 -20.96875 C 16.984375 -17.613281 17.757812 -14.75 19.3125 -12.375 C 20.875 -10.007812 23.015625 -8.828125 25.734375 -8.828125 C 28.328125 -8.828125 30.242188 -9.851562 31.484375 -11.90625 C 32.722656 -13.957031 33.34375 -16.628906 33.34375 -19.921875 C 33.34375 -23.210938 32.675781 -25.96875 31.34375 -28.1875 C 30.019531 -30.414062 27.945312 -31.53125 25.125 -31.53125 C 23.039062 -31.53125 21.160156 -30.707031 19.484375 -29.0625 C 17.816406 -27.414062 16.984375 -24.71875 16.984375 -20.96875 Z M 16.984375 -20.96875 "/></g></g></g><g fill="#000000" fill-opacity="1"><g transform="translate(96.314049, 70.743654)"><g><path d="M 23.65625 -32.578125 L 32.046875 -44.875 L 46 -44.875 L 30.75 -23.65625 L 47.390625 0 L 32.828125 0 L 23.65625 -13.953125 L 14.375 0 L 0.515625 0 L 16.71875 -23.125 L 1.21875 -44.875 L 15.765625 -44.875 Z M 23.65625 -32.578125 "/></g></g></g><g fill="#000000" fill-opacity="1"><g transform="translate(144.471071, 70.743654)"><g><path d="M 34.125 0 L 22.171875 0 L 22.171875 -44.78125 C 17.785156 -40.738281 12.675781 -37.738281 6.84375 -35.78125 L 6.84375 -46.515625 C 10.019531 -47.671875 13.394531 -49.601562 16.96875 -52.3125 C 20.550781 -55.03125 23.035156 -58.351562 24.421875 -62.28125 L 34.125 -62.28125 Z M 34.125 0 "/></g></g></g><g fill="#000000" fill-opacity="1"><g transform="translate(192.628094, 70.743654)"><g><path d="M 26.25 -62.28125 C 30.863281 -62.28125 34.773438 -60.953125 37.984375 -58.296875 C 41.191406 -55.640625 43.140625 -51.828125 43.828125 -46.859375 L 32.390625 -45.5625 C 32.109375 -47.695312 31.40625 -49.367188 30.28125 -50.578125 C 29.15625 -51.796875 27.550781 -52.40625 25.46875 -52.40625 C 22.289062 -52.40625 19.976562 -50.90625 18.53125 -47.90625 C 17.09375 -44.90625 16.285156 -40.628906 16.109375 -35.078125 C 17.328125 -36.640625 18.859375 -37.878906 20.703125 -38.796875 C 22.546875 -39.722656 24.625 -40.1875 26.9375 -40.1875 C 30.226562 -40.1875 33.242188 -39.347656 35.984375 -37.671875 C 38.734375 -36.003906 40.929688 -33.625 42.578125 -30.53125 C 44.222656 -27.445312 45.046875 -23.910156 45.046875 -19.921875 C 45.046875 -15.816406 44.207031 -12.175781 42.53125 -9 C 40.851562 -5.832031 38.515625 -3.363281 35.515625 -1.59375 C 32.515625 0.164062 29.050781 1.046875 25.125 1.046875 C 22.113281 1.046875 19.265625 0.453125 16.578125 -0.734375 C 13.898438 -1.921875 11.632812 -3.726562 9.78125 -6.15625 C 7.707031 -8.925781 6.164062 -12.242188 5.15625 -16.109375 C 4.144531 -19.984375 3.640625 -24.71875 3.640625 -30.3125 C 3.640625 -40.425781 5.546875 -48.28125 9.359375 -53.875 C 13.171875 -59.476562 18.800781 -62.28125 26.25 -62.28125 Z M 16.984375 -20.96875 C 16.984375 -17.613281 17.757812 -14.75 19.3125 -12.375 C 20.875 -10.007812 23.015625 -8.828125 25.734375 -8.828125 C 28.328125 -8.828125 30.242188 -9.851562 31.484375 -11.90625 C 32.722656 -13.957031 33.34375 -16.628906 33.34375 -19.921875 C 33.34375 -23.210938 32.675781 -25.96875 31.34375 -28.1875 C 30.019531 -30.414062 27.945312 -31.53125 25.125 -31.53125 C 23.039062 -31.53125 21.160156 -30.707031 19.484375 -29.0625 C 17.816406 -27.414062 16.984375 -24.71875 16.984375 -20.96875 Z M 16.984375 -20.96875 "/></g></g></g><g fill="#000000" fill-opacity="1"><g transform="translate(240.785104, 70.743654)"><g/></g></g><g fill="#000000" fill-opacity="1"><g transform="translate(264.863609, 70.743654)"><g><path d="M 29.28125 -16.109375 L 44.4375 -62.03125 L 57.6875 -62.03125 L 35.515625 0 L 22.09375 0 L 0 -62.03125 L 13.59375 -62.03125 Z M 29.28125 -16.109375 "/></g></g></g><g fill="#000000" fill-opacity="1"><g transform="translate(322.634709, 70.743654)"><g><path d="M 18.109375 -51.015625 L 6.234375 -51.015625 L 6.234375 -62.03125 L 18.109375 -62.03125 Z M 18.109375 0 L 6.234375 0 L 6.234375 -44.875 L 18.109375 -44.875 Z M 18.109375 0 "/></g></g></g><g fill="#000000" fill-opacity="1"><g transform="translate(346.713214, 70.743654)"><g><path d="M 22.515625 -45.90625 C 25.578125 -45.90625 28.25 -45.238281 30.53125 -43.90625 C 32.8125 -42.582031 34.675781 -40.828125 36.125 -38.640625 L 36.296875 -38.640625 L 36.296875 -44.875 L 47.390625 -44.875 L 47.390625 -3.8125 C 47.390625 1.207031 46.8125 5.289062 45.65625 8.4375 C 44.5 11.59375 42.375 14.003906 39.28125 15.671875 C 36.195312 17.347656 31.796875 18.1875 26.078125 18.1875 C 18.796875 18.1875 13.492188 16.898438 10.171875 14.328125 C 6.859375 11.765625 5.171875 7.96875 5.109375 2.9375 L 18.71875 4.59375 C 18.945312 6.382812 19.625 7.582031 20.75 8.1875 C 21.875 8.789062 23.503906 9.09375 25.640625 9.09375 C 29.335938 9.09375 31.90625 8.441406 33.34375 7.140625 C 34.789062 5.847656 35.515625 3.582031 35.515625 0.34375 L 35.515625 -7.28125 L 35.34375 -7.28125 C 33.84375 -5.082031 31.921875 -3.316406 29.578125 -1.984375 C 27.242188 -0.660156 24.75 0 22.09375 0 C 18.394531 0 15.144531 -0.976562 12.34375 -2.9375 C 9.539062 -4.90625 7.375 -7.617188 5.84375 -11.078125 C 4.3125 -14.546875 3.546875 -18.421875 3.546875 -22.703125 C 3.546875 -28.296875 4.515625 -32.828125 6.453125 -36.296875 C 8.390625 -39.765625 10.800781 -42.234375 13.6875 -43.703125 C 16.570312 -45.171875 19.515625 -45.90625 22.515625 -45.90625 Z M 15.765625 -23.390625 C 15.765625 -19.640625 16.515625 -16.421875 18.015625 -13.734375 C 19.515625 -11.046875 21.96875 -9.703125 25.375 -9.703125 C 27.976562 -9.703125 30.363281 -10.710938 32.53125 -12.734375 C 34.695312 -14.753906 35.78125 -18.21875 35.78125 -23.125 C 35.78125 -26.769531 34.984375 -29.960938 33.390625 -32.703125 C 31.804688 -35.441406 29.164062 -36.8125 25.46875 -36.8125 C 21.882812 -36.8125 19.367188 -35.425781 17.921875 -32.65625 C 16.484375 -29.882812 15.765625 -26.796875 15.765625 -23.390625 Z M 15.765625 -23.390625 "/></g></g></g><g fill="#000000" fill-opacity="1"><g transform="translate(399.633988, 70.743654)"><g><path d="M 32.046875 -45.90625 C 34.703125 -45.90625 37.007812 -45.457031 38.96875 -44.5625 C 40.9375 -43.664062 42.5 -42.613281 43.65625 -41.40625 C 45.039062 -39.90625 45.945312 -38.128906 46.375 -36.078125 C 46.8125 -34.023438 47.03125 -31.757812 47.03125 -29.28125 L 47.03125 0 L 35.171875 0 L 35.171875 -24.515625 C 35.171875 -28.671875 34.707031 -31.757812 33.78125 -33.78125 C 32.851562 -35.800781 30.890625 -36.8125 27.890625 -36.8125 C 25.066406 -36.8125 22.875 -36.003906 21.3125 -34.390625 C 19.75 -32.773438 18.820312 -30.898438 18.53125 -28.765625 C 18.363281 -27.378906 18.234375 -26.132812 18.140625 -25.03125 C 18.054688 -23.9375 18.015625 -22.695312 18.015625 -21.3125 L 18.015625 0 L 6.15625 0 L 6.15625 -44.875 L 17.40625 -44.875 L 17.40625 -38.28125 C 18.675781 -40.1875 20.566406 -41.929688 23.078125 -43.515625 C 25.597656 -45.109375 28.585938 -45.90625 32.046875 -45.90625 Z M 32.046875 -45.90625 "/></g></g></g><g fill="#000000" fill-opacity="1"><g transform="translate(452.554761, 70.743654)"><g><path d="M 23.390625 -45.90625 C 30.546875 -45.90625 35.882812 -43.582031 39.40625 -38.9375 C 42.9375 -34.289062 44.703125 -27.664062 44.703125 -19.0625 L 14.90625 -19.0625 C 15.019531 -16.050781 15.898438 -13.460938 17.546875 -11.296875 C 19.191406 -9.140625 21.570312 -8.0625 24.6875 -8.0625 C 26.65625 -8.0625 28.257812 -8.566406 29.5 -9.578125 C 30.738281 -10.585938 31.644531 -12.160156 32.21875 -14.296875 L 44.09375 -12.296875 C 42.59375 -7.910156 40.164062 -4.585938 36.8125 -2.328125 C 33.46875 -0.078125 29.367188 1.046875 24.515625 1.046875 C 17.296875 1.046875 11.835938 -1.117188 8.140625 -5.453125 C 6.410156 -7.472656 5.082031 -10.015625 4.15625 -13.078125 C 3.226562 -16.140625 2.765625 -19.171875 2.765625 -22.171875 C 2.765625 -26.273438 3.5 -30.128906 4.96875 -33.734375 C 6.445312 -37.347656 8.726562 -40.28125 11.8125 -42.53125 C 14.90625 -44.78125 18.765625 -45.90625 23.390625 -45.90625 Z M 15.15625 -26.328125 L 32.921875 -26.328125 C 32.859375 -29.972656 31.945312 -32.628906 30.1875 -34.296875 C 28.425781 -35.972656 26.363281 -36.8125 24 -36.8125 C 21.226562 -36.8125 19.0625 -35.816406 17.5 -33.828125 C 15.9375 -31.835938 15.15625 -29.335938 15.15625 -26.328125 Z M 15.15625 -26.328125 "/></g></g></g><g fill="#000000" fill-opacity="1"><g transform="translate(500.711772, 70.743654)"><g><path d="M 18.71875 -44.875 L 26.765625 -44.875 L 26.765625 -35.421875 L 18.71875 -35.421875 L 18.71875 -15.671875 C 18.71875 -13.773438 18.785156 -12.363281 18.921875 -11.4375 C 19.066406 -10.507812 19.367188 -9.84375 19.828125 -9.4375 C 20.296875 -9.03125 21.019531 -8.828125 22 -8.828125 C 23.21875 -8.828125 24.804688 -9.207031 26.765625 -9.96875 L 27.8125 -0.78125 C 26.59375 -0.195312 25.117188 0.25 23.390625 0.5625 C 21.660156 0.882812 20.015625 1.046875 18.453125 1.046875 C 16.203125 1.046875 14.207031 0.671875 12.46875 -0.078125 C 10.738281 -0.835938 9.46875 -1.851562 8.65625 -3.125 C 7.789062 -4.5625 7.253906 -6.160156 7.046875 -7.921875 C 6.847656 -9.679688 6.75 -11.890625 6.75 -14.546875 L 6.75 -35.421875 L 1.296875 -35.421875 L 1.296875 -44.875 L 6.75 -44.875 L 6.75 -53.796875 L 18.71875 -60.8125 Z M 18.71875 -44.875 "/></g></g></g><g fill="#000000" fill-opacity="1"><g transform="translate(529.553995, 70.743654)"><g><path d="M 18.71875 -44.875 L 26.765625 -44.875 L 26.765625 -35.421875 L 18.71875 -35.421875 L 18.71875 -15.671875 C 18.71875 -13.773438 18.785156 -12.363281 18.921875 -11.4375 C 19.066406 -10.507812 19.367188 -9.84375 19.828125 -9.4375 C 20.296875 -9.03125 21.019531 -8.828125 22 -8.828125 C 23.21875 -8.828125 24.804688 -9.207031 26.765625 -9.96875 L 27.8125 -0.78125 C 26.59375 -0.195312 25.117188 0.25 23.390625 0.5625 C 21.660156 0.882812 20.015625 1.046875 18.453125 1.046875 C 16.203125 1.046875 14.207031 0.671875 12.46875 -0.078125 C 10.738281 -0.835938 9.46875 -1.851562 8.65625 -3.125 C 7.789062 -4.5625 7.253906 -6.160156 7.046875 -7.921875 C 6.847656 -9.679688 6.75 -11.890625 6.75 -14.546875 L 6.75 -35.421875 L 1.296875 -35.421875 L 1.296875 -44.875 L 6.75 -44.875 L 6.75 -53.796875 L 18.71875 -60.8125 Z M 18.71875 -44.875 "/></g></g></g><g fill="#000000" fill-opacity="1"><g transform="translate(558.396218, 70.743654)"><g><path d="M 23.390625 -45.90625 C 30.546875 -45.90625 35.882812 -43.582031 39.40625 -38.9375 C 42.9375 -34.289062 44.703125 -27.664062 44.703125 -19.0625 L 14.90625 -19.0625 C 15.019531 -16.050781 15.898438 -13.460938 17.546875 -11.296875 C 19.191406 -9.140625 21.570312 -8.0625 24.6875 -8.0625 C 26.65625 -8.0625 28.257812 -8.566406 29.5 -9.578125 C 30.738281 -10.585938 31.644531 -12.160156 32.21875 -14.296875 L 44.09375 -12.296875 C 42.59375 -7.910156 40.164062 -4.585938 36.8125 -2.328125 C 33.46875 -0.078125 29.367188 1.046875 24.515625 1.046875 C 17.296875 1.046875 11.835938 -1.117188 8.140625 -5.453125 C 6.410156 -7.472656 5.082031 -10.015625 4.15625 -13.078125 C 3.226562 -16.140625 2.765625 -19.171875 2.765625 -22.171875 C 2.765625 -26.273438 3.5 -30.128906 4.96875 -33.734375 C 6.445312 -37.347656 8.726562 -40.28125 11.8125 -42.53125 C 14.90625 -44.78125 18.765625 -45.90625 23.390625 -45.90625 Z M 15.15625 -26.328125 L 32.921875 -26.328125 C 32.859375 -29.972656 31.945312 -32.628906 30.1875 -34.296875 C 28.425781 -35.972656 26.363281 -36.8125 24 -36.8125 C 21.226562 -36.8125 19.0625 -35.816406 17.5 -33.828125 C 15.9375 -31.835938 15.15625 -29.335938 15.15625 -26.328125 Z M 15.15625 -26.328125 "/></g></g></g><g fill="#000000" fill-opacity="1"><g transform="translate(606.553229, 70.743654)"><g><path d="M 22.609375 -45.90625 C 28.210938 -45.90625 32.613281 -44.984375 35.8125 -43.140625 C 39.019531 -41.296875 41.234375 -38.265625 42.453125 -34.046875 L 31.1875 -31.96875 C 30.664062 -33.8125 29.722656 -35.179688 28.359375 -36.078125 C 27.003906 -36.972656 25.117188 -37.421875 22.703125 -37.421875 C 17.328125 -37.421875 14.640625 -36.179688 14.640625 -33.703125 C 14.640625 -32.484375 15.519531 -31.515625 17.28125 -30.796875 C 19.039062 -30.078125 21.597656 -29.34375 24.953125 -28.59375 C 29.046875 -27.664062 32.390625 -26.722656 34.984375 -25.765625 C 37.585938 -24.816406 39.726562 -23.40625 41.40625 -21.53125 C 43.082031 -19.65625 43.921875 -17.15625 43.921875 -14.03125 C 43.921875 -11.488281 43.210938 -9.078125 41.796875 -6.796875 C 40.378906 -4.515625 38.140625 -2.632812 35.078125 -1.15625 C 32.015625 0.3125 28.144531 1.046875 23.46875 1.046875 C 18.21875 1.046875 13.582031 -0.078125 9.5625 -2.328125 C 5.550781 -4.585938 3.03125 -8.085938 2 -12.828125 L 13.859375 -14.640625 C 14.953125 -9.847656 18.15625 -7.453125 23.46875 -7.453125 C 25.550781 -7.453125 27.5 -7.8125 29.3125 -8.53125 C 31.132812 -9.25 32.046875 -10.535156 32.046875 -12.390625 C 32.046875 -13.597656 31.628906 -14.445312 30.796875 -14.9375 C 29.960938 -15.425781 28.617188 -15.875 26.765625 -16.28125 C 21.273438 -17.5 17 -18.625 13.9375 -19.65625 C 10.882812 -20.695312 8.40625 -22.195312 6.5 -24.15625 C 4.59375 -26.125 3.640625 -28.785156 3.640625 -32.140625 C 3.640625 -36.816406 5.425781 -40.28125 9 -42.53125 C 12.582031 -44.78125 17.117188 -45.90625 22.609375 -45.90625 Z M 22.609375 -45.90625 "/></g></g></g><g fill="#000000" fill-opacity="1"><g transform="translate(0.00000525, 220.743646)"><g><path d="M 41.75 0 L 35.90625 0 L 31.625 -12.71875 L 11.859375 -12.71875 L 7.546875 0 L 1.84375 0 L 18.015625 -46.375 L 25.5625 -46.375 Z M 21.34375 -40.765625 L 13.390625 -17.28125 L 30.078125 -17.28125 L 22.140625 -40.765625 Z M 21.34375 -40.765625 "/></g></g></g><g fill="#000000" fill-opacity="1"><g transform="translate(43.579574, 220.743646)"><g/></g></g><g fill="#000000" fill-opacity="1"><g transform="translate(59.501657, 220.743646)"><g><path d="M 6.09375 0 L 6.09375 -34.984375 L 11.015625 -34.984375 L 11.015625 -29.8125 L 11.671875 -29.6875 C 12.859375 -31.65625 14.289062 -33.140625 15.96875 -34.140625 C 17.65625 -35.148438 19.671875 -35.65625 22.015625 -35.65625 C 24.722656 -35.65625 26.816406 -35.140625 28.296875 -34.109375 C 29.773438 -33.085938 30.925781 -31.4375 31.75 -29.15625 L 32.421875 -29.15625 C 33.628906 -31.289062 35.113281 -32.90625 36.875 -34 C 38.644531 -35.101562 40.816406 -35.65625 43.390625 -35.65625 C 46.992188 -35.65625 49.675781 -34.679688 51.4375 -32.734375 C 53.207031 -30.785156 54.09375 -27.828125 54.09375 -23.859375 L 54.09375 0 L 48.921875 0 L 48.921875 -23.734375 C 48.921875 -26.265625 48.382812 -28.132812 47.3125 -29.34375 C 46.25 -30.550781 44.53125 -31.15625 42.15625 -31.15625 C 39.363281 -31.15625 37.082031 -30.140625 35.3125 -28.109375 C 33.550781 -26.078125 32.671875 -22.734375 32.671875 -18.078125 L 32.671875 0 L 27.5 0 L 27.5 -23.734375 C 27.5 -26.265625 26.960938 -28.132812 25.890625 -29.34375 C 24.828125 -30.550781 23.113281 -31.15625 20.75 -31.15625 C 17.957031 -31.15625 15.675781 -30.171875 13.90625 -28.203125 C 12.144531 -26.234375 11.265625 -23.039062 11.265625 -18.625 L 11.265625 0 Z M 6.09375 0 "/></g></g></g><g fill="#000000" fill-opacity="1"><g transform="translate(119.130179, 220.743646)"><g><path d="M 8.6875 -41.75 C 7.59375 -41.75 6.703125 -42.09375 6.015625 -42.78125 C 5.328125 -43.46875 4.984375 -44.335938 4.984375 -45.390625 C 4.984375 -46.453125 5.328125 -47.328125 6.015625 -48.015625 C 6.703125 -48.703125 7.59375 -49.046875 8.6875 -49.046875 C 9.789062 -49.046875 10.6875 -48.703125 11.375 -48.015625 C 12.0625 -47.328125 12.40625 -46.453125 12.40625 -45.390625 C 12.40625 -44.335938 12.0625 -43.46875 11.375 -42.78125 C 10.6875 -42.09375 9.789062 -41.75 8.6875 -41.75 Z M 6.09375 0 L 6.09375 -34.984375 L 11.265625 -34.984375 L 11.265625 0 Z M 6.09375 0 "/></g></g></g><g fill="#000000" fill-opacity="1"><g transform="translate(136.479547, 220.743646)"><g><path d="M 20.078125 0.671875 C 16.992188 0.671875 14.222656 -0.03125 11.765625 -1.4375 C 9.316406 -2.84375 7.382812 -4.914062 5.96875 -7.65625 C 4.550781 -10.394531 3.84375 -13.671875 3.84375 -17.484375 C 3.84375 -21.304688 4.550781 -24.585938 5.96875 -27.328125 C 7.382812 -30.066406 9.316406 -32.140625 11.765625 -33.546875 C 14.222656 -34.953125 16.992188 -35.65625 20.078125 -35.65625 C 23.773438 -35.65625 26.71875 -34.957031 28.90625 -33.5625 C 31.101562 -32.164062 32.6875 -30.304688 33.65625 -27.984375 L 30.140625 -25.4375 L 29.5 -25.4375 C 28.550781 -27.363281 27.332031 -28.773438 25.84375 -29.671875 C 24.351562 -30.578125 22.429688 -31.03125 20.078125 -31.03125 C 17.921875 -31.03125 16.023438 -30.519531 14.390625 -29.5 C 12.765625 -28.488281 11.503906 -26.96875 10.609375 -24.9375 C 9.710938 -22.90625 9.265625 -20.421875 9.265625 -17.484375 C 9.265625 -14.566406 9.71875 -12.097656 10.625 -10.078125 C 11.53125 -8.054688 12.789062 -6.53125 14.40625 -5.5 C 16.03125 -4.476562 17.921875 -3.96875 20.078125 -3.96875 C 22.515625 -3.96875 24.53125 -4.515625 26.125 -5.609375 C 27.71875 -6.710938 28.972656 -8.445312 29.890625 -10.8125 L 30.546875 -10.8125 L 33.9375 -8.8125 C 33.03125 -5.875 31.40625 -3.554688 29.0625 -1.859375 C 26.726562 -0.171875 23.734375 0.671875 20.078125 0.671875 Z M 20.078125 0.671875 "/></g></g></g><g fill="#000000" fill-opacity="1"><g transform="translate(172.542122, 220.743646)"><g><path d="M 6.09375 0 L 6.09375 -34.984375 L 11.015625 -34.984375 L 11.015625 -29.5 L 11.671875 -29.34375 C 13.296875 -33.320312 16.363281 -35.3125 20.875 -35.3125 C 23.257812 -35.3125 25.046875 -34.875 26.234375 -34 L 24.90625 -29.625 L 24.265625 -29.5 C 22.953125 -30.15625 21.515625 -30.484375 19.953125 -30.484375 C 17.160156 -30.484375 15.015625 -29.4375 13.515625 -27.34375 C 12.015625 -25.25 11.265625 -21.851562 11.265625 -17.15625 L 11.265625 0 Z M 6.09375 0 "/></g></g></g><g fill="#000000" fill-opacity="1"><g transform="translate(199.565272, 220.743646)"><g><path d="M 20.078125 0.671875 C 16.773438 0.671875 13.898438 -0.0234375 11.453125 -1.421875 C 9.015625 -2.816406 7.132812 -4.875 5.8125 -7.59375 C 4.5 -10.3125 3.84375 -13.609375 3.84375 -17.484375 C 3.84375 -21.347656 4.5 -24.644531 5.8125 -27.375 C 7.132812 -30.101562 9.015625 -32.164062 11.453125 -33.5625 C 13.898438 -34.957031 16.773438 -35.65625 20.078125 -35.65625 C 23.378906 -35.65625 26.25 -34.957031 28.6875 -33.5625 C 31.132812 -32.164062 33.019531 -30.101562 34.34375 -27.375 C 35.664062 -24.644531 36.328125 -21.347656 36.328125 -17.484375 C 36.328125 -13.609375 35.664062 -10.3125 34.34375 -7.59375 C 33.019531 -4.875 31.132812 -2.816406 28.6875 -1.421875 C 26.25 -0.0234375 23.378906 0.671875 20.078125 0.671875 Z M 20.078125 -3.96875 C 23.566406 -3.96875 26.234375 -5.066406 28.078125 -7.265625 C 29.929688 -9.460938 30.859375 -12.867188 30.859375 -17.484375 C 30.859375 -22.109375 29.929688 -25.519531 28.078125 -27.71875 C 26.234375 -29.925781 23.566406 -31.03125 20.078125 -31.03125 C 16.585938 -31.03125 13.910156 -29.921875 12.046875 -27.703125 C 10.191406 -25.492188 9.265625 -22.085938 9.265625 -17.484375 C 9.265625 -12.867188 10.191406 -9.460938 12.046875 -7.265625 C 13.910156 -5.066406 16.585938 -3.96875 20.078125 -3.96875 Z M 20.078125 -3.96875 "/></g></g></g><g fill="#000000" fill-opacity="1"><g transform="translate(239.719384, 220.743646)"><g/></g></g><g fill="#000000" fill-opacity="1"><g transform="translate(255.641456, 220.743646)"><g><path d="M 15.953125 0.671875 C 13.753906 0.671875 11.71875 0.378906 9.84375 -0.203125 C 7.976562 -0.785156 6.398438 -1.582031 5.109375 -2.59375 C 3.816406 -3.613281 2.90625 -4.757812 2.375 -6.03125 L 5.421875 -9.203125 L 6.09375 -9.203125 C 7.226562 -7.460938 8.597656 -6.15625 10.203125 -5.28125 C 11.816406 -4.40625 13.734375 -3.96875 15.953125 -3.96875 C 18.535156 -3.96875 20.5 -4.46875 21.84375 -5.46875 C 23.1875 -6.476562 23.859375 -7.878906 23.859375 -9.671875 C 23.859375 -11.046875 23.445312 -12.179688 22.625 -13.078125 C 21.8125 -13.984375 20.5 -14.65625 18.6875 -15.09375 L 12.78125 -16.5625 C 9.632812 -17.320312 7.335938 -18.523438 5.890625 -20.171875 C 4.441406 -21.828125 3.71875 -23.867188 3.71875 -26.296875 C 3.71875 -28.203125 4.203125 -29.859375 5.171875 -31.265625 C 6.140625 -32.671875 7.539062 -33.753906 9.375 -34.515625 C 11.207031 -35.273438 13.378906 -35.65625 15.890625 -35.65625 C 19.109375 -35.65625 21.640625 -35.203125 23.484375 -34.296875 C 25.335938 -33.398438 26.785156 -32.148438 27.828125 -30.546875 L 24.90625 -27.6875 L 24.265625 -27.6875 C 23.148438 -28.976562 21.929688 -29.910156 20.609375 -30.484375 C 19.285156 -31.054688 17.710938 -31.34375 15.890625 -31.34375 C 13.585938 -31.34375 11.820312 -30.929688 10.59375 -30.109375 C 9.363281 -29.285156 8.75 -28.085938 8.75 -26.515625 C 8.75 -25.097656 9.179688 -23.957031 10.046875 -23.09375 C 10.921875 -22.226562 12.4375 -21.53125 14.59375 -21 L 20.390625 -19.609375 C 23.441406 -18.890625 25.644531 -17.691406 27 -16.015625 C 28.351562 -14.347656 29.03125 -12.253906 29.03125 -9.734375 C 29.03125 -7.679688 28.539062 -5.875 27.5625 -4.3125 C 26.59375 -2.75 25.125 -1.523438 23.15625 -0.640625 C 21.1875 0.234375 18.785156 0.671875 15.953125 0.671875 Z M 15.953125 0.671875 "/></g></g></g><g fill="#000000" fill-opacity="1"><g transform="translate(287.993101, 220.743646)"><g><path d="M 20.078125 0.671875 C 16.992188 0.671875 14.222656 -0.03125 11.765625 -1.4375 C 9.316406 -2.84375 7.382812 -4.914062 5.96875 -7.65625 C 4.550781 -10.394531 3.84375 -13.671875 3.84375 -17.484375 C 3.84375 -21.304688 4.550781 -24.585938 5.96875 -27.328125 C 7.382812 -30.066406 9.316406 -32.140625 11.765625 -33.546875 C 14.222656 -34.953125 16.992188 -35.65625 20.078125 -35.65625 C 23.773438 -35.65625 26.71875 -34.957031 28.90625 -33.5625 C 31.101562 -32.164062 32.6875 -30.304688 33.65625 -27.984375 L 30.140625 -25.4375 L 29.5 -25.4375 C 28.550781 -27.363281 27.332031 -28.773438 25.84375 -29.671875 C 24.351562 -30.578125 22.429688 -31.03125 20.078125 -31.03125 C 17.921875 -31.03125 16.023438 -30.519531 14.390625 -29.5 C 12.765625 -28.488281 11.503906 -26.96875 10.609375 -24.9375 C 9.710938 -22.90625 9.265625 -20.421875 9.265625 -17.484375 C 9.265625 -14.566406 9.71875 -12.097656 10.625 -10.078125 C 11.53125 -8.054688 12.789062 -6.53125 14.40625 -5.5 C 16.03125 -4.476562 17.921875 -3.96875 20.078125 -3.96875 C 22.515625 -3.96875 24.53125 -4.515625 26.125 -5.609375 C 27.71875 -6.710938 28.972656 -8.445312 29.890625 -10.8125 L 30.546875 -10.8125 L 33.9375 -8.8125 C 33.03125 -5.875 31.40625 -3.554688 29.0625 -1.859375 C 26.726562 -0.171875 23.734375 0.671875 20.078125 0.671875 Z M 20.078125 0.671875 "/></g></g></g><g fill="#000000" fill-opacity="1"><g transform="translate(324.055676, 220.743646)"><g><path d="M 33.34375 -16.3125 L 9.296875 -16.3125 C 9.441406 -12.050781 10.460938 -8.925781 12.359375 -6.9375 C 14.253906 -4.957031 16.847656 -3.96875 20.140625 -3.96875 C 22.640625 -3.96875 24.648438 -4.410156 26.171875 -5.296875 C 27.691406 -6.179688 28.882812 -7.578125 29.75 -9.484375 L 30.421875 -9.484375 L 33.78125 -7.484375 C 32.769531 -4.953125 31.144531 -2.957031 28.90625 -1.5 C 26.675781 -0.0507812 23.753906 0.671875 20.140625 0.671875 C 16.753906 0.671875 13.84375 0.00390625 11.40625 -1.328125 C 8.976562 -2.660156 7.109375 -4.679688 5.796875 -7.390625 C 4.492188 -10.097656 3.84375 -13.460938 3.84375 -17.484375 C 3.84375 -21.453125 4.535156 -24.800781 5.921875 -27.53125 C 7.304688 -30.257812 9.195312 -32.296875 11.59375 -33.640625 C 14 -34.984375 16.742188 -35.65625 19.828125 -35.65625 C 24.304688 -35.65625 27.804688 -34.390625 30.328125 -31.859375 C 32.847656 -29.335938 34.117188 -25.59375 34.140625 -20.625 C 34.140625 -18.675781 34.09375 -17.363281 34 -16.6875 Z M 29.03125 -20.625 C 28.945312 -24.34375 28.117188 -27.046875 26.546875 -28.734375 C 24.984375 -30.429688 22.742188 -31.28125 19.828125 -31.28125 C 16.765625 -31.28125 14.359375 -30.425781 12.609375 -28.71875 C 10.867188 -27.019531 9.804688 -24.320312 9.421875 -20.625 Z M 29.03125 -20.625 "/></g></g></g><g fill="#000000" fill-opacity="1"><g transform="translate(361.355219, 220.743646)"><g><path d="M 6.09375 0 L 6.09375 -34.984375 L 11.015625 -34.984375 L 11.015625 -29.5 L 11.671875 -29.34375 C 12.835938 -31.394531 14.320312 -32.957031 16.125 -34.03125 C 17.9375 -35.113281 20.144531 -35.65625 22.75 -35.65625 C 26.957031 -35.65625 30.003906 -34.582031 31.890625 -32.4375 C 33.785156 -30.289062 34.734375 -26.984375 34.734375 -22.515625 L 34.734375 0 L 29.5625 0 L 29.5625 -22.390625 C 29.5625 -24.503906 29.289062 -26.203125 28.75 -27.484375 C 28.21875 -28.765625 27.382812 -29.695312 26.25 -30.28125 C 25.113281 -30.863281 23.628906 -31.15625 21.796875 -31.15625 C 18.640625 -31.15625 16.09375 -30.113281 14.15625 -28.03125 C 12.226562 -25.945312 11.265625 -22.585938 11.265625 -17.953125 L 11.265625 0 Z M 6.09375 0 "/></g></g></g><g fill="#000000" fill-opacity="1"><g transform="translate(401.6362, 220.743646)"><g><path d="M 33.34375 -16.3125 L 9.296875 -16.3125 C 9.441406 -12.050781 10.460938 -8.925781 12.359375 -6.9375 C 14.253906 -4.957031 16.847656 -3.96875 20.140625 -3.96875 C 22.640625 -3.96875 24.648438 -4.410156 26.171875 -5.296875 C 27.691406 -6.179688 28.882812 -7.578125 29.75 -9.484375 L 30.421875 -9.484375 L 33.78125 -7.484375 C 32.769531 -4.953125 31.144531 -2.957031 28.90625 -1.5 C 26.675781 -0.0507812 23.753906 0.671875 20.140625 0.671875 C 16.753906 0.671875 13.84375 0.00390625 11.40625 -1.328125 C 8.976562 -2.660156 7.109375 -4.679688 5.796875 -7.390625 C 4.492188 -10.097656 3.84375 -13.460938 3.84375 -17.484375 C 3.84375 -21.453125 4.535156 -24.800781 5.921875 -27.53125 C 7.304688 -30.257812 9.195312 -32.296875 11.59375 -33.640625 C 14 -34.984375 16.742188 -35.65625 19.828125 -35.65625 C 24.304688 -35.65625 27.804688 -34.390625 30.328125 -31.859375 C 32.847656 -29.335938 34.117188 -25.59375 34.140625 -20.625 C 34.140625 -18.675781 34.09375 -17.363281 34 -16.6875 Z M 29.03125 -20.625 C 28.945312 -24.34375 28.117188 -27.046875 26.546875 -28.734375 C 24.984375 -30.429688 22.742188 -31.28125 19.828125 -31.28125 C 16.765625 -31.28125 14.359375 -30.425781 12.609375 -28.71875 C 10.867188 -27.019531 9.804688 -24.320312 9.421875 -20.625 Z M 29.03125 -20.625 "/></g></g></g><g fill="#000000" fill-opacity="1"><g transform="translate(438.935743, 220.743646)"><g/></g></g><g fill="#000000" fill-opacity="1"><g transform="translate(454.857816, 220.743646)"><g><path d="M 20.078125 0.671875 C 16.773438 0.671875 13.898438 -0.0234375 11.453125 -1.421875 C 9.015625 -2.816406 7.132812 -4.875 5.8125 -7.59375 C 4.5 -10.3125 3.84375 -13.609375 3.84375 -17.484375 C 3.84375 -21.347656 4.5 -24.644531 5.8125 -27.375 C 7.132812 -30.101562 9.015625 -32.164062 11.453125 -33.5625 C 13.898438 -34.957031 16.773438 -35.65625 20.078125 -35.65625 C 23.378906 -35.65625 26.25 -34.957031 28.6875 -33.5625 C 31.132812 -32.164062 33.019531 -30.101562 34.34375 -27.375 C 35.664062 -24.644531 36.328125 -21.347656 36.328125 -17.484375 C 36.328125 -13.609375 35.664062 -10.3125 34.34375 -7.59375 C 33.019531 -4.875 31.132812 -2.816406 28.6875 -1.421875 C 26.25 -0.0234375 23.378906 0.671875 20.078125 0.671875 Z M 20.078125 -3.96875 C 23.566406 -3.96875 26.234375 -5.066406 28.078125 -7.265625 C 29.929688 -9.460938 30.859375 -12.867188 30.859375 -17.484375 C 30.859375 -22.109375 29.929688 -25.519531 28.078125 -27.71875 C 26.234375 -29.925781 23.566406 -31.03125 20.078125 -31.03125 C 16.585938 -31.03125 13.910156 -29.921875 12.046875 -27.703125 C 10.191406 -25.492188 9.265625 -22.085938 9.265625 -17.484375 C 9.265625 -12.867188 10.191406 -9.460938 12.046875 -7.265625 C 13.910156 -5.066406 16.585938 -3.96875 20.078125 -3.96875 Z M 20.078125 -3.96875 "/></g></g></g><g fill="#000000" fill-opacity="1"><g transform="translate(495.011927, 220.743646)"><g><path d="M 6.09375 0 L 6.09375 -34.984375 L 11.015625 -34.984375 L 11.015625 -29.5 L 11.671875 -29.34375 C 12.835938 -31.394531 14.320312 -32.957031 16.125 -34.03125 C 17.9375 -35.113281 20.144531 -35.65625 22.75 -35.65625 C 26.957031 -35.65625 30.003906 -34.582031 31.890625 -32.4375 C 33.785156 -30.289062 34.734375 -26.984375 34.734375 -22.515625 L 34.734375 0 L 29.5625 0 L 29.5625 -22.390625 C 29.5625 -24.503906 29.289062 -26.203125 28.75 -27.484375 C 28.21875 -28.765625 27.382812 -29.695312 26.25 -30.28125 C 25.113281 -30.863281 23.628906 -31.15625 21.796875 -31.15625 C 18.640625 -31.15625 16.09375 -30.113281 14.15625 -28.03125 C 12.226562 -25.945312 11.265625 -22.585938 11.265625 -17.953125 L 11.265625 0 Z M 6.09375 0 "/></g></g></g><g fill="#000000" fill-opacity="1"><g transform="translate(535.292885, 220.743646)"><g/></g></g><g fill="#000000" fill-opacity="1"><g transform="translate(551.214958, 220.743646)"><g><path d="M 14.4375 0.671875 C 10.988281 0.671875 8.296875 -0.226562 6.359375 -2.03125 C 4.421875 -3.832031 3.453125 -6.398438 3.453125 -9.734375 C 3.453125 -11.804688 3.878906 -13.554688 4.734375 -14.984375 C 5.597656 -16.410156 6.925781 -17.570312 8.71875 -18.46875 C 10.519531 -19.375 12.867188 -20.070312 15.765625 -20.5625 C 18.304688 -20.976562 20.234375 -21.453125 21.546875 -21.984375 C 22.867188 -22.515625 23.757812 -23.109375 24.21875 -23.765625 C 24.675781 -24.421875 24.90625 -25.242188 24.90625 -26.234375 C 24.90625 -27.816406 24.359375 -29.03125 23.265625 -29.875 C 22.179688 -30.726562 20.429688 -31.15625 18.015625 -31.15625 C 15.753906 -31.15625 13.8125 -30.710938 12.1875 -29.828125 C 10.570312 -28.953125 9.085938 -27.648438 7.734375 -25.921875 L 7.109375 -25.921875 L 4.5625 -29.5 C 6.039062 -31.382812 7.921875 -32.878906 10.203125 -33.984375 C 12.492188 -35.097656 15.097656 -35.65625 18.015625 -35.65625 C 22.140625 -35.65625 25.179688 -34.75 27.140625 -32.9375 C 29.097656 -31.132812 30.078125 -28.632812 30.078125 -25.4375 L 30.078125 -6.890625 C 30.078125 -4.941406 30.898438 -3.96875 32.546875 -3.96875 C 33.097656 -3.96875 33.628906 -4.0625 34.140625 -4.25 L 34.578125 -4.125 L 35.1875 -0.546875 C 34.800781 -0.285156 34.296875 -0.0859375 33.671875 0.046875 C 33.046875 0.179688 32.40625 0.25 31.75 0.25 C 29.832031 0.25 28.378906 -0.171875 27.390625 -1.015625 C 26.410156 -1.859375 25.78125 -3.109375 25.5 -4.765625 L 24.84375 -4.828125 C 23.84375 -2.984375 22.492188 -1.601562 20.796875 -0.6875 C 19.109375 0.21875 16.988281 0.671875 14.4375 0.671875 Z M 15.578125 -3.453125 C 17.523438 -3.453125 19.210938 -3.898438 20.640625 -4.796875 C 22.066406 -5.703125 23.160156 -6.96875 23.921875 -8.59375 C 24.679688 -10.226562 25.0625 -12.113281 25.0625 -14.25 L 25.0625 -18.6875 L 24.453125 -18.8125 C 23.671875 -18.257812 22.71875 -17.796875 21.59375 -17.421875 C 20.476562 -17.054688 18.914062 -16.726562 16.90625 -16.4375 C 14.875 -16.15625 13.257812 -15.726562 12.0625 -15.15625 C 10.875 -14.59375 10.023438 -13.867188 9.515625 -12.984375 C 9.003906 -12.109375 8.75 -11.023438 8.75 -9.734375 C 8.75 -7.679688 9.351562 -6.117188 10.5625 -5.046875 C 11.769531 -3.984375 13.441406 -3.453125 15.578125 -3.453125 Z M 15.578125 -3.453125 "/></g></g></g><g fill="#000000" fill-opacity="1"><g transform="translate(587.404425, 220.743646)"><g/></g></g><g fill="#000000" fill-opacity="1"><g transform="translate(603.326497, 220.743646)"><g><path d="M 3.296875 0 L 3.296875 -4.5 L 15.953125 -4.5 L 15.953125 -39.96875 L 15.234375 -40.15625 C 13.179688 -39.144531 11.378906 -38.367188 9.828125 -37.828125 C 8.285156 -37.285156 6.3125 -36.765625 3.90625 -36.265625 L 3.90625 -41.265625 C 6.289062 -41.773438 8.648438 -42.460938 10.984375 -43.328125 C 13.328125 -44.203125 15.453125 -45.21875 17.359375 -46.375 L 21.28125 -46.375 L 21.28125 -4.5 L 32.609375 -4.5 L 32.609375 0 Z M 3.296875 0 "/></g></g></g><g fill="#000000" fill-opacity="1"><g transform="translate(637.898364, 220.743646)"><g><path d="M 22.140625 0.671875 C 18.859375 0.671875 15.914062 -0.113281 13.3125 -1.6875 C 10.71875 -3.269531 8.644531 -5.835938 7.09375 -9.390625 C 5.539062 -12.941406 4.765625 -17.539062 4.765625 -23.1875 C 4.765625 -28.664062 5.539062 -33.1875 7.09375 -36.75 C 8.644531 -40.3125 10.765625 -42.914062 13.453125 -44.5625 C 16.140625 -46.21875 19.207031 -47.046875 22.65625 -47.046875 C 28.59375 -47.046875 32.96875 -45.238281 35.78125 -41.625 L 33.125 -38.03125 L 32.328125 -38.03125 C 30.046875 -40.78125 26.820312 -42.15625 22.65625 -42.15625 C 18.632812 -42.15625 15.566406 -40.640625 13.453125 -37.609375 C 11.335938 -34.578125 10.28125 -29.726562 10.28125 -23.0625 L 10.9375 -22.875 C 12.207031 -25.5 13.859375 -27.460938 15.890625 -28.765625 C 17.921875 -30.078125 20.414062 -30.734375 23.375 -30.734375 C 26.320312 -30.734375 28.867188 -30.109375 31.015625 -28.859375 C 33.160156 -27.617188 34.800781 -25.816406 35.9375 -23.453125 C 37.082031 -21.097656 37.65625 -18.3125 37.65625 -15.09375 C 37.65625 -11.882812 37.019531 -9.09375 35.75 -6.71875 C 34.476562 -4.351562 32.675781 -2.53125 30.34375 -1.25 C 28.007812 0.03125 25.273438 0.671875 22.140625 0.671875 Z M 22.140625 -4.25 C 25.210938 -4.25 27.613281 -5.175781 29.34375 -7.03125 C 31.070312 -8.894531 31.9375 -11.582031 31.9375 -15.09375 C 31.9375 -18.625 31.070312 -21.320312 29.34375 -23.1875 C 27.613281 -25.050781 25.210938 -25.984375 22.140625 -25.984375 C 20.046875 -25.984375 18.226562 -25.550781 16.6875 -24.6875 C 15.144531 -23.832031 13.953125 -22.59375 13.109375 -20.96875 C 12.273438 -19.34375 11.859375 -17.382812 11.859375 -15.09375 C 11.859375 -12.832031 12.273438 -10.890625 13.109375 -9.265625 C 13.953125 -7.640625 15.144531 -6.394531 16.6875 -5.53125 C 18.226562 -4.675781 20.046875 -4.25 22.140625 -4.25 Z M 22.140625 -4.25 "/></g></g></g><g fill="#000000" fill-opacity="1"><g transform="translate(679.670076, 220.743646)"><g><path d="M 7.296875 0 L 1.59375 0 L 12.40625 -18.140625 L 2.125 -34.984375 L 7.96875 -34.984375 L 16.046875 -21.546875 L 16.78125 -21.546875 L 24.90625 -34.984375 L 30.484375 -34.984375 L 20.46875 -18.140625 L 31.03125 0 L 25.1875 0 L 16.5625 -14.78125 L 15.828125 -14.78125 Z M 7.296875 0 "/></g></g></g><g fill="#000000" fill-opacity="1"><g transform="translate(712.275482, 220.743646)"><g><path d="M 3.296875 0 L 3.296875 -4.5 L 15.953125 -4.5 L 15.953125 -39.96875 L 15.234375 -40.15625 C 13.179688 -39.144531 11.378906 -38.367188 9.828125 -37.828125 C 8.285156 -37.285156 6.3125 -36.765625 3.90625 -36.265625 L 3.90625 -41.265625 C 6.289062 -41.773438 8.648438 -42.460938 10.984375 -43.328125 C 13.328125 -44.203125 15.453125 -45.21875 17.359375 -46.375 L 21.28125 -46.375 L 21.28125 -4.5 L 32.609375 -4.5 L 32.609375 0 Z M 3.296875 0 "/></g></g></g><g fill="#000000" fill-opacity="1"><g transform="translate(746.847349, 220.743646)"><g><path d="M 22.140625 0.671875 C 18.859375 0.671875 15.914062 -0.113281 13.3125 -1.6875 C 10.71875 -3.269531 8.644531 -5.835938 7.09375 -9.390625 C 5.539062 -12.941406 4.765625 -17.539062 4.765625 -23.1875 C 4.765625 -28.664062 5.539062 -33.1875 7.09375 -36.75 C 8.644531 -40.3125 10.765625 -42.914062 13.453125 -44.5625 C 16.140625 -46.21875 19.207031 -47.046875 22.65625 -47.046875 C 28.59375 -47.046875 32.96875 -45.238281 35.78125 -41.625 L 33.125 -38.03125 L 32.328125 -38.03125 C 30.046875 -40.78125 26.820312 -42.15625 22.65625 -42.15625 C 18.632812 -42.15625 15.566406 -40.640625 13.453125 -37.609375 C 11.335938 -34.578125 10.28125 -29.726562 10.28125 -23.0625 L 10.9375 -22.875 C 12.207031 -25.5 13.859375 -27.460938 15.890625 -28.765625 C 17.921875 -30.078125 20.414062 -30.734375 23.375 -30.734375 C 26.320312 -30.734375 28.867188 -30.109375 31.015625 -28.859375 C 33.160156 -27.617188 34.800781 -25.816406 35.9375 -23.453125 C 37.082031 -21.097656 37.65625 -18.3125 37.65625 -15.09375 C 37.65625 -11.882812 37.019531 -9.09375 35.75 -6.71875 C 34.476562 -4.351562 32.675781 -2.53125 30.34375 -1.25 C 28.007812 0.03125 25.273438 0.671875 22.140625 0.671875 Z M 22.140625 -4.25 C 25.210938 -4.25 27.613281 -5.175781 29.34375 -7.03125 C 31.070312 -8.894531 31.9375 -11.582031 31.9375 -15.09375 C 31.9375 -18.625 31.070312 -21.320312 29.34375 -23.1875 C 27.613281 -25.050781 25.210938 -25.984375 22.140625 -25.984375 C 20.046875 -25.984375 18.226562 -25.550781 16.6875 -24.6875 C 15.144531 -23.832031 13.953125 -22.59375 13.109375 -20.96875 C 12.273438 -19.34375 11.859375 -17.382812 11.859375 -15.09375 C 11.859375 -12.832031 12.273438 -10.890625 13.109375 -9.265625 C 13.953125 -7.640625 15.144531 -6.394531 16.6875 -5.53125 C 18.226562 -4.675781 20.046875 -4.25 22.140625 -4.25 Z M 22.140625 -4.25 "/></g></g></g><g fill="#000000" fill-opacity="1"><g transform="translate(788.619014, 220.743646)"><g/></g></g><g fill="#000000" fill-opacity="1"><g transform="translate(804.541133, 220.743646)"><g><path d="M 6.09375 14.1875 L 6.09375 -34.984375 L 11.265625 -34.984375 L 11.265625 -29.75 L 11.921875 -29.625 C 14.523438 -33.644531 18.34375 -35.65625 23.375 -35.65625 C 26.289062 -35.65625 28.835938 -34.988281 31.015625 -33.65625 C 33.203125 -32.320312 34.894531 -30.296875 36.09375 -27.578125 C 37.300781 -24.859375 37.90625 -21.492188 37.90625 -17.484375 C 37.90625 -13.484375 37.269531 -10.128906 36 -7.421875 C 34.738281 -4.710938 32.984375 -2.6875 30.734375 -1.34375 C 28.492188 0 25.914062 0.671875 23 0.671875 C 20.632812 0.671875 18.53125 0.257812 16.6875 -0.5625 C 14.84375 -1.394531 13.253906 -2.75 11.921875 -4.625 L 11.265625 -4.5 L 11.265625 14.1875 Z M 21.859375 -3.96875 C 28.941406 -3.96875 32.484375 -8.472656 32.484375 -17.484375 C 32.484375 -26.515625 28.941406 -31.03125 21.859375 -31.03125 C 19.785156 -31.03125 17.953125 -30.550781 16.359375 -29.59375 C 14.773438 -28.644531 13.53125 -27.160156 12.625 -25.140625 C 11.71875 -23.117188 11.265625 -20.566406 11.265625 -17.484375 C 11.265625 -14.410156 11.71875 -11.863281 12.625 -9.84375 C 13.53125 -7.832031 14.773438 -6.347656 16.359375 -5.390625 C 17.953125 -4.441406 19.785156 -3.96875 21.859375 -3.96875 Z M 21.859375 -3.96875 "/></g></g></g><g fill="#000000" fill-opacity="1"><g transform="translate(846.28112, 220.743646)"><g><path d="M 13.921875 0.671875 C 11.453125 0.671875 9.507812 -0.03125 8.09375 -1.4375 C 6.675781 -2.84375 5.96875 -4.941406 5.96875 -7.734375 L 5.96875 -49.046875 L 11.140625 -49.046875 L 11.140625 -8.09375 C 11.140625 -6.632812 11.414062 -5.582031 11.96875 -4.9375 C 12.53125 -4.289062 13.40625 -3.96875 14.59375 -3.96875 C 15.3125 -3.96875 16.039062 -4.082031 16.78125 -4.3125 L 17.21875 -4.1875 L 17.828125 -0.125 C 17.441406 0.125 16.894531 0.316406 16.1875 0.453125 C 15.476562 0.597656 14.722656 0.671875 13.921875 0.671875 Z M 13.921875 0.671875 "/></g></g></g><g fill="#000000" fill-opacity="1"><g transform="translate(865.311545, 220.743646)"><g><path d="M 14.4375 0.671875 C 10.988281 0.671875 8.296875 -0.226562 6.359375 -2.03125 C 4.421875 -3.832031 3.453125 -6.398438 3.453125 -9.734375 C 3.453125 -11.804688 3.878906 -13.554688 4.734375 -14.984375 C 5.597656 -16.410156 6.925781 -17.570312 8.71875 -18.46875 C 10.519531 -19.375 12.867188 -20.070312 15.765625 -20.5625 C 18.304688 -20.976562 20.234375 -21.453125 21.546875 -21.984375 C 22.867188 -22.515625 23.757812 -23.109375 24.21875 -23.765625 C 24.675781 -24.421875 24.90625 -25.242188 24.90625 -26.234375 C 24.90625 -27.816406 24.359375 -29.03125 23.265625 -29.875 C 22.179688 -30.726562 20.429688 -31.15625 18.015625 -31.15625 C 15.753906 -31.15625 13.8125 -30.710938 12.1875 -29.828125 C 10.570312 -28.953125 9.085938 -27.648438 7.734375 -25.921875 L 7.109375 -25.921875 L 4.5625 -29.5 C 6.039062 -31.382812 7.921875 -32.878906 10.203125 -33.984375 C 12.492188 -35.097656 15.097656 -35.65625 18.015625 -35.65625 C 22.140625 -35.65625 25.179688 -34.75 27.140625 -32.9375 C 29.097656 -31.132812 30.078125 -28.632812 30.078125 -25.4375 L 30.078125 -6.890625 C 30.078125 -4.941406 30.898438 -3.96875 32.546875 -3.96875 C 33.097656 -3.96875 33.628906 -4.0625 34.140625 -4.25 L 34.578125 -4.125 L 35.1875 -0.546875 C 34.800781 -0.285156 34.296875 -0.0859375 33.671875 0.046875 C 33.046875 0.179688 32.40625 0.25 31.75 0.25 C 29.832031 0.25 28.378906 -0.171875 27.390625 -1.015625 C 26.410156 -1.859375 25.78125 -3.109375 25.5 -4.765625 L 24.84375 -4.828125 C 23.84375 -2.984375 22.492188 -1.601562 20.796875 -0.6875 C 19.109375 0.21875 16.988281 0.671875 14.4375 0.671875 Z M 15.578125 -3.453125 C 17.523438 -3.453125 19.210938 -3.898438 20.640625 -4.796875 C 22.066406 -5.703125 23.160156 -6.96875 23.921875 -8.59375 C 24.679688 -10.226562 25.0625 -12.113281 25.0625 -14.25 L 25.0625 -18.6875 L 24.453125 -18.8125 C 23.671875 -18.257812 22.71875 -17.796875 21.59375 -17.421875 C 20.476562 -17.054688 18.914062 -16.726562 16.90625 -16.4375 C 14.875 -16.15625 13.257812 -15.726562 12.0625 -15.15625 C 10.875 -14.59375 10.023438 -13.867188 9.515625 -12.984375 C 9.003906 -12.109375 8.75 -11.023438 8.75 -9.734375 C 8.75 -7.679688 9.351562 -6.117188 10.5625 -5.046875 C 11.769531 -3.984375 13.441406 -3.453125 15.578125 -3.453125 Z M 15.578125 -3.453125 "/></g></g></g><g fill="#000000" fill-opacity="1"><g transform="translate(901.500966, 220.743646)"><g><path d="M 23.671875 -5.546875 L 25.3125 -1.84375 C 24.488281 -1.019531 23.40625 -0.394531 22.0625 0.03125 C 20.71875 0.457031 19.265625 0.671875 17.703125 0.671875 C 11.015625 0.671875 7.671875 -2.710938 7.671875 -9.484375 L 7.671875 -30.765625 L 1.59375 -30.765625 L 1.59375 -35.015625 L 7.671875 -35.015625 L 7.671875 -42.40625 L 12.84375 -43.265625 L 12.84375 -35.015625 L 24.109375 -35.015625 L 24.109375 -30.765625 L 12.84375 -30.765625 L 12.84375 -10 C 12.84375 -5.976562 14.585938 -3.96875 18.078125 -3.96875 C 19.984375 -3.96875 21.625 -4.492188 23 -5.546875 Z M 23.671875 -5.546875 "/></g></g></g><g fill="#000000" fill-opacity="1"><g transform="translate(928.143451, 220.743646)"><g><path d="M 33.34375 -16.3125 L 9.296875 -16.3125 C 9.441406 -12.050781 10.460938 -8.925781 12.359375 -6.9375 C 14.253906 -4.957031 16.847656 -3.96875 20.140625 -3.96875 C 22.640625 -3.96875 24.648438 -4.410156 26.171875 -5.296875 C 27.691406 -6.179688 28.882812 -7.578125 29.75 -9.484375 L 30.421875 -9.484375 L 33.78125 -7.484375 C 32.769531 -4.953125 31.144531 -2.957031 28.90625 -1.5 C 26.675781 -0.0507812 23.753906 0.671875 20.140625 0.671875 C 16.753906 0.671875 13.84375 0.00390625 11.40625 -1.328125 C 8.976562 -2.660156 7.109375 -4.679688 5.796875 -7.390625 C 4.492188 -10.097656 3.84375 -13.460938 3.84375 -17.484375 C 3.84375 -21.453125 4.535156 -24.800781 5.921875 -27.53125 C 7.304688 -30.257812 9.195312 -32.296875 11.59375 -33.640625 C 14 -34.984375 16.742188 -35.65625 19.828125 -35.65625 C 24.304688 -35.65625 27.804688 -34.390625 30.328125 -31.859375 C 32.847656 -29.335938 34.117188 -25.59375 34.140625 -20.625 C 34.140625 -18.675781 34.09375 -17.363281 34 -16.6875 Z M 29.03125 -20.625 C 28.945312 -24.34375 28.117188 -27.046875 26.546875 -28.734375 C 24.984375 -30.429688 22.742188 -31.28125 19.828125 -31.28125 C 16.765625 -31.28125 14.359375 -30.425781 12.609375 -28.71875 C 10.867188 -27.019531 9.804688 -24.320312 9.421875 -20.625 Z M 29.03125 -20.625 "/></g></g></g></svg>