<svg xmlns="http://www.w3.org/2000/svg" xmlns:xlink="http://www.w3.org/1999/xlink" width="1620" zoomAndPan="magnify" viewBox="0 0 1215 809.999993" height="1080" preserveAspectRatio="xMidYMid meet" version="1.0"><defs><g/></defs><g fill="#000000" fill-opacity="1"><g transform="translate(0.00000525, 70.743654)"><g><path d="M 36.203125 -19.84375 L 47.203125 -62.03125 L 66.015625 -62.03125 L 66.015625 0 L 54.40625 0 L 54.40625 -48.859375 L 42.1875 0 L 30.140625 0 L 17.765625 -48.765625 L 17.765625 0 L 6.15625 0 L 6.15625 -62.03125 L 24.859375 -62.03125 Z M 36.203125 -19.84375 "/></g></g></g><g fill="#000000" fill-opacity="1"><g transform="translate(72.148924, 70.743654)"><g><path d="M 26.59375 -45.90625 C 31.445312 -45.90625 35.632812 -44.804688 39.15625 -42.609375 C 42.675781 -40.421875 45.332031 -37.535156 47.125 -33.953125 C 48.914062 -30.378906 49.8125 -26.597656 49.8125 -22.609375 C 49.8125 -18.453125 48.867188 -14.566406 46.984375 -10.953125 C 45.109375 -7.347656 42.425781 -4.445312 38.9375 -2.25 C 35.445312 -0.0507812 31.363281 1.046875 26.6875 1.046875 C 22.695312 1.046875 18.941406 0.222656 15.421875 -1.421875 C 11.898438 -3.066406 9.023438 -5.691406 6.796875 -9.296875 C 4.578125 -12.910156 3.46875 -17.492188 3.46875 -23.046875 C 3.46875 -26.910156 4.347656 -30.585938 6.109375 -34.078125 C 7.867188 -37.578125 10.492188 -40.421875 13.984375 -42.609375 C 17.484375 -44.804688 21.6875 -45.90625 26.59375 -45.90625 Z M 15.671875 -22.4375 C 15.671875 -17.925781 16.722656 -14.5 18.828125 -12.15625 C 20.941406 -9.820312 23.53125 -8.65625 26.59375 -8.65625 C 29.65625 -8.65625 32.253906 -9.8125 34.390625 -12.125 C 36.523438 -14.4375 37.59375 -17.898438 37.59375 -22.515625 C 37.59375 -26.796875 36.566406 -30.144531 34.515625 -32.5625 C 32.460938 -34.988281 29.789062 -36.203125 26.5 -36.203125 C 23.5 -36.203125 20.941406 -35.019531 18.828125 -32.65625 C 16.722656 -30.289062 15.671875 -26.882812 15.671875 -22.4375 Z M 15.671875 -22.4375 "/></g></g></g><g fill="#000000" fill-opacity="1"><g transform="translate(125.069686, 70.743654)"><g><path d="M 32.046875 -45.90625 C 34.703125 -45.90625 37.007812 -45.457031 38.96875 -44.5625 C 40.9375 -43.664062 42.5 -42.613281 43.65625 -41.40625 C 45.039062 -39.90625 45.945312 -38.128906 46.375 -36.078125 C 46.8125 -34.023438 47.03125 -31.757812 47.03125 -29.28125 L 47.03125 0 L 35.171875 0 L 35.171875 -24.515625 C 35.171875 -28.671875 34.707031 -31.757812 33.78125 -33.78125 C 32.851562 -35.800781 30.890625 -36.8125 27.890625 -36.8125 C 25.066406 -36.8125 22.875 -36.003906 21.3125 -34.390625 C 19.75 -32.773438 18.820312 -30.898438 18.53125 -28.765625 C 18.363281 -27.378906 18.234375 -26.132812 18.140625 -25.03125 C 18.054688 -23.9375 18.015625 -22.695312 18.015625 -21.3125 L 18.015625 0 L 6.15625 0 L 6.15625 -44.875 L 17.40625 -44.875 L 17.40625 -38.28125 C 18.675781 -40.1875 20.566406 -41.929688 23.078125 -43.515625 C 25.597656 -45.109375 28.585938 -45.90625 32.046875 -45.90625 Z M 32.046875 -45.90625 "/></g></g></g><g fill="#000000" fill-opacity="1"><g transform="translate(177.990449, 70.743654)"><g><path d="M 26.59375 -45.90625 C 31.445312 -45.90625 35.632812 -44.804688 39.15625 -42.609375 C 42.675781 -40.421875 45.332031 -37.535156 47.125 -33.953125 C 48.914062 -30.378906 49.8125 -26.597656 49.8125 -22.609375 C 49.8125 -18.453125 48.867188 -14.566406 46.984375 -10.953125 C 45.109375 -7.347656 42.425781 -4.445312 38.9375 -2.25 C 35.445312 -0.0507812 31.363281 1.046875 26.6875 1.046875 C 22.695312 1.046875 18.941406 0.222656 15.421875 -1.421875 C 11.898438 -3.066406 9.023438 -5.691406 6.796875 -9.296875 C 4.578125 -12.910156 3.46875 -17.492188 3.46875 -23.046875 C 3.46875 -26.910156 4.347656 -30.585938 6.109375 -34.078125 C 7.867188 -37.578125 10.492188 -40.421875 13.984375 -42.609375 C 17.484375 -44.804688 21.6875 -45.90625 26.59375 -45.90625 Z M 15.671875 -22.4375 C 15.671875 -17.925781 16.722656 -14.5 18.828125 -12.15625 C 20.941406 -9.820312 23.53125 -8.65625 26.59375 -8.65625 C 29.65625 -8.65625 32.253906 -9.8125 34.390625 -12.125 C 36.523438 -14.4375 37.59375 -17.898438 37.59375 -22.515625 C 37.59375 -26.796875 36.566406 -30.144531 34.515625 -32.5625 C 32.460938 -34.988281 29.789062 -36.203125 26.5 -36.203125 C 23.5 -36.203125 20.941406 -35.019531 18.828125 -32.65625 C 16.722656 -30.289062 15.671875 -26.882812 15.671875 -22.4375 Z M 15.671875 -22.4375 "/></g></g></g><g fill="#000000" fill-opacity="1"><g transform="translate(230.911211, 70.743654)"><g><path d="M 27.03125 -45.90625 C 28.300781 -45.90625 29.640625 -45.703125 31.046875 -45.296875 C 32.460938 -44.898438 33.722656 -44.382812 34.828125 -43.75 L 31.09375 -33.34375 C 29.070312 -34.613281 27.222656 -35.25 25.546875 -35.25 C 23.296875 -35.25 21.59375 -34.484375 20.4375 -32.953125 C 19.289062 -31.429688 18.523438 -29.296875 18.140625 -26.546875 C 17.765625 -23.804688 17.578125 -20.15625 17.578125 -15.59375 L 17.578125 0 L 5.71875 0 L 5.71875 -44.875 L 16.71875 -44.875 L 16.71875 -38.546875 L 16.890625 -38.546875 C 18.335938 -40.972656 19.78125 -42.804688 21.21875 -44.046875 C 22.664062 -45.285156 24.601562 -45.90625 27.03125 -45.90625 Z M 27.03125 -45.90625 "/></g></g></g><g fill="#000000" fill-opacity="1"><g transform="translate(264.603806, 70.743654)"><g><path d="M 23.734375 -45.90625 C 29.453125 -45.90625 33.695312 -45.171875 36.46875 -43.703125 C 39.238281 -42.234375 40.984375 -40.296875 41.703125 -37.890625 C 42.429688 -35.492188 42.765625 -32.332031 42.703125 -28.40625 L 42.625 -15.328125 C 42.5625 -11.234375 42.703125 -8.257812 43.046875 -6.40625 C 43.398438 -4.5625 44.125 -2.425781 45.21875 0 L 33.53125 0 C 33.238281 -0.632812 32.71875 -2.28125 31.96875 -4.9375 C 29.832031 -2.851562 27.625 -1.332031 25.34375 -0.375 C 23.0625 0.570312 20.617188 1.046875 18.015625 1.046875 C 13.566406 1.046875 9.972656 -0.179688 7.234375 -2.640625 C 4.492188 -5.097656 3.125 -8.289062 3.125 -12.21875 C 3.125 -15.507812 3.945312 -18.117188 5.59375 -20.046875 C 7.238281 -21.984375 9.242188 -23.382812 11.609375 -24.25 C 13.972656 -25.113281 16.773438 -25.863281 20.015625 -26.5 C 24.972656 -27.425781 28.640625 -28.351562 31.015625 -29.28125 L 31.015625 -31.1875 C 31.015625 -33.144531 30.4375 -34.570312 29.28125 -35.46875 C 28.125 -36.363281 26.015625 -36.8125 22.953125 -36.8125 C 20.585938 -36.8125 18.828125 -36.332031 17.671875 -35.375 C 16.515625 -34.425781 15.648438 -33.03125 15.078125 -31.1875 L 4.328125 -33.171875 C 5.484375 -37.566406 7.5625 -40.785156 10.5625 -42.828125 C 13.570312 -44.878906 17.960938 -45.90625 23.734375 -45.90625 Z M 23.5625 -19.65625 L 21.5625 -19.234375 C 17.175781 -18.304688 14.984375 -16.398438 14.984375 -13.515625 C 14.984375 -11.785156 15.601562 -10.328125 16.84375 -9.140625 C 18.09375 -7.953125 19.664062 -7.359375 21.5625 -7.359375 C 23.125 -7.359375 24.6875 -7.757812 26.25 -8.5625 C 27.8125 -9.375 29.023438 -10.445312 29.890625 -11.78125 C 30.640625 -12.988281 31.015625 -15.066406 31.015625 -18.015625 L 31.015625 -21.5625 C 28.765625 -20.875 26.28125 -20.238281 23.5625 -19.65625 Z M 23.5625 -19.65625 "/></g></g></g><g fill="#000000" fill-opacity="1"><g transform="translate(312.760839, 70.743654)"><g><path d="M 18.109375 -51.015625 L 6.234375 -51.015625 L 6.234375 -62.03125 L 18.109375 -62.03125 Z M 18.109375 0 L 6.234375 0 L 6.234375 -44.875 L 18.109375 -44.875 Z M 18.109375 0 "/></g></g></g><g fill="#000000" fill-opacity="1"><g transform="translate(336.839344, 70.743654)"><g><path d="M 18.109375 0 L 6.234375 0 L 6.234375 -62.03125 L 18.109375 -62.03125 Z M 18.109375 0 "/></g></g></g><g fill="#000000" fill-opacity="1"><g transform="translate(0.00000525, 220.743646)"><g><path d="M 15.328125 0.671875 C 13.015625 0.671875 10.894531 0.328125 8.96875 -0.359375 C 7.050781 -1.046875 5.429688 -1.984375 4.109375 -3.171875 C 2.785156 -4.359375 1.816406 -5.671875 1.203125 -7.109375 L 4.03125 -10.8125 L 4.828125 -10.8125 C 5.753906 -8.820312 7.117188 -7.25 8.921875 -6.09375 C 10.734375 -4.945312 12.867188 -4.375 15.328125 -4.375 C 17.304688 -4.375 18.921875 -4.695312 20.171875 -5.34375 C 21.421875 -5.988281 22.359375 -7.054688 22.984375 -8.546875 C 23.609375 -10.035156 23.921875 -12.050781 23.921875 -14.59375 L 23.921875 -46.375 L 29.34375 -46.375 L 29.34375 -14.5 C 29.34375 -9.25 28.171875 -5.40625 25.828125 -2.96875 C 23.492188 -0.539062 19.992188 0.671875 15.328125 0.671875 Z M 15.328125 0.671875 "/></g></g></g><g fill="#000000" fill-opacity="1"><g transform="translate(35.93571, 220.743646)"><g><path d="M 17.28125 0.671875 C 13.332031 0.671875 10.390625 -0.375 8.453125 -2.46875 C 6.515625 -4.5625 5.546875 -7.628906 5.546875 -11.671875 L 5.546875 -34.984375 L 10.71875 -34.984375 L 10.71875 -11.796875 C 10.71875 -6.492188 13.210938 -3.84375 18.203125 -3.84375 C 21.378906 -3.84375 23.882812 -4.878906 25.71875 -6.953125 C 27.5625 -9.023438 28.484375 -12.382812 28.484375 -17.03125 L 28.484375 -34.984375 L 33.65625 -34.984375 L 33.65625 0 L 28.765625 0 L 28.765625 -5.484375 L 28.109375 -5.640625 C 26.898438 -3.503906 25.453125 -1.914062 23.765625 -0.875 C 22.085938 0.15625 19.925781 0.671875 17.28125 0.671875 Z M 17.28125 0.671875 "/></g></g></g><g fill="#000000" fill-opacity="1"><g transform="translate(75.677491, 220.743646)"><g><path d="M 6.09375 0 L 6.09375 -34.984375 L 11.015625 -34.984375 L 11.015625 -29.5 L 11.671875 -29.34375 C 13.296875 -33.320312 16.363281 -35.3125 20.875 -35.3125 C 23.257812 -35.3125 25.046875 -34.875 26.234375 -34 L 24.90625 -29.625 L 24.265625 -29.5 C 22.953125 -30.15625 21.515625 -30.484375 19.953125 -30.484375 C 17.160156 -30.484375 15.015625 -29.4375 13.515625 -27.34375 C 12.015625 -25.25 11.265625 -21.851562 11.265625 -17.15625 L 11.265625 0 Z M 6.09375 0 "/></g></g></g><g fill="#000000" fill-opacity="1"><g transform="translate(102.70063, 220.743646)"><g><path d="M 14.4375 0.671875 C 10.988281 0.671875 8.296875 -0.226562 6.359375 -2.03125 C 4.421875 -3.832031 3.453125 -6.398438 3.453125 -9.734375 C 3.453125 -11.804688 3.878906 -13.554688 4.734375 -14.984375 C 5.597656 -16.410156 6.925781 -17.570312 8.71875 -18.46875 C 10.519531 -19.375 12.867188 -20.070312 15.765625 -20.5625 C 18.304688 -20.976562 20.234375 -21.453125 21.546875 -21.984375 C 22.867188 -22.515625 23.757812 -23.109375 24.21875 -23.765625 C 24.675781 -24.421875 24.90625 -25.242188 24.90625 -26.234375 C 24.90625 -27.816406 24.359375 -29.03125 23.265625 -29.875 C 22.179688 -30.726562 20.429688 -31.15625 18.015625 -31.15625 C 15.753906 -31.15625 13.8125 -30.710938 12.1875 -29.828125 C 10.570312 -28.953125 9.085938 -27.648438 7.734375 -25.921875 L 7.109375 -25.921875 L 4.5625 -29.5 C 6.039062 -31.382812 7.921875 -32.878906 10.203125 -33.984375 C 12.492188 -35.097656 15.097656 -35.65625 18.015625 -35.65625 C 22.140625 -35.65625 25.179688 -34.75 27.140625 -32.9375 C 29.097656 -31.132812 30.078125 -28.632812 30.078125 -25.4375 L 30.078125 -6.890625 C 30.078125 -4.941406 30.898438 -3.96875 32.546875 -3.96875 C 33.097656 -3.96875 33.628906 -4.0625 34.140625 -4.25 L 34.578125 -4.125 L 35.1875 -0.546875 C 34.800781 -0.285156 34.296875 -0.0859375 33.671875 0.046875 C 33.046875 0.179688 32.40625 0.25 31.75 0.25 C 29.832031 0.25 28.378906 -0.171875 27.390625 -1.015625 C 26.410156 -1.859375 25.78125 -3.109375 25.5 -4.765625 L 24.84375 -4.828125 C 23.84375 -2.984375 22.492188 -1.601562 20.796875 -0.6875 C 19.109375 0.21875 16.988281 0.671875 14.4375 0.671875 Z M 15.578125 -3.453125 C 17.523438 -3.453125 19.210938 -3.898438 20.640625 -4.796875 C 22.066406 -5.703125 23.160156 -6.96875 23.921875 -8.59375 C 24.679688 -10.226562 25.0625 -12.113281 25.0625 -14.25 L 25.0625 -18.6875 L 24.453125 -18.8125 C 23.671875 -18.257812 22.71875 -17.796875 21.59375 -17.421875 C 20.476562 -17.054688 18.914062 -16.726562 16.90625 -16.4375 C 14.875 -16.15625 13.257812 -15.726562 12.0625 -15.15625 C 10.875 -14.59375 10.023438 -13.867188 9.515625 -12.984375 C 9.003906 -12.109375 8.75 -11.023438 8.75 -9.734375 C 8.75 -7.679688 9.351562 -6.117188 10.5625 -5.046875 C 11.769531 -3.984375 13.441406 -3.453125 15.578125 -3.453125 Z M 15.578125 -3.453125 "/></g></g></g><g fill="#000000" fill-opacity="1"><g transform="translate(138.890074, 220.743646)"><g><path d="M 15.953125 0.671875 C 13.753906 0.671875 11.71875 0.378906 9.84375 -0.203125 C 7.976562 -0.785156 6.398438 -1.582031 5.109375 -2.59375 C 3.816406 -3.613281 2.90625 -4.757812 2.375 -6.03125 L 5.421875 -9.203125 L 6.09375 -9.203125 C 7.226562 -7.460938 8.597656 -6.15625 10.203125 -5.28125 C 11.816406 -4.40625 13.734375 -3.96875 15.953125 -3.96875 C 18.535156 -3.96875 20.5 -4.46875 21.84375 -5.46875 C 23.1875 -6.476562 23.859375 -7.878906 23.859375 -9.671875 C 23.859375 -11.046875 23.445312 -12.179688 22.625 -13.078125 C 21.8125 -13.984375 20.5 -14.65625 18.6875 -15.09375 L 12.78125 -16.5625 C 9.632812 -17.320312 7.335938 -18.523438 5.890625 -20.171875 C 4.441406 -21.828125 3.71875 -23.867188 3.71875 -26.296875 C 3.71875 -28.203125 4.203125 -29.859375 5.171875 -31.265625 C 6.140625 -32.671875 7.539062 -33.753906 9.375 -34.515625 C 11.207031 -35.273438 13.378906 -35.65625 15.890625 -35.65625 C 19.109375 -35.65625 21.640625 -35.203125 23.484375 -34.296875 C 25.335938 -33.398438 26.785156 -32.148438 27.828125 -30.546875 L 24.90625 -27.6875 L 24.265625 -27.6875 C 23.148438 -28.976562 21.929688 -29.910156 20.609375 -30.484375 C 19.285156 -31.054688 17.710938 -31.34375 15.890625 -31.34375 C 13.585938 -31.34375 11.820312 -30.929688 10.59375 -30.109375 C 9.363281 -29.285156 8.75 -28.085938 8.75 -26.515625 C 8.75 -25.097656 9.179688 -23.957031 10.046875 -23.09375 C 10.921875 -22.226562 12.4375 -21.53125 14.59375 -21 L 20.390625 -19.609375 C 23.441406 -18.890625 25.644531 -17.691406 27 -16.015625 C 28.351562 -14.347656 29.03125 -12.253906 29.03125 -9.734375 C 29.03125 -7.679688 28.539062 -5.875 27.5625 -4.3125 C 26.59375 -2.75 25.125 -1.523438 23.15625 -0.640625 C 21.1875 0.234375 18.785156 0.671875 15.953125 0.671875 Z M 15.953125 0.671875 "/></g></g></g><g fill="#000000" fill-opacity="1"><g transform="translate(171.241719, 220.743646)"><g><path d="M 15.953125 0.671875 C 13.753906 0.671875 11.71875 0.378906 9.84375 -0.203125 C 7.976562 -0.785156 6.398438 -1.582031 5.109375 -2.59375 C 3.816406 -3.613281 2.90625 -4.757812 2.375 -6.03125 L 5.421875 -9.203125 L 6.09375 -9.203125 C 7.226562 -7.460938 8.597656 -6.15625 10.203125 -5.28125 C 11.816406 -4.40625 13.734375 -3.96875 15.953125 -3.96875 C 18.535156 -3.96875 20.5 -4.46875 21.84375 -5.46875 C 23.1875 -6.476562 23.859375 -7.878906 23.859375 -9.671875 C 23.859375 -11.046875 23.445312 -12.179688 22.625 -13.078125 C 21.8125 -13.984375 20.5 -14.65625 18.6875 -15.09375 L 12.78125 -16.5625 C 9.632812 -17.320312 7.335938 -18.523438 5.890625 -20.171875 C 4.441406 -21.828125 3.71875 -23.867188 3.71875 -26.296875 C 3.71875 -28.203125 4.203125 -29.859375 5.171875 -31.265625 C 6.140625 -32.671875 7.539062 -33.753906 9.375 -34.515625 C 11.207031 -35.273438 13.378906 -35.65625 15.890625 -35.65625 C 19.109375 -35.65625 21.640625 -35.203125 23.484375 -34.296875 C 25.335938 -33.398438 26.785156 -32.148438 27.828125 -30.546875 L 24.90625 -27.6875 L 24.265625 -27.6875 C 23.148438 -28.976562 21.929688 -29.910156 20.609375 -30.484375 C 19.285156 -31.054688 17.710938 -31.34375 15.890625 -31.34375 C 13.585938 -31.34375 11.820312 -30.929688 10.59375 -30.109375 C 9.363281 -29.285156 8.75 -28.085938 8.75 -26.515625 C 8.75 -25.097656 9.179688 -23.957031 10.046875 -23.09375 C 10.921875 -22.226562 12.4375 -21.53125 14.59375 -21 L 20.390625 -19.609375 C 23.441406 -18.890625 25.644531 -17.691406 27 -16.015625 C 28.351562 -14.347656 29.03125 -12.253906 29.03125 -9.734375 C 29.03125 -7.679688 28.539062 -5.875 27.5625 -4.3125 C 26.59375 -2.75 25.125 -1.523438 23.15625 -0.640625 C 21.1875 0.234375 18.785156 0.671875 15.953125 0.671875 Z M 15.953125 0.671875 "/></g></g></g><g fill="#000000" fill-opacity="1"><g transform="translate(203.593364, 220.743646)"><g><path d="M 8.6875 -41.75 C 7.59375 -41.75 6.703125 -42.09375 6.015625 -42.78125 C 5.328125 -43.46875 4.984375 -44.335938 4.984375 -45.390625 C 4.984375 -46.453125 5.328125 -47.328125 6.015625 -48.015625 C 6.703125 -48.703125 7.59375 -49.046875 8.6875 -49.046875 C 9.789062 -49.046875 10.6875 -48.703125 11.375 -48.015625 C 12.0625 -47.328125 12.40625 -46.453125 12.40625 -45.390625 C 12.40625 -44.335938 12.0625 -43.46875 11.375 -42.78125 C 10.6875 -42.09375 9.789062 -41.75 8.6875 -41.75 Z M 6.09375 0 L 6.09375 -34.984375 L 11.265625 -34.984375 L 11.265625 0 Z M 6.09375 0 "/></g></g></g><g fill="#000000" fill-opacity="1"><g transform="translate(220.942743, 220.743646)"><g><path d="M 20.078125 0.671875 C 16.992188 0.671875 14.222656 -0.03125 11.765625 -1.4375 C 9.316406 -2.84375 7.382812 -4.914062 5.96875 -7.65625 C 4.550781 -10.394531 3.84375 -13.671875 3.84375 -17.484375 C 3.84375 -21.304688 4.550781 -24.585938 5.96875 -27.328125 C 7.382812 -30.066406 9.316406 -32.140625 11.765625 -33.546875 C 14.222656 -34.953125 16.992188 -35.65625 20.078125 -35.65625 C 23.773438 -35.65625 26.71875 -34.957031 28.90625 -33.5625 C 31.101562 -32.164062 32.6875 -30.304688 33.65625 -27.984375 L 30.140625 -25.4375 L 29.5 -25.4375 C 28.550781 -27.363281 27.332031 -28.773438 25.84375 -29.671875 C 24.351562 -30.578125 22.429688 -31.03125 20.078125 -31.03125 C 17.921875 -31.03125 16.023438 -30.519531 14.390625 -29.5 C 12.765625 -28.488281 11.503906 -26.96875 10.609375 -24.9375 C 9.710938 -22.90625 9.265625 -20.421875 9.265625 -17.484375 C 9.265625 -14.566406 9.71875 -12.097656 10.625 -10.078125 C 11.53125 -8.054688 12.789062 -6.53125 14.40625 -5.5 C 16.03125 -4.476562 17.921875 -3.96875 20.078125 -3.96875 C 22.515625 -3.96875 24.53125 -4.515625 26.125 -5.609375 C 27.71875 -6.710938 28.972656 -8.445312 29.890625 -10.8125 L 30.546875 -10.8125 L 33.9375 -8.8125 C 33.03125 -5.875 31.40625 -3.554688 29.0625 -1.859375 C 26.726562 -0.171875 23.734375 0.671875 20.078125 0.671875 Z M 20.078125 0.671875 "/></g></g></g><g fill="#000000" fill-opacity="1"><g transform="translate(257.005318, 220.743646)"><g/></g></g><g fill="#000000" fill-opacity="1"><g transform="translate(272.92739, 220.743646)"><g><path d="M 23.609375 -46.375 C 26.796875 -46.375 29.53125 -45.800781 31.8125 -44.65625 C 34.101562 -43.519531 35.84375 -41.890625 37.03125 -39.765625 C 38.226562 -37.640625 38.828125 -35.140625 38.828125 -32.265625 C 38.828125 -29.390625 38.226562 -26.894531 37.03125 -24.78125 C 35.84375 -22.664062 34.101562 -21.03125 31.8125 -19.875 C 29.53125 -18.71875 26.796875 -18.140625 23.609375 -18.140625 L 12.46875 -18.140625 L 12.46875 0 L 7.015625 0 L 7.015625 -46.375 Z M 23.4375 -22.8125 C 29.894531 -22.8125 33.125 -25.960938 33.125 -32.265625 C 33.125 -38.585938 29.894531 -41.75 23.4375 -41.75 L 12.46875 -41.75 L 12.46875 -22.8125 Z M 23.4375 -22.8125 "/></g></g></g><g fill="#000000" fill-opacity="1"><g transform="translate(315.206555, 220.743646)"><g><path d="M 14.4375 0.671875 C 10.988281 0.671875 8.296875 -0.226562 6.359375 -2.03125 C 4.421875 -3.832031 3.453125 -6.398438 3.453125 -9.734375 C 3.453125 -11.804688 3.878906 -13.554688 4.734375 -14.984375 C 5.597656 -16.410156 6.925781 -17.570312 8.71875 -18.46875 C 10.519531 -19.375 12.867188 -20.070312 15.765625 -20.5625 C 18.304688 -20.976562 20.234375 -21.453125 21.546875 -21.984375 C 22.867188 -22.515625 23.757812 -23.109375 24.21875 -23.765625 C 24.675781 -24.421875 24.90625 -25.242188 24.90625 -26.234375 C 24.90625 -27.816406 24.359375 -29.03125 23.265625 -29.875 C 22.179688 -30.726562 20.429688 -31.15625 18.015625 -31.15625 C 15.753906 -31.15625 13.8125 -30.710938 12.1875 -29.828125 C 10.570312 -28.953125 9.085938 -27.648438 7.734375 -25.921875 L 7.109375 -25.921875 L 4.5625 -29.5 C 6.039062 -31.382812 7.921875 -32.878906 10.203125 -33.984375 C 12.492188 -35.097656 15.097656 -35.65625 18.015625 -35.65625 C 22.140625 -35.65625 25.179688 -34.75 27.140625 -32.9375 C 29.097656 -31.132812 30.078125 -28.632812 30.078125 -25.4375 L 30.078125 -6.890625 C 30.078125 -4.941406 30.898438 -3.96875 32.546875 -3.96875 C 33.097656 -3.96875 33.628906 -4.0625 34.140625 -4.25 L 34.578125 -4.125 L 35.1875 -0.546875 C 34.800781 -0.285156 34.296875 -0.0859375 33.671875 0.046875 C 33.046875 0.179688 32.40625 0.25 31.75 0.25 C 29.832031 0.25 28.378906 -0.171875 27.390625 -1.015625 C 26.410156 -1.859375 25.78125 -3.109375 25.5 -4.765625 L 24.84375 -4.828125 C 23.84375 -2.984375 22.492188 -1.601562 20.796875 -0.6875 C 19.109375 0.21875 16.988281 0.671875 14.4375 0.671875 Z M 15.578125 -3.453125 C 17.523438 -3.453125 19.210938 -3.898438 20.640625 -4.796875 C 22.066406 -5.703125 23.160156 -6.96875 23.921875 -8.59375 C 24.679688 -10.226562 25.0625 -12.113281 25.0625 -14.25 L 25.0625 -18.6875 L 24.453125 -18.8125 C 23.671875 -18.257812 22.71875 -17.796875 21.59375 -17.421875 C 20.476562 -17.054688 18.914062 -16.726562 16.90625 -16.4375 C 14.875 -16.15625 13.257812 -15.726562 12.0625 -15.15625 C 10.875 -14.59375 10.023438 -13.867188 9.515625 -12.984375 C 9.003906 -12.109375 8.75 -11.023438 8.75 -9.734375 C 8.75 -7.679688 9.351562 -6.117188 10.5625 -5.046875 C 11.769531 -3.984375 13.441406 -3.453125 15.578125 -3.453125 Z M 15.578125 -3.453125 "/></g></g></g><g fill="#000000" fill-opacity="1"><g transform="translate(351.395999, 220.743646)"><g><path d="M 6.09375 0 L 6.09375 -34.984375 L 11.015625 -34.984375 L 11.015625 -29.5 L 11.671875 -29.34375 C 13.296875 -33.320312 16.363281 -35.3125 20.875 -35.3125 C 23.257812 -35.3125 25.046875 -34.875 26.234375 -34 L 24.90625 -29.625 L 24.265625 -29.5 C 22.953125 -30.15625 21.515625 -30.484375 19.953125 -30.484375 C 17.160156 -30.484375 15.015625 -29.4375 13.515625 -27.34375 C 12.015625 -25.25 11.265625 -21.851562 11.265625 -17.15625 L 11.265625 0 Z M 6.09375 0 "/></g></g></g><g fill="#000000" fill-opacity="1"><g transform="translate(378.419137, 220.743646)"><g><path d="M 6.09375 0 L 6.09375 -49.046875 L 11.265625 -49.046875 L 11.265625 -20.390625 L 12.125 -20.390625 L 25.125 -34.984375 L 30.546875 -34.984375 L 30.546875 -34.265625 L 16.6875 -18.5625 L 31.875 -0.796875 L 31.875 0 L 26.109375 0 L 12.125 -16.171875 L 11.265625 -16.171875 L 11.265625 0 Z M 6.09375 0 "/></g></g></g></svg>