<svg xmlns="http://www.w3.org/2000/svg" xmlns:xlink="http://www.w3.org/1999/xlink" width="1620" zoomAndPan="magnify" viewBox="0 0 1215 809.999993" height="1080" preserveAspectRatio="xMidYMid meet" version="1.0"><defs><g/></defs><g fill="#000000" fill-opacity="1"><g transform="translate(0.00000525, 70.743654)"><g><path d="M 62.28125 0 L 48.59375 0 L 43.21875 -14.03125 L 18.453125 -14.03125 L 13.34375 0 L 0 0 L 24.171875 -62.03125 L 37.421875 -62.03125 Z M 22.265625 -24.515625 L 39.234375 -24.515625 L 30.671875 -47.5625 Z M 22.265625 -24.515625 "/></g></g></g><g fill="#000000" fill-opacity="1"><g transform="translate(62.534845, 70.743654)"><g><path d="M 27.03125 -45.90625 C 28.300781 -45.90625 29.640625 -45.703125 31.046875 -45.296875 C 32.460938 -44.898438 33.722656 -44.382812 34.828125 -43.75 L 31.09375 -33.34375 C 29.070312 -34.613281 27.222656 -35.25 25.546875 -35.25 C 23.296875 -35.25 21.59375 -34.484375 20.4375 -32.953125 C 19.289062 -31.429688 18.523438 -29.296875 18.140625 -26.546875 C 17.765625 -23.804688 17.578125 -20.15625 17.578125 -15.59375 L 17.578125 0 L 5.71875 0 L 5.71875 -44.875 L 16.71875 -44.875 L 16.71875 -38.546875 L 16.890625 -38.546875 C 18.335938 -40.972656 19.78125 -42.804688 21.21875 -44.046875 C 22.664062 -45.285156 24.601562 -45.90625 27.03125 -45.90625 Z M 27.03125 -45.90625 "/></g></g></g><g fill="#000000" fill-opacity="1"><g transform="translate(96.22744, 70.743654)"><g><path d="M 9.015625 -39.15625 C 12.878906 -43.65625 18.363281 -45.90625 25.46875 -45.90625 C 36.15625 -45.90625 42.828125 -41.144531 45.484375 -31.625 L 33.78125 -29.546875 C 32.800781 -34.273438 30.085938 -36.640625 25.640625 -36.640625 C 22.640625 -36.640625 20.257812 -35.597656 18.5 -33.515625 C 16.738281 -31.441406 15.859375 -28.066406 15.859375 -23.390625 C 15.859375 -18.828125 16.609375 -15.226562 18.109375 -12.59375 C 19.609375 -9.96875 22.175781 -8.65625 25.8125 -8.65625 C 28.175781 -8.65625 30.066406 -9.363281 31.484375 -10.78125 C 32.898438 -12.195312 33.867188 -14.347656 34.390625 -17.234375 L 46.078125 -15.25 C 43.660156 -4.382812 36.703125 1.046875 25.203125 1.046875 C 18.390625 1.046875 13.132812 -1.035156 9.4375 -5.203125 C 7.53125 -7.335938 6.085938 -9.929688 5.109375 -12.984375 C 4.128906 -16.046875 3.640625 -19.195312 3.640625 -22.4375 C 3.640625 -25.78125 4.097656 -28.894531 5.015625 -31.78125 C 5.941406 -34.675781 7.273438 -37.132812 9.015625 -39.15625 Z M 9.015625 -39.15625 "/></g></g></g><g fill="#000000" fill-opacity="1"><g transform="translate(144.384462, 70.743654)"><g><path d="M 18.015625 -39.15625 C 20.035156 -41.519531 22.15625 -43.234375 24.375 -44.296875 C 26.601562 -45.367188 29.019531 -45.90625 31.625 -45.90625 C 34.101562 -45.90625 36.304688 -45.53125 38.234375 -44.78125 C 40.171875 -44.03125 41.773438 -43.050781 43.046875 -41.84375 C 45.648438 -39.300781 46.953125 -34.625 46.953125 -27.8125 L 46.953125 0 L 35.078125 0 L 35.078125 -25.296875 C 35.078125 -28.003906 34.90625 -30.164062 34.5625 -31.78125 C 34.21875 -33.40625 33.523438 -34.648438 32.484375 -35.515625 C 31.441406 -36.378906 29.851562 -36.8125 27.71875 -36.8125 C 23.96875 -36.8125 21.410156 -35.597656 20.046875 -33.171875 C 18.691406 -30.753906 18.015625 -27.519531 18.015625 -23.46875 L 18.015625 0 L 6.15625 0 L 6.15625 -62.03125 L 18.015625 -62.03125 Z M 18.015625 -39.15625 "/></g></g></g><g fill="#000000" fill-opacity="1"><g transform="translate(197.305225, 70.743654)"><g><path d="M 23.734375 -45.90625 C 29.453125 -45.90625 33.695312 -45.171875 36.46875 -43.703125 C 39.238281 -42.234375 40.984375 -40.296875 41.703125 -37.890625 C 42.429688 -35.492188 42.765625 -32.332031 42.703125 -28.40625 L 42.625 -15.328125 C 42.5625 -11.234375 42.703125 -8.257812 43.046875 -6.40625 C 43.398438 -4.5625 44.125 -2.425781 45.21875 0 L 33.53125 0 C 33.238281 -0.632812 32.71875 -2.28125 31.96875 -4.9375 C 29.832031 -2.851562 27.625 -1.332031 25.34375 -0.375 C 23.0625 0.570312 20.617188 1.046875 18.015625 1.046875 C 13.566406 1.046875 9.972656 -0.179688 7.234375 -2.640625 C 4.492188 -5.097656 3.125 -8.289062 3.125 -12.21875 C 3.125 -15.507812 3.945312 -18.117188 5.59375 -20.046875 C 7.238281 -21.984375 9.242188 -23.382812 11.609375 -24.25 C 13.972656 -25.113281 16.773438 -25.863281 20.015625 -26.5 C 24.972656 -27.425781 28.640625 -28.351562 31.015625 -29.28125 L 31.015625 -31.1875 C 31.015625 -33.144531 30.4375 -34.570312 29.28125 -35.46875 C 28.125 -36.363281 26.015625 -36.8125 22.953125 -36.8125 C 20.585938 -36.8125 18.828125 -36.332031 17.671875 -35.375 C 16.515625 -34.425781 15.648438 -33.03125 15.078125 -31.1875 L 4.328125 -33.171875 C 5.484375 -37.566406 7.5625 -40.785156 10.5625 -42.828125 C 13.570312 -44.878906 17.960938 -45.90625 23.734375 -45.90625 Z M 23.5625 -19.65625 L 21.5625 -19.234375 C 17.175781 -18.304688 14.984375 -16.398438 14.984375 -13.515625 C 14.984375 -11.785156 15.601562 -10.328125 16.84375 -9.140625 C 18.09375 -7.953125 19.664062 -7.359375 21.5625 -7.359375 C 23.125 -7.359375 24.6875 -7.757812 26.25 -8.5625 C 27.8125 -9.375 29.023438 -10.445312 29.890625 -11.78125 C 30.640625 -12.988281 31.015625 -15.066406 31.015625 -18.015625 L 31.015625 -21.5625 C 28.765625 -20.875 26.28125 -20.238281 23.5625 -19.65625 Z M 23.5625 -19.65625 "/></g></g></g><g fill="#000000" fill-opacity="1"><g transform="translate(245.462258, 70.743654)"><g><path d="M 23.390625 -45.90625 C 30.546875 -45.90625 35.882812 -43.582031 39.40625 -38.9375 C 42.9375 -34.289062 44.703125 -27.664062 44.703125 -19.0625 L 14.90625 -19.0625 C 15.019531 -16.050781 15.898438 -13.460938 17.546875 -11.296875 C 19.191406 -9.140625 21.570312 -8.0625 24.6875 -8.0625 C 26.65625 -8.0625 28.257812 -8.566406 29.5 -9.578125 C 30.738281 -10.585938 31.644531 -12.160156 32.21875 -14.296875 L 44.09375 -12.296875 C 42.59375 -7.910156 40.164062 -4.585938 36.8125 -2.328125 C 33.46875 -0.078125 29.367188 1.046875 24.515625 1.046875 C 17.296875 1.046875 11.835938 -1.117188 8.140625 -5.453125 C 6.410156 -7.472656 5.082031 -10.015625 4.15625 -13.078125 C 3.226562 -16.140625 2.765625 -19.171875 2.765625 -22.171875 C 2.765625 -26.273438 3.5 -30.128906 4.96875 -33.734375 C 6.445312 -37.347656 8.726562 -40.28125 11.8125 -42.53125 C 14.90625 -44.78125 18.765625 -45.90625 23.390625 -45.90625 Z M 15.15625 -26.328125 L 32.921875 -26.328125 C 32.859375 -29.972656 31.945312 -32.628906 30.1875 -34.296875 C 28.425781 -35.972656 26.363281 -36.8125 24 -36.8125 C 21.226562 -36.8125 19.0625 -35.816406 17.5 -33.828125 C 15.9375 -31.835938 15.15625 -29.335938 15.15625 -26.328125 Z M 15.15625 -26.328125 "/></g></g></g><g fill="#000000" fill-opacity="1"><g transform="translate(293.619269, 70.743654)"><g><path d="M 26.59375 -45.90625 C 31.445312 -45.90625 35.632812 -44.804688 39.15625 -42.609375 C 42.675781 -40.421875 45.332031 -37.535156 47.125 -33.953125 C 48.914062 -30.378906 49.8125 -26.597656 49.8125 -22.609375 C 49.8125 -18.453125 48.867188 -14.566406 46.984375 -10.953125 C 45.109375 -7.347656 42.425781 -4.445312 38.9375 -2.25 C 35.445312 -0.0507812 31.363281 1.046875 26.6875 1.046875 C 22.695312 1.046875 18.941406 0.222656 15.421875 -1.421875 C 11.898438 -3.066406 9.023438 -5.691406 6.796875 -9.296875 C 4.578125 -12.910156 3.46875 -17.492188 3.46875 -23.046875 C 3.46875 -26.910156 4.347656 -30.585938 6.109375 -34.078125 C 7.867188 -37.578125 10.492188 -40.421875 13.984375 -42.609375 C 17.484375 -44.804688 21.6875 -45.90625 26.59375 -45.90625 Z M 15.671875 -22.4375 C 15.671875 -17.925781 16.722656 -14.5 18.828125 -12.15625 C 20.941406 -9.820312 23.53125 -8.65625 26.59375 -8.65625 C 29.65625 -8.65625 32.253906 -9.8125 34.390625 -12.125 C 36.523438 -14.4375 37.59375 -17.898438 37.59375 -22.515625 C 37.59375 -26.796875 36.566406 -30.144531 34.515625 -32.5625 C 32.460938 -34.988281 29.789062 -36.203125 26.5 -36.203125 C 23.5 -36.203125 20.941406 -35.019531 18.828125 -32.65625 C 16.722656 -30.289062 15.671875 -26.882812 15.671875 -22.4375 Z M 15.671875 -22.4375 "/></g></g></g><g fill="#000000" fill-opacity="1"><g transform="translate(346.540042, 70.743654)"><g><path d="M 18.109375 0 L 6.234375 0 L 6.234375 -62.03125 L 18.109375 -62.03125 Z M 18.109375 0 "/></g></g></g><g fill="#000000" fill-opacity="1"><g transform="translate(370.618547, 70.743654)"><g><path d="M 26.59375 -45.90625 C 31.445312 -45.90625 35.632812 -44.804688 39.15625 -42.609375 C 42.675781 -40.421875 45.332031 -37.535156 47.125 -33.953125 C 48.914062 -30.378906 49.8125 -26.597656 49.8125 -22.609375 C 49.8125 -18.453125 48.867188 -14.566406 46.984375 -10.953125 C 45.109375 -7.347656 42.425781 -4.445312 38.9375 -2.25 C 35.445312 -0.0507812 31.363281 1.046875 26.6875 1.046875 C 22.695312 1.046875 18.941406 0.222656 15.421875 -1.421875 C 11.898438 -3.066406 9.023438 -5.691406 6.796875 -9.296875 C 4.578125 -12.910156 3.46875 -17.492188 3.46875 -23.046875 C 3.46875 -26.910156 4.347656 -30.585938 6.109375 -34.078125 C 7.867188 -37.578125 10.492188 -40.421875 13.984375 -42.609375 C 17.484375 -44.804688 21.6875 -45.90625 26.59375 -45.90625 Z M 15.671875 -22.4375 C 15.671875 -17.925781 16.722656 -14.5 18.828125 -12.15625 C 20.941406 -9.820312 23.53125 -8.65625 26.59375 -8.65625 C 29.65625 -8.65625 32.253906 -9.8125 34.390625 -12.125 C 36.523438 -14.4375 37.59375 -17.898438 37.59375 -22.515625 C 37.59375 -26.796875 36.566406 -30.144531 34.515625 -32.5625 C 32.460938 -34.988281 29.789062 -36.203125 26.5 -36.203125 C 23.5 -36.203125 20.941406 -35.019531 18.828125 -32.65625 C 16.722656 -30.289062 15.671875 -26.882812 15.671875 -22.4375 Z M 15.671875 -22.4375 "/></g></g></g><g fill="#000000" fill-opacity="1"><g transform="translate(423.539321, 70.743654)"><g><path d="M 22.515625 -45.90625 C 25.578125 -45.90625 28.25 -45.238281 30.53125 -43.90625 C 32.8125 -42.582031 34.675781 -40.828125 36.125 -38.640625 L 36.296875 -38.640625 L 36.296875 -44.875 L 47.390625 -44.875 L 47.390625 -3.8125 C 47.390625 1.207031 46.8125 5.289062 45.65625 8.4375 C 44.5 11.59375 42.375 14.003906 39.28125 15.671875 C 36.195312 17.347656 31.796875 18.1875 26.078125 18.1875 C 18.796875 18.1875 13.492188 16.898438 10.171875 14.328125 C 6.859375 11.765625 5.171875 7.96875 5.109375 2.9375 L 18.71875 4.59375 C 18.945312 6.382812 19.625 7.582031 20.75 8.1875 C 21.875 8.789062 23.503906 9.09375 25.640625 9.09375 C 29.335938 9.09375 31.90625 8.441406 33.34375 7.140625 C 34.789062 5.847656 35.515625 3.582031 35.515625 0.34375 L 35.515625 -7.28125 L 35.34375 -7.28125 C 33.84375 -5.082031 31.921875 -3.316406 29.578125 -1.984375 C 27.242188 -0.660156 24.75 0 22.09375 0 C 18.394531 0 15.144531 -0.976562 12.34375 -2.9375 C 9.539062 -4.90625 7.375 -7.617188 5.84375 -11.078125 C 4.3125 -14.546875 3.546875 -18.421875 3.546875 -22.703125 C 3.546875 -28.296875 4.515625 -32.828125 6.453125 -36.296875 C 8.390625 -39.765625 10.800781 -42.234375 13.6875 -43.703125 C 16.570312 -45.171875 19.515625 -45.90625 22.515625 -45.90625 Z M 15.765625 -23.390625 C 15.765625 -19.640625 16.515625 -16.421875 18.015625 -13.734375 C 19.515625 -11.046875 21.96875 -9.703125 25.375 -9.703125 C 27.976562 -9.703125 30.363281 -10.710938 32.53125 -12.734375 C 34.695312 -14.753906 35.78125 -18.21875 35.78125 -23.125 C 35.78125 -26.769531 34.984375 -29.960938 33.390625 -32.703125 C 31.804688 -35.441406 29.164062 -36.8125 25.46875 -36.8125 C 21.882812 -36.8125 19.367188 -35.425781 17.921875 -32.65625 C 16.484375 -29.882812 15.765625 -26.796875 15.765625 -23.390625 Z M 15.765625 -23.390625 "/></g></g></g><g fill="#000000" fill-opacity="1"><g transform="translate(476.460095, 70.743654)"><g><path d="M 18.109375 -51.015625 L 6.234375 -51.015625 L 6.234375 -62.03125 L 18.109375 -62.03125 Z M 18.109375 0 L 6.234375 0 L 6.234375 -44.875 L 18.109375 -44.875 Z M 18.109375 0 "/></g></g></g><g fill="#000000" fill-opacity="1"><g transform="translate(500.5386, 70.743654)"><g><path d="M 9.015625 -39.15625 C 12.878906 -43.65625 18.363281 -45.90625 25.46875 -45.90625 C 36.15625 -45.90625 42.828125 -41.144531 45.484375 -31.625 L 33.78125 -29.546875 C 32.800781 -34.273438 30.085938 -36.640625 25.640625 -36.640625 C 22.640625 -36.640625 20.257812 -35.597656 18.5 -33.515625 C 16.738281 -31.441406 15.859375 -28.066406 15.859375 -23.390625 C 15.859375 -18.828125 16.609375 -15.226562 18.109375 -12.59375 C 19.609375 -9.96875 22.175781 -8.65625 25.8125 -8.65625 C 28.175781 -8.65625 30.066406 -9.363281 31.484375 -10.78125 C 32.898438 -12.195312 33.867188 -14.347656 34.390625 -17.234375 L 46.078125 -15.25 C 43.660156 -4.382812 36.703125 1.046875 25.203125 1.046875 C 18.390625 1.046875 13.132812 -1.035156 9.4375 -5.203125 C 7.53125 -7.335938 6.085938 -9.929688 5.109375 -12.984375 C 4.128906 -16.046875 3.640625 -19.195312 3.640625 -22.4375 C 3.640625 -25.78125 4.097656 -28.894531 5.015625 -31.78125 C 5.941406 -34.675781 7.273438 -37.132812 9.015625 -39.15625 Z M 9.015625 -39.15625 "/></g></g></g><g fill="#000000" fill-opacity="1"><g transform="translate(548.69561, 70.743654)"><g><path d="M 23.734375 -45.90625 C 29.453125 -45.90625 33.695312 -45.171875 36.46875 -43.703125 C 39.238281 -42.234375 40.984375 -40.296875 41.703125 -37.890625 C 42.429688 -35.492188 42.765625 -32.332031 42.703125 -28.40625 L 42.625 -15.328125 C 42.5625 -11.234375 42.703125 -8.257812 43.046875 -6.40625 C 43.398438 -4.5625 44.125 -2.425781 45.21875 0 L 33.53125 0 C 33.238281 -0.632812 32.71875 -2.28125 31.96875 -4.9375 C 29.832031 -2.851562 27.625 -1.332031 25.34375 -0.375 C 23.0625 0.570312 20.617188 1.046875 18.015625 1.046875 C 13.566406 1.046875 9.972656 -0.179688 7.234375 -2.640625 C 4.492188 -5.097656 3.125 -8.289062 3.125 -12.21875 C 3.125 -15.507812 3.945312 -18.117188 5.59375 -20.046875 C 7.238281 -21.984375 9.242188 -23.382812 11.609375 -24.25 C 13.972656 -25.113281 16.773438 -25.863281 20.015625 -26.5 C 24.972656 -27.425781 28.640625 -28.351562 31.015625 -29.28125 L 31.015625 -31.1875 C 31.015625 -33.144531 30.4375 -34.570312 29.28125 -35.46875 C 28.125 -36.363281 26.015625 -36.8125 22.953125 -36.8125 C 20.585938 -36.8125 18.828125 -36.332031 17.671875 -35.375 C 16.515625 -34.425781 15.648438 -33.03125 15.078125 -31.1875 L 4.328125 -33.171875 C 5.484375 -37.566406 7.5625 -40.785156 10.5625 -42.828125 C 13.570312 -44.878906 17.960938 -45.90625 23.734375 -45.90625 Z M 23.5625 -19.65625 L 21.5625 -19.234375 C 17.175781 -18.304688 14.984375 -16.398438 14.984375 -13.515625 C 14.984375 -11.785156 15.601562 -10.328125 16.84375 -9.140625 C 18.09375 -7.953125 19.664062 -7.359375 21.5625 -7.359375 C 23.125 -7.359375 24.6875 -7.757812 26.25 -8.5625 C 27.8125 -9.375 29.023438 -10.445312 29.890625 -11.78125 C 30.640625 -12.988281 31.015625 -15.066406 31.015625 -18.015625 L 31.015625 -21.5625 C 28.765625 -20.875 26.28125 -20.238281 23.5625 -19.65625 Z M 23.5625 -19.65625 "/></g></g></g><g fill="#000000" fill-opacity="1"><g transform="translate(596.852621, 70.743654)"><g><path d="M 18.109375 0 L 6.234375 0 L 6.234375 -62.03125 L 18.109375 -62.03125 Z M 18.109375 0 "/></g></g></g><g fill="#000000" fill-opacity="1"><g transform="translate(620.931126, 70.743654)"><g/></g></g><g fill="#000000" fill-opacity="1"><g transform="translate(645.009631, 70.743654)"><g><path d="M 23.390625 -45.90625 C 30.546875 -45.90625 35.882812 -43.582031 39.40625 -38.9375 C 42.9375 -34.289062 44.703125 -27.664062 44.703125 -19.0625 L 14.90625 -19.0625 C 15.019531 -16.050781 15.898438 -13.460938 17.546875 -11.296875 C 19.191406 -9.140625 21.570312 -8.0625 24.6875 -8.0625 C 26.65625 -8.0625 28.257812 -8.566406 29.5 -9.578125 C 30.738281 -10.585938 31.644531 -12.160156 32.21875 -14.296875 L 44.09375 -12.296875 C 42.59375 -7.910156 40.164062 -4.585938 36.8125 -2.328125 C 33.46875 -0.078125 29.367188 1.046875 24.515625 1.046875 C 17.296875 1.046875 11.835938 -1.117188 8.140625 -5.453125 C 6.410156 -7.472656 5.082031 -10.015625 4.15625 -13.078125 C 3.226562 -16.140625 2.765625 -19.171875 2.765625 -22.171875 C 2.765625 -26.273438 3.5 -30.128906 4.96875 -33.734375 C 6.445312 -37.347656 8.726562 -40.28125 11.8125 -42.53125 C 14.90625 -44.78125 18.765625 -45.90625 23.390625 -45.90625 Z M 15.15625 -26.328125 L 32.921875 -26.328125 C 32.859375 -29.972656 31.945312 -32.628906 30.1875 -34.296875 C 28.425781 -35.972656 26.363281 -36.8125 24 -36.8125 C 21.226562 -36.8125 19.0625 -35.816406 17.5 -33.828125 C 15.9375 -31.835938 15.15625 -29.335938 15.15625 -26.328125 Z M 15.15625 -26.328125 "/></g></g></g><g fill="#000000" fill-opacity="1"><g transform="translate(693.166642, 70.743654)"><g><path d="M 23.65625 -32.578125 L 32.046875 -44.875 L 46 -44.875 L 30.75 -23.65625 L 47.390625 0 L 32.828125 0 L 23.65625 -13.953125 L 14.375 0 L 0.515625 0 L 16.71875 -23.125 L 1.21875 -44.875 L 15.765625 -44.875 Z M 23.65625 -32.578125 "/></g></g></g><g fill="#000000" fill-opacity="1"><g transform="translate(741.323653, 70.743654)"><g><path d="M 9.015625 -39.15625 C 12.878906 -43.65625 18.363281 -45.90625 25.46875 -45.90625 C 36.15625 -45.90625 42.828125 -41.144531 45.484375 -31.625 L 33.78125 -29.546875 C 32.800781 -34.273438 30.085938 -36.640625 25.640625 -36.640625 C 22.640625 -36.640625 20.257812 -35.597656 18.5 -33.515625 C 16.738281 -31.441406 15.859375 -28.066406 15.859375 -23.390625 C 15.859375 -18.828125 16.609375 -15.226562 18.109375 -12.59375 C 19.609375 -9.96875 22.175781 -8.65625 25.8125 -8.65625 C 28.175781 -8.65625 30.066406 -9.363281 31.484375 -10.78125 C 32.898438 -12.195312 33.867188 -14.347656 34.390625 -17.234375 L 46.078125 -15.25 C 43.660156 -4.382812 36.703125 1.046875 25.203125 1.046875 C 18.390625 1.046875 13.132812 -1.035156 9.4375 -5.203125 C 7.53125 -7.335938 6.085938 -9.929688 5.109375 -12.984375 C 4.128906 -16.046875 3.640625 -19.195312 3.640625 -22.4375 C 3.640625 -25.78125 4.097656 -28.894531 5.015625 -31.78125 C 5.941406 -34.675781 7.273438 -37.132812 9.015625 -39.15625 Z M 9.015625 -39.15625 "/></g></g></g><g fill="#000000" fill-opacity="1"><g transform="translate(789.48071, 70.743654)"><g><path d="M 23.734375 -45.90625 C 29.453125 -45.90625 33.695312 -45.171875 36.46875 -43.703125 C 39.238281 -42.234375 40.984375 -40.296875 41.703125 -37.890625 C 42.429688 -35.492188 42.765625 -32.332031 42.703125 -28.40625 L 42.625 -15.328125 C 42.5625 -11.234375 42.703125 -8.257812 43.046875 -6.40625 C 43.398438 -4.5625 44.125 -2.425781 45.21875 0 L 33.53125 0 C 33.238281 -0.632812 32.71875 -2.28125 31.96875 -4.9375 C 29.832031 -2.851562 27.625 -1.332031 25.34375 -0.375 C 23.0625 0.570312 20.617188 1.046875 18.015625 1.046875 C 13.566406 1.046875 9.972656 -0.179688 7.234375 -2.640625 C 4.492188 -5.097656 3.125 -8.289062 3.125 -12.21875 C 3.125 -15.507812 3.945312 -18.117188 5.59375 -20.046875 C 7.238281 -21.984375 9.242188 -23.382812 11.609375 -24.25 C 13.972656 -25.113281 16.773438 -25.863281 20.015625 -26.5 C 24.972656 -27.425781 28.640625 -28.351562 31.015625 -29.28125 L 31.015625 -31.1875 C 31.015625 -33.144531 30.4375 -34.570312 29.28125 -35.46875 C 28.125 -36.363281 26.015625 -36.8125 22.953125 -36.8125 C 20.585938 -36.8125 18.828125 -36.332031 17.671875 -35.375 C 16.515625 -34.425781 15.648438 -33.03125 15.078125 -31.1875 L 4.328125 -33.171875 C 5.484375 -37.566406 7.5625 -40.785156 10.5625 -42.828125 C 13.570312 -44.878906 17.960938 -45.90625 23.734375 -45.90625 Z M 23.5625 -19.65625 L 21.5625 -19.234375 C 17.175781 -18.304688 14.984375 -16.398438 14.984375 -13.515625 C 14.984375 -11.785156 15.601562 -10.328125 16.84375 -9.140625 C 18.09375 -7.953125 19.664062 -7.359375 21.5625 -7.359375 C 23.125 -7.359375 24.6875 -7.757812 26.25 -8.5625 C 27.8125 -9.375 29.023438 -10.445312 29.890625 -11.78125 C 30.640625 -12.988281 31.015625 -15.066406 31.015625 -18.015625 L 31.015625 -21.5625 C 28.765625 -20.875 26.28125 -20.238281 23.5625 -19.65625 Z M 23.5625 -19.65625 "/></g></g></g><g fill="#000000" fill-opacity="1"><g transform="translate(837.63772, 70.743654)"><g><path d="M 21.3125 -22.265625 L 22.953125 -16.984375 C 23.296875 -15.710938 23.554688 -14.84375 23.734375 -14.375 L 23.90625 -14.375 C 24.769531 -17.613281 25.578125 -20.15625 26.328125 -22 L 34.90625 -44.875 L 47.125 -44.875 L 29.28125 0 L 18.53125 0 L 0.4375 -44.875 L 12.90625 -44.875 Z M 21.3125 -22.265625 "/></g></g></g><g fill="#000000" fill-opacity="1"><g transform="translate(885.794731, 70.743654)"><g><path d="M 23.734375 -45.90625 C 29.453125 -45.90625 33.695312 -45.171875 36.46875 -43.703125 C 39.238281 -42.234375 40.984375 -40.296875 41.703125 -37.890625 C 42.429688 -35.492188 42.765625 -32.332031 42.703125 -28.40625 L 42.625 -15.328125 C 42.5625 -11.234375 42.703125 -8.257812 43.046875 -6.40625 C 43.398438 -4.5625 44.125 -2.425781 45.21875 0 L 33.53125 0 C 33.238281 -0.632812 32.71875 -2.28125 31.96875 -4.9375 C 29.832031 -2.851562 27.625 -1.332031 25.34375 -0.375 C 23.0625 0.570312 20.617188 1.046875 18.015625 1.046875 C 13.566406 1.046875 9.972656 -0.179688 7.234375 -2.640625 C 4.492188 -5.097656 3.125 -8.289062 3.125 -12.21875 C 3.125 -15.507812 3.945312 -18.117188 5.59375 -20.046875 C 7.238281 -21.984375 9.242188 -23.382812 11.609375 -24.25 C 13.972656 -25.113281 16.773438 -25.863281 20.015625 -26.5 C 24.972656 -27.425781 28.640625 -28.351562 31.015625 -29.28125 L 31.015625 -31.1875 C 31.015625 -33.144531 30.4375 -34.570312 29.28125 -35.46875 C 28.125 -36.363281 26.015625 -36.8125 22.953125 -36.8125 C 20.585938 -36.8125 18.828125 -36.332031 17.671875 -35.375 C 16.515625 -34.425781 15.648438 -33.03125 15.078125 -31.1875 L 4.328125 -33.171875 C 5.484375 -37.566406 7.5625 -40.785156 10.5625 -42.828125 C 13.570312 -44.878906 17.960938 -45.90625 23.734375 -45.90625 Z M 23.5625 -19.65625 L 21.5625 -19.234375 C 17.175781 -18.304688 14.984375 -16.398438 14.984375 -13.515625 C 14.984375 -11.785156 15.601562 -10.328125 16.84375 -9.140625 C 18.09375 -7.953125 19.664062 -7.359375 21.5625 -7.359375 C 23.125 -7.359375 24.6875 -7.757812 26.25 -8.5625 C 27.8125 -9.375 29.023438 -10.445312 29.890625 -11.78125 C 30.640625 -12.988281 31.015625 -15.066406 31.015625 -18.015625 L 31.015625 -21.5625 C 28.765625 -20.875 26.28125 -20.238281 23.5625 -19.65625 Z M 23.5625 -19.65625 "/></g></g></g><g fill="#000000" fill-opacity="1"><g transform="translate(933.951742, 70.743654)"><g><path d="M 18.71875 -44.875 L 26.765625 -44.875 L 26.765625 -35.421875 L 18.71875 -35.421875 L 18.71875 -15.671875 C 18.71875 -13.773438 18.785156 -12.363281 18.921875 -11.4375 C 19.066406 -10.507812 19.367188 -9.84375 19.828125 -9.4375 C 20.296875 -9.03125 21.019531 -8.828125 22 -8.828125 C 23.21875 -8.828125 24.804688 -9.207031 26.765625 -9.96875 L 27.8125 -0.78125 C 26.59375 -0.195312 25.117188 0.25 23.390625 0.5625 C 21.660156 0.882812 20.015625 1.046875 18.453125 1.046875 C 16.203125 1.046875 14.207031 0.671875 12.46875 -0.078125 C 10.738281 -0.835938 9.46875 -1.851562 8.65625 -3.125 C 7.789062 -4.5625 7.253906 -6.160156 7.046875 -7.921875 C 6.847656 -9.679688 6.75 -11.890625 6.75 -14.546875 L 6.75 -35.421875 L 1.296875 -35.421875 L 1.296875 -44.875 L 6.75 -44.875 L 6.75 -53.796875 L 18.71875 -60.8125 Z M 18.71875 -44.875 "/></g></g></g><g fill="#000000" fill-opacity="1"><g transform="translate(962.793965, 70.743654)"><g><path d="M 18.109375 -51.015625 L 6.234375 -51.015625 L 6.234375 -62.03125 L 18.109375 -62.03125 Z M 18.109375 0 L 6.234375 0 L 6.234375 -44.875 L 18.109375 -44.875 Z M 18.109375 0 "/></g></g></g><g fill="#000000" fill-opacity="1"><g transform="translate(986.872516, 70.743654)"><g><path d="M 26.59375 -45.90625 C 31.445312 -45.90625 35.632812 -44.804688 39.15625 -42.609375 C 42.675781 -40.421875 45.332031 -37.535156 47.125 -33.953125 C 48.914062 -30.378906 49.8125 -26.597656 49.8125 -22.609375 C 49.8125 -18.453125 48.867188 -14.566406 46.984375 -10.953125 C 45.109375 -7.347656 42.425781 -4.445312 38.9375 -2.25 C 35.445312 -0.0507812 31.363281 1.046875 26.6875 1.046875 C 22.695312 1.046875 18.941406 0.222656 15.421875 -1.421875 C 11.898438 -3.066406 9.023438 -5.691406 6.796875 -9.296875 C 4.578125 -12.910156 3.46875 -17.492188 3.46875 -23.046875 C 3.46875 -26.910156 4.347656 -30.585938 6.109375 -34.078125 C 7.867188 -37.578125 10.492188 -40.421875 13.984375 -42.609375 C 17.484375 -44.804688 21.6875 -45.90625 26.59375 -45.90625 Z M 15.671875 -22.4375 C 15.671875 -17.925781 16.722656 -14.5 18.828125 -12.15625 C 20.941406 -9.820312 23.53125 -8.65625 26.59375 -8.65625 C 29.65625 -8.65625 32.253906 -9.8125 34.390625 -12.125 C 36.523438 -14.4375 37.59375 -17.898438 37.59375 -22.515625 C 37.59375 -26.796875 36.566406 -30.144531 34.515625 -32.5625 C 32.460938 -34.988281 29.789062 -36.203125 26.5 -36.203125 C 23.5 -36.203125 20.941406 -35.019531 18.828125 -32.65625 C 16.722656 -30.289062 15.671875 -26.882812 15.671875 -22.4375 Z M 15.671875 -22.4375 "/></g></g></g><g fill="#000000" fill-opacity="1"><g transform="translate(1039.793289, 70.743654)"><g><path d="M 32.046875 -45.90625 C 34.703125 -45.90625 37.007812 -45.457031 38.96875 -44.5625 C 40.9375 -43.664062 42.5 -42.613281 43.65625 -41.40625 C 45.039062 -39.90625 45.945312 -38.128906 46.375 -36.078125 C 46.8125 -34.023438 47.03125 -31.757812 47.03125 -29.28125 L 47.03125 0 L 35.171875 0 L 35.171875 -24.515625 C 35.171875 -28.671875 34.707031 -31.757812 33.78125 -33.78125 C 32.851562 -35.800781 30.890625 -36.8125 27.890625 -36.8125 C 25.066406 -36.8125 22.875 -36.003906 21.3125 -34.390625 C 19.75 -32.773438 18.820312 -30.898438 18.53125 -28.765625 C 18.363281 -27.378906 18.234375 -26.132812 18.140625 -25.03125 C 18.054688 -23.9375 18.015625 -22.695312 18.015625 -21.3125 L 18.015625 0 L 6.15625 0 L 6.15625 -44.875 L 17.40625 -44.875 L 17.40625 -38.28125 C 18.675781 -40.1875 20.566406 -41.929688 23.078125 -43.515625 C 25.597656 -45.109375 28.585938 -45.90625 32.046875 -45.90625 Z M 32.046875 -45.90625 "/></g></g></g><g fill="#000000" fill-opacity="1"><g transform="translate(1092.714063, 70.743654)"><g><path d="M 22.609375 -45.90625 C 28.210938 -45.90625 32.613281 -44.984375 35.8125 -43.140625 C 39.019531 -41.296875 41.234375 -38.265625 42.453125 -34.046875 L 31.1875 -31.96875 C 30.664062 -33.8125 29.722656 -35.179688 28.359375 -36.078125 C 27.003906 -36.972656 25.117188 -37.421875 22.703125 -37.421875 C 17.328125 -37.421875 14.640625 -36.179688 14.640625 -33.703125 C 14.640625 -32.484375 15.519531 -31.515625 17.28125 -30.796875 C 19.039062 -30.078125 21.597656 -29.34375 24.953125 -28.59375 C 29.046875 -27.664062 32.390625 -26.722656 34.984375 -25.765625 C 37.585938 -24.816406 39.726562 -23.40625 41.40625 -21.53125 C 43.082031 -19.65625 43.921875 -17.15625 43.921875 -14.03125 C 43.921875 -11.488281 43.210938 -9.078125 41.796875 -6.796875 C 40.378906 -4.515625 38.140625 -2.632812 35.078125 -1.15625 C 32.015625 0.3125 28.144531 1.046875 23.46875 1.046875 C 18.21875 1.046875 13.582031 -0.078125 9.5625 -2.328125 C 5.550781 -4.585938 3.03125 -8.085938 2 -12.828125 L 13.859375 -14.640625 C 14.953125 -9.847656 18.15625 -7.453125 23.46875 -7.453125 C 25.550781 -7.453125 27.5 -7.8125 29.3125 -8.53125 C 31.132812 -9.25 32.046875 -10.535156 32.046875 -12.390625 C 32.046875 -13.597656 31.628906 -14.445312 30.796875 -14.9375 C 29.960938 -15.425781 28.617188 -15.875 26.765625 -16.28125 C 21.273438 -17.5 17 -18.625 13.9375 -19.65625 C 10.882812 -20.695312 8.40625 -22.195312 6.5 -24.15625 C 4.59375 -26.125 3.640625 -28.785156 3.640625 -32.140625 C 3.640625 -36.816406 5.425781 -40.28125 9 -42.53125 C 12.582031 -44.78125 17.117188 -45.90625 22.609375 -45.90625 Z M 22.609375 -45.90625 "/></g></g></g><g fill="#000000" fill-opacity="1"><g transform="translate(0.00000525, 220.743646)"><g><path d="M 22.8125 0.671875 C 19.40625 0.671875 16.347656 -0.144531 13.640625 -1.78125 C 10.929688 -3.425781 8.773438 -6.03125 7.171875 -9.59375 C 5.566406 -13.15625 4.765625 -17.6875 4.765625 -23.1875 C 4.765625 -28.6875 5.566406 -33.21875 7.171875 -36.78125 C 8.773438 -40.34375 10.929688 -42.941406 13.640625 -44.578125 C 16.347656 -46.222656 19.40625 -47.046875 22.8125 -47.046875 C 26.21875 -47.046875 29.269531 -46.222656 31.96875 -44.578125 C 34.675781 -42.941406 36.828125 -40.34375 38.421875 -36.78125 C 40.023438 -33.21875 40.828125 -28.6875 40.828125 -23.1875 C 40.828125 -17.6875 40.023438 -13.15625 38.421875 -9.59375 C 36.828125 -6.03125 34.675781 -3.425781 31.96875 -1.78125 C 29.269531 -0.144531 26.21875 0.671875 22.8125 0.671875 Z M 22.8125 -4.375 C 26.851562 -4.375 29.914062 -5.828125 32 -8.734375 C 34.082031 -11.648438 35.125 -16.46875 35.125 -23.1875 C 35.125 -29.914062 34.082031 -34.734375 32 -37.640625 C 29.914062 -40.546875 26.851562 -42 22.8125 -42 C 20.144531 -42 17.898438 -41.382812 16.078125 -40.15625 C 14.265625 -38.9375 12.875 -36.941406 11.90625 -34.171875 C 10.945312 -31.398438 10.46875 -27.738281 10.46875 -23.1875 C 10.46875 -18.644531 10.945312 -14.988281 11.90625 -12.21875 C 12.875 -9.445312 14.265625 -7.445312 16.078125 -6.21875 C 17.898438 -4.988281 20.144531 -4.375 22.8125 -4.375 Z M 22.8125 -4.375 "/></g></g></g><g fill="#000000" fill-opacity="1"><g transform="translate(45.609481, 220.743646)"><g><path d="M 18.375 0.671875 C 13.863281 0.671875 10.285156 -0.34375 7.640625 -2.375 C 5.003906 -4.40625 3.289062 -7.21875 2.5 -10.8125 L 6.5625 -12.65625 L 7.296875 -12.53125 C 8.097656 -9.757812 9.335938 -7.6875 11.015625 -6.3125 C 12.703125 -4.9375 15.15625 -4.25 18.375 -4.25 C 21.644531 -4.25 24.132812 -5 25.84375 -6.5 C 27.5625 -8 28.421875 -10.210938 28.421875 -13.140625 C 28.421875 -15.992188 27.546875 -18.171875 25.796875 -19.671875 C 24.054688 -21.171875 21.316406 -21.921875 17.578125 -21.921875 L 12.53125 -21.921875 L 12.53125 -26.421875 L 17.03125 -26.421875 C 19.945312 -26.421875 22.265625 -27.144531 23.984375 -28.59375 C 25.710938 -30.039062 26.578125 -32.085938 26.578125 -34.734375 C 26.578125 -37.253906 25.832031 -39.140625 24.34375 -40.390625 C 22.851562 -41.648438 20.765625 -42.28125 18.078125 -42.28125 C 13.410156 -42.28125 10.082031 -40.421875 8.09375 -36.703125 L 7.359375 -36.578125 L 4.3125 -39.90625 C 5.5625 -42.039062 7.359375 -43.765625 9.703125 -45.078125 C 12.054688 -46.390625 14.847656 -47.046875 18.078125 -47.046875 C 21.035156 -47.046875 23.554688 -46.582031 25.640625 -45.65625 C 27.722656 -44.738281 29.304688 -43.410156 30.390625 -41.671875 C 31.472656 -39.941406 32.015625 -37.875 32.015625 -35.46875 C 32.015625 -33.1875 31.351562 -31.179688 30.03125 -29.453125 C 28.707031 -27.734375 26.957031 -26.375 24.78125 -25.375 L 24.78125 -24.71875 C 27.84375 -23.976562 30.144531 -22.597656 31.6875 -20.578125 C 33.226562 -18.554688 34 -16.078125 34 -13.140625 C 34 -8.734375 32.6875 -5.328125 30.0625 -2.921875 C 27.445312 -0.523438 23.550781 0.671875 18.375 0.671875 Z M 18.375 0.671875 "/></g></g></g><g fill="#000000" fill-opacity="1"><g transform="translate(83.289632, 220.743646)"><g/></g></g><g fill="#000000" fill-opacity="1"><g transform="translate(99.211716, 220.743646)"><g><path d="M 15.328125 0.671875 C 13.015625 0.671875 10.894531 0.328125 8.96875 -0.359375 C 7.050781 -1.046875 5.429688 -1.984375 4.109375 -3.171875 C 2.785156 -4.359375 1.816406 -5.671875 1.203125 -7.109375 L 4.03125 -10.8125 L 4.828125 -10.8125 C 5.753906 -8.820312 7.117188 -7.25 8.921875 -6.09375 C 10.734375 -4.945312 12.867188 -4.375 15.328125 -4.375 C 17.304688 -4.375 18.921875 -4.695312 20.171875 -5.34375 C 21.421875 -5.988281 22.359375 -7.054688 22.984375 -8.546875 C 23.609375 -10.035156 23.921875 -12.050781 23.921875 -14.59375 L 23.921875 -46.375 L 29.34375 -46.375 L 29.34375 -14.5 C 29.34375 -9.25 28.171875 -5.40625 25.828125 -2.96875 C 23.492188 -0.539062 19.992188 0.671875 15.328125 0.671875 Z M 15.328125 0.671875 "/></g></g></g><g fill="#000000" fill-opacity="1"><g transform="translate(135.147421, 220.743646)"><g><path d="M 14.4375 0.671875 C 10.988281 0.671875 8.296875 -0.226562 6.359375 -2.03125 C 4.421875 -3.832031 3.453125 -6.398438 3.453125 -9.734375 C 3.453125 -11.804688 3.878906 -13.554688 4.734375 -14.984375 C 5.597656 -16.410156 6.925781 -17.570312 8.71875 -18.46875 C 10.519531 -19.375 12.867188 -20.070312 15.765625 -20.5625 C 18.304688 -20.976562 20.234375 -21.453125 21.546875 -21.984375 C 22.867188 -22.515625 23.757812 -23.109375 24.21875 -23.765625 C 24.675781 -24.421875 24.90625 -25.242188 24.90625 -26.234375 C 24.90625 -27.816406 24.359375 -29.03125 23.265625 -29.875 C 22.179688 -30.726562 20.429688 -31.15625 18.015625 -31.15625 C 15.753906 -31.15625 13.8125 -30.710938 12.1875 -29.828125 C 10.570312 -28.953125 9.085938 -27.648438 7.734375 -25.921875 L 7.109375 -25.921875 L 4.5625 -29.5 C 6.039062 -31.382812 7.921875 -32.878906 10.203125 -33.984375 C 12.492188 -35.097656 15.097656 -35.65625 18.015625 -35.65625 C 22.140625 -35.65625 25.179688 -34.75 27.140625 -32.9375 C 29.097656 -31.132812 30.078125 -28.632812 30.078125 -25.4375 L 30.078125 -6.890625 C 30.078125 -4.941406 30.898438 -3.96875 32.546875 -3.96875 C 33.097656 -3.96875 33.628906 -4.0625 34.140625 -4.25 L 34.578125 -4.125 L 35.1875 -0.546875 C 34.800781 -0.285156 34.296875 -0.0859375 33.671875 0.046875 C 33.046875 0.179688 32.40625 0.25 31.75 0.25 C 29.832031 0.25 28.378906 -0.171875 27.390625 -1.015625 C 26.410156 -1.859375 25.78125 -3.109375 25.5 -4.765625 L 24.84375 -4.828125 C 23.84375 -2.984375 22.492188 -1.601562 20.796875 -0.6875 C 19.109375 0.21875 16.988281 0.671875 14.4375 0.671875 Z M 15.578125 -3.453125 C 17.523438 -3.453125 19.210938 -3.898438 20.640625 -4.796875 C 22.066406 -5.703125 23.160156 -6.96875 23.921875 -8.59375 C 24.679688 -10.226562 25.0625 -12.113281 25.0625 -14.25 L 25.0625 -18.6875 L 24.453125 -18.8125 C 23.671875 -18.257812 22.71875 -17.796875 21.59375 -17.421875 C 20.476562 -17.054688 18.914062 -16.726562 16.90625 -16.4375 C 14.875 -16.15625 13.257812 -15.726562 12.0625 -15.15625 C 10.875 -14.59375 10.023438 -13.867188 9.515625 -12.984375 C 9.003906 -12.109375 8.75 -11.023438 8.75 -9.734375 C 8.75 -7.679688 9.351562 -6.117188 10.5625 -5.046875 C 11.769531 -3.984375 13.441406 -3.453125 15.578125 -3.453125 Z M 15.578125 -3.453125 "/></g></g></g><g fill="#000000" fill-opacity="1"><g transform="translate(171.336864, 220.743646)"><g><path d="M 6.09375 0 L 6.09375 -34.984375 L 11.015625 -34.984375 L 11.015625 -29.5 L 11.671875 -29.34375 C 12.835938 -31.394531 14.320312 -32.957031 16.125 -34.03125 C 17.9375 -35.113281 20.144531 -35.65625 22.75 -35.65625 C 26.957031 -35.65625 30.003906 -34.582031 31.890625 -32.4375 C 33.785156 -30.289062 34.734375 -26.984375 34.734375 -22.515625 L 34.734375 0 L 29.5625 0 L 29.5625 -22.390625 C 29.5625 -24.503906 29.289062 -26.203125 28.75 -27.484375 C 28.21875 -28.765625 27.382812 -29.695312 26.25 -30.28125 C 25.113281 -30.863281 23.628906 -31.15625 21.796875 -31.15625 C 18.640625 -31.15625 16.09375 -30.113281 14.15625 -28.03125 C 12.226562 -25.945312 11.265625 -22.585938 11.265625 -17.953125 L 11.265625 0 Z M 6.09375 0 "/></g></g></g><g fill="#000000" fill-opacity="1"><g transform="translate(211.617823, 220.743646)"><g/></g></g><g fill="#000000" fill-opacity="1"><g transform="translate(227.539895, 220.743646)"><g><path d="M 2.796875 -2.125 C 2.796875 -4.6875 3.070312 -6.75 3.625 -8.3125 C 4.1875 -9.875 5.144531 -11.332031 6.5 -12.6875 C 7.851562 -14.039062 10.007812 -15.796875 12.96875 -17.953125 L 18.078125 -21.671875 C 19.960938 -23.046875 21.492188 -24.3125 22.671875 -25.46875 C 23.859375 -26.632812 24.796875 -27.898438 25.484375 -29.265625 C 26.171875 -30.628906 26.515625 -32.15625 26.515625 -33.84375 C 26.515625 -36.59375 25.785156 -38.664062 24.328125 -40.0625 C 22.867188 -41.457031 20.585938 -42.15625 17.484375 -42.15625 C 15.023438 -42.15625 12.84375 -41.582031 10.9375 -40.4375 C 9.039062 -39.300781 7.519531 -37.6875 6.375 -35.59375 L 5.640625 -35.46875 L 2.375 -38.890625 C 3.945312 -41.429688 6.003906 -43.425781 8.546875 -44.875 C 11.097656 -46.320312 14.078125 -47.046875 17.484375 -47.046875 C 20.773438 -47.046875 23.507812 -46.484375 25.6875 -45.359375 C 27.875 -44.242188 29.484375 -42.695312 30.515625 -40.71875 C 31.554688 -38.738281 32.078125 -36.445312 32.078125 -33.84375 C 32.078125 -31.769531 31.640625 -29.832031 30.765625 -28.03125 C 29.898438 -26.238281 28.675781 -24.550781 27.09375 -22.96875 C 25.507812 -21.382812 23.519531 -19.710938 21.125 -17.953125 L 15.953125 -14.1875 C 14.023438 -12.769531 12.546875 -11.5625 11.515625 -10.5625 C 10.484375 -9.570312 9.726562 -8.601562 9.25 -7.65625 C 8.769531 -6.71875 8.53125 -5.664062 8.53125 -4.5 L 32.078125 -4.5 L 32.078125 0 L 2.796875 0 Z M 2.796875 -2.125 "/></g></g></g><g fill="#000000" fill-opacity="1"><g transform="translate(263.190139, 220.743646)"><g><path d="M 22.8125 0.671875 C 19.40625 0.671875 16.347656 -0.144531 13.640625 -1.78125 C 10.929688 -3.425781 8.773438 -6.03125 7.171875 -9.59375 C 5.566406 -13.15625 4.765625 -17.6875 4.765625 -23.1875 C 4.765625 -28.6875 5.566406 -33.21875 7.171875 -36.78125 C 8.773438 -40.34375 10.929688 -42.941406 13.640625 -44.578125 C 16.347656 -46.222656 19.40625 -47.046875 22.8125 -47.046875 C 26.21875 -47.046875 29.269531 -46.222656 31.96875 -44.578125 C 34.675781 -42.941406 36.828125 -40.34375 38.421875 -36.78125 C 40.023438 -33.21875 40.828125 -28.6875 40.828125 -23.1875 C 40.828125 -17.6875 40.023438 -13.15625 38.421875 -9.59375 C 36.828125 -6.03125 34.675781 -3.425781 31.96875 -1.78125 C 29.269531 -0.144531 26.21875 0.671875 22.8125 0.671875 Z M 22.8125 -4.375 C 26.851562 -4.375 29.914062 -5.828125 32 -8.734375 C 34.082031 -11.648438 35.125 -16.46875 35.125 -23.1875 C 35.125 -29.914062 34.082031 -34.734375 32 -37.640625 C 29.914062 -40.546875 26.851562 -42 22.8125 -42 C 20.144531 -42 17.898438 -41.382812 16.078125 -40.15625 C 14.265625 -38.9375 12.875 -36.941406 11.90625 -34.171875 C 10.945312 -31.398438 10.46875 -27.738281 10.46875 -23.1875 C 10.46875 -18.644531 10.945312 -14.988281 11.90625 -12.21875 C 12.875 -9.445312 14.265625 -7.445312 16.078125 -6.21875 C 17.898438 -4.988281 20.144531 -4.375 22.8125 -4.375 Z M 22.8125 -4.375 "/></g></g></g><g fill="#000000" fill-opacity="1"><g transform="translate(308.799626, 220.743646)"><g><path d="M 2.796875 -2.125 C 2.796875 -4.6875 3.070312 -6.75 3.625 -8.3125 C 4.1875 -9.875 5.144531 -11.332031 6.5 -12.6875 C 7.851562 -14.039062 10.007812 -15.796875 12.96875 -17.953125 L 18.078125 -21.671875 C 19.960938 -23.046875 21.492188 -24.3125 22.671875 -25.46875 C 23.859375 -26.632812 24.796875 -27.898438 25.484375 -29.265625 C 26.171875 -30.628906 26.515625 -32.15625 26.515625 -33.84375 C 26.515625 -36.59375 25.785156 -38.664062 24.328125 -40.0625 C 22.867188 -41.457031 20.585938 -42.15625 17.484375 -42.15625 C 15.023438 -42.15625 12.84375 -41.582031 10.9375 -40.4375 C 9.039062 -39.300781 7.519531 -37.6875 6.375 -35.59375 L 5.640625 -35.46875 L 2.375 -38.890625 C 3.945312 -41.429688 6.003906 -43.425781 8.546875 -44.875 C 11.097656 -46.320312 14.078125 -47.046875 17.484375 -47.046875 C 20.773438 -47.046875 23.507812 -46.484375 25.6875 -45.359375 C 27.875 -44.242188 29.484375 -42.695312 30.515625 -40.71875 C 31.554688 -38.738281 32.078125 -36.445312 32.078125 -33.84375 C 32.078125 -31.769531 31.640625 -29.832031 30.765625 -28.03125 C 29.898438 -26.238281 28.675781 -24.550781 27.09375 -22.96875 C 25.507812 -21.382812 23.519531 -19.710938 21.125 -17.953125 L 15.953125 -14.1875 C 14.023438 -12.769531 12.546875 -11.5625 11.515625 -10.5625 C 10.484375 -9.570312 9.726562 -8.601562 9.25 -7.65625 C 8.769531 -6.71875 8.53125 -5.664062 8.53125 -4.5 L 32.078125 -4.5 L 32.078125 0 L 2.796875 0 Z M 2.796875 -2.125 "/></g></g></g><g fill="#000000" fill-opacity="1"><g transform="translate(344.44987, 220.743646)"><g><path d="M 22.8125 0.671875 C 19.40625 0.671875 16.347656 -0.144531 13.640625 -1.78125 C 10.929688 -3.425781 8.773438 -6.03125 7.171875 -9.59375 C 5.566406 -13.15625 4.765625 -17.6875 4.765625 -23.1875 C 4.765625 -28.6875 5.566406 -33.21875 7.171875 -36.78125 C 8.773438 -40.34375 10.929688 -42.941406 13.640625 -44.578125 C 16.347656 -46.222656 19.40625 -47.046875 22.8125 -47.046875 C 26.21875 -47.046875 29.269531 -46.222656 31.96875 -44.578125 C 34.675781 -42.941406 36.828125 -40.34375 38.421875 -36.78125 C 40.023438 -33.21875 40.828125 -28.6875 40.828125 -23.1875 C 40.828125 -17.6875 40.023438 -13.15625 38.421875 -9.59375 C 36.828125 -6.03125 34.675781 -3.425781 31.96875 -1.78125 C 29.269531 -0.144531 26.21875 0.671875 22.8125 0.671875 Z M 22.8125 -4.375 C 26.851562 -4.375 29.914062 -5.828125 32 -8.734375 C 34.082031 -11.648438 35.125 -16.46875 35.125 -23.1875 C 35.125 -29.914062 34.082031 -34.734375 32 -37.640625 C 29.914062 -40.546875 26.851562 -42 22.8125 -42 C 20.144531 -42 17.898438 -41.382812 16.078125 -40.15625 C 14.265625 -38.9375 12.875 -36.941406 11.90625 -34.171875 C 10.945312 -31.398438 10.46875 -27.738281 10.46875 -23.1875 C 10.46875 -18.644531 10.945312 -14.988281 11.90625 -12.21875 C 12.875 -9.445312 14.265625 -7.445312 16.078125 -6.21875 C 17.898438 -4.988281 20.144531 -4.375 22.8125 -4.375 Z M 22.8125 -4.375 "/></g></g></g></svg>