<svg xmlns="http://www.w3.org/2000/svg" xmlns:xlink="http://www.w3.org/1999/xlink" width="1620" zoomAndPan="magnify" viewBox="0 0 1215 809.999993" height="1080" preserveAspectRatio="xMidYMid meet" version="1.0"><defs><g/></defs><g fill="#000000" fill-opacity="1"><g transform="translate(0.00000525, 69.713092)"><g><path d="M 41.234375 -62.03125 L 41.234375 -20.703125 C 41.234375 -14.179688 39.644531 -8.925781 36.46875 -4.9375 C 33.289062 -0.945312 28.035156 1.046875 20.703125 1.046875 C 8.234375 1.046875 1.820312 -5.710938 1.46875 -19.234375 L 13.34375 -20.796875 L 13.34375 -20.265625 C 13.507812 -17.085938 14.097656 -14.53125 15.109375 -12.59375 C 16.117188 -10.664062 18.128906 -9.703125 21.140625 -9.703125 C 24.253906 -9.703125 26.300781 -10.625 27.28125 -12.46875 C 28.269531 -14.320312 28.765625 -17.066406 28.765625 -20.703125 L 28.765625 -62.03125 Z M 41.234375 -62.03125 "/></g></g></g><g fill="#000000" fill-opacity="1"><g transform="translate(48.148599, 69.713092)"><g><path d="M 17.84375 -21.828125 C 17.84375 -18.648438 17.914062 -16.335938 18.0625 -14.890625 C 18.207031 -13.453125 18.507812 -12.300781 18.96875 -11.4375 C 19.488281 -10.457031 20.28125 -9.648438 21.34375 -9.015625 C 22.414062 -8.378906 23.734375 -8.0625 25.296875 -8.0625 C 27.367188 -8.0625 29.242188 -8.632812 30.921875 -9.78125 C 32.597656 -10.9375 33.664062 -12.351562 34.125 -14.03125 C 34.644531 -15.707031 34.90625 -19.289062 34.90625 -24.78125 L 34.90625 -44.875 L 46.78125 -44.875 L 46.78125 0 L 35.78125 0 L 35.78125 -6.75 L 35.609375 -6.75 C 33.929688 -4.207031 31.765625 -2.269531 29.109375 -0.9375 C 26.453125 0.382812 23.707031 1.046875 20.875 1.046875 C 18.332031 1.046875 15.921875 0.523438 13.640625 -0.515625 C 11.359375 -1.554688 9.613281 -3.0625 8.40625 -5.03125 C 7.539062 -6.414062 6.921875 -7.941406 6.546875 -9.609375 C 6.171875 -11.285156 5.984375 -13.394531 5.984375 -15.9375 L 5.984375 -44.875 L 17.84375 -44.875 Z M 17.84375 -21.828125 "/></g></g></g><g fill="#000000" fill-opacity="1"><g transform="translate(101.060125, 69.713092)"><g><path d="M 32.046875 -45.90625 C 34.703125 -45.90625 37.007812 -45.457031 38.96875 -44.5625 C 40.9375 -43.664062 42.5 -42.613281 43.65625 -41.40625 C 45.039062 -39.90625 45.945312 -38.128906 46.375 -36.078125 C 46.8125 -34.023438 47.03125 -31.757812 47.03125 -29.28125 L 47.03125 0 L 35.171875 0 L 35.171875 -24.515625 C 35.171875 -28.671875 34.707031 -31.757812 33.78125 -33.78125 C 32.851562 -35.800781 30.890625 -36.8125 27.890625 -36.8125 C 25.066406 -36.8125 22.875 -36.003906 21.3125 -34.390625 C 19.75 -32.773438 18.820312 -30.898438 18.53125 -28.765625 C 18.363281 -27.378906 18.234375 -26.132812 18.140625 -25.03125 C 18.054688 -23.9375 18.015625 -22.695312 18.015625 -21.3125 L 18.015625 0 L 6.15625 0 L 6.15625 -44.875 L 17.40625 -44.875 L 17.40625 -38.28125 C 18.675781 -40.1875 20.566406 -41.929688 23.078125 -43.515625 C 25.597656 -45.109375 28.585938 -45.90625 32.046875 -45.90625 Z M 32.046875 -45.90625 "/></g></g></g><g fill="#000000" fill-opacity="1"><g transform="translate(153.97165, 69.713092)"><g><path d="M 22.515625 -45.90625 C 25.578125 -45.90625 28.25 -45.238281 30.53125 -43.90625 C 32.8125 -42.582031 34.675781 -40.828125 36.125 -38.640625 L 36.296875 -38.640625 L 36.296875 -44.875 L 47.390625 -44.875 L 47.390625 -3.8125 C 47.390625 1.207031 46.8125 5.289062 45.65625 8.4375 C 44.5 11.59375 42.375 14.003906 39.28125 15.671875 C 36.195312 17.347656 31.796875 18.1875 26.078125 18.1875 C 18.796875 18.1875 13.492188 16.898438 10.171875 14.328125 C 6.859375 11.765625 5.171875 7.96875 5.109375 2.9375 L 18.71875 4.59375 C 18.945312 6.382812 19.625 7.582031 20.75 8.1875 C 21.875 8.789062 23.503906 9.09375 25.640625 9.09375 C 29.335938 9.09375 31.90625 8.441406 33.34375 7.140625 C 34.789062 5.847656 35.515625 3.582031 35.515625 0.34375 L 35.515625 -7.28125 L 35.34375 -7.28125 C 33.84375 -5.082031 31.921875 -3.316406 29.578125 -1.984375 C 27.242188 -0.660156 24.75 0 22.09375 0 C 18.394531 0 15.144531 -0.976562 12.34375 -2.9375 C 9.539062 -4.90625 7.375 -7.617188 5.84375 -11.078125 C 4.3125 -14.546875 3.546875 -18.421875 3.546875 -22.703125 C 3.546875 -28.296875 4.515625 -32.828125 6.453125 -36.296875 C 8.390625 -39.765625 10.800781 -42.234375 13.6875 -43.703125 C 16.570312 -45.171875 19.515625 -45.90625 22.515625 -45.90625 Z M 15.765625 -23.390625 C 15.765625 -19.640625 16.515625 -16.421875 18.015625 -13.734375 C 19.515625 -11.046875 21.96875 -9.703125 25.375 -9.703125 C 27.976562 -9.703125 30.363281 -10.710938 32.53125 -12.734375 C 34.695312 -14.753906 35.78125 -18.21875 35.78125 -23.125 C 35.78125 -26.769531 34.984375 -29.960938 33.390625 -32.703125 C 31.804688 -35.441406 29.164062 -36.8125 25.46875 -36.8125 C 21.882812 -36.8125 19.367188 -35.425781 17.921875 -32.65625 C 16.484375 -29.882812 15.765625 -26.796875 15.765625 -23.390625 Z M 15.765625 -23.390625 "/></g></g></g><g fill="#000000" fill-opacity="1"><g transform="translate(206.883175, 69.713092)"><g><path d="M 18.109375 0 L 6.234375 0 L 6.234375 -62.03125 L 18.109375 -62.03125 Z M 18.109375 0 "/></g></g></g><g fill="#000000" fill-opacity="1"><g transform="translate(230.957472, 69.713092)"><g><path d="M 23.390625 -45.90625 C 30.546875 -45.90625 35.882812 -43.582031 39.40625 -38.9375 C 42.9375 -34.289062 44.703125 -27.664062 44.703125 -19.0625 L 14.90625 -19.0625 C 15.019531 -16.050781 15.898438 -13.460938 17.546875 -11.296875 C 19.191406 -9.140625 21.570312 -8.0625 24.6875 -8.0625 C 26.65625 -8.0625 28.257812 -8.566406 29.5 -9.578125 C 30.738281 -10.585938 31.644531 -12.160156 32.21875 -14.296875 L 44.09375 -12.296875 C 42.59375 -7.910156 40.164062 -4.585938 36.8125 -2.328125 C 33.46875 -0.078125 29.367188 1.046875 24.515625 1.046875 C 17.296875 1.046875 11.835938 -1.117188 8.140625 -5.453125 C 6.410156 -7.472656 5.082031 -10.015625 4.15625 -13.078125 C 3.226562 -16.140625 2.765625 -19.171875 2.765625 -22.171875 C 2.765625 -26.273438 3.5 -30.128906 4.96875 -33.734375 C 6.445312 -37.347656 8.726562 -40.28125 11.8125 -42.53125 C 14.90625 -44.78125 18.765625 -45.90625 23.390625 -45.90625 Z M 15.15625 -26.328125 L 32.921875 -26.328125 C 32.859375 -29.972656 31.945312 -32.628906 30.1875 -34.296875 C 28.425781 -35.972656 26.363281 -36.8125 24 -36.8125 C 21.226562 -36.8125 19.0625 -35.816406 17.5 -33.828125 C 15.9375 -31.835938 15.15625 -29.335938 15.15625 -26.328125 Z M 15.15625 -26.328125 "/></g></g></g><g fill="#000000" fill-opacity="1"><g transform="translate(279.106066, 69.713092)"><g/></g></g><g fill="#000000" fill-opacity="1"><g transform="translate(303.180363, 69.713092)"><g><path d="M 19.140625 -10.484375 L 50.328125 -10.484375 L 50.328125 0 L 6.671875 0 L 6.671875 -62.03125 L 19.140625 -62.03125 Z M 19.140625 -10.484375 "/></g></g></g><g fill="#000000" fill-opacity="1"><g transform="translate(356.091888, 69.713092)"><g><path d="M 23.734375 -45.90625 C 29.453125 -45.90625 33.695312 -45.171875 36.46875 -43.703125 C 39.238281 -42.234375 40.984375 -40.296875 41.703125 -37.890625 C 42.429688 -35.492188 42.765625 -32.332031 42.703125 -28.40625 L 42.625 -15.328125 C 42.5625 -11.234375 42.703125 -8.257812 43.046875 -6.40625 C 43.398438 -4.5625 44.125 -2.425781 45.21875 0 L 33.53125 0 C 33.238281 -0.632812 32.71875 -2.28125 31.96875 -4.9375 C 29.832031 -2.851562 27.625 -1.332031 25.34375 -0.375 C 23.0625 0.570312 20.617188 1.046875 18.015625 1.046875 C 13.566406 1.046875 9.972656 -0.179688 7.234375 -2.640625 C 4.492188 -5.097656 3.125 -8.289062 3.125 -12.21875 C 3.125 -15.507812 3.945312 -18.117188 5.59375 -20.046875 C 7.238281 -21.984375 9.242188 -23.382812 11.609375 -24.25 C 13.972656 -25.113281 16.773438 -25.863281 20.015625 -26.5 C 24.972656 -27.425781 28.640625 -28.351562 31.015625 -29.28125 L 31.015625 -31.1875 C 31.015625 -33.144531 30.4375 -34.570312 29.28125 -35.46875 C 28.125 -36.363281 26.015625 -36.8125 22.953125 -36.8125 C 20.585938 -36.8125 18.828125 -36.332031 17.671875 -35.375 C 16.515625 -34.425781 15.648438 -33.03125 15.078125 -31.1875 L 4.328125 -33.171875 C 5.484375 -37.566406 7.5625 -40.785156 10.5625 -42.828125 C 13.570312 -44.878906 17.960938 -45.90625 23.734375 -45.90625 Z M 23.5625 -19.65625 L 21.5625 -19.234375 C 17.175781 -18.304688 14.984375 -16.398438 14.984375 -13.515625 C 14.984375 -11.785156 15.601562 -10.328125 16.84375 -9.140625 C 18.09375 -7.953125 19.664062 -7.359375 21.5625 -7.359375 C 23.125 -7.359375 24.6875 -7.757812 26.25 -8.5625 C 27.8125 -9.375 29.023438 -10.445312 29.890625 -11.78125 C 30.640625 -12.988281 31.015625 -15.066406 31.015625 -18.015625 L 31.015625 -21.5625 C 28.765625 -20.875 26.28125 -20.238281 23.5625 -19.65625 Z M 23.5625 -19.65625 "/></g></g></g><g fill="#000000" fill-opacity="1"><g transform="translate(404.240482, 69.713092)"><g><path d="M 17.578125 -39.671875 C 21.222656 -43.828125 25.585938 -45.90625 30.671875 -45.90625 C 34.128906 -45.90625 37.285156 -45.050781 40.140625 -43.34375 C 43.003906 -41.644531 45.285156 -39.0625 46.984375 -35.59375 C 48.691406 -32.132812 49.546875 -27.894531 49.546875 -22.875 C 49.546875 -17.675781 48.664062 -13.285156 46.90625 -9.703125 C 45.144531 -6.117188 42.832031 -3.429688 39.96875 -1.640625 C 37.113281 0.148438 34.039062 1.046875 30.75 1.046875 C 28.5 1.046875 26.085938 0.441406 23.515625 -0.765625 C 20.941406 -1.984375 18.707031 -3.921875 16.8125 -6.578125 L 16.8125 0 L 5.71875 0 L 5.71875 -62.03125 L 17.578125 -62.03125 Z M 17.5 -23.390625 C 17.5 -20.785156 17.6875 -18.660156 18.0625 -17.015625 C 18.4375 -15.367188 19.054688 -13.941406 19.921875 -12.734375 C 22.003906 -9.847656 24.660156 -8.40625 27.890625 -8.40625 C 30.429688 -8.40625 32.640625 -9.5 34.515625 -11.6875 C 36.390625 -13.882812 37.328125 -17.4375 37.328125 -22.34375 C 37.328125 -26.738281 36.535156 -30.25 34.953125 -32.875 C 33.367188 -35.5 30.84375 -36.8125 27.375 -36.8125 C 24.488281 -36.8125 22.117188 -35.671875 20.265625 -33.390625 C 18.421875 -31.109375 17.5 -27.773438 17.5 -23.390625 Z M 17.5 -23.390625 "/></g></g></g><g fill="#000000" fill-opacity="1"><g transform="translate(457.152008, 69.713092)"><g><path d="M 26.59375 -45.90625 C 31.445312 -45.90625 35.632812 -44.804688 39.15625 -42.609375 C 42.675781 -40.421875 45.332031 -37.535156 47.125 -33.953125 C 48.914062 -30.378906 49.8125 -26.597656 49.8125 -22.609375 C 49.8125 -18.453125 48.867188 -14.566406 46.984375 -10.953125 C 45.109375 -7.347656 42.425781 -4.445312 38.9375 -2.25 C 35.445312 -0.0507812 31.363281 1.046875 26.6875 1.046875 C 22.695312 1.046875 18.941406 0.222656 15.421875 -1.421875 C 11.898438 -3.066406 9.023438 -5.691406 6.796875 -9.296875 C 4.578125 -12.910156 3.46875 -17.492188 3.46875 -23.046875 C 3.46875 -26.910156 4.347656 -30.585938 6.109375 -34.078125 C 7.867188 -37.578125 10.492188 -40.421875 13.984375 -42.609375 C 17.484375 -44.804688 21.6875 -45.90625 26.59375 -45.90625 Z M 15.671875 -22.4375 C 15.671875 -17.925781 16.722656 -14.5 18.828125 -12.15625 C 20.941406 -9.820312 23.53125 -8.65625 26.59375 -8.65625 C 29.65625 -8.65625 32.253906 -9.8125 34.390625 -12.125 C 36.523438 -14.4375 37.59375 -17.898438 37.59375 -22.515625 C 37.59375 -26.796875 36.566406 -30.144531 34.515625 -32.5625 C 32.460938 -34.988281 29.789062 -36.203125 26.5 -36.203125 C 23.5 -36.203125 20.941406 -35.019531 18.828125 -32.65625 C 16.722656 -30.289062 15.671875 -26.882812 15.671875 -22.4375 Z M 15.671875 -22.4375 "/></g></g></g><g fill="#000000" fill-opacity="1"><g transform="translate(510.063533, 69.713092)"><g><path d="M 27.03125 -45.90625 C 28.300781 -45.90625 29.640625 -45.703125 31.046875 -45.296875 C 32.460938 -44.898438 33.722656 -44.382812 34.828125 -43.75 L 31.09375 -33.34375 C 29.070312 -34.613281 27.222656 -35.25 25.546875 -35.25 C 23.296875 -35.25 21.59375 -34.484375 20.4375 -32.953125 C 19.289062 -31.429688 18.523438 -29.296875 18.140625 -26.546875 C 17.765625 -23.804688 17.578125 -20.15625 17.578125 -15.59375 L 17.578125 0 L 5.71875 0 L 5.71875 -44.875 L 16.71875 -44.875 L 16.71875 -38.546875 L 16.890625 -38.546875 C 18.335938 -40.972656 19.78125 -42.804688 21.21875 -44.046875 C 22.664062 -45.285156 24.601562 -45.90625 27.03125 -45.90625 Z M 27.03125 -45.90625 "/></g></g></g><g fill="#000000" fill-opacity="1"><g transform="translate(543.75024, 69.713092)"><g><path d="M 23.734375 -45.90625 C 29.453125 -45.90625 33.695312 -45.171875 36.46875 -43.703125 C 39.238281 -42.234375 40.984375 -40.296875 41.703125 -37.890625 C 42.429688 -35.492188 42.765625 -32.332031 42.703125 -28.40625 L 42.625 -15.328125 C 42.5625 -11.234375 42.703125 -8.257812 43.046875 -6.40625 C 43.398438 -4.5625 44.125 -2.425781 45.21875 0 L 33.53125 0 C 33.238281 -0.632812 32.71875 -2.28125 31.96875 -4.9375 C 29.832031 -2.851562 27.625 -1.332031 25.34375 -0.375 C 23.0625 0.570312 20.617188 1.046875 18.015625 1.046875 C 13.566406 1.046875 9.972656 -0.179688 7.234375 -2.640625 C 4.492188 -5.097656 3.125 -8.289062 3.125 -12.21875 C 3.125 -15.507812 3.945312 -18.117188 5.59375 -20.046875 C 7.238281 -21.984375 9.242188 -23.382812 11.609375 -24.25 C 13.972656 -25.113281 16.773438 -25.863281 20.015625 -26.5 C 24.972656 -27.425781 28.640625 -28.351562 31.015625 -29.28125 L 31.015625 -31.1875 C 31.015625 -33.144531 30.4375 -34.570312 29.28125 -35.46875 C 28.125 -36.363281 26.015625 -36.8125 22.953125 -36.8125 C 20.585938 -36.8125 18.828125 -36.332031 17.671875 -35.375 C 16.515625 -34.425781 15.648438 -33.03125 15.078125 -31.1875 L 4.328125 -33.171875 C 5.484375 -37.566406 7.5625 -40.785156 10.5625 -42.828125 C 13.570312 -44.878906 17.960938 -45.90625 23.734375 -45.90625 Z M 23.5625 -19.65625 L 21.5625 -19.234375 C 17.175781 -18.304688 14.984375 -16.398438 14.984375 -13.515625 C 14.984375 -11.785156 15.601562 -10.328125 16.84375 -9.140625 C 18.09375 -7.953125 19.664062 -7.359375 21.5625 -7.359375 C 23.125 -7.359375 24.6875 -7.757812 26.25 -8.5625 C 27.8125 -9.375 29.023438 -10.445312 29.890625 -11.78125 C 30.640625 -12.988281 31.015625 -15.066406 31.015625 -18.015625 L 31.015625 -21.5625 C 28.765625 -20.875 26.28125 -20.238281 23.5625 -19.65625 Z M 23.5625 -19.65625 "/></g></g></g><g fill="#000000" fill-opacity="1"><g transform="translate(591.898834, 69.713092)"><g><path d="M 18.71875 -44.875 L 26.765625 -44.875 L 26.765625 -35.421875 L 18.71875 -35.421875 L 18.71875 -15.671875 C 18.71875 -13.773438 18.785156 -12.363281 18.921875 -11.4375 C 19.066406 -10.507812 19.367188 -9.84375 19.828125 -9.4375 C 20.296875 -9.03125 21.019531 -8.828125 22 -8.828125 C 23.21875 -8.828125 24.804688 -9.207031 26.765625 -9.96875 L 27.8125 -0.78125 C 26.59375 -0.195312 25.117188 0.25 23.390625 0.5625 C 21.660156 0.882812 20.015625 1.046875 18.453125 1.046875 C 16.203125 1.046875 14.207031 0.671875 12.46875 -0.078125 C 10.738281 -0.835938 9.46875 -1.851562 8.65625 -3.125 C 7.789062 -4.5625 7.253906 -6.160156 7.046875 -7.921875 C 6.847656 -9.679688 6.75 -11.890625 6.75 -14.546875 L 6.75 -35.421875 L 1.296875 -35.421875 L 1.296875 -44.875 L 6.75 -44.875 L 6.75 -53.796875 L 18.71875 -60.8125 Z M 18.71875 -44.875 "/></g></g></g><g fill="#000000" fill-opacity="1"><g transform="translate(620.736062, 69.713092)"><g><path d="M 26.59375 -45.90625 C 31.445312 -45.90625 35.632812 -44.804688 39.15625 -42.609375 C 42.675781 -40.421875 45.332031 -37.535156 47.125 -33.953125 C 48.914062 -30.378906 49.8125 -26.597656 49.8125 -22.609375 C 49.8125 -18.453125 48.867188 -14.566406 46.984375 -10.953125 C 45.109375 -7.347656 42.425781 -4.445312 38.9375 -2.25 C 35.445312 -0.0507812 31.363281 1.046875 26.6875 1.046875 C 22.695312 1.046875 18.941406 0.222656 15.421875 -1.421875 C 11.898438 -3.066406 9.023438 -5.691406 6.796875 -9.296875 C 4.578125 -12.910156 3.46875 -17.492188 3.46875 -23.046875 C 3.46875 -26.910156 4.347656 -30.585938 6.109375 -34.078125 C 7.867188 -37.578125 10.492188 -40.421875 13.984375 -42.609375 C 17.484375 -44.804688 21.6875 -45.90625 26.59375 -45.90625 Z M 15.671875 -22.4375 C 15.671875 -17.925781 16.722656 -14.5 18.828125 -12.15625 C 20.941406 -9.820312 23.53125 -8.65625 26.59375 -8.65625 C 29.65625 -8.65625 32.253906 -9.8125 34.390625 -12.125 C 36.523438 -14.4375 37.59375 -17.898438 37.59375 -22.515625 C 37.59375 -26.796875 36.566406 -30.144531 34.515625 -32.5625 C 32.460938 -34.988281 29.789062 -36.203125 26.5 -36.203125 C 23.5 -36.203125 20.941406 -35.019531 18.828125 -32.65625 C 16.722656 -30.289062 15.671875 -26.882812 15.671875 -22.4375 Z M 15.671875 -22.4375 "/></g></g></g><g fill="#000000" fill-opacity="1"><g transform="translate(673.647587, 69.713092)"><g><path d="M 27.03125 -45.90625 C 28.300781 -45.90625 29.640625 -45.703125 31.046875 -45.296875 C 32.460938 -44.898438 33.722656 -44.382812 34.828125 -43.75 L 31.09375 -33.34375 C 29.070312 -34.613281 27.222656 -35.25 25.546875 -35.25 C 23.296875 -35.25 21.59375 -34.484375 20.4375 -32.953125 C 19.289062 -31.429688 18.523438 -29.296875 18.140625 -26.546875 C 17.765625 -23.804688 17.578125 -20.15625 17.578125 -15.59375 L 17.578125 0 L 5.71875 0 L 5.71875 -44.875 L 16.71875 -44.875 L 16.71875 -38.546875 L 16.890625 -38.546875 C 18.335938 -40.972656 19.78125 -42.804688 21.21875 -44.046875 C 22.664062 -45.285156 24.601562 -45.90625 27.03125 -45.90625 Z M 27.03125 -45.90625 "/></g></g></g><g fill="#000000" fill-opacity="1"><g transform="translate(707.334294, 69.713092)"><g><path d="M 23.90625 -13 L 24.078125 -13 L 34.484375 -44.875 L 46.78125 -44.875 L 30.921875 -1.640625 L 29.890625 1.390625 C 28.390625 5.597656 27.046875 8.785156 25.859375 10.953125 C 24.671875 13.117188 22.9375 14.863281 20.65625 16.1875 C 18.375 17.519531 15.242188 18.1875 11.265625 18.1875 C 8.890625 18.1875 6.632812 17.957031 4.5 17.5 L 3.46875 8.234375 C 5.488281 8.578125 7.132812 8.75 8.40625 8.75 C 10.882812 8.75 12.800781 8.097656 14.15625 6.796875 C 15.519531 5.492188 16.691406 3.257812 17.671875 0.09375 L 0.609375 -44.875 L 13.25 -44.875 Z M 23.90625 -13 "/></g></g></g><g fill="#000000" fill-opacity="1"><g transform="translate(0.00000525, 219.614553)"><g><path d="M 22.796875 0.671875 C 19.390625 0.671875 16.332031 -0.144531 13.625 -1.78125 C 10.925781 -3.425781 8.769531 -6.03125 7.15625 -9.59375 C 5.550781 -13.15625 4.75 -17.679688 4.75 -23.171875 C 4.75 -28.671875 5.550781 -33.203125 7.15625 -36.765625 C 8.769531 -40.328125 10.925781 -42.925781 13.625 -44.5625 C 16.332031 -46.195312 19.390625 -47.015625 22.796875 -47.015625 C 26.203125 -47.015625 29.253906 -46.195312 31.953125 -44.5625 C 34.660156 -42.925781 36.8125 -40.328125 38.40625 -36.765625 C 40.007812 -33.203125 40.8125 -28.671875 40.8125 -23.171875 C 40.8125 -17.679688 40.007812 -13.15625 38.40625 -9.59375 C 36.8125 -6.03125 34.660156 -3.425781 31.953125 -1.78125 C 29.253906 -0.144531 26.203125 0.671875 22.796875 0.671875 Z M 22.796875 -4.375 C 26.835938 -4.375 29.894531 -5.828125 31.96875 -8.734375 C 34.050781 -11.640625 35.09375 -16.453125 35.09375 -23.171875 C 35.09375 -29.898438 34.050781 -34.71875 31.96875 -37.625 C 29.894531 -40.53125 26.835938 -41.984375 22.796875 -41.984375 C 20.128906 -41.984375 17.882812 -41.367188 16.0625 -40.140625 C 14.25 -38.910156 12.863281 -36.910156 11.90625 -34.140625 C 10.945312 -31.378906 10.46875 -27.722656 10.46875 -23.171875 C 10.46875 -18.628906 10.945312 -14.972656 11.90625 -12.203125 C 12.863281 -9.429688 14.25 -7.429688 16.0625 -6.203125 C 17.882812 -4.984375 20.128906 -4.375 22.796875 -4.375 Z M 22.796875 -4.375 "/></g></g></g><g fill="#000000" fill-opacity="1"><g transform="translate(45.559297, 219.614553)"><g><path d="M 29.015625 0 L 23.84375 0 L 23.84375 -11.0625 L 2.125 -11.0625 L 2.125 -15.4375 L 22.578125 -46.359375 L 29.015625 -46.359375 L 29.015625 -15.4375 L 37.03125 -15.4375 L 37.03125 -11.0625 L 29.015625 -11.0625 Z M 8.53125 -16.109375 L 8.8125 -15.4375 L 23.84375 -15.4375 L 23.84375 -38.8125 L 23.109375 -38.9375 Z M 8.53125 -16.109375 "/></g></g></g><g fill="#000000" fill-opacity="1"><g transform="translate(84.813822, 219.614553)"><g/></g></g><g fill="#000000" fill-opacity="1"><g transform="translate(100.718388, 219.614553)"><g><path d="M 15.3125 0.671875 C 13.007812 0.671875 10.894531 0.328125 8.96875 -0.359375 C 7.050781 -1.046875 5.429688 -1.984375 4.109375 -3.171875 C 2.785156 -4.359375 1.816406 -5.671875 1.203125 -7.109375 L 4.03125 -10.8125 L 4.8125 -10.8125 C 5.75 -8.820312 7.117188 -7.25 8.921875 -6.09375 C 10.734375 -4.945312 12.863281 -4.375 15.3125 -4.375 C 17.300781 -4.375 18.914062 -4.695312 20.15625 -5.34375 C 21.40625 -5.988281 22.34375 -7.054688 22.96875 -8.546875 C 23.59375 -10.035156 23.90625 -12.046875 23.90625 -14.578125 L 23.90625 -46.359375 L 29.328125 -46.359375 L 29.328125 -14.484375 C 29.328125 -9.242188 28.160156 -5.40625 25.828125 -2.96875 C 23.492188 -0.539062 19.988281 0.671875 15.3125 0.671875 Z M 15.3125 0.671875 "/></g></g></g><g fill="#000000" fill-opacity="1"><g transform="translate(136.614578, 219.614553)"><g><path d="M 14.421875 0.671875 C 10.984375 0.671875 8.296875 -0.222656 6.359375 -2.015625 C 4.421875 -3.816406 3.453125 -6.390625 3.453125 -9.734375 C 3.453125 -11.804688 3.878906 -13.554688 4.734375 -14.984375 C 5.597656 -16.410156 6.925781 -17.570312 8.71875 -18.46875 C 10.519531 -19.363281 12.867188 -20.054688 15.765625 -20.546875 C 18.296875 -20.972656 20.222656 -21.445312 21.546875 -21.96875 C 22.867188 -22.5 23.753906 -23.09375 24.203125 -23.75 C 24.660156 -24.40625 24.890625 -25.226562 24.890625 -26.21875 C 24.890625 -27.800781 24.34375 -29.015625 23.25 -29.859375 C 22.164062 -30.710938 20.421875 -31.140625 18.015625 -31.140625 C 15.753906 -31.140625 13.8125 -30.695312 12.1875 -29.8125 C 10.570312 -28.9375 9.085938 -27.632812 7.734375 -25.90625 L 7.109375 -25.90625 L 4.5625 -29.484375 C 6.039062 -31.367188 7.921875 -32.863281 10.203125 -33.96875 C 12.492188 -35.082031 15.097656 -35.640625 18.015625 -35.640625 C 22.128906 -35.640625 25.164062 -34.734375 27.125 -32.921875 C 29.082031 -31.117188 30.0625 -28.617188 30.0625 -25.421875 L 30.0625 -6.875 C 30.0625 -4.9375 30.882812 -3.96875 32.53125 -3.96875 C 33.082031 -3.96875 33.613281 -4.0625 34.125 -4.25 L 34.5625 -4.125 L 35.15625 -0.53125 C 34.78125 -0.28125 34.28125 -0.0859375 33.65625 0.046875 C 33.03125 0.179688 32.390625 0.25 31.734375 0.25 C 29.816406 0.25 28.363281 -0.171875 27.375 -1.015625 C 26.394531 -1.859375 25.769531 -3.101562 25.5 -4.75 L 24.828125 -4.8125 C 23.835938 -2.976562 22.492188 -1.601562 20.796875 -0.6875 C 19.109375 0.21875 16.984375 0.671875 14.421875 0.671875 Z M 15.5625 -3.453125 C 17.507812 -3.453125 19.195312 -3.898438 20.625 -4.796875 C 22.050781 -5.703125 23.144531 -6.96875 23.90625 -8.59375 C 24.664062 -10.21875 25.046875 -12.097656 25.046875 -14.234375 L 25.046875 -18.671875 L 24.453125 -18.796875 C 23.671875 -18.253906 22.71875 -17.796875 21.59375 -17.421875 C 20.46875 -17.054688 18.90625 -16.722656 16.90625 -16.421875 C 14.875 -16.148438 13.257812 -15.726562 12.0625 -15.15625 C 10.863281 -14.582031 10.007812 -13.859375 9.5 -12.984375 C 9 -12.109375 8.75 -11.023438 8.75 -9.734375 C 8.75 -7.679688 9.347656 -6.117188 10.546875 -5.046875 C 11.753906 -3.984375 13.425781 -3.453125 15.5625 -3.453125 Z M 15.5625 -3.453125 "/></g></g></g><g fill="#000000" fill-opacity="1"><g transform="translate(172.764228, 219.614553)"><g><path d="M 6.09375 0 L 6.09375 -34.96875 L 11 -34.96875 L 11 -29.484375 L 11.671875 -29.328125 C 12.828125 -31.378906 14.304688 -32.941406 16.109375 -34.015625 C 17.921875 -35.097656 20.128906 -35.640625 22.734375 -35.640625 C 26.941406 -35.640625 29.988281 -34.566406 31.875 -32.421875 C 33.769531 -30.273438 34.71875 -26.972656 34.71875 -22.515625 L 34.71875 0 L 29.546875 0 L 29.546875 -22.390625 C 29.546875 -24.503906 29.273438 -26.195312 28.734375 -27.46875 C 28.203125 -28.75 27.367188 -29.679688 26.234375 -30.265625 C 25.109375 -30.847656 23.625 -31.140625 21.78125 -31.140625 C 18.632812 -31.140625 16.09375 -30.097656 14.15625 -28.015625 C 12.21875 -25.929688 11.25 -22.578125 11.25 -17.953125 L 11.25 0 Z M 6.09375 0 "/></g></g></g><g fill="#000000" fill-opacity="1"><g transform="translate(213.014539, 219.614553)"><g/></g></g><g fill="#000000" fill-opacity="1"><g transform="translate(228.919104, 219.614553)"><g><path d="M 2.796875 -2.125 C 2.796875 -4.6875 3.070312 -6.75 3.625 -8.3125 C 4.1875 -9.875 5.144531 -11.332031 6.5 -12.6875 C 7.851562 -14.039062 10.007812 -15.796875 12.96875 -17.953125 L 18.078125 -21.65625 C 19.953125 -23.03125 21.484375 -24.296875 22.671875 -25.453125 C 23.859375 -26.617188 24.789062 -27.882812 25.46875 -29.25 C 26.15625 -30.613281 26.5 -32.140625 26.5 -33.828125 C 26.5 -36.578125 25.769531 -38.648438 24.3125 -40.046875 C 22.851562 -41.441406 20.570312 -42.140625 17.46875 -42.140625 C 15.019531 -42.140625 12.84375 -41.566406 10.9375 -40.421875 C 9.03125 -39.285156 7.507812 -37.671875 6.375 -35.578125 L 5.640625 -35.453125 L 2.375 -38.875 C 3.9375 -41.40625 5.988281 -43.394531 8.53125 -44.84375 C 11.082031 -46.289062 14.0625 -47.015625 17.46875 -47.015625 C 20.769531 -47.015625 23.507812 -46.453125 25.6875 -45.328125 C 27.863281 -44.210938 29.46875 -42.664062 30.5 -40.6875 C 31.539062 -38.71875 32.0625 -36.429688 32.0625 -33.828125 C 32.0625 -31.753906 31.625 -29.816406 30.75 -28.015625 C 29.882812 -26.222656 28.660156 -24.535156 27.078125 -22.953125 C 25.492188 -21.367188 23.507812 -19.703125 21.125 -17.953125 L 15.953125 -14.171875 C 14.023438 -12.753906 12.539062 -11.546875 11.5 -10.546875 C 10.46875 -9.554688 9.710938 -8.59375 9.234375 -7.65625 C 8.765625 -6.71875 8.53125 -5.664062 8.53125 -4.5 L 32.0625 -4.5 L 32.0625 0 L 2.796875 0 Z M 2.796875 -2.125 "/></g></g></g><g fill="#000000" fill-opacity="1"><g transform="translate(264.530122, 219.614553)"><g><path d="M 22.796875 0.671875 C 19.390625 0.671875 16.332031 -0.144531 13.625 -1.78125 C 10.925781 -3.425781 8.769531 -6.03125 7.15625 -9.59375 C 5.550781 -13.15625 4.75 -17.679688 4.75 -23.171875 C 4.75 -28.671875 5.550781 -33.203125 7.15625 -36.765625 C 8.769531 -40.328125 10.925781 -42.925781 13.625 -44.5625 C 16.332031 -46.195312 19.390625 -47.015625 22.796875 -47.015625 C 26.203125 -47.015625 29.253906 -46.195312 31.953125 -44.5625 C 34.660156 -42.925781 36.8125 -40.328125 38.40625 -36.765625 C 40.007812 -33.203125 40.8125 -28.671875 40.8125 -23.171875 C 40.8125 -17.679688 40.007812 -13.15625 38.40625 -9.59375 C 36.8125 -6.03125 34.660156 -3.425781 31.953125 -1.78125 C 29.253906 -0.144531 26.203125 0.671875 22.796875 0.671875 Z M 22.796875 -4.375 C 26.835938 -4.375 29.894531 -5.828125 31.96875 -8.734375 C 34.050781 -11.640625 35.09375 -16.453125 35.09375 -23.171875 C 35.09375 -29.898438 34.050781 -34.71875 31.96875 -37.625 C 29.894531 -40.53125 26.835938 -41.984375 22.796875 -41.984375 C 20.128906 -41.984375 17.882812 -41.367188 16.0625 -40.140625 C 14.25 -38.910156 12.863281 -36.910156 11.90625 -34.140625 C 10.945312 -31.378906 10.46875 -27.722656 10.46875 -23.171875 C 10.46875 -18.628906 10.945312 -14.972656 11.90625 -12.203125 C 12.863281 -9.429688 14.25 -7.429688 16.0625 -6.203125 C 17.882812 -4.984375 20.128906 -4.375 22.796875 -4.375 Z M 22.796875 -4.375 "/></g></g></g><g fill="#000000" fill-opacity="1"><g transform="translate(310.089415, 219.614553)"><g><path d="M 2.796875 -2.125 C 2.796875 -4.6875 3.070312 -6.75 3.625 -8.3125 C 4.1875 -9.875 5.144531 -11.332031 6.5 -12.6875 C 7.851562 -14.039062 10.007812 -15.796875 12.96875 -17.953125 L 18.078125 -21.65625 C 19.953125 -23.03125 21.484375 -24.296875 22.671875 -25.453125 C 23.859375 -26.617188 24.789062 -27.882812 25.46875 -29.25 C 26.15625 -30.613281 26.5 -32.140625 26.5 -33.828125 C 26.5 -36.578125 25.769531 -38.648438 24.3125 -40.046875 C 22.851562 -41.441406 20.570312 -42.140625 17.46875 -42.140625 C 15.019531 -42.140625 12.84375 -41.566406 10.9375 -40.421875 C 9.03125 -39.285156 7.507812 -37.671875 6.375 -35.578125 L 5.640625 -35.453125 L 2.375 -38.875 C 3.9375 -41.40625 5.988281 -43.394531 8.53125 -44.84375 C 11.082031 -46.289062 14.0625 -47.015625 17.46875 -47.015625 C 20.769531 -47.015625 23.507812 -46.453125 25.6875 -45.328125 C 27.863281 -44.210938 29.46875 -42.664062 30.5 -40.6875 C 31.539062 -38.71875 32.0625 -36.429688 32.0625 -33.828125 C 32.0625 -31.753906 31.625 -29.816406 30.75 -28.015625 C 29.882812 -26.222656 28.660156 -24.535156 27.078125 -22.953125 C 25.492188 -21.367188 23.507812 -19.703125 21.125 -17.953125 L 15.953125 -14.171875 C 14.023438 -12.753906 12.539062 -11.546875 11.5 -10.546875 C 10.46875 -9.554688 9.710938 -8.59375 9.234375 -7.65625 C 8.765625 -6.71875 8.53125 -5.664062 8.53125 -4.5 L 32.0625 -4.5 L 32.0625 0 L 2.796875 0 Z M 2.796875 -2.125 "/></g></g></g><g fill="#000000" fill-opacity="1"><g transform="translate(345.700433, 219.614553)"><g><path d="M 22.796875 0.671875 C 19.390625 0.671875 16.332031 -0.144531 13.625 -1.78125 C 10.925781 -3.425781 8.769531 -6.03125 7.15625 -9.59375 C 5.550781 -13.15625 4.75 -17.679688 4.75 -23.171875 C 4.75 -28.671875 5.550781 -33.203125 7.15625 -36.765625 C 8.769531 -40.328125 10.925781 -42.925781 13.625 -44.5625 C 16.332031 -46.195312 19.390625 -47.015625 22.796875 -47.015625 C 26.203125 -47.015625 29.253906 -46.195312 31.953125 -44.5625 C 34.660156 -42.925781 36.8125 -40.328125 38.40625 -36.765625 C 40.007812 -33.203125 40.8125 -28.671875 40.8125 -23.171875 C 40.8125 -17.679688 40.007812 -13.15625 38.40625 -9.59375 C 36.8125 -6.03125 34.660156 -3.425781 31.953125 -1.78125 C 29.253906 -0.144531 26.203125 0.671875 22.796875 0.671875 Z M 22.796875 -4.375 C 26.835938 -4.375 29.894531 -5.828125 31.96875 -8.734375 C 34.050781 -11.640625 35.09375 -16.453125 35.09375 -23.171875 C 35.09375 -29.898438 34.050781 -34.71875 31.96875 -37.625 C 29.894531 -40.53125 26.835938 -41.984375 22.796875 -41.984375 C 20.128906 -41.984375 17.882812 -41.367188 16.0625 -40.140625 C 14.25 -38.910156 12.863281 -36.910156 11.90625 -34.140625 C 10.945312 -31.378906 10.46875 -27.722656 10.46875 -23.171875 C 10.46875 -18.628906 10.945312 -14.972656 11.90625 -12.203125 C 12.863281 -9.429688 14.25 -7.429688 16.0625 -6.203125 C 17.882812 -4.984375 20.128906 -4.375 22.796875 -4.375 Z M 22.796875 -4.375 "/></g></g></g><g fill="#000000" fill-opacity="1"><g transform="translate(0.00000525, 661.216154)"><g><path d="M 43.4375 0 L 36.4375 0 L 30.96875 -14.15625 L 11.5625 -14.15625 L 6.5 0 L -0.0625 0 L 17.796875 -46.5 L 24.421875 -46.5 Z M 18.4375 -32.734375 L 13.375 -19.09375 L 29.09375 -19.09375 L 23.375 -34.421875 C 22.6875 -36.234375 21.882812 -38.632812 20.96875 -41.625 C 20.96875 -41.40625 20.707031 -40.3125 20.1875 -38.34375 C 19.675781 -36.375 19.09375 -34.503906 18.4375 -32.734375 Z M 18.4375 -32.734375 "/></g></g></g><g fill="#000000" fill-opacity="1"><g transform="translate(43.278412, 661.216154)"><g><path d="M 18.4375 -34.421875 C 21.769531 -34.421875 24.582031 -33.5 26.875 -31.65625 C 29.175781 -29.8125 30.648438 -27.179688 31.296875 -23.765625 L 25.78125 -22.921875 C 25.300781 -24.953125 24.429688 -26.59375 23.171875 -27.84375 C 21.921875 -29.101562 20.238281 -29.734375 18.125 -29.734375 C 15.09375 -29.734375 12.707031 -28.648438 10.96875 -26.484375 C 9.238281 -24.328125 8.375 -21.171875 8.375 -17.015625 C 8.375 -12.773438 9.1875 -9.539062 10.8125 -7.3125 C 12.4375 -5.082031 14.765625 -3.96875 17.796875 -3.96875 C 20.265625 -3.96875 22.191406 -4.710938 23.578125 -6.203125 C 24.960938 -7.691406 25.847656 -9.738281 26.234375 -12.34375 L 31.890625 -11.625 C 31.273438 -7.726562 29.703125 -4.695312 27.171875 -2.53125 C 24.640625 -0.363281 21.515625 0.71875 17.796875 0.71875 C 12.984375 0.71875 9.234375 -0.847656 6.546875 -3.984375 C 3.867188 -7.128906 2.53125 -11.554688 2.53125 -17.265625 C 2.53125 -22.640625 3.945312 -26.84375 6.78125 -29.875 C 9.625 -32.90625 13.507812 -34.421875 18.4375 -34.421875 Z M 18.4375 -34.421875 "/></g></g></g><g fill="#000000" fill-opacity="1"><g transform="translate(75.721004, 661.216154)"><g><path d="M 18.4375 -34.421875 C 21.769531 -34.421875 24.582031 -33.5 26.875 -31.65625 C 29.175781 -29.8125 30.648438 -27.179688 31.296875 -23.765625 L 25.78125 -22.921875 C 25.300781 -24.953125 24.429688 -26.59375 23.171875 -27.84375 C 21.921875 -29.101562 20.238281 -29.734375 18.125 -29.734375 C 15.09375 -29.734375 12.707031 -28.648438 10.96875 -26.484375 C 9.238281 -24.328125 8.375 -21.171875 8.375 -17.015625 C 8.375 -12.773438 9.1875 -9.539062 10.8125 -7.3125 C 12.4375 -5.082031 14.765625 -3.96875 17.796875 -3.96875 C 20.265625 -3.96875 22.191406 -4.710938 23.578125 -6.203125 C 24.960938 -7.691406 25.847656 -9.738281 26.234375 -12.34375 L 31.890625 -11.625 C 31.273438 -7.726562 29.703125 -4.695312 27.171875 -2.53125 C 24.640625 -0.363281 21.515625 0.71875 17.796875 0.71875 C 12.984375 0.71875 9.234375 -0.847656 6.546875 -3.984375 C 3.867188 -7.128906 2.53125 -11.554688 2.53125 -17.265625 C 2.53125 -22.640625 3.945312 -26.84375 6.78125 -29.875 C 9.625 -32.90625 13.507812 -34.421875 18.4375 -34.421875 Z M 18.4375 -34.421875 "/></g></g></g><g fill="#000000" fill-opacity="1"><g transform="translate(108.163597, 661.216154)"><g><path d="M 18.25 -34.421875 C 21.5 -34.421875 24.28125 -33.648438 26.59375 -32.109375 C 28.90625 -30.578125 30.644531 -28.507812 31.8125 -25.90625 C 32.988281 -23.3125 33.578125 -20.410156 33.578125 -17.203125 L 33.578125 -15.390625 L 8.4375 -15.390625 C 8.613281 -11.796875 9.628906 -8.992188 11.484375 -6.984375 C 13.347656 -4.972656 15.734375 -3.96875 18.640625 -3.96875 C 20.847656 -3.96875 22.675781 -4.550781 24.125 -5.71875 C 25.570312 -6.882812 26.6875 -8.59375 27.46875 -10.84375 L 33.375 -10.125 C 32.46875 -6.75 30.75 -4.097656 28.21875 -2.171875 C 25.6875 -0.242188 22.578125 0.71875 18.890625 0.71875 C 13.742188 0.71875 9.726562 -0.796875 6.84375 -3.828125 C 3.96875 -6.859375 2.53125 -11.101562 2.53125 -16.5625 C 2.53125 -20.195312 3.175781 -23.351562 4.46875 -26.03125 C 5.769531 -28.71875 7.597656 -30.785156 9.953125 -32.234375 C 12.316406 -33.691406 15.082031 -34.421875 18.25 -34.421875 Z M 8.765625 -20.125 L 27.53125 -20.125 C 27.40625 -23.332031 26.421875 -25.734375 24.578125 -27.328125 C 22.734375 -28.929688 20.625 -29.734375 18.25 -29.734375 C 15.5625 -29.734375 13.363281 -28.820312 11.65625 -27 C 9.945312 -25.1875 8.984375 -22.894531 8.765625 -20.125 Z M 8.765625 -20.125 "/></g></g></g><g fill="#000000" fill-opacity="1"><g transform="translate(144.239744, 661.216154)"><g><path d="M 15.453125 -34.421875 C 19.265625 -34.421875 22.335938 -33.628906 24.671875 -32.046875 C 27.015625 -30.460938 28.359375 -28.113281 28.703125 -25 L 23.125 -24.21875 C 22.863281 -25.90625 22.144531 -27.242188 20.96875 -28.234375 C 19.800781 -29.234375 18.070312 -29.734375 15.78125 -29.734375 C 13.488281 -29.734375 11.703125 -29.34375 10.421875 -28.5625 C 9.140625 -27.789062 8.5 -26.710938 8.5 -25.328125 C 8.5 -24.367188 8.878906 -23.578125 9.640625 -22.953125 C 10.398438 -22.328125 11.296875 -21.851562 12.328125 -21.53125 C 13.367188 -21.207031 14.953125 -20.785156 17.078125 -20.265625 C 19.804688 -19.609375 22.023438 -18.957031 23.734375 -18.3125 C 25.441406 -17.664062 26.910156 -16.671875 28.140625 -15.328125 C 29.378906 -13.984375 30 -12.1875 30 -9.9375 C 30 -7.988281 29.457031 -6.203125 28.375 -4.578125 C 27.289062 -2.953125 25.742188 -1.660156 23.734375 -0.703125 C 21.722656 0.242188 19.414062 0.71875 16.8125 0.71875 C 12.3125 0.71875 8.867188 -0.164062 6.484375 -1.9375 C 4.109375 -3.71875 2.617188 -6.425781 2.015625 -10.0625 L 7.65625 -10.90625 C 7.96875 -8.613281 8.890625 -6.882812 10.421875 -5.71875 C 11.960938 -4.550781 13.941406 -3.96875 16.359375 -3.96875 C 18.828125 -3.96875 20.742188 -4.472656 22.109375 -5.484375 C 23.472656 -6.503906 24.15625 -7.769531 24.15625 -9.28125 C 24.15625 -10.707031 23.472656 -11.765625 22.109375 -12.453125 C 20.742188 -13.148438 18.65625 -13.828125 15.84375 -14.484375 C 13.070312 -15.128906 10.851562 -15.765625 9.1875 -16.390625 C 7.519531 -17.023438 6.066406 -18.007812 4.828125 -19.34375 C 3.597656 -20.6875 2.984375 -22.484375 2.984375 -24.734375 C 2.984375 -26.554688 3.46875 -28.203125 4.4375 -29.671875 C 5.414062 -31.148438 6.847656 -32.3125 8.734375 -33.15625 C 10.617188 -34 12.859375 -34.421875 15.453125 -34.421875 Z M 15.453125 -34.421875 "/></g></g></g><g fill="#000000" fill-opacity="1"><g transform="translate(176.682337, 661.216154)"><g><path d="M 15.453125 -34.421875 C 19.265625 -34.421875 22.335938 -33.628906 24.671875 -32.046875 C 27.015625 -30.460938 28.359375 -28.113281 28.703125 -25 L 23.125 -24.21875 C 22.863281 -25.90625 22.144531 -27.242188 20.96875 -28.234375 C 19.800781 -29.234375 18.070312 -29.734375 15.78125 -29.734375 C 13.488281 -29.734375 11.703125 -29.34375 10.421875 -28.5625 C 9.140625 -27.789062 8.5 -26.710938 8.5 -25.328125 C 8.5 -24.367188 8.878906 -23.578125 9.640625 -22.953125 C 10.398438 -22.328125 11.296875 -21.851562 12.328125 -21.53125 C 13.367188 -21.207031 14.953125 -20.785156 17.078125 -20.265625 C 19.804688 -19.609375 22.023438 -18.957031 23.734375 -18.3125 C 25.441406 -17.664062 26.910156 -16.671875 28.140625 -15.328125 C 29.378906 -13.984375 30 -12.1875 30 -9.9375 C 30 -7.988281 29.457031 -6.203125 28.375 -4.578125 C 27.289062 -2.953125 25.742188 -1.660156 23.734375 -0.703125 C 21.722656 0.242188 19.414062 0.71875 16.8125 0.71875 C 12.3125 0.71875 8.867188 -0.164062 6.484375 -1.9375 C 4.109375 -3.71875 2.617188 -6.425781 2.015625 -10.0625 L 7.65625 -10.90625 C 7.96875 -8.613281 8.890625 -6.882812 10.421875 -5.71875 C 11.960938 -4.550781 13.941406 -3.96875 16.359375 -3.96875 C 18.828125 -3.96875 20.742188 -4.472656 22.109375 -5.484375 C 23.472656 -6.503906 24.15625 -7.769531 24.15625 -9.28125 C 24.15625 -10.707031 23.472656 -11.765625 22.109375 -12.453125 C 20.742188 -13.148438 18.65625 -13.828125 15.84375 -14.484375 C 13.070312 -15.128906 10.851562 -15.765625 9.1875 -16.390625 C 7.519531 -17.023438 6.066406 -18.007812 4.828125 -19.34375 C 3.597656 -20.6875 2.984375 -22.484375 2.984375 -24.734375 C 2.984375 -26.554688 3.46875 -28.203125 4.4375 -29.671875 C 5.414062 -31.148438 6.847656 -32.3125 8.734375 -33.15625 C 10.617188 -34 12.859375 -34.421875 15.453125 -34.421875 Z M 15.453125 -34.421875 "/></g></g></g><g fill="#000000" fill-opacity="1"><g transform="translate(209.124929, 661.216154)"><g/></g></g><g fill="#000000" fill-opacity="1"><g transform="translate(227.163003, 661.216154)"><g><path d="M 10.96875 -33.640625 L 16.6875 -33.640625 L 16.6875 -29.359375 L 10.96875 -29.359375 L 10.96875 -8.5 C 10.96875 -7.03125 11.171875 -5.992188 11.578125 -5.390625 C 11.992188 -4.785156 12.851562 -4.484375 14.15625 -4.484375 C 14.457031 -4.484375 15.300781 -4.59375 16.6875 -4.8125 L 17.53125 0.265625 C 15.800781 0.609375 14.394531 0.78125 13.3125 0.78125 C 11.101562 0.78125 9.414062 0.425781 8.25 -0.28125 C 7.082031 -1 6.289062 -1.992188 5.875 -3.265625 C 5.46875 -4.546875 5.265625 -6.207031 5.265625 -8.25 L 5.265625 -29.359375 L 1.109375 -29.359375 L 1.109375 -33.640625 L 5.265625 -33.640625 L 5.265625 -42.015625 L 10.96875 -45.453125 Z M 10.96875 -33.640625 "/></g></g></g><g fill="#000000" fill-opacity="1"><g transform="translate(245.201076, 661.216154)"><g><path d="M 18.046875 -34.421875 C 20.609375 -34.421875 23.085938 -33.859375 25.484375 -32.734375 C 27.890625 -31.609375 29.878906 -29.734375 31.453125 -27.109375 C 33.035156 -24.492188 33.828125 -21.0625 33.828125 -16.8125 C 33.828125 -13.050781 33.15625 -9.859375 31.8125 -7.234375 C 30.476562 -4.617188 28.617188 -2.640625 26.234375 -1.296875 C 23.847656 0.046875 21.117188 0.71875 18.046875 0.71875 C 13.546875 0.71875 9.867188 -0.6875 7.015625 -3.5 C 3.847656 -6.582031 2.265625 -11.019531 2.265625 -16.8125 C 2.265625 -20.582031 2.9375 -23.785156 4.28125 -26.421875 C 5.625 -29.066406 7.484375 -31.0625 9.859375 -32.40625 C 12.242188 -33.75 14.972656 -34.421875 18.046875 -34.421875 Z M 8.125 -16.8125 C 8.125 -12.75 9.019531 -9.59375 10.8125 -7.34375 C 12.601562 -5.09375 15.015625 -3.96875 18.046875 -3.96875 C 21.035156 -3.96875 23.4375 -5.082031 25.25 -7.3125 C 27.070312 -9.539062 27.984375 -12.707031 27.984375 -16.8125 C 27.984375 -20.800781 27.09375 -23.953125 25.3125 -26.265625 C 23.539062 -28.578125 21.097656 -29.734375 17.984375 -29.734375 C 15.046875 -29.734375 12.664062 -28.597656 10.84375 -26.328125 C 9.03125 -24.054688 8.125 -20.882812 8.125 -16.8125 Z M 8.125 -16.8125 "/></g></g></g><g fill="#000000" fill-opacity="1"><g transform="translate(281.277223, 661.216154)"><g/></g></g><g fill="#000000" fill-opacity="1"><g transform="translate(299.315296, 661.216154)"><g><path d="M 10.96875 -33.640625 L 16.6875 -33.640625 L 16.6875 -29.359375 L 10.96875 -29.359375 L 10.96875 -8.5 C 10.96875 -7.03125 11.171875 -5.992188 11.578125 -5.390625 C 11.992188 -4.785156 12.851562 -4.484375 14.15625 -4.484375 C 14.457031 -4.484375 15.300781 -4.59375 16.6875 -4.8125 L 17.53125 0.265625 C 15.800781 0.609375 14.394531 0.78125 13.3125 0.78125 C 11.101562 0.78125 9.414062 0.425781 8.25 -0.28125 C 7.082031 -1 6.289062 -1.992188 5.875 -3.265625 C 5.46875 -4.546875 5.265625 -6.207031 5.265625 -8.25 L 5.265625 -29.359375 L 1.109375 -29.359375 L 1.109375 -33.640625 L 5.265625 -33.640625 L 5.265625 -42.015625 L 10.96875 -45.453125 Z M 10.96875 -33.640625 "/></g></g></g><g fill="#000000" fill-opacity="1"><g transform="translate(317.35337, 661.216154)"><g><path d="M 10.0625 -29.8125 C 11.363281 -31.320312 12.835938 -32.46875 14.484375 -33.25 C 16.128906 -34.03125 18.035156 -34.421875 20.203125 -34.421875 C 22.015625 -34.421875 23.65625 -34.140625 25.125 -33.578125 C 26.601562 -33.015625 27.835938 -32.253906 28.828125 -31.296875 C 29.867188 -30.304688 30.625 -29.050781 31.09375 -27.53125 C 31.570312 -26.019531 31.8125 -24.070312 31.8125 -21.6875 L 31.8125 0 L 26.109375 0 L 26.109375 -21.5625 C 26.109375 -24.113281 25.5 -26.070312 24.28125 -27.4375 C 23.070312 -28.800781 21.273438 -29.484375 18.890625 -29.484375 C 17.160156 -29.484375 15.515625 -28.992188 13.953125 -28.015625 C 12.398438 -27.046875 11.320312 -25.695312 10.71875 -23.96875 C 10.28125 -22.664062 10.0625 -21 10.0625 -18.96875 L 10.0625 0 L 4.34375 0 L 4.34375 -46.5 L 10.0625 -46.5 Z M 10.0625 -29.8125 "/></g></g></g><g fill="#000000" fill-opacity="1"><g transform="translate(353.429517, 661.216154)"><g><path d="M 10.0625 -40 L 4.34375 -40 L 4.34375 -46.5 L 10.0625 -46.5 Z M 10.0625 0 L 4.34375 0 L 4.34375 -33.640625 L 10.0625 -33.640625 Z M 10.0625 0 "/></g></g></g><g fill="#000000" fill-opacity="1"><g transform="translate(367.834036, 661.216154)"><g><path d="M 15.453125 -34.421875 C 19.265625 -34.421875 22.335938 -33.628906 24.671875 -32.046875 C 27.015625 -30.460938 28.359375 -28.113281 28.703125 -25 L 23.125 -24.21875 C 22.863281 -25.90625 22.144531 -27.242188 20.96875 -28.234375 C 19.800781 -29.234375 18.070312 -29.734375 15.78125 -29.734375 C 13.488281 -29.734375 11.703125 -29.34375 10.421875 -28.5625 C 9.140625 -27.789062 8.5 -26.710938 8.5 -25.328125 C 8.5 -24.367188 8.878906 -23.578125 9.640625 -22.953125 C 10.398438 -22.328125 11.296875 -21.851562 12.328125 -21.53125 C 13.367188 -21.207031 14.953125 -20.785156 17.078125 -20.265625 C 19.804688 -19.609375 22.023438 -18.957031 23.734375 -18.3125 C 25.441406 -17.664062 26.910156 -16.671875 28.140625 -15.328125 C 29.378906 -13.984375 30 -12.1875 30 -9.9375 C 30 -7.988281 29.457031 -6.203125 28.375 -4.578125 C 27.289062 -2.953125 25.742188 -1.660156 23.734375 -0.703125 C 21.722656 0.242188 19.414062 0.71875 16.8125 0.71875 C 12.3125 0.71875 8.867188 -0.164062 6.484375 -1.9375 C 4.109375 -3.71875 2.617188 -6.425781 2.015625 -10.0625 L 7.65625 -10.90625 C 7.96875 -8.613281 8.890625 -6.882812 10.421875 -5.71875 C 11.960938 -4.550781 13.941406 -3.96875 16.359375 -3.96875 C 18.828125 -3.96875 20.742188 -4.472656 22.109375 -5.484375 C 23.472656 -6.503906 24.15625 -7.769531 24.15625 -9.28125 C 24.15625 -10.707031 23.472656 -11.765625 22.109375 -12.453125 C 20.742188 -13.148438 18.65625 -13.828125 15.84375 -14.484375 C 13.070312 -15.128906 10.851562 -15.765625 9.1875 -16.390625 C 7.519531 -17.023438 6.066406 -18.007812 4.828125 -19.34375 C 3.597656 -20.6875 2.984375 -22.484375 2.984375 -24.734375 C 2.984375 -26.554688 3.46875 -28.203125 4.4375 -29.671875 C 5.414062 -31.148438 6.847656 -32.3125 8.734375 -33.15625 C 10.617188 -34 12.859375 -34.421875 15.453125 -34.421875 Z M 15.453125 -34.421875 "/></g></g></g><g fill="#000000" fill-opacity="1"><g transform="translate(400.276629, 661.216154)"><g/></g></g><g fill="#000000" fill-opacity="1"><g transform="translate(418.314702, 661.216154)"><g><path d="M 10.0625 0 L 4.34375 0 L 4.34375 -46.5 L 10.0625 -46.5 Z M 10.0625 0 "/></g></g></g><g fill="#000000" fill-opacity="1"><g transform="translate(432.719221, 661.216154)"><g><path d="M 18.4375 -34.421875 C 21.207031 -34.421875 23.445312 -34.148438 25.15625 -33.609375 C 26.875 -33.066406 28.226562 -32.273438 29.21875 -31.234375 C 30.175781 -30.234375 30.828125 -29.128906 31.171875 -27.921875 C 31.515625 -26.710938 31.6875 -25.113281 31.6875 -23.125 L 31.6875 -9.546875 C 31.6875 -5.171875 32.289062 -1.988281 33.5 0 L 27.53125 0 C 26.96875 -1.164062 26.578125 -2.550781 26.359375 -4.15625 C 24.285156 -2.425781 22.265625 -1.171875 20.296875 -0.390625 C 18.328125 0.390625 16.28125 0.78125 14.15625 0.78125 C 10.519531 0.78125 7.660156 -0.101562 5.578125 -1.875 C 3.503906 -3.65625 2.46875 -5.992188 2.46875 -8.890625 C 2.46875 -10.410156 2.8125 -11.875 3.5 -13.28125 C 4.195312 -14.6875 5.148438 -15.78125 6.359375 -16.5625 C 7.660156 -17.425781 8.984375 -18.050781 10.328125 -18.4375 C 11.671875 -18.832031 13.316406 -19.132812 15.265625 -19.34375 C 17.335938 -19.5625 19.398438 -19.851562 21.453125 -20.21875 C 23.515625 -20.59375 25.019531 -20.972656 25.96875 -21.359375 L 25.96875 -22.796875 C 25.96875 -25.085938 25.351562 -26.816406 24.125 -27.984375 C 22.894531 -29.148438 20.785156 -29.734375 17.796875 -29.734375 C 14.984375 -29.734375 12.957031 -29.234375 11.71875 -28.234375 C 10.488281 -27.242188 9.59375 -25.601562 9.03125 -23.3125 L 3.4375 -24.03125 C 4.21875 -27.664062 5.851562 -30.304688 8.34375 -31.953125 C 10.832031 -33.597656 14.195312 -34.421875 18.4375 -34.421875 Z M 17.796875 -14.9375 C 15.585938 -14.59375 13.882812 -14.253906 12.6875 -13.921875 C 11.5 -13.597656 10.515625 -13.054688 9.734375 -12.296875 C 8.960938 -11.546875 8.578125 -10.457031 8.578125 -9.03125 C 8.578125 -7.34375 9.191406 -6.03125 10.421875 -5.09375 C 11.648438 -4.164062 13.394531 -3.703125 15.65625 -3.703125 C 16.945312 -3.703125 18.347656 -3.972656 19.859375 -4.515625 C 21.378906 -5.054688 22.703125 -6 23.828125 -7.34375 C 24.566406 -8.207031 25.109375 -9.179688 25.453125 -10.265625 C 25.796875 -11.347656 25.96875 -12.734375 25.96875 -14.421875 L 25.96875 -16.890625 C 24.238281 -16.191406 21.515625 -15.539062 17.796875 -14.9375 Z M 17.796875 -14.9375 "/></g></g></g><g fill="#000000" fill-opacity="1"><g transform="translate(468.795368, 661.216154)"><g><path d="M 10.0625 -29.875 C 12.445312 -32.90625 15.519531 -34.421875 19.28125 -34.421875 C 22.050781 -34.421875 24.519531 -33.71875 26.6875 -32.3125 C 28.851562 -30.90625 30.539062 -28.929688 31.75 -26.390625 C 32.96875 -23.859375 33.578125 -20.925781 33.578125 -17.59375 C 33.578125 -13.738281 32.925781 -10.425781 31.625 -7.65625 C 30.320312 -4.882812 28.554688 -2.796875 26.328125 -1.390625 C 24.097656 0.015625 21.644531 0.71875 18.96875 0.71875 C 16.800781 0.71875 14.925781 0.222656 13.34375 -0.765625 C 11.757812 -1.765625 10.535156 -2.914062 9.671875 -4.21875 L 9.671875 0 L 4.34375 0 L 4.34375 -46.5 L 10.0625 -46.5 Z M 9.609375 -16.8125 C 9.609375 -15.039062 9.671875 -13.722656 9.796875 -12.859375 C 9.929688 -11.992188 10.148438 -11.082031 10.453125 -10.125 C 11.273438 -7.832031 12.453125 -6.234375 13.984375 -5.328125 C 15.523438 -4.421875 17.03125 -3.96875 18.5 -3.96875 C 21.320312 -3.96875 23.566406 -5.125 25.234375 -7.4375 C 26.898438 -9.75 27.734375 -13.113281 27.734375 -17.53125 C 27.734375 -21.125 26.921875 -24.054688 25.296875 -26.328125 C 23.671875 -28.597656 21.472656 -29.734375 18.703125 -29.734375 C 17.054688 -29.734375 15.539062 -29.234375 14.15625 -28.234375 C 12.769531 -27.242188 11.664062 -25.773438 10.84375 -23.828125 C 10.019531 -21.878906 9.609375 -19.539062 9.609375 -16.8125 Z M 9.609375 -16.8125 "/></g></g></g><g fill="#000000" fill-opacity="1"><g transform="translate(504.871515, 661.216154)"><g><path d="M 18.046875 -34.421875 C 20.609375 -34.421875 23.085938 -33.859375 25.484375 -32.734375 C 27.890625 -31.609375 29.878906 -29.734375 31.453125 -27.109375 C 33.035156 -24.492188 33.828125 -21.0625 33.828125 -16.8125 C 33.828125 -13.050781 33.15625 -9.859375 31.8125 -7.234375 C 30.476562 -4.617188 28.617188 -2.640625 26.234375 -1.296875 C 23.847656 0.046875 21.117188 0.71875 18.046875 0.71875 C 13.546875 0.71875 9.867188 -0.6875 7.015625 -3.5 C 3.847656 -6.582031 2.265625 -11.019531 2.265625 -16.8125 C 2.265625 -20.582031 2.9375 -23.785156 4.28125 -26.421875 C 5.625 -29.066406 7.484375 -31.0625 9.859375 -32.40625 C 12.242188 -33.75 14.972656 -34.421875 18.046875 -34.421875 Z M 8.125 -16.8125 C 8.125 -12.75 9.019531 -9.59375 10.8125 -7.34375 C 12.601562 -5.09375 15.015625 -3.96875 18.046875 -3.96875 C 21.035156 -3.96875 23.4375 -5.082031 25.25 -7.3125 C 27.070312 -9.539062 27.984375 -12.707031 27.984375 -16.8125 C 27.984375 -20.800781 27.09375 -23.953125 25.3125 -26.265625 C 23.539062 -28.578125 21.097656 -29.734375 17.984375 -29.734375 C 15.046875 -29.734375 12.664062 -28.597656 10.84375 -26.328125 C 9.03125 -24.054688 8.125 -20.882812 8.125 -16.8125 Z M 8.125 -16.8125 "/></g></g></g><g fill="#000000" fill-opacity="1"><g transform="translate(540.947662, 661.216154)"><g><path d="M 16.6875 -34.421875 C 18.632812 -34.421875 20.5625 -33.8125 22.46875 -32.59375 L 20.515625 -27.34375 C 19.128906 -28.164062 17.679688 -28.578125 16.171875 -28.578125 C 14.003906 -28.578125 12.410156 -27.585938 11.390625 -25.609375 C 10.378906 -23.640625 9.875 -21.097656 9.875 -17.984375 L 9.875 0 L 4.15625 0 L 4.15625 -33.640625 L 9.28125 -33.640625 L 9.28125 -28.578125 C 10.363281 -30.523438 11.4375 -31.984375 12.5 -32.953125 C 13.5625 -33.929688 14.957031 -34.421875 16.6875 -34.421875 Z M 16.6875 -34.421875 "/></g></g></g><g fill="#000000" fill-opacity="1"><g transform="translate(562.554441, 661.216154)"><g><path d="M 18.4375 -34.421875 C 21.207031 -34.421875 23.445312 -34.148438 25.15625 -33.609375 C 26.875 -33.066406 28.226562 -32.273438 29.21875 -31.234375 C 30.175781 -30.234375 30.828125 -29.128906 31.171875 -27.921875 C 31.515625 -26.710938 31.6875 -25.113281 31.6875 -23.125 L 31.6875 -9.546875 C 31.6875 -5.171875 32.289062 -1.988281 33.5 0 L 27.53125 0 C 26.96875 -1.164062 26.578125 -2.550781 26.359375 -4.15625 C 24.285156 -2.425781 22.265625 -1.171875 20.296875 -0.390625 C 18.328125 0.390625 16.28125 0.78125 14.15625 0.78125 C 10.519531 0.78125 7.660156 -0.101562 5.578125 -1.875 C 3.503906 -3.65625 2.46875 -5.992188 2.46875 -8.890625 C 2.46875 -10.410156 2.8125 -11.875 3.5 -13.28125 C 4.195312 -14.6875 5.148438 -15.78125 6.359375 -16.5625 C 7.660156 -17.425781 8.984375 -18.050781 10.328125 -18.4375 C 11.671875 -18.832031 13.316406 -19.132812 15.265625 -19.34375 C 17.335938 -19.5625 19.398438 -19.851562 21.453125 -20.21875 C 23.515625 -20.59375 25.019531 -20.972656 25.96875 -21.359375 L 25.96875 -22.796875 C 25.96875 -25.085938 25.351562 -26.816406 24.125 -27.984375 C 22.894531 -29.148438 20.785156 -29.734375 17.796875 -29.734375 C 14.984375 -29.734375 12.957031 -29.234375 11.71875 -28.234375 C 10.488281 -27.242188 9.59375 -25.601562 9.03125 -23.3125 L 3.4375 -24.03125 C 4.21875 -27.664062 5.851562 -30.304688 8.34375 -31.953125 C 10.832031 -33.597656 14.195312 -34.421875 18.4375 -34.421875 Z M 17.796875 -14.9375 C 15.585938 -14.59375 13.882812 -14.253906 12.6875 -13.921875 C 11.5 -13.597656 10.515625 -13.054688 9.734375 -12.296875 C 8.960938 -11.546875 8.578125 -10.457031 8.578125 -9.03125 C 8.578125 -7.34375 9.191406 -6.03125 10.421875 -5.09375 C 11.648438 -4.164062 13.394531 -3.703125 15.65625 -3.703125 C 16.945312 -3.703125 18.347656 -3.972656 19.859375 -4.515625 C 21.378906 -5.054688 22.703125 -6 23.828125 -7.34375 C 24.566406 -8.207031 25.109375 -9.179688 25.453125 -10.265625 C 25.796875 -11.347656 25.96875 -12.734375 25.96875 -14.421875 L 25.96875 -16.890625 C 24.238281 -16.191406 21.515625 -15.539062 17.796875 -14.9375 Z M 17.796875 -14.9375 "/></g></g></g><g fill="#000000" fill-opacity="1"><g transform="translate(598.630588, 661.216154)"><g><path d="M 10.96875 -33.640625 L 16.6875 -33.640625 L 16.6875 -29.359375 L 10.96875 -29.359375 L 10.96875 -8.5 C 10.96875 -7.03125 11.171875 -5.992188 11.578125 -5.390625 C 11.992188 -4.785156 12.851562 -4.484375 14.15625 -4.484375 C 14.457031 -4.484375 15.300781 -4.59375 16.6875 -4.8125 L 17.53125 0.265625 C 15.800781 0.609375 14.394531 0.78125 13.3125 0.78125 C 11.101562 0.78125 9.414062 0.425781 8.25 -0.28125 C 7.082031 -1 6.289062 -1.992188 5.875 -3.265625 C 5.46875 -4.546875 5.265625 -6.207031 5.265625 -8.25 L 5.265625 -29.359375 L 1.109375 -29.359375 L 1.109375 -33.640625 L 5.265625 -33.640625 L 5.265625 -42.015625 L 10.96875 -45.453125 Z M 10.96875 -33.640625 "/></g></g></g><g fill="#000000" fill-opacity="1"><g transform="translate(616.668662, 661.216154)"><g><path d="M 18.046875 -34.421875 C 20.609375 -34.421875 23.085938 -33.859375 25.484375 -32.734375 C 27.890625 -31.609375 29.878906 -29.734375 31.453125 -27.109375 C 33.035156 -24.492188 33.828125 -21.0625 33.828125 -16.8125 C 33.828125 -13.050781 33.15625 -9.859375 31.8125 -7.234375 C 30.476562 -4.617188 28.617188 -2.640625 26.234375 -1.296875 C 23.847656 0.046875 21.117188 0.71875 18.046875 0.71875 C 13.546875 0.71875 9.867188 -0.6875 7.015625 -3.5 C 3.847656 -6.582031 2.265625 -11.019531 2.265625 -16.8125 C 2.265625 -20.582031 2.9375 -23.785156 4.28125 -26.421875 C 5.625 -29.066406 7.484375 -31.0625 9.859375 -32.40625 C 12.242188 -33.75 14.972656 -34.421875 18.046875 -34.421875 Z M 8.125 -16.8125 C 8.125 -12.75 9.019531 -9.59375 10.8125 -7.34375 C 12.601562 -5.09375 15.015625 -3.96875 18.046875 -3.96875 C 21.035156 -3.96875 23.4375 -5.082031 25.25 -7.3125 C 27.070312 -9.539062 27.984375 -12.707031 27.984375 -16.8125 C 27.984375 -20.800781 27.09375 -23.953125 25.3125 -26.265625 C 23.539062 -28.578125 21.097656 -29.734375 17.984375 -29.734375 C 15.046875 -29.734375 12.664062 -28.597656 10.84375 -26.328125 C 9.03125 -24.054688 8.125 -20.882812 8.125 -16.8125 Z M 8.125 -16.8125 "/></g></g></g><g fill="#000000" fill-opacity="1"><g transform="translate(652.744808, 661.216154)"><g><path d="M 16.6875 -34.421875 C 18.632812 -34.421875 20.5625 -33.8125 22.46875 -32.59375 L 20.515625 -27.34375 C 19.128906 -28.164062 17.679688 -28.578125 16.171875 -28.578125 C 14.003906 -28.578125 12.410156 -27.585938 11.390625 -25.609375 C 10.378906 -23.640625 9.875 -21.097656 9.875 -17.984375 L 9.875 0 L 4.15625 0 L 4.15625 -33.640625 L 9.28125 -33.640625 L 9.28125 -28.578125 C 10.363281 -30.523438 11.4375 -31.984375 12.5 -32.953125 C 13.5625 -33.929688 14.957031 -34.421875 16.6875 -34.421875 Z M 16.6875 -34.421875 "/></g></g></g><g fill="#000000" fill-opacity="1"><g transform="translate(674.351588, 661.216154)"><g><path d="M 14.28125 -13.96875 C 15.238281 -11.195312 16.019531 -8.660156 16.625 -6.359375 C 17.269531 -8.910156 18.003906 -11.316406 18.828125 -13.578125 L 26.171875 -33.640625 L 31.890625 -33.640625 L 19.09375 0.578125 C 17.875 3.828125 16.832031 6.304688 15.96875 8.015625 C 15.101562 9.722656 14.019531 11.085938 12.71875 12.109375 C 11.425781 13.128906 9.765625 13.640625 7.734375 13.640625 C 6.390625 13.640625 5.15625 13.421875 4.03125 12.984375 L 3.375 7.59375 C 4.757812 7.945312 5.882812 8.125 6.75 8.125 C 8.09375 8.125 9.15625 7.882812 9.9375 7.40625 C 10.71875 6.925781 11.300781 6.296875 11.6875 5.515625 C 12.070312 4.734375 12.570312 3.5 13.1875 1.8125 L 13.828125 0.0625 L 1.03125 -33.640625 L 7.203125 -33.640625 Z M 14.28125 -13.96875 "/></g></g></g><g fill="#000000" fill-opacity="1"><g transform="translate(706.79418, 661.216154)"><g/></g></g><g fill="#000000" fill-opacity="1"><g transform="translate(724.832254, 661.216154)"><g><path d="M 10.0625 -40 L 4.34375 -40 L 4.34375 -46.5 L 10.0625 -46.5 Z M 10.0625 0 L 4.34375 0 L 4.34375 -33.640625 L 10.0625 -33.640625 Z M 10.0625 0 "/></g></g></g><g fill="#000000" fill-opacity="1"><g transform="translate(739.236773, 661.216154)"><g><path d="M 15.453125 -34.421875 C 19.265625 -34.421875 22.335938 -33.628906 24.671875 -32.046875 C 27.015625 -30.460938 28.359375 -28.113281 28.703125 -25 L 23.125 -24.21875 C 22.863281 -25.90625 22.144531 -27.242188 20.96875 -28.234375 C 19.800781 -29.234375 18.070312 -29.734375 15.78125 -29.734375 C 13.488281 -29.734375 11.703125 -29.34375 10.421875 -28.5625 C 9.140625 -27.789062 8.5 -26.710938 8.5 -25.328125 C 8.5 -24.367188 8.878906 -23.578125 9.640625 -22.953125 C 10.398438 -22.328125 11.296875 -21.851562 12.328125 -21.53125 C 13.367188 -21.207031 14.953125 -20.785156 17.078125 -20.265625 C 19.804688 -19.609375 22.023438 -18.957031 23.734375 -18.3125 C 25.441406 -17.664062 26.910156 -16.671875 28.140625 -15.328125 C 29.378906 -13.984375 30 -12.1875 30 -9.9375 C 30 -7.988281 29.457031 -6.203125 28.375 -4.578125 C 27.289062 -2.953125 25.742188 -1.660156 23.734375 -0.703125 C 21.722656 0.242188 19.414062 0.71875 16.8125 0.71875 C 12.3125 0.71875 8.867188 -0.164062 6.484375 -1.9375 C 4.109375 -3.71875 2.617188 -6.425781 2.015625 -10.0625 L 7.65625 -10.90625 C 7.96875 -8.613281 8.890625 -6.882812 10.421875 -5.71875 C 11.960938 -4.550781 13.941406 -3.96875 16.359375 -3.96875 C 18.828125 -3.96875 20.742188 -4.472656 22.109375 -5.484375 C 23.472656 -6.503906 24.15625 -7.769531 24.15625 -9.28125 C 24.15625 -10.707031 23.472656 -11.765625 22.109375 -12.453125 C 20.742188 -13.148438 18.65625 -13.828125 15.84375 -14.484375 C 13.070312 -15.128906 10.851562 -15.765625 9.1875 -16.390625 C 7.519531 -17.023438 6.066406 -18.007812 4.828125 -19.34375 C 3.597656 -20.6875 2.984375 -22.484375 2.984375 -24.734375 C 2.984375 -26.554688 3.46875 -28.203125 4.4375 -29.671875 C 5.414062 -31.148438 6.847656 -32.3125 8.734375 -33.15625 C 10.617188 -34 12.859375 -34.421875 15.453125 -34.421875 Z M 15.453125 -34.421875 "/></g></g></g><g fill="#000000" fill-opacity="1"><g transform="translate(771.679365, 661.216154)"><g/></g></g><g fill="#000000" fill-opacity="1"><g transform="translate(789.717439, 661.216154)"><g><path d="M 10.0625 -29.875 C 12.445312 -32.90625 15.519531 -34.421875 19.28125 -34.421875 C 22.050781 -34.421875 24.519531 -33.71875 26.6875 -32.3125 C 28.851562 -30.90625 30.539062 -28.929688 31.75 -26.390625 C 32.96875 -23.859375 33.578125 -20.925781 33.578125 -17.59375 C 33.578125 -13.738281 32.925781 -10.425781 31.625 -7.65625 C 30.320312 -4.882812 28.554688 -2.796875 26.328125 -1.390625 C 24.097656 0.015625 21.644531 0.71875 18.96875 0.71875 C 16.800781 0.71875 14.925781 0.222656 13.34375 -0.765625 C 11.757812 -1.765625 10.535156 -2.914062 9.671875 -4.21875 L 9.671875 0 L 4.34375 0 L 4.34375 -46.5 L 10.0625 -46.5 Z M 9.609375 -16.8125 C 9.609375 -15.039062 9.671875 -13.722656 9.796875 -12.859375 C 9.929688 -11.992188 10.148438 -11.082031 10.453125 -10.125 C 11.273438 -7.832031 12.453125 -6.234375 13.984375 -5.328125 C 15.523438 -4.421875 17.03125 -3.96875 18.5 -3.96875 C 21.320312 -3.96875 23.566406 -5.125 25.234375 -7.4375 C 26.898438 -9.75 27.734375 -13.113281 27.734375 -17.53125 C 27.734375 -21.125 26.921875 -24.054688 25.296875 -26.328125 C 23.671875 -28.597656 21.472656 -29.734375 18.703125 -29.734375 C 17.054688 -29.734375 15.539062 -29.234375 14.15625 -28.234375 C 12.769531 -27.242188 11.664062 -25.773438 10.84375 -23.828125 C 10.019531 -21.878906 9.609375 -19.539062 9.609375 -16.8125 Z M 9.609375 -16.8125 "/></g></g></g><g fill="#000000" fill-opacity="1"><g transform="translate(825.793586, 661.216154)"><g><path d="M 14.28125 -13.96875 C 15.238281 -11.195312 16.019531 -8.660156 16.625 -6.359375 C 17.269531 -8.910156 18.003906 -11.316406 18.828125 -13.578125 L 26.171875 -33.640625 L 31.890625 -33.640625 L 19.09375 0.578125 C 17.875 3.828125 16.832031 6.304688 15.96875 8.015625 C 15.101562 9.722656 14.019531 11.085938 12.71875 12.109375 C 11.425781 13.128906 9.765625 13.640625 7.734375 13.640625 C 6.390625 13.640625 5.15625 13.421875 4.03125 12.984375 L 3.375 7.59375 C 4.757812 7.945312 5.882812 8.125 6.75 8.125 C 8.09375 8.125 9.15625 7.882812 9.9375 7.40625 C 10.71875 6.925781 11.300781 6.296875 11.6875 5.515625 C 12.070312 4.734375 12.570312 3.5 13.1875 1.8125 L 13.828125 0.0625 L 1.03125 -33.640625 L 7.203125 -33.640625 Z M 14.28125 -13.96875 "/></g></g></g><g fill="#000000" fill-opacity="1"><g transform="translate(858.236178, 661.216154)"><g/></g></g><g fill="#000000" fill-opacity="1"><g transform="translate(876.274252, 661.216154)"><g><path d="M 15.453125 -34.421875 C 19.265625 -34.421875 22.335938 -33.628906 24.671875 -32.046875 C 27.015625 -30.460938 28.359375 -28.113281 28.703125 -25 L 23.125 -24.21875 C 22.863281 -25.90625 22.144531 -27.242188 20.96875 -28.234375 C 19.800781 -29.234375 18.070312 -29.734375 15.78125 -29.734375 C 13.488281 -29.734375 11.703125 -29.34375 10.421875 -28.5625 C 9.140625 -27.789062 8.5 -26.710938 8.5 -25.328125 C 8.5 -24.367188 8.878906 -23.578125 9.640625 -22.953125 C 10.398438 -22.328125 11.296875 -21.851562 12.328125 -21.53125 C 13.367188 -21.207031 14.953125 -20.785156 17.078125 -20.265625 C 19.804688 -19.609375 22.023438 -18.957031 23.734375 -18.3125 C 25.441406 -17.664062 26.910156 -16.671875 28.140625 -15.328125 C 29.378906 -13.984375 30 -12.1875 30 -9.9375 C 30 -7.988281 29.457031 -6.203125 28.375 -4.578125 C 27.289062 -2.953125 25.742188 -1.660156 23.734375 -0.703125 C 21.722656 0.242188 19.414062 0.71875 16.8125 0.71875 C 12.3125 0.71875 8.867188 -0.164062 6.484375 -1.9375 C 4.109375 -3.71875 2.617188 -6.425781 2.015625 -10.0625 L 7.65625 -10.90625 C 7.96875 -8.613281 8.890625 -6.882812 10.421875 -5.71875 C 11.960938 -4.550781 13.941406 -3.96875 16.359375 -3.96875 C 18.828125 -3.96875 20.742188 -4.472656 22.109375 -5.484375 C 23.472656 -6.503906 24.15625 -7.769531 24.15625 -9.28125 C 24.15625 -10.707031 23.472656 -11.765625 22.109375 -12.453125 C 20.742188 -13.148438 18.65625 -13.828125 15.84375 -14.484375 C 13.070312 -15.128906 10.851562 -15.765625 9.1875 -16.390625 C 7.519531 -17.023438 6.066406 -18.007812 4.828125 -19.34375 C 3.597656 -20.6875 2.984375 -22.484375 2.984375 -24.734375 C 2.984375 -26.554688 3.46875 -28.203125 4.4375 -29.671875 C 5.414062 -31.148438 6.847656 -32.3125 8.734375 -33.15625 C 10.617188 -34 12.859375 -34.421875 15.453125 -34.421875 Z M 15.453125 -34.421875 "/></g></g></g><g fill="#000000" fill-opacity="1"><g transform="translate(908.716845, 661.216154)"><g><path d="M 18.25 -34.421875 C 21.5 -34.421875 24.28125 -33.648438 26.59375 -32.109375 C 28.90625 -30.578125 30.644531 -28.507812 31.8125 -25.90625 C 32.988281 -23.3125 33.578125 -20.410156 33.578125 -17.203125 L 33.578125 -15.390625 L 8.4375 -15.390625 C 8.613281 -11.796875 9.628906 -8.992188 11.484375 -6.984375 C 13.347656 -4.972656 15.734375 -3.96875 18.640625 -3.96875 C 20.847656 -3.96875 22.675781 -4.550781 24.125 -5.71875 C 25.570312 -6.882812 26.6875 -8.59375 27.46875 -10.84375 L 33.375 -10.125 C 32.46875 -6.75 30.75 -4.097656 28.21875 -2.171875 C 25.6875 -0.242188 22.578125 0.71875 18.890625 0.71875 C 13.742188 0.71875 9.726562 -0.796875 6.84375 -3.828125 C 3.96875 -6.859375 2.53125 -11.101562 2.53125 -16.5625 C 2.53125 -20.195312 3.175781 -23.351562 4.46875 -26.03125 C 5.769531 -28.71875 7.597656 -30.785156 9.953125 -32.234375 C 12.316406 -33.691406 15.082031 -34.421875 18.25 -34.421875 Z M 8.765625 -20.125 L 27.53125 -20.125 C 27.40625 -23.332031 26.421875 -25.734375 24.578125 -27.328125 C 22.734375 -28.929688 20.625 -29.734375 18.25 -29.734375 C 15.5625 -29.734375 13.363281 -28.820312 11.65625 -27 C 9.945312 -25.1875 8.984375 -22.894531 8.765625 -20.125 Z M 8.765625 -20.125 "/></g></g></g><g fill="#000000" fill-opacity="1"><g transform="translate(944.792991, 661.216154)"><g><path d="M 18.4375 -34.421875 C 21.207031 -34.421875 23.445312 -34.148438 25.15625 -33.609375 C 26.875 -33.066406 28.226562 -32.273438 29.21875 -31.234375 C 30.175781 -30.234375 30.828125 -29.128906 31.171875 -27.921875 C 31.515625 -26.710938 31.6875 -25.113281 31.6875 -23.125 L 31.6875 -9.546875 C 31.6875 -5.171875 32.289062 -1.988281 33.5 0 L 27.53125 0 C 26.96875 -1.164062 26.578125 -2.550781 26.359375 -4.15625 C 24.285156 -2.425781 22.265625 -1.171875 20.296875 -0.390625 C 18.328125 0.390625 16.28125 0.78125 14.15625 0.78125 C 10.519531 0.78125 7.660156 -0.101562 5.578125 -1.875 C 3.503906 -3.65625 2.46875 -5.992188 2.46875 -8.890625 C 2.46875 -10.410156 2.8125 -11.875 3.5 -13.28125 C 4.195312 -14.6875 5.148438 -15.78125 6.359375 -16.5625 C 7.660156 -17.425781 8.984375 -18.050781 10.328125 -18.4375 C 11.671875 -18.832031 13.316406 -19.132812 15.265625 -19.34375 C 17.335938 -19.5625 19.398438 -19.851562 21.453125 -20.21875 C 23.515625 -20.59375 25.019531 -20.972656 25.96875 -21.359375 L 25.96875 -22.796875 C 25.96875 -25.085938 25.351562 -26.816406 24.125 -27.984375 C 22.894531 -29.148438 20.785156 -29.734375 17.796875 -29.734375 C 14.984375 -29.734375 12.957031 -29.234375 11.71875 -28.234375 C 10.488281 -27.242188 9.59375 -25.601562 9.03125 -23.3125 L 3.4375 -24.03125 C 4.21875 -27.664062 5.851562 -30.304688 8.34375 -31.953125 C 10.832031 -33.597656 14.195312 -34.421875 18.4375 -34.421875 Z M 17.796875 -14.9375 C 15.585938 -14.59375 13.882812 -14.253906 12.6875 -13.921875 C 11.5 -13.597656 10.515625 -13.054688 9.734375 -12.296875 C 8.960938 -11.546875 8.578125 -10.457031 8.578125 -9.03125 C 8.578125 -7.34375 9.191406 -6.03125 10.421875 -5.09375 C 11.648438 -4.164062 13.394531 -3.703125 15.65625 -3.703125 C 16.945312 -3.703125 18.347656 -3.972656 19.859375 -4.515625 C 21.378906 -5.054688 22.703125 -6 23.828125 -7.34375 C 24.566406 -8.207031 25.109375 -9.179688 25.453125 -10.265625 C 25.796875 -11.347656 25.96875 -12.734375 25.96875 -14.421875 L 25.96875 -16.890625 C 24.238281 -16.191406 21.515625 -15.539062 17.796875 -14.9375 Z M 17.796875 -14.9375 "/></g></g></g><g fill="#000000" fill-opacity="1"><g transform="translate(980.869138, 661.216154)"><g/></g></g><g fill="#000000" fill-opacity="1"><g transform="translate(998.907212, 661.216154)"><g><path d="M 12.59375 -36.171875 L 10.96875 -11.5625 L 7.265625 -11.5625 L 5.515625 -36.171875 L 5.515625 -46.5 L 12.59375 -46.5 Z M 12.34375 0 L 5.84375 0 L 5.84375 -6.5 L 12.34375 -6.5 Z M 12.34375 0 "/></g></g></g></svg>