<svg xmlns="http://www.w3.org/2000/svg" xmlns:xlink="http://www.w3.org/1999/xlink" width="1620" zoomAndPan="magnify" viewBox="0 0 1215 809.999993" height="1080" preserveAspectRatio="xMidYMid meet" version="1.0"><defs><g/></defs><g fill="#000000" fill-opacity="1"><g transform="translate(0.00000525, 70.743654)"><g><path d="M 18.796875 -37.59375 L 43.3125 -37.59375 L 43.3125 -62.03125 L 55.78125 -62.03125 L 55.78125 0 L 43.3125 0 L 43.3125 -27.109375 L 18.796875 -27.109375 L 18.796875 0 L 6.328125 0 L 6.328125 -62.03125 L 18.796875 -62.03125 Z M 18.796875 -37.59375 "/></g></g></g><g fill="#000000" fill-opacity="1"><g transform="translate(62.534845, 70.743654)"><g><path d="M 23.390625 -45.90625 C 30.546875 -45.90625 35.882812 -43.582031 39.40625 -38.9375 C 42.9375 -34.289062 44.703125 -27.664062 44.703125 -19.0625 L 14.90625 -19.0625 C 15.019531 -16.050781 15.898438 -13.460938 17.546875 -11.296875 C 19.191406 -9.140625 21.570312 -8.0625 24.6875 -8.0625 C 26.65625 -8.0625 28.257812 -8.566406 29.5 -9.578125 C 30.738281 -10.585938 31.644531 -12.160156 32.21875 -14.296875 L 44.09375 -12.296875 C 42.59375 -7.910156 40.164062 -4.585938 36.8125 -2.328125 C 33.46875 -0.078125 29.367188 1.046875 24.515625 1.046875 C 17.296875 1.046875 11.835938 -1.117188 8.140625 -5.453125 C 6.410156 -7.472656 5.082031 -10.015625 4.15625 -13.078125 C 3.226562 -16.140625 2.765625 -19.171875 2.765625 -22.171875 C 2.765625 -26.273438 3.5 -30.128906 4.96875 -33.734375 C 6.445312 -37.347656 8.726562 -40.28125 11.8125 -42.53125 C 14.90625 -44.78125 18.765625 -45.90625 23.390625 -45.90625 Z M 15.15625 -26.328125 L 32.921875 -26.328125 C 32.859375 -29.972656 31.945312 -32.628906 30.1875 -34.296875 C 28.425781 -35.972656 26.363281 -36.8125 24 -36.8125 C 21.226562 -36.8125 19.0625 -35.816406 17.5 -33.828125 C 15.9375 -31.835938 15.15625 -29.335938 15.15625 -26.328125 Z M 15.15625 -26.328125 "/></g></g></g><g fill="#000000" fill-opacity="1"><g transform="translate(110.691867, 70.743654)"><g><path d="M 23.734375 -45.90625 C 29.453125 -45.90625 33.695312 -45.171875 36.46875 -43.703125 C 39.238281 -42.234375 40.984375 -40.296875 41.703125 -37.890625 C 42.429688 -35.492188 42.765625 -32.332031 42.703125 -28.40625 L 42.625 -15.328125 C 42.5625 -11.234375 42.703125 -8.257812 43.046875 -6.40625 C 43.398438 -4.5625 44.125 -2.425781 45.21875 0 L 33.53125 0 C 33.238281 -0.632812 32.71875 -2.28125 31.96875 -4.9375 C 29.832031 -2.851562 27.625 -1.332031 25.34375 -0.375 C 23.0625 0.570312 20.617188 1.046875 18.015625 1.046875 C 13.566406 1.046875 9.972656 -0.179688 7.234375 -2.640625 C 4.492188 -5.097656 3.125 -8.289062 3.125 -12.21875 C 3.125 -15.507812 3.945312 -18.117188 5.59375 -20.046875 C 7.238281 -21.984375 9.242188 -23.382812 11.609375 -24.25 C 13.972656 -25.113281 16.773438 -25.863281 20.015625 -26.5 C 24.972656 -27.425781 28.640625 -28.351562 31.015625 -29.28125 L 31.015625 -31.1875 C 31.015625 -33.144531 30.4375 -34.570312 29.28125 -35.46875 C 28.125 -36.363281 26.015625 -36.8125 22.953125 -36.8125 C 20.585938 -36.8125 18.828125 -36.332031 17.671875 -35.375 C 16.515625 -34.425781 15.648438 -33.03125 15.078125 -31.1875 L 4.328125 -33.171875 C 5.484375 -37.566406 7.5625 -40.785156 10.5625 -42.828125 C 13.570312 -44.878906 17.960938 -45.90625 23.734375 -45.90625 Z M 23.5625 -19.65625 L 21.5625 -19.234375 C 17.175781 -18.304688 14.984375 -16.398438 14.984375 -13.515625 C 14.984375 -11.785156 15.601562 -10.328125 16.84375 -9.140625 C 18.09375 -7.953125 19.664062 -7.359375 21.5625 -7.359375 C 23.125 -7.359375 24.6875 -7.757812 26.25 -8.5625 C 27.8125 -9.375 29.023438 -10.445312 29.890625 -11.78125 C 30.640625 -12.988281 31.015625 -15.066406 31.015625 -18.015625 L 31.015625 -21.5625 C 28.765625 -20.875 26.28125 -20.238281 23.5625 -19.65625 Z M 23.5625 -19.65625 "/></g></g></g><g fill="#000000" fill-opacity="1"><g transform="translate(158.84889, 70.743654)"><g><path d="M 47.390625 -62.03125 L 47.390625 0 L 36.296875 0 L 36.296875 -6.578125 L 36.125 -6.578125 C 34.21875 -3.691406 31.976562 -1.695312 29.40625 -0.59375 C 26.832031 0.5 24.476562 1.046875 22.34375 1.046875 C 19.050781 1.046875 15.972656 0.148438 13.109375 -1.640625 C 10.253906 -3.429688 7.945312 -6.117188 6.1875 -9.703125 C 4.425781 -13.285156 3.546875 -17.675781 3.546875 -22.875 C 3.546875 -27.894531 4.394531 -32.132812 6.09375 -35.59375 C 7.800781 -39.0625 10.082031 -41.644531 12.9375 -43.34375 C 15.800781 -45.050781 18.96875 -45.90625 22.4375 -45.90625 C 27.519531 -45.90625 31.878906 -43.828125 35.515625 -39.671875 L 35.515625 -62.03125 Z M 15.765625 -22.34375 C 15.765625 -17.382812 16.703125 -13.820312 18.578125 -11.65625 C 20.453125 -9.488281 22.660156 -8.40625 25.203125 -8.40625 C 26.765625 -8.40625 28.335938 -8.804688 29.921875 -9.609375 C 31.515625 -10.421875 32.890625 -11.953125 34.046875 -14.203125 C 35.085938 -16.222656 35.609375 -19.285156 35.609375 -23.390625 C 35.609375 -27.722656 34.679688 -31.039062 32.828125 -33.34375 C 30.984375 -35.65625 28.554688 -36.8125 25.546875 -36.8125 L 25.125 -36.8125 C 21.769531 -36.644531 19.367188 -35.1875 17.921875 -32.4375 C 16.484375 -29.695312 15.765625 -26.332031 15.765625 -22.34375 Z M 15.765625 -22.34375 "/></g></g></g><g fill="#000000" fill-opacity="1"><g transform="translate(211.769663, 70.743654)"><g><path d="M 22.609375 -45.90625 C 24.628906 -45.90625 26.9375 -45.34375 29.53125 -44.21875 C 32.132812 -43.09375 34.414062 -41.113281 36.375 -38.28125 L 36.5625 -38.28125 L 36.5625 -44.875 L 47.640625 -44.875 L 47.640625 17.0625 L 35.78125 17.0625 L 35.78125 -5.203125 C 32.132812 -1.035156 27.773438 1.046875 22.703125 1.046875 C 19.234375 1.046875 16.066406 0.191406 13.203125 -1.515625 C 10.347656 -3.222656 8.066406 -5.804688 6.359375 -9.265625 C 4.660156 -12.734375 3.8125 -16.976562 3.8125 -22 C 3.8125 -27.195312 4.691406 -31.585938 6.453125 -35.171875 C 8.210938 -38.753906 10.519531 -41.4375 13.375 -43.21875 C 16.238281 -45.007812 19.316406 -45.90625 22.609375 -45.90625 Z M 16.03125 -22.515625 C 16.03125 -18.421875 16.789062 -14.988281 18.3125 -12.21875 C 19.84375 -9.445312 22.375 -8.0625 25.90625 -8.0625 C 28.789062 -8.0625 31.171875 -9.1875 33.046875 -11.4375 C 34.921875 -13.6875 35.859375 -17.035156 35.859375 -21.484375 C 35.859375 -25.117188 35.457031 -27.921875 34.65625 -29.890625 C 33.664062 -32.253906 32.316406 -33.941406 30.609375 -34.953125 C 28.910156 -35.960938 27.164062 -36.46875 25.375 -36.46875 C 22.832031 -36.46875 20.640625 -35.34375 18.796875 -33.09375 C 16.953125 -30.84375 16.03125 -27.316406 16.03125 -22.515625 Z M 16.03125 -22.515625 "/></g></g></g><g fill="#000000" fill-opacity="1"><g transform="translate(264.690437, 70.743654)"><g><path d="M 17.84375 -21.828125 C 17.84375 -18.648438 17.914062 -16.335938 18.0625 -14.890625 C 18.207031 -13.453125 18.507812 -12.300781 18.96875 -11.4375 C 19.488281 -10.457031 20.28125 -9.648438 21.34375 -9.015625 C 22.414062 -8.378906 23.734375 -8.0625 25.296875 -8.0625 C 27.367188 -8.0625 29.242188 -8.632812 30.921875 -9.78125 C 32.597656 -10.9375 33.664062 -12.351562 34.125 -14.03125 C 34.644531 -15.707031 34.90625 -19.289062 34.90625 -24.78125 L 34.90625 -44.875 L 46.78125 -44.875 L 46.78125 0 L 35.78125 0 L 35.78125 -6.75 L 35.609375 -6.75 C 33.929688 -4.207031 31.765625 -2.269531 29.109375 -0.9375 C 26.453125 0.382812 23.707031 1.046875 20.875 1.046875 C 18.332031 1.046875 15.921875 0.523438 13.640625 -0.515625 C 11.359375 -1.554688 9.613281 -3.0625 8.40625 -5.03125 C 7.539062 -6.414062 6.921875 -7.941406 6.546875 -9.609375 C 6.171875 -11.285156 5.984375 -13.394531 5.984375 -15.9375 L 5.984375 -44.875 L 17.84375 -44.875 Z M 17.84375 -21.828125 "/></g></g></g><g fill="#000000" fill-opacity="1"><g transform="translate(317.61121, 70.743654)"><g><path d="M 23.734375 -45.90625 C 29.453125 -45.90625 33.695312 -45.171875 36.46875 -43.703125 C 39.238281 -42.234375 40.984375 -40.296875 41.703125 -37.890625 C 42.429688 -35.492188 42.765625 -32.332031 42.703125 -28.40625 L 42.625 -15.328125 C 42.5625 -11.234375 42.703125 -8.257812 43.046875 -6.40625 C 43.398438 -4.5625 44.125 -2.425781 45.21875 0 L 33.53125 0 C 33.238281 -0.632812 32.71875 -2.28125 31.96875 -4.9375 C 29.832031 -2.851562 27.625 -1.332031 25.34375 -0.375 C 23.0625 0.570312 20.617188 1.046875 18.015625 1.046875 C 13.566406 1.046875 9.972656 -0.179688 7.234375 -2.640625 C 4.492188 -5.097656 3.125 -8.289062 3.125 -12.21875 C 3.125 -15.507812 3.945312 -18.117188 5.59375 -20.046875 C 7.238281 -21.984375 9.242188 -23.382812 11.609375 -24.25 C 13.972656 -25.113281 16.773438 -25.863281 20.015625 -26.5 C 24.972656 -27.425781 28.640625 -28.351562 31.015625 -29.28125 L 31.015625 -31.1875 C 31.015625 -33.144531 30.4375 -34.570312 29.28125 -35.46875 C 28.125 -36.363281 26.015625 -36.8125 22.953125 -36.8125 C 20.585938 -36.8125 18.828125 -36.332031 17.671875 -35.375 C 16.515625 -34.425781 15.648438 -33.03125 15.078125 -31.1875 L 4.328125 -33.171875 C 5.484375 -37.566406 7.5625 -40.785156 10.5625 -42.828125 C 13.570312 -44.878906 17.960938 -45.90625 23.734375 -45.90625 Z M 23.5625 -19.65625 L 21.5625 -19.234375 C 17.175781 -18.304688 14.984375 -16.398438 14.984375 -13.515625 C 14.984375 -11.785156 15.601562 -10.328125 16.84375 -9.140625 C 18.09375 -7.953125 19.664062 -7.359375 21.5625 -7.359375 C 23.125 -7.359375 24.6875 -7.757812 26.25 -8.5625 C 27.8125 -9.375 29.023438 -10.445312 29.890625 -11.78125 C 30.640625 -12.988281 31.015625 -15.066406 31.015625 -18.015625 L 31.015625 -21.5625 C 28.765625 -20.875 26.28125 -20.238281 23.5625 -19.65625 Z M 23.5625 -19.65625 "/></g></g></g><g fill="#000000" fill-opacity="1"><g transform="translate(365.768221, 70.743654)"><g><path d="M 18.71875 -44.875 L 26.765625 -44.875 L 26.765625 -35.421875 L 18.71875 -35.421875 L 18.71875 -15.671875 C 18.71875 -13.773438 18.785156 -12.363281 18.921875 -11.4375 C 19.066406 -10.507812 19.367188 -9.84375 19.828125 -9.4375 C 20.296875 -9.03125 21.019531 -8.828125 22 -8.828125 C 23.21875 -8.828125 24.804688 -9.207031 26.765625 -9.96875 L 27.8125 -0.78125 C 26.59375 -0.195312 25.117188 0.25 23.390625 0.5625 C 21.660156 0.882812 20.015625 1.046875 18.453125 1.046875 C 16.203125 1.046875 14.207031 0.671875 12.46875 -0.078125 C 10.738281 -0.835938 9.46875 -1.851562 8.65625 -3.125 C 7.789062 -4.5625 7.253906 -6.160156 7.046875 -7.921875 C 6.847656 -9.679688 6.75 -11.890625 6.75 -14.546875 L 6.75 -35.421875 L 1.296875 -35.421875 L 1.296875 -44.875 L 6.75 -44.875 L 6.75 -53.796875 L 18.71875 -60.8125 Z M 18.71875 -44.875 "/></g></g></g><g fill="#000000" fill-opacity="1"><g transform="translate(394.61049, 70.743654)"><g><path d="M 23.390625 -45.90625 C 30.546875 -45.90625 35.882812 -43.582031 39.40625 -38.9375 C 42.9375 -34.289062 44.703125 -27.664062 44.703125 -19.0625 L 14.90625 -19.0625 C 15.019531 -16.050781 15.898438 -13.460938 17.546875 -11.296875 C 19.191406 -9.140625 21.570312 -8.0625 24.6875 -8.0625 C 26.65625 -8.0625 28.257812 -8.566406 29.5 -9.578125 C 30.738281 -10.585938 31.644531 -12.160156 32.21875 -14.296875 L 44.09375 -12.296875 C 42.59375 -7.910156 40.164062 -4.585938 36.8125 -2.328125 C 33.46875 -0.078125 29.367188 1.046875 24.515625 1.046875 C 17.296875 1.046875 11.835938 -1.117188 8.140625 -5.453125 C 6.410156 -7.472656 5.082031 -10.015625 4.15625 -13.078125 C 3.226562 -16.140625 2.765625 -19.171875 2.765625 -22.171875 C 2.765625 -26.273438 3.5 -30.128906 4.96875 -33.734375 C 6.445312 -37.347656 8.726562 -40.28125 11.8125 -42.53125 C 14.90625 -44.78125 18.765625 -45.90625 23.390625 -45.90625 Z M 15.15625 -26.328125 L 32.921875 -26.328125 C 32.859375 -29.972656 31.945312 -32.628906 30.1875 -34.296875 C 28.425781 -35.972656 26.363281 -36.8125 24 -36.8125 C 21.226562 -36.8125 19.0625 -35.816406 17.5 -33.828125 C 15.9375 -31.835938 15.15625 -29.335938 15.15625 -26.328125 Z M 15.15625 -26.328125 "/></g></g></g><g fill="#000000" fill-opacity="1"><g transform="translate(442.7675, 70.743654)"><g><path d="M 27.03125 -45.90625 C 28.300781 -45.90625 29.640625 -45.703125 31.046875 -45.296875 C 32.460938 -44.898438 33.722656 -44.382812 34.828125 -43.75 L 31.09375 -33.34375 C 29.070312 -34.613281 27.222656 -35.25 25.546875 -35.25 C 23.296875 -35.25 21.59375 -34.484375 20.4375 -32.953125 C 19.289062 -31.429688 18.523438 -29.296875 18.140625 -26.546875 C 17.765625 -23.804688 17.578125 -20.15625 17.578125 -15.59375 L 17.578125 0 L 5.71875 0 L 5.71875 -44.875 L 16.71875 -44.875 L 16.71875 -38.546875 L 16.890625 -38.546875 C 18.335938 -40.972656 19.78125 -42.804688 21.21875 -44.046875 C 22.664062 -45.285156 24.601562 -45.90625 27.03125 -45.90625 Z M 27.03125 -45.90625 "/></g></g></g><g fill="#000000" fill-opacity="1"><g transform="translate(476.460095, 70.743654)"><g/></g></g><g fill="#000000" fill-opacity="1"><g transform="translate(500.5386, 70.743654)"><g><path d="M 28.9375 -63.0625 C 32.394531 -63.0625 35.421875 -62.441406 38.015625 -61.203125 C 40.617188 -59.960938 42.613281 -58.269531 44 -56.125 C 45.382812 -53.988281 46.078125 -51.59375 46.078125 -48.9375 C 46.078125 -45.9375 45.164062 -43.335938 43.34375 -41.140625 C 41.53125 -38.953125 38.660156 -36.613281 34.734375 -34.125 L 43.40625 -22.703125 C 43.863281 -23.503906 44.351562 -24.613281 44.875 -26.03125 C 45.394531 -27.445312 45.769531 -28.703125 46 -29.796875 L 56.734375 -27.375 C 55.703125 -23.625 54.78125 -20.851562 53.96875 -19.0625 C 53.15625 -17.269531 52.289062 -15.796875 51.375 -14.640625 C 52.925781 -13.140625 54.800781 -11.640625 57 -10.140625 C 59.195312 -8.640625 60.582031 -7.800781 61.15625 -7.625 L 53.96875 1.640625 C 52.519531 1.003906 50.753906 -0.0625 48.671875 -1.5625 C 46.597656 -3.0625 44.984375 -4.390625 43.828125 -5.546875 C 41.578125 -3.410156 39.035156 -1.765625 36.203125 -0.609375 C 33.378906 0.546875 29.914062 1.125 25.8125 1.125 C 20.382812 1.125 16.023438 0.144531 12.734375 -1.8125 C 9.441406 -3.78125 7.128906 -6.148438 5.796875 -8.921875 C 4.472656 -11.691406 3.8125 -14.378906 3.8125 -16.984375 C 3.8125 -20.328125 4.820312 -23.671875 6.84375 -27.015625 C 8.863281 -30.367188 12.585938 -33.375 18.015625 -36.03125 C 13.742188 -40.882812 11.609375 -45.421875 11.609375 -49.640625 C 11.609375 -52.179688 12.300781 -54.460938 13.6875 -56.484375 C 15.070312 -58.503906 17.078125 -60.101562 19.703125 -61.28125 C 22.335938 -62.46875 25.414062 -63.0625 28.9375 -63.0625 Z M 23.21875 -49.984375 C 23.21875 -48.597656 24.140625 -46.78125 25.984375 -44.53125 L 28.59375 -41.5 C 30.726562 -42.707031 32.429688 -43.898438 33.703125 -45.078125 C 34.972656 -46.265625 35.609375 -47.640625 35.609375 -49.203125 C 35.609375 -50.585938 35.070312 -51.84375 34 -52.96875 C 32.925781 -54.09375 31.296875 -54.65625 29.109375 -54.65625 C 27.253906 -54.65625 25.804688 -54.175781 24.765625 -53.21875 C 23.734375 -52.269531 23.21875 -51.191406 23.21875 -49.984375 Z M 16.03125 -17.40625 C 16.03125 -14.976562 16.820312 -12.925781 18.40625 -11.25 C 20 -9.582031 22.296875 -8.75 25.296875 -8.75 C 27.492188 -8.75 29.425781 -9.164062 31.09375 -10 C 32.769531 -10.84375 34.503906 -11.984375 36.296875 -13.421875 L 24.171875 -28.40625 C 21.398438 -26.90625 19.347656 -25.203125 18.015625 -23.296875 C 16.691406 -21.390625 16.03125 -19.425781 16.03125 -17.40625 Z M 16.03125 -17.40625 "/></g></g></g><g fill="#000000" fill-opacity="1"><g transform="translate(563.073464, 70.743654)"><g/></g></g><g fill="#000000" fill-opacity="1"><g transform="translate(587.151969, 70.743654)"><g><path d="M 47.90625 -60.03125 C 50.5 -58.9375 52.660156 -57 54.390625 -54.21875 C 56.128906 -51.445312 57 -48.242188 57 -44.609375 C 57 -39.992188 55.566406 -36.109375 52.703125 -32.953125 C 49.847656 -29.804688 45.820312 -27.914062 40.625 -27.28125 C 42.875 -25.726562 44.59375 -24.445312 45.78125 -23.4375 C 46.96875 -22.425781 48.265625 -21.007812 49.671875 -19.1875 C 51.085938 -17.363281 52.835938 -14.78125 54.921875 -11.4375 L 62.03125 0 L 47.03125 0 L 36.984375 -15.078125 C 34.734375 -18.421875 32.988281 -20.800781 31.75 -22.21875 C 30.507812 -23.632812 29.195312 -24.601562 27.8125 -25.125 C 26.425781 -25.644531 24.460938 -25.90625 21.921875 -25.90625 L 18.796875 -25.90625 L 18.796875 0 L 6.328125 0 L 6.328125 -62.03125 L 33.4375 -62.03125 C 36.382812 -62.03125 39.054688 -61.898438 41.453125 -61.640625 C 43.847656 -61.378906 46 -60.84375 47.90625 -60.03125 Z M 39.0625 -36.46875 C 40.5625 -36.925781 41.773438 -37.789062 42.703125 -39.0625 C 43.628906 -40.332031 44.09375 -41.921875 44.09375 -43.828125 C 44.09375 -47.117188 42.675781 -49.398438 39.84375 -50.671875 C 39.09375 -51.023438 38.164062 -51.257812 37.0625 -51.375 C 35.96875 -51.488281 34.09375 -51.546875 31.4375 -51.546875 L 18.796875 -51.546875 L 18.796875 -35.78125 L 29.796875 -35.78125 C 34.304688 -35.78125 37.394531 -36.007812 39.0625 -36.46875 Z M 39.0625 -36.46875 "/></g></g></g><g fill="#000000" fill-opacity="1"><g transform="translate(649.686832, 70.743654)"><g><path d="M 23.390625 -45.90625 C 30.546875 -45.90625 35.882812 -43.582031 39.40625 -38.9375 C 42.9375 -34.289062 44.703125 -27.664062 44.703125 -19.0625 L 14.90625 -19.0625 C 15.019531 -16.050781 15.898438 -13.460938 17.546875 -11.296875 C 19.191406 -9.140625 21.570312 -8.0625 24.6875 -8.0625 C 26.65625 -8.0625 28.257812 -8.566406 29.5 -9.578125 C 30.738281 -10.585938 31.644531 -12.160156 32.21875 -14.296875 L 44.09375 -12.296875 C 42.59375 -7.910156 40.164062 -4.585938 36.8125 -2.328125 C 33.46875 -0.078125 29.367188 1.046875 24.515625 1.046875 C 17.296875 1.046875 11.835938 -1.117188 8.140625 -5.453125 C 6.410156 -7.472656 5.082031 -10.015625 4.15625 -13.078125 C 3.226562 -16.140625 2.765625 -19.171875 2.765625 -22.171875 C 2.765625 -26.273438 3.5 -30.128906 4.96875 -33.734375 C 6.445312 -37.347656 8.726562 -40.28125 11.8125 -42.53125 C 14.90625 -44.78125 18.765625 -45.90625 23.390625 -45.90625 Z M 15.15625 -26.328125 L 32.921875 -26.328125 C 32.859375 -29.972656 31.945312 -32.628906 30.1875 -34.296875 C 28.425781 -35.972656 26.363281 -36.8125 24 -36.8125 C 21.226562 -36.8125 19.0625 -35.816406 17.5 -33.828125 C 15.9375 -31.835938 15.15625 -29.335938 15.15625 -26.328125 Z M 15.15625 -26.328125 "/></g></g></g><g fill="#000000" fill-opacity="1"><g transform="translate(697.843843, 70.743654)"><g><path d="M 22.609375 -45.90625 C 28.210938 -45.90625 32.613281 -44.984375 35.8125 -43.140625 C 39.019531 -41.296875 41.234375 -38.265625 42.453125 -34.046875 L 31.1875 -31.96875 C 30.664062 -33.8125 29.722656 -35.179688 28.359375 -36.078125 C 27.003906 -36.972656 25.117188 -37.421875 22.703125 -37.421875 C 17.328125 -37.421875 14.640625 -36.179688 14.640625 -33.703125 C 14.640625 -32.484375 15.519531 -31.515625 17.28125 -30.796875 C 19.039062 -30.078125 21.597656 -29.34375 24.953125 -28.59375 C 29.046875 -27.664062 32.390625 -26.722656 34.984375 -25.765625 C 37.585938 -24.816406 39.726562 -23.40625 41.40625 -21.53125 C 43.082031 -19.65625 43.921875 -17.15625 43.921875 -14.03125 C 43.921875 -11.488281 43.210938 -9.078125 41.796875 -6.796875 C 40.378906 -4.515625 38.140625 -2.632812 35.078125 -1.15625 C 32.015625 0.3125 28.144531 1.046875 23.46875 1.046875 C 18.21875 1.046875 13.582031 -0.078125 9.5625 -2.328125 C 5.550781 -4.585938 3.03125 -8.085938 2 -12.828125 L 13.859375 -14.640625 C 14.953125 -9.847656 18.15625 -7.453125 23.46875 -7.453125 C 25.550781 -7.453125 27.5 -7.8125 29.3125 -8.53125 C 31.132812 -9.25 32.046875 -10.535156 32.046875 -12.390625 C 32.046875 -13.597656 31.628906 -14.445312 30.796875 -14.9375 C 29.960938 -15.425781 28.617188 -15.875 26.765625 -16.28125 C 21.273438 -17.5 17 -18.625 13.9375 -19.65625 C 10.882812 -20.695312 8.40625 -22.195312 6.5 -24.15625 C 4.59375 -26.125 3.640625 -28.785156 3.640625 -32.140625 C 3.640625 -36.816406 5.425781 -40.28125 9 -42.53125 C 12.582031 -44.78125 17.117188 -45.90625 22.609375 -45.90625 Z M 22.609375 -45.90625 "/></g></g></g><g fill="#000000" fill-opacity="1"><g transform="translate(746.000854, 70.743654)"><g><path d="M 18.71875 -44.875 L 26.765625 -44.875 L 26.765625 -35.421875 L 18.71875 -35.421875 L 18.71875 -15.671875 C 18.71875 -13.773438 18.785156 -12.363281 18.921875 -11.4375 C 19.066406 -10.507812 19.367188 -9.84375 19.828125 -9.4375 C 20.296875 -9.03125 21.019531 -8.828125 22 -8.828125 C 23.21875 -8.828125 24.804688 -9.207031 26.765625 -9.96875 L 27.8125 -0.78125 C 26.59375 -0.195312 25.117188 0.25 23.390625 0.5625 C 21.660156 0.882812 20.015625 1.046875 18.453125 1.046875 C 16.203125 1.046875 14.207031 0.671875 12.46875 -0.078125 C 10.738281 -0.835938 9.46875 -1.851562 8.65625 -3.125 C 7.789062 -4.5625 7.253906 -6.160156 7.046875 -7.921875 C 6.847656 -9.679688 6.75 -11.890625 6.75 -14.546875 L 6.75 -35.421875 L 1.296875 -35.421875 L 1.296875 -44.875 L 6.75 -44.875 L 6.75 -53.796875 L 18.71875 -60.8125 Z M 18.71875 -44.875 "/></g></g></g><g fill="#000000" fill-opacity="1"><g transform="translate(774.843077, 70.743654)"><g><path d="M 23.734375 -45.90625 C 29.453125 -45.90625 33.695312 -45.171875 36.46875 -43.703125 C 39.238281 -42.234375 40.984375 -40.296875 41.703125 -37.890625 C 42.429688 -35.492188 42.765625 -32.332031 42.703125 -28.40625 L 42.625 -15.328125 C 42.5625 -11.234375 42.703125 -8.257812 43.046875 -6.40625 C 43.398438 -4.5625 44.125 -2.425781 45.21875 0 L 33.53125 0 C 33.238281 -0.632812 32.71875 -2.28125 31.96875 -4.9375 C 29.832031 -2.851562 27.625 -1.332031 25.34375 -0.375 C 23.0625 0.570312 20.617188 1.046875 18.015625 1.046875 C 13.566406 1.046875 9.972656 -0.179688 7.234375 -2.640625 C 4.492188 -5.097656 3.125 -8.289062 3.125 -12.21875 C 3.125 -15.507812 3.945312 -18.117188 5.59375 -20.046875 C 7.238281 -21.984375 9.242188 -23.382812 11.609375 -24.25 C 13.972656 -25.113281 16.773438 -25.863281 20.015625 -26.5 C 24.972656 -27.425781 28.640625 -28.351562 31.015625 -29.28125 L 31.015625 -31.1875 C 31.015625 -33.144531 30.4375 -34.570312 29.28125 -35.46875 C 28.125 -36.363281 26.015625 -36.8125 22.953125 -36.8125 C 20.585938 -36.8125 18.828125 -36.332031 17.671875 -35.375 C 16.515625 -34.425781 15.648438 -33.03125 15.078125 -31.1875 L 4.328125 -33.171875 C 5.484375 -37.566406 7.5625 -40.785156 10.5625 -42.828125 C 13.570312 -44.878906 17.960938 -45.90625 23.734375 -45.90625 Z M 23.5625 -19.65625 L 21.5625 -19.234375 C 17.175781 -18.304688 14.984375 -16.398438 14.984375 -13.515625 C 14.984375 -11.785156 15.601562 -10.328125 16.84375 -9.140625 C 18.09375 -7.953125 19.664062 -7.359375 21.5625 -7.359375 C 23.125 -7.359375 24.6875 -7.757812 26.25 -8.5625 C 27.8125 -9.375 29.023438 -10.445312 29.890625 -11.78125 C 30.640625 -12.988281 31.015625 -15.066406 31.015625 -18.015625 L 31.015625 -21.5625 C 28.765625 -20.875 26.28125 -20.238281 23.5625 -19.65625 Z M 23.5625 -19.65625 "/></g></g></g><g fill="#000000" fill-opacity="1"><g transform="translate(823.000087, 70.743654)"><g><path d="M 17.84375 -21.828125 C 17.84375 -18.648438 17.914062 -16.335938 18.0625 -14.890625 C 18.207031 -13.453125 18.507812 -12.300781 18.96875 -11.4375 C 19.488281 -10.457031 20.28125 -9.648438 21.34375 -9.015625 C 22.414062 -8.378906 23.734375 -8.0625 25.296875 -8.0625 C 27.367188 -8.0625 29.242188 -8.632812 30.921875 -9.78125 C 32.597656 -10.9375 33.664062 -12.351562 34.125 -14.03125 C 34.644531 -15.707031 34.90625 -19.289062 34.90625 -24.78125 L 34.90625 -44.875 L 46.78125 -44.875 L 46.78125 0 L 35.78125 0 L 35.78125 -6.75 L 35.609375 -6.75 C 33.929688 -4.207031 31.765625 -2.269531 29.109375 -0.9375 C 26.453125 0.382812 23.707031 1.046875 20.875 1.046875 C 18.332031 1.046875 15.921875 0.523438 13.640625 -0.515625 C 11.359375 -1.554688 9.613281 -3.0625 8.40625 -5.03125 C 7.539062 -6.414062 6.921875 -7.941406 6.546875 -9.609375 C 6.171875 -11.285156 5.984375 -13.394531 5.984375 -15.9375 L 5.984375 -44.875 L 17.84375 -44.875 Z M 17.84375 -21.828125 "/></g></g></g><g fill="#000000" fill-opacity="1"><g transform="translate(875.920861, 70.743654)"><g><path d="M 27.03125 -45.90625 C 28.300781 -45.90625 29.640625 -45.703125 31.046875 -45.296875 C 32.460938 -44.898438 33.722656 -44.382812 34.828125 -43.75 L 31.09375 -33.34375 C 29.070312 -34.613281 27.222656 -35.25 25.546875 -35.25 C 23.296875 -35.25 21.59375 -34.484375 20.4375 -32.953125 C 19.289062 -31.429688 18.523438 -29.296875 18.140625 -26.546875 C 17.765625 -23.804688 17.578125 -20.15625 17.578125 -15.59375 L 17.578125 0 L 5.71875 0 L 5.71875 -44.875 L 16.71875 -44.875 L 16.71875 -38.546875 L 16.890625 -38.546875 C 18.335938 -40.972656 19.78125 -42.804688 21.21875 -44.046875 C 22.664062 -45.285156 24.601562 -45.90625 27.03125 -45.90625 Z M 27.03125 -45.90625 "/></g></g></g><g fill="#000000" fill-opacity="1"><g transform="translate(909.613456, 70.743654)"><g><path d="M 23.734375 -45.90625 C 29.453125 -45.90625 33.695312 -45.171875 36.46875 -43.703125 C 39.238281 -42.234375 40.984375 -40.296875 41.703125 -37.890625 C 42.429688 -35.492188 42.765625 -32.332031 42.703125 -28.40625 L 42.625 -15.328125 C 42.5625 -11.234375 42.703125 -8.257812 43.046875 -6.40625 C 43.398438 -4.5625 44.125 -2.425781 45.21875 0 L 33.53125 0 C 33.238281 -0.632812 32.71875 -2.28125 31.96875 -4.9375 C 29.832031 -2.851562 27.625 -1.332031 25.34375 -0.375 C 23.0625 0.570312 20.617188 1.046875 18.015625 1.046875 C 13.566406 1.046875 9.972656 -0.179688 7.234375 -2.640625 C 4.492188 -5.097656 3.125 -8.289062 3.125 -12.21875 C 3.125 -15.507812 3.945312 -18.117188 5.59375 -20.046875 C 7.238281 -21.984375 9.242188 -23.382812 11.609375 -24.25 C 13.972656 -25.113281 16.773438 -25.863281 20.015625 -26.5 C 24.972656 -27.425781 28.640625 -28.351562 31.015625 -29.28125 L 31.015625 -31.1875 C 31.015625 -33.144531 30.4375 -34.570312 29.28125 -35.46875 C 28.125 -36.363281 26.015625 -36.8125 22.953125 -36.8125 C 20.585938 -36.8125 18.828125 -36.332031 17.671875 -35.375 C 16.515625 -34.425781 15.648438 -33.03125 15.078125 -31.1875 L 4.328125 -33.171875 C 5.484375 -37.566406 7.5625 -40.785156 10.5625 -42.828125 C 13.570312 -44.878906 17.960938 -45.90625 23.734375 -45.90625 Z M 23.5625 -19.65625 L 21.5625 -19.234375 C 17.175781 -18.304688 14.984375 -16.398438 14.984375 -13.515625 C 14.984375 -11.785156 15.601562 -10.328125 16.84375 -9.140625 C 18.09375 -7.953125 19.664062 -7.359375 21.5625 -7.359375 C 23.125 -7.359375 24.6875 -7.757812 26.25 -8.5625 C 27.8125 -9.375 29.023438 -10.445312 29.890625 -11.78125 C 30.640625 -12.988281 31.015625 -15.066406 31.015625 -18.015625 L 31.015625 -21.5625 C 28.765625 -20.875 26.28125 -20.238281 23.5625 -19.65625 Z M 23.5625 -19.65625 "/></g></g></g><g fill="#000000" fill-opacity="1"><g transform="translate(957.770467, 70.743654)"><g><path d="M 32.046875 -45.90625 C 34.703125 -45.90625 37.007812 -45.457031 38.96875 -44.5625 C 40.9375 -43.664062 42.5 -42.613281 43.65625 -41.40625 C 45.039062 -39.90625 45.945312 -38.128906 46.375 -36.078125 C 46.8125 -34.023438 47.03125 -31.757812 47.03125 -29.28125 L 47.03125 0 L 35.171875 0 L 35.171875 -24.515625 C 35.171875 -28.671875 34.707031 -31.757812 33.78125 -33.78125 C 32.851562 -35.800781 30.890625 -36.8125 27.890625 -36.8125 C 25.066406 -36.8125 22.875 -36.003906 21.3125 -34.390625 C 19.75 -32.773438 18.820312 -30.898438 18.53125 -28.765625 C 18.363281 -27.378906 18.234375 -26.132812 18.140625 -25.03125 C 18.054688 -23.9375 18.015625 -22.695312 18.015625 -21.3125 L 18.015625 0 L 6.15625 0 L 6.15625 -44.875 L 17.40625 -44.875 L 17.40625 -38.28125 C 18.675781 -40.1875 20.566406 -41.929688 23.078125 -43.515625 C 25.597656 -45.109375 28.585938 -45.90625 32.046875 -45.90625 Z M 32.046875 -45.90625 "/></g></g></g><g fill="#000000" fill-opacity="1"><g transform="translate(1010.69124, 70.743654)"><g><path d="M 18.71875 -44.875 L 26.765625 -44.875 L 26.765625 -35.421875 L 18.71875 -35.421875 L 18.71875 -15.671875 C 18.71875 -13.773438 18.785156 -12.363281 18.921875 -11.4375 C 19.066406 -10.507812 19.367188 -9.84375 19.828125 -9.4375 C 20.296875 -9.03125 21.019531 -8.828125 22 -8.828125 C 23.21875 -8.828125 24.804688 -9.207031 26.765625 -9.96875 L 27.8125 -0.78125 C 26.59375 -0.195312 25.117188 0.25 23.390625 0.5625 C 21.660156 0.882812 20.015625 1.046875 18.453125 1.046875 C 16.203125 1.046875 14.207031 0.671875 12.46875 -0.078125 C 10.738281 -0.835938 9.46875 -1.851562 8.65625 -3.125 C 7.789062 -4.5625 7.253906 -6.160156 7.046875 -7.921875 C 6.847656 -9.679688 6.75 -11.890625 6.75 -14.546875 L 6.75 -35.421875 L 1.296875 -35.421875 L 1.296875 -44.875 L 6.75 -44.875 L 6.75 -53.796875 L 18.71875 -60.8125 Z M 18.71875 -44.875 "/></g></g></g><g fill="#000000" fill-opacity="1"><g transform="translate(1039.533463, 70.743654)"><g><path d="M 22.609375 -45.90625 C 28.210938 -45.90625 32.613281 -44.984375 35.8125 -43.140625 C 39.019531 -41.296875 41.234375 -38.265625 42.453125 -34.046875 L 31.1875 -31.96875 C 30.664062 -33.8125 29.722656 -35.179688 28.359375 -36.078125 C 27.003906 -36.972656 25.117188 -37.421875 22.703125 -37.421875 C 17.328125 -37.421875 14.640625 -36.179688 14.640625 -33.703125 C 14.640625 -32.484375 15.519531 -31.515625 17.28125 -30.796875 C 19.039062 -30.078125 21.597656 -29.34375 24.953125 -28.59375 C 29.046875 -27.664062 32.390625 -26.722656 34.984375 -25.765625 C 37.585938 -24.816406 39.726562 -23.40625 41.40625 -21.53125 C 43.082031 -19.65625 43.921875 -17.15625 43.921875 -14.03125 C 43.921875 -11.488281 43.210938 -9.078125 41.796875 -6.796875 C 40.378906 -4.515625 38.140625 -2.632812 35.078125 -1.15625 C 32.015625 0.3125 28.144531 1.046875 23.46875 1.046875 C 18.21875 1.046875 13.582031 -0.078125 9.5625 -2.328125 C 5.550781 -4.585938 3.03125 -8.085938 2 -12.828125 L 13.859375 -14.640625 C 14.953125 -9.847656 18.15625 -7.453125 23.46875 -7.453125 C 25.550781 -7.453125 27.5 -7.8125 29.3125 -8.53125 C 31.132812 -9.25 32.046875 -10.535156 32.046875 -12.390625 C 32.046875 -13.597656 31.628906 -14.445312 30.796875 -14.9375 C 29.960938 -15.425781 28.617188 -15.875 26.765625 -16.28125 C 21.273438 -17.5 17 -18.625 13.9375 -19.65625 C 10.882812 -20.695312 8.40625 -22.195312 6.5 -24.15625 C 4.59375 -26.125 3.640625 -28.785156 3.640625 -32.140625 C 3.640625 -36.816406 5.425781 -40.28125 9 -42.53125 C 12.582031 -44.78125 17.117188 -45.90625 22.609375 -45.90625 Z M 22.609375 -45.90625 "/></g></g></g><g fill="#000000" fill-opacity="1"><g transform="translate(0.00000525, 220.743646)"><g><path d="M 2.796875 -2.125 C 2.796875 -4.6875 3.070312 -6.75 3.625 -8.3125 C 4.1875 -9.875 5.144531 -11.332031 6.5 -12.6875 C 7.851562 -14.039062 10.007812 -15.796875 12.96875 -17.953125 L 18.078125 -21.671875 C 19.960938 -23.046875 21.492188 -24.3125 22.671875 -25.46875 C 23.859375 -26.632812 24.796875 -27.898438 25.484375 -29.265625 C 26.171875 -30.628906 26.515625 -32.15625 26.515625 -33.84375 C 26.515625 -36.59375 25.785156 -38.664062 24.328125 -40.0625 C 22.867188 -41.457031 20.585938 -42.15625 17.484375 -42.15625 C 15.023438 -42.15625 12.84375 -41.582031 10.9375 -40.4375 C 9.039062 -39.300781 7.519531 -37.6875 6.375 -35.59375 L 5.640625 -35.46875 L 2.375 -38.890625 C 3.945312 -41.429688 6.003906 -43.425781 8.546875 -44.875 C 11.097656 -46.320312 14.078125 -47.046875 17.484375 -47.046875 C 20.773438 -47.046875 23.507812 -46.484375 25.6875 -45.359375 C 27.875 -44.242188 29.484375 -42.695312 30.515625 -40.71875 C 31.554688 -38.738281 32.078125 -36.445312 32.078125 -33.84375 C 32.078125 -31.769531 31.640625 -29.832031 30.765625 -28.03125 C 29.898438 -26.238281 28.675781 -24.550781 27.09375 -22.96875 C 25.507812 -21.382812 23.519531 -19.710938 21.125 -17.953125 L 15.953125 -14.1875 C 14.023438 -12.769531 12.546875 -11.5625 11.515625 -10.5625 C 10.484375 -9.570312 9.726562 -8.601562 9.25 -7.65625 C 8.769531 -6.71875 8.53125 -5.664062 8.53125 -4.5 L 32.078125 -4.5 L 32.078125 0 L 2.796875 0 Z M 2.796875 -2.125 "/></g></g></g><g fill="#000000" fill-opacity="1"><g transform="translate(35.650249, 220.743646)"><g><path d="M 19.609375 0.671875 C 15.585938 0.671875 12.320312 -0.242188 9.8125 -2.078125 C 7.3125 -3.910156 5.722656 -6.421875 5.046875 -9.609375 L 9.078125 -11.453125 L 9.796875 -11.328125 C 10.535156 -8.972656 11.671875 -7.203125 13.203125 -6.015625 C 14.742188 -4.835938 16.878906 -4.25 19.609375 -4.25 C 23.453125 -4.25 26.390625 -5.851562 28.421875 -9.0625 C 30.453125 -12.28125 31.46875 -17.253906 31.46875 -23.984375 L 30.796875 -24.171875 C 29.515625 -21.523438 27.878906 -19.550781 25.890625 -18.25 C 23.898438 -16.957031 21.394531 -16.3125 18.375 -16.3125 C 15.46875 -16.3125 12.941406 -16.9375 10.796875 -18.1875 C 8.648438 -19.445312 7 -21.226562 5.84375 -23.53125 C 4.695312 -25.84375 4.125 -28.53125 4.125 -31.59375 C 4.125 -34.664062 4.757812 -37.367188 6.03125 -39.703125 C 7.300781 -42.035156 9.101562 -43.84375 11.4375 -45.125 C 13.769531 -46.40625 16.492188 -47.046875 19.609375 -47.046875 C 25.035156 -47.046875 29.285156 -45.207031 32.359375 -41.53125 C 35.441406 -37.863281 36.984375 -31.929688 36.984375 -23.734375 C 36.984375 -18.191406 36.253906 -13.597656 34.796875 -9.953125 C 33.335938 -6.316406 31.3125 -3.632812 28.71875 -1.90625 C 26.132812 -0.1875 23.097656 0.671875 19.609375 0.671875 Z M 19.609375 -21.0625 C 21.703125 -21.0625 23.519531 -21.472656 25.0625 -22.296875 C 26.601562 -23.117188 27.789062 -24.320312 28.625 -25.90625 C 29.46875 -27.5 29.890625 -29.394531 29.890625 -31.59375 C 29.890625 -33.789062 29.46875 -35.679688 28.625 -37.265625 C 27.789062 -38.859375 26.601562 -40.070312 25.0625 -40.90625 C 23.519531 -41.738281 21.703125 -42.15625 19.609375 -42.15625 C 16.535156 -42.15625 14.128906 -41.25 12.390625 -39.4375 C 10.660156 -37.632812 9.796875 -35.019531 9.796875 -31.59375 C 9.796875 -28.164062 10.660156 -25.550781 12.390625 -23.75 C 14.128906 -21.957031 16.535156 -21.0625 19.609375 -21.0625 Z M 19.609375 -21.0625 "/></g></g></g><g fill="#000000" fill-opacity="1"><g transform="translate(77.390215, 220.743646)"><g/></g></g><g fill="#000000" fill-opacity="1"><g transform="translate(93.312298, 220.743646)"><g><path d="M 12.0625 0 L 7.015625 0 L 7.015625 -46.375 L 15.09375 -46.375 L 29.15625 -7.109375 L 29.8125 -7.109375 L 43.875 -46.375 L 51.671875 -46.375 L 51.671875 0 L 46.5 0 L 46.5 -37.84375 L 45.71875 -37.96875 L 32.015625 0 L 26.578125 0 L 12.84375 -37.96875 L 12.0625 -37.84375 Z M 12.0625 0 "/></g></g></g><g fill="#000000" fill-opacity="1"><g transform="translate(152.021024, 220.743646)"><g><path d="M 14.4375 0.671875 C 10.988281 0.671875 8.296875 -0.226562 6.359375 -2.03125 C 4.421875 -3.832031 3.453125 -6.398438 3.453125 -9.734375 C 3.453125 -11.804688 3.878906 -13.554688 4.734375 -14.984375 C 5.597656 -16.410156 6.925781 -17.570312 8.71875 -18.46875 C 10.519531 -19.375 12.867188 -20.070312 15.765625 -20.5625 C 18.304688 -20.976562 20.234375 -21.453125 21.546875 -21.984375 C 22.867188 -22.515625 23.757812 -23.109375 24.21875 -23.765625 C 24.675781 -24.421875 24.90625 -25.242188 24.90625 -26.234375 C 24.90625 -27.816406 24.359375 -29.03125 23.265625 -29.875 C 22.179688 -30.726562 20.429688 -31.15625 18.015625 -31.15625 C 15.753906 -31.15625 13.8125 -30.710938 12.1875 -29.828125 C 10.570312 -28.953125 9.085938 -27.648438 7.734375 -25.921875 L 7.109375 -25.921875 L 4.5625 -29.5 C 6.039062 -31.382812 7.921875 -32.878906 10.203125 -33.984375 C 12.492188 -35.097656 15.097656 -35.65625 18.015625 -35.65625 C 22.140625 -35.65625 25.179688 -34.75 27.140625 -32.9375 C 29.097656 -31.132812 30.078125 -28.632812 30.078125 -25.4375 L 30.078125 -6.890625 C 30.078125 -4.941406 30.898438 -3.96875 32.546875 -3.96875 C 33.097656 -3.96875 33.628906 -4.0625 34.140625 -4.25 L 34.578125 -4.125 L 35.1875 -0.546875 C 34.800781 -0.285156 34.296875 -0.0859375 33.671875 0.046875 C 33.046875 0.179688 32.40625 0.25 31.75 0.25 C 29.832031 0.25 28.378906 -0.171875 27.390625 -1.015625 C 26.410156 -1.859375 25.78125 -3.109375 25.5 -4.765625 L 24.84375 -4.828125 C 23.84375 -2.984375 22.492188 -1.601562 20.796875 -0.6875 C 19.109375 0.21875 16.988281 0.671875 14.4375 0.671875 Z M 15.578125 -3.453125 C 17.523438 -3.453125 19.210938 -3.898438 20.640625 -4.796875 C 22.066406 -5.703125 23.160156 -6.96875 23.921875 -8.59375 C 24.679688 -10.226562 25.0625 -12.113281 25.0625 -14.25 L 25.0625 -18.6875 L 24.453125 -18.8125 C 23.671875 -18.257812 22.71875 -17.796875 21.59375 -17.421875 C 20.476562 -17.054688 18.914062 -16.726562 16.90625 -16.4375 C 14.875 -16.15625 13.257812 -15.726562 12.0625 -15.15625 C 10.875 -14.59375 10.023438 -13.867188 9.515625 -12.984375 C 9.003906 -12.109375 8.75 -11.023438 8.75 -9.734375 C 8.75 -7.679688 9.351562 -6.117188 10.5625 -5.046875 C 11.769531 -3.984375 13.441406 -3.453125 15.578125 -3.453125 Z M 15.578125 -3.453125 "/></g></g></g><g fill="#000000" fill-opacity="1"><g transform="translate(188.210468, 220.743646)"><g><path d="M 6.09375 0 L 6.09375 -34.984375 L 11.015625 -34.984375 L 11.015625 -29.5 L 11.671875 -29.34375 C 13.296875 -33.320312 16.363281 -35.3125 20.875 -35.3125 C 23.257812 -35.3125 25.046875 -34.875 26.234375 -34 L 24.90625 -29.625 L 24.265625 -29.5 C 22.953125 -30.15625 21.515625 -30.484375 19.953125 -30.484375 C 17.160156 -30.484375 15.015625 -29.4375 13.515625 -27.34375 C 12.015625 -25.25 11.265625 -21.851562 11.265625 -17.15625 L 11.265625 0 Z M 6.09375 0 "/></g></g></g><g fill="#000000" fill-opacity="1"><g transform="translate(215.233606, 220.743646)"><g/></g></g><g fill="#000000" fill-opacity="1"><g transform="translate(231.155679, 220.743646)"><g><path d="M 2.796875 -2.125 C 2.796875 -4.6875 3.070312 -6.75 3.625 -8.3125 C 4.1875 -9.875 5.144531 -11.332031 6.5 -12.6875 C 7.851562 -14.039062 10.007812 -15.796875 12.96875 -17.953125 L 18.078125 -21.671875 C 19.960938 -23.046875 21.492188 -24.3125 22.671875 -25.46875 C 23.859375 -26.632812 24.796875 -27.898438 25.484375 -29.265625 C 26.171875 -30.628906 26.515625 -32.15625 26.515625 -33.84375 C 26.515625 -36.59375 25.785156 -38.664062 24.328125 -40.0625 C 22.867188 -41.457031 20.585938 -42.15625 17.484375 -42.15625 C 15.023438 -42.15625 12.84375 -41.582031 10.9375 -40.4375 C 9.039062 -39.300781 7.519531 -37.6875 6.375 -35.59375 L 5.640625 -35.46875 L 2.375 -38.890625 C 3.945312 -41.429688 6.003906 -43.425781 8.546875 -44.875 C 11.097656 -46.320312 14.078125 -47.046875 17.484375 -47.046875 C 20.773438 -47.046875 23.507812 -46.484375 25.6875 -45.359375 C 27.875 -44.242188 29.484375 -42.695312 30.515625 -40.71875 C 31.554688 -38.738281 32.078125 -36.445312 32.078125 -33.84375 C 32.078125 -31.769531 31.640625 -29.832031 30.765625 -28.03125 C 29.898438 -26.238281 28.675781 -24.550781 27.09375 -22.96875 C 25.507812 -21.382812 23.519531 -19.710938 21.125 -17.953125 L 15.953125 -14.1875 C 14.023438 -12.769531 12.546875 -11.5625 11.515625 -10.5625 C 10.484375 -9.570312 9.726562 -8.601562 9.25 -7.65625 C 8.769531 -6.71875 8.53125 -5.664062 8.53125 -4.5 L 32.078125 -4.5 L 32.078125 0 L 2.796875 0 Z M 2.796875 -2.125 "/></g></g></g><g fill="#000000" fill-opacity="1"><g transform="translate(266.805923, 220.743646)"><g><path d="M 22.8125 0.671875 C 19.40625 0.671875 16.347656 -0.144531 13.640625 -1.78125 C 10.929688 -3.425781 8.773438 -6.03125 7.171875 -9.59375 C 5.566406 -13.15625 4.765625 -17.6875 4.765625 -23.1875 C 4.765625 -28.6875 5.566406 -33.21875 7.171875 -36.78125 C 8.773438 -40.34375 10.929688 -42.941406 13.640625 -44.578125 C 16.347656 -46.222656 19.40625 -47.046875 22.8125 -47.046875 C 26.21875 -47.046875 29.269531 -46.222656 31.96875 -44.578125 C 34.675781 -42.941406 36.828125 -40.34375 38.421875 -36.78125 C 40.023438 -33.21875 40.828125 -28.6875 40.828125 -23.1875 C 40.828125 -17.6875 40.023438 -13.15625 38.421875 -9.59375 C 36.828125 -6.03125 34.675781 -3.425781 31.96875 -1.78125 C 29.269531 -0.144531 26.21875 0.671875 22.8125 0.671875 Z M 22.8125 -4.375 C 26.851562 -4.375 29.914062 -5.828125 32 -8.734375 C 34.082031 -11.648438 35.125 -16.46875 35.125 -23.1875 C 35.125 -29.914062 34.082031 -34.734375 32 -37.640625 C 29.914062 -40.546875 26.851562 -42 22.8125 -42 C 20.144531 -42 17.898438 -41.382812 16.078125 -40.15625 C 14.265625 -38.9375 12.875 -36.941406 11.90625 -34.171875 C 10.945312 -31.398438 10.46875 -27.738281 10.46875 -23.1875 C 10.46875 -18.644531 10.945312 -14.988281 11.90625 -12.21875 C 12.875 -9.445312 14.265625 -7.445312 16.078125 -6.21875 C 17.898438 -4.988281 20.144531 -4.375 22.8125 -4.375 Z M 22.8125 -4.375 "/></g></g></g><g fill="#000000" fill-opacity="1"><g transform="translate(312.41541, 220.743646)"><g><path d="M 2.796875 -2.125 C 2.796875 -4.6875 3.070312 -6.75 3.625 -8.3125 C 4.1875 -9.875 5.144531 -11.332031 6.5 -12.6875 C 7.851562 -14.039062 10.007812 -15.796875 12.96875 -17.953125 L 18.078125 -21.671875 C 19.960938 -23.046875 21.492188 -24.3125 22.671875 -25.46875 C 23.859375 -26.632812 24.796875 -27.898438 25.484375 -29.265625 C 26.171875 -30.628906 26.515625 -32.15625 26.515625 -33.84375 C 26.515625 -36.59375 25.785156 -38.664062 24.328125 -40.0625 C 22.867188 -41.457031 20.585938 -42.15625 17.484375 -42.15625 C 15.023438 -42.15625 12.84375 -41.582031 10.9375 -40.4375 C 9.039062 -39.300781 7.519531 -37.6875 6.375 -35.59375 L 5.640625 -35.46875 L 2.375 -38.890625 C 3.945312 -41.429688 6.003906 -43.425781 8.546875 -44.875 C 11.097656 -46.320312 14.078125 -47.046875 17.484375 -47.046875 C 20.773438 -47.046875 23.507812 -46.484375 25.6875 -45.359375 C 27.875 -44.242188 29.484375 -42.695312 30.515625 -40.71875 C 31.554688 -38.738281 32.078125 -36.445312 32.078125 -33.84375 C 32.078125 -31.769531 31.640625 -29.832031 30.765625 -28.03125 C 29.898438 -26.238281 28.675781 -24.550781 27.09375 -22.96875 C 25.507812 -21.382812 23.519531 -19.710938 21.125 -17.953125 L 15.953125 -14.1875 C 14.023438 -12.769531 12.546875 -11.5625 11.515625 -10.5625 C 10.484375 -9.570312 9.726562 -8.601562 9.25 -7.65625 C 8.769531 -6.71875 8.53125 -5.664062 8.53125 -4.5 L 32.078125 -4.5 L 32.078125 0 L 2.796875 0 Z M 2.796875 -2.125 "/></g></g></g><g fill="#000000" fill-opacity="1"><g transform="translate(348.065654, 220.743646)"><g><path d="M 22.8125 0.671875 C 19.40625 0.671875 16.347656 -0.144531 13.640625 -1.78125 C 10.929688 -3.425781 8.773438 -6.03125 7.171875 -9.59375 C 5.566406 -13.15625 4.765625 -17.6875 4.765625 -23.1875 C 4.765625 -28.6875 5.566406 -33.21875 7.171875 -36.78125 C 8.773438 -40.34375 10.929688 -42.941406 13.640625 -44.578125 C 16.347656 -46.222656 19.40625 -47.046875 22.8125 -47.046875 C 26.21875 -47.046875 29.269531 -46.222656 31.96875 -44.578125 C 34.675781 -42.941406 36.828125 -40.34375 38.421875 -36.78125 C 40.023438 -33.21875 40.828125 -28.6875 40.828125 -23.1875 C 40.828125 -17.6875 40.023438 -13.15625 38.421875 -9.59375 C 36.828125 -6.03125 34.675781 -3.425781 31.96875 -1.78125 C 29.269531 -0.144531 26.21875 0.671875 22.8125 0.671875 Z M 22.8125 -4.375 C 26.851562 -4.375 29.914062 -5.828125 32 -8.734375 C 34.082031 -11.648438 35.125 -16.46875 35.125 -23.1875 C 35.125 -29.914062 34.082031 -34.734375 32 -37.640625 C 29.914062 -40.546875 26.851562 -42 22.8125 -42 C 20.144531 -42 17.898438 -41.382812 16.078125 -40.15625 C 14.265625 -38.9375 12.875 -36.941406 11.90625 -34.171875 C 10.945312 -31.398438 10.46875 -27.738281 10.46875 -23.1875 C 10.46875 -18.644531 10.945312 -14.988281 11.90625 -12.21875 C 12.875 -9.445312 14.265625 -7.445312 16.078125 -6.21875 C 17.898438 -4.988281 20.144531 -4.375 22.8125 -4.375 Z M 22.8125 -4.375 "/></g></g></g></svg>