<svg xmlns="http://www.w3.org/2000/svg" xmlns:xlink="http://www.w3.org/1999/xlink" width="1620" zoomAndPan="magnify" viewBox="0 0 1215 809.999993" height="1080" preserveAspectRatio="xMidYMid meet" version="1.0"><defs><g/></defs><g fill="#000000" fill-opacity="1"><g transform="translate(0.00000525, 70.743654)"><g><path d="M 43.046875 -60.546875 C 46.171875 -59.222656 48.742188 -57.113281 50.765625 -54.21875 C 52.785156 -51.332031 53.796875 -47.582031 53.796875 -42.96875 C 53.796875 -38.457031 52.796875 -34.710938 50.796875 -31.734375 C 48.804688 -28.765625 46.28125 -26.644531 43.21875 -25.375 C 40.101562 -24.050781 35.140625 -23.390625 28.328125 -23.390625 L 18.796875 -23.390625 L 18.796875 0 L 6.328125 0 L 6.328125 -62.03125 L 27.890625 -62.03125 C 31.878906 -62.03125 35.054688 -61.925781 37.421875 -61.71875 C 39.785156 -61.519531 41.660156 -61.128906 43.046875 -60.546875 Z M 40.890625 -42.796875 C 40.890625 -46.492188 39.066406 -49.117188 35.421875 -50.671875 C 34.097656 -51.253906 31.300781 -51.546875 27.03125 -51.546875 L 18.796875 -51.546875 L 18.796875 -33.875 L 27.03125 -33.875 C 31.300781 -33.875 34.675781 -34.460938 37.15625 -35.640625 C 39.644531 -36.828125 40.890625 -39.210938 40.890625 -42.796875 Z M 40.890625 -42.796875 "/></g></g></g><g fill="#000000" fill-opacity="1"><g transform="translate(57.771116, 70.743654)"><g><path d="M 23.734375 -45.90625 C 29.453125 -45.90625 33.695312 -45.171875 36.46875 -43.703125 C 39.238281 -42.234375 40.984375 -40.296875 41.703125 -37.890625 C 42.429688 -35.492188 42.765625 -32.332031 42.703125 -28.40625 L 42.625 -15.328125 C 42.5625 -11.234375 42.703125 -8.257812 43.046875 -6.40625 C 43.398438 -4.5625 44.125 -2.425781 45.21875 0 L 33.53125 0 C 33.238281 -0.632812 32.71875 -2.28125 31.96875 -4.9375 C 29.832031 -2.851562 27.625 -1.332031 25.34375 -0.375 C 23.0625 0.570312 20.617188 1.046875 18.015625 1.046875 C 13.566406 1.046875 9.972656 -0.179688 7.234375 -2.640625 C 4.492188 -5.097656 3.125 -8.289062 3.125 -12.21875 C 3.125 -15.507812 3.945312 -18.117188 5.59375 -20.046875 C 7.238281 -21.984375 9.242188 -23.382812 11.609375 -24.25 C 13.972656 -25.113281 16.773438 -25.863281 20.015625 -26.5 C 24.972656 -27.425781 28.640625 -28.351562 31.015625 -29.28125 L 31.015625 -31.1875 C 31.015625 -33.144531 30.4375 -34.570312 29.28125 -35.46875 C 28.125 -36.363281 26.015625 -36.8125 22.953125 -36.8125 C 20.585938 -36.8125 18.828125 -36.332031 17.671875 -35.375 C 16.515625 -34.425781 15.648438 -33.03125 15.078125 -31.1875 L 4.328125 -33.171875 C 5.484375 -37.566406 7.5625 -40.785156 10.5625 -42.828125 C 13.570312 -44.878906 17.960938 -45.90625 23.734375 -45.90625 Z M 23.5625 -19.65625 L 21.5625 -19.234375 C 17.175781 -18.304688 14.984375 -16.398438 14.984375 -13.515625 C 14.984375 -11.785156 15.601562 -10.328125 16.84375 -9.140625 C 18.09375 -7.953125 19.664062 -7.359375 21.5625 -7.359375 C 23.125 -7.359375 24.6875 -7.757812 26.25 -8.5625 C 27.8125 -9.375 29.023438 -10.445312 29.890625 -11.78125 C 30.640625 -12.988281 31.015625 -15.066406 31.015625 -18.015625 L 31.015625 -21.5625 C 28.765625 -20.875 26.28125 -20.238281 23.5625 -19.65625 Z M 23.5625 -19.65625 "/></g></g></g><g fill="#000000" fill-opacity="1"><g transform="translate(105.928138, 70.743654)"><g><path d="M 27.03125 -45.90625 C 28.300781 -45.90625 29.640625 -45.703125 31.046875 -45.296875 C 32.460938 -44.898438 33.722656 -44.382812 34.828125 -43.75 L 31.09375 -33.34375 C 29.070312 -34.613281 27.222656 -35.25 25.546875 -35.25 C 23.296875 -35.25 21.59375 -34.484375 20.4375 -32.953125 C 19.289062 -31.429688 18.523438 -29.296875 18.140625 -26.546875 C 17.765625 -23.804688 17.578125 -20.15625 17.578125 -15.59375 L 17.578125 0 L 5.71875 0 L 5.71875 -44.875 L 16.71875 -44.875 L 16.71875 -38.546875 L 16.890625 -38.546875 C 18.335938 -40.972656 19.78125 -42.804688 21.21875 -44.046875 C 22.664062 -45.285156 24.601562 -45.90625 27.03125 -45.90625 Z M 27.03125 -45.90625 "/></g></g></g><g fill="#000000" fill-opacity="1"><g transform="translate(139.620733, 70.743654)"><g><path d="M 17.671875 -29.109375 L 31.625 -44.875 L 46.25 -44.875 L 30.921875 -28.5 L 47.296875 0 L 34.484375 0 L 23.21875 -20.1875 L 17.671875 -14.375 L 17.671875 0 L 5.796875 0 L 5.796875 -62.03125 L 17.671875 -62.03125 Z M 17.671875 -29.109375 "/></g></g></g><g fill="#000000" fill-opacity="1"><g transform="translate(187.777755, 70.743654)"><g/></g></g><g fill="#000000" fill-opacity="1"><g transform="translate(211.856272, 70.743654)"><g><path d="M 62.28125 0 L 48.59375 0 L 43.21875 -14.03125 L 18.453125 -14.03125 L 13.34375 0 L 0 0 L 24.171875 -62.03125 L 37.421875 -62.03125 Z M 22.265625 -24.515625 L 39.234375 -24.515625 L 30.671875 -47.5625 Z M 22.265625 -24.515625 "/></g></g></g><g fill="#000000" fill-opacity="1"><g transform="translate(274.391112, 70.743654)"><g><path d="M 21.3125 -22.265625 L 22.953125 -16.984375 C 23.296875 -15.710938 23.554688 -14.84375 23.734375 -14.375 L 23.90625 -14.375 C 24.769531 -17.613281 25.578125 -20.15625 26.328125 -22 L 34.90625 -44.875 L 47.125 -44.875 L 29.28125 0 L 18.53125 0 L 0.4375 -44.875 L 12.90625 -44.875 Z M 21.3125 -22.265625 "/></g></g></g><g fill="#000000" fill-opacity="1"><g transform="translate(322.548146, 70.743654)"><g><path d="M 23.390625 -45.90625 C 30.546875 -45.90625 35.882812 -43.582031 39.40625 -38.9375 C 42.9375 -34.289062 44.703125 -27.664062 44.703125 -19.0625 L 14.90625 -19.0625 C 15.019531 -16.050781 15.898438 -13.460938 17.546875 -11.296875 C 19.191406 -9.140625 21.570312 -8.0625 24.6875 -8.0625 C 26.65625 -8.0625 28.257812 -8.566406 29.5 -9.578125 C 30.738281 -10.585938 31.644531 -12.160156 32.21875 -14.296875 L 44.09375 -12.296875 C 42.59375 -7.910156 40.164062 -4.585938 36.8125 -2.328125 C 33.46875 -0.078125 29.367188 1.046875 24.515625 1.046875 C 17.296875 1.046875 11.835938 -1.117188 8.140625 -5.453125 C 6.410156 -7.472656 5.082031 -10.015625 4.15625 -13.078125 C 3.226562 -16.140625 2.765625 -19.171875 2.765625 -22.171875 C 2.765625 -26.273438 3.5 -30.128906 4.96875 -33.734375 C 6.445312 -37.347656 8.726562 -40.28125 11.8125 -42.53125 C 14.90625 -44.78125 18.765625 -45.90625 23.390625 -45.90625 Z M 15.15625 -26.328125 L 32.921875 -26.328125 C 32.859375 -29.972656 31.945312 -32.628906 30.1875 -34.296875 C 28.425781 -35.972656 26.363281 -36.8125 24 -36.8125 C 21.226562 -36.8125 19.0625 -35.816406 17.5 -33.828125 C 15.9375 -31.835938 15.15625 -29.335938 15.15625 -26.328125 Z M 15.15625 -26.328125 "/></g></g></g><g fill="#000000" fill-opacity="1"><g transform="translate(370.705157, 70.743654)"><g><path d="M 32.046875 -45.90625 C 34.703125 -45.90625 37.007812 -45.457031 38.96875 -44.5625 C 40.9375 -43.664062 42.5 -42.613281 43.65625 -41.40625 C 45.039062 -39.90625 45.945312 -38.128906 46.375 -36.078125 C 46.8125 -34.023438 47.03125 -31.757812 47.03125 -29.28125 L 47.03125 0 L 35.171875 0 L 35.171875 -24.515625 C 35.171875 -28.671875 34.707031 -31.757812 33.78125 -33.78125 C 32.851562 -35.800781 30.890625 -36.8125 27.890625 -36.8125 C 25.066406 -36.8125 22.875 -36.003906 21.3125 -34.390625 C 19.75 -32.773438 18.820312 -30.898438 18.53125 -28.765625 C 18.363281 -27.378906 18.234375 -26.132812 18.140625 -25.03125 C 18.054688 -23.9375 18.015625 -22.695312 18.015625 -21.3125 L 18.015625 0 L 6.15625 0 L 6.15625 -44.875 L 17.40625 -44.875 L 17.40625 -38.28125 C 18.675781 -40.1875 20.566406 -41.929688 23.078125 -43.515625 C 25.597656 -45.109375 28.585938 -45.90625 32.046875 -45.90625 Z M 32.046875 -45.90625 "/></g></g></g><g fill="#000000" fill-opacity="1"><g transform="translate(423.62593, 70.743654)"><g><path d="M 17.84375 -21.828125 C 17.84375 -18.648438 17.914062 -16.335938 18.0625 -14.890625 C 18.207031 -13.453125 18.507812 -12.300781 18.96875 -11.4375 C 19.488281 -10.457031 20.28125 -9.648438 21.34375 -9.015625 C 22.414062 -8.378906 23.734375 -8.0625 25.296875 -8.0625 C 27.367188 -8.0625 29.242188 -8.632812 30.921875 -9.78125 C 32.597656 -10.9375 33.664062 -12.351562 34.125 -14.03125 C 34.644531 -15.707031 34.90625 -19.289062 34.90625 -24.78125 L 34.90625 -44.875 L 46.78125 -44.875 L 46.78125 0 L 35.78125 0 L 35.78125 -6.75 L 35.609375 -6.75 C 33.929688 -4.207031 31.765625 -2.269531 29.109375 -0.9375 C 26.453125 0.382812 23.707031 1.046875 20.875 1.046875 C 18.332031 1.046875 15.921875 0.523438 13.640625 -0.515625 C 11.359375 -1.554688 9.613281 -3.0625 8.40625 -5.03125 C 7.539062 -6.414062 6.921875 -7.941406 6.546875 -9.609375 C 6.171875 -11.285156 5.984375 -13.394531 5.984375 -15.9375 L 5.984375 -44.875 L 17.84375 -44.875 Z M 17.84375 -21.828125 "/></g></g></g><g fill="#000000" fill-opacity="1"><g transform="translate(476.546704, 70.743654)"><g><path d="M 23.390625 -45.90625 C 30.546875 -45.90625 35.882812 -43.582031 39.40625 -38.9375 C 42.9375 -34.289062 44.703125 -27.664062 44.703125 -19.0625 L 14.90625 -19.0625 C 15.019531 -16.050781 15.898438 -13.460938 17.546875 -11.296875 C 19.191406 -9.140625 21.570312 -8.0625 24.6875 -8.0625 C 26.65625 -8.0625 28.257812 -8.566406 29.5 -9.578125 C 30.738281 -10.585938 31.644531 -12.160156 32.21875 -14.296875 L 44.09375 -12.296875 C 42.59375 -7.910156 40.164062 -4.585938 36.8125 -2.328125 C 33.46875 -0.078125 29.367188 1.046875 24.515625 1.046875 C 17.296875 1.046875 11.835938 -1.117188 8.140625 -5.453125 C 6.410156 -7.472656 5.082031 -10.015625 4.15625 -13.078125 C 3.226562 -16.140625 2.765625 -19.171875 2.765625 -22.171875 C 2.765625 -26.273438 3.5 -30.128906 4.96875 -33.734375 C 6.445312 -37.347656 8.726562 -40.28125 11.8125 -42.53125 C 14.90625 -44.78125 18.765625 -45.90625 23.390625 -45.90625 Z M 15.15625 -26.328125 L 32.921875 -26.328125 C 32.859375 -29.972656 31.945312 -32.628906 30.1875 -34.296875 C 28.425781 -35.972656 26.363281 -36.8125 24 -36.8125 C 21.226562 -36.8125 19.0625 -35.816406 17.5 -33.828125 C 15.9375 -31.835938 15.15625 -29.335938 15.15625 -26.328125 Z M 15.15625 -26.328125 "/></g></g></g><g fill="#000000" fill-opacity="1"><g transform="translate(0.00000525, 220.743646)"><g><path d="M 12.34375 0 L 7.015625 0 L 7.015625 -46.375 L 13.703125 -46.375 L 36.328125 -10.9375 L 37.109375 -11.078125 L 37.109375 -46.375 L 42.40625 -46.375 L 42.40625 0 L 36.703125 0 L 13.140625 -37.90625 L 12.34375 -37.78125 Z M 12.34375 0 "/></g></g></g><g fill="#000000" fill-opacity="1"><g transform="translate(49.44728, 220.743646)"><g><path d="M 33.34375 -16.3125 L 9.296875 -16.3125 C 9.441406 -12.050781 10.460938 -8.925781 12.359375 -6.9375 C 14.253906 -4.957031 16.847656 -3.96875 20.140625 -3.96875 C 22.640625 -3.96875 24.648438 -4.410156 26.171875 -5.296875 C 27.691406 -6.179688 28.882812 -7.578125 29.75 -9.484375 L 30.421875 -9.484375 L 33.78125 -7.484375 C 32.769531 -4.953125 31.144531 -2.957031 28.90625 -1.5 C 26.675781 -0.0507812 23.753906 0.671875 20.140625 0.671875 C 16.753906 0.671875 13.84375 0.00390625 11.40625 -1.328125 C 8.976562 -2.660156 7.109375 -4.679688 5.796875 -7.390625 C 4.492188 -10.097656 3.84375 -13.460938 3.84375 -17.484375 C 3.84375 -21.453125 4.535156 -24.800781 5.921875 -27.53125 C 7.304688 -30.257812 9.195312 -32.296875 11.59375 -33.640625 C 14 -34.984375 16.742188 -35.65625 19.828125 -35.65625 C 24.304688 -35.65625 27.804688 -34.390625 30.328125 -31.859375 C 32.847656 -29.335938 34.117188 -25.59375 34.140625 -20.625 C 34.140625 -18.675781 34.09375 -17.363281 34 -16.6875 Z M 29.03125 -20.625 C 28.945312 -24.34375 28.117188 -27.046875 26.546875 -28.734375 C 24.984375 -30.429688 22.742188 -31.28125 19.828125 -31.28125 C 16.765625 -31.28125 14.359375 -30.425781 12.609375 -28.71875 C 10.867188 -27.019531 9.804688 -24.320312 9.421875 -20.625 Z M 29.03125 -20.625 "/></g></g></g><g fill="#000000" fill-opacity="1"><g transform="translate(86.746823, 220.743646)"><g><path d="M 17.359375 0 L 10.8125 0 L 2.25 -34.984375 L 7.359375 -34.984375 L 13.984375 -6.03125 L 14.65625 -6.03125 L 22.8125 -34.984375 L 28.234375 -34.984375 L 36.640625 -6.03125 L 37.3125 -6.03125 L 43.8125 -34.984375 L 48.765625 -34.984375 L 40.28125 0 L 33.71875 0 L 25.734375 -27.15625 L 25.0625 -27.15625 Z M 17.359375 0 "/></g></g></g><g fill="#000000" fill-opacity="1"><g transform="translate(137.74824, 220.743646)"><g/></g></g><g fill="#000000" fill-opacity="1"><g transform="translate(153.670324, 220.743646)"><g><path d="M 7.015625 14.84375 C 5.828125 14.84375 4.71875 14.742188 3.6875 14.546875 C 2.664062 14.347656 1.785156 14.066406 1.046875 13.703125 L 2 9.609375 L 2.5625 9.421875 C 3.070312 9.671875 3.707031 9.882812 4.46875 10.0625 C 5.226562 10.25 6.015625 10.34375 6.828125 10.34375 C 8.242188 10.34375 9.414062 10.148438 10.34375 9.765625 C 11.269531 9.390625 12.066406 8.757812 12.734375 7.875 C 13.398438 7 14.019531 5.789062 14.59375 4.25 L 15.828125 0.828125 L 1.78125 -34.984375 L 7.359375 -34.984375 L 18.375 -6.4375 L 18.96875 -6.4375 L 29.625 -34.984375 L 34.921875 -34.984375 L 19.28125 5.484375 C 18.394531 7.722656 17.398438 9.523438 16.296875 10.890625 C 15.203125 12.253906 13.90625 13.253906 12.40625 13.890625 C 10.90625 14.523438 9.109375 14.84375 7.015625 14.84375 Z M 7.015625 14.84375 "/></g></g></g><g fill="#000000" fill-opacity="1"><g transform="translate(190.557548, 220.743646)"><g><path d="M 20.078125 0.671875 C 16.773438 0.671875 13.898438 -0.0234375 11.453125 -1.421875 C 9.015625 -2.816406 7.132812 -4.875 5.8125 -7.59375 C 4.5 -10.3125 3.84375 -13.609375 3.84375 -17.484375 C 3.84375 -21.347656 4.5 -24.644531 5.8125 -27.375 C 7.132812 -30.101562 9.015625 -32.164062 11.453125 -33.5625 C 13.898438 -34.957031 16.773438 -35.65625 20.078125 -35.65625 C 23.378906 -35.65625 26.25 -34.957031 28.6875 -33.5625 C 31.132812 -32.164062 33.019531 -30.101562 34.34375 -27.375 C 35.664062 -24.644531 36.328125 -21.347656 36.328125 -17.484375 C 36.328125 -13.609375 35.664062 -10.3125 34.34375 -7.59375 C 33.019531 -4.875 31.132812 -2.816406 28.6875 -1.421875 C 26.25 -0.0234375 23.378906 0.671875 20.078125 0.671875 Z M 20.078125 -3.96875 C 23.566406 -3.96875 26.234375 -5.066406 28.078125 -7.265625 C 29.929688 -9.460938 30.859375 -12.867188 30.859375 -17.484375 C 30.859375 -22.109375 29.929688 -25.519531 28.078125 -27.71875 C 26.234375 -29.925781 23.566406 -31.03125 20.078125 -31.03125 C 16.585938 -31.03125 13.910156 -29.921875 12.046875 -27.703125 C 10.191406 -25.492188 9.265625 -22.085938 9.265625 -17.484375 C 9.265625 -12.867188 10.191406 -9.460938 12.046875 -7.265625 C 13.910156 -5.066406 16.585938 -3.96875 20.078125 -3.96875 Z M 20.078125 -3.96875 "/></g></g></g><g fill="#000000" fill-opacity="1"><g transform="translate(230.711648, 220.743646)"><g><path d="M 6.09375 0 L 6.09375 -34.984375 L 11.015625 -34.984375 L 11.015625 -29.5 L 11.671875 -29.34375 C 13.296875 -33.320312 16.363281 -35.3125 20.875 -35.3125 C 23.257812 -35.3125 25.046875 -34.875 26.234375 -34 L 24.90625 -29.625 L 24.265625 -29.5 C 22.953125 -30.15625 21.515625 -30.484375 19.953125 -30.484375 C 17.160156 -30.484375 15.015625 -29.4375 13.515625 -27.34375 C 12.015625 -25.25 11.265625 -21.851562 11.265625 -17.15625 L 11.265625 0 Z M 6.09375 0 "/></g></g></g><g fill="#000000" fill-opacity="1"><g transform="translate(257.734786, 220.743646)"><g><path d="M 6.09375 0 L 6.09375 -49.046875 L 11.265625 -49.046875 L 11.265625 -20.390625 L 12.125 -20.390625 L 25.125 -34.984375 L 30.546875 -34.984375 L 30.546875 -34.265625 L 16.6875 -18.5625 L 31.875 -0.796875 L 31.875 0 L 26.109375 0 L 12.125 -16.171875 L 11.265625 -16.171875 L 11.265625 0 Z M 6.09375 0 "/></g></g></g></svg>