<svg xmlns="http://www.w3.org/2000/svg" xmlns:xlink="http://www.w3.org/1999/xlink" width="1620" zoomAndPan="magnify" viewBox="0 0 1215 809.999993" height="1080" preserveAspectRatio="xMidYMid meet" version="1.0"><defs><g/></defs><g fill="#000000" fill-opacity="1"><g transform="translate(0.00000525, 70.743654)"><g><path d="M 34.90625 -63.0625 C 42.007812 -63.0625 47.84375 -61.570312 52.40625 -58.59375 C 56.96875 -55.625 59.941406 -51.050781 61.328125 -44.875 L 48.859375 -42.53125 C 47.929688 -45.769531 46.210938 -48.210938 43.703125 -49.859375 C 41.191406 -51.503906 38.289062 -52.328125 35 -52.328125 C 31.644531 -52.328125 28.695312 -51.691406 26.15625 -50.421875 C 23.613281 -49.148438 21.59375 -47.300781 20.09375 -44.875 C 18.070312 -41.632812 17.0625 -37.242188 17.0625 -31.703125 C 17.0625 -25.179688 18.535156 -19.882812 21.484375 -15.8125 C 24.429688 -11.738281 28.878906 -9.703125 34.828125 -9.703125 C 37.367188 -9.703125 39.90625 -10.175781 42.4375 -11.125 C 44.976562 -12.082031 47.320312 -13.367188 49.46875 -14.984375 L 49.46875 -22.78125 L 35.171875 -22.78125 L 35.171875 -33.265625 L 62.109375 -33.265625 L 62.109375 -8.578125 C 58.992188 -5.691406 54.992188 -3.363281 50.109375 -1.59375 C 45.234375 0.164062 40.398438 1.046875 35.609375 1.046875 C 28.671875 1.046875 22.847656 -0.394531 18.140625 -3.28125 C 13.441406 -6.175781 9.9375 -10.0625 7.625 -14.9375 C 5.3125 -19.820312 4.15625 -25.238281 4.15625 -31.1875 C 4.15625 -36.957031 5.28125 -42.253906 7.53125 -47.078125 C 9.789062 -51.898438 13.226562 -55.769531 17.84375 -58.6875 C 22.46875 -61.601562 28.15625 -63.0625 34.90625 -63.0625 Z M 34.90625 -63.0625 "/></g></g></g><g fill="#000000" fill-opacity="1"><g transform="translate(67.385195, 70.743654)"><g><path d="M 33.703125 -63.0625 C 40.222656 -63.0625 45.734375 -61.675781 50.234375 -58.90625 C 54.742188 -56.132812 58.125 -52.320312 60.375 -47.46875 C 62.625 -42.613281 63.75 -37.097656 63.75 -30.921875 C 63.75 -24.335938 62.550781 -18.648438 60.15625 -13.859375 C 57.757812 -9.066406 54.304688 -5.382812 49.796875 -2.8125 C 45.296875 -0.238281 39.988281 1.046875 33.875 1.046875 C 27.457031 1.046875 21.984375 -0.28125 17.453125 -2.9375 C 12.921875 -5.601562 9.5 -9.316406 7.1875 -14.078125 C 4.875 -18.835938 3.71875 -24.367188 3.71875 -30.671875 C 3.71875 -37.191406 4.875 -42.890625 7.1875 -47.765625 C 9.5 -52.648438 12.890625 -56.421875 17.359375 -59.078125 C 21.835938 -61.734375 27.285156 -63.0625 33.703125 -63.0625 Z M 16.625 -31.015625 C 16.625 -26.160156 17.40625 -22.144531 18.96875 -18.96875 C 20.53125 -15.789062 22.609375 -13.453125 25.203125 -11.953125 C 27.804688 -10.453125 30.664062 -9.703125 33.78125 -9.703125 C 36.664062 -9.703125 39.378906 -10.363281 41.921875 -11.6875 C 44.460938 -13.019531 46.582031 -15.285156 48.28125 -18.484375 C 49.988281 -21.691406 50.84375 -25.925781 50.84375 -31.1875 C 50.84375 -37.363281 49.484375 -42.429688 46.765625 -46.390625 C 44.054688 -50.347656 39.703125 -52.328125 33.703125 -52.328125 C 27.753906 -52.328125 23.421875 -50.332031 20.703125 -46.34375 C 17.984375 -42.363281 16.625 -37.253906 16.625 -31.015625 Z M 16.625 -31.015625 "/></g></g></g><g fill="#000000" fill-opacity="1"><g transform="translate(134.770384, 70.743654)"><g><path d="M 51.015625 -51.546875 L 32.65625 -51.546875 L 32.65625 0 L 20.1875 0 L 20.1875 -51.546875 L 1.8125 -51.546875 L 1.8125 -62.03125 L 51.015625 -62.03125 Z M 51.015625 -51.546875 "/></g></g></g><g fill="#000000" fill-opacity="1"><g transform="translate(187.691147, 70.743654)"><g><path d="M 34.90625 -63.0625 C 42.007812 -63.0625 47.84375 -61.570312 52.40625 -58.59375 C 56.96875 -55.625 59.941406 -51.050781 61.328125 -44.875 L 48.859375 -42.53125 C 47.929688 -45.769531 46.210938 -48.210938 43.703125 -49.859375 C 41.191406 -51.503906 38.289062 -52.328125 35 -52.328125 C 31.644531 -52.328125 28.695312 -51.691406 26.15625 -50.421875 C 23.613281 -49.148438 21.59375 -47.300781 20.09375 -44.875 C 18.070312 -41.632812 17.0625 -37.242188 17.0625 -31.703125 C 17.0625 -25.179688 18.535156 -19.882812 21.484375 -15.8125 C 24.429688 -11.738281 28.878906 -9.703125 34.828125 -9.703125 C 37.367188 -9.703125 39.90625 -10.175781 42.4375 -11.125 C 44.976562 -12.082031 47.320312 -13.367188 49.46875 -14.984375 L 49.46875 -22.78125 L 35.171875 -22.78125 L 35.171875 -33.265625 L 62.109375 -33.265625 L 62.109375 -8.578125 C 58.992188 -5.691406 54.992188 -3.363281 50.109375 -1.59375 C 45.234375 0.164062 40.398438 1.046875 35.609375 1.046875 C 28.671875 1.046875 22.847656 -0.394531 18.140625 -3.28125 C 13.441406 -6.175781 9.9375 -10.0625 7.625 -14.9375 C 5.3125 -19.820312 4.15625 -25.238281 4.15625 -31.1875 C 4.15625 -36.957031 5.28125 -42.253906 7.53125 -47.078125 C 9.789062 -51.898438 13.226562 -55.769531 17.84375 -58.6875 C 22.46875 -61.601562 28.15625 -63.0625 34.90625 -63.0625 Z M 34.90625 -63.0625 "/></g></g></g><g fill="#000000" fill-opacity="1"><g transform="translate(255.076348, 70.743654)"><g/></g></g><g fill="#000000" fill-opacity="1"><g transform="translate(279.154853, 70.743654)"><g><path d="M 23.296875 -62.28125 C 27.054688 -62.28125 30.332031 -61.484375 33.125 -59.890625 C 35.925781 -58.304688 38.050781 -56.285156 39.5 -53.828125 C 40.945312 -51.378906 41.671875 -48.882812 41.671875 -46.34375 C 41.671875 -43.625 40.90625 -41.15625 39.375 -38.9375 C 37.84375 -36.71875 35.660156 -34.828125 32.828125 -33.265625 C 36.410156 -32.515625 39.253906 -30.820312 41.359375 -28.1875 C 43.472656 -25.5625 44.53125 -22.375 44.53125 -18.625 C 44.53125 -14.925781 43.601562 -11.578125 41.75 -8.578125 C 39.90625 -5.578125 37.394531 -3.222656 34.21875 -1.515625 C 31.039062 0.191406 27.546875 1.046875 23.734375 1.046875 C 19.753906 1.046875 16.289062 0.253906 13.34375 -1.328125 C 10.394531 -2.921875 8.082031 -5.046875 6.40625 -7.703125 C 4.726562 -10.359375 3.691406 -13.273438 3.296875 -16.453125 L 14.8125 -17.84375 C 15.039062 -15.414062 15.890625 -13.304688 17.359375 -11.515625 C 18.835938 -9.722656 20.9375 -8.828125 23.65625 -8.828125 C 26.476562 -8.828125 28.625 -9.878906 30.09375 -11.984375 C 31.570312 -14.097656 32.3125 -16.484375 32.3125 -19.140625 C 32.3125 -21.742188 31.585938 -24.007812 30.140625 -25.9375 C 28.703125 -27.875 26.679688 -28.84375 24.078125 -28.84375 C 22.347656 -28.84375 20.53125 -28.554688 18.625 -27.984375 L 19.921875 -37.59375 L 20.1875 -37.59375 C 23.363281 -37.65625 25.757812 -38.40625 27.375 -39.84375 C 28.988281 -41.289062 29.796875 -43.226562 29.796875 -45.65625 C 29.796875 -47.726562 29.175781 -49.367188 27.9375 -50.578125 C 26.695312 -51.796875 25.035156 -52.40625 22.953125 -52.40625 C 20.929688 -52.40625 19.210938 -51.726562 17.796875 -50.375 C 16.378906 -49.019531 15.5 -46.953125 15.15625 -44.171875 L 4.15625 -46.078125 C 5.25 -51.679688 7.457031 -55.78125 10.78125 -58.375 C 14.101562 -60.976562 18.273438 -62.28125 23.296875 -62.28125 Z M 23.296875 -62.28125 "/></g></g></g><g fill="#000000" fill-opacity="1"><g transform="translate(327.311864, 70.743654)"><g/></g></g><g fill="#000000" fill-opacity="1"><g transform="translate(351.390369, 70.743654)"><g><path d="M 48.9375 -51.546875 L 18.890625 -51.546875 L 18.890625 -36.8125 L 44.875 -36.8125 L 44.875 -26.328125 L 18.890625 -26.328125 L 18.890625 0 L 6.40625 0 L 6.40625 -62.03125 L 48.9375 -62.03125 Z M 48.9375 -51.546875 "/></g></g></g><g fill="#000000" fill-opacity="1"><g transform="translate(404.311142, 70.743654)"><g><path d="M 18.109375 -51.015625 L 6.234375 -51.015625 L 6.234375 -62.03125 L 18.109375 -62.03125 Z M 18.109375 0 L 6.234375 0 L 6.234375 -44.875 L 18.109375 -44.875 Z M 18.109375 0 "/></g></g></g><g fill="#000000" fill-opacity="1"><g transform="translate(428.389647, 70.743654)"><g><path d="M 32.046875 -45.90625 C 34.703125 -45.90625 37.007812 -45.457031 38.96875 -44.5625 C 40.9375 -43.664062 42.5 -42.613281 43.65625 -41.40625 C 45.039062 -39.90625 45.945312 -38.128906 46.375 -36.078125 C 46.8125 -34.023438 47.03125 -31.757812 47.03125 -29.28125 L 47.03125 0 L 35.171875 0 L 35.171875 -24.515625 C 35.171875 -28.671875 34.707031 -31.757812 33.78125 -33.78125 C 32.851562 -35.800781 30.890625 -36.8125 27.890625 -36.8125 C 25.066406 -36.8125 22.875 -36.003906 21.3125 -34.390625 C 19.75 -32.773438 18.820312 -30.898438 18.53125 -28.765625 C 18.363281 -27.378906 18.234375 -26.132812 18.140625 -25.03125 C 18.054688 -23.9375 18.015625 -22.695312 18.015625 -21.3125 L 18.015625 0 L 6.15625 0 L 6.15625 -44.875 L 17.40625 -44.875 L 17.40625 -38.28125 C 18.675781 -40.1875 20.566406 -41.929688 23.078125 -43.515625 C 25.597656 -45.109375 28.585938 -45.90625 32.046875 -45.90625 Z M 32.046875 -45.90625 "/></g></g></g><g fill="#000000" fill-opacity="1"><g transform="translate(481.310421, 70.743654)"><g><path d="M 23.734375 -45.90625 C 29.453125 -45.90625 33.695312 -45.171875 36.46875 -43.703125 C 39.238281 -42.234375 40.984375 -40.296875 41.703125 -37.890625 C 42.429688 -35.492188 42.765625 -32.332031 42.703125 -28.40625 L 42.625 -15.328125 C 42.5625 -11.234375 42.703125 -8.257812 43.046875 -6.40625 C 43.398438 -4.5625 44.125 -2.425781 45.21875 0 L 33.53125 0 C 33.238281 -0.632812 32.71875 -2.28125 31.96875 -4.9375 C 29.832031 -2.851562 27.625 -1.332031 25.34375 -0.375 C 23.0625 0.570312 20.617188 1.046875 18.015625 1.046875 C 13.566406 1.046875 9.972656 -0.179688 7.234375 -2.640625 C 4.492188 -5.097656 3.125 -8.289062 3.125 -12.21875 C 3.125 -15.507812 3.945312 -18.117188 5.59375 -20.046875 C 7.238281 -21.984375 9.242188 -23.382812 11.609375 -24.25 C 13.972656 -25.113281 16.773438 -25.863281 20.015625 -26.5 C 24.972656 -27.425781 28.640625 -28.351562 31.015625 -29.28125 L 31.015625 -31.1875 C 31.015625 -33.144531 30.4375 -34.570312 29.28125 -35.46875 C 28.125 -36.363281 26.015625 -36.8125 22.953125 -36.8125 C 20.585938 -36.8125 18.828125 -36.332031 17.671875 -35.375 C 16.515625 -34.425781 15.648438 -33.03125 15.078125 -31.1875 L 4.328125 -33.171875 C 5.484375 -37.566406 7.5625 -40.785156 10.5625 -42.828125 C 13.570312 -44.878906 17.960938 -45.90625 23.734375 -45.90625 Z M 23.5625 -19.65625 L 21.5625 -19.234375 C 17.175781 -18.304688 14.984375 -16.398438 14.984375 -13.515625 C 14.984375 -11.785156 15.601562 -10.328125 16.84375 -9.140625 C 18.09375 -7.953125 19.664062 -7.359375 21.5625 -7.359375 C 23.125 -7.359375 24.6875 -7.757812 26.25 -8.5625 C 27.8125 -9.375 29.023438 -10.445312 29.890625 -11.78125 C 30.640625 -12.988281 31.015625 -15.066406 31.015625 -18.015625 L 31.015625 -21.5625 C 28.765625 -20.875 26.28125 -20.238281 23.5625 -19.65625 Z M 23.5625 -19.65625 "/></g></g></g><g fill="#000000" fill-opacity="1"><g transform="translate(529.467432, 70.743654)"><g><path d="M 18.109375 0 L 6.234375 0 L 6.234375 -62.03125 L 18.109375 -62.03125 Z M 18.109375 0 "/></g></g></g><g fill="#000000" fill-opacity="1"><g transform="translate(553.545937, 70.743654)"><g/></g></g><g fill="#000000" fill-opacity="1"><g transform="translate(577.624442, 70.743654)"><g><path d="M 10.140625 -58.8125 C 11.296875 -60.257812 12.796875 -61.328125 14.640625 -62.015625 C 16.484375 -62.710938 18.765625 -63.0625 21.484375 -63.0625 C 24.828125 -63.0625 28.117188 -62.570312 31.359375 -61.59375 L 29.796875 -53.28125 C 27.773438 -53.738281 25.957031 -53.96875 24.34375 -53.96875 C 22.488281 -53.96875 21.210938 -53.519531 20.515625 -52.625 C 19.828125 -51.726562 19.484375 -50.414062 19.484375 -48.6875 L 19.484375 -44.875 L 28.40625 -44.875 L 28.40625 -35.421875 L 19.484375 -35.421875 L 19.484375 0 L 7.625 0 L 7.625 -35.421875 L 1.046875 -35.421875 L 1.046875 -44.875 L 7.625 -44.875 L 7.625 -49.296875 C 7.625 -53.566406 8.460938 -56.738281 10.140625 -58.8125 Z M 10.140625 -58.8125 "/></g></g></g><g fill="#000000" fill-opacity="1"><g transform="translate(606.46671, 70.743654)"><g><path d="M 18.109375 -51.015625 L 6.234375 -51.015625 L 6.234375 -62.03125 L 18.109375 -62.03125 Z M 18.109375 0 L 6.234375 0 L 6.234375 -44.875 L 18.109375 -44.875 Z M 18.109375 0 "/></g></g></g><g fill="#000000" fill-opacity="1"><g transform="translate(630.545215, 70.743654)"><g><path d="M 22.515625 -45.90625 C 25.578125 -45.90625 28.25 -45.238281 30.53125 -43.90625 C 32.8125 -42.582031 34.675781 -40.828125 36.125 -38.640625 L 36.296875 -38.640625 L 36.296875 -44.875 L 47.390625 -44.875 L 47.390625 -3.8125 C 47.390625 1.207031 46.8125 5.289062 45.65625 8.4375 C 44.5 11.59375 42.375 14.003906 39.28125 15.671875 C 36.195312 17.347656 31.796875 18.1875 26.078125 18.1875 C 18.796875 18.1875 13.492188 16.898438 10.171875 14.328125 C 6.859375 11.765625 5.171875 7.96875 5.109375 2.9375 L 18.71875 4.59375 C 18.945312 6.382812 19.625 7.582031 20.75 8.1875 C 21.875 8.789062 23.503906 9.09375 25.640625 9.09375 C 29.335938 9.09375 31.90625 8.441406 33.34375 7.140625 C 34.789062 5.847656 35.515625 3.582031 35.515625 0.34375 L 35.515625 -7.28125 L 35.34375 -7.28125 C 33.84375 -5.082031 31.921875 -3.316406 29.578125 -1.984375 C 27.242188 -0.660156 24.75 0 22.09375 0 C 18.394531 0 15.144531 -0.976562 12.34375 -2.9375 C 9.539062 -4.90625 7.375 -7.617188 5.84375 -11.078125 C 4.3125 -14.546875 3.546875 -18.421875 3.546875 -22.703125 C 3.546875 -28.296875 4.515625 -32.828125 6.453125 -36.296875 C 8.390625 -39.765625 10.800781 -42.234375 13.6875 -43.703125 C 16.570312 -45.171875 19.515625 -45.90625 22.515625 -45.90625 Z M 15.765625 -23.390625 C 15.765625 -19.640625 16.515625 -16.421875 18.015625 -13.734375 C 19.515625 -11.046875 21.96875 -9.703125 25.375 -9.703125 C 27.976562 -9.703125 30.363281 -10.710938 32.53125 -12.734375 C 34.695312 -14.753906 35.78125 -18.21875 35.78125 -23.125 C 35.78125 -26.769531 34.984375 -29.960938 33.390625 -32.703125 C 31.804688 -35.441406 29.164062 -36.8125 25.46875 -36.8125 C 21.882812 -36.8125 19.367188 -35.425781 17.921875 -32.65625 C 16.484375 -29.882812 15.765625 -26.796875 15.765625 -23.390625 Z M 15.765625 -23.390625 "/></g></g></g><g fill="#000000" fill-opacity="1"><g transform="translate(683.465989, 70.743654)"><g><path d="M 18.015625 -39.15625 C 20.035156 -41.519531 22.15625 -43.234375 24.375 -44.296875 C 26.601562 -45.367188 29.019531 -45.90625 31.625 -45.90625 C 34.101562 -45.90625 36.304688 -45.53125 38.234375 -44.78125 C 40.171875 -44.03125 41.773438 -43.050781 43.046875 -41.84375 C 45.648438 -39.300781 46.953125 -34.625 46.953125 -27.8125 L 46.953125 0 L 35.078125 0 L 35.078125 -25.296875 C 35.078125 -28.003906 34.90625 -30.164062 34.5625 -31.78125 C 34.21875 -33.40625 33.523438 -34.648438 32.484375 -35.515625 C 31.441406 -36.378906 29.851562 -36.8125 27.71875 -36.8125 C 23.96875 -36.8125 21.410156 -35.597656 20.046875 -33.171875 C 18.691406 -30.753906 18.015625 -27.519531 18.015625 -23.46875 L 18.015625 0 L 6.15625 0 L 6.15625 -62.03125 L 18.015625 -62.03125 Z M 18.015625 -39.15625 "/></g></g></g><g fill="#000000" fill-opacity="1"><g transform="translate(736.386762, 70.743654)"><g><path d="M 18.71875 -44.875 L 26.765625 -44.875 L 26.765625 -35.421875 L 18.71875 -35.421875 L 18.71875 -15.671875 C 18.71875 -13.773438 18.785156 -12.363281 18.921875 -11.4375 C 19.066406 -10.507812 19.367188 -9.84375 19.828125 -9.4375 C 20.296875 -9.03125 21.019531 -8.828125 22 -8.828125 C 23.21875 -8.828125 24.804688 -9.207031 26.765625 -9.96875 L 27.8125 -0.78125 C 26.59375 -0.195312 25.117188 0.25 23.390625 0.5625 C 21.660156 0.882812 20.015625 1.046875 18.453125 1.046875 C 16.203125 1.046875 14.207031 0.671875 12.46875 -0.078125 C 10.738281 -0.835938 9.46875 -1.851562 8.65625 -3.125 C 7.789062 -4.5625 7.253906 -6.160156 7.046875 -7.921875 C 6.847656 -9.679688 6.75 -11.890625 6.75 -14.546875 L 6.75 -35.421875 L 1.296875 -35.421875 L 1.296875 -44.875 L 6.75 -44.875 L 6.75 -53.796875 L 18.71875 -60.8125 Z M 18.71875 -44.875 "/></g></g></g><g fill="#000000" fill-opacity="1"><g transform="translate(0.00000525, 220.743646)"><g><path d="M 22.8125 0.671875 C 19.40625 0.671875 16.347656 -0.144531 13.640625 -1.78125 C 10.929688 -3.425781 8.773438 -6.03125 7.171875 -9.59375 C 5.566406 -13.15625 4.765625 -17.6875 4.765625 -23.1875 C 4.765625 -28.6875 5.566406 -33.21875 7.171875 -36.78125 C 8.773438 -40.34375 10.929688 -42.941406 13.640625 -44.578125 C 16.347656 -46.222656 19.40625 -47.046875 22.8125 -47.046875 C 26.21875 -47.046875 29.269531 -46.222656 31.96875 -44.578125 C 34.675781 -42.941406 36.828125 -40.34375 38.421875 -36.78125 C 40.023438 -33.21875 40.828125 -28.6875 40.828125 -23.1875 C 40.828125 -17.6875 40.023438 -13.15625 38.421875 -9.59375 C 36.828125 -6.03125 34.675781 -3.425781 31.96875 -1.78125 C 29.269531 -0.144531 26.21875 0.671875 22.8125 0.671875 Z M 22.8125 -4.375 C 26.851562 -4.375 29.914062 -5.828125 32 -8.734375 C 34.082031 -11.648438 35.125 -16.46875 35.125 -23.1875 C 35.125 -29.914062 34.082031 -34.734375 32 -37.640625 C 29.914062 -40.546875 26.851562 -42 22.8125 -42 C 20.144531 -42 17.898438 -41.382812 16.078125 -40.15625 C 14.265625 -38.9375 12.875 -36.941406 11.90625 -34.171875 C 10.945312 -31.398438 10.46875 -27.738281 10.46875 -23.1875 C 10.46875 -18.644531 10.945312 -14.988281 11.90625 -12.21875 C 12.875 -9.445312 14.265625 -7.445312 16.078125 -6.21875 C 17.898438 -4.988281 20.144531 -4.375 22.8125 -4.375 Z M 22.8125 -4.375 "/></g></g></g><g fill="#000000" fill-opacity="1"><g transform="translate(45.609481, 220.743646)"><g><path d="M 12.59375 0 L 7.296875 0 L 24.515625 -41.078125 L 24.328125 -41.75 L 1.71875 -41.75 L 1.71875 -46.375 L 30.015625 -46.375 L 30.015625 -41.359375 Z M 12.59375 0 "/></g></g></g><g fill="#000000" fill-opacity="1"><g transform="translate(77.643952, 220.743646)"><g/></g></g><g fill="#000000" fill-opacity="1"><g transform="translate(93.566036, 220.743646)"><g><path d="M 15.328125 0.671875 C 13.015625 0.671875 10.894531 0.328125 8.96875 -0.359375 C 7.050781 -1.046875 5.429688 -1.984375 4.109375 -3.171875 C 2.785156 -4.359375 1.816406 -5.671875 1.203125 -7.109375 L 4.03125 -10.8125 L 4.828125 -10.8125 C 5.753906 -8.820312 7.117188 -7.25 8.921875 -6.09375 C 10.734375 -4.945312 12.867188 -4.375 15.328125 -4.375 C 17.304688 -4.375 18.921875 -4.695312 20.171875 -5.34375 C 21.421875 -5.988281 22.359375 -7.054688 22.984375 -8.546875 C 23.609375 -10.035156 23.921875 -12.050781 23.921875 -14.59375 L 23.921875 -46.375 L 29.34375 -46.375 L 29.34375 -14.5 C 29.34375 -9.25 28.171875 -5.40625 25.828125 -2.96875 C 23.492188 -0.539062 19.992188 0.671875 15.328125 0.671875 Z M 15.328125 0.671875 "/></g></g></g><g fill="#000000" fill-opacity="1"><g transform="translate(129.501741, 220.743646)"><g><path d="M 17.28125 0.671875 C 13.332031 0.671875 10.390625 -0.375 8.453125 -2.46875 C 6.515625 -4.5625 5.546875 -7.628906 5.546875 -11.671875 L 5.546875 -34.984375 L 10.71875 -34.984375 L 10.71875 -11.796875 C 10.71875 -6.492188 13.210938 -3.84375 18.203125 -3.84375 C 21.378906 -3.84375 23.882812 -4.878906 25.71875 -6.953125 C 27.5625 -9.023438 28.484375 -12.382812 28.484375 -17.03125 L 28.484375 -34.984375 L 33.65625 -34.984375 L 33.65625 0 L 28.765625 0 L 28.765625 -5.484375 L 28.109375 -5.640625 C 26.898438 -3.503906 25.453125 -1.914062 23.765625 -0.875 C 22.085938 0.15625 19.925781 0.671875 17.28125 0.671875 Z M 17.28125 0.671875 "/></g></g></g><g fill="#000000" fill-opacity="1"><g transform="translate(169.243522, 220.743646)"><g><path d="M 13.921875 0.671875 C 11.453125 0.671875 9.507812 -0.03125 8.09375 -1.4375 C 6.675781 -2.84375 5.96875 -4.941406 5.96875 -7.734375 L 5.96875 -49.046875 L 11.140625 -49.046875 L 11.140625 -8.09375 C 11.140625 -6.632812 11.414062 -5.582031 11.96875 -4.9375 C 12.53125 -4.289062 13.40625 -3.96875 14.59375 -3.96875 C 15.3125 -3.96875 16.039062 -4.082031 16.78125 -4.3125 L 17.21875 -4.1875 L 17.828125 -0.125 C 17.441406 0.125 16.894531 0.316406 16.1875 0.453125 C 15.476562 0.597656 14.722656 0.671875 13.921875 0.671875 Z M 13.921875 0.671875 "/></g></g></g><g fill="#000000" fill-opacity="1"><g transform="translate(188.285156, 220.743646)"><g/></g></g><g fill="#000000" fill-opacity="1"><g transform="translate(204.207239, 220.743646)"><g><path d="M 2.796875 -2.125 C 2.796875 -4.6875 3.070312 -6.75 3.625 -8.3125 C 4.1875 -9.875 5.144531 -11.332031 6.5 -12.6875 C 7.851562 -14.039062 10.007812 -15.796875 12.96875 -17.953125 L 18.078125 -21.671875 C 19.960938 -23.046875 21.492188 -24.3125 22.671875 -25.46875 C 23.859375 -26.632812 24.796875 -27.898438 25.484375 -29.265625 C 26.171875 -30.628906 26.515625 -32.15625 26.515625 -33.84375 C 26.515625 -36.59375 25.785156 -38.664062 24.328125 -40.0625 C 22.867188 -41.457031 20.585938 -42.15625 17.484375 -42.15625 C 15.023438 -42.15625 12.84375 -41.582031 10.9375 -40.4375 C 9.039062 -39.300781 7.519531 -37.6875 6.375 -35.59375 L 5.640625 -35.46875 L 2.375 -38.890625 C 3.945312 -41.429688 6.003906 -43.425781 8.546875 -44.875 C 11.097656 -46.320312 14.078125 -47.046875 17.484375 -47.046875 C 20.773438 -47.046875 23.507812 -46.484375 25.6875 -45.359375 C 27.875 -44.242188 29.484375 -42.695312 30.515625 -40.71875 C 31.554688 -38.738281 32.078125 -36.445312 32.078125 -33.84375 C 32.078125 -31.769531 31.640625 -29.832031 30.765625 -28.03125 C 29.898438 -26.238281 28.675781 -24.550781 27.09375 -22.96875 C 25.507812 -21.382812 23.519531 -19.710938 21.125 -17.953125 L 15.953125 -14.1875 C 14.023438 -12.769531 12.546875 -11.5625 11.515625 -10.5625 C 10.484375 -9.570312 9.726562 -8.601562 9.25 -7.65625 C 8.769531 -6.71875 8.53125 -5.664062 8.53125 -4.5 L 32.078125 -4.5 L 32.078125 0 L 2.796875 0 Z M 2.796875 -2.125 "/></g></g></g><g fill="#000000" fill-opacity="1"><g transform="translate(239.857483, 220.743646)"><g><path d="M 22.8125 0.671875 C 19.40625 0.671875 16.347656 -0.144531 13.640625 -1.78125 C 10.929688 -3.425781 8.773438 -6.03125 7.171875 -9.59375 C 5.566406 -13.15625 4.765625 -17.6875 4.765625 -23.1875 C 4.765625 -28.6875 5.566406 -33.21875 7.171875 -36.78125 C 8.773438 -40.34375 10.929688 -42.941406 13.640625 -44.578125 C 16.347656 -46.222656 19.40625 -47.046875 22.8125 -47.046875 C 26.21875 -47.046875 29.269531 -46.222656 31.96875 -44.578125 C 34.675781 -42.941406 36.828125 -40.34375 38.421875 -36.78125 C 40.023438 -33.21875 40.828125 -28.6875 40.828125 -23.1875 C 40.828125 -17.6875 40.023438 -13.15625 38.421875 -9.59375 C 36.828125 -6.03125 34.675781 -3.425781 31.96875 -1.78125 C 29.269531 -0.144531 26.21875 0.671875 22.8125 0.671875 Z M 22.8125 -4.375 C 26.851562 -4.375 29.914062 -5.828125 32 -8.734375 C 34.082031 -11.648438 35.125 -16.46875 35.125 -23.1875 C 35.125 -29.914062 34.082031 -34.734375 32 -37.640625 C 29.914062 -40.546875 26.851562 -42 22.8125 -42 C 20.144531 -42 17.898438 -41.382812 16.078125 -40.15625 C 14.265625 -38.9375 12.875 -36.941406 11.90625 -34.171875 C 10.945312 -31.398438 10.46875 -27.738281 10.46875 -23.1875 C 10.46875 -18.644531 10.945312 -14.988281 11.90625 -12.21875 C 12.875 -9.445312 14.265625 -7.445312 16.078125 -6.21875 C 17.898438 -4.988281 20.144531 -4.375 22.8125 -4.375 Z M 22.8125 -4.375 "/></g></g></g><g fill="#000000" fill-opacity="1"><g transform="translate(285.466959, 220.743646)"><g><path d="M 2.796875 -2.125 C 2.796875 -4.6875 3.070312 -6.75 3.625 -8.3125 C 4.1875 -9.875 5.144531 -11.332031 6.5 -12.6875 C 7.851562 -14.039062 10.007812 -15.796875 12.96875 -17.953125 L 18.078125 -21.671875 C 19.960938 -23.046875 21.492188 -24.3125 22.671875 -25.46875 C 23.859375 -26.632812 24.796875 -27.898438 25.484375 -29.265625 C 26.171875 -30.628906 26.515625 -32.15625 26.515625 -33.84375 C 26.515625 -36.59375 25.785156 -38.664062 24.328125 -40.0625 C 22.867188 -41.457031 20.585938 -42.15625 17.484375 -42.15625 C 15.023438 -42.15625 12.84375 -41.582031 10.9375 -40.4375 C 9.039062 -39.300781 7.519531 -37.6875 6.375 -35.59375 L 5.640625 -35.46875 L 2.375 -38.890625 C 3.945312 -41.429688 6.003906 -43.425781 8.546875 -44.875 C 11.097656 -46.320312 14.078125 -47.046875 17.484375 -47.046875 C 20.773438 -47.046875 23.507812 -46.484375 25.6875 -45.359375 C 27.875 -44.242188 29.484375 -42.695312 30.515625 -40.71875 C 31.554688 -38.738281 32.078125 -36.445312 32.078125 -33.84375 C 32.078125 -31.769531 31.640625 -29.832031 30.765625 -28.03125 C 29.898438 -26.238281 28.675781 -24.550781 27.09375 -22.96875 C 25.507812 -21.382812 23.519531 -19.710938 21.125 -17.953125 L 15.953125 -14.1875 C 14.023438 -12.769531 12.546875 -11.5625 11.515625 -10.5625 C 10.484375 -9.570312 9.726562 -8.601562 9.25 -7.65625 C 8.769531 -6.71875 8.53125 -5.664062 8.53125 -4.5 L 32.078125 -4.5 L 32.078125 0 L 2.796875 0 Z M 2.796875 -2.125 "/></g></g></g><g fill="#000000" fill-opacity="1"><g transform="translate(321.117203, 220.743646)"><g><path d="M 18.375 0.671875 C 13.863281 0.671875 10.285156 -0.34375 7.640625 -2.375 C 5.003906 -4.40625 3.289062 -7.21875 2.5 -10.8125 L 6.5625 -12.65625 L 7.296875 -12.53125 C 8.097656 -9.757812 9.335938 -7.6875 11.015625 -6.3125 C 12.703125 -4.9375 15.15625 -4.25 18.375 -4.25 C 21.644531 -4.25 24.132812 -5 25.84375 -6.5 C 27.5625 -8 28.421875 -10.210938 28.421875 -13.140625 C 28.421875 -15.992188 27.546875 -18.171875 25.796875 -19.671875 C 24.054688 -21.171875 21.316406 -21.921875 17.578125 -21.921875 L 12.53125 -21.921875 L 12.53125 -26.421875 L 17.03125 -26.421875 C 19.945312 -26.421875 22.265625 -27.144531 23.984375 -28.59375 C 25.710938 -30.039062 26.578125 -32.085938 26.578125 -34.734375 C 26.578125 -37.253906 25.832031 -39.140625 24.34375 -40.390625 C 22.851562 -41.648438 20.765625 -42.28125 18.078125 -42.28125 C 13.410156 -42.28125 10.082031 -40.421875 8.09375 -36.703125 L 7.359375 -36.578125 L 4.3125 -39.90625 C 5.5625 -42.039062 7.359375 -43.765625 9.703125 -45.078125 C 12.054688 -46.390625 14.847656 -47.046875 18.078125 -47.046875 C 21.035156 -47.046875 23.554688 -46.582031 25.640625 -45.65625 C 27.722656 -44.738281 29.304688 -43.410156 30.390625 -41.671875 C 31.472656 -39.941406 32.015625 -37.875 32.015625 -35.46875 C 32.015625 -33.1875 31.351562 -31.179688 30.03125 -29.453125 C 28.707031 -27.734375 26.957031 -26.375 24.78125 -25.375 L 24.78125 -24.71875 C 27.84375 -23.976562 30.144531 -22.597656 31.6875 -20.578125 C 33.226562 -18.554688 34 -16.078125 34 -13.140625 C 34 -8.734375 32.6875 -5.328125 30.0625 -2.921875 C 27.445312 -0.523438 23.550781 0.671875 18.375 0.671875 Z M 18.375 0.671875 "/></g></g></g><g fill="#000000" fill-opacity="1"><g transform="translate(358.797354, 220.743646)"><g/></g></g><g fill="#000000" fill-opacity="1"><g transform="translate(374.719438, 220.743646)"><g><path d="M 21.34375 -20.203125 L 3.296875 -20.203125 L 3.296875 -24.84375 L 21.34375 -24.84375 Z M 21.34375 -20.203125 "/></g></g></g><g fill="#000000" fill-opacity="1"><g transform="translate(399.33205, 220.743646)"><g/></g></g><g fill="#000000" fill-opacity="1"><g transform="translate(415.254122, 220.743646)"><g><path d="M 22.140625 0.671875 C 18.859375 0.671875 15.914062 -0.113281 13.3125 -1.6875 C 10.71875 -3.269531 8.644531 -5.835938 7.09375 -9.390625 C 5.539062 -12.941406 4.765625 -17.539062 4.765625 -23.1875 C 4.765625 -28.664062 5.539062 -33.1875 7.09375 -36.75 C 8.644531 -40.3125 10.765625 -42.914062 13.453125 -44.5625 C 16.140625 -46.21875 19.207031 -47.046875 22.65625 -47.046875 C 28.59375 -47.046875 32.96875 -45.238281 35.78125 -41.625 L 33.125 -38.03125 L 32.328125 -38.03125 C 30.046875 -40.78125 26.820312 -42.15625 22.65625 -42.15625 C 18.632812 -42.15625 15.566406 -40.640625 13.453125 -37.609375 C 11.335938 -34.578125 10.28125 -29.726562 10.28125 -23.0625 L 10.9375 -22.875 C 12.207031 -25.5 13.859375 -27.460938 15.890625 -28.765625 C 17.921875 -30.078125 20.414062 -30.734375 23.375 -30.734375 C 26.320312 -30.734375 28.867188 -30.109375 31.015625 -28.859375 C 33.160156 -27.617188 34.800781 -25.816406 35.9375 -23.453125 C 37.082031 -21.097656 37.65625 -18.3125 37.65625 -15.09375 C 37.65625 -11.882812 37.019531 -9.09375 35.75 -6.71875 C 34.476562 -4.351562 32.675781 -2.53125 30.34375 -1.25 C 28.007812 0.03125 25.273438 0.671875 22.140625 0.671875 Z M 22.140625 -4.25 C 25.210938 -4.25 27.613281 -5.175781 29.34375 -7.03125 C 31.070312 -8.894531 31.9375 -11.582031 31.9375 -15.09375 C 31.9375 -18.625 31.070312 -21.320312 29.34375 -23.1875 C 27.613281 -25.050781 25.210938 -25.984375 22.140625 -25.984375 C 20.046875 -25.984375 18.226562 -25.550781 16.6875 -24.6875 C 15.144531 -23.832031 13.953125 -22.59375 13.109375 -20.96875 C 12.273438 -19.34375 11.859375 -17.382812 11.859375 -15.09375 C 11.859375 -12.832031 12.273438 -10.890625 13.109375 -9.265625 C 13.953125 -7.640625 15.144531 -6.394531 16.6875 -5.53125 C 18.226562 -4.675781 20.046875 -4.25 22.140625 -4.25 Z M 22.140625 -4.25 "/></g></g></g><g fill="#000000" fill-opacity="1"><g transform="translate(457.025811, 220.743646)"><g/></g></g><g fill="#000000" fill-opacity="1"><g transform="translate(472.947906, 220.743646)"><g><path d="M 6.09375 0 L 6.09375 -49.046875 L 11.265625 -49.046875 L 11.265625 -30.015625 L 11.921875 -29.890625 C 14.421875 -33.734375 18.03125 -35.65625 22.75 -35.65625 C 26.957031 -35.65625 30.003906 -34.582031 31.890625 -32.4375 C 33.785156 -30.289062 34.734375 -26.984375 34.734375 -22.515625 L 34.734375 0 L 29.5625 0 L 29.5625 -22.390625 C 29.5625 -24.503906 29.289062 -26.203125 28.75 -27.484375 C 28.21875 -28.765625 27.382812 -29.695312 26.25 -30.28125 C 25.113281 -30.863281 23.628906 -31.15625 21.796875 -31.15625 C 18.617188 -31.15625 16.066406 -30.128906 14.140625 -28.078125 C 12.222656 -26.023438 11.265625 -22.648438 11.265625 -17.953125 L 11.265625 0 Z M 6.09375 0 "/></g></g></g><g fill="#000000" fill-opacity="1"><g transform="translate(513.228864, 220.743646)"><g><path d="M 20.078125 0.671875 C 16.773438 0.671875 13.898438 -0.0234375 11.453125 -1.421875 C 9.015625 -2.816406 7.132812 -4.875 5.8125 -7.59375 C 4.5 -10.3125 3.84375 -13.609375 3.84375 -17.484375 C 3.84375 -21.347656 4.5 -24.644531 5.8125 -27.375 C 7.132812 -30.101562 9.015625 -32.164062 11.453125 -33.5625 C 13.898438 -34.957031 16.773438 -35.65625 20.078125 -35.65625 C 23.378906 -35.65625 26.25 -34.957031 28.6875 -33.5625 C 31.132812 -32.164062 33.019531 -30.101562 34.34375 -27.375 C 35.664062 -24.644531 36.328125 -21.347656 36.328125 -17.484375 C 36.328125 -13.609375 35.664062 -10.3125 34.34375 -7.59375 C 33.019531 -4.875 31.132812 -2.816406 28.6875 -1.421875 C 26.25 -0.0234375 23.378906 0.671875 20.078125 0.671875 Z M 20.078125 -3.96875 C 23.566406 -3.96875 26.234375 -5.066406 28.078125 -7.265625 C 29.929688 -9.460938 30.859375 -12.867188 30.859375 -17.484375 C 30.859375 -22.109375 29.929688 -25.519531 28.078125 -27.71875 C 26.234375 -29.925781 23.566406 -31.03125 20.078125 -31.03125 C 16.585938 -31.03125 13.910156 -29.921875 12.046875 -27.703125 C 10.191406 -25.492188 9.265625 -22.085938 9.265625 -17.484375 C 9.265625 -12.867188 10.191406 -9.460938 12.046875 -7.265625 C 13.910156 -5.066406 16.585938 -3.96875 20.078125 -3.96875 Z M 20.078125 -3.96875 "/></g></g></g><g fill="#000000" fill-opacity="1"><g transform="translate(553.382976, 220.743646)"><g><path d="M 17.28125 0.671875 C 13.332031 0.671875 10.390625 -0.375 8.453125 -2.46875 C 6.515625 -4.5625 5.546875 -7.628906 5.546875 -11.671875 L 5.546875 -34.984375 L 10.71875 -34.984375 L 10.71875 -11.796875 C 10.71875 -6.492188 13.210938 -3.84375 18.203125 -3.84375 C 21.378906 -3.84375 23.882812 -4.878906 25.71875 -6.953125 C 27.5625 -9.023438 28.484375 -12.382812 28.484375 -17.03125 L 28.484375 -34.984375 L 33.65625 -34.984375 L 33.65625 0 L 28.765625 0 L 28.765625 -5.484375 L 28.109375 -5.640625 C 26.898438 -3.503906 25.453125 -1.914062 23.765625 -0.875 C 22.085938 0.15625 19.925781 0.671875 17.28125 0.671875 Z M 17.28125 0.671875 "/></g></g></g><g fill="#000000" fill-opacity="1"><g transform="translate(593.124734, 220.743646)"><g><path d="M 6.09375 0 L 6.09375 -34.984375 L 11.015625 -34.984375 L 11.015625 -29.5 L 11.671875 -29.34375 C 13.296875 -33.320312 16.363281 -35.3125 20.875 -35.3125 C 23.257812 -35.3125 25.046875 -34.875 26.234375 -34 L 24.90625 -29.625 L 24.265625 -29.5 C 22.953125 -30.15625 21.515625 -30.484375 19.953125 -30.484375 C 17.160156 -30.484375 15.015625 -29.4375 13.515625 -27.34375 C 12.015625 -25.25 11.265625 -21.851562 11.265625 -17.15625 L 11.265625 0 Z M 6.09375 0 "/></g></g></g><g fill="#000000" fill-opacity="1"><g transform="translate(620.147896, 220.743646)"><g><path d="M 15.953125 0.671875 C 13.753906 0.671875 11.71875 0.378906 9.84375 -0.203125 C 7.976562 -0.785156 6.398438 -1.582031 5.109375 -2.59375 C 3.816406 -3.613281 2.90625 -4.757812 2.375 -6.03125 L 5.421875 -9.203125 L 6.09375 -9.203125 C 7.226562 -7.460938 8.597656 -6.15625 10.203125 -5.28125 C 11.816406 -4.40625 13.734375 -3.96875 15.953125 -3.96875 C 18.535156 -3.96875 20.5 -4.46875 21.84375 -5.46875 C 23.1875 -6.476562 23.859375 -7.878906 23.859375 -9.671875 C 23.859375 -11.046875 23.445312 -12.179688 22.625 -13.078125 C 21.8125 -13.984375 20.5 -14.65625 18.6875 -15.09375 L 12.78125 -16.5625 C 9.632812 -17.320312 7.335938 -18.523438 5.890625 -20.171875 C 4.441406 -21.828125 3.71875 -23.867188 3.71875 -26.296875 C 3.71875 -28.203125 4.203125 -29.859375 5.171875 -31.265625 C 6.140625 -32.671875 7.539062 -33.753906 9.375 -34.515625 C 11.207031 -35.273438 13.378906 -35.65625 15.890625 -35.65625 C 19.109375 -35.65625 21.640625 -35.203125 23.484375 -34.296875 C 25.335938 -33.398438 26.785156 -32.148438 27.828125 -30.546875 L 24.90625 -27.6875 L 24.265625 -27.6875 C 23.148438 -28.976562 21.929688 -29.910156 20.609375 -30.484375 C 19.285156 -31.054688 17.710938 -31.34375 15.890625 -31.34375 C 13.585938 -31.34375 11.820312 -30.929688 10.59375 -30.109375 C 9.363281 -29.285156 8.75 -28.085938 8.75 -26.515625 C 8.75 -25.097656 9.179688 -23.957031 10.046875 -23.09375 C 10.921875 -22.226562 12.4375 -21.53125 14.59375 -21 L 20.390625 -19.609375 C 23.441406 -18.890625 25.644531 -17.691406 27 -16.015625 C 28.351562 -14.347656 29.03125 -12.253906 29.03125 -9.734375 C 29.03125 -7.679688 28.539062 -5.875 27.5625 -4.3125 C 26.59375 -2.75 25.125 -1.523438 23.15625 -0.640625 C 21.1875 0.234375 18.785156 0.671875 15.953125 0.671875 Z M 15.953125 0.671875 "/></g></g></g><g fill="#000000" fill-opacity="1"><g transform="translate(0.00000525, 425.493636)"><g><path d="M 15.109375 -58.703125 L 17.296875 -54.078125 C 15.179688 -53.429688 13.609375 -52.441406 12.578125 -51.109375 C 11.554688 -49.785156 11.019531 -47.988281 10.96875 -45.71875 L 16.328125 -45.71875 L 16.328125 -34.59375 L 5.203125 -34.59375 L 5.203125 -43.53125 C 5.203125 -47.582031 5.957031 -50.785156 7.46875 -53.140625 C 8.988281 -55.503906 11.535156 -57.359375 15.109375 -58.703125 Z M 33.78125 -58.703125 L 35.96875 -54.078125 C 33.800781 -53.429688 32.226562 -52.429688 31.25 -51.078125 C 30.28125 -49.722656 29.742188 -47.9375 29.640625 -45.71875 L 35 -45.71875 L 35 -34.59375 L 23.875 -34.59375 L 23.875 -43.609375 C 23.875 -47.671875 24.644531 -50.863281 26.1875 -53.1875 C 27.726562 -55.519531 30.257812 -57.359375 33.78125 -58.703125 Z M 33.78125 -58.703125 "/></g></g></g><g fill="#000000" fill-opacity="1"><g transform="translate(40.599613, 425.493636)"><g><path d="M 17.21875 0 L 5.515625 0 L 5.515625 -58.140625 L 17.21875 -58.140625 Z M 17.21875 0 "/></g></g></g><g fill="#000000" fill-opacity="1"><g transform="translate(63.173003, 425.493636)"><g><path d="M 16.640625 -49.125 C 16.640625 -45.125 15.867188 -41.941406 14.328125 -39.578125 C 12.785156 -37.222656 10.253906 -35.375 6.734375 -34.03125 L 4.546875 -38.65625 C 6.710938 -39.351562 8.296875 -40.351562 9.296875 -41.65625 C 10.296875 -42.957031 10.820312 -44.742188 10.875 -47.015625 L 5.515625 -47.015625 L 5.515625 -58.140625 L 16.640625 -58.140625 Z M 16.640625 -49.125 "/></g></g></g><g fill="#000000" fill-opacity="1"><g transform="translate(85.746393, 425.493636)"><g><path d="M 28.421875 -43.03125 C 33.890625 -43.03125 37.867188 -40.8125 40.359375 -36.375 C 43.984375 -40.8125 48.257812 -43.03125 53.1875 -43.03125 C 57.84375 -43.03125 61.304688 -41.757812 63.578125 -39.21875 C 65.859375 -36.675781 67 -32.859375 67 -27.765625 L 67 0 L 55.875 0 L 55.875 -25.171875 C 55.875 -28.203125 55.476562 -30.515625 54.6875 -32.109375 C 53.90625 -33.710938 52.320312 -34.515625 49.9375 -34.515625 C 47.664062 -34.515625 45.835938 -33.726562 44.453125 -32.15625 C 43.078125 -30.582031 42.226562 -28.550781 41.90625 -26.0625 C 41.6875 -24.113281 41.578125 -22.382812 41.578125 -20.875 L 41.578125 0 L 30.453125 0 L 30.453125 -24.765625 C 30.453125 -28.171875 30.085938 -30.644531 29.359375 -32.1875 C 28.628906 -33.738281 27.070312 -34.515625 24.6875 -34.515625 C 22.957031 -34.515625 21.398438 -34.050781 20.015625 -33.125 C 18.640625 -32.207031 17.679688 -30.9375 17.140625 -29.3125 C 16.484375 -27.363281 16.15625 -24.628906 16.15625 -21.109375 L 16.15625 0 L 5.03125 0 L 5.03125 -42.0625 L 15.34375 -42.0625 L 15.515625 -36.375 C 17.242188 -38.488281 19.066406 -40.125 20.984375 -41.28125 C 22.910156 -42.445312 25.390625 -43.03125 28.421875 -43.03125 Z M 28.421875 -43.03125 "/></g></g></g><g fill="#000000" fill-opacity="1"><g transform="translate(157.932505, 425.493636)"><g/></g></g><g fill="#000000" fill-opacity="1"><g transform="translate(180.505895, 425.493636)"><g><path d="M 44.421875 -58.140625 L 44.421875 0 L 34.03125 0 L 34.03125 -6.171875 L 33.859375 -6.171875 C 32.078125 -3.460938 29.976562 -1.59375 27.5625 -0.5625 C 25.15625 0.457031 22.953125 0.96875 20.953125 0.96875 C 17.867188 0.96875 14.984375 0.128906 12.296875 -1.546875 C 9.617188 -3.222656 7.453125 -5.738281 5.796875 -9.09375 C 4.148438 -12.445312 3.328125 -16.5625 3.328125 -21.4375 C 3.328125 -26.144531 4.125 -30.125 5.71875 -33.375 C 7.320312 -36.625 9.460938 -39.046875 12.140625 -40.640625 C 14.816406 -42.234375 17.78125 -43.03125 21.03125 -43.03125 C 25.789062 -43.03125 29.878906 -41.082031 33.296875 -37.1875 L 33.296875 -58.140625 Z M 14.78125 -20.953125 C 14.78125 -16.296875 15.660156 -12.953125 17.421875 -10.921875 C 19.179688 -8.890625 21.25 -7.875 23.625 -7.875 C 25.09375 -7.875 26.566406 -8.253906 28.046875 -9.015625 C 29.535156 -9.773438 30.820312 -11.207031 31.90625 -13.3125 C 32.882812 -15.207031 33.375 -18.078125 33.375 -21.921875 C 33.375 -25.984375 32.503906 -29.097656 30.765625 -31.265625 C 29.035156 -33.429688 26.765625 -34.515625 23.953125 -34.515625 L 23.546875 -34.515625 C 20.410156 -34.347656 18.164062 -32.976562 16.8125 -30.40625 C 15.457031 -27.832031 14.78125 -24.679688 14.78125 -20.953125 Z M 14.78125 -20.953125 "/></g></g></g><g fill="#000000" fill-opacity="1"><g transform="translate(230.118617, 425.493636)"><g><path d="M 24.921875 -43.03125 C 29.472656 -43.03125 33.398438 -42 36.703125 -39.9375 C 40.003906 -37.882812 42.492188 -35.179688 44.171875 -31.828125 C 45.847656 -28.472656 46.6875 -24.925781 46.6875 -21.1875 C 46.6875 -17.289062 45.804688 -13.648438 44.046875 -10.265625 C 42.285156 -6.890625 39.769531 -4.171875 36.5 -2.109375 C 33.226562 -0.0546875 29.398438 0.96875 25.015625 0.96875 C 21.273438 0.96875 17.753906 0.195312 14.453125 -1.34375 C 11.148438 -2.882812 8.457031 -5.34375 6.375 -8.71875 C 4.289062 -12.101562 3.25 -16.394531 3.25 -21.59375 C 3.25 -25.226562 4.070312 -28.679688 5.71875 -31.953125 C 7.375 -35.222656 9.835938 -37.882812 13.109375 -39.9375 C 16.390625 -42 20.328125 -43.03125 24.921875 -43.03125 Z M 14.703125 -21.03125 C 14.703125 -16.8125 15.6875 -13.601562 17.65625 -11.40625 C 19.632812 -9.21875 22.054688 -8.125 24.921875 -8.125 C 27.796875 -8.125 30.234375 -9.203125 32.234375 -11.359375 C 34.242188 -13.523438 35.25 -16.773438 35.25 -21.109375 C 35.25 -25.117188 34.285156 -28.257812 32.359375 -30.53125 C 30.441406 -32.800781 27.9375 -33.9375 24.84375 -33.9375 C 22.03125 -33.9375 19.632812 -32.828125 17.65625 -30.609375 C 15.6875 -28.390625 14.703125 -25.195312 14.703125 -21.03125 Z M 14.703125 -21.03125 "/></g></g></g><g fill="#000000" fill-opacity="1"><g transform="translate(279.731339, 425.493636)"><g><path d="M 30.046875 -43.03125 C 32.535156 -43.03125 34.695312 -42.609375 36.53125 -41.765625 C 38.375 -40.929688 39.835938 -39.945312 40.921875 -38.8125 C 42.222656 -37.40625 43.078125 -35.738281 43.484375 -33.8125 C 43.890625 -31.894531 44.09375 -29.773438 44.09375 -27.453125 L 44.09375 0 L 32.96875 0 L 32.96875 -22.984375 C 32.96875 -26.878906 32.535156 -29.773438 31.671875 -31.671875 C 30.804688 -33.566406 28.960938 -34.515625 26.140625 -34.515625 C 23.492188 -34.515625 21.4375 -33.753906 19.96875 -32.234375 C 18.507812 -30.722656 17.644531 -28.960938 17.375 -26.953125 C 17.21875 -25.660156 17.097656 -24.5 17.015625 -23.46875 C 16.929688 -22.4375 16.890625 -21.269531 16.890625 -19.96875 L 16.890625 0 L 5.765625 0 L 5.765625 -42.0625 L 16.328125 -42.0625 L 16.328125 -35.890625 C 17.515625 -37.679688 19.285156 -39.316406 21.640625 -40.796875 C 23.992188 -42.285156 26.796875 -43.03125 30.046875 -43.03125 Z M 30.046875 -43.03125 "/></g></g></g><g fill="#000000" fill-opacity="1"><g transform="translate(329.34406, 425.493636)"><g><path d="M 21.921875 -43.03125 C 28.640625 -43.03125 33.648438 -40.851562 36.953125 -36.5 C 40.253906 -32.144531 41.90625 -25.929688 41.90625 -17.859375 L 13.96875 -17.859375 C 14.070312 -15.046875 14.894531 -12.625 16.4375 -10.59375 C 17.988281 -8.5625 20.222656 -7.546875 23.140625 -7.546875 C 24.984375 -7.546875 26.484375 -8.019531 27.640625 -8.96875 C 28.804688 -9.914062 29.660156 -11.394531 30.203125 -13.40625 L 41.328125 -11.53125 C 39.921875 -7.414062 37.644531 -4.300781 34.5 -2.1875 C 31.363281 -0.0820312 27.523438 0.96875 22.984375 0.96875 C 16.210938 0.96875 11.097656 -1.054688 7.640625 -5.109375 C 6.015625 -7.003906 4.765625 -9.382812 3.890625 -12.25 C 3.023438 -15.125 2.59375 -17.96875 2.59375 -20.78125 C 2.59375 -24.625 3.28125 -28.238281 4.65625 -31.625 C 6.039062 -35.007812 8.179688 -37.753906 11.078125 -39.859375 C 13.972656 -41.972656 17.585938 -43.03125 21.921875 -43.03125 Z M 14.203125 -24.6875 L 30.859375 -24.6875 C 30.804688 -28.09375 29.953125 -30.582031 28.296875 -32.15625 C 26.648438 -33.726562 24.71875 -34.515625 22.5 -34.515625 C 19.894531 -34.515625 17.859375 -33.578125 16.390625 -31.703125 C 14.929688 -29.835938 14.203125 -27.5 14.203125 -24.6875 Z M 14.203125 -24.6875 "/></g></g></g><g fill="#000000" fill-opacity="1"><g transform="translate(374.490817, 425.493636)"><g/></g></g><g fill="#000000" fill-opacity="1"><g transform="translate(397.064196, 425.493636)"><g><path d="M 25.328125 -43.03125 C 26.523438 -43.03125 27.785156 -42.84375 29.109375 -42.46875 C 30.429688 -42.09375 31.609375 -41.601562 32.640625 -41 L 29.15625 -31.265625 C 27.257812 -32.453125 25.523438 -33.046875 23.953125 -33.046875 C 21.835938 -33.046875 20.238281 -32.328125 19.15625 -30.890625 C 18.082031 -29.460938 17.367188 -27.460938 17.015625 -24.890625 C 16.660156 -22.316406 16.484375 -18.890625 16.484375 -14.609375 L 16.484375 0 L 5.359375 0 L 5.359375 -42.0625 L 15.671875 -42.0625 L 15.671875 -36.140625 L 15.828125 -36.140625 C 17.179688 -38.410156 18.535156 -40.125 19.890625 -41.28125 C 21.242188 -42.445312 23.054688 -43.03125 25.328125 -43.03125 Z M 25.328125 -43.03125 "/></g></g></g><g fill="#000000" fill-opacity="1"><g transform="translate(428.650711, 425.493636)"><g><path d="M 16.734375 -20.46875 C 16.734375 -17.488281 16.800781 -15.320312 16.9375 -13.96875 C 17.070312 -12.613281 17.351562 -11.53125 17.78125 -10.71875 C 18.269531 -9.800781 19.015625 -9.039062 20.015625 -8.4375 C 21.015625 -7.84375 22.25 -7.546875 23.71875 -7.546875 C 25.664062 -7.546875 27.421875 -8.085938 28.984375 -9.171875 C 30.554688 -10.253906 31.5625 -11.582031 32 -13.15625 C 32.476562 -14.726562 32.71875 -18.082031 32.71875 -23.21875 L 32.71875 -42.0625 L 43.84375 -42.0625 L 43.84375 0 L 33.53125 0 L 33.53125 -6.328125 L 33.375 -6.328125 C 31.800781 -3.953125 29.769531 -2.140625 27.28125 -0.890625 C 24.789062 0.347656 22.21875 0.96875 19.5625 0.96875 C 17.1875 0.96875 14.925781 0.484375 12.78125 -0.484375 C 10.644531 -1.460938 9.007812 -2.867188 7.875 -4.703125 C 7.0625 -6.003906 6.476562 -7.441406 6.125 -9.015625 C 5.78125 -10.585938 5.609375 -12.5625 5.609375 -14.9375 L 5.609375 -42.0625 L 16.734375 -42.0625 Z M 16.734375 -20.46875 "/></g></g></g><g fill="#000000" fill-opacity="1"><g transform="translate(478.26341, 425.493636)"><g><path d="M 30.046875 -43.03125 C 32.535156 -43.03125 34.695312 -42.609375 36.53125 -41.765625 C 38.375 -40.929688 39.835938 -39.945312 40.921875 -38.8125 C 42.222656 -37.40625 43.078125 -35.738281 43.484375 -33.8125 C 43.890625 -31.894531 44.09375 -29.773438 44.09375 -27.453125 L 44.09375 0 L 32.96875 0 L 32.96875 -22.984375 C 32.96875 -26.878906 32.535156 -29.773438 31.671875 -31.671875 C 30.804688 -33.566406 28.960938 -34.515625 26.140625 -34.515625 C 23.492188 -34.515625 21.4375 -33.753906 19.96875 -32.234375 C 18.507812 -30.722656 17.644531 -28.960938 17.375 -26.953125 C 17.21875 -25.660156 17.097656 -24.5 17.015625 -23.46875 C 16.929688 -22.4375 16.890625 -21.269531 16.890625 -19.96875 L 16.890625 0 L 5.765625 0 L 5.765625 -42.0625 L 16.328125 -42.0625 L 16.328125 -35.890625 C 17.515625 -37.679688 19.285156 -39.316406 21.640625 -40.796875 C 23.992188 -42.285156 26.796875 -43.03125 30.046875 -43.03125 Z M 30.046875 -43.03125 "/></g></g></g><g fill="#000000" fill-opacity="1"><g transform="translate(527.876109, 425.493636)"><g><path d="M 30.046875 -43.03125 C 32.535156 -43.03125 34.695312 -42.609375 36.53125 -41.765625 C 38.375 -40.929688 39.835938 -39.945312 40.921875 -38.8125 C 42.222656 -37.40625 43.078125 -35.738281 43.484375 -33.8125 C 43.890625 -31.894531 44.09375 -29.773438 44.09375 -27.453125 L 44.09375 0 L 32.96875 0 L 32.96875 -22.984375 C 32.96875 -26.878906 32.535156 -29.773438 31.671875 -31.671875 C 30.804688 -33.566406 28.960938 -34.515625 26.140625 -34.515625 C 23.492188 -34.515625 21.4375 -33.753906 19.96875 -32.234375 C 18.507812 -30.722656 17.644531 -28.960938 17.375 -26.953125 C 17.21875 -25.660156 17.097656 -24.5 17.015625 -23.46875 C 16.929688 -22.4375 16.890625 -21.269531 16.890625 -19.96875 L 16.890625 0 L 5.765625 0 L 5.765625 -42.0625 L 16.328125 -42.0625 L 16.328125 -35.890625 C 17.515625 -37.679688 19.285156 -39.316406 21.640625 -40.796875 C 23.992188 -42.285156 26.796875 -43.03125 30.046875 -43.03125 Z M 30.046875 -43.03125 "/></g></g></g><g fill="#000000" fill-opacity="1"><g transform="translate(577.488809, 425.493636)"><g><path d="M 16.96875 -47.828125 L 5.84375 -47.828125 L 5.84375 -58.140625 L 16.96875 -58.140625 Z M 16.96875 0 L 5.84375 0 L 5.84375 -42.0625 L 16.96875 -42.0625 Z M 16.96875 0 "/></g></g></g><g fill="#000000" fill-opacity="1"><g transform="translate(600.062187, 425.493636)"><g><path d="M 30.046875 -43.03125 C 32.535156 -43.03125 34.695312 -42.609375 36.53125 -41.765625 C 38.375 -40.929688 39.835938 -39.945312 40.921875 -38.8125 C 42.222656 -37.40625 43.078125 -35.738281 43.484375 -33.8125 C 43.890625 -31.894531 44.09375 -29.773438 44.09375 -27.453125 L 44.09375 0 L 32.96875 0 L 32.96875 -22.984375 C 32.96875 -26.878906 32.535156 -29.773438 31.671875 -31.671875 C 30.804688 -33.566406 28.960938 -34.515625 26.140625 -34.515625 C 23.492188 -34.515625 21.4375 -33.753906 19.96875 -32.234375 C 18.507812 -30.722656 17.644531 -28.960938 17.375 -26.953125 C 17.21875 -25.660156 17.097656 -24.5 17.015625 -23.46875 C 16.929688 -22.4375 16.890625 -21.269531 16.890625 -19.96875 L 16.890625 0 L 5.765625 0 L 5.765625 -42.0625 L 16.328125 -42.0625 L 16.328125 -35.890625 C 17.515625 -37.679688 19.285156 -39.316406 21.640625 -40.796875 C 23.992188 -42.285156 26.796875 -43.03125 30.046875 -43.03125 Z M 30.046875 -43.03125 "/></g></g></g><g fill="#000000" fill-opacity="1"><g transform="translate(649.674932, 425.493636)"><g><path d="M 16.640625 -49.125 C 16.640625 -45.125 15.867188 -41.941406 14.328125 -39.578125 C 12.785156 -37.222656 10.253906 -35.375 6.734375 -34.03125 L 4.546875 -38.65625 C 6.710938 -39.351562 8.296875 -40.351562 9.296875 -41.65625 C 10.296875 -42.957031 10.820312 -44.742188 10.875 -47.015625 L 5.515625 -47.015625 L 5.515625 -58.140625 L 16.640625 -58.140625 Z M 16.640625 -49.125 "/></g></g></g><g fill="#000000" fill-opacity="1"><g transform="translate(672.24831, 425.493636)"><g/></g></g><g fill="#000000" fill-opacity="1"><g transform="translate(694.821688, 425.493636)"><g><path d="M 16.234375 -49.203125 C 16.234375 -45.148438 15.472656 -41.941406 13.953125 -39.578125 C 12.441406 -37.222656 9.898438 -35.375 6.328125 -34.03125 L 4.140625 -38.65625 C 6.253906 -39.300781 7.8125 -40.285156 8.8125 -41.609375 C 9.8125 -42.941406 10.363281 -44.742188 10.46875 -47.015625 L 5.109375 -47.015625 L 5.109375 -58.140625 L 16.234375 -58.140625 Z M 34.921875 -49.203125 C 34.921875 -45.148438 34.160156 -41.941406 32.640625 -39.578125 C 31.128906 -37.222656 28.585938 -35.375 25.015625 -34.03125 L 22.8125 -38.65625 C 24.925781 -39.300781 26.484375 -40.285156 27.484375 -41.609375 C 28.484375 -42.941406 29.039062 -44.742188 29.15625 -47.015625 L 23.796875 -47.015625 L 23.796875 -58.140625 L 34.921875 -58.140625 Z M 34.921875 -49.203125 "/></g></g></g></svg>