<svg xmlns="http://www.w3.org/2000/svg" xmlns:xlink="http://www.w3.org/1999/xlink" width="1620" zoomAndPan="magnify" viewBox="0 0 1215 809.999993" height="1080" preserveAspectRatio="xMidYMid meet" version="1.0"><defs><g/></defs><g fill="#000000" fill-opacity="1"><g transform="translate(0.00000525, 69.776295)"><g><path d="M 18.78125 -37.546875 L 43.265625 -37.546875 L 43.265625 -61.953125 L 55.71875 -61.953125 L 55.71875 0 L 43.265625 0 L 43.265625 -27.078125 L 18.78125 -27.078125 L 18.78125 0 L 6.3125 0 L 6.3125 -61.953125 L 18.78125 -61.953125 Z M 18.78125 -37.546875 "/></g></g></g><g fill="#000000" fill-opacity="1"><g transform="translate(62.469958, 69.776295)"><g><path d="M 17.828125 -21.8125 C 17.828125 -18.632812 17.898438 -16.320312 18.046875 -14.875 C 18.191406 -13.4375 18.492188 -12.285156 18.953125 -11.421875 C 19.472656 -10.441406 20.265625 -9.632812 21.328125 -9 C 22.398438 -8.363281 23.710938 -8.046875 25.265625 -8.046875 C 27.335938 -8.046875 29.210938 -8.625 30.890625 -9.78125 C 32.566406 -10.9375 33.632812 -12.347656 34.09375 -14.015625 C 34.613281 -15.691406 34.875 -19.269531 34.875 -24.75 L 34.875 -44.828125 L 46.734375 -44.828125 L 46.734375 0 L 35.734375 0 L 35.734375 -6.75 L 35.5625 -6.75 C 33.894531 -4.207031 31.734375 -2.273438 29.078125 -0.953125 C 26.421875 0.367188 23.679688 1.03125 20.859375 1.03125 C 18.316406 1.03125 15.90625 0.515625 13.625 -0.515625 C 11.34375 -1.554688 9.597656 -3.054688 8.390625 -5.015625 C 7.523438 -6.398438 6.90625 -7.925781 6.53125 -9.59375 C 6.15625 -11.269531 5.96875 -13.378906 5.96875 -15.921875 L 5.96875 -44.828125 L 17.828125 -44.828125 Z M 17.828125 -21.8125 "/></g></g></g><g fill="#000000" fill-opacity="1"><g transform="translate(115.335804, 69.776295)"><g><path d="M 18.078125 0 L 6.234375 0 L 6.234375 -61.953125 L 18.078125 -61.953125 Z M 18.078125 0 "/></g></g></g><g fill="#000000" fill-opacity="1"><g transform="translate(139.389336, 69.776295)"><g><path d="M 17.65625 -29.078125 L 31.578125 -44.828125 L 46.203125 -44.828125 L 30.890625 -28.46875 L 47.25 0 L 34.4375 0 L 23.1875 -20.15625 L 17.65625 -14.359375 L 17.65625 0 L 5.796875 0 L 5.796875 -61.953125 L 17.65625 -61.953125 Z M 17.65625 -29.078125 "/></g></g></g><g fill="#000000" fill-opacity="1"><g transform="translate(187.4964, 69.776295)"><g/></g></g><g fill="#000000" fill-opacity="1"><g transform="translate(211.549931, 69.776295)"><g><path d="M 29.25 -16.09375 L 44.390625 -61.953125 L 57.625 -61.953125 L 35.484375 0 L 22.0625 0 L 0 -61.953125 L 13.578125 -61.953125 Z M 29.25 -16.09375 "/></g></g></g><g fill="#000000" fill-opacity="1"><g transform="translate(269.2611, 69.776295)"><g><path d="M 27.953125 -63 C 34.816406 -63 40.425781 -61.46875 44.78125 -58.40625 C 49.132812 -55.351562 51.425781 -50.625 51.65625 -44.21875 L 39.109375 -43.703125 C 38.703125 -46.585938 37.648438 -48.804688 35.953125 -50.359375 C 34.253906 -51.921875 31.53125 -52.703125 27.78125 -52.703125 C 25.175781 -52.703125 22.78125 -52.238281 20.59375 -51.3125 C 18.40625 -50.382812 17.3125 -48.796875 17.3125 -46.546875 C 17.3125 -44.648438 18.289062 -43.140625 20.25 -42.015625 C 22.207031 -40.890625 25.695312 -39.75 30.71875 -38.59375 C 35.394531 -37.5 39.242188 -36.332031 42.265625 -35.09375 C 45.296875 -33.851562 47.90625 -31.859375 50.09375 -29.109375 C 52.289062 -26.367188 53.390625 -22.664062 53.390625 -18 C 53.390625 -15.632812 52.835938 -13.125 51.734375 -10.46875 C 50.640625 -7.8125 48.851562 -5.535156 46.375 -3.640625 C 44.53125 -2.140625 42.09375 -0.984375 39.0625 -0.171875 C 36.039062 0.628906 32.539062 1.03125 28.5625 1.03125 C 20.820312 1.03125 14.875 -0.710938 10.71875 -4.203125 C 6.570312 -7.691406 4.035156 -13.007812 3.109375 -20.15625 L 15.234375 -21.28125 C 16.554688 -13.382812 21.054688 -9.4375 28.734375 -9.4375 C 32.765625 -9.4375 35.800781 -10.285156 37.84375 -11.984375 C 39.894531 -13.679688 40.921875 -15.6875 40.921875 -18 C 40.921875 -19.675781 40.414062 -21.003906 39.40625 -21.984375 C 38.40625 -22.960938 36.820312 -23.8125 34.65625 -24.53125 C 32.488281 -25.25 29.097656 -26.15625 24.484375 -27.25 C 18.710938 -28.519531 14.082031 -30.65625 10.59375 -33.65625 C 7.101562 -36.65625 5.359375 -40.664062 5.359375 -45.6875 C 5.359375 -48.394531 6.050781 -51.0625 7.4375 -53.6875 C 8.820312 -56.3125 11.203125 -58.519531 14.578125 -60.3125 C 17.953125 -62.101562 22.410156 -63 27.953125 -63 Z M 27.953125 -63 "/></g></g></g><g fill="#000000" fill-opacity="1"><g transform="translate(326.972268, 69.776295)"><g/></g></g><g fill="#000000" fill-opacity="1"><g transform="translate(351.0258, 69.776295)"><g><path d="M 19.125 -10.46875 L 50.28125 -10.46875 L 50.28125 0 L 6.65625 0 L 6.65625 -61.953125 L 19.125 -61.953125 Z M 19.125 -10.46875 "/></g></g></g><g fill="#000000" fill-opacity="1"><g transform="translate(403.891647, 69.776295)"><g><path d="M 23.359375 -45.859375 C 30.515625 -45.859375 35.851562 -43.535156 39.375 -38.890625 C 42.894531 -34.253906 44.65625 -27.632812 44.65625 -19.03125 L 14.890625 -19.03125 C 15.003906 -16.03125 15.878906 -13.445312 17.515625 -11.28125 C 19.160156 -9.125 21.539062 -8.046875 24.65625 -8.046875 C 26.625 -8.046875 28.226562 -8.550781 29.46875 -9.5625 C 30.707031 -10.570312 31.613281 -12.144531 32.1875 -14.28125 L 44.046875 -12.28125 C 42.546875 -7.90625 40.117188 -4.59375 36.765625 -2.34375 C 33.421875 -0.09375 29.328125 1.03125 24.484375 1.03125 C 17.273438 1.03125 11.828125 -1.128906 8.140625 -5.453125 C 6.398438 -7.472656 5.066406 -10.007812 4.140625 -13.0625 C 3.222656 -16.125 2.765625 -19.15625 2.765625 -22.15625 C 2.765625 -26.25 3.5 -30.097656 4.96875 -33.703125 C 6.445312 -37.304688 8.726562 -40.234375 11.8125 -42.484375 C 14.894531 -44.734375 18.742188 -45.859375 23.359375 -45.859375 Z M 15.140625 -26.3125 L 32.875 -26.3125 C 32.820312 -29.9375 31.914062 -32.585938 30.15625 -34.265625 C 28.394531 -35.941406 26.332031 -36.78125 23.96875 -36.78125 C 21.195312 -36.78125 19.03125 -35.785156 17.46875 -33.796875 C 15.914062 -31.804688 15.140625 -29.3125 15.140625 -26.3125 Z M 15.140625 -26.3125 "/></g></g></g><g fill="#000000" fill-opacity="1"><g transform="translate(451.998711, 69.776295)"><g><path d="M 21.28125 -22.234375 L 22.9375 -16.953125 C 23.28125 -15.691406 23.535156 -14.828125 23.703125 -14.359375 L 23.875 -14.359375 C 24.75 -17.585938 25.5625 -20.128906 26.3125 -21.984375 L 34.875 -44.828125 L 47.078125 -44.828125 L 29.25 0 L 18.515625 0 L 0.4375 -44.828125 L 12.890625 -44.828125 Z M 21.28125 -22.234375 "/></g></g></g><g fill="#000000" fill-opacity="1"><g transform="translate(500.105774, 69.776295)"><g><path d="M 18.078125 -50.96875 L 6.234375 -50.96875 L 6.234375 -61.953125 L 18.078125 -61.953125 Z M 18.078125 0 L 6.234375 0 L 6.234375 -44.828125 L 18.078125 -44.828125 Z M 18.078125 0 "/></g></g></g><g fill="#000000" fill-opacity="1"><g transform="translate(524.159306, 69.776295)"><g><path d="M 23.703125 -45.859375 C 29.421875 -45.859375 33.660156 -45.125 36.421875 -43.65625 C 39.191406 -42.1875 40.9375 -40.253906 41.65625 -37.859375 C 42.382812 -35.460938 42.71875 -32.300781 42.65625 -28.375 L 42.578125 -15.3125 C 42.515625 -11.21875 42.65625 -8.25 43 -6.40625 C 43.351562 -4.5625 44.078125 -2.425781 45.171875 0 L 33.484375 0 C 33.203125 -0.632812 32.6875 -2.28125 31.9375 -4.9375 C 29.800781 -2.851562 27.59375 -1.335938 25.3125 -0.390625 C 23.03125 0.554688 20.59375 1.03125 18 1.03125 C 13.550781 1.03125 9.957031 -0.191406 7.21875 -2.640625 C 4.476562 -5.085938 3.109375 -8.273438 3.109375 -12.203125 C 3.109375 -15.492188 3.929688 -18.101562 5.578125 -20.03125 C 7.222656 -21.96875 9.226562 -23.367188 11.59375 -24.234375 C 13.957031 -25.097656 16.753906 -25.847656 19.984375 -26.484375 C 24.953125 -27.398438 28.617188 -28.320312 30.984375 -29.25 L 30.984375 -31.15625 C 30.984375 -33.113281 30.40625 -34.539062 29.25 -35.4375 C 28.09375 -36.332031 25.988281 -36.78125 22.9375 -36.78125 C 20.570312 -36.78125 18.8125 -36.300781 17.65625 -35.34375 C 16.5 -34.394531 15.632812 -33 15.0625 -31.15625 L 4.328125 -33.140625 C 5.484375 -37.523438 7.5625 -40.738281 10.5625 -42.78125 C 13.5625 -44.832031 17.941406 -45.859375 23.703125 -45.859375 Z M 23.53125 -19.640625 L 21.546875 -19.203125 C 17.160156 -18.285156 14.96875 -16.382812 14.96875 -13.5 C 14.96875 -11.769531 15.585938 -10.3125 16.828125 -9.125 C 18.066406 -7.945312 19.640625 -7.359375 21.546875 -7.359375 C 23.097656 -7.359375 24.65625 -7.757812 26.21875 -8.5625 C 27.78125 -9.375 28.992188 -10.441406 29.859375 -11.765625 C 30.609375 -12.972656 30.984375 -15.050781 30.984375 -18 L 30.984375 -21.546875 C 28.734375 -20.859375 26.25 -20.222656 23.53125 -19.640625 Z M 23.53125 -19.640625 "/></g></g></g><g fill="#000000" fill-opacity="1"><g transform="translate(572.266369, 69.776295)"><g><path d="M 18.6875 -44.828125 L 26.734375 -44.828125 L 26.734375 -35.390625 L 18.6875 -35.390625 L 18.6875 -15.65625 C 18.6875 -13.757812 18.757812 -12.347656 18.90625 -11.421875 C 19.050781 -10.492188 19.351562 -9.828125 19.8125 -9.421875 C 20.28125 -9.023438 21.003906 -8.828125 21.984375 -8.828125 C 23.191406 -8.828125 24.773438 -9.203125 26.734375 -9.953125 L 27.78125 -0.78125 C 26.5625 -0.195312 25.085938 0.25 23.359375 0.5625 C 21.628906 0.875 19.988281 1.03125 18.4375 1.03125 C 16.1875 1.03125 14.191406 0.65625 12.453125 -0.09375 C 10.722656 -0.84375 9.457031 -1.847656 8.65625 -3.109375 C 7.789062 -4.554688 7.253906 -6.160156 7.046875 -7.921875 C 6.847656 -9.679688 6.75 -11.882812 6.75 -14.53125 L 6.75 -35.390625 L 1.296875 -35.390625 L 1.296875 -44.828125 L 6.75 -44.828125 L 6.75 -53.734375 L 18.6875 -60.75 Z M 18.6875 -44.828125 "/></g></g></g><g fill="#000000" fill-opacity="1"><g transform="translate(601.078684, 69.776295)"><g><path d="M 18 -39.109375 C 20.019531 -41.472656 22.140625 -43.1875 24.359375 -44.25 C 26.578125 -45.320312 28.984375 -45.859375 31.578125 -45.859375 C 34.066406 -45.859375 36.273438 -45.484375 38.203125 -44.734375 C 40.140625 -43.984375 41.738281 -43.003906 43 -41.796875 C 45.601562 -39.253906 46.90625 -34.582031 46.90625 -27.78125 L 46.90625 0 L 35.046875 0 L 35.046875 -25.265625 C 35.046875 -27.972656 34.867188 -30.132812 34.515625 -31.75 C 34.171875 -33.375 33.476562 -34.617188 32.4375 -35.484375 C 31.40625 -36.347656 29.820312 -36.78125 27.6875 -36.78125 C 23.9375 -36.78125 21.382812 -35.566406 20.03125 -33.140625 C 18.675781 -30.710938 18 -27.484375 18 -23.453125 L 18 0 L 6.140625 0 L 6.140625 -61.953125 L 18 -61.953125 Z M 18 -39.109375 "/></g></g></g><g fill="#000000" fill-opacity="1"><g transform="translate(653.944531, 69.776295)"><g><path d="M 23.703125 -45.859375 C 29.421875 -45.859375 33.660156 -45.125 36.421875 -43.65625 C 39.191406 -42.1875 40.9375 -40.253906 41.65625 -37.859375 C 42.382812 -35.460938 42.71875 -32.300781 42.65625 -28.375 L 42.578125 -15.3125 C 42.515625 -11.21875 42.65625 -8.25 43 -6.40625 C 43.351562 -4.5625 44.078125 -2.425781 45.171875 0 L 33.484375 0 C 33.203125 -0.632812 32.6875 -2.28125 31.9375 -4.9375 C 29.800781 -2.851562 27.59375 -1.335938 25.3125 -0.390625 C 23.03125 0.554688 20.59375 1.03125 18 1.03125 C 13.550781 1.03125 9.957031 -0.191406 7.21875 -2.640625 C 4.476562 -5.085938 3.109375 -8.273438 3.109375 -12.203125 C 3.109375 -15.492188 3.929688 -18.101562 5.578125 -20.03125 C 7.222656 -21.96875 9.226562 -23.367188 11.59375 -24.234375 C 13.957031 -25.097656 16.753906 -25.847656 19.984375 -26.484375 C 24.953125 -27.398438 28.617188 -28.320312 30.984375 -29.25 L 30.984375 -31.15625 C 30.984375 -33.113281 30.40625 -34.539062 29.25 -35.4375 C 28.09375 -36.332031 25.988281 -36.78125 22.9375 -36.78125 C 20.570312 -36.78125 18.8125 -36.300781 17.65625 -35.34375 C 16.5 -34.394531 15.632812 -33 15.0625 -31.15625 L 4.328125 -33.140625 C 5.484375 -37.523438 7.5625 -40.738281 10.5625 -42.78125 C 13.5625 -44.832031 17.941406 -45.859375 23.703125 -45.859375 Z M 23.53125 -19.640625 L 21.546875 -19.203125 C 17.160156 -18.285156 14.96875 -16.382812 14.96875 -13.5 C 14.96875 -11.769531 15.585938 -10.3125 16.828125 -9.125 C 18.066406 -7.945312 19.640625 -7.359375 21.546875 -7.359375 C 23.097656 -7.359375 24.65625 -7.757812 26.21875 -8.5625 C 27.78125 -9.375 28.992188 -10.441406 29.859375 -11.765625 C 30.609375 -12.972656 30.984375 -15.050781 30.984375 -18 L 30.984375 -21.546875 C 28.734375 -20.859375 26.25 -20.222656 23.53125 -19.640625 Z M 23.53125 -19.640625 "/></g></g></g><g fill="#000000" fill-opacity="1"><g transform="translate(702.051595, 69.776295)"><g><path d="M 32.015625 -45.859375 C 34.671875 -45.859375 36.976562 -45.410156 38.9375 -44.515625 C 40.894531 -43.617188 42.453125 -42.566406 43.609375 -41.359375 C 44.992188 -39.859375 45.898438 -38.082031 46.328125 -36.03125 C 46.765625 -33.988281 46.984375 -31.726562 46.984375 -29.25 L 46.984375 0 L 35.125 0 L 35.125 -24.484375 C 35.125 -28.640625 34.660156 -31.726562 33.734375 -33.75 C 32.816406 -35.769531 30.859375 -36.78125 27.859375 -36.78125 C 25.035156 -36.78125 22.84375 -35.972656 21.28125 -34.359375 C 19.726562 -32.742188 18.804688 -30.867188 18.515625 -28.734375 C 18.347656 -27.347656 18.21875 -26.101562 18.125 -25 C 18.039062 -23.90625 18 -22.664062 18 -21.28125 L 18 0 L 6.140625 0 L 6.140625 -44.828125 L 17.390625 -44.828125 L 17.390625 -38.25 C 18.660156 -40.15625 20.550781 -41.898438 23.0625 -43.484375 C 25.570312 -45.066406 28.554688 -45.859375 32.015625 -45.859375 Z M 32.015625 -45.859375 "/></g></g></g><g fill="#000000" fill-opacity="1"><g transform="translate(754.917442, 69.776295)"><g/></g></g><g fill="#000000" fill-opacity="1"><g transform="translate(778.970974, 69.776295)"><g><path d="M 10.125 -58.75 C 11.28125 -60.195312 12.78125 -61.265625 14.625 -61.953125 C 16.46875 -62.648438 18.742188 -63 21.453125 -63 C 24.804688 -63 28.097656 -62.507812 31.328125 -61.53125 L 29.765625 -53.21875 C 27.742188 -53.675781 25.925781 -53.90625 24.3125 -53.90625 C 22.46875 -53.90625 21.195312 -53.457031 20.5 -52.5625 C 19.8125 -51.664062 19.46875 -50.351562 19.46875 -48.625 L 19.46875 -44.828125 L 28.375 -44.828125 L 28.375 -35.390625 L 19.46875 -35.390625 L 19.46875 0 L 7.609375 0 L 7.609375 -35.390625 L 1.03125 -35.390625 L 1.03125 -44.828125 L 7.609375 -44.828125 L 7.609375 -49.234375 C 7.609375 -53.503906 8.445312 -56.675781 10.125 -58.75 Z M 10.125 -58.75 "/></g></g></g><g fill="#000000" fill-opacity="1"><g transform="translate(807.783289, 69.776295)"><g><path d="M 27 -45.859375 C 28.269531 -45.859375 29.609375 -45.65625 31.015625 -45.25 C 32.429688 -44.851562 33.6875 -44.335938 34.78125 -43.703125 L 31.0625 -33.3125 C 29.039062 -34.582031 27.195312 -35.21875 25.53125 -35.21875 C 23.28125 -35.21875 21.578125 -34.453125 20.421875 -32.921875 C 19.265625 -31.390625 18.5 -29.253906 18.125 -26.515625 C 17.75 -23.773438 17.5625 -20.128906 17.5625 -15.578125 L 17.5625 0 L 5.71875 0 L 5.71875 -44.828125 L 16.703125 -44.828125 L 16.703125 -38.5 L 16.875 -38.5 C 18.3125 -40.925781 19.75 -42.757812 21.1875 -44 C 22.632812 -45.238281 24.570312 -45.859375 27 -45.859375 Z M 27 -45.859375 "/></g></g></g><g fill="#000000" fill-opacity="1"><g transform="translate(841.440926, 69.776295)"><g><path d="M 26.5625 -45.859375 C 31.40625 -45.859375 35.585938 -44.757812 39.109375 -42.5625 C 42.628906 -40.375 45.28125 -37.492188 47.0625 -33.921875 C 48.851562 -30.347656 49.75 -26.566406 49.75 -22.578125 C 49.75 -18.429688 48.8125 -14.550781 46.9375 -10.9375 C 45.0625 -7.332031 42.378906 -4.4375 38.890625 -2.25 C 35.398438 -0.0625 31.320312 1.03125 26.65625 1.03125 C 22.675781 1.03125 18.925781 0.210938 15.40625 -1.421875 C 11.882812 -3.066406 9.015625 -5.691406 6.796875 -9.296875 C 4.578125 -12.898438 3.46875 -17.472656 3.46875 -23.015625 C 3.46875 -26.878906 4.34375 -30.554688 6.09375 -34.046875 C 7.851562 -37.535156 10.476562 -40.375 13.96875 -42.5625 C 17.457031 -44.757812 21.65625 -45.859375 26.5625 -45.859375 Z M 15.65625 -22.40625 C 15.65625 -17.90625 16.707031 -14.488281 18.8125 -12.15625 C 20.925781 -9.820312 23.507812 -8.65625 26.5625 -8.65625 C 29.625 -8.65625 32.21875 -9.804688 34.34375 -12.109375 C 36.476562 -14.421875 37.546875 -17.882812 37.546875 -22.5 C 37.546875 -26.769531 36.519531 -30.113281 34.46875 -32.53125 C 32.425781 -34.957031 29.765625 -36.171875 26.484375 -36.171875 C 23.484375 -36.171875 20.925781 -34.988281 18.8125 -32.625 C 16.707031 -30.257812 15.65625 -26.851562 15.65625 -22.40625 Z M 15.65625 -22.40625 "/></g></g></g><g fill="#000000" fill-opacity="1"><g transform="translate(894.306772, 69.776295)"><g><path d="M 30.28125 -45.859375 C 36.113281 -45.859375 40.351562 -43.492188 43 -38.765625 C 46.863281 -43.492188 51.421875 -45.859375 56.671875 -45.859375 C 61.640625 -45.859375 65.332031 -44.503906 67.75 -41.796875 C 70.175781 -39.085938 71.390625 -35.019531 71.390625 -29.59375 L 71.390625 0 L 59.53125 0 L 59.53125 -26.828125 C 59.53125 -30.054688 59.113281 -32.519531 58.28125 -34.21875 C 57.445312 -35.925781 55.757812 -36.78125 53.21875 -36.78125 C 50.789062 -36.78125 48.84375 -35.941406 47.375 -34.265625 C 45.90625 -32.585938 45 -30.425781 44.65625 -27.78125 C 44.414062 -25.695312 44.296875 -23.847656 44.296875 -22.234375 L 44.296875 0 L 32.453125 0 L 32.453125 -26.390625 C 32.453125 -30.023438 32.0625 -32.664062 31.28125 -34.3125 C 30.5 -35.957031 28.84375 -36.78125 26.3125 -36.78125 C 24.457031 -36.78125 22.796875 -36.285156 21.328125 -35.296875 C 19.859375 -34.316406 18.835938 -32.960938 18.265625 -31.234375 C 17.566406 -29.160156 17.21875 -26.25 17.21875 -22.5 L 17.21875 0 L 5.359375 0 L 5.359375 -44.828125 L 16.359375 -44.828125 L 16.53125 -38.765625 C 18.375 -41.015625 20.316406 -42.757812 22.359375 -44 C 24.410156 -45.238281 27.050781 -45.859375 30.28125 -45.859375 Z M 30.28125 -45.859375 "/></g></g></g><g fill="#000000" fill-opacity="1"><g transform="translate(971.226152, 69.776295)"><g/></g></g><g fill="#000000" fill-opacity="1"><g transform="translate(995.279683, 69.776295)"><g><path d="M 18.6875 -44.828125 L 26.734375 -44.828125 L 26.734375 -35.390625 L 18.6875 -35.390625 L 18.6875 -15.65625 C 18.6875 -13.757812 18.757812 -12.347656 18.90625 -11.421875 C 19.050781 -10.492188 19.351562 -9.828125 19.8125 -9.421875 C 20.28125 -9.023438 21.003906 -8.828125 21.984375 -8.828125 C 23.191406 -8.828125 24.773438 -9.203125 26.734375 -9.953125 L 27.78125 -0.78125 C 26.5625 -0.195312 25.085938 0.25 23.359375 0.5625 C 21.628906 0.875 19.988281 1.03125 18.4375 1.03125 C 16.1875 1.03125 14.191406 0.65625 12.453125 -0.09375 C 10.722656 -0.84375 9.457031 -1.847656 8.65625 -3.109375 C 7.789062 -4.554688 7.253906 -6.160156 7.046875 -7.921875 C 6.847656 -9.679688 6.75 -11.882812 6.75 -14.53125 L 6.75 -35.390625 L 1.296875 -35.390625 L 1.296875 -44.828125 L 6.75 -44.828125 L 6.75 -53.734375 L 18.6875 -60.75 Z M 18.6875 -44.828125 "/></g></g></g><g fill="#000000" fill-opacity="1"><g transform="translate(1024.091999, 69.776295)"><g><path d="M 18 -39.109375 C 20.019531 -41.472656 22.140625 -43.1875 24.359375 -44.25 C 26.578125 -45.320312 28.984375 -45.859375 31.578125 -45.859375 C 34.066406 -45.859375 36.273438 -45.484375 38.203125 -44.734375 C 40.140625 -43.984375 41.738281 -43.003906 43 -41.796875 C 45.601562 -39.253906 46.90625 -34.582031 46.90625 -27.78125 L 46.90625 0 L 35.046875 0 L 35.046875 -25.265625 C 35.046875 -27.972656 34.867188 -30.132812 34.515625 -31.75 C 34.171875 -33.375 33.476562 -34.617188 32.4375 -35.484375 C 31.40625 -36.347656 29.820312 -36.78125 27.6875 -36.78125 C 23.9375 -36.78125 21.382812 -35.566406 20.03125 -33.140625 C 18.675781 -30.710938 18 -27.484375 18 -23.453125 L 18 0 L 6.140625 0 L 6.140625 -61.953125 L 18 -61.953125 Z M 18 -39.109375 "/></g></g></g><g fill="#000000" fill-opacity="1"><g transform="translate(1076.957845, 69.776295)"><g><path d="M 23.359375 -45.859375 C 30.515625 -45.859375 35.851562 -43.535156 39.375 -38.890625 C 42.894531 -34.253906 44.65625 -27.632812 44.65625 -19.03125 L 14.890625 -19.03125 C 15.003906 -16.03125 15.878906 -13.445312 17.515625 -11.28125 C 19.160156 -9.125 21.539062 -8.046875 24.65625 -8.046875 C 26.625 -8.046875 28.226562 -8.550781 29.46875 -9.5625 C 30.707031 -10.570312 31.613281 -12.144531 32.1875 -14.28125 L 44.046875 -12.28125 C 42.546875 -7.90625 40.117188 -4.59375 36.765625 -2.34375 C 33.421875 -0.09375 29.328125 1.03125 24.484375 1.03125 C 17.273438 1.03125 11.828125 -1.128906 8.140625 -5.453125 C 6.398438 -7.472656 5.066406 -10.007812 4.140625 -13.0625 C 3.222656 -16.125 2.765625 -19.15625 2.765625 -22.15625 C 2.765625 -26.25 3.5 -30.097656 4.96875 -33.703125 C 6.445312 -37.304688 8.726562 -40.234375 11.8125 -42.484375 C 14.894531 -44.734375 18.742188 -45.859375 23.359375 -45.859375 Z M 15.140625 -26.3125 L 32.875 -26.3125 C 32.820312 -29.9375 31.914062 -32.585938 30.15625 -34.265625 C 28.394531 -35.941406 26.332031 -36.78125 23.96875 -36.78125 C 21.195312 -36.78125 19.03125 -35.785156 17.46875 -33.796875 C 15.914062 -31.804688 15.140625 -29.3125 15.140625 -26.3125 Z M 15.140625 -26.3125 "/></g></g></g><g fill="#000000" fill-opacity="1"><g transform="translate(0.00000525, 146.85476)"><g><path d="M 43.875 -20.59375 L 43.875 -61.953125 L 55.46875 -61.953125 L 55.46875 0 L 42.921875 0 L 18 -40.40625 L 18 0 L 6.40625 0 L 6.40625 -61.953125 L 18.515625 -61.953125 Z M 43.875 -20.59375 "/></g></g></g><g fill="#000000" fill-opacity="1"><g transform="translate(62.469958, 146.85476)"><g><path d="M 23.359375 -45.859375 C 30.515625 -45.859375 35.851562 -43.535156 39.375 -38.890625 C 42.894531 -34.253906 44.65625 -27.632812 44.65625 -19.03125 L 14.890625 -19.03125 C 15.003906 -16.03125 15.878906 -13.445312 17.515625 -11.28125 C 19.160156 -9.125 21.539062 -8.046875 24.65625 -8.046875 C 26.625 -8.046875 28.226562 -8.550781 29.46875 -9.5625 C 30.707031 -10.570312 31.613281 -12.144531 32.1875 -14.28125 L 44.046875 -12.28125 C 42.546875 -7.90625 40.117188 -4.59375 36.765625 -2.34375 C 33.421875 -0.09375 29.328125 1.03125 24.484375 1.03125 C 17.273438 1.03125 11.828125 -1.128906 8.140625 -5.453125 C 6.398438 -7.472656 5.066406 -10.007812 4.140625 -13.0625 C 3.222656 -16.125 2.765625 -19.15625 2.765625 -22.15625 C 2.765625 -26.25 3.5 -30.097656 4.96875 -33.703125 C 6.445312 -37.304688 8.726562 -40.234375 11.8125 -42.484375 C 14.894531 -44.734375 18.742188 -45.859375 23.359375 -45.859375 Z M 15.140625 -26.3125 L 32.875 -26.3125 C 32.820312 -29.9375 31.914062 -32.585938 30.15625 -34.265625 C 28.394531 -35.941406 26.332031 -36.78125 23.96875 -36.78125 C 21.195312 -36.78125 19.03125 -35.785156 17.46875 -33.796875 C 15.914062 -31.804688 15.140625 -29.3125 15.140625 -26.3125 Z M 15.140625 -26.3125 "/></g></g></g><g fill="#000000" fill-opacity="1"><g transform="translate(110.577021, 146.85476)"><g><path d="M 20.25 -15.484375 L 20.421875 -15.484375 L 28.03125 -44.828125 L 39.546875 -44.828125 L 46.90625 -15.484375 L 47.078125 -15.484375 L 55.546875 -44.828125 L 67.234375 -44.828125 L 52.875 0 L 41.453125 0 L 33.828125 -28.90625 L 33.65625 -28.90625 L 26.125 0 L 14.625 0 L 0.34375 -44.828125 L 11.9375 -44.828125 Z M 20.25 -15.484375 "/></g></g></g><g fill="#000000" fill-opacity="1"><g transform="translate(177.892295, 146.85476)"><g/></g></g><g fill="#000000" fill-opacity="1"><g transform="translate(201.945827, 146.85476)"><g><path d="M 29.078125 -37.46875 L 43.4375 -61.953125 L 57.796875 -61.953125 L 35.046875 -25.953125 L 35.046875 0 L 22.578125 0 L 22.578125 -26.046875 L -0.09375 -61.953125 L 14.53125 -61.953125 Z M 29.078125 -37.46875 "/></g></g></g><g fill="#000000" fill-opacity="1"><g transform="translate(259.656995, 146.85476)"><g><path d="M 26.5625 -45.859375 C 31.40625 -45.859375 35.585938 -44.757812 39.109375 -42.5625 C 42.628906 -40.375 45.28125 -37.492188 47.0625 -33.921875 C 48.851562 -30.347656 49.75 -26.566406 49.75 -22.578125 C 49.75 -18.429688 48.8125 -14.550781 46.9375 -10.9375 C 45.0625 -7.332031 42.378906 -4.4375 38.890625 -2.25 C 35.398438 -0.0625 31.320312 1.03125 26.65625 1.03125 C 22.675781 1.03125 18.925781 0.210938 15.40625 -1.421875 C 11.882812 -3.066406 9.015625 -5.691406 6.796875 -9.296875 C 4.578125 -12.898438 3.46875 -17.472656 3.46875 -23.015625 C 3.46875 -26.878906 4.34375 -30.554688 6.09375 -34.046875 C 7.851562 -37.535156 10.476562 -40.375 13.96875 -42.5625 C 17.457031 -44.757812 21.65625 -45.859375 26.5625 -45.859375 Z M 15.65625 -22.40625 C 15.65625 -17.90625 16.707031 -14.488281 18.8125 -12.15625 C 20.925781 -9.820312 23.507812 -8.65625 26.5625 -8.65625 C 29.625 -8.65625 32.21875 -9.804688 34.34375 -12.109375 C 36.476562 -14.421875 37.546875 -17.882812 37.546875 -22.5 C 37.546875 -26.769531 36.519531 -30.113281 34.46875 -32.53125 C 32.425781 -34.957031 29.765625 -36.171875 26.484375 -36.171875 C 23.484375 -36.171875 20.925781 -34.988281 18.8125 -32.625 C 16.707031 -30.257812 15.65625 -26.851562 15.65625 -22.40625 Z M 15.65625 -22.40625 "/></g></g></g><g fill="#000000" fill-opacity="1"><g transform="translate(312.522842, 146.85476)"><g><path d="M 27 -45.859375 C 28.269531 -45.859375 29.609375 -45.65625 31.015625 -45.25 C 32.429688 -44.851562 33.6875 -44.335938 34.78125 -43.703125 L 31.0625 -33.3125 C 29.039062 -34.582031 27.195312 -35.21875 25.53125 -35.21875 C 23.28125 -35.21875 21.578125 -34.453125 20.421875 -32.921875 C 19.265625 -31.390625 18.5 -29.253906 18.125 -26.515625 C 17.75 -23.773438 17.5625 -20.128906 17.5625 -15.578125 L 17.5625 0 L 5.71875 0 L 5.71875 -44.828125 L 16.703125 -44.828125 L 16.703125 -38.5 L 16.875 -38.5 C 18.3125 -40.925781 19.75 -42.757812 21.1875 -44 C 22.632812 -45.238281 24.570312 -45.859375 27 -45.859375 Z M 27 -45.859375 "/></g></g></g><g fill="#000000" fill-opacity="1"><g transform="translate(346.180479, 146.85476)"><g><path d="M 17.65625 -29.078125 L 31.578125 -44.828125 L 46.203125 -44.828125 L 30.890625 -28.46875 L 47.25 0 L 34.4375 0 L 23.1875 -20.15625 L 17.65625 -14.359375 L 17.65625 0 L 5.796875 0 L 5.796875 -61.953125 L 17.65625 -61.953125 Z M 17.65625 -29.078125 "/></g></g></g><g fill="#000000" fill-opacity="1"><g transform="translate(394.287542, 146.85476)"><g/></g></g><g fill="#000000" fill-opacity="1"><g transform="translate(418.341074, 146.85476)"><g><path d="M 17.5625 -39.625 C 21.195312 -43.78125 25.550781 -45.859375 30.625 -45.859375 C 34.09375 -45.859375 37.253906 -45.003906 40.109375 -43.296875 C 42.960938 -41.597656 45.238281 -39.019531 46.9375 -35.5625 C 48.644531 -32.101562 49.5 -27.863281 49.5 -22.84375 C 49.5 -17.65625 48.617188 -13.269531 46.859375 -9.6875 C 45.097656 -6.113281 42.789062 -3.429688 39.9375 -1.640625 C 37.082031 0.140625 34.007812 1.03125 30.71875 1.03125 C 28.46875 1.03125 26.054688 0.425781 23.484375 -0.78125 C 20.921875 -1.988281 18.6875 -3.921875 16.78125 -6.578125 L 16.78125 0 L 5.71875 0 L 5.71875 -61.953125 L 17.5625 -61.953125 Z M 17.484375 -23.359375 C 17.484375 -20.765625 17.671875 -18.644531 18.046875 -17 C 18.421875 -15.351562 19.039062 -13.925781 19.90625 -12.71875 C 21.976562 -9.832031 24.628906 -8.390625 27.859375 -8.390625 C 30.398438 -8.390625 32.609375 -9.484375 34.484375 -11.671875 C 36.359375 -13.867188 37.296875 -17.421875 37.296875 -22.328125 C 37.296875 -26.710938 36.5 -30.21875 34.90625 -32.84375 C 33.320312 -35.46875 30.800781 -36.78125 27.34375 -36.78125 C 24.457031 -36.78125 22.09375 -35.640625 20.25 -33.359375 C 18.40625 -31.078125 17.484375 -27.742188 17.484375 -23.359375 Z M 17.484375 -23.359375 "/></g></g></g><g fill="#000000" fill-opacity="1"><g transform="translate(471.206921, 146.85476)"><g><path d="M 23.703125 -45.859375 C 29.421875 -45.859375 33.660156 -45.125 36.421875 -43.65625 C 39.191406 -42.1875 40.9375 -40.253906 41.65625 -37.859375 C 42.382812 -35.460938 42.71875 -32.300781 42.65625 -28.375 L 42.578125 -15.3125 C 42.515625 -11.21875 42.65625 -8.25 43 -6.40625 C 43.351562 -4.5625 44.078125 -2.425781 45.171875 0 L 33.484375 0 C 33.203125 -0.632812 32.6875 -2.28125 31.9375 -4.9375 C 29.800781 -2.851562 27.59375 -1.335938 25.3125 -0.390625 C 23.03125 0.554688 20.59375 1.03125 18 1.03125 C 13.550781 1.03125 9.957031 -0.191406 7.21875 -2.640625 C 4.476562 -5.085938 3.109375 -8.273438 3.109375 -12.203125 C 3.109375 -15.492188 3.929688 -18.101562 5.578125 -20.03125 C 7.222656 -21.96875 9.226562 -23.367188 11.59375 -24.234375 C 13.957031 -25.097656 16.753906 -25.847656 19.984375 -26.484375 C 24.953125 -27.398438 28.617188 -28.320312 30.984375 -29.25 L 30.984375 -31.15625 C 30.984375 -33.113281 30.40625 -34.539062 29.25 -35.4375 C 28.09375 -36.332031 25.988281 -36.78125 22.9375 -36.78125 C 20.570312 -36.78125 18.8125 -36.300781 17.65625 -35.34375 C 16.5 -34.394531 15.632812 -33 15.0625 -31.15625 L 4.328125 -33.140625 C 5.484375 -37.523438 7.5625 -40.738281 10.5625 -42.78125 C 13.5625 -44.832031 17.941406 -45.859375 23.703125 -45.859375 Z M 23.53125 -19.640625 L 21.546875 -19.203125 C 17.160156 -18.285156 14.96875 -16.382812 14.96875 -13.5 C 14.96875 -11.769531 15.585938 -10.3125 16.828125 -9.125 C 18.066406 -7.945312 19.640625 -7.359375 21.546875 -7.359375 C 23.097656 -7.359375 24.65625 -7.757812 26.21875 -8.5625 C 27.78125 -9.375 28.992188 -10.441406 29.859375 -11.765625 C 30.609375 -12.972656 30.984375 -15.050781 30.984375 -18 L 30.984375 -21.546875 C 28.734375 -20.859375 26.25 -20.222656 23.53125 -19.640625 Z M 23.53125 -19.640625 "/></g></g></g><g fill="#000000" fill-opacity="1"><g transform="translate(519.313984, 146.85476)"><g><path d="M 18.6875 -44.828125 L 26.734375 -44.828125 L 26.734375 -35.390625 L 18.6875 -35.390625 L 18.6875 -15.65625 C 18.6875 -13.757812 18.757812 -12.347656 18.90625 -11.421875 C 19.050781 -10.492188 19.351562 -9.828125 19.8125 -9.421875 C 20.28125 -9.023438 21.003906 -8.828125 21.984375 -8.828125 C 23.191406 -8.828125 24.773438 -9.203125 26.734375 -9.953125 L 27.78125 -0.78125 C 26.5625 -0.195312 25.085938 0.25 23.359375 0.5625 C 21.628906 0.875 19.988281 1.03125 18.4375 1.03125 C 16.1875 1.03125 14.191406 0.65625 12.453125 -0.09375 C 10.722656 -0.84375 9.457031 -1.847656 8.65625 -3.109375 C 7.789062 -4.554688 7.253906 -6.160156 7.046875 -7.921875 C 6.847656 -9.679688 6.75 -11.882812 6.75 -14.53125 L 6.75 -35.390625 L 1.296875 -35.390625 L 1.296875 -44.828125 L 6.75 -44.828125 L 6.75 -53.734375 L 18.6875 -60.75 Z M 18.6875 -44.828125 "/></g></g></g><g fill="#000000" fill-opacity="1"><g transform="translate(548.1263, 146.85476)"><g><path d="M 18.6875 -44.828125 L 26.734375 -44.828125 L 26.734375 -35.390625 L 18.6875 -35.390625 L 18.6875 -15.65625 C 18.6875 -13.757812 18.757812 -12.347656 18.90625 -11.421875 C 19.050781 -10.492188 19.351562 -9.828125 19.8125 -9.421875 C 20.28125 -9.023438 21.003906 -8.828125 21.984375 -8.828125 C 23.191406 -8.828125 24.773438 -9.203125 26.734375 -9.953125 L 27.78125 -0.78125 C 26.5625 -0.195312 25.085938 0.25 23.359375 0.5625 C 21.628906 0.875 19.988281 1.03125 18.4375 1.03125 C 16.1875 1.03125 14.191406 0.65625 12.453125 -0.09375 C 10.722656 -0.84375 9.457031 -1.847656 8.65625 -3.109375 C 7.789062 -4.554688 7.253906 -6.160156 7.046875 -7.921875 C 6.847656 -9.679688 6.75 -11.882812 6.75 -14.53125 L 6.75 -35.390625 L 1.296875 -35.390625 L 1.296875 -44.828125 L 6.75 -44.828125 L 6.75 -53.734375 L 18.6875 -60.75 Z M 18.6875 -44.828125 "/></g></g></g><g fill="#000000" fill-opacity="1"><g transform="translate(576.938615, 146.85476)"><g><path d="M 18.078125 0 L 6.234375 0 L 6.234375 -61.953125 L 18.078125 -61.953125 Z M 18.078125 0 "/></g></g></g><g fill="#000000" fill-opacity="1"><g transform="translate(600.992146, 146.85476)"><g><path d="M 23.359375 -45.859375 C 30.515625 -45.859375 35.851562 -43.535156 39.375 -38.890625 C 42.894531 -34.253906 44.65625 -27.632812 44.65625 -19.03125 L 14.890625 -19.03125 C 15.003906 -16.03125 15.878906 -13.445312 17.515625 -11.28125 C 19.160156 -9.125 21.539062 -8.046875 24.65625 -8.046875 C 26.625 -8.046875 28.226562 -8.550781 29.46875 -9.5625 C 30.707031 -10.570312 31.613281 -12.144531 32.1875 -14.28125 L 44.046875 -12.28125 C 42.546875 -7.90625 40.117188 -4.59375 36.765625 -2.34375 C 33.421875 -0.09375 29.328125 1.03125 24.484375 1.03125 C 17.273438 1.03125 11.828125 -1.128906 8.140625 -5.453125 C 6.398438 -7.472656 5.066406 -10.007812 4.140625 -13.0625 C 3.222656 -16.125 2.765625 -19.15625 2.765625 -22.15625 C 2.765625 -26.25 3.5 -30.097656 4.96875 -33.703125 C 6.445312 -37.304688 8.726562 -40.234375 11.8125 -42.484375 C 14.894531 -44.734375 18.742188 -45.859375 23.359375 -45.859375 Z M 15.140625 -26.3125 L 32.875 -26.3125 C 32.820312 -29.9375 31.914062 -32.585938 30.15625 -34.265625 C 28.394531 -35.941406 26.332031 -36.78125 23.96875 -36.78125 C 21.195312 -36.78125 19.03125 -35.785156 17.46875 -33.796875 C 15.914062 -31.804688 15.140625 -29.3125 15.140625 -26.3125 Z M 15.140625 -26.3125 "/></g></g></g><g fill="#000000" fill-opacity="1"><g transform="translate(0.00000525, 272.614361)"><g><path d="M 18.34375 0.671875 C 13.84375 0.671875 10.269531 -0.34375 7.625 -2.375 C 4.988281 -4.40625 3.28125 -7.21875 2.5 -10.8125 L 6.5625 -12.640625 L 7.296875 -12.515625 C 8.097656 -9.742188 9.335938 -7.671875 11.015625 -6.296875 C 12.691406 -4.929688 15.132812 -4.25 18.34375 -4.25 C 21.625 -4.25 24.117188 -5 25.828125 -6.5 C 27.535156 -8 28.390625 -10.207031 28.390625 -13.125 C 28.390625 -15.976562 27.519531 -18.15625 25.78125 -19.65625 C 24.039062 -21.15625 21.300781 -21.90625 17.5625 -21.90625 L 12.515625 -21.90625 L 12.515625 -26.40625 L 17.015625 -26.40625 C 19.929688 -26.40625 22.25 -27.125 23.96875 -28.5625 C 25.695312 -30.007812 26.5625 -32.054688 26.5625 -34.703125 C 26.5625 -37.210938 25.816406 -39.097656 24.328125 -40.359375 C 22.835938 -41.617188 20.75 -42.25 18.0625 -42.25 C 13.394531 -42.25 10.066406 -40.390625 8.078125 -36.671875 L 7.359375 -36.546875 L 4.3125 -39.875 C 5.5625 -42 7.359375 -43.71875 9.703125 -45.03125 C 12.046875 -46.34375 14.832031 -47 18.0625 -47 C 21.019531 -47 23.539062 -46.539062 25.625 -45.625 C 27.707031 -44.707031 29.285156 -43.378906 30.359375 -41.640625 C 31.441406 -39.910156 31.984375 -37.84375 31.984375 -35.4375 C 31.984375 -33.15625 31.320312 -31.148438 30 -29.421875 C 28.675781 -27.703125 26.925781 -26.347656 24.75 -25.359375 L 24.75 -24.6875 C 27.8125 -23.945312 30.113281 -22.566406 31.65625 -20.546875 C 33.195312 -18.535156 33.96875 -16.0625 33.96875 -13.125 C 33.96875 -8.726562 32.65625 -5.328125 30.03125 -2.921875 C 27.414062 -0.523438 23.519531 0.671875 18.34375 0.671875 Z M 18.34375 0.671875 "/></g></g><g transform="translate(37.651822, 272.614361)"><g><path d="M 3.296875 0 L 3.296875 -4.5 L 15.9375 -4.5 L 15.9375 -39.9375 L 15.21875 -40.125 C 13.164062 -39.101562 11.367188 -38.320312 9.828125 -37.78125 C 8.285156 -37.25 6.304688 -36.726562 3.890625 -36.21875 L 3.890625 -41.234375 C 6.285156 -41.742188 8.648438 -42.429688 10.984375 -43.296875 C 13.316406 -44.160156 15.429688 -45.171875 17.328125 -46.328125 L 21.265625 -46.328125 L 21.265625 -4.5 L 32.578125 -4.5 L 32.578125 0 Z M 3.296875 0 "/></g></g><g transform="translate(72.197679, 272.614361)"><g/></g><g transform="translate(88.10779, 272.614361)"><g><path d="M 22 -46.328125 C 26.6875 -46.328125 30.710938 -45.488281 34.078125 -43.8125 C 37.453125 -42.132812 40.050781 -39.570312 41.875 -36.125 C 43.707031 -32.6875 44.625 -28.367188 44.625 -23.171875 C 44.625 -17.972656 43.707031 -13.648438 41.875 -10.203125 C 40.050781 -6.765625 37.453125 -4.203125 34.078125 -2.515625 C 30.710938 -0.835938 26.6875 0 22 0 L 7 0 L 7 -46.328125 Z M 21.453125 -4.625 C 25.316406 -4.625 28.515625 -5.222656 31.046875 -6.421875 C 33.585938 -7.628906 35.515625 -9.597656 36.828125 -12.328125 C 38.140625 -15.054688 38.796875 -18.671875 38.796875 -23.171875 C 38.796875 -27.691406 38.140625 -31.304688 36.828125 -34.015625 C 35.515625 -36.734375 33.585938 -38.691406 31.046875 -39.890625 C 28.515625 -41.097656 25.316406 -41.703125 21.453125 -41.703125 L 12.453125 -41.703125 L 12.453125 -4.625 Z M 21.453125 -4.625 "/></g></g><g transform="translate(137.359408, 272.614361)"><g><path d="M 33.3125 -16.296875 L 9.28125 -16.296875 C 9.425781 -12.046875 10.445312 -8.925781 12.34375 -6.9375 C 14.238281 -4.957031 16.832031 -3.96875 20.125 -3.96875 C 22.613281 -3.96875 24.617188 -4.410156 26.140625 -5.296875 C 27.660156 -6.179688 28.859375 -7.570312 29.734375 -9.46875 L 30.390625 -9.46875 L 33.75 -7.484375 C 32.738281 -4.941406 31.117188 -2.945312 28.890625 -1.5 C 26.660156 -0.0507812 23.738281 0.671875 20.125 0.671875 C 16.738281 0.671875 13.832031 0.00390625 11.40625 -1.328125 C 8.976562 -2.660156 7.109375 -4.675781 5.796875 -7.375 C 4.484375 -10.082031 3.828125 -13.445312 3.828125 -17.46875 C 3.828125 -21.4375 4.519531 -24.78125 5.90625 -27.5 C 7.289062 -30.226562 9.179688 -32.265625 11.578125 -33.609375 C 13.984375 -34.953125 16.726562 -35.625 19.8125 -35.625 C 24.289062 -35.625 27.785156 -34.359375 30.296875 -31.828125 C 32.804688 -29.304688 34.070312 -25.5625 34.09375 -20.59375 C 34.09375 -18.65625 34.050781 -17.347656 33.96875 -16.671875 Z M 29 -20.59375 C 28.914062 -24.3125 28.09375 -27.015625 26.53125 -28.703125 C 24.96875 -30.398438 22.726562 -31.25 19.8125 -31.25 C 16.75 -31.25 14.34375 -30.394531 12.59375 -28.6875 C 10.851562 -26.988281 9.789062 -24.289062 9.40625 -20.59375 Z M 29 -20.59375 "/></g></g><g transform="translate(174.630903, 272.614361)"><g><path d="M 20.0625 0.671875 C 16.976562 0.671875 14.207031 -0.03125 11.75 -1.4375 C 9.300781 -2.84375 7.367188 -4.914062 5.953125 -7.65625 C 4.535156 -10.394531 3.828125 -13.664062 3.828125 -17.46875 C 3.828125 -21.289062 4.535156 -24.566406 5.953125 -27.296875 C 7.367188 -30.035156 9.300781 -32.109375 11.75 -33.515625 C 14.207031 -34.921875 16.976562 -35.625 20.0625 -35.625 C 23.757812 -35.625 26.703125 -34.925781 28.890625 -33.53125 C 31.078125 -32.132812 32.65625 -30.273438 33.625 -27.953125 L 30.109375 -25.421875 L 29.46875 -25.421875 C 28.519531 -27.335938 27.300781 -28.742188 25.8125 -29.640625 C 24.320312 -30.546875 22.40625 -31 20.0625 -31 C 17.90625 -31 16.015625 -30.488281 14.390625 -29.46875 C 12.765625 -28.457031 11.5 -26.9375 10.59375 -24.90625 C 9.695312 -22.882812 9.25 -20.40625 9.25 -17.46875 C 9.25 -14.550781 9.703125 -12.082031 10.609375 -10.0625 C 11.523438 -8.039062 12.789062 -6.519531 14.40625 -5.5 C 16.019531 -4.476562 17.90625 -3.96875 20.0625 -3.96875 C 22.488281 -3.96875 24.5 -4.515625 26.09375 -5.609375 C 27.6875 -6.703125 28.941406 -8.4375 29.859375 -10.8125 L 30.515625 -10.8125 L 33.90625 -8.8125 C 33 -5.875 31.378906 -3.554688 29.046875 -1.859375 C 26.710938 -0.171875 23.71875 0.671875 20.0625 0.671875 Z M 20.0625 0.671875 "/></g></g><g transform="translate(210.666353, 272.614361)"><g/></g><g transform="translate(226.576464, 272.614361)"><g><path d="M 2.78125 -2.125 C 2.78125 -4.675781 3.0625 -6.734375 3.625 -8.296875 C 4.1875 -9.867188 5.144531 -11.328125 6.5 -12.671875 C 7.851562 -14.023438 10.007812 -15.78125 12.96875 -17.9375 L 18.0625 -21.640625 C 19.945312 -23.015625 21.476562 -24.28125 22.65625 -25.4375 C 23.84375 -26.601562 24.78125 -27.867188 25.46875 -29.234375 C 26.15625 -30.597656 26.5 -32.125 26.5 -33.8125 C 26.5 -36.5625 25.769531 -38.632812 24.3125 -40.03125 C 22.851562 -41.425781 20.570312 -42.125 17.46875 -42.125 C 15.007812 -42.125 12.828125 -41.550781 10.921875 -40.40625 C 9.023438 -39.269531 7.507812 -37.65625 6.375 -35.5625 L 5.640625 -35.4375 L 2.375 -38.859375 C 3.9375 -41.390625 5.988281 -43.378906 8.53125 -44.828125 C 11.082031 -46.273438 14.0625 -47 17.46875 -47 C 20.757812 -47 23.492188 -46.4375 25.671875 -45.3125 C 27.847656 -44.195312 29.453125 -42.648438 30.484375 -40.671875 C 31.523438 -38.703125 32.046875 -36.414062 32.046875 -33.8125 C 32.046875 -31.738281 31.609375 -29.804688 30.734375 -28.015625 C 29.867188 -26.222656 28.644531 -24.53125 27.0625 -22.9375 C 25.476562 -21.351562 23.492188 -19.6875 21.109375 -17.9375 L 15.9375 -14.171875 C 14.019531 -12.753906 12.539062 -11.546875 11.5 -10.546875 C 10.46875 -9.554688 9.710938 -8.59375 9.234375 -7.65625 C 8.765625 -6.71875 8.53125 -5.664062 8.53125 -4.5 L 32.046875 -4.5 L 32.046875 0 L 2.78125 0 Z M 2.78125 -2.125 "/></g></g><g transform="translate(262.199899, 272.614361)"><g><path d="M 22.78125 0.671875 C 19.382812 0.671875 16.332031 -0.144531 13.625 -1.78125 C 10.925781 -3.425781 8.769531 -6.023438 7.15625 -9.578125 C 5.550781 -13.140625 4.75 -17.671875 4.75 -23.171875 C 4.75 -28.660156 5.550781 -33.1875 7.15625 -36.75 C 8.769531 -40.3125 10.925781 -42.910156 13.625 -44.546875 C 16.332031 -46.179688 19.382812 -47 22.78125 -47 C 26.1875 -47 29.238281 -46.179688 31.9375 -44.546875 C 34.644531 -42.910156 36.796875 -40.3125 38.390625 -36.75 C 39.984375 -33.1875 40.78125 -28.660156 40.78125 -23.171875 C 40.78125 -17.671875 39.984375 -13.140625 38.390625 -9.578125 C 36.796875 -6.023438 34.644531 -3.425781 31.9375 -1.78125 C 29.238281 -0.144531 26.1875 0.671875 22.78125 0.671875 Z M 22.78125 -4.375 C 26.820312 -4.375 29.878906 -5.828125 31.953125 -8.734375 C 34.035156 -11.640625 35.078125 -16.453125 35.078125 -23.171875 C 35.078125 -29.890625 34.035156 -34.695312 31.953125 -37.59375 C 29.878906 -40.5 26.820312 -41.953125 22.78125 -41.953125 C 20.125 -41.953125 17.882812 -41.335938 16.0625 -40.109375 C 14.25 -38.890625 12.859375 -36.894531 11.890625 -34.125 C 10.929688 -31.363281 10.453125 -27.710938 10.453125 -23.171875 C 10.453125 -18.628906 10.929688 -14.972656 11.890625 -12.203125 C 12.859375 -9.429688 14.25 -7.429688 16.0625 -6.203125 C 17.882812 -4.984375 20.125 -4.375 22.78125 -4.375 Z M 22.78125 -4.375 "/></g></g><g transform="translate(307.775077, 272.614361)"><g><path d="M 2.78125 -2.125 C 2.78125 -4.675781 3.0625 -6.734375 3.625 -8.296875 C 4.1875 -9.867188 5.144531 -11.328125 6.5 -12.671875 C 7.851562 -14.023438 10.007812 -15.78125 12.96875 -17.9375 L 18.0625 -21.640625 C 19.945312 -23.015625 21.476562 -24.28125 22.65625 -25.4375 C 23.84375 -26.601562 24.78125 -27.867188 25.46875 -29.234375 C 26.15625 -30.597656 26.5 -32.125 26.5 -33.8125 C 26.5 -36.5625 25.769531 -38.632812 24.3125 -40.03125 C 22.851562 -41.425781 20.570312 -42.125 17.46875 -42.125 C 15.007812 -42.125 12.828125 -41.550781 10.921875 -40.40625 C 9.023438 -39.269531 7.507812 -37.65625 6.375 -35.5625 L 5.640625 -35.4375 L 2.375 -38.859375 C 3.9375 -41.390625 5.988281 -43.378906 8.53125 -44.828125 C 11.082031 -46.273438 14.0625 -47 17.46875 -47 C 20.757812 -47 23.492188 -46.4375 25.671875 -45.3125 C 27.847656 -44.195312 29.453125 -42.648438 30.484375 -40.671875 C 31.523438 -38.703125 32.046875 -36.414062 32.046875 -33.8125 C 32.046875 -31.738281 31.609375 -29.804688 30.734375 -28.015625 C 29.867188 -26.222656 28.644531 -24.53125 27.0625 -22.9375 C 25.476562 -21.351562 23.492188 -19.6875 21.109375 -17.9375 L 15.9375 -14.171875 C 14.019531 -12.753906 12.539062 -11.546875 11.5 -10.546875 C 10.46875 -9.554688 9.710938 -8.59375 9.234375 -7.65625 C 8.765625 -6.71875 8.53125 -5.664062 8.53125 -4.5 L 32.046875 -4.5 L 32.046875 0 L 2.78125 0 Z M 2.78125 -2.125 "/></g></g><g transform="translate(343.398513, 272.614361)"><g><path d="M 18.34375 0.671875 C 13.84375 0.671875 10.269531 -0.34375 7.625 -2.375 C 4.988281 -4.40625 3.28125 -7.21875 2.5 -10.8125 L 6.5625 -12.640625 L 7.296875 -12.515625 C 8.097656 -9.742188 9.335938 -7.671875 11.015625 -6.296875 C 12.691406 -4.929688 15.132812 -4.25 18.34375 -4.25 C 21.625 -4.25 24.117188 -5 25.828125 -6.5 C 27.535156 -8 28.390625 -10.207031 28.390625 -13.125 C 28.390625 -15.976562 27.519531 -18.15625 25.78125 -19.65625 C 24.039062 -21.15625 21.300781 -21.90625 17.5625 -21.90625 L 12.515625 -21.90625 L 12.515625 -26.40625 L 17.015625 -26.40625 C 19.929688 -26.40625 22.25 -27.125 23.96875 -28.5625 C 25.695312 -30.007812 26.5625 -32.054688 26.5625 -34.703125 C 26.5625 -37.210938 25.816406 -39.097656 24.328125 -40.359375 C 22.835938 -41.617188 20.75 -42.25 18.0625 -42.25 C 13.394531 -42.25 10.066406 -40.390625 8.078125 -36.671875 L 7.359375 -36.546875 L 4.3125 -39.875 C 5.5625 -42 7.359375 -43.71875 9.703125 -45.03125 C 12.046875 -46.34375 14.832031 -47 18.0625 -47 C 21.019531 -47 23.539062 -46.539062 25.625 -45.625 C 27.707031 -44.707031 29.285156 -43.378906 30.359375 -41.640625 C 31.441406 -39.910156 31.984375 -37.84375 31.984375 -35.4375 C 31.984375 -33.15625 31.320312 -31.148438 30 -29.421875 C 28.675781 -27.703125 26.925781 -26.347656 24.75 -25.359375 L 24.75 -24.6875 C 27.8125 -23.945312 30.113281 -22.566406 31.65625 -20.546875 C 33.195312 -18.535156 33.96875 -16.0625 33.96875 -13.125 C 33.96875 -8.726562 32.65625 -5.328125 30.03125 -2.921875 C 27.414062 -0.523438 23.519531 0.671875 18.34375 0.671875 Z M 18.34375 0.671875 "/></g></g><g transform="translate(381.050329, 272.614361)"><g/></g><g transform="translate(396.96044, 272.614361)"><g><path d="M 21.328125 -20.1875 L 3.296875 -20.1875 L 3.296875 -24.8125 L 21.328125 -24.8125 Z M 21.328125 -20.1875 "/></g></g><g transform="translate(421.554556, 272.614361)"><g/></g><g transform="translate(437.464667, 272.614361)"><g><path d="M 2.78125 -2.125 C 2.78125 -4.675781 3.0625 -6.734375 3.625 -8.296875 C 4.1875 -9.867188 5.144531 -11.328125 6.5 -12.671875 C 7.851562 -14.023438 10.007812 -15.78125 12.96875 -17.9375 L 18.0625 -21.640625 C 19.945312 -23.015625 21.476562 -24.28125 22.65625 -25.4375 C 23.84375 -26.601562 24.78125 -27.867188 25.46875 -29.234375 C 26.15625 -30.597656 26.5 -32.125 26.5 -33.8125 C 26.5 -36.5625 25.769531 -38.632812 24.3125 -40.03125 C 22.851562 -41.425781 20.570312 -42.125 17.46875 -42.125 C 15.007812 -42.125 12.828125 -41.550781 10.921875 -40.40625 C 9.023438 -39.269531 7.507812 -37.65625 6.375 -35.5625 L 5.640625 -35.4375 L 2.375 -38.859375 C 3.9375 -41.390625 5.988281 -43.378906 8.53125 -44.828125 C 11.082031 -46.273438 14.0625 -47 17.46875 -47 C 20.757812 -47 23.492188 -46.4375 25.671875 -45.3125 C 27.847656 -44.195312 29.453125 -42.648438 30.484375 -40.671875 C 31.523438 -38.703125 32.046875 -36.414062 32.046875 -33.8125 C 32.046875 -31.738281 31.609375 -29.804688 30.734375 -28.015625 C 29.867188 -26.222656 28.644531 -24.53125 27.0625 -22.9375 C 25.476562 -21.351562 23.492188 -19.6875 21.109375 -17.9375 L 15.9375 -14.171875 C 14.019531 -12.753906 12.539062 -11.546875 11.5 -10.546875 C 10.46875 -9.554688 9.710938 -8.59375 9.234375 -7.65625 C 8.765625 -6.71875 8.53125 -5.664062 8.53125 -4.5 L 32.046875 -4.5 L 32.046875 0 L 2.78125 0 Z M 2.78125 -2.125 "/></g></g><g transform="translate(473.088102, 272.614361)"><g/></g><g transform="translate(488.998213, 272.614361)"><g><path d="M 6.078125 0 L 6.078125 -49 L 11.25 -49 L 11.25 -29.984375 L 11.921875 -29.859375 C 14.410156 -33.703125 18.007812 -35.625 22.71875 -35.625 C 26.925781 -35.625 29.972656 -34.550781 31.859375 -32.40625 C 33.753906 -30.257812 34.703125 -26.957031 34.703125 -22.5 L 34.703125 0 L 29.53125 0 L 29.53125 -22.375 C 29.53125 -24.488281 29.257812 -26.179688 28.71875 -27.453125 C 28.1875 -28.734375 27.351562 -29.664062 26.21875 -30.25 C 25.09375 -30.832031 23.609375 -31.125 21.765625 -31.125 C 18.597656 -31.125 16.050781 -30.097656 14.125 -28.046875 C 12.207031 -25.992188 11.25 -22.625 11.25 -17.9375 L 11.25 0 Z M 6.078125 0 "/></g></g><g transform="translate(529.248892, 272.614361)"><g><path d="M 20.0625 0.671875 C 16.769531 0.671875 13.898438 -0.0234375 11.453125 -1.421875 C 9.015625 -2.816406 7.132812 -4.867188 5.8125 -7.578125 C 4.488281 -10.296875 3.828125 -13.59375 3.828125 -17.46875 C 3.828125 -21.332031 4.488281 -24.625 5.8125 -27.34375 C 7.132812 -30.070312 9.015625 -32.132812 11.453125 -33.53125 C 13.898438 -34.925781 16.769531 -35.625 20.0625 -35.625 C 23.351562 -35.625 26.21875 -34.925781 28.65625 -33.53125 C 31.101562 -32.132812 32.984375 -30.070312 34.296875 -27.34375 C 35.617188 -24.625 36.28125 -21.332031 36.28125 -17.46875 C 36.28125 -13.59375 35.617188 -10.296875 34.296875 -7.578125 C 32.984375 -4.867188 31.101562 -2.816406 28.65625 -1.421875 C 26.21875 -0.0234375 23.351562 0.671875 20.0625 0.671875 Z M 20.0625 -3.96875 C 23.550781 -3.96875 26.21875 -5.0625 28.0625 -7.25 C 29.914062 -9.445312 30.84375 -12.851562 30.84375 -17.46875 C 30.84375 -22.09375 29.914062 -25.503906 28.0625 -27.703125 C 26.21875 -29.898438 23.550781 -31 20.0625 -31 C 16.570312 -31 13.894531 -29.894531 12.03125 -27.6875 C 10.175781 -25.476562 9.25 -22.070312 9.25 -17.46875 C 9.25 -12.851562 10.175781 -9.445312 12.03125 -7.25 C 13.894531 -5.0625 16.570312 -3.96875 20.0625 -3.96875 Z M 20.0625 -3.96875 "/></g></g><g transform="translate(569.372797, 272.614361)"><g><path d="M 17.265625 0.671875 C 13.316406 0.671875 10.375 -0.375 8.4375 -2.46875 C 6.507812 -4.5625 5.546875 -7.625 5.546875 -11.65625 L 5.546875 -34.953125 L 10.71875 -34.953125 L 10.71875 -11.796875 C 10.71875 -6.484375 13.207031 -3.828125 18.1875 -3.828125 C 21.363281 -3.828125 23.867188 -4.863281 25.703125 -6.9375 C 27.535156 -9.007812 28.453125 -12.367188 28.453125 -17.015625 L 28.453125 -34.953125 L 33.625 -34.953125 L 33.625 0 L 28.75 0 L 28.75 -5.484375 L 28.078125 -5.640625 C 26.867188 -3.503906 25.425781 -1.914062 23.75 -0.875 C 22.070312 0.15625 19.910156 0.671875 17.265625 0.671875 Z M 17.265625 0.671875 "/></g></g><g transform="translate(609.084687, 272.614361)"><g><path d="M 6.078125 0 L 6.078125 -34.953125 L 11 -34.953125 L 11 -29.46875 L 11.65625 -29.3125 C 13.289062 -33.289062 16.359375 -35.28125 20.859375 -35.28125 C 23.242188 -35.28125 25.023438 -34.84375 26.203125 -33.96875 L 24.875 -29.59375 L 24.25 -29.46875 C 22.9375 -30.125 21.5 -30.453125 19.9375 -30.453125 C 17.144531 -30.453125 15 -29.40625 13.5 -27.3125 C 12 -25.226562 11.25 -21.835938 11.25 -17.140625 L 11.25 0 Z M 6.078125 0 "/></g></g><g transform="translate(636.087505, 272.614361)"><g><path d="M 15.9375 0.671875 C 13.738281 0.671875 11.703125 0.378906 9.828125 -0.203125 C 7.960938 -0.785156 6.382812 -1.582031 5.09375 -2.59375 C 3.8125 -3.613281 2.90625 -4.753906 2.375 -6.015625 L 5.421875 -9.1875 L 6.078125 -9.1875 C 7.222656 -7.457031 8.597656 -6.15625 10.203125 -5.28125 C 11.804688 -4.40625 13.71875 -3.96875 15.9375 -3.96875 C 18.519531 -3.96875 20.476562 -4.46875 21.8125 -5.46875 C 23.15625 -6.46875 23.828125 -7.867188 23.828125 -9.671875 C 23.828125 -11.035156 23.421875 -12.164062 22.609375 -13.0625 C 21.796875 -13.96875 20.484375 -14.640625 18.671875 -15.078125 L 12.765625 -16.546875 C 9.617188 -17.304688 7.320312 -18.507812 5.875 -20.15625 C 4.425781 -21.800781 3.703125 -23.835938 3.703125 -26.265625 C 3.703125 -28.171875 4.1875 -29.828125 5.15625 -31.234375 C 6.132812 -32.640625 7.535156 -33.722656 9.359375 -34.484375 C 11.191406 -35.242188 13.363281 -35.625 15.875 -35.625 C 19.082031 -35.625 21.609375 -35.171875 23.453125 -34.265625 C 25.304688 -33.367188 26.753906 -32.117188 27.796875 -30.515625 L 24.875 -27.671875 L 24.25 -27.671875 C 23.125 -28.953125 21.898438 -29.878906 20.578125 -30.453125 C 19.265625 -31.023438 17.695312 -31.3125 15.875 -31.3125 C 13.570312 -31.3125 11.804688 -30.898438 10.578125 -30.078125 C 9.359375 -29.253906 8.75 -28.0625 8.75 -26.5 C 8.75 -25.082031 9.179688 -23.9375 10.046875 -23.0625 C 10.910156 -22.195312 12.421875 -21.503906 14.578125 -20.984375 L 20.375 -19.59375 C 23.414062 -18.875 25.613281 -17.675781 26.96875 -16 C 28.320312 -14.332031 29 -12.242188 29 -9.734375 C 29 -7.679688 28.507812 -5.875 27.53125 -4.3125 C 26.5625 -2.75 25.09375 -1.523438 23.125 -0.640625 C 21.164062 0.234375 18.769531 0.671875 15.9375 0.671875 Z M 15.9375 0.671875 "/></g></g></g><g fill="#000000" fill-opacity="1"><g transform="translate(0.00000525, 434.884814)"><g><path d="M 15.09375 -58.671875 L 17.28125 -54.046875 C 15.175781 -53.390625 13.609375 -52.398438 12.578125 -51.078125 C 11.546875 -49.753906 11.003906 -47.957031 10.953125 -45.6875 L 16.3125 -45.6875 L 16.3125 -34.5625 L 5.1875 -34.5625 L 5.1875 -43.484375 C 5.1875 -47.546875 5.941406 -50.753906 7.453125 -53.109375 C 8.972656 -55.460938 11.519531 -57.316406 15.09375 -58.671875 Z M 33.75 -58.671875 L 35.9375 -54.046875 C 33.78125 -53.390625 32.210938 -52.382812 31.234375 -51.03125 C 30.265625 -49.6875 29.722656 -47.90625 29.609375 -45.6875 L 34.96875 -45.6875 L 34.96875 -34.5625 L 23.859375 -34.5625 L 23.859375 -43.578125 C 23.859375 -47.628906 24.628906 -50.816406 26.171875 -53.140625 C 27.710938 -55.472656 30.238281 -57.316406 33.75 -58.671875 Z M 33.75 -58.671875 "/></g></g></g><g fill="#000000" fill-opacity="1"><g transform="translate(40.567556, 434.884814)"><g><path d="M 47.796875 -48.28125 L 30.59375 -48.28125 L 30.59375 0 L 18.90625 0 L 18.90625 -48.28125 L 1.703125 -48.28125 L 1.703125 -58.09375 L 47.796875 -58.09375 Z M 47.796875 -48.28125 "/></g></g></g><g fill="#000000" fill-opacity="1"><g transform="translate(90.141123, 434.884814)"><g><path d="M 16.875 -36.671875 C 18.769531 -38.890625 20.757812 -40.5 22.84375 -41.5 C 24.925781 -42.5 27.179688 -43 29.609375 -43 C 31.941406 -43 34.015625 -42.644531 35.828125 -41.9375 C 37.640625 -41.238281 39.140625 -40.320312 40.328125 -39.1875 C 42.765625 -36.8125 43.984375 -32.429688 43.984375 -26.046875 L 43.984375 0 L 32.859375 0 L 32.859375 -23.6875 C 32.859375 -26.226562 32.695312 -28.253906 32.375 -29.765625 C 32.050781 -31.285156 31.398438 -32.453125 30.421875 -33.265625 C 29.453125 -34.078125 27.96875 -34.484375 25.96875 -34.484375 C 22.445312 -34.484375 20.050781 -33.347656 18.78125 -31.078125 C 17.507812 -28.804688 16.875 -25.773438 16.875 -21.984375 L 16.875 0 L 5.765625 0 L 5.765625 -58.09375 L 16.875 -58.09375 Z M 16.875 -36.671875 "/></g></g></g><g fill="#000000" fill-opacity="1"><g transform="translate(139.714689, 434.884814)"><g><path d="M 22.234375 -43 C 27.585938 -43 31.5625 -42.304688 34.15625 -40.921875 C 36.757812 -39.546875 38.394531 -37.734375 39.0625 -35.484375 C 39.738281 -33.242188 40.050781 -30.285156 40 -26.609375 L 39.921875 -14.359375 C 39.867188 -10.515625 40.003906 -7.726562 40.328125 -6 C 40.648438 -4.269531 41.328125 -2.269531 42.359375 0 L 31.40625 0 C 31.132812 -0.59375 30.644531 -2.132812 29.9375 -4.625 C 27.9375 -2.675781 25.867188 -1.253906 23.734375 -0.359375 C 21.597656 0.523438 19.3125 0.96875 16.875 0.96875 C 12.707031 0.96875 9.335938 -0.175781 6.765625 -2.46875 C 4.203125 -4.769531 2.921875 -7.757812 2.921875 -11.4375 C 2.921875 -14.519531 3.691406 -16.96875 5.234375 -18.78125 C 6.773438 -20.59375 8.65625 -21.90625 10.875 -22.71875 C 13.09375 -23.53125 15.71875 -24.234375 18.75 -24.828125 C 23.394531 -25.691406 26.828125 -26.554688 29.046875 -27.421875 L 29.046875 -29.203125 C 29.046875 -31.046875 28.503906 -32.382812 27.421875 -33.21875 C 26.335938 -34.0625 24.363281 -34.484375 21.5 -34.484375 C 19.28125 -34.484375 17.628906 -34.035156 16.546875 -33.140625 C 15.472656 -32.253906 14.664062 -30.941406 14.125 -29.203125 L 4.0625 -31.078125 C 5.144531 -35.191406 7.09375 -38.207031 9.90625 -40.125 C 12.71875 -42.039062 16.828125 -43 22.234375 -43 Z M 22.0625 -18.421875 L 20.203125 -18.015625 C 16.085938 -17.148438 14.03125 -15.363281 14.03125 -12.65625 C 14.03125 -11.03125 14.613281 -9.660156 15.78125 -8.546875 C 16.945312 -7.441406 18.421875 -6.890625 20.203125 -6.890625 C 21.660156 -6.890625 23.117188 -7.269531 24.578125 -8.03125 C 26.046875 -8.789062 27.1875 -9.789062 28 -11.03125 C 28.695312 -12.164062 29.046875 -14.113281 29.046875 -16.875 L 29.046875 -20.203125 C 26.941406 -19.554688 24.613281 -18.960938 22.0625 -18.421875 Z M 22.0625 -18.421875 "/></g></g></g><g fill="#000000" fill-opacity="1"><g transform="translate(184.825855, 434.884814)"><g><path d="M 17.53125 -42.03125 L 25.078125 -42.03125 L 25.078125 -33.1875 L 17.53125 -33.1875 L 17.53125 -14.6875 C 17.53125 -12.90625 17.597656 -11.578125 17.734375 -10.703125 C 17.867188 -9.835938 18.148438 -9.21875 18.578125 -8.84375 C 19.015625 -8.46875 19.691406 -8.28125 20.609375 -8.28125 C 21.742188 -8.28125 23.234375 -8.628906 25.078125 -9.328125 L 26.046875 -0.734375 C 24.910156 -0.191406 23.53125 0.222656 21.90625 0.515625 C 20.28125 0.816406 18.738281 0.96875 17.28125 0.96875 C 15.175781 0.96875 13.3125 0.617188 11.6875 -0.078125 C 10.0625 -0.785156 8.867188 -1.734375 8.109375 -2.921875 C 7.296875 -4.273438 6.796875 -5.773438 6.609375 -7.421875 C 6.421875 -9.078125 6.328125 -11.144531 6.328125 -13.625 L 6.328125 -33.1875 L 1.21875 -33.1875 L 1.21875 -42.03125 L 6.328125 -42.03125 L 6.328125 -50.390625 L 17.53125 -56.953125 Z M 17.53125 -42.03125 "/></g></g></g><g fill="#000000" fill-opacity="1"><g transform="translate(211.843839, 434.884814)"><g><path d="M 16.640625 -49.09375 C 16.640625 -45.082031 15.867188 -41.898438 14.328125 -39.546875 C 12.785156 -37.203125 10.253906 -35.351562 6.734375 -34 L 4.546875 -38.625 C 6.710938 -39.320312 8.296875 -40.320312 9.296875 -41.625 C 10.296875 -42.925781 10.820312 -44.710938 10.875 -46.984375 L 5.515625 -46.984375 L 5.515625 -58.09375 L 16.640625 -58.09375 Z M 16.640625 -49.09375 "/></g></g></g><g fill="#000000" fill-opacity="1"><g transform="translate(234.399422, 434.884814)"><g><path d="M 21.171875 -43 C 26.421875 -43 30.546875 -42.132812 33.546875 -40.40625 C 36.554688 -38.675781 38.628906 -35.835938 39.765625 -31.890625 L 29.203125 -29.9375 C 28.722656 -31.664062 27.847656 -32.945312 26.578125 -33.78125 C 25.304688 -34.625 23.535156 -35.046875 21.265625 -35.046875 C 16.234375 -35.046875 13.71875 -33.882812 13.71875 -31.5625 C 13.71875 -30.425781 14.539062 -29.519531 16.1875 -28.84375 C 17.832031 -28.164062 20.226562 -27.476562 23.375 -26.78125 C 27.207031 -25.914062 30.34375 -25.035156 32.78125 -24.140625 C 35.21875 -23.242188 37.21875 -21.914062 38.78125 -20.15625 C 40.351562 -18.40625 41.140625 -16.066406 41.140625 -13.140625 C 41.140625 -10.765625 40.472656 -8.507812 39.140625 -6.375 C 37.816406 -4.238281 35.722656 -2.476562 32.859375 -1.09375 C 29.992188 0.28125 26.367188 0.96875 21.984375 0.96875 C 17.066406 0.96875 12.726562 -0.0820312 8.96875 -2.1875 C 5.207031 -4.300781 2.835938 -7.578125 1.859375 -12.015625 L 12.984375 -13.71875 C 14.015625 -9.226562 17.015625 -6.984375 21.984375 -6.984375 C 23.929688 -6.984375 25.753906 -7.316406 27.453125 -7.984375 C 29.160156 -8.660156 30.015625 -9.867188 30.015625 -11.609375 C 30.015625 -12.742188 29.625 -13.539062 28.84375 -14 C 28.0625 -14.457031 26.804688 -14.875 25.078125 -15.25 C 19.929688 -16.382812 15.925781 -17.4375 13.0625 -18.40625 C 10.195312 -19.382812 7.867188 -20.789062 6.078125 -22.625 C 4.296875 -24.46875 3.40625 -26.960938 3.40625 -30.109375 C 3.40625 -34.484375 5.082031 -37.722656 8.4375 -39.828125 C 11.789062 -41.941406 16.035156 -43 21.171875 -43 Z M 21.171875 -43 "/></g></g></g><g fill="#000000" fill-opacity="1"><g transform="translate(279.510588, 434.884814)"><g/></g></g><g fill="#000000" fill-opacity="1"><g transform="translate(302.066171, 434.884814)"><g><path d="M 28.40625 -43 C 33.863281 -43 37.835938 -40.78125 40.328125 -36.34375 C 43.953125 -40.78125 48.222656 -43 53.140625 -43 C 57.796875 -43 61.257812 -41.726562 63.53125 -39.1875 C 65.800781 -36.644531 66.9375 -32.832031 66.9375 -27.75 L 66.9375 0 L 55.828125 0 L 55.828125 -25.15625 C 55.828125 -28.1875 55.429688 -30.5 54.640625 -32.09375 C 53.859375 -33.6875 52.28125 -34.484375 49.90625 -34.484375 C 47.632812 -34.484375 45.804688 -33.695312 44.421875 -32.125 C 43.046875 -30.5625 42.195312 -28.535156 41.875 -26.046875 C 41.65625 -24.097656 41.546875 -22.367188 41.546875 -20.859375 L 41.546875 0 L 30.421875 0 L 30.421875 -24.75 C 30.421875 -28.15625 30.054688 -30.628906 29.328125 -32.171875 C 28.597656 -33.710938 27.046875 -34.484375 24.671875 -34.484375 C 22.929688 -34.484375 21.375 -34.019531 20 -33.09375 C 18.625 -32.175781 17.664062 -30.910156 17.125 -29.296875 C 16.46875 -27.347656 16.140625 -24.613281 16.140625 -21.09375 L 16.140625 0 L 5.03125 0 L 5.03125 -42.03125 L 15.328125 -42.03125 L 15.5 -36.34375 C 17.226562 -38.457031 19.050781 -40.09375 20.96875 -41.25 C 22.894531 -42.414062 25.375 -43 28.40625 -43 Z M 28.40625 -43 "/></g></g></g><g fill="#000000" fill-opacity="1"><g transform="translate(374.195322, 434.884814)"><g><path d="M 22.390625 -12.171875 L 22.5625 -12.171875 L 32.296875 -42.03125 L 43.8125 -42.03125 L 28.96875 -1.546875 L 28 1.296875 C 26.59375 5.242188 25.332031 8.234375 24.21875 10.265625 C 23.113281 12.296875 21.488281 13.929688 19.34375 15.171875 C 17.207031 16.421875 14.273438 17.046875 10.546875 17.046875 C 8.328125 17.046875 6.21875 16.828125 4.21875 16.390625 L 3.25 7.703125 C 5.132812 8.023438 6.675781 8.1875 7.875 8.1875 C 10.195312 8.1875 11.992188 7.578125 13.265625 6.359375 C 14.535156 5.148438 15.628906 3.054688 16.546875 0.078125 L 0.5625 -42.03125 L 12.421875 -42.03125 Z M 22.390625 -12.171875 "/></g></g></g><g fill="#000000" fill-opacity="1"><g transform="translate(419.306488, 434.884814)"><g/></g></g><g fill="#000000" fill-opacity="1"><g transform="translate(441.862071, 434.884814)"><g><path d="M 21.171875 -43 C 26.421875 -43 30.546875 -42.132812 33.546875 -40.40625 C 36.554688 -38.675781 38.628906 -35.835938 39.765625 -31.890625 L 29.203125 -29.9375 C 28.722656 -31.664062 27.847656 -32.945312 26.578125 -33.78125 C 25.304688 -34.625 23.535156 -35.046875 21.265625 -35.046875 C 16.234375 -35.046875 13.71875 -33.882812 13.71875 -31.5625 C 13.71875 -30.425781 14.539062 -29.519531 16.1875 -28.84375 C 17.832031 -28.164062 20.226562 -27.476562 23.375 -26.78125 C 27.207031 -25.914062 30.34375 -25.035156 32.78125 -24.140625 C 35.21875 -23.242188 37.21875 -21.914062 38.78125 -20.15625 C 40.351562 -18.40625 41.140625 -16.066406 41.140625 -13.140625 C 41.140625 -10.765625 40.472656 -8.507812 39.140625 -6.375 C 37.816406 -4.238281 35.722656 -2.476562 32.859375 -1.09375 C 29.992188 0.28125 26.367188 0.96875 21.984375 0.96875 C 17.066406 0.96875 12.726562 -0.0820312 8.96875 -2.1875 C 5.207031 -4.300781 2.835938 -7.578125 1.859375 -12.015625 L 12.984375 -13.71875 C 14.015625 -9.226562 17.015625 -6.984375 21.984375 -6.984375 C 23.929688 -6.984375 25.753906 -7.316406 27.453125 -7.984375 C 29.160156 -8.660156 30.015625 -9.867188 30.015625 -11.609375 C 30.015625 -12.742188 29.625 -13.539062 28.84375 -14 C 28.0625 -14.457031 26.804688 -14.875 25.078125 -15.25 C 19.929688 -16.382812 15.925781 -17.4375 13.0625 -18.40625 C 10.195312 -19.382812 7.867188 -20.789062 6.078125 -22.625 C 4.296875 -24.46875 3.40625 -26.960938 3.40625 -30.109375 C 3.40625 -34.484375 5.082031 -37.722656 8.4375 -39.828125 C 11.789062 -41.941406 16.035156 -43 21.171875 -43 Z M 21.171875 -43 "/></g></g></g><g fill="#000000" fill-opacity="1"><g transform="translate(486.973237, 434.884814)"><g><path d="M 21.90625 -43 C 28.613281 -43 33.617188 -40.820312 36.921875 -36.46875 C 40.222656 -32.113281 41.875 -25.90625 41.875 -17.84375 L 13.953125 -17.84375 C 14.066406 -15.03125 14.894531 -12.609375 16.4375 -10.578125 C 17.976562 -8.554688 20.207031 -7.546875 23.125 -7.546875 C 24.96875 -7.546875 26.46875 -8.019531 27.625 -8.96875 C 28.789062 -9.914062 29.644531 -11.390625 30.1875 -13.390625 L 41.296875 -11.515625 C 39.890625 -7.410156 37.617188 -4.300781 34.484375 -2.1875 C 31.347656 -0.0820312 27.507812 0.96875 22.96875 0.96875 C 16.195312 0.96875 11.082031 -1.054688 7.625 -5.109375 C 6 -7.003906 4.753906 -9.382812 3.890625 -12.25 C 3.023438 -15.113281 2.59375 -17.953125 2.59375 -20.765625 C 2.59375 -24.609375 3.28125 -28.21875 4.65625 -31.59375 C 6.039062 -34.976562 8.179688 -37.722656 11.078125 -39.828125 C 13.972656 -41.941406 17.582031 -43 21.90625 -43 Z M 14.203125 -24.671875 L 30.828125 -24.671875 C 30.773438 -28.078125 29.921875 -30.5625 28.265625 -32.125 C 26.617188 -33.695312 24.6875 -34.484375 22.46875 -34.484375 C 19.875 -34.484375 17.847656 -33.550781 16.390625 -31.6875 C 14.929688 -29.820312 14.203125 -27.484375 14.203125 -24.671875 Z M 14.203125 -24.671875 "/></g></g></g><g fill="#000000" fill-opacity="1"><g transform="translate(532.084403, 434.884814)"><g><path d="M 8.4375 -36.671875 C 12.0625 -40.890625 17.203125 -43 23.859375 -43 C 33.859375 -43 40.101562 -38.535156 42.59375 -29.609375 L 31.640625 -27.671875 C 30.722656 -32.109375 28.179688 -34.328125 24.015625 -34.328125 C 21.203125 -34.328125 18.96875 -33.351562 17.3125 -31.40625 C 15.664062 -29.457031 14.84375 -26.289062 14.84375 -21.90625 C 14.84375 -17.632812 15.546875 -14.265625 16.953125 -11.796875 C 18.359375 -9.335938 20.769531 -8.109375 24.1875 -8.109375 C 26.394531 -8.109375 28.160156 -8.769531 29.484375 -10.09375 C 30.816406 -11.425781 31.726562 -13.441406 32.21875 -16.140625 L 43.171875 -14.28125 C 40.898438 -4.113281 34.378906 0.96875 23.609375 0.96875 C 17.222656 0.96875 12.300781 -0.976562 8.84375 -4.875 C 7.0625 -6.875 5.707031 -9.304688 4.78125 -12.171875 C 3.863281 -15.035156 3.40625 -17.984375 3.40625 -21.015625 C 3.40625 -24.148438 3.835938 -27.066406 4.703125 -29.765625 C 5.566406 -32.472656 6.8125 -34.773438 8.4375 -36.671875 Z M 8.4375 -36.671875 "/></g></g></g><g fill="#000000" fill-opacity="1"><g transform="translate(577.195569, 434.884814)"><g><path d="M 25.3125 -43 C 26.5 -43 27.753906 -42.8125 29.078125 -42.4375 C 30.410156 -42.0625 31.59375 -41.570312 32.625 -40.96875 L 29.125 -31.234375 C 27.238281 -32.429688 25.507812 -33.03125 23.9375 -33.03125 C 21.820312 -33.03125 20.222656 -32.3125 19.140625 -30.875 C 18.066406 -29.4375 17.351562 -27.429688 17 -24.859375 C 16.644531 -22.296875 16.46875 -18.878906 16.46875 -14.609375 L 16.46875 0 L 5.359375 0 L 5.359375 -42.03125 L 15.65625 -42.03125 L 15.65625 -36.109375 L 15.828125 -36.109375 C 17.171875 -38.378906 18.519531 -40.09375 19.875 -41.25 C 21.226562 -42.414062 23.039062 -43 25.3125 -43 Z M 25.3125 -43 "/></g></g></g><g fill="#000000" fill-opacity="1"><g transform="translate(608.757167, 434.884814)"><g><path d="M 21.90625 -43 C 28.613281 -43 33.617188 -40.820312 36.921875 -36.46875 C 40.222656 -32.113281 41.875 -25.90625 41.875 -17.84375 L 13.953125 -17.84375 C 14.066406 -15.03125 14.894531 -12.609375 16.4375 -10.578125 C 17.976562 -8.554688 20.207031 -7.546875 23.125 -7.546875 C 24.96875 -7.546875 26.46875 -8.019531 27.625 -8.96875 C 28.789062 -9.914062 29.644531 -11.390625 30.1875 -13.390625 L 41.296875 -11.515625 C 39.890625 -7.410156 37.617188 -4.300781 34.484375 -2.1875 C 31.347656 -0.0820312 27.507812 0.96875 22.96875 0.96875 C 16.195312 0.96875 11.082031 -1.054688 7.625 -5.109375 C 6 -7.003906 4.753906 -9.382812 3.890625 -12.25 C 3.023438 -15.113281 2.59375 -17.953125 2.59375 -20.765625 C 2.59375 -24.609375 3.28125 -28.21875 4.65625 -31.59375 C 6.039062 -34.976562 8.179688 -37.722656 11.078125 -39.828125 C 13.972656 -41.941406 17.582031 -43 21.90625 -43 Z M 14.203125 -24.671875 L 30.828125 -24.671875 C 30.773438 -28.078125 29.921875 -30.5625 28.265625 -32.125 C 26.617188 -33.695312 24.6875 -34.484375 22.46875 -34.484375 C 19.875 -34.484375 17.847656 -33.550781 16.390625 -31.6875 C 14.929688 -29.820312 14.203125 -27.484375 14.203125 -24.671875 Z M 14.203125 -24.671875 "/></g></g></g><g fill="#000000" fill-opacity="1"><g transform="translate(653.868333, 434.884814)"><g><path d="M 17.53125 -42.03125 L 25.078125 -42.03125 L 25.078125 -33.1875 L 17.53125 -33.1875 L 17.53125 -14.6875 C 17.53125 -12.90625 17.597656 -11.578125 17.734375 -10.703125 C 17.867188 -9.835938 18.148438 -9.21875 18.578125 -8.84375 C 19.015625 -8.46875 19.691406 -8.28125 20.609375 -8.28125 C 21.742188 -8.28125 23.234375 -8.628906 25.078125 -9.328125 L 26.046875 -0.734375 C 24.910156 -0.191406 23.53125 0.222656 21.90625 0.515625 C 20.28125 0.816406 18.738281 0.96875 17.28125 0.96875 C 15.175781 0.96875 13.3125 0.617188 11.6875 -0.078125 C 10.0625 -0.785156 8.867188 -1.734375 8.109375 -2.921875 C 7.296875 -4.273438 6.796875 -5.773438 6.609375 -7.421875 C 6.421875 -9.078125 6.328125 -11.144531 6.328125 -13.625 L 6.328125 -33.1875 L 1.21875 -33.1875 L 1.21875 -42.03125 L 6.328125 -42.03125 L 6.328125 -50.390625 L 17.53125 -56.953125 Z M 17.53125 -42.03125 "/></g></g></g><g fill="#000000" fill-opacity="1"><g transform="translate(680.886317, 434.884814)"><g/></g></g><g fill="#000000" fill-opacity="1"><g transform="translate(703.4419, 434.884814)"><g><path d="M 8.4375 -36.671875 C 12.0625 -40.890625 17.203125 -43 23.859375 -43 C 33.859375 -43 40.101562 -38.535156 42.59375 -29.609375 L 31.640625 -27.671875 C 30.722656 -32.109375 28.179688 -34.328125 24.015625 -34.328125 C 21.203125 -34.328125 18.96875 -33.351562 17.3125 -31.40625 C 15.664062 -29.457031 14.84375 -26.289062 14.84375 -21.90625 C 14.84375 -17.632812 15.546875 -14.265625 16.953125 -11.796875 C 18.359375 -9.335938 20.769531 -8.109375 24.1875 -8.109375 C 26.394531 -8.109375 28.160156 -8.769531 29.484375 -10.09375 C 30.816406 -11.425781 31.726562 -13.441406 32.21875 -16.140625 L 43.171875 -14.28125 C 40.898438 -4.113281 34.378906 0.96875 23.609375 0.96875 C 17.222656 0.96875 12.300781 -0.976562 8.84375 -4.875 C 7.0625 -6.875 5.707031 -9.304688 4.78125 -12.171875 C 3.863281 -15.035156 3.40625 -17.984375 3.40625 -21.015625 C 3.40625 -24.148438 3.835938 -27.066406 4.703125 -29.765625 C 5.566406 -32.472656 6.8125 -34.773438 8.4375 -36.671875 Z M 8.4375 -36.671875 "/></g></g></g><g fill="#000000" fill-opacity="1"><g transform="translate(748.553066, 434.884814)"><g><path d="M 22.234375 -43 C 27.585938 -43 31.5625 -42.304688 34.15625 -40.921875 C 36.757812 -39.546875 38.394531 -37.734375 39.0625 -35.484375 C 39.738281 -33.242188 40.050781 -30.285156 40 -26.609375 L 39.921875 -14.359375 C 39.867188 -10.515625 40.003906 -7.726562 40.328125 -6 C 40.648438 -4.269531 41.328125 -2.269531 42.359375 0 L 31.40625 0 C 31.132812 -0.59375 30.644531 -2.132812 29.9375 -4.625 C 27.9375 -2.675781 25.867188 -1.253906 23.734375 -0.359375 C 21.597656 0.523438 19.3125 0.96875 16.875 0.96875 C 12.707031 0.96875 9.335938 -0.175781 6.765625 -2.46875 C 4.203125 -4.769531 2.921875 -7.757812 2.921875 -11.4375 C 2.921875 -14.519531 3.691406 -16.96875 5.234375 -18.78125 C 6.773438 -20.59375 8.65625 -21.90625 10.875 -22.71875 C 13.09375 -23.53125 15.71875 -24.234375 18.75 -24.828125 C 23.394531 -25.691406 26.828125 -26.554688 29.046875 -27.421875 L 29.046875 -29.203125 C 29.046875 -31.046875 28.503906 -32.382812 27.421875 -33.21875 C 26.335938 -34.0625 24.363281 -34.484375 21.5 -34.484375 C 19.28125 -34.484375 17.628906 -34.035156 16.546875 -33.140625 C 15.472656 -32.253906 14.664062 -30.941406 14.125 -29.203125 L 4.0625 -31.078125 C 5.144531 -35.191406 7.09375 -38.207031 9.90625 -40.125 C 12.71875 -42.039062 16.828125 -43 22.234375 -43 Z M 22.0625 -18.421875 L 20.203125 -18.015625 C 16.085938 -17.148438 14.03125 -15.363281 14.03125 -12.65625 C 14.03125 -11.03125 14.613281 -9.660156 15.78125 -8.546875 C 16.945312 -7.441406 18.421875 -6.890625 20.203125 -6.890625 C 21.660156 -6.890625 23.117188 -7.269531 24.578125 -8.03125 C 26.046875 -8.789062 27.1875 -9.789062 28 -11.03125 C 28.695312 -12.164062 29.046875 -14.113281 29.046875 -16.875 L 29.046875 -20.203125 C 26.941406 -19.554688 24.613281 -18.960938 22.0625 -18.421875 Z M 22.0625 -18.421875 "/></g></g></g><g fill="#000000" fill-opacity="1"><g transform="translate(793.664232, 434.884814)"><g><path d="M 28.96875 -43 C 32.050781 -43 34.929688 -42.160156 37.609375 -40.484375 C 40.285156 -38.804688 42.445312 -36.289062 44.09375 -32.9375 C 45.75 -29.582031 46.578125 -25.472656 46.578125 -20.609375 C 46.578125 -15.898438 45.773438 -11.921875 44.171875 -8.671875 C 42.578125 -5.429688 40.441406 -3.015625 37.765625 -1.421875 C 35.085938 0.171875 32.128906 0.96875 28.890625 0.96875 C 24.128906 0.96875 20.046875 -0.976562 16.640625 -4.875 L 16.640625 15.984375 L 5.515625 15.984375 L 5.515625 -42.03125 L 15.90625 -42.03125 L 15.90625 -35.859375 L 16.0625 -35.859375 C 17.363281 -37.804688 19.160156 -39.484375 21.453125 -40.890625 C 23.753906 -42.296875 26.257812 -43 28.96875 -43 Z M 17.4375 -27.265625 C 16.84375 -25.535156 16.546875 -23.15625 16.546875 -20.125 C 16.546875 -15.957031 17.425781 -12.816406 19.1875 -10.703125 C 20.945312 -8.597656 23.179688 -7.546875 25.890625 -7.546875 C 29.179688 -7.546875 31.546875 -8.84375 32.984375 -11.4375 C 34.421875 -14.03125 35.140625 -17.25 35.140625 -21.09375 C 35.140625 -25.582031 34.285156 -28.878906 32.578125 -30.984375 C 30.867188 -33.097656 28.742188 -34.15625 26.203125 -34.15625 C 24.316406 -34.15625 22.570312 -33.5625 20.96875 -32.375 C 19.375 -31.1875 18.195312 -29.484375 17.4375 -27.265625 Z M 17.4375 -27.265625 "/></g></g></g><g fill="#000000" fill-opacity="1"><g transform="translate(843.237798, 434.884814)"><g><path d="M 16.71875 -2.1875 C 16.71875 1.863281 15.957031 5.066406 14.4375 7.421875 C 12.925781 9.773438 10.382812 11.628906 6.8125 12.984375 L 4.625 8.359375 C 6.738281 7.710938 8.296875 6.722656 9.296875 5.390625 C 10.296875 4.066406 10.847656 2.269531 10.953125 0 L 5.59375 0 L 5.59375 -11.109375 L 16.71875 -11.109375 Z M 16.71875 -2.1875 "/></g></g></g><g fill="#000000" fill-opacity="1"><g transform="translate(865.793381, 434.884814)"><g/></g></g><g fill="#000000" fill-opacity="1"><g transform="translate(888.348965, 434.884814)"><g><path d="M 17.203125 0 L 5.515625 0 L 5.515625 -58.09375 L 17.203125 -58.09375 Z M 17.203125 0 "/></g></g></g><g fill="#000000" fill-opacity="1"><g transform="translate(910.904548, 434.884814)"><g><path d="M 16.640625 -49.09375 C 16.640625 -45.082031 15.867188 -41.898438 14.328125 -39.546875 C 12.785156 -37.203125 10.253906 -35.351562 6.734375 -34 L 4.546875 -38.625 C 6.710938 -39.320312 8.296875 -40.320312 9.296875 -41.625 C 10.296875 -42.925781 10.820312 -44.710938 10.875 -46.984375 L 5.515625 -46.984375 L 5.515625 -58.09375 L 16.640625 -58.09375 Z M 16.640625 -49.09375 "/></g></g></g><g fill="#000000" fill-opacity="1"><g transform="translate(933.460131, 434.884814)"><g><path d="M 28.40625 -43 C 33.863281 -43 37.835938 -40.78125 40.328125 -36.34375 C 43.953125 -40.78125 48.222656 -43 53.140625 -43 C 57.796875 -43 61.257812 -41.726562 63.53125 -39.1875 C 65.800781 -36.644531 66.9375 -32.832031 66.9375 -27.75 L 66.9375 0 L 55.828125 0 L 55.828125 -25.15625 C 55.828125 -28.1875 55.429688 -30.5 54.640625 -32.09375 C 53.859375 -33.6875 52.28125 -34.484375 49.90625 -34.484375 C 47.632812 -34.484375 45.804688 -33.695312 44.421875 -32.125 C 43.046875 -30.5625 42.195312 -28.535156 41.875 -26.046875 C 41.65625 -24.097656 41.546875 -22.367188 41.546875 -20.859375 L 41.546875 0 L 30.421875 0 L 30.421875 -24.75 C 30.421875 -28.15625 30.054688 -30.628906 29.328125 -32.171875 C 28.597656 -33.710938 27.046875 -34.484375 24.671875 -34.484375 C 22.929688 -34.484375 21.375 -34.019531 20 -33.09375 C 18.625 -32.175781 17.664062 -30.910156 17.125 -29.296875 C 16.46875 -27.347656 16.140625 -24.613281 16.140625 -21.09375 L 16.140625 0 L 5.03125 0 L 5.03125 -42.03125 L 15.328125 -42.03125 L 15.5 -36.34375 C 17.226562 -38.457031 19.050781 -40.09375 20.96875 -41.25 C 22.894531 -42.414062 25.375 -43 28.40625 -43 Z M 28.40625 -43 "/></g></g></g><g fill="#000000" fill-opacity="1"><g transform="translate(0.00000525, 507.906517)"><g><path d="M 22.234375 -43 C 27.585938 -43 31.5625 -42.304688 34.15625 -40.921875 C 36.757812 -39.546875 38.394531 -37.734375 39.0625 -35.484375 C 39.738281 -33.242188 40.050781 -30.285156 40 -26.609375 L 39.921875 -14.359375 C 39.867188 -10.515625 40.003906 -7.726562 40.328125 -6 C 40.648438 -4.269531 41.328125 -2.269531 42.359375 0 L 31.40625 0 C 31.132812 -0.59375 30.644531 -2.132812 29.9375 -4.625 C 27.9375 -2.675781 25.867188 -1.253906 23.734375 -0.359375 C 21.597656 0.523438 19.3125 0.96875 16.875 0.96875 C 12.707031 0.96875 9.335938 -0.175781 6.765625 -2.46875 C 4.203125 -4.769531 2.921875 -7.757812 2.921875 -11.4375 C 2.921875 -14.519531 3.691406 -16.96875 5.234375 -18.78125 C 6.773438 -20.59375 8.65625 -21.90625 10.875 -22.71875 C 13.09375 -23.53125 15.71875 -24.234375 18.75 -24.828125 C 23.394531 -25.691406 26.828125 -26.554688 29.046875 -27.421875 L 29.046875 -29.203125 C 29.046875 -31.046875 28.503906 -32.382812 27.421875 -33.21875 C 26.335938 -34.0625 24.363281 -34.484375 21.5 -34.484375 C 19.28125 -34.484375 17.628906 -34.035156 16.546875 -33.140625 C 15.472656 -32.253906 14.664062 -30.941406 14.125 -29.203125 L 4.0625 -31.078125 C 5.144531 -35.191406 7.09375 -38.207031 9.90625 -40.125 C 12.71875 -42.039062 16.828125 -43 22.234375 -43 Z M 22.0625 -18.421875 L 20.203125 -18.015625 C 16.085938 -17.148438 14.03125 -15.363281 14.03125 -12.65625 C 14.03125 -11.03125 14.613281 -9.660156 15.78125 -8.546875 C 16.945312 -7.441406 18.421875 -6.890625 20.203125 -6.890625 C 21.660156 -6.890625 23.117188 -7.269531 24.578125 -8.03125 C 26.046875 -8.789062 27.1875 -9.789062 28 -11.03125 C 28.695312 -12.164062 29.046875 -14.113281 29.046875 -16.875 L 29.046875 -20.203125 C 26.941406 -19.554688 24.613281 -18.960938 22.0625 -18.421875 Z M 22.0625 -18.421875 "/></g></g></g><g fill="#000000" fill-opacity="1"><g transform="translate(45.111171, 507.906517)"><g><path d="M 16.953125 0 L 5.84375 0 L 5.84375 -58.09375 L 16.953125 -58.09375 Z M 16.953125 0 "/></g></g></g><g fill="#000000" fill-opacity="1"><g transform="translate(67.666754, 507.906517)"><g><path d="M 18.984375 -14.53125 L 19.15625 -14.53125 L 26.296875 -42.03125 L 37.078125 -42.03125 L 43.984375 -14.53125 L 44.140625 -14.53125 L 52.09375 -42.03125 L 63.046875 -42.03125 L 49.578125 0 L 38.859375 0 L 31.71875 -27.09375 L 31.5625 -27.09375 L 24.5 0 L 13.71875 0 L 0.328125 -42.03125 L 11.203125 -42.03125 Z M 18.984375 -14.53125 "/></g></g></g><g fill="#000000" fill-opacity="1"><g transform="translate(130.789889, 507.906517)"><g><path d="M 22.234375 -43 C 27.585938 -43 31.5625 -42.304688 34.15625 -40.921875 C 36.757812 -39.546875 38.394531 -37.734375 39.0625 -35.484375 C 39.738281 -33.242188 40.050781 -30.285156 40 -26.609375 L 39.921875 -14.359375 C 39.867188 -10.515625 40.003906 -7.726562 40.328125 -6 C 40.648438 -4.269531 41.328125 -2.269531 42.359375 0 L 31.40625 0 C 31.132812 -0.59375 30.644531 -2.132812 29.9375 -4.625 C 27.9375 -2.675781 25.867188 -1.253906 23.734375 -0.359375 C 21.597656 0.523438 19.3125 0.96875 16.875 0.96875 C 12.707031 0.96875 9.335938 -0.175781 6.765625 -2.46875 C 4.203125 -4.769531 2.921875 -7.757812 2.921875 -11.4375 C 2.921875 -14.519531 3.691406 -16.96875 5.234375 -18.78125 C 6.773438 -20.59375 8.65625 -21.90625 10.875 -22.71875 C 13.09375 -23.53125 15.71875 -24.234375 18.75 -24.828125 C 23.394531 -25.691406 26.828125 -26.554688 29.046875 -27.421875 L 29.046875 -29.203125 C 29.046875 -31.046875 28.503906 -32.382812 27.421875 -33.21875 C 26.335938 -34.0625 24.363281 -34.484375 21.5 -34.484375 C 19.28125 -34.484375 17.628906 -34.035156 16.546875 -33.140625 C 15.472656 -32.253906 14.664062 -30.941406 14.125 -29.203125 L 4.0625 -31.078125 C 5.144531 -35.191406 7.09375 -38.207031 9.90625 -40.125 C 12.71875 -42.039062 16.828125 -43 22.234375 -43 Z M 22.0625 -18.421875 L 20.203125 -18.015625 C 16.085938 -17.148438 14.03125 -15.363281 14.03125 -12.65625 C 14.03125 -11.03125 14.613281 -9.660156 15.78125 -8.546875 C 16.945312 -7.441406 18.421875 -6.890625 20.203125 -6.890625 C 21.660156 -6.890625 23.117188 -7.269531 24.578125 -8.03125 C 26.046875 -8.789062 27.1875 -9.789062 28 -11.03125 C 28.695312 -12.164062 29.046875 -14.113281 29.046875 -16.875 L 29.046875 -20.203125 C 26.941406 -19.554688 24.613281 -18.960938 22.0625 -18.421875 Z M 22.0625 -18.421875 "/></g></g></g><g fill="#000000" fill-opacity="1"><g transform="translate(175.901055, 507.906517)"><g><path d="M 22.390625 -12.171875 L 22.5625 -12.171875 L 32.296875 -42.03125 L 43.8125 -42.03125 L 28.96875 -1.546875 L 28 1.296875 C 26.59375 5.242188 25.332031 8.234375 24.21875 10.265625 C 23.113281 12.296875 21.488281 13.929688 19.34375 15.171875 C 17.207031 16.421875 14.273438 17.046875 10.546875 17.046875 C 8.328125 17.046875 6.21875 16.828125 4.21875 16.390625 L 3.25 7.703125 C 5.132812 8.023438 6.675781 8.1875 7.875 8.1875 C 10.195312 8.1875 11.992188 7.578125 13.265625 6.359375 C 14.535156 5.148438 15.628906 3.054688 16.546875 0.078125 L 0.5625 -42.03125 L 12.421875 -42.03125 Z M 22.390625 -12.171875 "/></g></g></g><g fill="#000000" fill-opacity="1"><g transform="translate(221.012221, 507.906517)"><g><path d="M 21.171875 -43 C 26.421875 -43 30.546875 -42.132812 33.546875 -40.40625 C 36.554688 -38.675781 38.628906 -35.835938 39.765625 -31.890625 L 29.203125 -29.9375 C 28.722656 -31.664062 27.847656 -32.945312 26.578125 -33.78125 C 25.304688 -34.625 23.535156 -35.046875 21.265625 -35.046875 C 16.234375 -35.046875 13.71875 -33.882812 13.71875 -31.5625 C 13.71875 -30.425781 14.539062 -29.519531 16.1875 -28.84375 C 17.832031 -28.164062 20.226562 -27.476562 23.375 -26.78125 C 27.207031 -25.914062 30.34375 -25.035156 32.78125 -24.140625 C 35.21875 -23.242188 37.21875 -21.914062 38.78125 -20.15625 C 40.351562 -18.40625 41.140625 -16.066406 41.140625 -13.140625 C 41.140625 -10.765625 40.472656 -8.507812 39.140625 -6.375 C 37.816406 -4.238281 35.722656 -2.476562 32.859375 -1.09375 C 29.992188 0.28125 26.367188 0.96875 21.984375 0.96875 C 17.066406 0.96875 12.726562 -0.0820312 8.96875 -2.1875 C 5.207031 -4.300781 2.835938 -7.578125 1.859375 -12.015625 L 12.984375 -13.71875 C 14.015625 -9.226562 17.015625 -6.984375 21.984375 -6.984375 C 23.929688 -6.984375 25.753906 -7.316406 27.453125 -7.984375 C 29.160156 -8.660156 30.015625 -9.867188 30.015625 -11.609375 C 30.015625 -12.742188 29.625 -13.539062 28.84375 -14 C 28.0625 -14.457031 26.804688 -14.875 25.078125 -15.25 C 19.929688 -16.382812 15.925781 -17.4375 13.0625 -18.40625 C 10.195312 -19.382812 7.867188 -20.789062 6.078125 -22.625 C 4.296875 -24.46875 3.40625 -26.960938 3.40625 -30.109375 C 3.40625 -34.484375 5.082031 -37.722656 8.4375 -39.828125 C 11.789062 -41.941406 16.035156 -43 21.171875 -43 Z M 21.171875 -43 "/></g></g></g><g fill="#000000" fill-opacity="1"><g transform="translate(266.123387, 507.906517)"><g/></g></g><g fill="#000000" fill-opacity="1"><g transform="translate(288.67897, 507.906517)"><g><path d="M 22.234375 -43 C 27.585938 -43 31.5625 -42.304688 34.15625 -40.921875 C 36.757812 -39.546875 38.394531 -37.734375 39.0625 -35.484375 C 39.738281 -33.242188 40.050781 -30.285156 40 -26.609375 L 39.921875 -14.359375 C 39.867188 -10.515625 40.003906 -7.726562 40.328125 -6 C 40.648438 -4.269531 41.328125 -2.269531 42.359375 0 L 31.40625 0 C 31.132812 -0.59375 30.644531 -2.132812 29.9375 -4.625 C 27.9375 -2.675781 25.867188 -1.253906 23.734375 -0.359375 C 21.597656 0.523438 19.3125 0.96875 16.875 0.96875 C 12.707031 0.96875 9.335938 -0.175781 6.765625 -2.46875 C 4.203125 -4.769531 2.921875 -7.757812 2.921875 -11.4375 C 2.921875 -14.519531 3.691406 -16.96875 5.234375 -18.78125 C 6.773438 -20.59375 8.65625 -21.90625 10.875 -22.71875 C 13.09375 -23.53125 15.71875 -24.234375 18.75 -24.828125 C 23.394531 -25.691406 26.828125 -26.554688 29.046875 -27.421875 L 29.046875 -29.203125 C 29.046875 -31.046875 28.503906 -32.382812 27.421875 -33.21875 C 26.335938 -34.0625 24.363281 -34.484375 21.5 -34.484375 C 19.28125 -34.484375 17.628906 -34.035156 16.546875 -33.140625 C 15.472656 -32.253906 14.664062 -30.941406 14.125 -29.203125 L 4.0625 -31.078125 C 5.144531 -35.191406 7.09375 -38.207031 9.90625 -40.125 C 12.71875 -42.039062 16.828125 -43 22.234375 -43 Z M 22.0625 -18.421875 L 20.203125 -18.015625 C 16.085938 -17.148438 14.03125 -15.363281 14.03125 -12.65625 C 14.03125 -11.03125 14.613281 -9.660156 15.78125 -8.546875 C 16.945312 -7.441406 18.421875 -6.890625 20.203125 -6.890625 C 21.660156 -6.890625 23.117188 -7.269531 24.578125 -8.03125 C 26.046875 -8.789062 27.1875 -9.789062 28 -11.03125 C 28.695312 -12.164062 29.046875 -14.113281 29.046875 -16.875 L 29.046875 -20.203125 C 26.941406 -19.554688 24.613281 -18.960938 22.0625 -18.421875 Z M 22.0625 -18.421875 "/></g></g></g><g fill="#000000" fill-opacity="1"><g transform="translate(333.790136, 507.906517)"><g><path d="M 30.015625 -43 C 32.503906 -43 34.664062 -42.578125 36.5 -41.734375 C 38.34375 -40.898438 39.804688 -39.914062 40.890625 -38.78125 C 42.191406 -37.375 43.046875 -35.710938 43.453125 -33.796875 C 43.859375 -31.878906 44.0625 -29.753906 44.0625 -27.421875 L 44.0625 0 L 32.9375 0 L 32.9375 -22.96875 C 32.9375 -26.863281 32.503906 -29.753906 31.640625 -31.640625 C 30.773438 -33.535156 28.9375 -34.484375 26.125 -34.484375 C 23.476562 -34.484375 21.421875 -33.722656 19.953125 -32.203125 C 18.492188 -30.691406 17.628906 -28.9375 17.359375 -26.9375 C 17.203125 -25.632812 17.082031 -24.46875 17 -23.4375 C 16.914062 -22.414062 16.875 -21.253906 16.875 -19.953125 L 16.875 0 L 5.765625 0 L 5.765625 -42.03125 L 16.3125 -42.03125 L 16.3125 -35.859375 C 17.5 -37.648438 19.269531 -39.285156 21.625 -40.765625 C 23.976562 -42.253906 26.773438 -43 30.015625 -43 Z M 30.015625 -43 "/></g></g></g><g fill="#000000" fill-opacity="1"><g transform="translate(383.363702, 507.906517)"><g><path d="M 21.09375 -43 C 23.957031 -43 26.457031 -42.375 28.59375 -41.125 C 30.738281 -39.882812 32.484375 -38.238281 33.828125 -36.1875 L 34 -36.1875 L 34 -42.03125 L 44.390625 -42.03125 L 44.390625 -3.5625 C 44.390625 1.132812 43.847656 4.957031 42.765625 7.90625 C 41.679688 10.851562 39.691406 13.113281 36.796875 14.6875 C 33.898438 16.257812 29.773438 17.046875 24.421875 17.046875 C 17.609375 17.046875 12.644531 15.835938 9.53125 13.421875 C 6.425781 11.015625 4.84375 7.460938 4.78125 2.765625 L 17.53125 4.296875 C 17.738281 5.972656 18.367188 7.09375 19.421875 7.65625 C 20.484375 8.226562 22.015625 8.515625 24.015625 8.515625 C 27.472656 8.515625 29.878906 7.90625 31.234375 6.6875 C 32.585938 5.476562 33.265625 3.359375 33.265625 0.328125 L 33.265625 -6.8125 L 33.109375 -6.8125 C 31.703125 -4.757812 29.898438 -3.109375 27.703125 -1.859375 C 25.515625 -0.617188 23.175781 0 20.6875 0 C 17.226562 0 14.1875 -0.914062 11.5625 -2.75 C 8.9375 -4.59375 6.90625 -7.132812 5.46875 -10.375 C 4.039062 -13.625 3.328125 -17.253906 3.328125 -21.265625 C 3.328125 -26.503906 4.234375 -30.742188 6.046875 -33.984375 C 7.859375 -37.234375 10.113281 -39.546875 12.8125 -40.921875 C 15.519531 -42.304688 18.28125 -43 21.09375 -43 Z M 14.765625 -21.90625 C 14.765625 -18.394531 15.46875 -15.378906 16.875 -12.859375 C 18.28125 -10.347656 20.582031 -9.09375 23.78125 -9.09375 C 26.207031 -9.09375 28.4375 -10.035156 30.46875 -11.921875 C 32.5 -13.816406 33.515625 -17.066406 33.515625 -21.671875 C 33.515625 -25.078125 32.769531 -28.0625 31.28125 -30.625 C 29.789062 -33.195312 27.316406 -34.484375 23.859375 -34.484375 C 20.503906 -34.484375 18.148438 -33.179688 16.796875 -30.578125 C 15.441406 -27.984375 14.765625 -25.09375 14.765625 -21.90625 Z M 14.765625 -21.90625 "/></g></g></g><g fill="#000000" fill-opacity="1"><g transform="translate(432.937269, 507.906517)"><g><path d="M 25.3125 -43 C 26.5 -43 27.753906 -42.8125 29.078125 -42.4375 C 30.410156 -42.0625 31.59375 -41.570312 32.625 -40.96875 L 29.125 -31.234375 C 27.238281 -32.429688 25.507812 -33.03125 23.9375 -33.03125 C 21.820312 -33.03125 20.222656 -32.3125 19.140625 -30.875 C 18.066406 -29.4375 17.351562 -27.429688 17 -24.859375 C 16.644531 -22.296875 16.46875 -18.878906 16.46875 -14.609375 L 16.46875 0 L 5.359375 0 L 5.359375 -42.03125 L 15.65625 -42.03125 L 15.65625 -36.109375 L 15.828125 -36.109375 C 17.171875 -38.378906 18.519531 -40.09375 19.875 -41.25 C 21.226562 -42.414062 23.039062 -43 25.3125 -43 Z M 25.3125 -43 "/></g></g></g><g fill="#000000" fill-opacity="1"><g transform="translate(464.498867, 507.906517)"><g><path d="M 22.390625 -12.171875 L 22.5625 -12.171875 L 32.296875 -42.03125 L 43.8125 -42.03125 L 28.96875 -1.546875 L 28 1.296875 C 26.59375 5.242188 25.332031 8.234375 24.21875 10.265625 C 23.113281 12.296875 21.488281 13.929688 19.34375 15.171875 C 17.207031 16.421875 14.273438 17.046875 10.546875 17.046875 C 8.328125 17.046875 6.21875 16.828125 4.21875 16.390625 L 3.25 7.703125 C 5.132812 8.023438 6.675781 8.1875 7.875 8.1875 C 10.195312 8.1875 11.992188 7.578125 13.265625 6.359375 C 14.535156 5.148438 15.628906 3.054688 16.546875 0.078125 L 0.5625 -42.03125 L 12.421875 -42.03125 Z M 22.390625 -12.171875 "/></g></g></g><g fill="#000000" fill-opacity="1"><g transform="translate(509.610033, 507.906517)"><g><path d="M 16.234375 -49.171875 C 16.234375 -45.109375 15.472656 -41.898438 13.953125 -39.546875 C 12.441406 -37.203125 9.898438 -35.351562 6.328125 -34 L 4.140625 -38.625 C 6.242188 -39.269531 7.796875 -40.253906 8.796875 -41.578125 C 9.804688 -42.910156 10.363281 -44.710938 10.46875 -46.984375 L 5.109375 -46.984375 L 5.109375 -58.09375 L 16.234375 -58.09375 Z M 34.890625 -49.171875 C 34.890625 -45.109375 34.128906 -41.898438 32.609375 -39.546875 C 31.097656 -37.203125 28.554688 -35.351562 24.984375 -34 L 22.796875 -38.625 C 24.910156 -39.269531 26.46875 -40.253906 27.46875 -41.578125 C 28.46875 -42.910156 29.019531 -44.710938 29.125 -46.984375 L 23.78125 -46.984375 L 23.78125 -58.09375 L 34.890625 -58.09375 Z M 34.890625 -49.171875 "/></g></g></g></svg>