<svg xmlns="http://www.w3.org/2000/svg" xmlns:xlink="http://www.w3.org/1999/xlink" width="1620" zoomAndPan="magnify" viewBox="0 0 1215 809.999993" height="1080" preserveAspectRatio="xMidYMid meet" version="1.0"><defs><g/><clipPath id="90c3c7e398"><path d="M 1 167.839844 L 130 167.839844 L 130 298.65625 L 1 298.65625 Z M 1 167.839844 " clip-rule="nonzero"/></clipPath><clipPath id="6950a24661"><path d="M 31 433 L 101 433 L 101 464.546875 L 31 464.546875 Z M 31 433 " clip-rule="nonzero"/></clipPath><clipPath id="e5f6b8d446"><path d="M 24 333.730469 L 109 333.730469 L 109 447 L 24 447 Z M 24 333.730469 " clip-rule="nonzero"/></clipPath><clipPath id="9912f2123c"><path d="M 0 499.988281 L 130.816406 499.988281 L 130.816406 630.804688 L 0 630.804688 Z M 0 499.988281 " clip-rule="nonzero"/></clipPath><clipPath id="a17125237d"><path d="M 33 665.335938 L 97 665.335938 L 97 734 L 33 734 Z M 33 665.335938 " clip-rule="nonzero"/></clipPath><clipPath id="bb8802917c"><path d="M 6 733 L 124.390625 733 L 124.390625 796.152344 L 6 796.152344 Z M 6 733 " clip-rule="nonzero"/></clipPath></defs><g clip-path="url(#90c3c7e398)"><path fill="#000000" d="M 126.882812 206.082031 L 36.078125 206.082031 L 125.308594 189.222656 C 125.664062 189.15625 125.992188 189.023438 126.296875 188.824219 C 126.597656 188.628906 126.851562 188.378906 127.058594 188.082031 C 127.261719 187.785156 127.402344 187.457031 127.476562 187.101562 C 127.550781 186.75 127.554688 186.394531 127.488281 186.039062 L 124.441406 169.976562 C 124.375 169.617188 124.242188 169.289062 124.046875 168.984375 C 123.847656 168.683594 123.601562 168.429688 123.300781 168.222656 C 123.003906 168.019531 122.675781 167.878906 122.320312 167.804688 C 121.96875 167.730469 121.613281 167.726562 121.257812 167.792969 L 3.429688 190.0625 C 3.074219 190.128906 2.742188 190.257812 2.441406 190.457031 C 2.136719 190.652344 1.882812 190.902344 1.679688 191.199219 C 1.472656 191.5 1.335938 191.824219 1.257812 192.179688 C 1.183594 192.535156 1.179688 192.886719 1.25 193.246094 L 4.234375 209.050781 L 4.234375 285.941406 C 4.234375 286.78125 4.320312 287.613281 4.484375 288.4375 C 4.648438 289.261719 4.890625 290.0625 5.214844 290.835938 C 5.535156 291.613281 5.929688 292.351562 6.398438 293.050781 C 6.863281 293.746094 7.394531 294.394531 7.988281 294.988281 C 8.585938 295.582031 9.230469 296.113281 9.929688 296.582031 C 10.628906 297.046875 11.367188 297.441406 12.140625 297.765625 C 12.917969 298.085938 13.71875 298.332031 14.542969 298.496094 C 15.367188 298.660156 16.199219 298.742188 17.039062 298.742188 L 116.789062 298.742188 C 117.628906 298.742188 118.460938 298.660156 119.285156 298.496094 C 120.109375 298.328125 120.90625 298.085938 121.683594 297.765625 C 122.460938 297.441406 123.195312 297.046875 123.894531 296.582031 C 124.59375 296.113281 125.238281 295.582031 125.832031 294.988281 C 126.425781 294.394531 126.957031 293.746094 127.421875 293.046875 C 127.890625 292.351562 128.285156 291.613281 128.605469 290.835938 C 128.925781 290.058594 129.171875 289.261719 129.335938 288.4375 C 129.5 287.613281 129.582031 286.78125 129.582031 285.941406 L 129.582031 208.804688 C 129.582031 208.445312 129.511719 208.101562 129.375 207.769531 C 129.238281 207.4375 129.042969 207.144531 128.792969 206.886719 C 128.539062 206.632812 128.246094 206.4375 127.917969 206.296875 C 127.585938 206.15625 127.242188 206.085938 126.882812 206.082031 Z M 124.15625 222.433594 L 117.441406 222.433594 L 110.175781 211.53125 L 124.15625 211.53125 Z M 95.640625 222.433594 L 88.375 211.53125 L 103.636719 211.53125 L 110.902344 222.433594 Z M 73.835938 222.433594 L 66.570312 211.53125 L 81.832031 211.53125 L 89.097656 222.433594 Z M 52.03125 222.433594 L 44.765625 211.53125 L 60.027344 211.53125 L 67.296875 222.433594 Z M 30.230469 222.433594 L 22.964844 211.53125 L 38.226562 211.53125 L 45.492188 222.433594 Z M 35.140625 189.640625 L 44.308594 199.003906 L 29.320312 201.835938 L 20.167969 192.449219 Z M 56.566406 185.597656 L 65.734375 194.929688 L 50.746094 197.761719 L 41.578125 188.398438 Z M 77.988281 181.546875 L 87.152344 190.910156 L 72.171875 193.738281 L 63.003906 184.355469 Z M 99.417969 177.503906 L 108.578125 186.839844 L 93.589844 189.667969 L 84.425781 180.304688 Z M 9.691406 211.53125 L 16.414062 211.53125 L 23.679688 222.433594 L 9.691406 222.433594 Z M 121.621094 184.375 L 115.011719 185.625 L 105.855469 176.253906 L 119.589844 173.660156 Z M 13.699219 193.640625 L 22.894531 203.023438 L 9.152344 205.621094 L 7.117188 194.90625 Z M 116.816406 293.292969 L 17.042969 293.292969 C 16.5625 293.292969 16.085938 293.246094 15.609375 293.148438 C 15.136719 293.054688 14.679688 292.914062 14.230469 292.730469 C 13.785156 292.546875 13.363281 292.320312 12.960938 292.050781 C 12.5625 291.78125 12.191406 291.476562 11.847656 291.136719 C 11.507812 290.792969 11.203125 290.421875 10.933594 290.023438 C 10.664062 289.621094 10.4375 289.199219 10.253906 288.75 C 10.070312 288.304688 9.929688 287.847656 9.835938 287.375 C 9.738281 286.898438 9.691406 286.421875 9.691406 285.941406 L 9.691406 227.882812 L 124.15625 227.882812 L 124.15625 285.941406 C 124.15625 286.421875 124.109375 286.898438 124.015625 287.371094 C 123.921875 287.847656 123.78125 288.304688 123.597656 288.75 C 123.414062 289.195312 123.1875 289.621094 122.921875 290.019531 C 122.652344 290.421875 122.347656 290.792969 122.007812 291.136719 C 121.667969 291.476562 121.296875 291.78125 120.894531 292.050781 C 120.496094 292.316406 120.070312 292.542969 119.625 292.730469 C 119.179688 292.914062 118.722656 293.054688 118.25 293.148438 C 117.773438 293.246094 117.296875 293.292969 116.816406 293.292969 Z M 116.816406 293.292969 " fill-opacity="1" fill-rule="nonzero"/></g><path fill="#000000" d="M 57.421875 239.171875 C 57.003906 238.921875 56.546875 238.789062 56.054688 238.785156 C 55.566406 238.777344 55.105469 238.898438 54.679688 239.140625 C 54.253906 239.382812 53.914062 239.714844 53.667969 240.136719 C 53.421875 240.5625 53.296875 241.019531 53.296875 241.511719 L 53.296875 279.664062 C 53.296875 280.027344 53.367188 280.375 53.503906 280.707031 C 53.644531 281.042969 53.839844 281.335938 54.097656 281.59375 C 54.351562 281.847656 54.644531 282.046875 54.980469 282.183594 C 55.3125 282.320312 55.660156 282.390625 56.023438 282.390625 C 56.527344 282.390625 56.992188 282.257812 57.421875 282 L 89.21875 262.921875 C 89.417969 262.800781 89.601562 262.65625 89.765625 262.488281 C 89.929688 262.320312 90.070312 262.132812 90.1875 261.925781 C 90.300781 261.722656 90.390625 261.507812 90.449219 261.277344 C 90.507812 261.050781 90.539062 260.820312 90.539062 260.585938 C 90.539062 260.351562 90.507812 260.121094 90.449219 259.890625 C 90.390625 259.664062 90.300781 259.449219 90.1875 259.242188 C 90.070312 259.039062 89.929688 258.851562 89.765625 258.683594 C 89.601562 258.515625 89.417969 258.371094 89.21875 258.25 Z M 58.75 274.847656 L 58.75 246.328125 L 82.523438 260.59375 Z M 58.75 274.847656 " fill-opacity="1" fill-rule="nonzero"/><g clip-path="url(#6950a24661)"><path fill="#000000" d="M 45.34375 440.765625 C 45.808594 440.535156 46.289062 440.3125 46.777344 440.101562 C 48.550781 439.339844 49.359375 437.308594 48.582031 435.566406 C 47.804688 433.824219 45.738281 433.035156 43.96875 433.792969 C 43.351562 434.058594 42.757812 434.335938 42.164062 434.632812 C 35.589844 437.945312 31.964844 442.363281 31.964844 447.078125 C 31.964844 451.816406 35.589844 456.238281 42.167969 459.535156 C 48.625 462.769531 57.21875 464.546875 66.359375 464.546875 C 75.507812 464.546875 84.097656 462.769531 90.550781 459.535156 C 97.128906 456.238281 100.753906 451.8125 100.753906 447.078125 C 100.753906 442.363281 97.128906 437.945312 90.550781 434.628906 C 89.875 434.292969 89.171875 433.96875 88.453125 433.664062 C 86.671875 432.914062 84.613281 433.71875 83.847656 435.460938 C 83.085938 437.207031 83.902344 439.234375 85.679688 439.984375 C 86.261719 440.230469 86.824219 440.492188 87.359375 440.757812 C 92.074219 443.132812 93.75 445.644531 93.75 447.074219 C 93.75 448.519531 92.078125 451.042969 87.371094 453.402344 C 81.882812 456.152344 74.421875 457.664062 66.359375 457.664062 C 58.300781 457.664062 50.839844 456.152344 45.351562 453.402344 C 40.640625 451.042969 38.972656 448.519531 38.972656 447.074219 C 38.972656 445.648438 40.640625 443.136719 45.34375 440.765625 Z M 45.34375 440.765625 " fill-opacity="1" fill-rule="nonzero"/></g><g clip-path="url(#e5f6b8d446)"><path fill="#000000" d="M 66.824219 333.742188 C 66.730469 333.734375 66.632812 333.730469 66.539062 333.730469 L 66.183594 333.730469 C 66.089844 333.730469 65.992188 333.734375 65.902344 333.742188 C 42.820312 334.078125 24.089844 352.738281 24.089844 375.394531 C 23.726562 397.9375 41.277344 418.566406 54.09375 433.628906 C 57.851562 438.046875 61.097656 441.863281 63.292969 445.023438 C 63.945312 445.960938 65.027344 446.523438 66.1875 446.523438 L 66.539062 446.523438 C 67.699219 446.523438 68.78125 445.960938 69.433594 445.023438 C 71.628906 441.863281 74.875 438.046875 78.632812 433.628906 C 91.445312 418.566406 108.996094 397.933594 108.632812 375.449219 C 108.632812 352.738281 89.898438 334.078125 66.824219 333.742188 Z M 73.257812 429.210938 C 70.683594 432.238281 68.34375 434.988281 66.359375 437.503906 C 64.378906 434.988281 62.039062 432.238281 59.464844 429.214844 C 47.355469 414.980469 30.773438 395.484375 31.09375 375.449219 C 31.09375 356.417969 46.847656 340.792969 66.214844 340.621094 C 66.265625 340.621094 66.3125 340.621094 66.359375 340.617188 C 66.410156 340.621094 66.457031 340.621094 66.507812 340.621094 C 85.871094 340.792969 101.625 356.417969 101.625 375.503906 C 101.949219 395.484375 85.367188 414.976562 73.257812 429.210938 Z M 73.257812 429.210938 " fill-opacity="1" fill-rule="nonzero"/></g><path fill="#000000" d="M 66.359375 360.238281 C 57.800781 360.332031 50.878906 367.105469 50.878906 375.457031 C 50.878906 383.804688 57.792969 390.578125 66.359375 390.667969 C 74.929688 390.578125 81.839844 383.804688 81.839844 375.457031 C 81.839844 367.105469 74.921875 360.332031 66.359375 360.238281 Z M 66.359375 360.238281 " fill-opacity="1" fill-rule="nonzero"/><g clip-path="url(#9912f2123c)"><path fill="#000000" d="M 65.410156 499.988281 C 29.332031 499.988281 0 529.320312 0 565.398438 C 0 601.472656 29.332031 630.804688 65.410156 630.804688 C 101.484375 630.804688 130.816406 601.472656 130.816406 565.398438 C 130.816406 529.320312 101.484375 499.988281 65.410156 499.988281 Z M 65.410156 626.71875 C 31.582031 626.71875 4.089844 599.226562 4.089844 565.398438 C 4.089844 531.566406 31.582031 504.074219 65.410156 504.074219 C 99.238281 504.074219 126.730469 531.566406 126.730469 565.398438 C 126.730469 599.226562 99.238281 626.71875 65.410156 626.71875 Z M 65.410156 626.71875 " fill-opacity="1" fill-rule="nonzero"/></g><path fill="#000000" d="M 65.410156 508.878906 C 34.238281 508.878906 8.890625 534.226562 8.890625 565.398438 C 8.890625 596.570312 34.238281 621.914062 65.410156 621.914062 C 96.582031 621.914062 121.925781 596.570312 121.925781 565.398438 C 121.925781 534.226562 96.582031 508.878906 65.410156 508.878906 Z M 67.453125 617.722656 L 67.453125 610.875 C 67.453125 609.753906 66.535156 608.832031 65.410156 608.832031 C 64.285156 608.832031 63.363281 609.753906 63.363281 610.875 L 63.363281 617.722656 C 36.078125 616.703125 14.105469 594.625 13.082031 567.441406 L 20.953125 567.441406 C 22.074219 567.441406 22.996094 566.519531 22.996094 565.398438 C 22.996094 564.273438 22.074219 563.351562 20.953125 563.351562 L 13.082031 563.351562 C 14.105469 536.066406 36.179688 514.09375 63.363281 513.070312 L 63.363281 519.917969 C 63.363281 521.042969 64.285156 521.960938 65.410156 521.960938 C 66.535156 521.960938 67.453125 521.042969 67.453125 519.917969 L 67.453125 513.070312 C 94.742188 514.09375 116.714844 536.167969 117.734375 563.351562 L 109.765625 563.351562 C 108.640625 563.351562 107.71875 564.273438 107.71875 565.398438 C 107.71875 566.519531 108.640625 567.441406 109.765625 567.441406 L 117.734375 567.441406 C 116.714844 594.730469 94.742188 616.703125 67.453125 617.722656 Z M 67.453125 617.722656 " fill-opacity="1" fill-rule="nonzero"/><path fill="#000000" d="M 108.765625 544.027344 C 109.097656 544.328125 109.359375 544.679688 109.550781 545.085938 C 109.742188 545.488281 109.847656 545.914062 109.871094 546.363281 C 109.894531 546.808594 109.828125 547.242188 109.679688 547.664062 C 109.527344 548.085938 109.304688 548.460938 109.003906 548.792969 C 108.703125 549.125 108.351562 549.386719 107.945312 549.578125 C 107.542969 549.769531 107.117188 549.875 106.671875 549.898438 C 106.222656 549.921875 105.789062 549.855469 105.367188 549.707031 C 104.949219 549.554688 104.570312 549.332031 104.238281 549.03125 C 103.90625 548.730469 103.644531 548.378906 103.453125 547.972656 C 103.261719 547.570312 103.15625 547.144531 103.132812 546.699219 C 103.113281 546.25 103.175781 545.816406 103.328125 545.394531 C 103.476562 544.972656 103.703125 544.597656 104.003906 544.265625 C 104.300781 543.933594 104.65625 543.671875 105.058594 543.480469 C 105.460938 543.289062 105.886719 543.183594 106.335938 543.160156 C 106.78125 543.140625 107.214844 543.203125 107.636719 543.351562 C 108.058594 543.503906 108.433594 543.730469 108.765625 544.027344 Z M 108.765625 544.027344 " fill-opacity="1" fill-rule="nonzero"/><path fill="#000000" d="M 48.800781 521.804688 C 49.132812 522.105469 49.394531 522.457031 49.585938 522.859375 C 49.777344 523.265625 49.886719 523.691406 49.90625 524.136719 C 49.929688 524.582031 49.867188 525.015625 49.714844 525.4375 C 49.566406 525.859375 49.339844 526.234375 49.039062 526.566406 C 48.738281 526.898438 48.386719 527.160156 47.984375 527.351562 C 47.578125 527.542969 47.152344 527.652344 46.707031 527.671875 C 46.261719 527.695312 45.828125 527.632812 45.40625 527.480469 C 44.984375 527.332031 44.609375 527.105469 44.277344 526.804688 C 43.945312 526.503906 43.683594 526.152344 43.492188 525.75 C 43.300781 525.34375 43.191406 524.917969 43.171875 524.472656 C 43.148438 524.027344 43.210938 523.589844 43.363281 523.171875 C 43.511719 522.75 43.738281 522.371094 44.039062 522.042969 C 44.339844 521.710938 44.691406 521.449219 45.09375 521.257812 C 45.5 521.066406 45.925781 520.957031 46.371094 520.9375 C 46.816406 520.914062 47.25 520.976562 47.671875 521.128906 C 48.09375 521.277344 48.472656 521.503906 48.800781 521.804688 Z M 48.800781 521.804688 " fill-opacity="1" fill-rule="nonzero"/><path fill="#000000" d="M 86.539062 603.992188 C 86.871094 604.292969 87.132812 604.644531 87.324219 605.046875 C 87.515625 605.453125 87.621094 605.878906 87.644531 606.324219 C 87.667969 606.769531 87.601562 607.207031 87.453125 607.625 C 87.300781 608.046875 87.078125 608.425781 86.777344 608.753906 C 86.476562 609.085938 86.125 609.347656 85.722656 609.539062 C 85.316406 609.730469 84.890625 609.839844 84.445312 609.859375 C 83.996094 609.882812 83.5625 609.820312 83.144531 609.667969 C 82.722656 609.519531 82.34375 609.292969 82.011719 608.992188 C 81.683594 608.691406 81.421875 608.339844 81.230469 607.9375 C 81.039062 607.53125 80.929688 607.105469 80.90625 606.660156 C 80.886719 606.214844 80.949219 605.78125 81.101562 605.359375 C 81.25 604.9375 81.476562 604.5625 81.777344 604.230469 C 82.074219 603.898438 82.429688 603.636719 82.832031 603.445312 C 83.238281 603.253906 83.660156 603.144531 84.109375 603.125 C 84.554688 603.101562 84.988281 603.164062 85.410156 603.316406 C 85.832031 603.464844 86.207031 603.691406 86.539062 603.992188 Z M 86.539062 603.992188 " fill-opacity="1" fill-rule="nonzero"/><path fill="#000000" d="M 26.578125 581.765625 C 26.90625 582.066406 27.167969 582.417969 27.359375 582.824219 C 27.550781 583.226562 27.660156 583.652344 27.679688 584.097656 C 27.703125 584.546875 27.640625 584.980469 27.488281 585.402344 C 27.339844 585.824219 27.113281 586.199219 26.8125 586.53125 C 26.511719 586.863281 26.160156 587.125 25.757812 587.316406 C 25.351562 587.507812 24.925781 587.613281 24.480469 587.636719 C 24.035156 587.660156 23.601562 587.59375 23.179688 587.445312 C 22.757812 587.292969 22.382812 587.066406 22.050781 586.769531 C 21.71875 586.46875 21.457031 586.117188 21.265625 585.710938 C 21.074219 585.308594 20.96875 584.882812 20.945312 584.433594 C 20.921875 583.988281 20.988281 583.554688 21.136719 583.132812 C 21.289062 582.710938 21.511719 582.335938 21.8125 582.003906 C 22.113281 581.671875 22.464844 581.410156 22.867188 581.21875 C 23.273438 581.027344 23.699219 580.921875 24.144531 580.898438 C 24.59375 580.875 25.027344 580.941406 25.445312 581.089844 C 25.867188 581.242188 26.246094 581.464844 26.578125 581.765625 Z M 26.578125 581.765625 " fill-opacity="1" fill-rule="nonzero"/><path fill="#000000" d="M 27.605469 542.902344 C 27.9375 543.203125 28.199219 543.554688 28.390625 543.960938 C 28.582031 544.363281 28.691406 544.789062 28.710938 545.238281 C 28.734375 545.683594 28.671875 546.117188 28.519531 546.539062 C 28.371094 546.960938 28.144531 547.335938 27.84375 547.667969 C 27.542969 548 27.191406 548.261719 26.789062 548.453125 C 26.382812 548.644531 25.957031 548.75 25.511719 548.773438 C 25.066406 548.796875 24.628906 548.730469 24.210938 548.582031 C 23.789062 548.429688 23.410156 548.207031 23.082031 547.90625 C 22.75 547.605469 22.488281 547.253906 22.296875 546.847656 C 22.105469 546.445312 21.996094 546.019531 21.976562 545.574219 C 21.953125 545.125 22.015625 544.691406 22.167969 544.269531 C 22.316406 543.851562 22.542969 543.472656 22.84375 543.140625 C 23.144531 542.808594 23.496094 542.546875 23.898438 542.355469 C 24.304688 542.164062 24.730469 542.058594 25.175781 542.035156 C 25.621094 542.015625 26.054688 542.078125 26.476562 542.226562 C 26.898438 542.378906 27.273438 542.605469 27.605469 542.902344 Z M 27.605469 542.902344 " fill-opacity="1" fill-rule="nonzero"/><path fill="#000000" d="M 87.664062 522.832031 C 87.996094 523.132812 88.257812 523.484375 88.449219 523.890625 C 88.640625 524.292969 88.746094 524.71875 88.769531 525.164062 C 88.792969 525.613281 88.726562 526.046875 88.578125 526.46875 C 88.425781 526.886719 88.203125 527.265625 87.902344 527.597656 C 87.601562 527.929688 87.25 528.191406 86.84375 528.382812 C 86.441406 528.574219 86.015625 528.679688 85.570312 528.703125 C 85.121094 528.722656 84.6875 528.660156 84.265625 528.507812 C 83.847656 528.359375 83.46875 528.132812 83.136719 527.832031 C 82.804688 527.535156 82.546875 527.183594 82.351562 526.777344 C 82.160156 526.375 82.054688 525.949219 82.03125 525.5 C 82.011719 525.054688 82.074219 524.621094 82.226562 524.199219 C 82.375 523.777344 82.601562 523.402344 82.902344 523.070312 C 83.199219 522.738281 83.554688 522.476562 83.957031 522.285156 C 84.359375 522.09375 84.785156 521.988281 85.234375 521.964844 C 85.679688 521.941406 86.113281 522.007812 86.535156 522.15625 C 86.957031 522.308594 87.332031 522.53125 87.664062 522.832031 Z M 87.664062 522.832031 " fill-opacity="1" fill-rule="nonzero"/><path fill="#000000" d="M 107.53125 583.117188 C 107.832031 583.390625 108.070312 583.710938 108.242188 584.078125 C 108.417969 584.445312 108.515625 584.832031 108.535156 585.238281 C 108.554688 585.644531 108.496094 586.039062 108.359375 586.421875 C 108.222656 586.804688 108.019531 587.148438 107.746094 587.449219 C 107.472656 587.75 107.152344 587.988281 106.785156 588.164062 C 106.417969 588.335938 106.03125 588.433594 105.625 588.453125 C 105.21875 588.476562 104.824219 588.417969 104.441406 588.28125 C 104.058594 588.144531 103.714844 587.9375 103.414062 587.664062 C 103.113281 587.394531 102.875 587.074219 102.703125 586.707031 C 102.527344 586.335938 102.429688 585.949219 102.410156 585.542969 C 102.390625 585.140625 102.449219 584.746094 102.585938 584.363281 C 102.722656 583.976562 102.925781 583.636719 103.199219 583.335938 C 103.472656 583.035156 103.792969 582.796875 104.160156 582.621094 C 104.527344 582.449219 104.914062 582.351562 105.320312 582.328125 C 105.726562 582.308594 106.121094 582.367188 106.503906 582.503906 C 106.886719 582.640625 107.226562 582.847656 107.53125 583.117188 Z M 107.53125 583.117188 " fill-opacity="1" fill-rule="nonzero"/><path fill="#000000" d="M 47.679688 602.960938 C 48.007812 603.261719 48.269531 603.613281 48.460938 604.019531 C 48.652344 604.421875 48.761719 604.847656 48.785156 605.292969 C 48.804688 605.742188 48.742188 606.175781 48.589844 606.597656 C 48.441406 607.019531 48.214844 607.394531 47.914062 607.726562 C 47.617188 608.058594 47.261719 608.320312 46.859375 608.511719 C 46.453125 608.703125 46.03125 608.808594 45.582031 608.832031 C 45.136719 608.851562 44.703125 608.789062 44.28125 608.640625 C 43.859375 608.488281 43.484375 608.261719 43.152344 607.964844 C 42.820312 607.664062 42.558594 607.3125 42.367188 606.90625 C 42.175781 606.503906 42.070312 606.078125 42.046875 605.628906 C 42.023438 605.183594 42.089844 604.75 42.238281 604.328125 C 42.390625 603.90625 42.613281 603.53125 42.914062 603.199219 C 43.214844 602.867188 43.566406 602.605469 43.96875 602.414062 C 44.375 602.222656 44.800781 602.117188 45.246094 602.09375 C 45.695312 602.070312 46.128906 602.136719 46.546875 602.285156 C 46.96875 602.4375 47.347656 602.660156 47.679688 602.960938 Z M 47.679688 602.960938 " fill-opacity="1" fill-rule="nonzero"/><path fill="#000000" d="M 82.273438 550.988281 C 82.273438 547.613281 81.558594 544.546875 80.332031 542.09375 C 79 539.539062 76.957031 537.597656 74.402344 536.269531 C 71.847656 534.941406 68.882812 534.328125 65.511719 534.328125 C 62.136719 534.328125 59.277344 535.042969 56.722656 536.578125 C 54.167969 538.007812 52.226562 540.253906 50.894531 543.015625 C 49.566406 545.671875 48.851562 548.941406 48.75 552.828125 C 48.75 553.949219 49.671875 554.871094 50.792969 554.871094 L 58.867188 554.871094 C 59.992188 554.871094 60.914062 553.949219 60.914062 552.828125 C 60.914062 550.476562 61.421875 548.636719 62.242188 547.410156 C 63.058594 546.386719 64.082031 545.875 65.511719 545.875 C 67.042969 545.875 68.167969 546.285156 68.882812 547.101562 C 69.703125 547.921875 70.109375 549.25 70.109375 551.089844 C 70.109375 552.214844 69.90625 553.132812 69.597656 554.050781 C 69.292969 555.074219 68.882812 555.890625 68.371094 556.710938 C 67.757812 557.628906 66.941406 558.753906 66.023438 560.183594 C 64.589844 562.125 63.363281 563.964844 62.445312 565.5 C 61.421875 567.132812 60.605469 569.179688 59.992188 571.425781 C 59.277344 573.777344 58.96875 576.433594 58.96875 579.398438 C 58.96875 580.523438 59.890625 581.441406 61.015625 581.441406 L 68.984375 581.441406 C 70.109375 581.441406 71.03125 580.523438 71.03125 579.398438 C 71.03125 577.253906 71.234375 575.3125 71.746094 573.675781 C 72.257812 572.039062 72.871094 570.609375 73.585938 569.484375 C 74.402344 568.257812 75.425781 566.828125 76.652344 565.191406 C 77.878906 563.558594 78.898438 562.230469 79.613281 561.003906 C 80.433594 559.777344 81.046875 558.34375 81.558594 556.710938 C 81.964844 554.972656 82.273438 553.132812 82.273438 550.988281 Z M 77.570312 555.382812 C 77.164062 556.710938 76.652344 557.835938 76.039062 558.753906 C 75.425781 559.777344 74.503906 561.105469 73.277344 562.535156 C 71.949219 564.273438 70.824219 565.804688 70.007812 567.132812 C 69.089844 568.566406 68.371094 570.304688 67.757812 572.246094 C 67.351562 573.675781 67.042969 575.3125 66.941406 577.046875 L 63.058594 577.046875 C 63.160156 575.3125 63.46875 573.675781 63.875 572.246094 C 64.488281 570.304688 65.101562 568.566406 65.921875 567.238281 C 66.738281 565.804688 67.863281 564.171875 69.292969 562.230469 C 70.316406 560.796875 71.234375 559.570312 71.847656 558.550781 C 72.5625 557.527344 73.074219 556.300781 73.585938 554.972656 C 74.097656 553.644531 74.300781 552.214844 74.300781 550.578125 C 74.300781 547.820312 73.484375 545.570312 72.050781 543.933594 C 70.519531 542.300781 68.371094 541.378906 65.714844 541.378906 C 62.957031 541.378906 60.707031 542.503906 59.175781 544.546875 C 58.050781 546.082031 57.335938 548.023438 57.128906 550.375 L 53.144531 550.375 C 53.347656 548.125 53.960938 546.082031 54.78125 544.445312 C 55.800781 542.300781 57.234375 540.765625 59.074219 539.746094 C 60.914062 538.621094 63.160156 538.109375 65.714844 538.109375 C 68.476562 538.109375 70.824219 538.621094 72.769531 539.640625 C 74.605469 540.5625 76.039062 541.992188 76.957031 543.832031 C 77.980469 545.671875 78.492188 548.023438 78.492188 550.78125 C 78.183594 552.722656 77.980469 554.15625 77.570312 555.382812 Z M 77.570312 555.382812 " fill-opacity="1" fill-rule="nonzero"/><path fill="#000000" d="M 69.089844 583.589844 L 60.707031 583.589844 C 59.582031 583.589844 58.664062 584.507812 58.664062 585.632812 L 58.664062 594.011719 C 58.664062 595.136719 59.582031 596.058594 60.707031 596.058594 L 69.089844 596.058594 C 70.210938 596.058594 71.132812 595.136719 71.132812 594.011719 L 71.132812 585.632812 C 71.132812 584.40625 70.210938 583.589844 69.089844 583.589844 Z M 67.042969 591.96875 L 62.75 591.96875 L 62.75 587.675781 L 67.042969 587.675781 Z M 67.042969 591.96875 " fill-opacity="1" fill-rule="nonzero"/><g clip-path="url(#a17125237d)"><path fill="#000000" d="M 65.113281 733.191406 C 82.53125 733.191406 96.699219 714.605469 96.699219 697.09375 C 96.699219 679.582031 82.53125 665.335938 65.113281 665.335938 C 47.695312 665.335938 33.527344 679.582031 33.527344 697.09375 C 33.527344 714.601562 47.695312 733.191406 65.113281 733.191406 Z M 65.113281 733.191406 " fill-opacity="1" fill-rule="nonzero"/></g><g clip-path="url(#bb8802917c)"><path fill="#000000" d="M 88.828125 733.515625 C 82.699219 738.210938 75.054688 741.003906 66.777344 741.003906 L 63.453125 741.003906 C 55.171875 741.003906 47.523438 738.207031 41.398438 733.515625 C 21.394531 736.769531 6.113281 754.203125 6.113281 775.230469 C 6.113281 786.785156 32.53125 796.152344 65.113281 796.152344 C 97.695312 796.152344 124.113281 786.785156 124.113281 775.230469 C 124.113281 754.203125 108.832031 736.769531 88.828125 733.515625 Z M 88.828125 733.515625 " fill-opacity="1" fill-rule="nonzero"/></g><g fill="#000000" fill-opacity="1"><g transform="translate(0.00000525, 62.122959)"><g><path d="M 16.984375 0 L 5.453125 0 L 5.453125 -57.375 L 16.984375 -57.375 Z M 16.984375 0 "/></g></g></g><g fill="#000000" fill-opacity="1"><g transform="translate(22.267916, 62.122959)"><g><path d="M 29.640625 -42.46875 C 32.097656 -42.46875 34.234375 -42.050781 36.046875 -41.21875 C 37.867188 -40.394531 39.316406 -39.421875 40.390625 -38.296875 C 41.671875 -36.910156 42.507812 -35.269531 42.90625 -33.375 C 43.3125 -31.476562 43.515625 -29.378906 43.515625 -27.078125 L 43.515625 0 L 32.53125 0 L 32.53125 -22.671875 C 32.53125 -26.515625 32.101562 -29.367188 31.25 -31.234375 C 30.394531 -33.109375 28.578125 -34.046875 25.796875 -34.046875 C 23.179688 -34.046875 21.148438 -33.296875 19.703125 -31.796875 C 18.265625 -30.304688 17.410156 -28.570312 17.140625 -26.59375 C 16.984375 -25.3125 16.863281 -24.164062 16.78125 -23.15625 C 16.707031 -22.144531 16.671875 -20.992188 16.671875 -19.703125 L 16.671875 0 L 5.6875 0 L 5.6875 -41.5 L 16.109375 -41.5 L 16.109375 -35.421875 C 17.285156 -37.179688 19.035156 -38.796875 21.359375 -40.265625 C 23.679688 -41.734375 26.441406 -42.46875 29.640625 -42.46875 Z M 29.640625 -42.46875 "/></g></g></g><g fill="#000000" fill-opacity="1"><g transform="translate(71.20925, 62.122959)"><g><path d="M 20.90625 -42.46875 C 26.09375 -42.46875 30.164062 -41.613281 33.125 -39.90625 C 36.09375 -38.195312 38.140625 -35.390625 39.265625 -31.484375 L 28.84375 -29.5625 C 28.363281 -31.269531 27.492188 -32.535156 26.234375 -33.359375 C 24.984375 -34.191406 23.238281 -34.609375 21 -34.609375 C 16.03125 -34.609375 13.546875 -33.460938 13.546875 -31.171875 C 13.546875 -30.046875 14.359375 -29.148438 15.984375 -28.484375 C 17.609375 -27.816406 19.972656 -27.132812 23.078125 -26.4375 C 26.867188 -25.582031 29.960938 -24.710938 32.359375 -23.828125 C 34.765625 -22.953125 36.742188 -21.644531 38.296875 -19.90625 C 39.847656 -18.175781 40.625 -15.867188 40.625 -12.984375 C 40.625 -10.628906 39.96875 -8.394531 38.65625 -6.28125 C 37.351562 -4.175781 35.285156 -2.441406 32.453125 -1.078125 C 29.617188 0.285156 26.039062 0.96875 21.71875 0.96875 C 16.851562 0.96875 12.5625 -0.0703125 8.84375 -2.15625 C 5.132812 -4.238281 2.800781 -7.472656 1.84375 -11.859375 L 12.8125 -13.546875 C 13.832031 -9.109375 16.800781 -6.890625 21.71875 -6.890625 C 23.632812 -6.890625 25.429688 -7.222656 27.109375 -7.890625 C 28.796875 -8.554688 29.640625 -9.742188 29.640625 -11.453125 C 29.640625 -12.578125 29.253906 -13.363281 28.484375 -13.8125 C 27.710938 -14.269531 26.472656 -14.6875 24.765625 -15.0625 C 19.679688 -16.1875 15.722656 -17.226562 12.890625 -18.1875 C 10.066406 -19.144531 7.769531 -20.53125 6 -22.34375 C 4.238281 -24.164062 3.359375 -26.625 3.359375 -29.71875 C 3.359375 -34.050781 5.015625 -37.257812 8.328125 -39.34375 C 11.640625 -41.425781 15.832031 -42.46875 20.90625 -42.46875 Z M 20.90625 -42.46875 "/></g></g></g><g fill="#000000" fill-opacity="1"><g transform="translate(115.74507, 62.122959)"><g><path d="M 28.609375 -42.46875 C 31.648438 -42.46875 34.492188 -41.640625 37.140625 -39.984375 C 39.785156 -38.328125 41.921875 -35.84375 43.546875 -32.53125 C 45.171875 -29.21875 45.984375 -25.160156 45.984375 -20.359375 C 45.984375 -15.703125 45.195312 -11.769531 43.625 -8.5625 C 42.050781 -5.363281 39.941406 -2.972656 37.296875 -1.390625 C 34.648438 0.179688 31.726562 0.96875 28.53125 0.96875 C 23.820312 0.96875 19.785156 -0.957031 16.421875 -4.8125 L 16.421875 15.78125 L 5.453125 15.78125 L 5.453125 -41.5 L 15.703125 -41.5 L 15.703125 -35.421875 L 15.859375 -35.421875 C 17.140625 -37.335938 18.914062 -38.988281 21.1875 -40.375 C 23.457031 -41.769531 25.929688 -42.46875 28.609375 -42.46875 Z M 17.234375 -26.921875 C 16.640625 -25.210938 16.34375 -22.863281 16.34375 -19.875 C 16.34375 -15.757812 17.207031 -12.660156 18.9375 -10.578125 C 20.675781 -8.492188 22.882812 -7.453125 25.5625 -7.453125 C 28.820312 -7.453125 31.15625 -8.734375 32.5625 -11.296875 C 33.976562 -13.859375 34.6875 -17.035156 34.6875 -20.828125 C 34.6875 -25.265625 33.84375 -28.523438 32.15625 -30.609375 C 30.476562 -32.691406 28.382812 -33.734375 25.875 -33.734375 C 24.007812 -33.734375 22.285156 -33.144531 20.703125 -31.96875 C 19.128906 -30.789062 17.972656 -29.109375 17.234375 -26.921875 Z M 17.234375 -26.921875 "/></g></g></g><g fill="#000000" fill-opacity="1"><g transform="translate(164.686404, 62.122959)"><g><path d="M 16.75 -47.1875 L 5.765625 -47.1875 L 5.765625 -57.375 L 16.75 -57.375 Z M 16.75 0 L 5.765625 0 L 5.765625 -41.5 L 16.75 -41.5 Z M 16.75 0 "/></g></g></g><g fill="#000000" fill-opacity="1"><g transform="translate(186.954315, 62.122959)"><g><path d="M 25 -42.46875 C 26.175781 -42.46875 27.414062 -42.28125 28.71875 -41.90625 C 30.03125 -41.53125 31.191406 -41.050781 32.203125 -40.46875 L 28.765625 -30.84375 C 26.890625 -32.019531 25.179688 -32.609375 23.640625 -32.609375 C 21.554688 -32.609375 19.976562 -31.898438 18.90625 -30.484375 C 17.84375 -29.066406 17.132812 -27.085938 16.78125 -24.546875 C 16.4375 -22.015625 16.265625 -18.640625 16.265625 -14.421875 L 16.265625 0 L 5.28125 0 L 5.28125 -41.5 L 15.46875 -41.5 L 15.46875 -35.65625 L 15.625 -35.65625 C 16.957031 -37.894531 18.289062 -39.585938 19.625 -40.734375 C 20.96875 -41.890625 22.757812 -42.46875 25 -42.46875 Z M 25 -42.46875 "/></g></g></g><g fill="#000000" fill-opacity="1"><g transform="translate(218.113345, 62.122959)"><g><path d="M 21.953125 -42.46875 C 27.242188 -42.46875 31.171875 -41.785156 33.734375 -40.421875 C 36.296875 -39.054688 37.910156 -37.265625 38.578125 -35.046875 C 39.242188 -32.835938 39.550781 -29.914062 39.5 -26.28125 L 39.421875 -14.1875 C 39.367188 -10.394531 39.5 -7.640625 39.8125 -5.921875 C 40.132812 -4.210938 40.804688 -2.238281 41.828125 0 L 31.015625 0 C 30.742188 -0.582031 30.257812 -2.101562 29.5625 -4.5625 C 27.582031 -2.644531 25.535156 -1.242188 23.421875 -0.359375 C 21.316406 0.523438 19.066406 0.96875 16.671875 0.96875 C 12.554688 0.96875 9.226562 -0.164062 6.6875 -2.4375 C 4.15625 -4.707031 2.890625 -7.660156 2.890625 -11.296875 C 2.890625 -14.335938 3.648438 -16.753906 5.171875 -18.546875 C 6.691406 -20.335938 8.546875 -21.632812 10.734375 -22.4375 C 12.921875 -23.238281 15.515625 -23.929688 18.515625 -24.515625 C 23.109375 -25.367188 26.5 -26.222656 28.6875 -27.078125 L 28.6875 -28.84375 C 28.6875 -30.65625 28.148438 -31.972656 27.078125 -32.796875 C 26.015625 -33.628906 24.066406 -34.046875 21.234375 -34.046875 C 19.046875 -34.046875 17.414062 -33.601562 16.34375 -32.71875 C 15.28125 -31.84375 14.476562 -30.550781 13.9375 -28.84375 L 4 -30.6875 C 5.070312 -34.75 6.992188 -37.726562 9.765625 -39.625 C 12.546875 -41.519531 16.609375 -42.46875 21.953125 -42.46875 Z M 21.796875 -18.1875 L 19.953125 -17.78125 C 15.890625 -16.925781 13.859375 -15.164062 13.859375 -12.5 C 13.859375 -10.894531 14.429688 -9.546875 15.578125 -8.453125 C 16.734375 -7.359375 18.191406 -6.8125 19.953125 -6.8125 C 21.390625 -6.8125 22.828125 -7.179688 24.265625 -7.921875 C 25.710938 -8.671875 26.835938 -9.660156 27.640625 -10.890625 C 28.335938 -12.015625 28.6875 -13.941406 28.6875 -16.671875 L 28.6875 -19.953125 C 26.601562 -19.304688 24.304688 -18.71875 21.796875 -18.1875 Z M 21.796875 -18.1875 "/></g></g></g><g fill="#000000" fill-opacity="1"><g transform="translate(262.649166, 62.122959)"><g><path d="M 17.3125 -41.5 L 24.765625 -41.5 L 24.765625 -32.765625 L 17.3125 -32.765625 L 17.3125 -14.5 C 17.3125 -12.738281 17.375 -11.429688 17.5 -10.578125 C 17.632812 -9.722656 17.914062 -9.109375 18.34375 -8.734375 C 18.769531 -8.359375 19.441406 -8.171875 20.359375 -8.171875 C 21.472656 -8.171875 22.941406 -8.519531 24.765625 -9.21875 L 25.71875 -0.71875 C 24.59375 -0.1875 23.226562 0.222656 21.625 0.515625 C 20.03125 0.816406 18.507812 0.96875 17.0625 0.96875 C 14.976562 0.96875 13.132812 0.617188 11.53125 -0.078125 C 9.9375 -0.773438 8.765625 -1.710938 8.015625 -2.890625 C 7.210938 -4.222656 6.71875 -5.703125 6.53125 -7.328125 C 6.34375 -8.960938 6.25 -11.007812 6.25 -13.46875 L 6.25 -32.765625 L 1.203125 -32.765625 L 1.203125 -41.5 L 6.25 -41.5 L 6.25 -49.75 L 17.3125 -56.25 Z M 17.3125 -41.5 "/></g></g></g><g fill="#000000" fill-opacity="1"><g transform="translate(289.32259, 62.122959)"><g><path d="M 16.75 -47.1875 L 5.765625 -47.1875 L 5.765625 -57.375 L 16.75 -57.375 Z M 16.75 0 L 5.765625 0 L 5.765625 -41.5 L 16.75 -41.5 Z M 16.75 0 "/></g></g></g><g fill="#000000" fill-opacity="1"><g transform="translate(311.5905, 62.122959)"><g><path d="M 24.59375 -42.46875 C 29.082031 -42.46875 32.957031 -41.453125 36.21875 -39.421875 C 39.476562 -37.390625 41.9375 -34.71875 43.59375 -31.40625 C 45.25 -28.09375 46.078125 -24.59375 46.078125 -20.90625 C 46.078125 -17.0625 45.207031 -13.46875 43.46875 -10.125 C 41.726562 -6.789062 39.242188 -4.109375 36.015625 -2.078125 C 32.785156 -0.046875 29.003906 0.96875 24.671875 0.96875 C 20.992188 0.96875 17.523438 0.207031 14.265625 -1.3125 C 11.003906 -2.84375 8.34375 -5.273438 6.28125 -8.609375 C 4.226562 -11.953125 3.203125 -16.1875 3.203125 -21.3125 C 3.203125 -24.894531 4.015625 -28.300781 5.640625 -31.53125 C 7.273438 -34.757812 9.707031 -37.390625 12.9375 -39.421875 C 16.164062 -41.453125 20.050781 -42.46875 24.59375 -42.46875 Z M 14.5 -20.75 C 14.5 -16.582031 15.472656 -13.414062 17.421875 -11.25 C 19.378906 -9.09375 21.769531 -8.015625 24.59375 -8.015625 C 27.425781 -8.015625 29.832031 -9.082031 31.8125 -11.21875 C 33.789062 -13.351562 34.78125 -16.554688 34.78125 -20.828125 C 34.78125 -24.785156 33.828125 -27.882812 31.921875 -30.125 C 30.023438 -32.375 27.554688 -33.5 24.515625 -33.5 C 21.742188 -33.5 19.378906 -32.398438 17.421875 -30.203125 C 15.472656 -28.015625 14.5 -24.863281 14.5 -20.75 Z M 14.5 -20.75 "/></g></g></g><g fill="#000000" fill-opacity="1"><g transform="translate(360.531834, 62.122959)"><g><path d="M 29.640625 -42.46875 C 32.097656 -42.46875 34.234375 -42.050781 36.046875 -41.21875 C 37.867188 -40.394531 39.316406 -39.421875 40.390625 -38.296875 C 41.671875 -36.910156 42.507812 -35.269531 42.90625 -33.375 C 43.3125 -31.476562 43.515625 -29.378906 43.515625 -27.078125 L 43.515625 0 L 32.53125 0 L 32.53125 -22.671875 C 32.53125 -26.515625 32.101562 -29.367188 31.25 -31.234375 C 30.394531 -33.109375 28.578125 -34.046875 25.796875 -34.046875 C 23.179688 -34.046875 21.148438 -33.296875 19.703125 -31.796875 C 18.265625 -30.304688 17.410156 -28.570312 17.140625 -26.59375 C 16.984375 -25.3125 16.863281 -24.164062 16.78125 -23.15625 C 16.707031 -22.144531 16.671875 -20.992188 16.671875 -19.703125 L 16.671875 0 L 5.6875 0 L 5.6875 -41.5 L 16.109375 -41.5 L 16.109375 -35.421875 C 17.285156 -37.179688 19.035156 -38.796875 21.359375 -40.265625 C 23.679688 -41.734375 26.441406 -42.46875 29.640625 -42.46875 Z M 29.640625 -42.46875 "/></g></g></g><g fill="#000000" fill-opacity="1"><g transform="translate(409.473168, 62.122959)"><g><path d="M 20.90625 -42.46875 C 26.09375 -42.46875 30.164062 -41.613281 33.125 -39.90625 C 36.09375 -38.195312 38.140625 -35.390625 39.265625 -31.484375 L 28.84375 -29.5625 C 28.363281 -31.269531 27.492188 -32.535156 26.234375 -33.359375 C 24.984375 -34.191406 23.238281 -34.609375 21 -34.609375 C 16.03125 -34.609375 13.546875 -33.460938 13.546875 -31.171875 C 13.546875 -30.046875 14.359375 -29.148438 15.984375 -28.484375 C 17.609375 -27.816406 19.972656 -27.132812 23.078125 -26.4375 C 26.867188 -25.582031 29.960938 -24.710938 32.359375 -23.828125 C 34.765625 -22.953125 36.742188 -21.644531 38.296875 -19.90625 C 39.847656 -18.175781 40.625 -15.867188 40.625 -12.984375 C 40.625 -10.628906 39.96875 -8.394531 38.65625 -6.28125 C 37.351562 -4.175781 35.285156 -2.441406 32.453125 -1.078125 C 29.617188 0.285156 26.039062 0.96875 21.71875 0.96875 C 16.851562 0.96875 12.5625 -0.0703125 8.84375 -2.15625 C 5.132812 -4.238281 2.800781 -7.472656 1.84375 -11.859375 L 12.8125 -13.546875 C 13.832031 -9.109375 16.800781 -6.890625 21.71875 -6.890625 C 23.632812 -6.890625 25.429688 -7.222656 27.109375 -7.890625 C 28.796875 -8.554688 29.640625 -9.742188 29.640625 -11.453125 C 29.640625 -12.578125 29.253906 -13.363281 28.484375 -13.8125 C 27.710938 -14.269531 26.472656 -14.6875 24.765625 -15.0625 C 19.679688 -16.1875 15.722656 -17.226562 12.890625 -18.1875 C 10.066406 -19.144531 7.769531 -20.53125 6 -22.34375 C 4.238281 -24.164062 3.359375 -26.625 3.359375 -29.71875 C 3.359375 -34.050781 5.015625 -37.257812 8.328125 -39.34375 C 11.640625 -41.425781 15.832031 -42.46875 20.90625 -42.46875 Z M 20.90625 -42.46875 "/></g></g></g><g fill="#000000" fill-opacity="1"><g transform="translate(205.936855, 245.287837)"><g><path d="M 11.53125 -42.90625 L 11.53125 -4.171875 L 32.1875 -4.171875 L 32.1875 0 L 6.484375 0 L 6.484375 -42.90625 Z M 11.53125 -42.90625 "/></g></g></g><g fill="#000000" fill-opacity="1"><g transform="translate(239.916537, 245.287837)"><g><path d="M 18.578125 0.609375 C 15.523438 0.609375 12.867188 -0.03125 10.609375 -1.3125 C 8.347656 -2.601562 6.601562 -4.503906 5.375 -7.015625 C 4.15625 -9.535156 3.546875 -12.585938 3.546875 -16.171875 C 3.546875 -19.742188 4.15625 -22.789062 5.375 -25.3125 C 6.601562 -27.84375 8.347656 -29.753906 10.609375 -31.046875 C 12.867188 -32.335938 15.523438 -32.984375 18.578125 -32.984375 C 21.628906 -32.984375 24.28125 -32.335938 26.53125 -31.046875 C 28.789062 -29.753906 30.53125 -27.84375 31.75 -25.3125 C 32.976562 -22.789062 33.59375 -19.742188 33.59375 -16.171875 C 33.59375 -12.585938 32.976562 -9.535156 31.75 -7.015625 C 30.53125 -4.503906 28.789062 -2.601562 26.53125 -1.3125 C 24.28125 -0.03125 21.628906 0.609375 18.578125 0.609375 Z M 18.578125 -3.671875 C 21.804688 -3.671875 24.273438 -4.6875 25.984375 -6.71875 C 27.691406 -8.75 28.546875 -11.898438 28.546875 -16.171875 C 28.546875 -20.453125 27.691406 -23.609375 25.984375 -25.640625 C 24.273438 -27.679688 21.804688 -28.703125 18.578125 -28.703125 C 15.347656 -28.703125 12.867188 -27.675781 11.140625 -25.625 C 9.421875 -23.582031 8.5625 -20.429688 8.5625 -16.171875 C 8.5625 -11.898438 9.421875 -8.75 11.140625 -6.71875 C 12.867188 -4.6875 15.347656 -3.671875 18.578125 -3.671875 Z M 18.578125 -3.671875 "/></g></g></g><g fill="#000000" fill-opacity="1"><g transform="translate(277.033256, 245.287837)"><g><path d="M 5.640625 0 L 5.640625 -45.359375 L 10.421875 -45.359375 L 10.421875 -18.875 L 11.203125 -18.875 L 23.234375 -32.359375 L 28.25 -32.359375 L 28.25 -31.6875 L 15.4375 -17.171875 L 29.484375 -0.734375 L 29.484375 0 L 24.15625 0 L 11.203125 -14.96875 L 10.421875 -14.96875 L 10.421875 0 Z M 5.640625 0 "/></g></g></g><g fill="#000000" fill-opacity="1"><g transform="translate(307.11363, 245.287837)"><g><path d="M 8.046875 -38.609375 C 7.023438 -38.609375 6.195312 -38.925781 5.5625 -39.5625 C 4.925781 -40.195312 4.609375 -41.003906 4.609375 -41.984375 C 4.609375 -42.960938 4.925781 -43.769531 5.5625 -44.40625 C 6.195312 -45.039062 7.023438 -45.359375 8.046875 -45.359375 C 9.054688 -45.359375 9.878906 -45.039062 10.515625 -44.40625 C 11.148438 -43.769531 11.46875 -42.960938 11.46875 -41.984375 C 11.46875 -41.003906 11.148438 -40.195312 10.515625 -39.5625 C 9.878906 -38.925781 9.054688 -38.609375 8.046875 -38.609375 Z M 5.640625 0 L 5.640625 -32.359375 L 10.421875 -32.359375 L 10.421875 0 Z M 5.640625 0 "/></g></g></g><g fill="#000000" fill-opacity="1"><g transform="translate(323.150633, 245.287837)"><g><path d="M 1.84375 8.953125 C 3.550781 7.835938 4.988281 6.546875 6.15625 5.078125 C 7.332031 3.609375 7.941406 1.992188 7.984375 0.234375 C 6.828125 0.234375 5.921875 -0.078125 5.265625 -0.703125 C 4.609375 -1.328125 4.28125 -2.160156 4.28125 -3.203125 C 4.28125 -4.210938 4.597656 -5.046875 5.234375 -5.703125 C 5.867188 -6.359375 6.71875 -6.6875 7.78125 -6.6875 C 8.925781 -6.6875 9.859375 -6.285156 10.578125 -5.484375 C 11.296875 -4.679688 11.65625 -3.421875 11.65625 -1.703125 C 11.65625 1.347656 11 3.914062 9.6875 6 C 8.375 8.082031 6.4375 9.984375 3.875 11.703125 Z M 1.84375 8.953125 "/></g></g></g><g fill="#000000" fill-opacity="1"><g transform="translate(339.070363, 245.287837)"><g/></g></g><g fill="#000000" fill-opacity="1"><g transform="translate(353.788051, 245.287837)"><g><path d="M 18.75 0.609375 C 16.050781 0.609375 13.628906 0.242188 11.484375 -0.484375 C 9.347656 -1.210938 7.5625 -2.175781 6.125 -3.375 C 4.695312 -4.570312 3.632812 -5.882812 2.9375 -7.3125 L 5.6875 -10.65625 L 6.421875 -10.65625 C 9.085938 -6.175781 13.195312 -3.9375 18.75 -3.9375 C 21.976562 -3.9375 24.378906 -4.609375 25.953125 -5.953125 C 27.523438 -7.304688 28.3125 -9.1875 28.3125 -11.59375 C 28.3125 -13 28.050781 -14.191406 27.53125 -15.171875 C 27.019531 -16.148438 26.164062 -16.984375 24.96875 -17.671875 C 23.78125 -18.367188 22.15625 -18.972656 20.09375 -19.484375 L 15.078125 -20.71875 C 11.347656 -21.613281 8.597656 -23.046875 6.828125 -25.015625 C 5.054688 -26.984375 4.171875 -29.472656 4.171875 -32.484375 C 4.171875 -34.617188 4.71875 -36.519531 5.8125 -38.1875 C 6.90625 -39.863281 8.507812 -41.171875 10.625 -42.109375 C 12.738281 -43.046875 15.257812 -43.515625 18.1875 -43.515625 C 21.414062 -43.515625 24.140625 -43.054688 26.359375 -42.140625 C 28.578125 -41.234375 30.351562 -39.875 31.6875 -38.0625 L 29.21875 -34.734375 L 28.484375 -34.734375 C 27.253906 -36.242188 25.796875 -37.347656 24.109375 -38.046875 C 22.429688 -38.753906 20.457031 -39.109375 18.1875 -39.109375 C 15.21875 -39.109375 12.972656 -38.53125 11.453125 -37.375 C 9.941406 -36.226562 9.1875 -34.632812 9.1875 -32.59375 C 9.1875 -30.65625 9.742188 -29.113281 10.859375 -27.96875 C 11.972656 -26.832031 13.847656 -25.953125 16.484375 -25.328125 L 21.625 -24.09375 C 25.789062 -23.113281 28.804688 -21.609375 30.671875 -19.578125 C 32.546875 -17.554688 33.484375 -14.972656 33.484375 -11.828125 C 33.484375 -9.398438 32.9375 -7.25 31.84375 -5.375 C 30.757812 -3.507812 29.113281 -2.046875 26.90625 -0.984375 C 24.695312 0.078125 21.976562 0.609375 18.75 0.609375 Z M 18.75 0.609375 "/></g></g></g><g fill="#000000" fill-opacity="1"><g transform="translate(390.523635, 245.287837)"><g><path d="M 2.578125 -1.96875 C 2.578125 -4.332031 2.835938 -6.238281 3.359375 -7.6875 C 3.878906 -9.132812 4.765625 -10.484375 6.015625 -11.734375 C 7.265625 -12.984375 9.257812 -14.609375 12 -16.609375 L 16.71875 -20.046875 C 18.46875 -21.316406 19.890625 -22.488281 20.984375 -23.5625 C 22.078125 -24.632812 22.941406 -25.800781 23.578125 -27.0625 C 24.210938 -28.332031 24.53125 -29.75 24.53125 -31.3125 C 24.53125 -33.851562 23.851562 -35.769531 22.5 -37.0625 C 21.15625 -38.351562 19.046875 -39 16.171875 -39 C 13.898438 -39 11.882812 -38.46875 10.125 -37.40625 C 8.363281 -36.351562 6.953125 -34.859375 5.890625 -32.921875 L 5.21875 -32.8125 L 2.203125 -35.96875 C 3.648438 -38.320312 5.550781 -40.164062 7.90625 -41.5 C 10.257812 -42.84375 13.015625 -43.515625 16.171875 -43.515625 C 19.222656 -43.515625 21.753906 -42.992188 23.765625 -41.953125 C 25.785156 -40.921875 27.273438 -39.488281 28.234375 -37.65625 C 29.191406 -35.832031 29.671875 -33.71875 29.671875 -31.3125 C 29.671875 -29.394531 29.269531 -27.601562 28.46875 -25.9375 C 27.664062 -24.269531 26.53125 -22.703125 25.0625 -21.234375 C 23.59375 -19.773438 21.753906 -18.234375 19.546875 -16.609375 L 14.765625 -13.109375 C 12.984375 -11.804688 11.613281 -10.691406 10.65625 -9.765625 C 9.695312 -8.847656 8.992188 -7.953125 8.546875 -7.078125 C 8.109375 -6.210938 7.890625 -5.242188 7.890625 -4.171875 L 29.671875 -4.171875 L 29.671875 0 L 2.578125 0 Z M 2.578125 -1.96875 "/></g></g></g><g fill="#000000" fill-opacity="1"><g transform="translate(423.477183, 245.287837)"><g/></g></g><g fill="#000000" fill-opacity="1"><g transform="translate(438.194871, 245.287837)"><g><path d="M 21.09375 0.609375 C 17.945312 0.609375 15.117188 -0.144531 12.609375 -1.65625 C 10.109375 -3.175781 8.113281 -5.582031 6.625 -8.875 C 5.144531 -12.175781 4.40625 -16.367188 4.40625 -21.453125 C 4.40625 -26.535156 5.144531 -30.722656 6.625 -34.015625 C 8.113281 -37.316406 10.109375 -39.722656 12.609375 -41.234375 C 15.117188 -42.753906 17.945312 -43.515625 21.09375 -43.515625 C 24.25 -43.515625 27.078125 -42.753906 29.578125 -41.234375 C 32.078125 -39.722656 34.066406 -37.316406 35.546875 -34.015625 C 37.023438 -30.722656 37.765625 -26.535156 37.765625 -21.453125 C 37.765625 -16.367188 37.023438 -12.175781 35.546875 -8.875 C 34.066406 -5.582031 32.078125 -3.175781 29.578125 -1.65625 C 27.078125 -0.144531 24.25 0.609375 21.09375 0.609375 Z M 21.09375 -4.046875 C 24.832031 -4.046875 27.664062 -5.390625 29.59375 -8.078125 C 31.519531 -10.773438 32.484375 -15.234375 32.484375 -21.453125 C 32.484375 -27.671875 31.519531 -32.125 29.59375 -34.8125 C 27.664062 -37.5 24.832031 -38.84375 21.09375 -38.84375 C 18.632812 -38.84375 16.5625 -38.273438 14.875 -37.140625 C 13.195312 -36.015625 11.910156 -34.171875 11.015625 -31.609375 C 10.128906 -29.046875 9.6875 -25.660156 9.6875 -21.453125 C 9.6875 -17.242188 10.128906 -13.859375 11.015625 -11.296875 C 11.910156 -8.734375 13.195312 -6.882812 14.875 -5.75 C 16.5625 -4.613281 18.632812 -4.046875 21.09375 -4.046875 Z M 21.09375 -4.046875 "/></g></g></g><g fill="#000000" fill-opacity="1"><g transform="translate(480.354304, 245.287837)"><g><path d="M 20.484375 0.609375 C 17.453125 0.609375 14.734375 -0.113281 12.328125 -1.5625 C 9.921875 -3.019531 8 -5.390625 6.5625 -8.671875 C 5.125 -11.960938 4.40625 -16.222656 4.40625 -21.453125 C 4.40625 -26.515625 5.125 -30.691406 6.5625 -33.984375 C 8 -37.285156 9.957031 -39.695312 12.4375 -41.21875 C 14.925781 -42.75 17.765625 -43.515625 20.953125 -43.515625 C 26.453125 -43.515625 30.5 -41.84375 33.09375 -38.5 L 30.640625 -35.1875 L 29.90625 -35.1875 C 27.789062 -37.726562 24.804688 -39 20.953125 -39 C 17.234375 -39 14.394531 -37.59375 12.4375 -34.78125 C 10.476562 -31.976562 9.5 -27.492188 9.5 -21.328125 L 10.125 -21.15625 C 11.300781 -23.582031 12.828125 -25.398438 14.703125 -26.609375 C 16.578125 -27.828125 18.882812 -28.4375 21.625 -28.4375 C 24.34375 -28.4375 26.691406 -27.859375 28.671875 -26.703125 C 30.660156 -25.546875 32.179688 -23.875 33.234375 -21.6875 C 34.296875 -19.507812 34.828125 -16.9375 34.828125 -13.96875 C 34.828125 -10.988281 34.238281 -8.40625 33.0625 -6.21875 C 31.894531 -4.03125 30.226562 -2.34375 28.0625 -1.15625 C 25.90625 0.0195312 23.378906 0.609375 20.484375 0.609375 Z M 20.484375 -3.9375 C 23.316406 -3.9375 25.535156 -4.796875 27.140625 -6.515625 C 28.742188 -8.234375 29.546875 -10.71875 29.546875 -13.96875 C 29.546875 -17.238281 28.742188 -19.734375 27.140625 -21.453125 C 25.535156 -23.171875 23.316406 -24.03125 20.484375 -24.03125 C 18.546875 -24.03125 16.863281 -23.632812 15.4375 -22.84375 C 14.007812 -22.050781 12.90625 -20.898438 12.125 -19.390625 C 11.351562 -17.890625 10.96875 -16.082031 10.96875 -13.96875 C 10.96875 -11.875 11.351562 -10.070312 12.125 -8.5625 C 12.90625 -7.0625 14.007812 -5.914062 15.4375 -5.125 C 16.863281 -4.332031 18.546875 -3.9375 20.484375 -3.9375 Z M 20.484375 -3.9375 "/></g></g></g><g fill="#000000" fill-opacity="1"><g transform="translate(205.936855, 418.765012)"><g><path d="M 11.15625 0 L 6.484375 0 L 6.484375 -42.90625 L 13.96875 -42.90625 L 26.96875 -6.578125 L 27.578125 -6.578125 L 40.578125 -42.90625 L 47.796875 -42.90625 L 47.796875 0 L 43.015625 0 L 43.015625 -35 L 42.28125 -35.125 L 29.609375 0 L 24.59375 0 L 11.890625 -35.125 L 11.15625 -35 Z M 11.15625 0 "/></g></g></g><g fill="#000000" fill-opacity="1"><g transform="translate(260.204664, 418.765012)"><g><path d="M 15.984375 0.609375 C 12.328125 0.609375 9.601562 -0.351562 7.8125 -2.28125 C 6.03125 -4.21875 5.140625 -7.054688 5.140625 -10.796875 L 5.140625 -32.359375 L 9.921875 -32.359375 L 9.921875 -10.921875 C 9.921875 -6.003906 12.226562 -3.546875 16.84375 -3.546875 C 19.78125 -3.546875 22.097656 -4.503906 23.796875 -6.421875 C 25.492188 -8.335938 26.34375 -11.445312 26.34375 -15.75 L 26.34375 -32.359375 L 31.125 -32.359375 L 31.125 0 L 26.609375 0 L 26.609375 -5.078125 L 26 -5.21875 C 24.882812 -3.25 23.546875 -1.785156 21.984375 -0.828125 C 20.429688 0.128906 18.429688 0.609375 15.984375 0.609375 Z M 15.984375 0.609375 "/></g></g></g><g fill="#000000" fill-opacity="1"><g transform="translate(296.940248, 418.765012)"><g><path d="M 12.875 0.609375 C 10.59375 0.609375 8.796875 -0.0351562 7.484375 -1.328125 C 6.171875 -2.628906 5.515625 -4.570312 5.515625 -7.15625 L 5.515625 -45.359375 L 10.296875 -45.359375 L 10.296875 -7.484375 C 10.296875 -6.128906 10.554688 -5.15625 11.078125 -4.5625 C 11.597656 -3.96875 12.40625 -3.671875 13.5 -3.671875 C 14.164062 -3.671875 14.835938 -3.773438 15.515625 -3.984375 L 15.9375 -3.875 L 16.484375 -0.125 C 16.140625 0.113281 15.640625 0.296875 14.984375 0.421875 C 14.328125 0.546875 13.625 0.609375 12.875 0.609375 Z M 12.875 0.609375 "/></g></g></g><g fill="#000000" fill-opacity="1"><g transform="translate(314.53111, 418.765012)"><g><path d="M 21.890625 -5.140625 L 23.421875 -1.703125 C 22.648438 -0.941406 21.644531 -0.367188 20.40625 0.015625 C 19.164062 0.410156 17.820312 0.609375 16.375 0.609375 C 10.1875 0.609375 7.09375 -2.519531 7.09375 -8.78125 L 7.09375 -28.46875 L 1.46875 -28.46875 L 1.46875 -32.390625 L 7.09375 -32.390625 L 7.09375 -39.234375 L 11.890625 -40.015625 L 11.890625 -32.390625 L 22.296875 -32.390625 L 22.296875 -28.46875 L 11.890625 -28.46875 L 11.890625 -9.25 C 11.890625 -5.53125 13.5 -3.671875 16.71875 -3.671875 C 18.476562 -3.671875 19.992188 -4.160156 21.265625 -5.140625 Z M 21.890625 -5.140625 "/></g></g></g><g fill="#000000" fill-opacity="1"><g transform="translate(339.158317, 418.765012)"><g><path d="M 8.046875 -38.609375 C 7.023438 -38.609375 6.195312 -38.925781 5.5625 -39.5625 C 4.925781 -40.195312 4.609375 -41.003906 4.609375 -41.984375 C 4.609375 -42.960938 4.925781 -43.769531 5.5625 -44.40625 C 6.195312 -45.039062 7.023438 -45.359375 8.046875 -45.359375 C 9.054688 -45.359375 9.878906 -45.039062 10.515625 -44.40625 C 11.148438 -43.769531 11.46875 -42.960938 11.46875 -41.984375 C 11.46875 -41.003906 11.148438 -40.195312 10.515625 -39.5625 C 9.878906 -38.925781 9.054688 -38.609375 8.046875 -38.609375 Z M 5.640625 0 L 5.640625 -32.359375 L 10.421875 -32.359375 L 10.421875 0 Z M 5.640625 0 "/></g></g></g><g fill="#000000" fill-opacity="1"><g transform="translate(355.195319, 418.765012)"><g><path d="M 20.484375 0 L 13.90625 0 L 1.578125 -32.359375 L 6.75 -32.359375 L 16.9375 -5.453125 L 17.609375 -5.453125 L 27.703125 -32.359375 L 32.75 -32.359375 Z M 20.484375 0 "/></g></g></g><g fill="#000000" fill-opacity="1"><g transform="translate(389.468182, 418.765012)"><g><path d="M 30.84375 -15.078125 L 8.59375 -15.078125 C 8.726562 -11.148438 9.671875 -8.265625 11.421875 -6.421875 C 13.179688 -4.585938 15.582031 -3.671875 18.625 -3.671875 C 20.9375 -3.671875 22.796875 -4.078125 24.203125 -4.890625 C 25.617188 -5.710938 26.722656 -7.007812 27.515625 -8.78125 L 28.140625 -8.78125 L 31.25 -6.921875 C 30.3125 -4.578125 28.8125 -2.734375 26.75 -1.390625 C 24.6875 -0.0546875 21.976562 0.609375 18.625 0.609375 C 15.5 0.609375 12.8125 -0.00390625 10.5625 -1.234375 C 8.3125 -2.460938 6.578125 -4.328125 5.359375 -6.828125 C 4.148438 -9.335938 3.546875 -12.453125 3.546875 -16.171875 C 3.546875 -19.847656 4.1875 -22.945312 5.46875 -25.46875 C 6.75 -27.988281 8.5 -29.867188 10.71875 -31.109375 C 12.945312 -32.359375 15.488281 -32.984375 18.34375 -32.984375 C 22.488281 -32.984375 25.722656 -31.8125 28.046875 -29.46875 C 30.378906 -27.132812 31.554688 -23.671875 31.578125 -19.078125 C 31.578125 -17.273438 31.535156 -16.0625 31.453125 -15.4375 Z M 26.84375 -19.078125 C 26.769531 -22.515625 26.007812 -25.015625 24.5625 -26.578125 C 23.113281 -28.148438 21.039062 -28.9375 18.34375 -28.9375 C 15.5 -28.9375 13.269531 -28.144531 11.65625 -26.5625 C 10.050781 -24.988281 9.070312 -22.492188 8.71875 -19.078125 Z M 26.84375 -19.078125 "/></g></g></g><g fill="#000000" fill-opacity="1"><g transform="translate(423.946272, 418.765012)"><g><path d="M 5.640625 0 L 5.640625 -32.359375 L 10.1875 -32.359375 L 10.1875 -27.28125 L 10.796875 -27.140625 C 12.304688 -30.816406 15.144531 -32.65625 19.3125 -32.65625 C 21.519531 -32.65625 23.171875 -32.253906 24.265625 -31.453125 L 23.03125 -27.40625 L 22.453125 -27.28125 C 21.234375 -27.894531 19.898438 -28.203125 18.453125 -28.203125 C 15.867188 -28.203125 13.882812 -27.234375 12.5 -25.296875 C 11.113281 -23.359375 10.421875 -20.21875 10.421875 -15.875 L 10.421875 0 Z M 5.640625 0 "/></g></g></g><g fill="#000000" fill-opacity="1"><g transform="translate(448.925296, 418.765012)"><g><path d="M 14.765625 0.609375 C 12.722656 0.609375 10.835938 0.34375 9.109375 -0.1875 C 7.378906 -0.726562 5.914062 -1.46875 4.71875 -2.40625 C 3.53125 -3.34375 2.691406 -4.398438 2.203125 -5.578125 L 5.015625 -8.515625 L 5.640625 -8.515625 C 6.691406 -6.910156 7.957031 -5.703125 9.4375 -4.890625 C 10.925781 -4.078125 12.703125 -3.671875 14.765625 -3.671875 C 17.148438 -3.671875 18.960938 -4.132812 20.203125 -5.0625 C 21.441406 -5.988281 22.0625 -7.285156 22.0625 -8.953125 C 22.0625 -10.222656 21.6875 -11.269531 20.9375 -12.09375 C 20.1875 -12.925781 18.96875 -13.550781 17.28125 -13.96875 L 11.828125 -15.3125 C 8.910156 -16.019531 6.78125 -17.132812 5.4375 -18.65625 C 4.101562 -20.1875 3.4375 -22.078125 3.4375 -24.328125 C 3.4375 -26.085938 3.882812 -27.617188 4.78125 -28.921875 C 5.675781 -30.222656 6.96875 -31.222656 8.65625 -31.921875 C 10.351562 -32.628906 12.367188 -32.984375 14.703125 -32.984375 C 17.671875 -32.984375 20.007812 -32.566406 21.71875 -31.734375 C 23.4375 -30.898438 24.773438 -29.738281 25.734375 -28.25 L 23.03125 -25.609375 L 22.453125 -25.609375 C 21.410156 -26.804688 20.273438 -27.664062 19.046875 -28.1875 C 17.828125 -28.71875 16.378906 -28.984375 14.703125 -28.984375 C 12.566406 -28.984375 10.929688 -28.601562 9.796875 -27.84375 C 8.660156 -27.082031 8.09375 -25.976562 8.09375 -24.53125 C 8.09375 -23.21875 8.492188 -22.160156 9.296875 -21.359375 C 10.097656 -20.554688 11.5 -19.910156 13.5 -19.421875 L 18.875 -18.140625 C 21.6875 -17.472656 23.71875 -16.363281 24.96875 -14.8125 C 26.21875 -13.269531 26.84375 -11.335938 26.84375 -9.015625 C 26.84375 -7.109375 26.394531 -5.429688 25.5 -3.984375 C 24.601562 -2.535156 23.242188 -1.40625 21.421875 -0.59375 C 19.597656 0.207031 17.378906 0.609375 14.765625 0.609375 Z M 14.765625 0.609375 "/></g></g></g><g fill="#000000" fill-opacity="1"><g transform="translate(478.829762, 418.765012)"><g><path d="M 30.84375 -15.078125 L 8.59375 -15.078125 C 8.726562 -11.148438 9.671875 -8.265625 11.421875 -6.421875 C 13.179688 -4.585938 15.582031 -3.671875 18.625 -3.671875 C 20.9375 -3.671875 22.796875 -4.078125 24.203125 -4.890625 C 25.617188 -5.710938 26.722656 -7.007812 27.515625 -8.78125 L 28.140625 -8.78125 L 31.25 -6.921875 C 30.3125 -4.578125 28.8125 -2.734375 26.75 -1.390625 C 24.6875 -0.0546875 21.976562 0.609375 18.625 0.609375 C 15.5 0.609375 12.8125 -0.00390625 10.5625 -1.234375 C 8.3125 -2.460938 6.578125 -4.328125 5.359375 -6.828125 C 4.148438 -9.335938 3.546875 -12.453125 3.546875 -16.171875 C 3.546875 -19.847656 4.1875 -22.945312 5.46875 -25.46875 C 6.75 -27.988281 8.5 -29.867188 10.71875 -31.109375 C 12.945312 -32.359375 15.488281 -32.984375 18.34375 -32.984375 C 22.488281 -32.984375 25.722656 -31.8125 28.046875 -29.46875 C 30.378906 -27.132812 31.554688 -23.671875 31.578125 -19.078125 C 31.578125 -17.273438 31.535156 -16.0625 31.453125 -15.4375 Z M 26.84375 -19.078125 C 26.769531 -22.515625 26.007812 -25.015625 24.5625 -26.578125 C 23.113281 -28.148438 21.039062 -28.9375 18.34375 -28.9375 C 15.5 -28.9375 13.269531 -28.144531 11.65625 -26.5625 C 10.050781 -24.988281 9.070312 -22.492188 8.71875 -19.078125 Z M 26.84375 -19.078125 "/></g></g></g><g fill="#000000" fill-opacity="1"><g transform="translate(205.936855, 592.242211)"><g><path d="M 23.703125 0.609375 C 19.953125 0.609375 16.609375 -0.25 13.671875 -1.96875 C 10.734375 -3.6875 8.429688 -6.203125 6.765625 -9.515625 C 5.109375 -12.835938 4.28125 -16.816406 4.28125 -21.453125 C 4.28125 -26.085938 5.109375 -30.0625 6.765625 -33.375 C 8.429688 -36.6875 10.734375 -39.203125 13.671875 -40.921875 C 16.609375 -42.648438 19.953125 -43.515625 23.703125 -43.515625 C 27.710938 -43.515625 31.046875 -42.753906 33.703125 -41.234375 C 36.367188 -39.722656 38.289062 -37.441406 39.46875 -34.390625 L 36.234375 -32.25 L 35.5 -32.25 C 34.332031 -34.695312 32.804688 -36.429688 30.921875 -37.453125 C 29.046875 -38.484375 26.640625 -39 23.703125 -39 C 21.003906 -39 18.609375 -38.394531 16.515625 -37.1875 C 14.421875 -35.988281 12.757812 -34.082031 11.53125 -31.46875 C 10.300781 -28.851562 9.6875 -25.515625 9.6875 -21.453125 C 9.6875 -17.378906 10.300781 -14.039062 11.53125 -11.4375 C 12.757812 -8.84375 14.421875 -6.941406 16.515625 -5.734375 C 18.609375 -4.535156 21.003906 -3.9375 23.703125 -3.9375 C 26.816406 -3.9375 29.359375 -4.632812 31.328125 -6.03125 C 33.304688 -7.425781 34.773438 -9.691406 35.734375 -12.828125 L 36.46875 -12.828125 L 39.84375 -11.15625 C 38.832031 -7.351562 36.953125 -4.441406 34.203125 -2.421875 C 31.453125 -0.398438 27.953125 0.609375 23.703125 0.609375 Z M 23.703125 0.609375 "/></g></g></g><g fill="#000000" fill-opacity="1"><g transform="translate(247.979015, 592.242211)"><g><path d="M 18.578125 0.609375 C 15.523438 0.609375 12.867188 -0.03125 10.609375 -1.3125 C 8.347656 -2.601562 6.601562 -4.503906 5.375 -7.015625 C 4.15625 -9.535156 3.546875 -12.585938 3.546875 -16.171875 C 3.546875 -19.742188 4.15625 -22.789062 5.375 -25.3125 C 6.601562 -27.84375 8.347656 -29.753906 10.609375 -31.046875 C 12.867188 -32.335938 15.523438 -32.984375 18.578125 -32.984375 C 21.628906 -32.984375 24.28125 -32.335938 26.53125 -31.046875 C 28.789062 -29.753906 30.53125 -27.84375 31.75 -25.3125 C 32.976562 -22.789062 33.59375 -19.742188 33.59375 -16.171875 C 33.59375 -12.585938 32.976562 -9.535156 31.75 -7.015625 C 30.53125 -4.503906 28.789062 -2.601562 26.53125 -1.3125 C 24.28125 -0.03125 21.628906 0.609375 18.578125 0.609375 Z M 18.578125 -3.671875 C 21.804688 -3.671875 24.273438 -4.6875 25.984375 -6.71875 C 27.691406 -8.75 28.546875 -11.898438 28.546875 -16.171875 C 28.546875 -20.453125 27.691406 -23.609375 25.984375 -25.640625 C 24.273438 -27.679688 21.804688 -28.703125 18.578125 -28.703125 C 15.347656 -28.703125 12.867188 -27.675781 11.140625 -25.625 C 9.421875 -23.582031 8.5625 -20.429688 8.5625 -16.171875 C 8.5625 -11.898438 9.421875 -8.75 11.140625 -6.71875 C 12.867188 -4.6875 15.347656 -3.671875 18.578125 -3.671875 Z M 18.578125 -3.671875 "/></g></g></g><g fill="#000000" fill-opacity="1"><g transform="translate(285.095734, 592.242211)"><g><path d="M 5.640625 0 L 5.640625 -32.359375 L 10.1875 -32.359375 L 10.1875 -27.28125 L 10.796875 -27.140625 C 11.867188 -29.035156 13.238281 -30.484375 14.90625 -31.484375 C 16.582031 -32.484375 18.625 -32.984375 21.03125 -32.984375 C 24.925781 -32.984375 27.75 -31.988281 29.5 -30 C 31.25 -28.019531 32.125 -24.960938 32.125 -20.828125 L 32.125 0 L 27.34375 0 L 27.34375 -20.71875 C 27.34375 -22.675781 27.09375 -24.242188 26.59375 -25.421875 C 26.09375 -26.609375 25.320312 -27.46875 24.28125 -28 C 23.238281 -28.539062 21.863281 -28.8125 20.15625 -28.8125 C 17.238281 -28.8125 14.882812 -27.847656 13.09375 -25.921875 C 11.3125 -23.992188 10.421875 -20.890625 10.421875 -16.609375 L 10.421875 0 Z M 5.640625 0 "/></g></g></g><g fill="#000000" fill-opacity="1"><g transform="translate(322.329726, 592.242211)"><g><path d="M 14.765625 0.609375 C 12.722656 0.609375 10.835938 0.34375 9.109375 -0.1875 C 7.378906 -0.726562 5.914062 -1.46875 4.71875 -2.40625 C 3.53125 -3.34375 2.691406 -4.398438 2.203125 -5.578125 L 5.015625 -8.515625 L 5.640625 -8.515625 C 6.691406 -6.910156 7.957031 -5.703125 9.4375 -4.890625 C 10.925781 -4.078125 12.703125 -3.671875 14.765625 -3.671875 C 17.148438 -3.671875 18.960938 -4.132812 20.203125 -5.0625 C 21.441406 -5.988281 22.0625 -7.285156 22.0625 -8.953125 C 22.0625 -10.222656 21.6875 -11.269531 20.9375 -12.09375 C 20.1875 -12.925781 18.96875 -13.550781 17.28125 -13.96875 L 11.828125 -15.3125 C 8.910156 -16.019531 6.78125 -17.132812 5.4375 -18.65625 C 4.101562 -20.1875 3.4375 -22.078125 3.4375 -24.328125 C 3.4375 -26.085938 3.882812 -27.617188 4.78125 -28.921875 C 5.675781 -30.222656 6.96875 -31.222656 8.65625 -31.921875 C 10.351562 -32.628906 12.367188 -32.984375 14.703125 -32.984375 C 17.671875 -32.984375 20.007812 -32.566406 21.71875 -31.734375 C 23.4375 -30.898438 24.773438 -29.738281 25.734375 -28.25 L 23.03125 -25.609375 L 22.453125 -25.609375 C 21.410156 -26.804688 20.273438 -27.664062 19.046875 -28.1875 C 17.828125 -28.71875 16.378906 -28.984375 14.703125 -28.984375 C 12.566406 -28.984375 10.929688 -28.601562 9.796875 -27.84375 C 8.660156 -27.082031 8.09375 -25.976562 8.09375 -24.53125 C 8.09375 -23.21875 8.492188 -22.160156 9.296875 -21.359375 C 10.097656 -20.554688 11.5 -19.910156 13.5 -19.421875 L 18.875 -18.140625 C 21.6875 -17.472656 23.71875 -16.363281 24.96875 -14.8125 C 26.21875 -13.269531 26.84375 -11.335938 26.84375 -9.015625 C 26.84375 -7.109375 26.394531 -5.429688 25.5 -3.984375 C 24.601562 -2.535156 23.242188 -1.40625 21.421875 -0.59375 C 19.597656 0.207031 17.378906 0.609375 14.765625 0.609375 Z M 14.765625 0.609375 "/></g></g></g><g fill="#000000" fill-opacity="1"><g transform="translate(352.234191, 592.242211)"><g><path d="M 21.890625 -5.140625 L 23.421875 -1.703125 C 22.648438 -0.941406 21.644531 -0.367188 20.40625 0.015625 C 19.164062 0.410156 17.820312 0.609375 16.375 0.609375 C 10.1875 0.609375 7.09375 -2.519531 7.09375 -8.78125 L 7.09375 -28.46875 L 1.46875 -28.46875 L 1.46875 -32.390625 L 7.09375 -32.390625 L 7.09375 -39.234375 L 11.890625 -40.015625 L 11.890625 -32.390625 L 22.296875 -32.390625 L 22.296875 -28.46875 L 11.890625 -28.46875 L 11.890625 -9.25 C 11.890625 -5.53125 13.5 -3.671875 16.71875 -3.671875 C 18.476562 -3.671875 19.992188 -4.160156 21.265625 -5.140625 Z M 21.890625 -5.140625 "/></g></g></g><g fill="#000000" fill-opacity="1"><g transform="translate(376.861398, 592.242211)"><g><path d="M 13.34375 0.609375 C 10.15625 0.609375 7.664062 -0.21875 5.875 -1.875 C 4.09375 -3.539062 3.203125 -5.921875 3.203125 -9.015625 C 3.203125 -10.929688 3.597656 -12.546875 4.390625 -13.859375 C 5.179688 -15.179688 6.40625 -16.257812 8.0625 -17.09375 C 9.726562 -17.925781 11.898438 -18.566406 14.578125 -19.015625 C 16.929688 -19.398438 18.71875 -19.835938 19.9375 -20.328125 C 21.15625 -20.816406 21.972656 -21.363281 22.390625 -21.96875 C 22.816406 -22.582031 23.03125 -23.347656 23.03125 -24.265625 C 23.03125 -25.734375 22.523438 -26.859375 21.515625 -27.640625 C 20.515625 -28.421875 18.898438 -28.8125 16.671875 -28.8125 C 14.578125 -28.8125 12.78125 -28.40625 11.28125 -27.59375 C 9.78125 -26.78125 8.40625 -25.570312 7.15625 -23.96875 L 6.578125 -23.96875 L 4.21875 -27.28125 C 5.59375 -29.03125 7.335938 -30.414062 9.453125 -31.4375 C 11.566406 -32.46875 13.972656 -32.984375 16.671875 -32.984375 C 20.484375 -32.984375 23.289062 -32.144531 25.09375 -30.46875 C 26.90625 -28.800781 27.8125 -26.488281 27.8125 -23.53125 L 27.8125 -6.375 C 27.8125 -4.570312 28.578125 -3.671875 30.109375 -3.671875 C 30.617188 -3.671875 31.109375 -3.757812 31.578125 -3.9375 L 31.984375 -3.8125 L 32.546875 -0.5 C 32.191406 -0.257812 31.722656 -0.078125 31.140625 0.046875 C 30.566406 0.171875 29.976562 0.234375 29.375 0.234375 C 27.59375 0.234375 26.242188 -0.15625 25.328125 -0.9375 C 24.421875 -1.71875 23.84375 -2.875 23.59375 -4.40625 L 22.96875 -4.453125 C 22.050781 -2.753906 20.8125 -1.484375 19.25 -0.640625 C 17.6875 0.191406 15.71875 0.609375 13.34375 0.609375 Z M 14.40625 -3.203125 C 16.207031 -3.203125 17.765625 -3.613281 19.078125 -4.4375 C 20.398438 -5.269531 21.414062 -6.441406 22.125 -7.953125 C 22.832031 -9.460938 23.1875 -11.203125 23.1875 -13.171875 L 23.1875 -17.28125 L 22.625 -17.40625 C 21.894531 -16.894531 21.007812 -16.46875 19.96875 -16.125 C 18.9375 -15.78125 17.492188 -15.472656 15.640625 -15.203125 C 13.765625 -14.941406 12.269531 -14.546875 11.15625 -14.015625 C 10.050781 -13.492188 9.265625 -12.828125 8.796875 -12.015625 C 8.328125 -11.203125 8.09375 -10.203125 8.09375 -9.015625 C 8.09375 -7.109375 8.648438 -5.660156 9.765625 -4.671875 C 10.878906 -3.691406 12.425781 -3.203125 14.40625 -3.203125 Z M 14.40625 -3.203125 "/></g></g></g><g fill="#000000" fill-opacity="1"><g transform="translate(410.313354, 592.242211)"><g><path d="M 5.640625 0 L 5.640625 -32.359375 L 10.1875 -32.359375 L 10.1875 -27.28125 L 10.796875 -27.140625 C 11.867188 -29.035156 13.238281 -30.484375 14.90625 -31.484375 C 16.582031 -32.484375 18.625 -32.984375 21.03125 -32.984375 C 24.925781 -32.984375 27.75 -31.988281 29.5 -30 C 31.25 -28.019531 32.125 -24.960938 32.125 -20.828125 L 32.125 0 L 27.34375 0 L 27.34375 -20.71875 C 27.34375 -22.675781 27.09375 -24.242188 26.59375 -25.421875 C 26.09375 -26.609375 25.320312 -27.46875 24.28125 -28 C 23.238281 -28.539062 21.863281 -28.8125 20.15625 -28.8125 C 17.238281 -28.8125 14.882812 -27.847656 13.09375 -25.921875 C 11.3125 -23.992188 10.421875 -20.890625 10.421875 -16.609375 L 10.421875 0 Z M 5.640625 0 "/></g></g></g><g fill="#000000" fill-opacity="1"><g transform="translate(447.547345, 592.242211)"><g><path d="M 21.890625 -5.140625 L 23.421875 -1.703125 C 22.648438 -0.941406 21.644531 -0.367188 20.40625 0.015625 C 19.164062 0.410156 17.820312 0.609375 16.375 0.609375 C 10.1875 0.609375 7.09375 -2.519531 7.09375 -8.78125 L 7.09375 -28.46875 L 1.46875 -28.46875 L 1.46875 -32.390625 L 7.09375 -32.390625 L 7.09375 -39.234375 L 11.890625 -40.015625 L 11.890625 -32.390625 L 22.296875 -32.390625 L 22.296875 -28.46875 L 11.890625 -28.46875 L 11.890625 -9.25 C 11.890625 -5.53125 13.5 -3.671875 16.71875 -3.671875 C 18.476562 -3.671875 19.992188 -4.160156 21.265625 -5.140625 Z M 21.890625 -5.140625 "/></g></g></g><g fill="#000000" fill-opacity="1"><g transform="translate(472.174552, 592.242211)"><g><path d="M 12.875 0.609375 C 10.59375 0.609375 8.796875 -0.0351562 7.484375 -1.328125 C 6.171875 -2.628906 5.515625 -4.570312 5.515625 -7.15625 L 5.515625 -45.359375 L 10.296875 -45.359375 L 10.296875 -7.484375 C 10.296875 -6.128906 10.554688 -5.15625 11.078125 -4.5625 C 11.597656 -3.96875 12.40625 -3.671875 13.5 -3.671875 C 14.164062 -3.671875 14.835938 -3.773438 15.515625 -3.984375 L 15.9375 -3.875 L 16.484375 -0.125 C 16.140625 0.113281 15.640625 0.296875 14.984375 0.421875 C 14.328125 0.546875 13.625 0.609375 12.875 0.609375 Z M 12.875 0.609375 "/></g></g></g><g fill="#000000" fill-opacity="1"><g transform="translate(489.765414, 592.242211)"><g><path d="M 6.484375 13.734375 C 5.390625 13.734375 4.367188 13.640625 3.421875 13.453125 C 2.472656 13.265625 1.65625 13.003906 0.96875 12.671875 L 1.84375 8.890625 L 2.375 8.71875 C 2.84375 8.945312 3.425781 9.144531 4.125 9.3125 C 4.832031 9.476562 5.5625 9.5625 6.3125 9.5625 C 7.625 9.5625 8.707031 9.382812 9.5625 9.03125 C 10.425781 8.6875 11.164062 8.109375 11.78125 7.296875 C 12.394531 6.484375 12.96875 5.363281 13.5 3.9375 L 14.640625 0.765625 L 1.640625 -32.359375 L 6.8125 -32.359375 L 16.984375 -5.953125 L 17.546875 -5.953125 L 27.40625 -32.359375 L 32.3125 -32.359375 L 17.84375 5.078125 C 17.019531 7.148438 16.097656 8.816406 15.078125 10.078125 C 14.066406 11.335938 12.863281 12.257812 11.46875 12.84375 C 10.082031 13.4375 8.421875 13.734375 6.484375 13.734375 Z M 6.484375 13.734375 "/></g></g></g><g fill="#000000" fill-opacity="1"><g transform="translate(523.862368, 592.242211)"><g/></g></g><g fill="#000000" fill-opacity="1"><g transform="translate(538.580056, 592.242211)"><g><path d="M 13.34375 0.609375 C 10.15625 0.609375 7.664062 -0.21875 5.875 -1.875 C 4.09375 -3.539062 3.203125 -5.921875 3.203125 -9.015625 C 3.203125 -10.929688 3.597656 -12.546875 4.390625 -13.859375 C 5.179688 -15.179688 6.40625 -16.257812 8.0625 -17.09375 C 9.726562 -17.925781 11.898438 -18.566406 14.578125 -19.015625 C 16.929688 -19.398438 18.71875 -19.835938 19.9375 -20.328125 C 21.15625 -20.816406 21.972656 -21.363281 22.390625 -21.96875 C 22.816406 -22.582031 23.03125 -23.347656 23.03125 -24.265625 C 23.03125 -25.734375 22.523438 -26.859375 21.515625 -27.640625 C 20.515625 -28.421875 18.898438 -28.8125 16.671875 -28.8125 C 14.578125 -28.8125 12.78125 -28.40625 11.28125 -27.59375 C 9.78125 -26.78125 8.40625 -25.570312 7.15625 -23.96875 L 6.578125 -23.96875 L 4.21875 -27.28125 C 5.59375 -29.03125 7.335938 -30.414062 9.453125 -31.4375 C 11.566406 -32.46875 13.972656 -32.984375 16.671875 -32.984375 C 20.484375 -32.984375 23.289062 -32.144531 25.09375 -30.46875 C 26.90625 -28.800781 27.8125 -26.488281 27.8125 -23.53125 L 27.8125 -6.375 C 27.8125 -4.570312 28.578125 -3.671875 30.109375 -3.671875 C 30.617188 -3.671875 31.109375 -3.757812 31.578125 -3.9375 L 31.984375 -3.8125 L 32.546875 -0.5 C 32.191406 -0.257812 31.722656 -0.078125 31.140625 0.046875 C 30.566406 0.171875 29.976562 0.234375 29.375 0.234375 C 27.59375 0.234375 26.242188 -0.15625 25.328125 -0.9375 C 24.421875 -1.71875 23.84375 -2.875 23.59375 -4.40625 L 22.96875 -4.453125 C 22.050781 -2.753906 20.8125 -1.484375 19.25 -0.640625 C 17.6875 0.191406 15.71875 0.609375 13.34375 0.609375 Z M 14.40625 -3.203125 C 16.207031 -3.203125 17.765625 -3.613281 19.078125 -4.4375 C 20.398438 -5.269531 21.414062 -6.441406 22.125 -7.953125 C 22.832031 -9.460938 23.1875 -11.203125 23.1875 -13.171875 L 23.1875 -17.28125 L 22.625 -17.40625 C 21.894531 -16.894531 21.007812 -16.46875 19.96875 -16.125 C 18.9375 -15.78125 17.492188 -15.472656 15.640625 -15.203125 C 13.765625 -14.941406 12.269531 -14.546875 11.15625 -14.015625 C 10.050781 -13.492188 9.265625 -12.828125 8.796875 -12.015625 C 8.328125 -11.203125 8.09375 -10.203125 8.09375 -9.015625 C 8.09375 -7.109375 8.648438 -5.660156 9.765625 -4.671875 C 10.878906 -3.691406 12.425781 -3.203125 14.40625 -3.203125 Z M 14.40625 -3.203125 "/></g></g></g><g fill="#000000" fill-opacity="1"><g transform="translate(572.032012, 592.242211)"><g><path d="M 5.640625 0 L 5.640625 -32.359375 L 10.1875 -32.359375 L 10.1875 -27.28125 L 10.796875 -27.140625 C 11.867188 -29.035156 13.238281 -30.484375 14.90625 -31.484375 C 16.582031 -32.484375 18.625 -32.984375 21.03125 -32.984375 C 24.925781 -32.984375 27.75 -31.988281 29.5 -30 C 31.25 -28.019531 32.125 -24.960938 32.125 -20.828125 L 32.125 0 L 27.34375 0 L 27.34375 -20.71875 C 27.34375 -22.675781 27.09375 -24.242188 26.59375 -25.421875 C 26.09375 -26.609375 25.320312 -27.46875 24.28125 -28 C 23.238281 -28.539062 21.863281 -28.8125 20.15625 -28.8125 C 17.238281 -28.8125 14.882812 -27.847656 13.09375 -25.921875 C 11.3125 -23.992188 10.421875 -20.890625 10.421875 -16.609375 L 10.421875 0 Z M 5.640625 0 "/></g></g></g><g fill="#000000" fill-opacity="1"><g transform="translate(609.266004, 592.242211)"><g><path d="M 16.78125 0.609375 C 14.175781 0.609375 11.878906 -0.0078125 9.890625 -1.25 C 7.910156 -2.488281 6.359375 -4.359375 5.234375 -6.859375 C 4.109375 -9.367188 3.546875 -12.472656 3.546875 -16.171875 C 3.546875 -19.867188 4.132812 -22.972656 5.3125 -25.484375 C 6.488281 -27.992188 8.109375 -29.867188 10.171875 -31.109375 C 12.234375 -32.359375 14.625 -32.984375 17.34375 -32.984375 C 19.488281 -32.984375 21.421875 -32.578125 23.140625 -31.765625 C 24.867188 -30.953125 26.347656 -29.617188 27.578125 -27.765625 L 28.203125 -27.875 L 28.203125 -45.359375 L 32.984375 -45.359375 L 32.984375 0 L 28.203125 0 L 28.203125 -4.71875 L 27.578125 -4.84375 C 26.523438 -3.238281 25.09375 -1.925781 23.28125 -0.90625 C 21.46875 0.101562 19.300781 0.609375 16.78125 0.609375 Z M 18.28125 -3.671875 C 21.289062 -3.671875 23.695312 -4.703125 25.5 -6.765625 C 27.300781 -8.828125 28.203125 -11.960938 28.203125 -16.171875 C 28.203125 -20.390625 27.300781 -23.53125 25.5 -25.59375 C 23.695312 -27.664062 21.289062 -28.703125 18.28125 -28.703125 C 15.164062 -28.703125 12.765625 -27.691406 11.078125 -25.671875 C 9.398438 -23.660156 8.5625 -20.492188 8.5625 -16.171875 C 8.5625 -7.835938 11.800781 -3.671875 18.28125 -3.671875 Z M 18.28125 -3.671875 "/></g></g></g><g fill="#000000" fill-opacity="1"><g transform="translate(647.877946, 592.242211)"><g/></g></g><g fill="#000000" fill-opacity="1"><g transform="translate(662.595634, 592.242211)"><g><path d="M 5.640625 0 L 5.640625 -32.359375 L 10.1875 -32.359375 L 10.1875 -27.28125 L 10.796875 -27.140625 C 11.867188 -29.035156 13.238281 -30.484375 14.90625 -31.484375 C 16.582031 -32.484375 18.625 -32.984375 21.03125 -32.984375 C 24.925781 -32.984375 27.75 -31.988281 29.5 -30 C 31.25 -28.019531 32.125 -24.960938 32.125 -20.828125 L 32.125 0 L 27.34375 0 L 27.34375 -20.71875 C 27.34375 -22.675781 27.09375 -24.242188 26.59375 -25.421875 C 26.09375 -26.609375 25.320312 -27.46875 24.28125 -28 C 23.238281 -28.539062 21.863281 -28.8125 20.15625 -28.8125 C 17.238281 -28.8125 14.882812 -27.847656 13.09375 -25.921875 C 11.3125 -23.992188 10.421875 -20.890625 10.421875 -16.609375 L 10.421875 0 Z M 5.640625 0 "/></g></g></g><g fill="#000000" fill-opacity="1"><g transform="translate(699.829625, 592.242211)"><g><path d="M 30.84375 -15.078125 L 8.59375 -15.078125 C 8.726562 -11.148438 9.671875 -8.265625 11.421875 -6.421875 C 13.179688 -4.585938 15.582031 -3.671875 18.625 -3.671875 C 20.9375 -3.671875 22.796875 -4.078125 24.203125 -4.890625 C 25.617188 -5.710938 26.722656 -7.007812 27.515625 -8.78125 L 28.140625 -8.78125 L 31.25 -6.921875 C 30.3125 -4.578125 28.8125 -2.734375 26.75 -1.390625 C 24.6875 -0.0546875 21.976562 0.609375 18.625 0.609375 C 15.5 0.609375 12.8125 -0.00390625 10.5625 -1.234375 C 8.3125 -2.460938 6.578125 -4.328125 5.359375 -6.828125 C 4.148438 -9.335938 3.546875 -12.453125 3.546875 -16.171875 C 3.546875 -19.847656 4.1875 -22.945312 5.46875 -25.46875 C 6.75 -27.988281 8.5 -29.867188 10.71875 -31.109375 C 12.945312 -32.359375 15.488281 -32.984375 18.34375 -32.984375 C 22.488281 -32.984375 25.722656 -31.8125 28.046875 -29.46875 C 30.378906 -27.132812 31.554688 -23.671875 31.578125 -19.078125 C 31.578125 -17.273438 31.535156 -16.0625 31.453125 -15.4375 Z M 26.84375 -19.078125 C 26.769531 -22.515625 26.007812 -25.015625 24.5625 -26.578125 C 23.113281 -28.148438 21.039062 -28.9375 18.34375 -28.9375 C 15.5 -28.9375 13.269531 -28.144531 11.65625 -26.5625 C 10.050781 -24.988281 9.070312 -22.492188 8.71875 -19.078125 Z M 26.84375 -19.078125 "/></g></g></g><g fill="#000000" fill-opacity="1"><g transform="translate(734.307715, 592.242211)"><g><path d="M 20.484375 0 L 13.90625 0 L 1.578125 -32.359375 L 6.75 -32.359375 L 16.9375 -5.453125 L 17.609375 -5.453125 L 27.703125 -32.359375 L 32.75 -32.359375 Z M 20.484375 0 "/></g></g></g><g fill="#000000" fill-opacity="1"><g transform="translate(768.580577, 592.242211)"><g><path d="M 30.84375 -15.078125 L 8.59375 -15.078125 C 8.726562 -11.148438 9.671875 -8.265625 11.421875 -6.421875 C 13.179688 -4.585938 15.582031 -3.671875 18.625 -3.671875 C 20.9375 -3.671875 22.796875 -4.078125 24.203125 -4.890625 C 25.617188 -5.710938 26.722656 -7.007812 27.515625 -8.78125 L 28.140625 -8.78125 L 31.25 -6.921875 C 30.3125 -4.578125 28.8125 -2.734375 26.75 -1.390625 C 24.6875 -0.0546875 21.976562 0.609375 18.625 0.609375 C 15.5 0.609375 12.8125 -0.00390625 10.5625 -1.234375 C 8.3125 -2.460938 6.578125 -4.328125 5.359375 -6.828125 C 4.148438 -9.335938 3.546875 -12.453125 3.546875 -16.171875 C 3.546875 -19.847656 4.1875 -22.945312 5.46875 -25.46875 C 6.75 -27.988281 8.5 -29.867188 10.71875 -31.109375 C 12.945312 -32.359375 15.488281 -32.984375 18.34375 -32.984375 C 22.488281 -32.984375 25.722656 -31.8125 28.046875 -29.46875 C 30.378906 -27.132812 31.554688 -23.671875 31.578125 -19.078125 C 31.578125 -17.273438 31.535156 -16.0625 31.453125 -15.4375 Z M 26.84375 -19.078125 C 26.769531 -22.515625 26.007812 -25.015625 24.5625 -26.578125 C 23.113281 -28.148438 21.039062 -28.9375 18.34375 -28.9375 C 15.5 -28.9375 13.269531 -28.144531 11.65625 -26.5625 C 10.050781 -24.988281 9.070312 -22.492188 8.71875 -19.078125 Z M 26.84375 -19.078125 "/></g></g></g><g fill="#000000" fill-opacity="1"><g transform="translate(803.058667, 592.242211)"><g><path d="M 5.640625 0 L 5.640625 -32.359375 L 10.1875 -32.359375 L 10.1875 -27.28125 L 10.796875 -27.140625 C 12.304688 -30.816406 15.144531 -32.65625 19.3125 -32.65625 C 21.519531 -32.65625 23.171875 -32.253906 24.265625 -31.453125 L 23.03125 -27.40625 L 22.453125 -27.28125 C 21.234375 -27.894531 19.898438 -28.203125 18.453125 -28.203125 C 15.867188 -28.203125 13.882812 -27.234375 12.5 -25.296875 C 11.113281 -23.359375 10.421875 -20.21875 10.421875 -15.875 L 10.421875 0 Z M 5.640625 0 "/></g></g></g><g fill="#000000" fill-opacity="1"><g transform="translate(205.936855, 764.128475)"><g><path d="M 11.53125 -42.90625 L 11.53125 -4.171875 L 32.1875 -4.171875 L 32.1875 0 L 6.484375 0 L 6.484375 -42.90625 Z M 11.53125 -42.90625 "/></g></g></g><g fill="#000000" fill-opacity="1"><g transform="translate(239.916537, 764.128475)"><g><path d="M 18.578125 0.609375 C 15.523438 0.609375 12.867188 -0.03125 10.609375 -1.3125 C 8.347656 -2.601562 6.601562 -4.503906 5.375 -7.015625 C 4.15625 -9.535156 3.546875 -12.585938 3.546875 -16.171875 C 3.546875 -19.742188 4.15625 -22.789062 5.375 -25.3125 C 6.601562 -27.84375 8.347656 -29.753906 10.609375 -31.046875 C 12.867188 -32.335938 15.523438 -32.984375 18.578125 -32.984375 C 21.628906 -32.984375 24.28125 -32.335938 26.53125 -31.046875 C 28.789062 -29.753906 30.53125 -27.84375 31.75 -25.3125 C 32.976562 -22.789062 33.59375 -19.742188 33.59375 -16.171875 C 33.59375 -12.585938 32.976562 -9.535156 31.75 -7.015625 C 30.53125 -4.503906 28.789062 -2.601562 26.53125 -1.3125 C 24.28125 -0.03125 21.628906 0.609375 18.578125 0.609375 Z M 18.578125 -3.671875 C 21.804688 -3.671875 24.273438 -4.6875 25.984375 -6.71875 C 27.691406 -8.75 28.546875 -11.898438 28.546875 -16.171875 C 28.546875 -20.453125 27.691406 -23.609375 25.984375 -25.640625 C 24.273438 -27.679688 21.804688 -28.703125 18.578125 -28.703125 C 15.347656 -28.703125 12.867188 -27.675781 11.140625 -25.625 C 9.421875 -23.582031 8.5625 -20.429688 8.5625 -16.171875 C 8.5625 -11.898438 9.421875 -8.75 11.140625 -6.71875 C 12.867188 -4.6875 15.347656 -3.671875 18.578125 -3.671875 Z M 18.578125 -3.671875 "/></g></g></g><g fill="#000000" fill-opacity="1"><g transform="translate(277.033256, 764.128475)"><g><path d="M 5.640625 0 L 5.640625 -45.359375 L 10.421875 -45.359375 L 10.421875 -18.875 L 11.203125 -18.875 L 23.234375 -32.359375 L 28.25 -32.359375 L 28.25 -31.6875 L 15.4375 -17.171875 L 29.484375 -0.734375 L 29.484375 0 L 24.15625 0 L 11.203125 -14.96875 L 10.421875 -14.96875 L 10.421875 0 Z M 5.640625 0 "/></g></g></g><g fill="#000000" fill-opacity="1"><g transform="translate(307.11363, 764.128475)"><g><path d="M 8.046875 -38.609375 C 7.023438 -38.609375 6.195312 -38.925781 5.5625 -39.5625 C 4.925781 -40.195312 4.609375 -41.003906 4.609375 -41.984375 C 4.609375 -42.960938 4.925781 -43.769531 5.5625 -44.40625 C 6.195312 -45.039062 7.023438 -45.359375 8.046875 -45.359375 C 9.054688 -45.359375 9.878906 -45.039062 10.515625 -44.40625 C 11.148438 -43.769531 11.46875 -42.960938 11.46875 -41.984375 C 11.46875 -41.003906 11.148438 -40.195312 10.515625 -39.5625 C 9.878906 -38.925781 9.054688 -38.609375 8.046875 -38.609375 Z M 5.640625 0 L 5.640625 -32.359375 L 10.421875 -32.359375 L 10.421875 0 Z M 5.640625 0 "/></g></g></g><g fill="#000000" fill-opacity="1"><g transform="translate(323.150633, 764.128475)"><g><path d="M 1.84375 8.953125 C 3.550781 7.835938 4.988281 6.546875 6.15625 5.078125 C 7.332031 3.609375 7.941406 1.992188 7.984375 0.234375 C 6.828125 0.234375 5.921875 -0.078125 5.265625 -0.703125 C 4.609375 -1.328125 4.28125 -2.160156 4.28125 -3.203125 C 4.28125 -4.210938 4.597656 -5.046875 5.234375 -5.703125 C 5.867188 -6.359375 6.71875 -6.6875 7.78125 -6.6875 C 8.925781 -6.6875 9.859375 -6.285156 10.578125 -5.484375 C 11.296875 -4.679688 11.65625 -3.421875 11.65625 -1.703125 C 11.65625 1.347656 11 3.914062 9.6875 6 C 8.375 8.082031 6.4375 9.984375 3.875 11.703125 Z M 1.84375 8.953125 "/></g></g></g><g fill="#000000" fill-opacity="1"><g transform="translate(339.070363, 764.128475)"><g/></g></g><g fill="#000000" fill-opacity="1"><g transform="translate(353.788051, 764.128475)"><g><path d="M 22.5625 0.609375 C 18.96875 0.609375 15.796875 -0.207031 13.046875 -1.84375 C 10.296875 -3.488281 8.144531 -5.960938 6.59375 -9.265625 C 5.050781 -12.578125 4.28125 -16.640625 4.28125 -21.453125 C 4.28125 -26.265625 5.109375 -30.320312 6.765625 -33.625 C 8.421875 -36.925781 10.710938 -39.398438 13.640625 -41.046875 C 16.578125 -42.691406 19.960938 -43.515625 23.796875 -43.515625 C 27.898438 -43.515625 31.269531 -42.773438 33.90625 -41.296875 C 36.550781 -39.816406 38.425781 -37.613281 39.53125 -34.6875 L 36.234375 -32.75 L 35.5 -32.75 C 34.382812 -34.976562 32.878906 -36.578125 30.984375 -37.546875 C 29.085938 -38.515625 26.691406 -39 23.796875 -39 C 14.390625 -39 9.6875 -33.148438 9.6875 -21.453125 C 9.6875 -15.367188 10.867188 -10.925781 13.234375 -8.125 C 15.597656 -5.332031 18.914062 -3.9375 23.1875 -3.9375 C 27.09375 -3.9375 30.019531 -4.820312 31.96875 -6.59375 C 33.914062 -8.375 34.890625 -11.1875 34.890625 -15.03125 L 34.890625 -18.8125 L 22.6875 -18.8125 L 22.6875 -22.859375 L 39.78125 -22.859375 L 39.78125 0 L 35.125 0 L 35.125 -5.75 L 34.5 -5.890625 C 33.375 -3.679688 31.796875 -2.046875 29.765625 -0.984375 C 27.742188 0.078125 25.34375 0.609375 22.5625 0.609375 Z M 22.5625 0.609375 "/></g></g></g><g fill="#000000" fill-opacity="1"><g transform="translate(398.351568, 764.128475)"><g><path d="M 18.578125 0.609375 C 15.523438 0.609375 12.867188 -0.03125 10.609375 -1.3125 C 8.347656 -2.601562 6.601562 -4.503906 5.375 -7.015625 C 4.15625 -9.535156 3.546875 -12.585938 3.546875 -16.171875 C 3.546875 -19.742188 4.15625 -22.789062 5.375 -25.3125 C 6.601562 -27.84375 8.347656 -29.753906 10.609375 -31.046875 C 12.867188 -32.335938 15.523438 -32.984375 18.578125 -32.984375 C 21.628906 -32.984375 24.28125 -32.335938 26.53125 -31.046875 C 28.789062 -29.753906 30.53125 -27.84375 31.75 -25.3125 C 32.976562 -22.789062 33.59375 -19.742188 33.59375 -16.171875 C 33.59375 -12.585938 32.976562 -9.535156 31.75 -7.015625 C 30.53125 -4.503906 28.789062 -2.601562 26.53125 -1.3125 C 24.28125 -0.03125 21.628906 0.609375 18.578125 0.609375 Z M 18.578125 -3.671875 C 21.804688 -3.671875 24.273438 -4.6875 25.984375 -6.71875 C 27.691406 -8.75 28.546875 -11.898438 28.546875 -16.171875 C 28.546875 -20.453125 27.691406 -23.609375 25.984375 -25.640625 C 24.273438 -27.679688 21.804688 -28.703125 18.578125 -28.703125 C 15.347656 -28.703125 12.867188 -27.675781 11.140625 -25.625 C 9.421875 -23.582031 8.5625 -20.429688 8.5625 -16.171875 C 8.5625 -11.898438 9.421875 -8.75 11.140625 -6.71875 C 12.867188 -4.6875 15.347656 -3.671875 18.578125 -3.671875 Z M 18.578125 -3.671875 "/></g></g></g><g fill="#000000" fill-opacity="1"><g transform="translate(435.468287, 764.128475)"><g><path d="M 16.78125 0.609375 C 14.175781 0.609375 11.878906 -0.0078125 9.890625 -1.25 C 7.910156 -2.488281 6.359375 -4.359375 5.234375 -6.859375 C 4.109375 -9.367188 3.546875 -12.472656 3.546875 -16.171875 C 3.546875 -19.867188 4.132812 -22.972656 5.3125 -25.484375 C 6.488281 -27.992188 8.109375 -29.867188 10.171875 -31.109375 C 12.234375 -32.359375 14.625 -32.984375 17.34375 -32.984375 C 19.488281 -32.984375 21.421875 -32.578125 23.140625 -31.765625 C 24.867188 -30.953125 26.347656 -29.617188 27.578125 -27.765625 L 28.203125 -27.875 L 28.203125 -45.359375 L 32.984375 -45.359375 L 32.984375 0 L 28.203125 0 L 28.203125 -4.71875 L 27.578125 -4.84375 C 26.523438 -3.238281 25.09375 -1.925781 23.28125 -0.90625 C 21.46875 0.101562 19.300781 0.609375 16.78125 0.609375 Z M 18.28125 -3.671875 C 21.289062 -3.671875 23.695312 -4.703125 25.5 -6.765625 C 27.300781 -8.828125 28.203125 -11.960938 28.203125 -16.171875 C 28.203125 -20.390625 27.300781 -23.53125 25.5 -25.59375 C 23.695312 -27.664062 21.289062 -28.703125 18.28125 -28.703125 C 15.164062 -28.703125 12.765625 -27.691406 11.078125 -25.671875 C 9.398438 -23.660156 8.5625 -20.492188 8.5625 -16.171875 C 8.5625 -7.835938 11.800781 -3.671875 18.28125 -3.671875 Z M 18.28125 -3.671875 "/></g></g></g><g fill="#000000" fill-opacity="1"><g transform="translate(474.080229, 764.128475)"><g/></g></g><g fill="#000000" fill-opacity="1"><g transform="translate(488.797917, 764.128475)"><g><path d="M 18.578125 0.609375 C 15.523438 0.609375 12.867188 -0.03125 10.609375 -1.3125 C 8.347656 -2.601562 6.601562 -4.503906 5.375 -7.015625 C 4.15625 -9.535156 3.546875 -12.585938 3.546875 -16.171875 C 3.546875 -19.742188 4.15625 -22.789062 5.375 -25.3125 C 6.601562 -27.84375 8.347656 -29.753906 10.609375 -31.046875 C 12.867188 -32.335938 15.523438 -32.984375 18.578125 -32.984375 C 21.628906 -32.984375 24.28125 -32.335938 26.53125 -31.046875 C 28.789062 -29.753906 30.53125 -27.84375 31.75 -25.3125 C 32.976562 -22.789062 33.59375 -19.742188 33.59375 -16.171875 C 33.59375 -12.585938 32.976562 -9.535156 31.75 -7.015625 C 30.53125 -4.503906 28.789062 -2.601562 26.53125 -1.3125 C 24.28125 -0.03125 21.628906 0.609375 18.578125 0.609375 Z M 18.578125 -3.671875 C 21.804688 -3.671875 24.273438 -4.6875 25.984375 -6.71875 C 27.691406 -8.75 28.546875 -11.898438 28.546875 -16.171875 C 28.546875 -20.453125 27.691406 -23.609375 25.984375 -25.640625 C 24.273438 -27.679688 21.804688 -28.703125 18.578125 -28.703125 C 15.347656 -28.703125 12.867188 -27.675781 11.140625 -25.625 C 9.421875 -23.582031 8.5625 -20.429688 8.5625 -16.171875 C 8.5625 -11.898438 9.421875 -8.75 11.140625 -6.71875 C 12.867188 -4.6875 15.347656 -3.671875 18.578125 -3.671875 Z M 18.578125 -3.671875 "/></g></g></g><g fill="#000000" fill-opacity="1"><g transform="translate(525.914636, 764.128475)"><g><path d="M 7.21875 0 L 7.21875 -28.46875 L 1.578125 -28.46875 L 1.578125 -32.390625 L 7.21875 -32.390625 C 6.863281 -33.796875 6.6875 -35.140625 6.6875 -36.421875 C 6.6875 -38.503906 7.128906 -40.265625 8.015625 -41.703125 C 8.910156 -43.148438 10.148438 -44.222656 11.734375 -44.921875 C 13.316406 -45.628906 15.144531 -45.984375 17.21875 -45.984375 C 20.445312 -45.984375 22.921875 -45.285156 24.640625 -43.890625 L 22.796875 -40.515625 L 22.1875 -40.40625 C 20.914062 -41.425781 19.257812 -41.9375 17.21875 -41.9375 C 15.320312 -41.9375 13.890625 -41.445312 12.921875 -40.46875 C 11.953125 -39.488281 11.46875 -38.097656 11.46875 -36.296875 C 11.46875 -35.179688 11.644531 -33.878906 12 -32.390625 L 22.296875 -32.390625 L 22.296875 -28.46875 L 12 -28.46875 L 12 0 Z M 7.21875 0 "/></g></g></g><g fill="#000000" fill-opacity="1"><g transform="translate(548.958666, 764.128475)"><g/></g></g><g fill="#000000" fill-opacity="1"><g transform="translate(563.676354, 764.128475)"><g><path d="M 18.75 0.609375 C 16.050781 0.609375 13.628906 0.242188 11.484375 -0.484375 C 9.347656 -1.210938 7.5625 -2.175781 6.125 -3.375 C 4.695312 -4.570312 3.632812 -5.882812 2.9375 -7.3125 L 5.6875 -10.65625 L 6.421875 -10.65625 C 9.085938 -6.175781 13.195312 -3.9375 18.75 -3.9375 C 21.976562 -3.9375 24.378906 -4.609375 25.953125 -5.953125 C 27.523438 -7.304688 28.3125 -9.1875 28.3125 -11.59375 C 28.3125 -13 28.050781 -14.191406 27.53125 -15.171875 C 27.019531 -16.148438 26.164062 -16.984375 24.96875 -17.671875 C 23.78125 -18.367188 22.15625 -18.972656 20.09375 -19.484375 L 15.078125 -20.71875 C 11.347656 -21.613281 8.597656 -23.046875 6.828125 -25.015625 C 5.054688 -26.984375 4.171875 -29.472656 4.171875 -32.484375 C 4.171875 -34.617188 4.71875 -36.519531 5.8125 -38.1875 C 6.90625 -39.863281 8.507812 -41.171875 10.625 -42.109375 C 12.738281 -43.046875 15.257812 -43.515625 18.1875 -43.515625 C 21.414062 -43.515625 24.140625 -43.054688 26.359375 -42.140625 C 28.578125 -41.234375 30.351562 -39.875 31.6875 -38.0625 L 29.21875 -34.734375 L 28.484375 -34.734375 C 27.253906 -36.242188 25.796875 -37.347656 24.109375 -38.046875 C 22.429688 -38.753906 20.457031 -39.109375 18.1875 -39.109375 C 15.21875 -39.109375 12.972656 -38.53125 11.453125 -37.375 C 9.941406 -36.226562 9.1875 -34.632812 9.1875 -32.59375 C 9.1875 -30.65625 9.742188 -29.113281 10.859375 -27.96875 C 11.972656 -26.832031 13.847656 -25.953125 16.484375 -25.328125 L 21.625 -24.09375 C 25.789062 -23.113281 28.804688 -21.609375 30.671875 -19.578125 C 32.546875 -17.554688 33.484375 -14.972656 33.484375 -11.828125 C 33.484375 -9.398438 32.9375 -7.25 31.84375 -5.375 C 30.757812 -3.507812 29.113281 -2.046875 26.90625 -0.984375 C 24.695312 0.078125 21.976562 0.609375 18.75 0.609375 Z M 18.75 0.609375 "/></g></g></g><g fill="#000000" fill-opacity="1"><g transform="translate(600.411937, 764.128475)"><g><path d="M 21.890625 -5.140625 L 23.421875 -1.703125 C 22.648438 -0.941406 21.644531 -0.367188 20.40625 0.015625 C 19.164062 0.410156 17.820312 0.609375 16.375 0.609375 C 10.1875 0.609375 7.09375 -2.519531 7.09375 -8.78125 L 7.09375 -28.46875 L 1.46875 -28.46875 L 1.46875 -32.390625 L 7.09375 -32.390625 L 7.09375 -39.234375 L 11.890625 -40.015625 L 11.890625 -32.390625 L 22.296875 -32.390625 L 22.296875 -28.46875 L 11.890625 -28.46875 L 11.890625 -9.25 C 11.890625 -5.53125 13.5 -3.671875 16.71875 -3.671875 C 18.476562 -3.671875 19.992188 -4.160156 21.265625 -5.140625 Z M 21.890625 -5.140625 "/></g></g></g><g fill="#000000" fill-opacity="1"><g transform="translate(625.039144, 764.128475)"><g><path d="M 18.578125 0.609375 C 15.523438 0.609375 12.867188 -0.03125 10.609375 -1.3125 C 8.347656 -2.601562 6.601562 -4.503906 5.375 -7.015625 C 4.15625 -9.535156 3.546875 -12.585938 3.546875 -16.171875 C 3.546875 -19.742188 4.15625 -22.789062 5.375 -25.3125 C 6.601562 -27.84375 8.347656 -29.753906 10.609375 -31.046875 C 12.867188 -32.335938 15.523438 -32.984375 18.578125 -32.984375 C 21.628906 -32.984375 24.28125 -32.335938 26.53125 -31.046875 C 28.789062 -29.753906 30.53125 -27.84375 31.75 -25.3125 C 32.976562 -22.789062 33.59375 -19.742188 33.59375 -16.171875 C 33.59375 -12.585938 32.976562 -9.535156 31.75 -7.015625 C 30.53125 -4.503906 28.789062 -2.601562 26.53125 -1.3125 C 24.28125 -0.03125 21.628906 0.609375 18.578125 0.609375 Z M 18.578125 -3.671875 C 21.804688 -3.671875 24.273438 -4.6875 25.984375 -6.71875 C 27.691406 -8.75 28.546875 -11.898438 28.546875 -16.171875 C 28.546875 -20.453125 27.691406 -23.609375 25.984375 -25.640625 C 24.273438 -27.679688 21.804688 -28.703125 18.578125 -28.703125 C 15.347656 -28.703125 12.867188 -27.675781 11.140625 -25.625 C 9.421875 -23.582031 8.5625 -20.429688 8.5625 -16.171875 C 8.5625 -11.898438 9.421875 -8.75 11.140625 -6.71875 C 12.867188 -4.6875 15.347656 -3.671875 18.578125 -3.671875 Z M 18.578125 -3.671875 "/></g></g></g><g fill="#000000" fill-opacity="1"><g transform="translate(662.155863, 764.128475)"><g><path d="M 5.640625 0 L 5.640625 -32.359375 L 10.1875 -32.359375 L 10.1875 -27.28125 L 10.796875 -27.140625 C 12.304688 -30.816406 15.144531 -32.65625 19.3125 -32.65625 C 21.519531 -32.65625 23.171875 -32.253906 24.265625 -31.453125 L 23.03125 -27.40625 L 22.453125 -27.28125 C 21.234375 -27.894531 19.898438 -28.203125 18.453125 -28.203125 C 15.867188 -28.203125 13.882812 -27.234375 12.5 -25.296875 C 11.113281 -23.359375 10.421875 -20.21875 10.421875 -15.875 L 10.421875 0 Z M 5.640625 0 "/></g></g></g><g fill="#000000" fill-opacity="1"><g transform="translate(687.134887, 764.128475)"><g><path d="M 8.046875 -38.609375 C 7.023438 -38.609375 6.195312 -38.925781 5.5625 -39.5625 C 4.925781 -40.195312 4.609375 -41.003906 4.609375 -41.984375 C 4.609375 -42.960938 4.925781 -43.769531 5.5625 -44.40625 C 6.195312 -45.039062 7.023438 -45.359375 8.046875 -45.359375 C 9.054688 -45.359375 9.878906 -45.039062 10.515625 -44.40625 C 11.148438 -43.769531 11.46875 -42.960938 11.46875 -41.984375 C 11.46875 -41.003906 11.148438 -40.195312 10.515625 -39.5625 C 9.878906 -38.925781 9.054688 -38.609375 8.046875 -38.609375 Z M 5.640625 0 L 5.640625 -32.359375 L 10.421875 -32.359375 L 10.421875 0 Z M 5.640625 0 "/></g></g></g><g fill="#000000" fill-opacity="1"><g transform="translate(703.17189, 764.128475)"><g><path d="M 30.84375 -15.078125 L 8.59375 -15.078125 C 8.726562 -11.148438 9.671875 -8.265625 11.421875 -6.421875 C 13.179688 -4.585938 15.582031 -3.671875 18.625 -3.671875 C 20.9375 -3.671875 22.796875 -4.078125 24.203125 -4.890625 C 25.617188 -5.710938 26.722656 -7.007812 27.515625 -8.78125 L 28.140625 -8.78125 L 31.25 -6.921875 C 30.3125 -4.578125 28.8125 -2.734375 26.75 -1.390625 C 24.6875 -0.0546875 21.976562 0.609375 18.625 0.609375 C 15.5 0.609375 12.8125 -0.00390625 10.5625 -1.234375 C 8.3125 -2.460938 6.578125 -4.328125 5.359375 -6.828125 C 4.148438 -9.335938 3.546875 -12.453125 3.546875 -16.171875 C 3.546875 -19.847656 4.1875 -22.945312 5.46875 -25.46875 C 6.75 -27.988281 8.5 -29.867188 10.71875 -31.109375 C 12.945312 -32.359375 15.488281 -32.984375 18.34375 -32.984375 C 22.488281 -32.984375 25.722656 -31.8125 28.046875 -29.46875 C 30.378906 -27.132812 31.554688 -23.671875 31.578125 -19.078125 C 31.578125 -17.273438 31.535156 -16.0625 31.453125 -15.4375 Z M 26.84375 -19.078125 C 26.769531 -22.515625 26.007812 -25.015625 24.5625 -26.578125 C 23.113281 -28.148438 21.039062 -28.9375 18.34375 -28.9375 C 15.5 -28.9375 13.269531 -28.144531 11.65625 -26.5625 C 10.050781 -24.988281 9.070312 -22.492188 8.71875 -19.078125 Z M 26.84375 -19.078125 "/></g></g></g><g fill="#000000" fill-opacity="1"><g transform="translate(737.649979, 764.128475)"><g><path d="M 14.765625 0.609375 C 12.722656 0.609375 10.835938 0.34375 9.109375 -0.1875 C 7.378906 -0.726562 5.914062 -1.46875 4.71875 -2.40625 C 3.53125 -3.34375 2.691406 -4.398438 2.203125 -5.578125 L 5.015625 -8.515625 L 5.640625 -8.515625 C 6.691406 -6.910156 7.957031 -5.703125 9.4375 -4.890625 C 10.925781 -4.078125 12.703125 -3.671875 14.765625 -3.671875 C 17.148438 -3.671875 18.960938 -4.132812 20.203125 -5.0625 C 21.441406 -5.988281 22.0625 -7.285156 22.0625 -8.953125 C 22.0625 -10.222656 21.6875 -11.269531 20.9375 -12.09375 C 20.1875 -12.925781 18.96875 -13.550781 17.28125 -13.96875 L 11.828125 -15.3125 C 8.910156 -16.019531 6.78125 -17.132812 5.4375 -18.65625 C 4.101562 -20.1875 3.4375 -22.078125 3.4375 -24.328125 C 3.4375 -26.085938 3.882812 -27.617188 4.78125 -28.921875 C 5.675781 -30.222656 6.96875 -31.222656 8.65625 -31.921875 C 10.351562 -32.628906 12.367188 -32.984375 14.703125 -32.984375 C 17.671875 -32.984375 20.007812 -32.566406 21.71875 -31.734375 C 23.4375 -30.898438 24.773438 -29.738281 25.734375 -28.25 L 23.03125 -25.609375 L 22.453125 -25.609375 C 21.410156 -26.804688 20.273438 -27.664062 19.046875 -28.1875 C 17.828125 -28.71875 16.378906 -28.984375 14.703125 -28.984375 C 12.566406 -28.984375 10.929688 -28.601562 9.796875 -27.84375 C 8.660156 -27.082031 8.09375 -25.976562 8.09375 -24.53125 C 8.09375 -23.21875 8.492188 -22.160156 9.296875 -21.359375 C 10.097656 -20.554688 11.5 -19.910156 13.5 -19.421875 L 18.875 -18.140625 C 21.6875 -17.472656 23.71875 -16.363281 24.96875 -14.8125 C 26.21875 -13.269531 26.84375 -11.335938 26.84375 -9.015625 C 26.84375 -7.109375 26.394531 -5.429688 25.5 -3.984375 C 24.601562 -2.535156 23.242188 -1.40625 21.421875 -0.59375 C 19.597656 0.207031 17.378906 0.609375 14.765625 0.609375 Z M 14.765625 0.609375 "/></g></g></g></svg>