<svg xmlns="http://www.w3.org/2000/svg" xmlns:xlink="http://www.w3.org/1999/xlink" width="1620" zoomAndPan="magnify" viewBox="0 0 1215 809.999993" height="1080" preserveAspectRatio="xMidYMid meet" version="1.0"><defs><g/></defs><g fill="#000000" fill-opacity="1"><g transform="translate(0.00000525, 69.713092)"><g><path d="M 62.28125 0 L 48.59375 0 L 43.21875 -14.03125 L 18.453125 -14.03125 L 13.34375 0 L 0 0 L 24.171875 -62.03125 L 37.421875 -62.03125 Z M 22.265625 -24.515625 L 39.234375 -24.515625 L 30.671875 -47.5625 Z M 22.265625 -24.515625 "/></g></g></g><g fill="#000000" fill-opacity="1"><g transform="translate(62.52394, 69.713092)"><g><path d="M 22.609375 -45.90625 C 28.210938 -45.90625 32.613281 -44.984375 35.8125 -43.140625 C 39.019531 -41.296875 41.234375 -38.265625 42.453125 -34.046875 L 31.1875 -31.96875 C 30.664062 -33.8125 29.722656 -35.179688 28.359375 -36.078125 C 27.003906 -36.972656 25.117188 -37.421875 22.703125 -37.421875 C 17.328125 -37.421875 14.640625 -36.179688 14.640625 -33.703125 C 14.640625 -32.484375 15.519531 -31.515625 17.28125 -30.796875 C 19.039062 -30.078125 21.597656 -29.34375 24.953125 -28.59375 C 29.046875 -27.664062 32.390625 -26.722656 34.984375 -25.765625 C 37.585938 -24.816406 39.726562 -23.40625 41.40625 -21.53125 C 43.082031 -19.65625 43.921875 -17.15625 43.921875 -14.03125 C 43.921875 -11.488281 43.210938 -9.078125 41.796875 -6.796875 C 40.378906 -4.515625 38.140625 -2.632812 35.078125 -1.15625 C 32.015625 0.3125 28.144531 1.046875 23.46875 1.046875 C 18.21875 1.046875 13.582031 -0.078125 9.5625 -2.328125 C 5.550781 -4.585938 3.03125 -8.085938 2 -12.828125 L 13.859375 -14.640625 C 14.953125 -9.847656 18.15625 -7.453125 23.46875 -7.453125 C 25.550781 -7.453125 27.5 -7.8125 29.3125 -8.53125 C 31.132812 -9.25 32.046875 -10.535156 32.046875 -12.390625 C 32.046875 -13.597656 31.628906 -14.445312 30.796875 -14.9375 C 29.960938 -15.425781 28.617188 -15.875 26.765625 -16.28125 C 21.273438 -17.5 17 -18.625 13.9375 -19.65625 C 10.882812 -20.695312 8.40625 -22.195312 6.5 -24.15625 C 4.59375 -26.125 3.640625 -28.785156 3.640625 -32.140625 C 3.640625 -36.816406 5.425781 -40.28125 9 -42.53125 C 12.582031 -44.78125 17.117188 -45.90625 22.609375 -45.90625 Z M 22.609375 -45.90625 "/></g></g></g><g fill="#000000" fill-opacity="1"><g transform="translate(110.672534, 69.713092)"><g><path d="M 22.515625 -45.90625 C 25.578125 -45.90625 28.25 -45.238281 30.53125 -43.90625 C 32.8125 -42.582031 34.675781 -40.828125 36.125 -38.640625 L 36.296875 -38.640625 L 36.296875 -44.875 L 47.390625 -44.875 L 47.390625 -3.8125 C 47.390625 1.207031 46.8125 5.289062 45.65625 8.4375 C 44.5 11.59375 42.375 14.003906 39.28125 15.671875 C 36.195312 17.347656 31.796875 18.1875 26.078125 18.1875 C 18.796875 18.1875 13.492188 16.898438 10.171875 14.328125 C 6.859375 11.765625 5.171875 7.96875 5.109375 2.9375 L 18.71875 4.59375 C 18.945312 6.382812 19.625 7.582031 20.75 8.1875 C 21.875 8.789062 23.503906 9.09375 25.640625 9.09375 C 29.335938 9.09375 31.90625 8.441406 33.34375 7.140625 C 34.789062 5.847656 35.515625 3.582031 35.515625 0.34375 L 35.515625 -7.28125 L 35.34375 -7.28125 C 33.84375 -5.082031 31.921875 -3.316406 29.578125 -1.984375 C 27.242188 -0.660156 24.75 0 22.09375 0 C 18.394531 0 15.144531 -0.976562 12.34375 -2.9375 C 9.539062 -4.90625 7.375 -7.617188 5.84375 -11.078125 C 4.3125 -14.546875 3.546875 -18.421875 3.546875 -22.703125 C 3.546875 -28.296875 4.515625 -32.828125 6.453125 -36.296875 C 8.390625 -39.765625 10.800781 -42.234375 13.6875 -43.703125 C 16.570312 -45.171875 19.515625 -45.90625 22.515625 -45.90625 Z M 15.765625 -23.390625 C 15.765625 -19.640625 16.515625 -16.421875 18.015625 -13.734375 C 19.515625 -11.046875 21.96875 -9.703125 25.375 -9.703125 C 27.976562 -9.703125 30.363281 -10.710938 32.53125 -12.734375 C 34.695312 -14.753906 35.78125 -18.21875 35.78125 -23.125 C 35.78125 -26.769531 34.984375 -29.960938 33.390625 -32.703125 C 31.804688 -35.441406 29.164062 -36.8125 25.46875 -36.8125 C 21.882812 -36.8125 19.367188 -35.425781 17.921875 -32.65625 C 16.484375 -29.882812 15.765625 -26.796875 15.765625 -23.390625 Z M 15.765625 -23.390625 "/></g></g></g><g fill="#000000" fill-opacity="1"><g transform="translate(163.584059, 69.713092)"><g><path d="M 23.734375 -45.90625 C 29.453125 -45.90625 33.695312 -45.171875 36.46875 -43.703125 C 39.238281 -42.234375 40.984375 -40.296875 41.703125 -37.890625 C 42.429688 -35.492188 42.765625 -32.332031 42.703125 -28.40625 L 42.625 -15.328125 C 42.5625 -11.234375 42.703125 -8.257812 43.046875 -6.40625 C 43.398438 -4.5625 44.125 -2.425781 45.21875 0 L 33.53125 0 C 33.238281 -0.632812 32.71875 -2.28125 31.96875 -4.9375 C 29.832031 -2.851562 27.625 -1.332031 25.34375 -0.375 C 23.0625 0.570312 20.617188 1.046875 18.015625 1.046875 C 13.566406 1.046875 9.972656 -0.179688 7.234375 -2.640625 C 4.492188 -5.097656 3.125 -8.289062 3.125 -12.21875 C 3.125 -15.507812 3.945312 -18.117188 5.59375 -20.046875 C 7.238281 -21.984375 9.242188 -23.382812 11.609375 -24.25 C 13.972656 -25.113281 16.773438 -25.863281 20.015625 -26.5 C 24.972656 -27.425781 28.640625 -28.351562 31.015625 -29.28125 L 31.015625 -31.1875 C 31.015625 -33.144531 30.4375 -34.570312 29.28125 -35.46875 C 28.125 -36.363281 26.015625 -36.8125 22.953125 -36.8125 C 20.585938 -36.8125 18.828125 -36.332031 17.671875 -35.375 C 16.515625 -34.425781 15.648438 -33.03125 15.078125 -31.1875 L 4.328125 -33.171875 C 5.484375 -37.566406 7.5625 -40.785156 10.5625 -42.828125 C 13.570312 -44.878906 17.960938 -45.90625 23.734375 -45.90625 Z M 23.5625 -19.65625 L 21.5625 -19.234375 C 17.175781 -18.304688 14.984375 -16.398438 14.984375 -13.515625 C 14.984375 -11.785156 15.601562 -10.328125 16.84375 -9.140625 C 18.09375 -7.953125 19.664062 -7.359375 21.5625 -7.359375 C 23.125 -7.359375 24.6875 -7.757812 26.25 -8.5625 C 27.8125 -9.375 29.023438 -10.445312 29.890625 -11.78125 C 30.640625 -12.988281 31.015625 -15.066406 31.015625 -18.015625 L 31.015625 -21.5625 C 28.765625 -20.875 26.28125 -20.238281 23.5625 -19.65625 Z M 23.5625 -19.65625 "/></g></g></g><g fill="#000000" fill-opacity="1"><g transform="translate(211.732653, 69.713092)"><g><path d="M 27.03125 -45.90625 C 28.300781 -45.90625 29.640625 -45.703125 31.046875 -45.296875 C 32.460938 -44.898438 33.722656 -44.382812 34.828125 -43.75 L 31.09375 -33.34375 C 29.070312 -34.613281 27.222656 -35.25 25.546875 -35.25 C 23.296875 -35.25 21.59375 -34.484375 20.4375 -32.953125 C 19.289062 -31.429688 18.523438 -29.296875 18.140625 -26.546875 C 17.765625 -23.804688 17.578125 -20.15625 17.578125 -15.59375 L 17.578125 0 L 5.71875 0 L 5.71875 -44.875 L 16.71875 -44.875 L 16.71875 -38.546875 L 16.890625 -38.546875 C 18.335938 -40.972656 19.78125 -42.804688 21.21875 -44.046875 C 22.664062 -45.285156 24.601562 -45.90625 27.03125 -45.90625 Z M 27.03125 -45.90625 "/></g></g></g><g fill="#000000" fill-opacity="1"><g transform="translate(245.41936, 69.713092)"><g><path d="M 47.390625 -62.03125 L 47.390625 0 L 36.296875 0 L 36.296875 -6.578125 L 36.125 -6.578125 C 34.21875 -3.691406 31.976562 -1.695312 29.40625 -0.59375 C 26.832031 0.5 24.476562 1.046875 22.34375 1.046875 C 19.050781 1.046875 15.972656 0.148438 13.109375 -1.640625 C 10.253906 -3.429688 7.945312 -6.117188 6.1875 -9.703125 C 4.425781 -13.285156 3.546875 -17.675781 3.546875 -22.875 C 3.546875 -27.894531 4.394531 -32.132812 6.09375 -35.59375 C 7.800781 -39.0625 10.082031 -41.644531 12.9375 -43.34375 C 15.800781 -45.050781 18.96875 -45.90625 22.4375 -45.90625 C 27.519531 -45.90625 31.878906 -43.828125 35.515625 -39.671875 L 35.515625 -62.03125 Z M 15.765625 -22.34375 C 15.765625 -17.382812 16.703125 -13.820312 18.578125 -11.65625 C 20.453125 -9.488281 22.660156 -8.40625 25.203125 -8.40625 C 26.765625 -8.40625 28.335938 -8.804688 29.921875 -9.609375 C 31.515625 -10.421875 32.890625 -11.953125 34.046875 -14.203125 C 35.085938 -16.222656 35.609375 -19.285156 35.609375 -23.390625 C 35.609375 -27.722656 34.679688 -31.039062 32.828125 -33.34375 C 30.984375 -35.65625 28.554688 -36.8125 25.546875 -36.8125 L 25.125 -36.8125 C 21.769531 -36.644531 19.367188 -35.1875 17.921875 -32.4375 C 16.484375 -29.695312 15.765625 -26.332031 15.765625 -22.34375 Z M 15.765625 -22.34375 "/></g></g></g><g fill="#000000" fill-opacity="1"><g transform="translate(298.330885, 69.713092)"><g/></g></g><g fill="#000000" fill-opacity="1"><g transform="translate(322.405182, 69.713092)"><g><path d="M 30.3125 -45.90625 C 36.144531 -45.90625 40.390625 -43.539062 43.046875 -38.8125 C 46.921875 -43.539062 51.484375 -45.90625 56.734375 -45.90625 C 61.703125 -45.90625 65.398438 -44.546875 67.828125 -41.828125 C 70.253906 -39.117188 71.46875 -35.050781 71.46875 -29.625 L 71.46875 0 L 59.59375 0 L 59.59375 -26.859375 C 59.59375 -30.085938 59.175781 -32.550781 58.34375 -34.25 C 57.507812 -35.957031 55.820312 -36.8125 53.28125 -36.8125 C 50.851562 -36.8125 48.898438 -35.972656 47.421875 -34.296875 C 45.953125 -32.628906 45.046875 -30.46875 44.703125 -27.8125 C 44.472656 -25.726562 44.359375 -23.878906 44.359375 -22.265625 L 44.359375 0 L 32.484375 0 L 32.484375 -26.421875 C 32.484375 -30.054688 32.09375 -32.695312 31.3125 -34.34375 C 30.53125 -35.988281 28.867188 -36.8125 26.328125 -36.8125 C 24.484375 -36.8125 22.820312 -36.320312 21.34375 -35.34375 C 19.875 -34.363281 18.851562 -33.003906 18.28125 -31.265625 C 17.582031 -29.191406 17.234375 -26.273438 17.234375 -22.515625 L 17.234375 0 L 5.375 0 L 5.375 -44.875 L 16.375 -44.875 L 16.546875 -38.8125 C 18.390625 -41.0625 20.335938 -42.804688 22.390625 -44.046875 C 24.441406 -45.285156 27.082031 -45.90625 30.3125 -45.90625 Z M 30.3125 -45.90625 "/></g></g></g><g fill="#000000" fill-opacity="1"><g transform="translate(399.391003, 69.713092)"><g><path d="M 18.109375 -51.015625 L 6.234375 -51.015625 L 6.234375 -62.03125 L 18.109375 -62.03125 Z M 18.109375 0 L 6.234375 0 L 6.234375 -44.875 L 18.109375 -44.875 Z M 18.109375 0 "/></g></g></g><g fill="#000000" fill-opacity="1"><g transform="translate(423.4653, 69.713092)"><g><path d="M 9.015625 -39.15625 C 12.878906 -43.65625 18.363281 -45.90625 25.46875 -45.90625 C 36.15625 -45.90625 42.828125 -41.144531 45.484375 -31.625 L 33.78125 -29.546875 C 32.800781 -34.273438 30.085938 -36.640625 25.640625 -36.640625 C 22.640625 -36.640625 20.257812 -35.597656 18.5 -33.515625 C 16.738281 -31.441406 15.859375 -28.066406 15.859375 -23.390625 C 15.859375 -18.828125 16.609375 -15.226562 18.109375 -12.59375 C 19.609375 -9.96875 22.175781 -8.65625 25.8125 -8.65625 C 28.175781 -8.65625 30.066406 -9.363281 31.484375 -10.78125 C 32.898438 -12.195312 33.867188 -14.347656 34.390625 -17.234375 L 46.078125 -15.25 C 43.660156 -4.382812 36.703125 1.046875 25.203125 1.046875 C 18.390625 1.046875 13.132812 -1.035156 9.4375 -5.203125 C 7.53125 -7.335938 6.085938 -9.929688 5.109375 -12.984375 C 4.128906 -16.046875 3.640625 -19.195312 3.640625 -22.4375 C 3.640625 -25.78125 4.097656 -28.894531 5.015625 -31.78125 C 5.941406 -34.675781 7.273438 -37.132812 9.015625 -39.15625 Z M 9.015625 -39.15625 "/></g></g></g><g fill="#000000" fill-opacity="1"><g transform="translate(471.613894, 69.713092)"><g><path d="M 27.03125 -45.90625 C 28.300781 -45.90625 29.640625 -45.703125 31.046875 -45.296875 C 32.460938 -44.898438 33.722656 -44.382812 34.828125 -43.75 L 31.09375 -33.34375 C 29.070312 -34.613281 27.222656 -35.25 25.546875 -35.25 C 23.296875 -35.25 21.59375 -34.484375 20.4375 -32.953125 C 19.289062 -31.429688 18.523438 -29.296875 18.140625 -26.546875 C 17.765625 -23.804688 17.578125 -20.15625 17.578125 -15.59375 L 17.578125 0 L 5.71875 0 L 5.71875 -44.875 L 16.71875 -44.875 L 16.71875 -38.546875 L 16.890625 -38.546875 C 18.335938 -40.972656 19.78125 -42.804688 21.21875 -44.046875 C 22.664062 -45.285156 24.601562 -45.90625 27.03125 -45.90625 Z M 27.03125 -45.90625 "/></g></g></g><g fill="#000000" fill-opacity="1"><g transform="translate(505.300601, 69.713092)"><g><path d="M 26.59375 -45.90625 C 31.445312 -45.90625 35.632812 -44.804688 39.15625 -42.609375 C 42.675781 -40.421875 45.332031 -37.535156 47.125 -33.953125 C 48.914062 -30.378906 49.8125 -26.597656 49.8125 -22.609375 C 49.8125 -18.453125 48.867188 -14.566406 46.984375 -10.953125 C 45.109375 -7.347656 42.425781 -4.445312 38.9375 -2.25 C 35.445312 -0.0507812 31.363281 1.046875 26.6875 1.046875 C 22.695312 1.046875 18.941406 0.222656 15.421875 -1.421875 C 11.898438 -3.066406 9.023438 -5.691406 6.796875 -9.296875 C 4.578125 -12.910156 3.46875 -17.492188 3.46875 -23.046875 C 3.46875 -26.910156 4.347656 -30.585938 6.109375 -34.078125 C 7.867188 -37.578125 10.492188 -40.421875 13.984375 -42.609375 C 17.484375 -44.804688 21.6875 -45.90625 26.59375 -45.90625 Z M 15.671875 -22.4375 C 15.671875 -17.925781 16.722656 -14.5 18.828125 -12.15625 C 20.941406 -9.820312 23.53125 -8.65625 26.59375 -8.65625 C 29.65625 -8.65625 32.253906 -9.8125 34.390625 -12.125 C 36.523438 -14.4375 37.59375 -17.898438 37.59375 -22.515625 C 37.59375 -26.796875 36.566406 -30.144531 34.515625 -32.5625 C 32.460938 -34.988281 29.789062 -36.203125 26.5 -36.203125 C 23.5 -36.203125 20.941406 -35.019531 18.828125 -32.65625 C 16.722656 -30.289062 15.671875 -26.882812 15.671875 -22.4375 Z M 15.671875 -22.4375 "/></g></g></g><g fill="#000000" fill-opacity="1"><g transform="translate(558.212126, 69.713092)"><g><path d="M 22.609375 -45.90625 C 28.210938 -45.90625 32.613281 -44.984375 35.8125 -43.140625 C 39.019531 -41.296875 41.234375 -38.265625 42.453125 -34.046875 L 31.1875 -31.96875 C 30.664062 -33.8125 29.722656 -35.179688 28.359375 -36.078125 C 27.003906 -36.972656 25.117188 -37.421875 22.703125 -37.421875 C 17.328125 -37.421875 14.640625 -36.179688 14.640625 -33.703125 C 14.640625 -32.484375 15.519531 -31.515625 17.28125 -30.796875 C 19.039062 -30.078125 21.597656 -29.34375 24.953125 -28.59375 C 29.046875 -27.664062 32.390625 -26.722656 34.984375 -25.765625 C 37.585938 -24.816406 39.726562 -23.40625 41.40625 -21.53125 C 43.082031 -19.65625 43.921875 -17.15625 43.921875 -14.03125 C 43.921875 -11.488281 43.210938 -9.078125 41.796875 -6.796875 C 40.378906 -4.515625 38.140625 -2.632812 35.078125 -1.15625 C 32.015625 0.3125 28.144531 1.046875 23.46875 1.046875 C 18.21875 1.046875 13.582031 -0.078125 9.5625 -2.328125 C 5.550781 -4.585938 3.03125 -8.085938 2 -12.828125 L 13.859375 -14.640625 C 14.953125 -9.847656 18.15625 -7.453125 23.46875 -7.453125 C 25.550781 -7.453125 27.5 -7.8125 29.3125 -8.53125 C 31.132812 -9.25 32.046875 -10.535156 32.046875 -12.390625 C 32.046875 -13.597656 31.628906 -14.445312 30.796875 -14.9375 C 29.960938 -15.425781 28.617188 -15.875 26.765625 -16.28125 C 21.273438 -17.5 17 -18.625 13.9375 -19.65625 C 10.882812 -20.695312 8.40625 -22.195312 6.5 -24.15625 C 4.59375 -26.125 3.640625 -28.785156 3.640625 -32.140625 C 3.640625 -36.816406 5.425781 -40.28125 9 -42.53125 C 12.582031 -44.78125 17.117188 -45.90625 22.609375 -45.90625 Z M 22.609375 -45.90625 "/></g></g></g><g fill="#000000" fill-opacity="1"><g transform="translate(606.36072, 69.713092)"><g><path d="M 9.015625 -39.15625 C 12.878906 -43.65625 18.363281 -45.90625 25.46875 -45.90625 C 36.15625 -45.90625 42.828125 -41.144531 45.484375 -31.625 L 33.78125 -29.546875 C 32.800781 -34.273438 30.085938 -36.640625 25.640625 -36.640625 C 22.640625 -36.640625 20.257812 -35.597656 18.5 -33.515625 C 16.738281 -31.441406 15.859375 -28.066406 15.859375 -23.390625 C 15.859375 -18.828125 16.609375 -15.226562 18.109375 -12.59375 C 19.609375 -9.96875 22.175781 -8.65625 25.8125 -8.65625 C 28.175781 -8.65625 30.066406 -9.363281 31.484375 -10.78125 C 32.898438 -12.195312 33.867188 -14.347656 34.390625 -17.234375 L 46.078125 -15.25 C 43.660156 -4.382812 36.703125 1.046875 25.203125 1.046875 C 18.390625 1.046875 13.132812 -1.035156 9.4375 -5.203125 C 7.53125 -7.335938 6.085938 -9.929688 5.109375 -12.984375 C 4.128906 -16.046875 3.640625 -19.195312 3.640625 -22.4375 C 3.640625 -25.78125 4.097656 -28.894531 5.015625 -31.78125 C 5.941406 -34.675781 7.273438 -37.132812 9.015625 -39.15625 Z M 9.015625 -39.15625 "/></g></g></g><g fill="#000000" fill-opacity="1"><g transform="translate(654.509314, 69.713092)"><g><path d="M 23.734375 -45.90625 C 29.453125 -45.90625 33.695312 -45.171875 36.46875 -43.703125 C 39.238281 -42.234375 40.984375 -40.296875 41.703125 -37.890625 C 42.429688 -35.492188 42.765625 -32.332031 42.703125 -28.40625 L 42.625 -15.328125 C 42.5625 -11.234375 42.703125 -8.257812 43.046875 -6.40625 C 43.398438 -4.5625 44.125 -2.425781 45.21875 0 L 33.53125 0 C 33.238281 -0.632812 32.71875 -2.28125 31.96875 -4.9375 C 29.832031 -2.851562 27.625 -1.332031 25.34375 -0.375 C 23.0625 0.570312 20.617188 1.046875 18.015625 1.046875 C 13.566406 1.046875 9.972656 -0.179688 7.234375 -2.640625 C 4.492188 -5.097656 3.125 -8.289062 3.125 -12.21875 C 3.125 -15.507812 3.945312 -18.117188 5.59375 -20.046875 C 7.238281 -21.984375 9.242188 -23.382812 11.609375 -24.25 C 13.972656 -25.113281 16.773438 -25.863281 20.015625 -26.5 C 24.972656 -27.425781 28.640625 -28.351562 31.015625 -29.28125 L 31.015625 -31.1875 C 31.015625 -33.144531 30.4375 -34.570312 29.28125 -35.46875 C 28.125 -36.363281 26.015625 -36.8125 22.953125 -36.8125 C 20.585938 -36.8125 18.828125 -36.332031 17.671875 -35.375 C 16.515625 -34.425781 15.648438 -33.03125 15.078125 -31.1875 L 4.328125 -33.171875 C 5.484375 -37.566406 7.5625 -40.785156 10.5625 -42.828125 C 13.570312 -44.878906 17.960938 -45.90625 23.734375 -45.90625 Z M 23.5625 -19.65625 L 21.5625 -19.234375 C 17.175781 -18.304688 14.984375 -16.398438 14.984375 -13.515625 C 14.984375 -11.785156 15.601562 -10.328125 16.84375 -9.140625 C 18.09375 -7.953125 19.664062 -7.359375 21.5625 -7.359375 C 23.125 -7.359375 24.6875 -7.757812 26.25 -8.5625 C 27.8125 -9.375 29.023438 -10.445312 29.890625 -11.78125 C 30.640625 -12.988281 31.015625 -15.066406 31.015625 -18.015625 L 31.015625 -21.5625 C 28.765625 -20.875 26.28125 -20.238281 23.5625 -19.65625 Z M 23.5625 -19.65625 "/></g></g></g><g fill="#000000" fill-opacity="1"><g transform="translate(702.657908, 69.713092)"><g><path d="M 18.109375 0 L 6.234375 0 L 6.234375 -62.03125 L 18.109375 -62.03125 Z M 18.109375 0 "/></g></g></g><g fill="#000000" fill-opacity="1"><g transform="translate(726.732205, 69.713092)"><g><path d="M 23.390625 -45.90625 C 30.546875 -45.90625 35.882812 -43.582031 39.40625 -38.9375 C 42.9375 -34.289062 44.703125 -27.664062 44.703125 -19.0625 L 14.90625 -19.0625 C 15.019531 -16.050781 15.898438 -13.460938 17.546875 -11.296875 C 19.191406 -9.140625 21.570312 -8.0625 24.6875 -8.0625 C 26.65625 -8.0625 28.257812 -8.566406 29.5 -9.578125 C 30.738281 -10.585938 31.644531 -12.160156 32.21875 -14.296875 L 44.09375 -12.296875 C 42.59375 -7.910156 40.164062 -4.585938 36.8125 -2.328125 C 33.46875 -0.078125 29.367188 1.046875 24.515625 1.046875 C 17.296875 1.046875 11.835938 -1.117188 8.140625 -5.453125 C 6.410156 -7.472656 5.082031 -10.015625 4.15625 -13.078125 C 3.226562 -16.140625 2.765625 -19.171875 2.765625 -22.171875 C 2.765625 -26.273438 3.5 -30.128906 4.96875 -33.734375 C 6.445312 -37.347656 8.726562 -40.28125 11.8125 -42.53125 C 14.90625 -44.78125 18.765625 -45.90625 23.390625 -45.90625 Z M 15.15625 -26.328125 L 32.921875 -26.328125 C 32.859375 -29.972656 31.945312 -32.628906 30.1875 -34.296875 C 28.425781 -35.972656 26.363281 -36.8125 24 -36.8125 C 21.226562 -36.8125 19.0625 -35.816406 17.5 -33.828125 C 15.9375 -31.835938 15.15625 -29.335938 15.15625 -26.328125 Z M 15.15625 -26.328125 "/></g></g></g><g fill="#000000" fill-opacity="1"><g transform="translate(0.00000525, 219.614553)"><g><path d="M 3.296875 0 L 3.296875 -4.5 L 15.953125 -4.5 L 15.953125 -39.953125 L 15.21875 -40.140625 C 13.164062 -39.128906 11.367188 -38.351562 9.828125 -37.8125 C 8.285156 -37.269531 6.3125 -36.742188 3.90625 -36.234375 L 3.90625 -41.25 C 6.289062 -41.757812 8.648438 -42.445312 10.984375 -43.3125 C 13.316406 -44.175781 15.4375 -45.191406 17.34375 -46.359375 L 21.28125 -46.359375 L 21.28125 -4.5 L 32.59375 -4.5 L 32.59375 0 Z M 3.296875 0 "/></g></g></g><g fill="#000000" fill-opacity="1"><g transform="translate(34.533822, 219.614553)"><g><path d="M 22.796875 0.671875 C 19.390625 0.671875 16.332031 -0.144531 13.625 -1.78125 C 10.925781 -3.425781 8.769531 -6.03125 7.15625 -9.59375 C 5.550781 -13.15625 4.75 -17.679688 4.75 -23.171875 C 4.75 -28.671875 5.550781 -33.203125 7.15625 -36.765625 C 8.769531 -40.328125 10.925781 -42.925781 13.625 -44.5625 C 16.332031 -46.195312 19.390625 -47.015625 22.796875 -47.015625 C 26.203125 -47.015625 29.253906 -46.195312 31.953125 -44.5625 C 34.660156 -42.925781 36.8125 -40.328125 38.40625 -36.765625 C 40.007812 -33.203125 40.8125 -28.671875 40.8125 -23.171875 C 40.8125 -17.679688 40.007812 -13.15625 38.40625 -9.59375 C 36.8125 -6.03125 34.660156 -3.425781 31.953125 -1.78125 C 29.253906 -0.144531 26.203125 0.671875 22.796875 0.671875 Z M 22.796875 -4.375 C 26.835938 -4.375 29.894531 -5.828125 31.96875 -8.734375 C 34.050781 -11.640625 35.09375 -16.453125 35.09375 -23.171875 C 35.09375 -29.898438 34.050781 -34.71875 31.96875 -37.625 C 29.894531 -40.53125 26.835938 -41.984375 22.796875 -41.984375 C 20.128906 -41.984375 17.882812 -41.367188 16.0625 -40.140625 C 14.25 -38.910156 12.863281 -36.910156 11.90625 -34.140625 C 10.945312 -31.378906 10.46875 -27.722656 10.46875 -23.171875 C 10.46875 -18.628906 10.945312 -14.972656 11.90625 -12.203125 C 12.863281 -9.429688 14.25 -7.429688 16.0625 -6.203125 C 17.882812 -4.984375 20.128906 -4.375 22.796875 -4.375 Z M 22.796875 -4.375 "/></g></g></g><g fill="#000000" fill-opacity="1"><g transform="translate(80.093114, 219.614553)"><g/></g></g><g fill="#000000" fill-opacity="1"><g transform="translate(95.997679, 219.614553)"><g><path d="M 25.421875 0.671875 C 21.410156 0.671875 17.835938 -0.191406 14.703125 -1.921875 C 11.578125 -3.660156 9.113281 -6.3125 7.3125 -9.875 C 5.519531 -13.4375 4.625 -17.867188 4.625 -23.171875 C 4.625 -28.484375 5.519531 -32.921875 7.3125 -36.484375 C 9.113281 -40.046875 11.578125 -42.691406 14.703125 -44.421875 C 17.835938 -46.148438 21.410156 -47.015625 25.421875 -47.015625 C 29.441406 -47.015625 33.015625 -46.148438 36.140625 -44.421875 C 39.273438 -42.691406 41.738281 -40.046875 43.53125 -36.484375 C 45.332031 -32.921875 46.234375 -28.484375 46.234375 -23.171875 C 46.234375 -17.867188 45.332031 -13.4375 43.53125 -9.875 C 41.738281 -6.3125 39.273438 -3.660156 36.140625 -1.921875 C 33.015625 -0.191406 29.441406 0.671875 25.421875 0.671875 Z M 25.421875 -4.375 C 30.242188 -4.375 33.941406 -5.878906 36.515625 -8.890625 C 39.097656 -11.898438 40.390625 -16.660156 40.390625 -23.171875 C 40.390625 -29.679688 39.097656 -34.441406 36.515625 -37.453125 C 33.941406 -40.472656 30.242188 -41.984375 25.421875 -41.984375 C 15.453125 -41.984375 10.46875 -35.710938 10.46875 -23.171875 C 10.46875 -10.640625 15.453125 -4.375 25.421875 -4.375 Z M 25.421875 -4.375 "/></g></g></g><g fill="#000000" fill-opacity="1"><g transform="translate(146.816249, 219.614553)"><g><path d="M 20.078125 0.671875 C 16.984375 0.671875 14.207031 -0.03125 11.75 -1.4375 C 9.300781 -2.84375 7.367188 -4.914062 5.953125 -7.65625 C 4.546875 -10.394531 3.84375 -13.664062 3.84375 -17.46875 C 3.84375 -21.289062 4.546875 -24.570312 5.953125 -27.3125 C 7.367188 -30.050781 9.300781 -32.125 11.75 -33.53125 C 14.207031 -34.9375 16.984375 -35.640625 20.078125 -35.640625 C 23.773438 -35.640625 26.71875 -34.941406 28.90625 -33.546875 C 31.09375 -32.148438 32.671875 -30.289062 33.640625 -27.96875 L 30.125 -25.421875 L 29.484375 -25.421875 C 28.535156 -27.347656 27.316406 -28.757812 25.828125 -29.65625 C 24.335938 -30.5625 22.421875 -31.015625 20.078125 -31.015625 C 17.921875 -31.015625 16.023438 -30.503906 14.390625 -29.484375 C 12.765625 -28.472656 11.503906 -26.953125 10.609375 -24.921875 C 9.710938 -22.890625 9.265625 -20.40625 9.265625 -17.46875 C 9.265625 -14.550781 9.71875 -12.082031 10.625 -10.0625 C 11.53125 -8.050781 12.789062 -6.53125 14.40625 -5.5 C 16.03125 -4.476562 17.921875 -3.96875 20.078125 -3.96875 C 22.503906 -3.96875 24.515625 -4.515625 26.109375 -5.609375 C 27.703125 -6.710938 28.957031 -8.445312 29.875 -10.8125 L 30.53125 -10.8125 L 33.921875 -8.8125 C 33.015625 -5.875 31.394531 -3.554688 29.0625 -1.859375 C 26.726562 -0.171875 23.734375 0.671875 20.078125 0.671875 Z M 20.078125 0.671875 "/></g></g></g><g fill="#000000" fill-opacity="1"><g transform="translate(182.83917, 219.614553)"><g><path d="M 23.65625 -5.546875 L 25.296875 -1.84375 C 24.472656 -1.019531 23.390625 -0.394531 22.046875 0.03125 C 20.710938 0.457031 19.257812 0.671875 17.6875 0.671875 C 11.007812 0.671875 7.671875 -2.710938 7.671875 -9.484375 L 7.671875 -30.75 L 1.578125 -30.75 L 1.578125 -35 L 7.671875 -35 L 7.671875 -42.390625 L 12.84375 -43.25 L 12.84375 -35 L 24.09375 -35 L 24.09375 -30.75 L 12.84375 -30.75 L 12.84375 -9.984375 C 12.84375 -5.972656 14.585938 -3.96875 18.078125 -3.96875 C 19.972656 -3.96875 21.609375 -4.492188 22.984375 -5.546875 Z M 23.65625 -5.546875 "/></g></g></g><g fill="#000000" fill-opacity="1"><g transform="translate(209.469572, 219.614553)"><g/></g></g><g fill="#000000" fill-opacity="1"><g transform="translate(225.374137, 219.614553)"><g><path d="M 2.796875 -2.125 C 2.796875 -4.6875 3.070312 -6.75 3.625 -8.3125 C 4.1875 -9.875 5.144531 -11.332031 6.5 -12.6875 C 7.851562 -14.039062 10.007812 -15.796875 12.96875 -17.953125 L 18.078125 -21.65625 C 19.953125 -23.03125 21.484375 -24.296875 22.671875 -25.453125 C 23.859375 -26.617188 24.789062 -27.882812 25.46875 -29.25 C 26.15625 -30.613281 26.5 -32.140625 26.5 -33.828125 C 26.5 -36.578125 25.769531 -38.648438 24.3125 -40.046875 C 22.851562 -41.441406 20.570312 -42.140625 17.46875 -42.140625 C 15.019531 -42.140625 12.84375 -41.566406 10.9375 -40.421875 C 9.03125 -39.285156 7.507812 -37.671875 6.375 -35.578125 L 5.640625 -35.453125 L 2.375 -38.875 C 3.9375 -41.40625 5.988281 -43.394531 8.53125 -44.84375 C 11.082031 -46.289062 14.0625 -47.015625 17.46875 -47.015625 C 20.769531 -47.015625 23.507812 -46.453125 25.6875 -45.328125 C 27.863281 -44.210938 29.46875 -42.664062 30.5 -40.6875 C 31.539062 -38.71875 32.0625 -36.429688 32.0625 -33.828125 C 32.0625 -31.753906 31.625 -29.816406 30.75 -28.015625 C 29.882812 -26.222656 28.660156 -24.535156 27.078125 -22.953125 C 25.492188 -21.367188 23.507812 -19.703125 21.125 -17.953125 L 15.953125 -14.171875 C 14.023438 -12.753906 12.539062 -11.546875 11.5 -10.546875 C 10.46875 -9.554688 9.710938 -8.59375 9.234375 -7.65625 C 8.765625 -6.71875 8.53125 -5.664062 8.53125 -4.5 L 32.0625 -4.5 L 32.0625 0 L 2.796875 0 Z M 2.796875 -2.125 "/></g></g></g><g fill="#000000" fill-opacity="1"><g transform="translate(260.985155, 219.614553)"><g><path d="M 22.796875 0.671875 C 19.390625 0.671875 16.332031 -0.144531 13.625 -1.78125 C 10.925781 -3.425781 8.769531 -6.03125 7.15625 -9.59375 C 5.550781 -13.15625 4.75 -17.679688 4.75 -23.171875 C 4.75 -28.671875 5.550781 -33.203125 7.15625 -36.765625 C 8.769531 -40.328125 10.925781 -42.925781 13.625 -44.5625 C 16.332031 -46.195312 19.390625 -47.015625 22.796875 -47.015625 C 26.203125 -47.015625 29.253906 -46.195312 31.953125 -44.5625 C 34.660156 -42.925781 36.8125 -40.328125 38.40625 -36.765625 C 40.007812 -33.203125 40.8125 -28.671875 40.8125 -23.171875 C 40.8125 -17.679688 40.007812 -13.15625 38.40625 -9.59375 C 36.8125 -6.03125 34.660156 -3.425781 31.953125 -1.78125 C 29.253906 -0.144531 26.203125 0.671875 22.796875 0.671875 Z M 22.796875 -4.375 C 26.835938 -4.375 29.894531 -5.828125 31.96875 -8.734375 C 34.050781 -11.640625 35.09375 -16.453125 35.09375 -23.171875 C 35.09375 -29.898438 34.050781 -34.71875 31.96875 -37.625 C 29.894531 -40.53125 26.835938 -41.984375 22.796875 -41.984375 C 20.128906 -41.984375 17.882812 -41.367188 16.0625 -40.140625 C 14.25 -38.910156 12.863281 -36.910156 11.90625 -34.140625 C 10.945312 -31.378906 10.46875 -27.722656 10.46875 -23.171875 C 10.46875 -18.628906 10.945312 -14.972656 11.90625 -12.203125 C 12.863281 -9.429688 14.25 -7.429688 16.0625 -6.203125 C 17.882812 -4.984375 20.128906 -4.375 22.796875 -4.375 Z M 22.796875 -4.375 "/></g></g></g><g fill="#000000" fill-opacity="1"><g transform="translate(306.544448, 219.614553)"><g><path d="M 2.796875 -2.125 C 2.796875 -4.6875 3.070312 -6.75 3.625 -8.3125 C 4.1875 -9.875 5.144531 -11.332031 6.5 -12.6875 C 7.851562 -14.039062 10.007812 -15.796875 12.96875 -17.953125 L 18.078125 -21.65625 C 19.953125 -23.03125 21.484375 -24.296875 22.671875 -25.453125 C 23.859375 -26.617188 24.789062 -27.882812 25.46875 -29.25 C 26.15625 -30.613281 26.5 -32.140625 26.5 -33.828125 C 26.5 -36.578125 25.769531 -38.648438 24.3125 -40.046875 C 22.851562 -41.441406 20.570312 -42.140625 17.46875 -42.140625 C 15.019531 -42.140625 12.84375 -41.566406 10.9375 -40.421875 C 9.03125 -39.285156 7.507812 -37.671875 6.375 -35.578125 L 5.640625 -35.453125 L 2.375 -38.875 C 3.9375 -41.40625 5.988281 -43.394531 8.53125 -44.84375 C 11.082031 -46.289062 14.0625 -47.015625 17.46875 -47.015625 C 20.769531 -47.015625 23.507812 -46.453125 25.6875 -45.328125 C 27.863281 -44.210938 29.46875 -42.664062 30.5 -40.6875 C 31.539062 -38.71875 32.0625 -36.429688 32.0625 -33.828125 C 32.0625 -31.753906 31.625 -29.816406 30.75 -28.015625 C 29.882812 -26.222656 28.660156 -24.535156 27.078125 -22.953125 C 25.492188 -21.367188 23.507812 -19.703125 21.125 -17.953125 L 15.953125 -14.171875 C 14.023438 -12.753906 12.539062 -11.546875 11.5 -10.546875 C 10.46875 -9.554688 9.710938 -8.59375 9.234375 -7.65625 C 8.765625 -6.71875 8.53125 -5.664062 8.53125 -4.5 L 32.0625 -4.5 L 32.0625 0 L 2.796875 0 Z M 2.796875 -2.125 "/></g></g></g><g fill="#000000" fill-opacity="1"><g transform="translate(342.155466, 219.614553)"><g><path d="M 3.296875 0 L 3.296875 -4.5 L 15.953125 -4.5 L 15.953125 -39.953125 L 15.21875 -40.140625 C 13.164062 -39.128906 11.367188 -38.351562 9.828125 -37.8125 C 8.285156 -37.269531 6.3125 -36.742188 3.90625 -36.234375 L 3.90625 -41.25 C 6.289062 -41.757812 8.648438 -42.445312 10.984375 -43.3125 C 13.316406 -44.175781 15.4375 -45.191406 17.34375 -46.359375 L 21.28125 -46.359375 L 21.28125 -4.5 L 32.59375 -4.5 L 32.59375 0 Z M 3.296875 0 "/></g></g></g><g fill="#000000" fill-opacity="1"><g transform="translate(376.689282, 219.614553)"><g/></g></g><g fill="#000000" fill-opacity="1"><g transform="translate(392.593847, 219.614553)"><g><path d="M 21.34375 -20.203125 L 3.296875 -20.203125 L 3.296875 -24.828125 L 21.34375 -24.828125 Z M 21.34375 -20.203125 "/></g></g></g><g fill="#000000" fill-opacity="1"><g transform="translate(417.17939, 219.614553)"><g/></g></g><g fill="#000000" fill-opacity="1"><g transform="translate(433.083955, 219.614553)"><g><path d="M 2.796875 -2.125 C 2.796875 -4.6875 3.070312 -6.75 3.625 -8.3125 C 4.1875 -9.875 5.144531 -11.332031 6.5 -12.6875 C 7.851562 -14.039062 10.007812 -15.796875 12.96875 -17.953125 L 18.078125 -21.65625 C 19.953125 -23.03125 21.484375 -24.296875 22.671875 -25.453125 C 23.859375 -26.617188 24.789062 -27.882812 25.46875 -29.25 C 26.15625 -30.613281 26.5 -32.140625 26.5 -33.828125 C 26.5 -36.578125 25.769531 -38.648438 24.3125 -40.046875 C 22.851562 -41.441406 20.570312 -42.140625 17.46875 -42.140625 C 15.019531 -42.140625 12.84375 -41.566406 10.9375 -40.421875 C 9.03125 -39.285156 7.507812 -37.671875 6.375 -35.578125 L 5.640625 -35.453125 L 2.375 -38.875 C 3.9375 -41.40625 5.988281 -43.394531 8.53125 -44.84375 C 11.082031 -46.289062 14.0625 -47.015625 17.46875 -47.015625 C 20.769531 -47.015625 23.507812 -46.453125 25.6875 -45.328125 C 27.863281 -44.210938 29.46875 -42.664062 30.5 -40.6875 C 31.539062 -38.71875 32.0625 -36.429688 32.0625 -33.828125 C 32.0625 -31.753906 31.625 -29.816406 30.75 -28.015625 C 29.882812 -26.222656 28.660156 -24.535156 27.078125 -22.953125 C 25.492188 -21.367188 23.507812 -19.703125 21.125 -17.953125 L 15.953125 -14.171875 C 14.023438 -12.753906 12.539062 -11.546875 11.5 -10.546875 C 10.46875 -9.554688 9.710938 -8.59375 9.234375 -7.65625 C 8.765625 -6.71875 8.53125 -5.664062 8.53125 -4.5 L 32.0625 -4.5 L 32.0625 0 L 2.796875 0 Z M 2.796875 -2.125 "/></g></g></g><g fill="#000000" fill-opacity="1"><g transform="translate(468.694973, 219.614553)"><g/></g></g><g fill="#000000" fill-opacity="1"><g transform="translate(484.599539, 219.614553)"><g><path d="M 6.09375 0 L 6.09375 -49.015625 L 11.25 -49.015625 L 11.25 -30 L 11.921875 -29.875 C 14.410156 -33.71875 18.015625 -35.640625 22.734375 -35.640625 C 26.941406 -35.640625 29.988281 -34.566406 31.875 -32.421875 C 33.769531 -30.273438 34.71875 -26.972656 34.71875 -22.515625 L 34.71875 0 L 29.546875 0 L 29.546875 -22.390625 C 29.546875 -24.503906 29.273438 -26.195312 28.734375 -27.46875 C 28.203125 -28.75 27.367188 -29.679688 26.234375 -30.265625 C 25.109375 -30.847656 23.625 -31.140625 21.78125 -31.140625 C 18.613281 -31.140625 16.066406 -30.113281 14.140625 -28.0625 C 12.210938 -26.007812 11.25 -22.640625 11.25 -17.953125 L 11.25 0 Z M 6.09375 0 "/></g></g></g><g fill="#000000" fill-opacity="1"><g transform="translate(524.836187, 219.614553)"><g><path d="M 20.078125 0.671875 C 16.773438 0.671875 13.898438 -0.0234375 11.453125 -1.421875 C 9.015625 -2.816406 7.132812 -4.875 5.8125 -7.59375 C 4.5 -10.3125 3.84375 -13.601562 3.84375 -17.46875 C 3.84375 -21.34375 4.5 -24.640625 5.8125 -27.359375 C 7.132812 -30.085938 9.015625 -32.148438 11.453125 -33.546875 C 13.898438 -34.941406 16.773438 -35.640625 20.078125 -35.640625 C 23.367188 -35.640625 26.234375 -34.941406 28.671875 -33.546875 C 31.117188 -32.148438 33.003906 -30.085938 34.328125 -27.359375 C 35.648438 -24.640625 36.3125 -21.34375 36.3125 -17.46875 C 36.3125 -13.601562 35.648438 -10.3125 34.328125 -7.59375 C 33.003906 -4.875 31.117188 -2.816406 28.671875 -1.421875 C 26.234375 -0.0234375 23.367188 0.671875 20.078125 0.671875 Z M 20.078125 -3.96875 C 23.554688 -3.96875 26.222656 -5.066406 28.078125 -7.265625 C 29.929688 -9.460938 30.859375 -12.863281 30.859375 -17.46875 C 30.859375 -22.101562 29.929688 -25.519531 28.078125 -27.71875 C 26.222656 -29.914062 23.554688 -31.015625 20.078125 -31.015625 C 16.585938 -31.015625 13.910156 -29.910156 12.046875 -27.703125 C 10.191406 -25.492188 9.265625 -22.082031 9.265625 -17.46875 C 9.265625 -12.863281 10.191406 -9.460938 12.046875 -7.265625 C 13.910156 -5.066406 16.585938 -3.96875 20.078125 -3.96875 Z M 20.078125 -3.96875 "/></g></g></g><g fill="#000000" fill-opacity="1"><g transform="translate(564.946106, 219.614553)"><g><path d="M 17.28125 0.671875 C 13.320312 0.671875 10.375 -0.375 8.4375 -2.46875 C 6.507812 -4.5625 5.546875 -7.628906 5.546875 -11.671875 L 5.546875 -34.96875 L 10.71875 -34.96875 L 10.71875 -11.796875 C 10.71875 -6.492188 13.210938 -3.84375 18.203125 -3.84375 C 21.367188 -3.84375 23.867188 -4.875 25.703125 -6.9375 C 27.546875 -9.007812 28.46875 -12.375 28.46875 -17.03125 L 28.46875 -34.96875 L 33.640625 -34.96875 L 33.640625 0 L 28.765625 0 L 28.765625 -5.484375 L 28.09375 -5.640625 C 26.882812 -3.503906 25.441406 -1.914062 23.765625 -0.875 C 22.085938 0.15625 19.925781 0.671875 17.28125 0.671875 Z M 17.28125 0.671875 "/></g></g></g><g fill="#000000" fill-opacity="1"><g transform="translate(604.644185, 219.614553)"><g><path d="M 6.09375 0 L 6.09375 -34.96875 L 11 -34.96875 L 11 -29.484375 L 11.671875 -29.328125 C 13.296875 -33.304688 16.359375 -35.296875 20.859375 -35.296875 C 23.253906 -35.296875 25.039062 -34.859375 26.21875 -33.984375 L 24.890625 -29.609375 L 24.25 -29.484375 C 22.945312 -30.140625 21.507812 -30.46875 19.9375 -30.46875 C 17.15625 -30.46875 15.007812 -29.421875 13.5 -27.328125 C 12 -25.234375 11.25 -21.84375 11.25 -17.15625 L 11.25 0 Z M 6.09375 0 "/></g></g></g><g fill="#000000" fill-opacity="1"><g transform="translate(631.63759, 219.614553)"><g><path d="M 15.953125 0.671875 C 13.753906 0.671875 11.71875 0.378906 9.84375 -0.203125 C 7.976562 -0.785156 6.398438 -1.582031 5.109375 -2.59375 C 3.816406 -3.613281 2.90625 -4.757812 2.375 -6.03125 L 5.421875 -9.1875 L 6.09375 -9.1875 C 7.226562 -7.457031 8.597656 -6.15625 10.203125 -5.28125 C 11.816406 -4.40625 13.734375 -3.96875 15.953125 -3.96875 C 18.523438 -3.96875 20.484375 -4.46875 21.828125 -5.46875 C 23.171875 -6.46875 23.84375 -7.867188 23.84375 -9.671875 C 23.84375 -11.046875 23.4375 -12.179688 22.625 -13.078125 C 21.8125 -13.972656 20.492188 -14.644531 18.671875 -15.09375 L 12.78125 -16.546875 C 9.625 -17.304688 7.320312 -18.507812 5.875 -20.15625 C 4.425781 -21.8125 3.703125 -23.851562 3.703125 -26.28125 C 3.703125 -28.1875 4.1875 -29.84375 5.15625 -31.25 C 6.132812 -32.65625 7.535156 -33.738281 9.359375 -34.5 C 11.191406 -35.257812 13.367188 -35.640625 15.890625 -35.640625 C 19.097656 -35.640625 21.625 -35.1875 23.46875 -34.28125 C 25.320312 -33.382812 26.769531 -32.132812 27.8125 -30.53125 L 24.890625 -27.6875 L 24.25 -27.6875 C 23.132812 -28.96875 21.914062 -29.894531 20.59375 -30.46875 C 19.269531 -31.039062 17.703125 -31.328125 15.890625 -31.328125 C 13.578125 -31.328125 11.804688 -30.914062 10.578125 -30.09375 C 9.359375 -29.269531 8.75 -28.070312 8.75 -26.5 C 8.75 -25.09375 9.179688 -23.953125 10.046875 -23.078125 C 10.910156 -22.210938 12.421875 -21.515625 14.578125 -20.984375 L 20.390625 -19.59375 C 23.429688 -18.875 25.628906 -17.675781 26.984375 -16 C 28.335938 -14.332031 29.015625 -12.242188 29.015625 -9.734375 C 29.015625 -7.679688 28.523438 -5.875 27.546875 -4.3125 C 26.578125 -2.75 25.109375 -1.523438 23.140625 -0.640625 C 21.179688 0.234375 18.785156 0.671875 15.953125 0.671875 Z M 15.953125 0.671875 "/></g></g></g></svg>