<svg xmlns="http://www.w3.org/2000/svg" xmlns:xlink="http://www.w3.org/1999/xlink" width="1620" zoomAndPan="magnify" viewBox="0 0 1215 809.999993" height="1080" preserveAspectRatio="xMidYMid meet" version="1.0"><defs><g/></defs><g fill="#000000" fill-opacity="1"><g transform="translate(0.00000525, 69.713092)"><g><path d="M 27.984375 -63.0625 C 34.847656 -63.0625 40.460938 -61.53125 44.828125 -58.46875 C 49.191406 -55.40625 51.488281 -50.671875 51.71875 -44.265625 L 39.15625 -43.75 C 38.75 -46.632812 37.691406 -48.851562 35.984375 -50.40625 C 34.285156 -51.96875 31.5625 -52.75 27.8125 -52.75 C 25.207031 -52.75 22.804688 -52.285156 20.609375 -51.359375 C 18.421875 -50.441406 17.328125 -48.859375 17.328125 -46.609375 C 17.328125 -44.703125 18.304688 -43.1875 20.265625 -42.0625 C 22.234375 -40.9375 25.726562 -39.796875 30.75 -38.640625 C 35.425781 -37.535156 39.28125 -36.363281 42.3125 -35.125 C 45.34375 -33.882812 47.957031 -31.890625 50.15625 -29.140625 C 52.351562 -26.398438 53.453125 -22.691406 53.453125 -18.015625 C 53.453125 -15.648438 52.898438 -13.140625 51.796875 -10.484375 C 50.703125 -7.828125 48.914062 -5.546875 46.4375 -3.640625 C 44.582031 -2.140625 42.140625 -0.984375 39.109375 -0.171875 C 36.078125 0.640625 32.570312 1.046875 28.59375 1.046875 C 20.851562 1.046875 14.898438 -0.695312 10.734375 -4.1875 C 6.578125 -7.6875 4.039062 -13.019531 3.125 -20.1875 L 15.25 -21.3125 C 16.570312 -13.394531 21.078125 -9.4375 28.765625 -9.4375 C 32.804688 -9.4375 35.847656 -10.285156 37.890625 -11.984375 C 39.941406 -13.691406 40.96875 -15.703125 40.96875 -18.015625 C 40.96875 -19.691406 40.460938 -21.019531 39.453125 -22 C 38.441406 -22.976562 36.851562 -23.828125 34.6875 -24.546875 C 32.519531 -25.273438 29.128906 -26.1875 24.515625 -27.28125 C 18.742188 -28.550781 14.109375 -30.6875 10.609375 -33.6875 C 7.117188 -36.695312 5.375 -40.710938 5.375 -45.734375 C 5.375 -48.453125 6.066406 -51.125 7.453125 -53.75 C 8.835938 -56.375 11.21875 -58.582031 14.59375 -60.375 C 17.96875 -62.164062 22.429688 -63.0625 27.984375 -63.0625 Z M 27.984375 -63.0625 "/></g></g></g><g fill="#000000" fill-opacity="1"><g transform="translate(57.761009, 69.713092)"><g><path d="M 30.921875 -45.90625 C 34.210938 -45.90625 37.285156 -45.007812 40.140625 -43.21875 C 43.003906 -41.4375 45.316406 -38.753906 47.078125 -35.171875 C 48.835938 -31.585938 49.71875 -27.195312 49.71875 -22 C 49.71875 -16.976562 48.863281 -12.734375 47.15625 -9.265625 C 45.457031 -5.804688 43.175781 -3.222656 40.3125 -1.515625 C 37.457031 0.191406 34.300781 1.046875 30.84375 1.046875 C 25.757812 1.046875 21.398438 -1.035156 17.765625 -5.203125 L 17.765625 17.0625 L 5.890625 17.0625 L 5.890625 -44.875 L 16.984375 -44.875 L 16.984375 -38.28125 L 17.15625 -38.28125 C 18.539062 -40.363281 20.457031 -42.15625 22.90625 -43.65625 C 25.363281 -45.15625 28.035156 -45.90625 30.921875 -45.90625 Z M 18.625 -29.109375 C 17.988281 -27.253906 17.671875 -24.710938 17.671875 -21.484375 C 17.671875 -17.035156 18.609375 -13.6875 20.484375 -11.4375 C 22.359375 -9.1875 24.742188 -8.0625 27.640625 -8.0625 C 31.160156 -8.0625 33.6875 -9.445312 35.21875 -12.21875 C 36.75 -14.988281 37.515625 -18.421875 37.515625 -22.515625 C 37.515625 -27.316406 36.601562 -30.84375 34.78125 -33.09375 C 32.957031 -35.34375 30.691406 -36.46875 27.984375 -36.46875 C 25.960938 -36.46875 24.097656 -35.832031 22.390625 -34.5625 C 20.691406 -33.289062 19.4375 -31.472656 18.625 -29.109375 Z M 18.625 -29.109375 "/></g></g></g><g fill="#000000" fill-opacity="1"><g transform="translate(110.672534, 69.713092)"><g><path d="M 18.109375 -51.015625 L 6.234375 -51.015625 L 6.234375 -62.03125 L 18.109375 -62.03125 Z M 18.109375 0 L 6.234375 0 L 6.234375 -44.875 L 18.109375 -44.875 Z M 18.109375 0 "/></g></g></g><g fill="#000000" fill-opacity="1"><g transform="translate(134.746831, 69.713092)"><g><path d="M 47.390625 -62.03125 L 47.390625 0 L 36.296875 0 L 36.296875 -6.578125 L 36.125 -6.578125 C 34.21875 -3.691406 31.976562 -1.695312 29.40625 -0.59375 C 26.832031 0.5 24.476562 1.046875 22.34375 1.046875 C 19.050781 1.046875 15.972656 0.148438 13.109375 -1.640625 C 10.253906 -3.429688 7.945312 -6.117188 6.1875 -9.703125 C 4.425781 -13.285156 3.546875 -17.675781 3.546875 -22.875 C 3.546875 -27.894531 4.394531 -32.132812 6.09375 -35.59375 C 7.800781 -39.0625 10.082031 -41.644531 12.9375 -43.34375 C 15.800781 -45.050781 18.96875 -45.90625 22.4375 -45.90625 C 27.519531 -45.90625 31.878906 -43.828125 35.515625 -39.671875 L 35.515625 -62.03125 Z M 15.765625 -22.34375 C 15.765625 -17.382812 16.703125 -13.820312 18.578125 -11.65625 C 20.453125 -9.488281 22.660156 -8.40625 25.203125 -8.40625 C 26.765625 -8.40625 28.335938 -8.804688 29.921875 -9.609375 C 31.515625 -10.421875 32.890625 -11.953125 34.046875 -14.203125 C 35.085938 -16.222656 35.609375 -19.285156 35.609375 -23.390625 C 35.609375 -27.722656 34.679688 -31.039062 32.828125 -33.34375 C 30.984375 -35.65625 28.554688 -36.8125 25.546875 -36.8125 L 25.125 -36.8125 C 21.769531 -36.644531 19.367188 -35.1875 17.921875 -32.4375 C 16.484375 -29.695312 15.765625 -26.332031 15.765625 -22.34375 Z M 15.765625 -22.34375 "/></g></g></g><g fill="#000000" fill-opacity="1"><g transform="translate(187.658356, 69.713092)"><g><path d="M 23.390625 -45.90625 C 30.546875 -45.90625 35.882812 -43.582031 39.40625 -38.9375 C 42.9375 -34.289062 44.703125 -27.664062 44.703125 -19.0625 L 14.90625 -19.0625 C 15.019531 -16.050781 15.898438 -13.460938 17.546875 -11.296875 C 19.191406 -9.140625 21.570312 -8.0625 24.6875 -8.0625 C 26.65625 -8.0625 28.257812 -8.566406 29.5 -9.578125 C 30.738281 -10.585938 31.644531 -12.160156 32.21875 -14.296875 L 44.09375 -12.296875 C 42.59375 -7.910156 40.164062 -4.585938 36.8125 -2.328125 C 33.46875 -0.078125 29.367188 1.046875 24.515625 1.046875 C 17.296875 1.046875 11.835938 -1.117188 8.140625 -5.453125 C 6.410156 -7.472656 5.082031 -10.015625 4.15625 -13.078125 C 3.226562 -16.140625 2.765625 -19.171875 2.765625 -22.171875 C 2.765625 -26.273438 3.5 -30.128906 4.96875 -33.734375 C 6.445312 -37.347656 8.726562 -40.28125 11.8125 -42.53125 C 14.90625 -44.78125 18.765625 -45.90625 23.390625 -45.90625 Z M 15.15625 -26.328125 L 32.921875 -26.328125 C 32.859375 -29.972656 31.945312 -32.628906 30.1875 -34.296875 C 28.425781 -35.972656 26.363281 -36.8125 24 -36.8125 C 21.226562 -36.8125 19.0625 -35.816406 17.5 -33.828125 C 15.9375 -31.835938 15.15625 -29.335938 15.15625 -26.328125 Z M 15.15625 -26.328125 "/></g></g></g><g fill="#000000" fill-opacity="1"><g transform="translate(235.80695, 69.713092)"><g><path d="M 27.03125 -45.90625 C 28.300781 -45.90625 29.640625 -45.703125 31.046875 -45.296875 C 32.460938 -44.898438 33.722656 -44.382812 34.828125 -43.75 L 31.09375 -33.34375 C 29.070312 -34.613281 27.222656 -35.25 25.546875 -35.25 C 23.296875 -35.25 21.59375 -34.484375 20.4375 -32.953125 C 19.289062 -31.429688 18.523438 -29.296875 18.140625 -26.546875 C 17.765625 -23.804688 17.578125 -20.15625 17.578125 -15.59375 L 17.578125 0 L 5.71875 0 L 5.71875 -44.875 L 16.71875 -44.875 L 16.71875 -38.546875 L 16.890625 -38.546875 C 18.335938 -40.972656 19.78125 -42.804688 21.21875 -44.046875 C 22.664062 -45.285156 24.601562 -45.90625 27.03125 -45.90625 Z M 27.03125 -45.90625 "/></g></g></g><g fill="#000000" fill-opacity="1"><g transform="translate(269.493657, 69.713092)"><g><path d="M 30.3125 -45.90625 C 36.144531 -45.90625 40.390625 -43.539062 43.046875 -38.8125 C 46.921875 -43.539062 51.484375 -45.90625 56.734375 -45.90625 C 61.703125 -45.90625 65.398438 -44.546875 67.828125 -41.828125 C 70.253906 -39.117188 71.46875 -35.050781 71.46875 -29.625 L 71.46875 0 L 59.59375 0 L 59.59375 -26.859375 C 59.59375 -30.085938 59.175781 -32.550781 58.34375 -34.25 C 57.507812 -35.957031 55.820312 -36.8125 53.28125 -36.8125 C 50.851562 -36.8125 48.898438 -35.972656 47.421875 -34.296875 C 45.953125 -32.628906 45.046875 -30.46875 44.703125 -27.8125 C 44.472656 -25.726562 44.359375 -23.878906 44.359375 -22.265625 L 44.359375 0 L 32.484375 0 L 32.484375 -26.421875 C 32.484375 -30.054688 32.09375 -32.695312 31.3125 -34.34375 C 30.53125 -35.988281 28.867188 -36.8125 26.328125 -36.8125 C 24.484375 -36.8125 22.820312 -36.320312 21.34375 -35.34375 C 19.875 -34.363281 18.851562 -33.003906 18.28125 -31.265625 C 17.582031 -29.191406 17.234375 -26.273438 17.234375 -22.515625 L 17.234375 0 L 5.375 0 L 5.375 -44.875 L 16.375 -44.875 L 16.546875 -38.8125 C 18.390625 -41.0625 20.335938 -42.804688 22.390625 -44.046875 C 24.441406 -45.285156 27.082031 -45.90625 30.3125 -45.90625 Z M 30.3125 -45.90625 "/></g></g></g><g fill="#000000" fill-opacity="1"><g transform="translate(346.479478, 69.713092)"><g><path d="M 23.390625 -45.90625 C 30.546875 -45.90625 35.882812 -43.582031 39.40625 -38.9375 C 42.9375 -34.289062 44.703125 -27.664062 44.703125 -19.0625 L 14.90625 -19.0625 C 15.019531 -16.050781 15.898438 -13.460938 17.546875 -11.296875 C 19.191406 -9.140625 21.570312 -8.0625 24.6875 -8.0625 C 26.65625 -8.0625 28.257812 -8.566406 29.5 -9.578125 C 30.738281 -10.585938 31.644531 -12.160156 32.21875 -14.296875 L 44.09375 -12.296875 C 42.59375 -7.910156 40.164062 -4.585938 36.8125 -2.328125 C 33.46875 -0.078125 29.367188 1.046875 24.515625 1.046875 C 17.296875 1.046875 11.835938 -1.117188 8.140625 -5.453125 C 6.410156 -7.472656 5.082031 -10.015625 4.15625 -13.078125 C 3.226562 -16.140625 2.765625 -19.171875 2.765625 -22.171875 C 2.765625 -26.273438 3.5 -30.128906 4.96875 -33.734375 C 6.445312 -37.347656 8.726562 -40.28125 11.8125 -42.53125 C 14.90625 -44.78125 18.765625 -45.90625 23.390625 -45.90625 Z M 15.15625 -26.328125 L 32.921875 -26.328125 C 32.859375 -29.972656 31.945312 -32.628906 30.1875 -34.296875 C 28.425781 -35.972656 26.363281 -36.8125 24 -36.8125 C 21.226562 -36.8125 19.0625 -35.816406 17.5 -33.828125 C 15.9375 -31.835938 15.15625 -29.335938 15.15625 -26.328125 Z M 15.15625 -26.328125 "/></g></g></g><g fill="#000000" fill-opacity="1"><g transform="translate(394.628072, 69.713092)"><g><path d="M 32.046875 -45.90625 C 34.703125 -45.90625 37.007812 -45.457031 38.96875 -44.5625 C 40.9375 -43.664062 42.5 -42.613281 43.65625 -41.40625 C 45.039062 -39.90625 45.945312 -38.128906 46.375 -36.078125 C 46.8125 -34.023438 47.03125 -31.757812 47.03125 -29.28125 L 47.03125 0 L 35.171875 0 L 35.171875 -24.515625 C 35.171875 -28.671875 34.707031 -31.757812 33.78125 -33.78125 C 32.851562 -35.800781 30.890625 -36.8125 27.890625 -36.8125 C 25.066406 -36.8125 22.875 -36.003906 21.3125 -34.390625 C 19.75 -32.773438 18.820312 -30.898438 18.53125 -28.765625 C 18.363281 -27.378906 18.234375 -26.132812 18.140625 -25.03125 C 18.054688 -23.9375 18.015625 -22.695312 18.015625 -21.3125 L 18.015625 0 L 6.15625 0 L 6.15625 -44.875 L 17.40625 -44.875 L 17.40625 -38.28125 C 18.675781 -40.1875 20.566406 -41.929688 23.078125 -43.515625 C 25.597656 -45.109375 28.585938 -45.90625 32.046875 -45.90625 Z M 32.046875 -45.90625 "/></g></g></g><g fill="#000000" fill-opacity="1"><g transform="translate(447.539597, 69.713092)"><g/></g></g><g fill="#000000" fill-opacity="1"><g transform="translate(471.613894, 69.713092)"><g><path d="M 26.59375 -45.90625 C 31.445312 -45.90625 35.632812 -44.804688 39.15625 -42.609375 C 42.675781 -40.421875 45.332031 -37.535156 47.125 -33.953125 C 48.914062 -30.378906 49.8125 -26.597656 49.8125 -22.609375 C 49.8125 -18.453125 48.867188 -14.566406 46.984375 -10.953125 C 45.109375 -7.347656 42.425781 -4.445312 38.9375 -2.25 C 35.445312 -0.0507812 31.363281 1.046875 26.6875 1.046875 C 22.695312 1.046875 18.941406 0.222656 15.421875 -1.421875 C 11.898438 -3.066406 9.023438 -5.691406 6.796875 -9.296875 C 4.578125 -12.910156 3.46875 -17.492188 3.46875 -23.046875 C 3.46875 -26.910156 4.347656 -30.585938 6.109375 -34.078125 C 7.867188 -37.578125 10.492188 -40.421875 13.984375 -42.609375 C 17.484375 -44.804688 21.6875 -45.90625 26.59375 -45.90625 Z M 15.671875 -22.4375 C 15.671875 -17.925781 16.722656 -14.5 18.828125 -12.15625 C 20.941406 -9.820312 23.53125 -8.65625 26.59375 -8.65625 C 29.65625 -8.65625 32.253906 -9.8125 34.390625 -12.125 C 36.523438 -14.4375 37.59375 -17.898438 37.59375 -22.515625 C 37.59375 -26.796875 36.566406 -30.144531 34.515625 -32.5625 C 32.460938 -34.988281 29.789062 -36.203125 26.5 -36.203125 C 23.5 -36.203125 20.941406 -35.019531 18.828125 -32.65625 C 16.722656 -30.289062 15.671875 -26.882812 15.671875 -22.4375 Z M 15.671875 -22.4375 "/></g></g></g><g fill="#000000" fill-opacity="1"><g transform="translate(524.52542, 69.713092)"><g><path d="M 32.046875 -45.90625 C 34.703125 -45.90625 37.007812 -45.457031 38.96875 -44.5625 C 40.9375 -43.664062 42.5 -42.613281 43.65625 -41.40625 C 45.039062 -39.90625 45.945312 -38.128906 46.375 -36.078125 C 46.8125 -34.023438 47.03125 -31.757812 47.03125 -29.28125 L 47.03125 0 L 35.171875 0 L 35.171875 -24.515625 C 35.171875 -28.671875 34.707031 -31.757812 33.78125 -33.78125 C 32.851562 -35.800781 30.890625 -36.8125 27.890625 -36.8125 C 25.066406 -36.8125 22.875 -36.003906 21.3125 -34.390625 C 19.75 -32.773438 18.820312 -30.898438 18.53125 -28.765625 C 18.363281 -27.378906 18.234375 -26.132812 18.140625 -25.03125 C 18.054688 -23.9375 18.015625 -22.695312 18.015625 -21.3125 L 18.015625 0 L 6.15625 0 L 6.15625 -44.875 L 17.40625 -44.875 L 17.40625 -38.28125 C 18.675781 -40.1875 20.566406 -41.929688 23.078125 -43.515625 C 25.597656 -45.109375 28.585938 -45.90625 32.046875 -45.90625 Z M 32.046875 -45.90625 "/></g></g></g><g fill="#000000" fill-opacity="1"><g transform="translate(577.436945, 69.713092)"><g/></g></g><g fill="#000000" fill-opacity="1"><g transform="translate(601.511242, 69.713092)"><g><path d="M 18.71875 -44.875 L 26.765625 -44.875 L 26.765625 -35.421875 L 18.71875 -35.421875 L 18.71875 -15.671875 C 18.71875 -13.773438 18.785156 -12.363281 18.921875 -11.4375 C 19.066406 -10.507812 19.367188 -9.84375 19.828125 -9.4375 C 20.296875 -9.03125 21.019531 -8.828125 22 -8.828125 C 23.21875 -8.828125 24.804688 -9.207031 26.765625 -9.96875 L 27.8125 -0.78125 C 26.59375 -0.195312 25.117188 0.25 23.390625 0.5625 C 21.660156 0.882812 20.015625 1.046875 18.453125 1.046875 C 16.203125 1.046875 14.207031 0.671875 12.46875 -0.078125 C 10.738281 -0.835938 9.46875 -1.851562 8.65625 -3.125 C 7.789062 -4.5625 7.253906 -6.160156 7.046875 -7.921875 C 6.847656 -9.679688 6.75 -11.890625 6.75 -14.546875 L 6.75 -35.421875 L 1.296875 -35.421875 L 1.296875 -44.875 L 6.75 -44.875 L 6.75 -53.796875 L 18.71875 -60.8125 Z M 18.71875 -44.875 "/></g></g></g><g fill="#000000" fill-opacity="1"><g transform="translate(630.34847, 69.713092)"><g><path d="M 18.015625 -39.15625 C 20.035156 -41.519531 22.15625 -43.234375 24.375 -44.296875 C 26.601562 -45.367188 29.019531 -45.90625 31.625 -45.90625 C 34.101562 -45.90625 36.304688 -45.53125 38.234375 -44.78125 C 40.171875 -44.03125 41.773438 -43.050781 43.046875 -41.84375 C 45.648438 -39.300781 46.953125 -34.625 46.953125 -27.8125 L 46.953125 0 L 35.078125 0 L 35.078125 -25.296875 C 35.078125 -28.003906 34.90625 -30.164062 34.5625 -31.78125 C 34.21875 -33.40625 33.523438 -34.648438 32.484375 -35.515625 C 31.441406 -36.378906 29.851562 -36.8125 27.71875 -36.8125 C 23.96875 -36.8125 21.410156 -35.597656 20.046875 -33.171875 C 18.691406 -30.753906 18.015625 -27.519531 18.015625 -23.46875 L 18.015625 0 L 6.15625 0 L 6.15625 -62.03125 L 18.015625 -62.03125 Z M 18.015625 -39.15625 "/></g></g></g><g fill="#000000" fill-opacity="1"><g transform="translate(683.259996, 69.713092)"><g><path d="M 23.390625 -45.90625 C 30.546875 -45.90625 35.882812 -43.582031 39.40625 -38.9375 C 42.9375 -34.289062 44.703125 -27.664062 44.703125 -19.0625 L 14.90625 -19.0625 C 15.019531 -16.050781 15.898438 -13.460938 17.546875 -11.296875 C 19.191406 -9.140625 21.570312 -8.0625 24.6875 -8.0625 C 26.65625 -8.0625 28.257812 -8.566406 29.5 -9.578125 C 30.738281 -10.585938 31.644531 -12.160156 32.21875 -14.296875 L 44.09375 -12.296875 C 42.59375 -7.910156 40.164062 -4.585938 36.8125 -2.328125 C 33.46875 -0.078125 29.367188 1.046875 24.515625 1.046875 C 17.296875 1.046875 11.835938 -1.117188 8.140625 -5.453125 C 6.410156 -7.472656 5.082031 -10.015625 4.15625 -13.078125 C 3.226562 -16.140625 2.765625 -19.171875 2.765625 -22.171875 C 2.765625 -26.273438 3.5 -30.128906 4.96875 -33.734375 C 6.445312 -37.347656 8.726562 -40.28125 11.8125 -42.53125 C 14.90625 -44.78125 18.765625 -45.90625 23.390625 -45.90625 Z M 15.15625 -26.328125 L 32.921875 -26.328125 C 32.859375 -29.972656 31.945312 -32.628906 30.1875 -34.296875 C 28.425781 -35.972656 26.363281 -36.8125 24 -36.8125 C 21.226562 -36.8125 19.0625 -35.816406 17.5 -33.828125 C 15.9375 -31.835938 15.15625 -29.335938 15.15625 -26.328125 Z M 15.15625 -26.328125 "/></g></g></g><g fill="#000000" fill-opacity="1"><g transform="translate(731.40859, 69.713092)"><g/></g></g><g fill="#000000" fill-opacity="1"><g transform="translate(755.482887, 69.713092)"><g><path d="M 27.984375 -63.0625 C 34.847656 -63.0625 40.460938 -61.53125 44.828125 -58.46875 C 49.191406 -55.40625 51.488281 -50.671875 51.71875 -44.265625 L 39.15625 -43.75 C 38.75 -46.632812 37.691406 -48.851562 35.984375 -50.40625 C 34.285156 -51.96875 31.5625 -52.75 27.8125 -52.75 C 25.207031 -52.75 22.804688 -52.285156 20.609375 -51.359375 C 18.421875 -50.441406 17.328125 -48.859375 17.328125 -46.609375 C 17.328125 -44.703125 18.304688 -43.1875 20.265625 -42.0625 C 22.234375 -40.9375 25.726562 -39.796875 30.75 -38.640625 C 35.425781 -37.535156 39.28125 -36.363281 42.3125 -35.125 C 45.34375 -33.882812 47.957031 -31.890625 50.15625 -29.140625 C 52.351562 -26.398438 53.453125 -22.691406 53.453125 -18.015625 C 53.453125 -15.648438 52.898438 -13.140625 51.796875 -10.484375 C 50.703125 -7.828125 48.914062 -5.546875 46.4375 -3.640625 C 44.582031 -2.140625 42.140625 -0.984375 39.109375 -0.171875 C 36.078125 0.640625 32.570312 1.046875 28.59375 1.046875 C 20.851562 1.046875 14.898438 -0.695312 10.734375 -4.1875 C 6.578125 -7.6875 4.039062 -13.019531 3.125 -20.1875 L 15.25 -21.3125 C 16.570312 -13.394531 21.078125 -9.4375 28.765625 -9.4375 C 32.804688 -9.4375 35.847656 -10.285156 37.890625 -11.984375 C 39.941406 -13.691406 40.96875 -15.703125 40.96875 -18.015625 C 40.96875 -19.691406 40.460938 -21.019531 39.453125 -22 C 38.441406 -22.976562 36.851562 -23.828125 34.6875 -24.546875 C 32.519531 -25.273438 29.128906 -26.1875 24.515625 -27.28125 C 18.742188 -28.550781 14.109375 -30.6875 10.609375 -33.6875 C 7.117188 -36.695312 5.375 -40.710938 5.375 -45.734375 C 5.375 -48.453125 6.066406 -51.125 7.453125 -53.75 C 8.835938 -56.375 11.21875 -58.582031 14.59375 -60.375 C 17.96875 -62.164062 22.429688 -63.0625 27.984375 -63.0625 Z M 27.984375 -63.0625 "/></g></g></g><g fill="#000000" fill-opacity="1"><g transform="translate(813.24389, 69.713092)"><g><path d="M 18.71875 -44.875 L 26.765625 -44.875 L 26.765625 -35.421875 L 18.71875 -35.421875 L 18.71875 -15.671875 C 18.71875 -13.773438 18.785156 -12.363281 18.921875 -11.4375 C 19.066406 -10.507812 19.367188 -9.84375 19.828125 -9.4375 C 20.296875 -9.03125 21.019531 -8.828125 22 -8.828125 C 23.21875 -8.828125 24.804688 -9.207031 26.765625 -9.96875 L 27.8125 -0.78125 C 26.59375 -0.195312 25.117188 0.25 23.390625 0.5625 C 21.660156 0.882812 20.015625 1.046875 18.453125 1.046875 C 16.203125 1.046875 14.207031 0.671875 12.46875 -0.078125 C 10.738281 -0.835938 9.46875 -1.851562 8.65625 -3.125 C 7.789062 -4.5625 7.253906 -6.160156 7.046875 -7.921875 C 6.847656 -9.679688 6.75 -11.890625 6.75 -14.546875 L 6.75 -35.421875 L 1.296875 -35.421875 L 1.296875 -44.875 L 6.75 -44.875 L 6.75 -53.796875 L 18.71875 -60.8125 Z M 18.71875 -44.875 "/></g></g></g><g fill="#000000" fill-opacity="1"><g transform="translate(842.081119, 69.713092)"><g><path d="M 23.734375 -45.90625 C 29.453125 -45.90625 33.695312 -45.171875 36.46875 -43.703125 C 39.238281 -42.234375 40.984375 -40.296875 41.703125 -37.890625 C 42.429688 -35.492188 42.765625 -32.332031 42.703125 -28.40625 L 42.625 -15.328125 C 42.5625 -11.234375 42.703125 -8.257812 43.046875 -6.40625 C 43.398438 -4.5625 44.125 -2.425781 45.21875 0 L 33.53125 0 C 33.238281 -0.632812 32.71875 -2.28125 31.96875 -4.9375 C 29.832031 -2.851562 27.625 -1.332031 25.34375 -0.375 C 23.0625 0.570312 20.617188 1.046875 18.015625 1.046875 C 13.566406 1.046875 9.972656 -0.179688 7.234375 -2.640625 C 4.492188 -5.097656 3.125 -8.289062 3.125 -12.21875 C 3.125 -15.507812 3.945312 -18.117188 5.59375 -20.046875 C 7.238281 -21.984375 9.242188 -23.382812 11.609375 -24.25 C 13.972656 -25.113281 16.773438 -25.863281 20.015625 -26.5 C 24.972656 -27.425781 28.640625 -28.351562 31.015625 -29.28125 L 31.015625 -31.1875 C 31.015625 -33.144531 30.4375 -34.570312 29.28125 -35.46875 C 28.125 -36.363281 26.015625 -36.8125 22.953125 -36.8125 C 20.585938 -36.8125 18.828125 -36.332031 17.671875 -35.375 C 16.515625 -34.425781 15.648438 -33.03125 15.078125 -31.1875 L 4.328125 -33.171875 C 5.484375 -37.566406 7.5625 -40.785156 10.5625 -42.828125 C 13.570312 -44.878906 17.960938 -45.90625 23.734375 -45.90625 Z M 23.5625 -19.65625 L 21.5625 -19.234375 C 17.175781 -18.304688 14.984375 -16.398438 14.984375 -13.515625 C 14.984375 -11.785156 15.601562 -10.328125 16.84375 -9.140625 C 18.09375 -7.953125 19.664062 -7.359375 21.5625 -7.359375 C 23.125 -7.359375 24.6875 -7.757812 26.25 -8.5625 C 27.8125 -9.375 29.023438 -10.445312 29.890625 -11.78125 C 30.640625 -12.988281 31.015625 -15.066406 31.015625 -18.015625 L 31.015625 -21.5625 C 28.765625 -20.875 26.28125 -20.238281 23.5625 -19.65625 Z M 23.5625 -19.65625 "/></g></g></g><g fill="#000000" fill-opacity="1"><g transform="translate(890.229713, 69.713092)"><g><path d="M 18.71875 -44.875 L 26.765625 -44.875 L 26.765625 -35.421875 L 18.71875 -35.421875 L 18.71875 -15.671875 C 18.71875 -13.773438 18.785156 -12.363281 18.921875 -11.4375 C 19.066406 -10.507812 19.367188 -9.84375 19.828125 -9.4375 C 20.296875 -9.03125 21.019531 -8.828125 22 -8.828125 C 23.21875 -8.828125 24.804688 -9.207031 26.765625 -9.96875 L 27.8125 -0.78125 C 26.59375 -0.195312 25.117188 0.25 23.390625 0.5625 C 21.660156 0.882812 20.015625 1.046875 18.453125 1.046875 C 16.203125 1.046875 14.207031 0.671875 12.46875 -0.078125 C 10.738281 -0.835938 9.46875 -1.851562 8.65625 -3.125 C 7.789062 -4.5625 7.253906 -6.160156 7.046875 -7.921875 C 6.847656 -9.679688 6.75 -11.890625 6.75 -14.546875 L 6.75 -35.421875 L 1.296875 -35.421875 L 1.296875 -44.875 L 6.75 -44.875 L 6.75 -53.796875 L 18.71875 -60.8125 Z M 18.71875 -44.875 "/></g></g></g><g fill="#000000" fill-opacity="1"><g transform="translate(919.066941, 69.713092)"><g><path d="M 17.84375 -21.828125 C 17.84375 -18.648438 17.914062 -16.335938 18.0625 -14.890625 C 18.207031 -13.453125 18.507812 -12.300781 18.96875 -11.4375 C 19.488281 -10.457031 20.28125 -9.648438 21.34375 -9.015625 C 22.414062 -8.378906 23.734375 -8.0625 25.296875 -8.0625 C 27.367188 -8.0625 29.242188 -8.632812 30.921875 -9.78125 C 32.597656 -10.9375 33.664062 -12.351562 34.125 -14.03125 C 34.644531 -15.707031 34.90625 -19.289062 34.90625 -24.78125 L 34.90625 -44.875 L 46.78125 -44.875 L 46.78125 0 L 35.78125 0 L 35.78125 -6.75 L 35.609375 -6.75 C 33.929688 -4.207031 31.765625 -2.269531 29.109375 -0.9375 C 26.453125 0.382812 23.707031 1.046875 20.875 1.046875 C 18.332031 1.046875 15.921875 0.523438 13.640625 -0.515625 C 11.359375 -1.554688 9.613281 -3.0625 8.40625 -5.03125 C 7.539062 -6.414062 6.921875 -7.941406 6.546875 -9.609375 C 6.171875 -11.285156 5.984375 -13.394531 5.984375 -15.9375 L 5.984375 -44.875 L 17.84375 -44.875 Z M 17.84375 -21.828125 "/></g></g></g><g fill="#000000" fill-opacity="1"><g transform="translate(971.978466, 69.713092)"><g><path d="M 23.390625 -45.90625 C 30.546875 -45.90625 35.882812 -43.582031 39.40625 -38.9375 C 42.9375 -34.289062 44.703125 -27.664062 44.703125 -19.0625 L 14.90625 -19.0625 C 15.019531 -16.050781 15.898438 -13.460938 17.546875 -11.296875 C 19.191406 -9.140625 21.570312 -8.0625 24.6875 -8.0625 C 26.65625 -8.0625 28.257812 -8.566406 29.5 -9.578125 C 30.738281 -10.585938 31.644531 -12.160156 32.21875 -14.296875 L 44.09375 -12.296875 C 42.59375 -7.910156 40.164062 -4.585938 36.8125 -2.328125 C 33.46875 -0.078125 29.367188 1.046875 24.515625 1.046875 C 17.296875 1.046875 11.835938 -1.117188 8.140625 -5.453125 C 6.410156 -7.472656 5.082031 -10.015625 4.15625 -13.078125 C 3.226562 -16.140625 2.765625 -19.171875 2.765625 -22.171875 C 2.765625 -26.273438 3.5 -30.128906 4.96875 -33.734375 C 6.445312 -37.347656 8.726562 -40.28125 11.8125 -42.53125 C 14.90625 -44.78125 18.765625 -45.90625 23.390625 -45.90625 Z M 15.15625 -26.328125 L 32.921875 -26.328125 C 32.859375 -29.972656 31.945312 -32.628906 30.1875 -34.296875 C 28.425781 -35.972656 26.363281 -36.8125 24 -36.8125 C 21.226562 -36.8125 19.0625 -35.816406 17.5 -33.828125 C 15.9375 -31.835938 15.15625 -29.335938 15.15625 -26.328125 Z M 15.15625 -26.328125 "/></g></g></g><g fill="#000000" fill-opacity="1"><g transform="translate(1020.12706, 69.713092)"><g/></g></g><g fill="#000000" fill-opacity="1"><g transform="translate(1044.201357, 69.713092)"><g><path d="M 26.59375 -45.90625 C 31.445312 -45.90625 35.632812 -44.804688 39.15625 -42.609375 C 42.675781 -40.421875 45.332031 -37.535156 47.125 -33.953125 C 48.914062 -30.378906 49.8125 -26.597656 49.8125 -22.609375 C 49.8125 -18.453125 48.867188 -14.566406 46.984375 -10.953125 C 45.109375 -7.347656 42.425781 -4.445312 38.9375 -2.25 C 35.445312 -0.0507812 31.363281 1.046875 26.6875 1.046875 C 22.695312 1.046875 18.941406 0.222656 15.421875 -1.421875 C 11.898438 -3.066406 9.023438 -5.691406 6.796875 -9.296875 C 4.578125 -12.910156 3.46875 -17.492188 3.46875 -23.046875 C 3.46875 -26.910156 4.347656 -30.585938 6.109375 -34.078125 C 7.867188 -37.578125 10.492188 -40.421875 13.984375 -42.609375 C 17.484375 -44.804688 21.6875 -45.90625 26.59375 -45.90625 Z M 15.671875 -22.4375 C 15.671875 -17.925781 16.722656 -14.5 18.828125 -12.15625 C 20.941406 -9.820312 23.53125 -8.65625 26.59375 -8.65625 C 29.65625 -8.65625 32.253906 -9.8125 34.390625 -12.125 C 36.523438 -14.4375 37.59375 -17.898438 37.59375 -22.515625 C 37.59375 -26.796875 36.566406 -30.144531 34.515625 -32.5625 C 32.460938 -34.988281 29.789062 -36.203125 26.5 -36.203125 C 23.5 -36.203125 20.941406 -35.019531 18.828125 -32.65625 C 16.722656 -30.289062 15.671875 -26.882812 15.671875 -22.4375 Z M 15.671875 -22.4375 "/></g></g></g><g fill="#000000" fill-opacity="1"><g transform="translate(1097.112882, 69.713092)"><g><path d="M 10.140625 -58.8125 C 11.296875 -60.257812 12.796875 -61.328125 14.640625 -62.015625 C 16.484375 -62.710938 18.765625 -63.0625 21.484375 -63.0625 C 24.828125 -63.0625 28.117188 -62.570312 31.359375 -61.59375 L 29.796875 -53.28125 C 27.773438 -53.738281 25.957031 -53.96875 24.34375 -53.96875 C 22.488281 -53.96875 21.210938 -53.519531 20.515625 -52.625 C 19.828125 -51.726562 19.484375 -50.414062 19.484375 -48.6875 L 19.484375 -44.875 L 28.40625 -44.875 L 28.40625 -35.421875 L 19.484375 -35.421875 L 19.484375 0 L 7.625 0 L 7.625 -35.421875 L 1.046875 -35.421875 L 1.046875 -44.875 L 7.625 -44.875 L 7.625 -49.296875 C 7.625 -53.566406 8.460938 -56.738281 10.140625 -58.8125 Z M 10.140625 -58.8125 "/></g></g></g><g fill="#000000" fill-opacity="1"><g transform="translate(0.00000525, 146.689518)"><g><path d="M 19.140625 -10.484375 L 50.328125 -10.484375 L 50.328125 0 L 6.671875 0 L 6.671875 -62.03125 L 19.140625 -62.03125 Z M 19.140625 -10.484375 "/></g></g></g><g fill="#000000" fill-opacity="1"><g transform="translate(52.911531, 146.689518)"><g><path d="M 18.109375 -51.015625 L 6.234375 -51.015625 L 6.234375 -62.03125 L 18.109375 -62.03125 Z M 18.109375 0 L 6.234375 0 L 6.234375 -44.875 L 18.109375 -44.875 Z M 18.109375 0 "/></g></g></g><g fill="#000000" fill-opacity="1"><g transform="translate(76.985828, 146.689518)"><g><path d="M 17.578125 -39.671875 C 21.222656 -43.828125 25.585938 -45.90625 30.671875 -45.90625 C 34.128906 -45.90625 37.285156 -45.050781 40.140625 -43.34375 C 43.003906 -41.644531 45.285156 -39.0625 46.984375 -35.59375 C 48.691406 -32.132812 49.546875 -27.894531 49.546875 -22.875 C 49.546875 -17.675781 48.664062 -13.285156 46.90625 -9.703125 C 45.144531 -6.117188 42.832031 -3.429688 39.96875 -1.640625 C 37.113281 0.148438 34.039062 1.046875 30.75 1.046875 C 28.5 1.046875 26.085938 0.441406 23.515625 -0.765625 C 20.941406 -1.984375 18.707031 -3.921875 16.8125 -6.578125 L 16.8125 0 L 5.71875 0 L 5.71875 -62.03125 L 17.578125 -62.03125 Z M 17.5 -23.390625 C 17.5 -20.785156 17.6875 -18.660156 18.0625 -17.015625 C 18.4375 -15.367188 19.054688 -13.941406 19.921875 -12.734375 C 22.003906 -9.847656 24.660156 -8.40625 27.890625 -8.40625 C 30.429688 -8.40625 32.640625 -9.5 34.515625 -11.6875 C 36.390625 -13.882812 37.328125 -17.4375 37.328125 -22.34375 C 37.328125 -26.738281 36.535156 -30.25 34.953125 -32.875 C 33.367188 -35.5 30.84375 -36.8125 27.375 -36.8125 C 24.488281 -36.8125 22.117188 -35.671875 20.265625 -33.390625 C 18.421875 -31.109375 17.5 -27.773438 17.5 -23.390625 Z M 17.5 -23.390625 "/></g></g></g><g fill="#000000" fill-opacity="1"><g transform="translate(129.897353, 146.689518)"><g><path d="M 23.390625 -45.90625 C 30.546875 -45.90625 35.882812 -43.582031 39.40625 -38.9375 C 42.9375 -34.289062 44.703125 -27.664062 44.703125 -19.0625 L 14.90625 -19.0625 C 15.019531 -16.050781 15.898438 -13.460938 17.546875 -11.296875 C 19.191406 -9.140625 21.570312 -8.0625 24.6875 -8.0625 C 26.65625 -8.0625 28.257812 -8.566406 29.5 -9.578125 C 30.738281 -10.585938 31.644531 -12.160156 32.21875 -14.296875 L 44.09375 -12.296875 C 42.59375 -7.910156 40.164062 -4.585938 36.8125 -2.328125 C 33.46875 -0.078125 29.367188 1.046875 24.515625 1.046875 C 17.296875 1.046875 11.835938 -1.117188 8.140625 -5.453125 C 6.410156 -7.472656 5.082031 -10.015625 4.15625 -13.078125 C 3.226562 -16.140625 2.765625 -19.171875 2.765625 -22.171875 C 2.765625 -26.273438 3.5 -30.128906 4.96875 -33.734375 C 6.445312 -37.347656 8.726562 -40.28125 11.8125 -42.53125 C 14.90625 -44.78125 18.765625 -45.90625 23.390625 -45.90625 Z M 15.15625 -26.328125 L 32.921875 -26.328125 C 32.859375 -29.972656 31.945312 -32.628906 30.1875 -34.296875 C 28.425781 -35.972656 26.363281 -36.8125 24 -36.8125 C 21.226562 -36.8125 19.0625 -35.816406 17.5 -33.828125 C 15.9375 -31.835938 15.15625 -29.335938 15.15625 -26.328125 Z M 15.15625 -26.328125 "/></g></g></g><g fill="#000000" fill-opacity="1"><g transform="translate(178.045947, 146.689518)"><g><path d="M 27.03125 -45.90625 C 28.300781 -45.90625 29.640625 -45.703125 31.046875 -45.296875 C 32.460938 -44.898438 33.722656 -44.382812 34.828125 -43.75 L 31.09375 -33.34375 C 29.070312 -34.613281 27.222656 -35.25 25.546875 -35.25 C 23.296875 -35.25 21.59375 -34.484375 20.4375 -32.953125 C 19.289062 -31.429688 18.523438 -29.296875 18.140625 -26.546875 C 17.765625 -23.804688 17.578125 -20.15625 17.578125 -15.59375 L 17.578125 0 L 5.71875 0 L 5.71875 -44.875 L 16.71875 -44.875 L 16.71875 -38.546875 L 16.890625 -38.546875 C 18.335938 -40.972656 19.78125 -42.804688 21.21875 -44.046875 C 22.664062 -45.285156 24.601562 -45.90625 27.03125 -45.90625 Z M 27.03125 -45.90625 "/></g></g></g><g fill="#000000" fill-opacity="1"><g transform="translate(211.732653, 146.689518)"><g><path d="M 18.71875 -44.875 L 26.765625 -44.875 L 26.765625 -35.421875 L 18.71875 -35.421875 L 18.71875 -15.671875 C 18.71875 -13.773438 18.785156 -12.363281 18.921875 -11.4375 C 19.066406 -10.507812 19.367188 -9.84375 19.828125 -9.4375 C 20.296875 -9.03125 21.019531 -8.828125 22 -8.828125 C 23.21875 -8.828125 24.804688 -9.207031 26.765625 -9.96875 L 27.8125 -0.78125 C 26.59375 -0.195312 25.117188 0.25 23.390625 0.5625 C 21.660156 0.882812 20.015625 1.046875 18.453125 1.046875 C 16.203125 1.046875 14.207031 0.671875 12.46875 -0.078125 C 10.738281 -0.835938 9.46875 -1.851562 8.65625 -3.125 C 7.789062 -4.5625 7.253906 -6.160156 7.046875 -7.921875 C 6.847656 -9.679688 6.75 -11.890625 6.75 -14.546875 L 6.75 -35.421875 L 1.296875 -35.421875 L 1.296875 -44.875 L 6.75 -44.875 L 6.75 -53.796875 L 18.71875 -60.8125 Z M 18.71875 -44.875 "/></g></g></g><g fill="#000000" fill-opacity="1"><g transform="translate(240.569882, 146.689518)"><g><path d="M 23.90625 -13 L 24.078125 -13 L 34.484375 -44.875 L 46.78125 -44.875 L 30.921875 -1.640625 L 29.890625 1.390625 C 28.390625 5.597656 27.046875 8.785156 25.859375 10.953125 C 24.671875 13.117188 22.9375 14.863281 20.65625 16.1875 C 18.375 17.519531 15.242188 18.1875 11.265625 18.1875 C 8.890625 18.1875 6.632812 17.957031 4.5 17.5 L 3.46875 8.234375 C 5.488281 8.578125 7.132812 8.75 8.40625 8.75 C 10.882812 8.75 12.800781 8.097656 14.15625 6.796875 C 15.519531 5.492188 16.691406 3.257812 17.671875 0.09375 L 0.609375 -44.875 L 13.25 -44.875 Z M 23.90625 -13 "/></g></g></g><g fill="#000000" fill-opacity="1"><g transform="translate(0.00000525, 296.590979)"><g><path d="M 22.796875 0.671875 C 19.390625 0.671875 16.332031 -0.144531 13.625 -1.78125 C 10.925781 -3.425781 8.769531 -6.03125 7.15625 -9.59375 C 5.550781 -13.15625 4.75 -17.679688 4.75 -23.171875 C 4.75 -28.671875 5.550781 -33.203125 7.15625 -36.765625 C 8.769531 -40.328125 10.925781 -42.925781 13.625 -44.5625 C 16.332031 -46.195312 19.390625 -47.015625 22.796875 -47.015625 C 26.203125 -47.015625 29.253906 -46.195312 31.953125 -44.5625 C 34.660156 -42.925781 36.8125 -40.328125 38.40625 -36.765625 C 40.007812 -33.203125 40.8125 -28.671875 40.8125 -23.171875 C 40.8125 -17.679688 40.007812 -13.15625 38.40625 -9.59375 C 36.8125 -6.03125 34.660156 -3.425781 31.953125 -1.78125 C 29.253906 -0.144531 26.203125 0.671875 22.796875 0.671875 Z M 22.796875 -4.375 C 26.835938 -4.375 29.894531 -5.828125 31.96875 -8.734375 C 34.050781 -11.640625 35.09375 -16.453125 35.09375 -23.171875 C 35.09375 -29.898438 34.050781 -34.71875 31.96875 -37.625 C 29.894531 -40.53125 26.835938 -41.984375 22.796875 -41.984375 C 20.128906 -41.984375 17.882812 -41.367188 16.0625 -40.140625 C 14.25 -38.910156 12.863281 -36.910156 11.90625 -34.140625 C 10.945312 -31.378906 10.46875 -27.722656 10.46875 -23.171875 C 10.46875 -18.628906 10.945312 -14.972656 11.90625 -12.203125 C 12.863281 -9.429688 14.25 -7.429688 16.0625 -6.203125 C 17.882812 -4.984375 20.128906 -4.375 22.796875 -4.375 Z M 22.796875 -4.375 "/></g></g></g><g fill="#000000" fill-opacity="1"><g transform="translate(45.559297, 296.590979)"><g><path d="M 19.09375 0.671875 C 14.757812 0.671875 11.296875 -0.289062 8.703125 -2.21875 C 6.109375 -4.144531 4.421875 -6.875 3.640625 -10.40625 L 7.671875 -12.234375 L 8.40625 -12.109375 C 8.925781 -10.316406 9.613281 -8.847656 10.46875 -7.703125 C 11.332031 -6.566406 12.460938 -5.707031 13.859375 -5.125 C 15.253906 -4.539062 17 -4.25 19.09375 -4.25 C 22.21875 -4.25 24.648438 -5.179688 26.390625 -7.046875 C 28.140625 -8.921875 29.015625 -11.644531 29.015625 -15.21875 C 29.015625 -18.851562 28.15625 -21.613281 26.4375 -23.5 C 24.726562 -25.394531 22.363281 -26.34375 19.34375 -26.34375 C 17.039062 -26.34375 15.171875 -25.878906 13.734375 -24.953125 C 12.296875 -24.023438 11.023438 -22.597656 9.921875 -20.671875 L 5.546875 -21.046875 L 6.4375 -46.359375 L 32.40625 -46.359375 L 32.40625 -41.734375 L 11.1875 -41.734375 L 10.65625 -26.34375 L 11.3125 -26.21875 C 12.414062 -27.820312 13.753906 -29.019531 15.328125 -29.8125 C 16.898438 -30.613281 18.785156 -31.015625 20.984375 -31.015625 C 23.753906 -31.015625 26.171875 -30.394531 28.234375 -29.15625 C 30.296875 -27.914062 31.890625 -26.113281 33.015625 -23.75 C 34.148438 -21.382812 34.71875 -18.539062 34.71875 -15.21875 C 34.71875 -11.914062 34.066406 -9.070312 32.765625 -6.6875 C 31.460938 -4.300781 29.632812 -2.476562 27.28125 -1.21875 C 24.925781 0.0390625 22.195312 0.671875 19.09375 0.671875 Z M 19.09375 0.671875 "/></g></g></g><g fill="#000000" fill-opacity="1"><g transform="translate(83.895002, 296.590979)"><g/></g></g><g fill="#000000" fill-opacity="1"><g transform="translate(99.799567, 296.590979)"><g><path d="M 15.3125 0.671875 C 13.007812 0.671875 10.894531 0.328125 8.96875 -0.359375 C 7.050781 -1.046875 5.429688 -1.984375 4.109375 -3.171875 C 2.785156 -4.359375 1.816406 -5.671875 1.203125 -7.109375 L 4.03125 -10.8125 L 4.8125 -10.8125 C 5.75 -8.820312 7.117188 -7.25 8.921875 -6.09375 C 10.734375 -4.945312 12.863281 -4.375 15.3125 -4.375 C 17.300781 -4.375 18.914062 -4.695312 20.15625 -5.34375 C 21.40625 -5.988281 22.34375 -7.054688 22.96875 -8.546875 C 23.59375 -10.035156 23.90625 -12.046875 23.90625 -14.578125 L 23.90625 -46.359375 L 29.328125 -46.359375 L 29.328125 -14.484375 C 29.328125 -9.242188 28.160156 -5.40625 25.828125 -2.96875 C 23.492188 -0.539062 19.988281 0.671875 15.3125 0.671875 Z M 15.3125 0.671875 "/></g></g></g><g fill="#000000" fill-opacity="1"><g transform="translate(135.695758, 296.590979)"><g><path d="M 17.28125 0.671875 C 13.320312 0.671875 10.375 -0.375 8.4375 -2.46875 C 6.507812 -4.5625 5.546875 -7.628906 5.546875 -11.671875 L 5.546875 -34.96875 L 10.71875 -34.96875 L 10.71875 -11.796875 C 10.71875 -6.492188 13.210938 -3.84375 18.203125 -3.84375 C 21.367188 -3.84375 23.867188 -4.875 25.703125 -6.9375 C 27.546875 -9.007812 28.46875 -12.375 28.46875 -17.03125 L 28.46875 -34.96875 L 33.640625 -34.96875 L 33.640625 0 L 28.765625 0 L 28.765625 -5.484375 L 28.09375 -5.640625 C 26.882812 -3.503906 25.441406 -1.914062 23.765625 -0.875 C 22.085938 0.15625 19.925781 0.671875 17.28125 0.671875 Z M 17.28125 0.671875 "/></g></g></g><g fill="#000000" fill-opacity="1"><g transform="translate(175.393837, 296.590979)"><g><path d="M 6.09375 0 L 6.09375 -34.96875 L 11 -34.96875 L 11 -29.484375 L 11.671875 -29.328125 C 12.828125 -31.378906 14.304688 -32.941406 16.109375 -34.015625 C 17.921875 -35.097656 20.128906 -35.640625 22.734375 -35.640625 C 26.941406 -35.640625 29.988281 -34.566406 31.875 -32.421875 C 33.769531 -30.273438 34.71875 -26.972656 34.71875 -22.515625 L 34.71875 0 L 29.546875 0 L 29.546875 -22.390625 C 29.546875 -24.503906 29.273438 -26.195312 28.734375 -27.46875 C 28.203125 -28.75 27.367188 -29.679688 26.234375 -30.265625 C 25.109375 -30.847656 23.625 -31.140625 21.78125 -31.140625 C 18.632812 -31.140625 16.09375 -30.097656 14.15625 -28.015625 C 12.21875 -25.929688 11.25 -22.578125 11.25 -17.953125 L 11.25 0 Z M 6.09375 0 "/></g></g></g><g fill="#000000" fill-opacity="1"><g transform="translate(215.673264, 296.590979)"><g/></g></g><g fill="#000000" fill-opacity="1"><g transform="translate(231.57783, 296.590979)"><g><path d="M 2.796875 -2.125 C 2.796875 -4.6875 3.070312 -6.75 3.625 -8.3125 C 4.1875 -9.875 5.144531 -11.332031 6.5 -12.6875 C 7.851562 -14.039062 10.007812 -15.796875 12.96875 -17.953125 L 18.078125 -21.65625 C 19.953125 -23.03125 21.484375 -24.296875 22.671875 -25.453125 C 23.859375 -26.617188 24.789062 -27.882812 25.46875 -29.25 C 26.15625 -30.613281 26.5 -32.140625 26.5 -33.828125 C 26.5 -36.578125 25.769531 -38.648438 24.3125 -40.046875 C 22.851562 -41.441406 20.570312 -42.140625 17.46875 -42.140625 C 15.019531 -42.140625 12.84375 -41.566406 10.9375 -40.421875 C 9.03125 -39.285156 7.507812 -37.671875 6.375 -35.578125 L 5.640625 -35.453125 L 2.375 -38.875 C 3.9375 -41.40625 5.988281 -43.394531 8.53125 -44.84375 C 11.082031 -46.289062 14.0625 -47.015625 17.46875 -47.015625 C 20.769531 -47.015625 23.507812 -46.453125 25.6875 -45.328125 C 27.863281 -44.210938 29.46875 -42.664062 30.5 -40.6875 C 31.539062 -38.71875 32.0625 -36.429688 32.0625 -33.828125 C 32.0625 -31.753906 31.625 -29.816406 30.75 -28.015625 C 29.882812 -26.222656 28.660156 -24.535156 27.078125 -22.953125 C 25.492188 -21.367188 23.507812 -19.703125 21.125 -17.953125 L 15.953125 -14.171875 C 14.023438 -12.753906 12.539062 -11.546875 11.5 -10.546875 C 10.46875 -9.554688 9.710938 -8.59375 9.234375 -7.65625 C 8.765625 -6.71875 8.53125 -5.664062 8.53125 -4.5 L 32.0625 -4.5 L 32.0625 0 L 2.796875 0 Z M 2.796875 -2.125 "/></g></g></g><g fill="#000000" fill-opacity="1"><g transform="translate(267.188848, 296.590979)"><g><path d="M 22.796875 0.671875 C 19.390625 0.671875 16.332031 -0.144531 13.625 -1.78125 C 10.925781 -3.425781 8.769531 -6.03125 7.15625 -9.59375 C 5.550781 -13.15625 4.75 -17.679688 4.75 -23.171875 C 4.75 -28.671875 5.550781 -33.203125 7.15625 -36.765625 C 8.769531 -40.328125 10.925781 -42.925781 13.625 -44.5625 C 16.332031 -46.195312 19.390625 -47.015625 22.796875 -47.015625 C 26.203125 -47.015625 29.253906 -46.195312 31.953125 -44.5625 C 34.660156 -42.925781 36.8125 -40.328125 38.40625 -36.765625 C 40.007812 -33.203125 40.8125 -28.671875 40.8125 -23.171875 C 40.8125 -17.679688 40.007812 -13.15625 38.40625 -9.59375 C 36.8125 -6.03125 34.660156 -3.425781 31.953125 -1.78125 C 29.253906 -0.144531 26.203125 0.671875 22.796875 0.671875 Z M 22.796875 -4.375 C 26.835938 -4.375 29.894531 -5.828125 31.96875 -8.734375 C 34.050781 -11.640625 35.09375 -16.453125 35.09375 -23.171875 C 35.09375 -29.898438 34.050781 -34.71875 31.96875 -37.625 C 29.894531 -40.53125 26.835938 -41.984375 22.796875 -41.984375 C 20.128906 -41.984375 17.882812 -41.367188 16.0625 -40.140625 C 14.25 -38.910156 12.863281 -36.910156 11.90625 -34.140625 C 10.945312 -31.378906 10.46875 -27.722656 10.46875 -23.171875 C 10.46875 -18.628906 10.945312 -14.972656 11.90625 -12.203125 C 12.863281 -9.429688 14.25 -7.429688 16.0625 -6.203125 C 17.882812 -4.984375 20.128906 -4.375 22.796875 -4.375 Z M 22.796875 -4.375 "/></g></g></g><g fill="#000000" fill-opacity="1"><g transform="translate(312.74814, 296.590979)"><g><path d="M 2.796875 -2.125 C 2.796875 -4.6875 3.070312 -6.75 3.625 -8.3125 C 4.1875 -9.875 5.144531 -11.332031 6.5 -12.6875 C 7.851562 -14.039062 10.007812 -15.796875 12.96875 -17.953125 L 18.078125 -21.65625 C 19.953125 -23.03125 21.484375 -24.296875 22.671875 -25.453125 C 23.859375 -26.617188 24.789062 -27.882812 25.46875 -29.25 C 26.15625 -30.613281 26.5 -32.140625 26.5 -33.828125 C 26.5 -36.578125 25.769531 -38.648438 24.3125 -40.046875 C 22.851562 -41.441406 20.570312 -42.140625 17.46875 -42.140625 C 15.019531 -42.140625 12.84375 -41.566406 10.9375 -40.421875 C 9.03125 -39.285156 7.507812 -37.671875 6.375 -35.578125 L 5.640625 -35.453125 L 2.375 -38.875 C 3.9375 -41.40625 5.988281 -43.394531 8.53125 -44.84375 C 11.082031 -46.289062 14.0625 -47.015625 17.46875 -47.015625 C 20.769531 -47.015625 23.507812 -46.453125 25.6875 -45.328125 C 27.863281 -44.210938 29.46875 -42.664062 30.5 -40.6875 C 31.539062 -38.71875 32.0625 -36.429688 32.0625 -33.828125 C 32.0625 -31.753906 31.625 -29.816406 30.75 -28.015625 C 29.882812 -26.222656 28.660156 -24.535156 27.078125 -22.953125 C 25.492188 -21.367188 23.507812 -19.703125 21.125 -17.953125 L 15.953125 -14.171875 C 14.023438 -12.753906 12.539062 -11.546875 11.5 -10.546875 C 10.46875 -9.554688 9.710938 -8.59375 9.234375 -7.65625 C 8.765625 -6.71875 8.53125 -5.664062 8.53125 -4.5 L 32.0625 -4.5 L 32.0625 0 L 2.796875 0 Z M 2.796875 -2.125 "/></g></g></g><g fill="#000000" fill-opacity="1"><g transform="translate(348.359158, 296.590979)"><g><path d="M 2.796875 -2.125 C 2.796875 -4.6875 3.070312 -6.75 3.625 -8.3125 C 4.1875 -9.875 5.144531 -11.332031 6.5 -12.6875 C 7.851562 -14.039062 10.007812 -15.796875 12.96875 -17.953125 L 18.078125 -21.65625 C 19.953125 -23.03125 21.484375 -24.296875 22.671875 -25.453125 C 23.859375 -26.617188 24.789062 -27.882812 25.46875 -29.25 C 26.15625 -30.613281 26.5 -32.140625 26.5 -33.828125 C 26.5 -36.578125 25.769531 -38.648438 24.3125 -40.046875 C 22.851562 -41.441406 20.570312 -42.140625 17.46875 -42.140625 C 15.019531 -42.140625 12.84375 -41.566406 10.9375 -40.421875 C 9.03125 -39.285156 7.507812 -37.671875 6.375 -35.578125 L 5.640625 -35.453125 L 2.375 -38.875 C 3.9375 -41.40625 5.988281 -43.394531 8.53125 -44.84375 C 11.082031 -46.289062 14.0625 -47.015625 17.46875 -47.015625 C 20.769531 -47.015625 23.507812 -46.453125 25.6875 -45.328125 C 27.863281 -44.210938 29.46875 -42.664062 30.5 -40.6875 C 31.539062 -38.71875 32.0625 -36.429688 32.0625 -33.828125 C 32.0625 -31.753906 31.625 -29.816406 30.75 -28.015625 C 29.882812 -26.222656 28.660156 -24.535156 27.078125 -22.953125 C 25.492188 -21.367188 23.507812 -19.703125 21.125 -17.953125 L 15.953125 -14.171875 C 14.023438 -12.753906 12.539062 -11.546875 11.5 -10.546875 C 10.46875 -9.554688 9.710938 -8.59375 9.234375 -7.65625 C 8.765625 -6.71875 8.53125 -5.664062 8.53125 -4.5 L 32.0625 -4.5 L 32.0625 0 L 2.796875 0 Z M 2.796875 -2.125 "/></g></g></g><g fill="#000000" fill-opacity="1"><g transform="translate(383.970176, 296.590979)"><g/></g></g><g fill="#000000" fill-opacity="1"><g transform="translate(399.874741, 296.590979)"><g><path d="M 21.34375 -20.203125 L 3.296875 -20.203125 L 3.296875 -24.828125 L 21.34375 -24.828125 Z M 21.34375 -20.203125 "/></g></g></g><g fill="#000000" fill-opacity="1"><g transform="translate(424.460284, 296.590979)"><g/></g></g><g fill="#000000" fill-opacity="1"><g transform="translate(440.364849, 296.590979)"><g><path d="M 2.796875 -2.125 C 2.796875 -4.6875 3.070312 -6.75 3.625 -8.3125 C 4.1875 -9.875 5.144531 -11.332031 6.5 -12.6875 C 7.851562 -14.039062 10.007812 -15.796875 12.96875 -17.953125 L 18.078125 -21.65625 C 19.953125 -23.03125 21.484375 -24.296875 22.671875 -25.453125 C 23.859375 -26.617188 24.789062 -27.882812 25.46875 -29.25 C 26.15625 -30.613281 26.5 -32.140625 26.5 -33.828125 C 26.5 -36.578125 25.769531 -38.648438 24.3125 -40.046875 C 22.851562 -41.441406 20.570312 -42.140625 17.46875 -42.140625 C 15.019531 -42.140625 12.84375 -41.566406 10.9375 -40.421875 C 9.03125 -39.285156 7.507812 -37.671875 6.375 -35.578125 L 5.640625 -35.453125 L 2.375 -38.875 C 3.9375 -41.40625 5.988281 -43.394531 8.53125 -44.84375 C 11.082031 -46.289062 14.0625 -47.015625 17.46875 -47.015625 C 20.769531 -47.015625 23.507812 -46.453125 25.6875 -45.328125 C 27.863281 -44.210938 29.46875 -42.664062 30.5 -40.6875 C 31.539062 -38.71875 32.0625 -36.429688 32.0625 -33.828125 C 32.0625 -31.753906 31.625 -29.816406 30.75 -28.015625 C 29.882812 -26.222656 28.660156 -24.535156 27.078125 -22.953125 C 25.492188 -21.367188 23.507812 -19.703125 21.125 -17.953125 L 15.953125 -14.171875 C 14.023438 -12.753906 12.539062 -11.546875 11.5 -10.546875 C 10.46875 -9.554688 9.710938 -8.59375 9.234375 -7.65625 C 8.765625 -6.71875 8.53125 -5.664062 8.53125 -4.5 L 32.0625 -4.5 L 32.0625 0 L 2.796875 0 Z M 2.796875 -2.125 "/></g></g></g><g fill="#000000" fill-opacity="1"><g transform="translate(475.975867, 296.590979)"><g/></g></g><g fill="#000000" fill-opacity="1"><g transform="translate(491.880433, 296.590979)"><g><path d="M 6.09375 0 L 6.09375 -49.015625 L 11.25 -49.015625 L 11.25 -30 L 11.921875 -29.875 C 14.410156 -33.71875 18.015625 -35.640625 22.734375 -35.640625 C 26.941406 -35.640625 29.988281 -34.566406 31.875 -32.421875 C 33.769531 -30.273438 34.71875 -26.972656 34.71875 -22.515625 L 34.71875 0 L 29.546875 0 L 29.546875 -22.390625 C 29.546875 -24.503906 29.273438 -26.195312 28.734375 -27.46875 C 28.203125 -28.75 27.367188 -29.679688 26.234375 -30.265625 C 25.109375 -30.847656 23.625 -31.140625 21.78125 -31.140625 C 18.613281 -31.140625 16.066406 -30.113281 14.140625 -28.0625 C 12.210938 -26.007812 11.25 -22.640625 11.25 -17.953125 L 11.25 0 Z M 6.09375 0 "/></g></g></g><g fill="#000000" fill-opacity="1"><g transform="translate(532.117081, 296.590979)"><g><path d="M 20.078125 0.671875 C 16.773438 0.671875 13.898438 -0.0234375 11.453125 -1.421875 C 9.015625 -2.816406 7.132812 -4.875 5.8125 -7.59375 C 4.5 -10.3125 3.84375 -13.601562 3.84375 -17.46875 C 3.84375 -21.34375 4.5 -24.640625 5.8125 -27.359375 C 7.132812 -30.085938 9.015625 -32.148438 11.453125 -33.546875 C 13.898438 -34.941406 16.773438 -35.640625 20.078125 -35.640625 C 23.367188 -35.640625 26.234375 -34.941406 28.671875 -33.546875 C 31.117188 -32.148438 33.003906 -30.085938 34.328125 -27.359375 C 35.648438 -24.640625 36.3125 -21.34375 36.3125 -17.46875 C 36.3125 -13.601562 35.648438 -10.3125 34.328125 -7.59375 C 33.003906 -4.875 31.117188 -2.816406 28.671875 -1.421875 C 26.234375 -0.0234375 23.367188 0.671875 20.078125 0.671875 Z M 20.078125 -3.96875 C 23.554688 -3.96875 26.222656 -5.066406 28.078125 -7.265625 C 29.929688 -9.460938 30.859375 -12.863281 30.859375 -17.46875 C 30.859375 -22.101562 29.929688 -25.519531 28.078125 -27.71875 C 26.222656 -29.914062 23.554688 -31.015625 20.078125 -31.015625 C 16.585938 -31.015625 13.910156 -29.910156 12.046875 -27.703125 C 10.191406 -25.492188 9.265625 -22.082031 9.265625 -17.46875 C 9.265625 -12.863281 10.191406 -9.460938 12.046875 -7.265625 C 13.910156 -5.066406 16.585938 -3.96875 20.078125 -3.96875 Z M 20.078125 -3.96875 "/></g></g></g><g fill="#000000" fill-opacity="1"><g transform="translate(572.227, 296.590979)"><g><path d="M 17.28125 0.671875 C 13.320312 0.671875 10.375 -0.375 8.4375 -2.46875 C 6.507812 -4.5625 5.546875 -7.628906 5.546875 -11.671875 L 5.546875 -34.96875 L 10.71875 -34.96875 L 10.71875 -11.796875 C 10.71875 -6.492188 13.210938 -3.84375 18.203125 -3.84375 C 21.367188 -3.84375 23.867188 -4.875 25.703125 -6.9375 C 27.546875 -9.007812 28.46875 -12.375 28.46875 -17.03125 L 28.46875 -34.96875 L 33.640625 -34.96875 L 33.640625 0 L 28.765625 0 L 28.765625 -5.484375 L 28.09375 -5.640625 C 26.882812 -3.503906 25.441406 -1.914062 23.765625 -0.875 C 22.085938 0.15625 19.925781 0.671875 17.28125 0.671875 Z M 17.28125 0.671875 "/></g></g></g><g fill="#000000" fill-opacity="1"><g transform="translate(611.925079, 296.590979)"><g><path d="M 6.09375 0 L 6.09375 -34.96875 L 11 -34.96875 L 11 -29.484375 L 11.671875 -29.328125 C 13.296875 -33.304688 16.359375 -35.296875 20.859375 -35.296875 C 23.253906 -35.296875 25.039062 -34.859375 26.21875 -33.984375 L 24.890625 -29.609375 L 24.25 -29.484375 C 22.945312 -30.140625 21.507812 -30.46875 19.9375 -30.46875 C 17.15625 -30.46875 15.007812 -29.421875 13.5 -27.328125 C 12 -25.234375 11.25 -21.84375 11.25 -17.15625 L 11.25 0 Z M 6.09375 0 "/></g></g></g><g fill="#000000" fill-opacity="1"><g transform="translate(638.918484, 296.590979)"><g><path d="M 15.953125 0.671875 C 13.753906 0.671875 11.71875 0.378906 9.84375 -0.203125 C 7.976562 -0.785156 6.398438 -1.582031 5.109375 -2.59375 C 3.816406 -3.613281 2.90625 -4.757812 2.375 -6.03125 L 5.421875 -9.1875 L 6.09375 -9.1875 C 7.226562 -7.457031 8.597656 -6.15625 10.203125 -5.28125 C 11.816406 -4.40625 13.734375 -3.96875 15.953125 -3.96875 C 18.523438 -3.96875 20.484375 -4.46875 21.828125 -5.46875 C 23.171875 -6.46875 23.84375 -7.867188 23.84375 -9.671875 C 23.84375 -11.046875 23.4375 -12.179688 22.625 -13.078125 C 21.8125 -13.972656 20.492188 -14.644531 18.671875 -15.09375 L 12.78125 -16.546875 C 9.625 -17.304688 7.320312 -18.507812 5.875 -20.15625 C 4.425781 -21.8125 3.703125 -23.851562 3.703125 -26.28125 C 3.703125 -28.1875 4.1875 -29.84375 5.15625 -31.25 C 6.132812 -32.65625 7.535156 -33.738281 9.359375 -34.5 C 11.191406 -35.257812 13.367188 -35.640625 15.890625 -35.640625 C 19.097656 -35.640625 21.625 -35.1875 23.46875 -34.28125 C 25.320312 -33.382812 26.769531 -32.132812 27.8125 -30.53125 L 24.890625 -27.6875 L 24.25 -27.6875 C 23.132812 -28.96875 21.914062 -29.894531 20.59375 -30.46875 C 19.269531 -31.039062 17.703125 -31.328125 15.890625 -31.328125 C 13.578125 -31.328125 11.804688 -30.914062 10.578125 -30.09375 C 9.359375 -29.269531 8.75 -28.070312 8.75 -26.5 C 8.75 -25.09375 9.179688 -23.953125 10.046875 -23.078125 C 10.910156 -22.210938 12.421875 -21.515625 14.578125 -20.984375 L 20.390625 -19.59375 C 23.429688 -18.875 25.628906 -17.675781 26.984375 -16 C 28.335938 -14.332031 29.015625 -12.242188 29.015625 -9.734375 C 29.015625 -7.679688 28.523438 -5.875 27.546875 -4.3125 C 26.578125 -2.75 25.109375 -1.523438 23.140625 -0.640625 C 21.179688 0.234375 18.785156 0.671875 15.953125 0.671875 Z M 15.953125 0.671875 "/></g></g></g><g fill="#000000" fill-opacity="1"><g transform="translate(0.00000525, 466.749394)"><g><path d="M 15.09375 -58.703125 L 17.296875 -54.078125 C 15.179688 -53.421875 13.609375 -52.429688 12.578125 -51.109375 C 11.554688 -49.785156 11.015625 -47.984375 10.953125 -45.703125 L 16.3125 -45.703125 L 16.3125 -34.578125 L 5.203125 -34.578125 L 5.203125 -43.515625 C 5.203125 -47.578125 5.957031 -50.785156 7.46875 -53.140625 C 8.988281 -55.492188 11.53125 -57.347656 15.09375 -58.703125 Z M 33.78125 -58.703125 L 35.96875 -54.078125 C 33.800781 -53.421875 32.226562 -52.414062 31.25 -51.0625 C 30.28125 -49.707031 29.742188 -47.921875 29.640625 -45.703125 L 34.984375 -45.703125 L 34.984375 -34.578125 L 23.875 -34.578125 L 23.875 -43.59375 C 23.875 -47.65625 24.644531 -50.847656 26.1875 -53.171875 C 27.726562 -55.503906 30.257812 -57.347656 33.78125 -58.703125 Z M 33.78125 -58.703125 "/></g></g></g><g fill="#000000" fill-opacity="1"><g transform="translate(40.577155, 466.749394)"><g><path d="M 33.9375 -18.59375 L 44.25 -58.125 L 61.859375 -58.125 L 61.859375 0 L 50.984375 0 L 50.984375 -45.796875 L 39.53125 0 L 28.25 0 L 16.640625 -45.703125 L 16.640625 0 L 5.765625 0 L 5.765625 -58.125 L 23.296875 -58.125 Z M 33.9375 -18.59375 "/></g></g></g><g fill="#000000" fill-opacity="1"><g transform="translate(108.178681, 466.749394)"><g><path d="M 22.40625 -12.171875 L 22.5625 -12.171875 L 32.3125 -42.0625 L 43.84375 -42.0625 L 28.984375 -1.546875 L 28.015625 1.296875 C 26.609375 5.242188 25.347656 8.234375 24.234375 10.265625 C 23.117188 12.296875 21.492188 13.929688 19.359375 15.171875 C 17.222656 16.421875 14.285156 17.046875 10.546875 17.046875 C 8.328125 17.046875 6.21875 16.832031 4.21875 16.40625 L 3.25 7.71875 C 5.144531 8.039062 6.6875 8.203125 7.875 8.203125 C 10.195312 8.203125 11.992188 7.59375 13.265625 6.375 C 14.546875 5.15625 15.644531 3.054688 16.5625 0.078125 L 0.5625 -42.0625 L 12.421875 -42.0625 Z M 22.40625 -12.171875 "/></g></g></g><g fill="#000000" fill-opacity="1"><g transform="translate(153.300477, 466.749394)"><g/></g></g><g fill="#000000" fill-opacity="1"><g transform="translate(175.861376, 466.749394)"><g><path d="M 16.484375 -37.1875 C 19.890625 -41.082031 23.972656 -43.03125 28.734375 -43.03125 C 31.984375 -43.03125 34.945312 -42.226562 37.625 -40.625 C 40.3125 -39.03125 42.453125 -36.609375 44.046875 -33.359375 C 45.640625 -30.117188 46.4375 -26.144531 46.4375 -21.4375 C 46.4375 -16.5625 45.609375 -12.445312 43.953125 -9.09375 C 42.304688 -5.738281 40.144531 -3.222656 37.46875 -1.546875 C 34.789062 0.128906 31.910156 0.96875 28.828125 0.96875 C 26.710938 0.96875 24.445312 0.398438 22.03125 -0.734375 C 19.625 -1.867188 17.53125 -3.679688 15.75 -6.171875 L 15.75 0 L 5.359375 0 L 5.359375 -58.125 L 16.484375 -58.125 Z M 16.40625 -21.921875 C 16.40625 -19.484375 16.578125 -17.492188 16.921875 -15.953125 C 17.273438 -14.410156 17.859375 -13.070312 18.671875 -11.9375 C 20.617188 -9.226562 23.109375 -7.875 26.140625 -7.875 C 28.523438 -7.875 30.59375 -8.898438 32.34375 -10.953125 C 34.101562 -13.015625 34.984375 -16.347656 34.984375 -20.953125 C 34.984375 -25.054688 34.238281 -28.335938 32.75 -30.796875 C 31.269531 -33.265625 28.90625 -34.5 25.65625 -34.5 C 22.945312 -34.5 20.726562 -33.429688 19 -31.296875 C 17.269531 -29.160156 16.40625 -26.035156 16.40625 -21.921875 Z M 16.40625 -21.921875 "/></g></g></g><g fill="#000000" fill-opacity="1"><g transform="translate(225.446651, 466.749394)"><g><path d="M 22.25 -43.03125 C 27.601562 -43.03125 31.578125 -42.335938 34.171875 -40.953125 C 36.773438 -39.578125 38.414062 -37.765625 39.09375 -35.515625 C 39.769531 -33.273438 40.082031 -30.3125 40.03125 -26.625 L 39.9375 -14.375 C 39.882812 -10.53125 40.019531 -7.738281 40.34375 -6 C 40.675781 -4.269531 41.351562 -2.269531 42.375 0 L 31.421875 0 C 31.148438 -0.59375 30.660156 -2.132812 29.953125 -4.625 C 27.953125 -2.675781 25.882812 -1.253906 23.75 -0.359375 C 21.613281 0.523438 19.328125 0.96875 16.890625 0.96875 C 12.722656 0.96875 9.351562 -0.175781 6.78125 -2.46875 C 4.207031 -4.769531 2.921875 -7.765625 2.921875 -11.453125 C 2.921875 -14.535156 3.691406 -16.984375 5.234375 -18.796875 C 6.773438 -20.609375 8.65625 -21.921875 10.875 -22.734375 C 13.09375 -23.546875 15.71875 -24.25 18.75 -24.84375 C 23.40625 -25.707031 26.84375 -26.570312 29.0625 -27.4375 L 29.0625 -29.234375 C 29.0625 -31.066406 28.519531 -32.398438 27.4375 -33.234375 C 26.351562 -34.078125 24.378906 -34.5 21.515625 -34.5 C 19.296875 -34.5 17.644531 -34.050781 16.5625 -33.15625 C 15.476562 -32.269531 14.664062 -30.960938 14.125 -29.234375 L 4.0625 -31.09375 C 5.144531 -35.207031 7.09375 -38.222656 9.90625 -40.140625 C 12.71875 -42.066406 16.832031 -43.03125 22.25 -43.03125 Z M 22.078125 -18.421875 L 20.21875 -18.03125 C 16.101562 -17.15625 14.046875 -15.367188 14.046875 -12.671875 C 14.046875 -11.046875 14.625 -9.675781 15.78125 -8.5625 C 16.945312 -7.457031 18.425781 -6.90625 20.21875 -6.90625 C 21.675781 -6.90625 23.132812 -7.28125 24.59375 -8.03125 C 26.0625 -8.789062 27.203125 -9.796875 28.015625 -11.046875 C 28.710938 -12.179688 29.0625 -14.128906 29.0625 -16.890625 L 29.0625 -20.21875 C 26.957031 -19.5625 24.628906 -18.960938 22.078125 -18.421875 Z M 22.078125 -18.421875 "/></g></g></g><g fill="#000000" fill-opacity="1"><g transform="translate(270.568447, 466.749394)"><g><path d="M 8.4375 -36.703125 C 12.070312 -40.921875 17.21875 -43.03125 23.875 -43.03125 C 33.882812 -43.03125 40.132812 -38.566406 42.625 -29.640625 L 31.65625 -27.6875 C 30.738281 -32.125 28.195312 -34.34375 24.03125 -34.34375 C 21.21875 -34.34375 18.984375 -33.367188 17.328125 -31.421875 C 15.679688 -29.472656 14.859375 -26.304688 14.859375 -21.921875 C 14.859375 -17.640625 15.5625 -14.269531 16.96875 -11.8125 C 18.375 -9.351562 20.78125 -8.125 24.1875 -8.125 C 26.40625 -8.125 28.175781 -8.785156 29.5 -10.109375 C 30.832031 -11.429688 31.742188 -13.445312 32.234375 -16.15625 L 43.1875 -14.28125 C 40.914062 -4.113281 34.394531 0.96875 23.625 0.96875 C 17.238281 0.96875 12.3125 -0.976562 8.84375 -4.875 C 7.0625 -6.875 5.707031 -9.304688 4.78125 -12.171875 C 3.863281 -15.046875 3.40625 -18 3.40625 -21.03125 C 3.40625 -24.164062 3.835938 -27.085938 4.703125 -29.796875 C 5.578125 -32.503906 6.820312 -34.804688 8.4375 -36.703125 Z M 8.4375 -36.703125 "/></g></g></g><g fill="#000000" fill-opacity="1"><g transform="translate(315.690244, 466.749394)"><g><path d="M 16.5625 -27.28125 L 29.640625 -42.0625 L 43.359375 -42.0625 L 28.984375 -26.703125 L 44.328125 0 L 32.3125 0 L 21.765625 -18.921875 L 16.5625 -13.484375 L 16.5625 0 L 5.4375 0 L 5.4375 -58.125 L 16.5625 -58.125 Z M 16.5625 -27.28125 "/></g></g></g><g fill="#000000" fill-opacity="1"><g transform="translate(360.812041, 466.749394)"><g/></g></g><g fill="#000000" fill-opacity="1"><g transform="translate(383.372939, 466.749394)"><g><path d="M 19.40625 -44.484375 L 16.5625 -15.015625 L 10.234375 -15.015625 L 7.3125 -44.484375 L 7.3125 -58.125 L 19.40625 -58.125 Z M 18.921875 0 L 7.796875 0 L 7.796875 -11.125 L 18.921875 -11.125 Z M 18.921875 0 "/></g></g></g><g fill="#000000" fill-opacity="1"><g transform="translate(410.397316, 466.749394)"><g><path d="M 16.234375 -49.203125 C 16.234375 -45.140625 15.472656 -41.929688 13.953125 -39.578125 C 12.441406 -37.222656 9.898438 -35.367188 6.328125 -34.015625 L 4.140625 -38.640625 C 6.253906 -39.296875 7.8125 -40.285156 8.8125 -41.609375 C 9.8125 -42.929688 10.363281 -44.726562 10.46875 -47 L 5.109375 -47 L 5.109375 -58.125 L 16.234375 -58.125 Z M 34.90625 -49.203125 C 34.90625 -45.140625 34.144531 -41.929688 32.625 -39.578125 C 31.113281 -37.222656 28.570312 -35.367188 25 -34.015625 L 22.8125 -38.640625 C 24.925781 -39.296875 26.484375 -40.285156 27.484375 -41.609375 C 28.484375 -42.929688 29.035156 -44.726562 29.140625 -47 L 23.78125 -47 L 23.78125 -58.125 L 34.90625 -58.125 Z M 34.90625 -49.203125 "/></g></g></g></svg>