<svg xmlns="http://www.w3.org/2000/svg" xmlns:xlink="http://www.w3.org/1999/xlink" width="1620" zoomAndPan="magnify" viewBox="0 0 1215 809.999993" height="1080" preserveAspectRatio="xMidYMid meet" version="1.0"><defs><g/></defs><g fill="#000000" fill-opacity="1"><g transform="translate(0.00000525, 70.743654)"><g><path d="M 33.703125 -63.0625 C 40.222656 -63.0625 45.734375 -61.675781 50.234375 -58.90625 C 54.742188 -56.132812 58.125 -52.320312 60.375 -47.46875 C 62.625 -42.613281 63.75 -37.097656 63.75 -30.921875 C 63.75 -24.335938 62.550781 -18.648438 60.15625 -13.859375 C 57.757812 -9.066406 54.304688 -5.382812 49.796875 -2.8125 C 45.296875 -0.238281 39.988281 1.046875 33.875 1.046875 C 27.457031 1.046875 21.984375 -0.28125 17.453125 -2.9375 C 12.921875 -5.601562 9.5 -9.316406 7.1875 -14.078125 C 4.875 -18.835938 3.71875 -24.367188 3.71875 -30.671875 C 3.71875 -37.191406 4.875 -42.890625 7.1875 -47.765625 C 9.5 -52.648438 12.890625 -56.421875 17.359375 -59.078125 C 21.835938 -61.734375 27.285156 -63.0625 33.703125 -63.0625 Z M 16.625 -31.015625 C 16.625 -26.160156 17.40625 -22.144531 18.96875 -18.96875 C 20.53125 -15.789062 22.609375 -13.453125 25.203125 -11.953125 C 27.804688 -10.453125 30.664062 -9.703125 33.78125 -9.703125 C 36.664062 -9.703125 39.378906 -10.363281 41.921875 -11.6875 C 44.460938 -13.019531 46.582031 -15.285156 48.28125 -18.484375 C 49.988281 -21.691406 50.84375 -25.925781 50.84375 -31.1875 C 50.84375 -37.363281 49.484375 -42.429688 46.765625 -46.390625 C 44.054688 -50.347656 39.703125 -52.328125 33.703125 -52.328125 C 27.753906 -52.328125 23.421875 -50.332031 20.703125 -46.34375 C 17.984375 -42.363281 16.625 -37.253906 16.625 -31.015625 Z M 16.625 -31.015625 "/></g></g></g><g fill="#000000" fill-opacity="1"><g transform="translate(67.385195, 70.743654)"><g><path d="M 17.84375 -21.828125 C 17.84375 -18.648438 17.914062 -16.335938 18.0625 -14.890625 C 18.207031 -13.453125 18.507812 -12.300781 18.96875 -11.4375 C 19.488281 -10.457031 20.28125 -9.648438 21.34375 -9.015625 C 22.414062 -8.378906 23.734375 -8.0625 25.296875 -8.0625 C 27.367188 -8.0625 29.242188 -8.632812 30.921875 -9.78125 C 32.597656 -10.9375 33.664062 -12.351562 34.125 -14.03125 C 34.644531 -15.707031 34.90625 -19.289062 34.90625 -24.78125 L 34.90625 -44.875 L 46.78125 -44.875 L 46.78125 0 L 35.78125 0 L 35.78125 -6.75 L 35.609375 -6.75 C 33.929688 -4.207031 31.765625 -2.269531 29.109375 -0.9375 C 26.453125 0.382812 23.707031 1.046875 20.875 1.046875 C 18.332031 1.046875 15.921875 0.523438 13.640625 -0.515625 C 11.359375 -1.554688 9.613281 -3.0625 8.40625 -5.03125 C 7.539062 -6.414062 6.921875 -7.941406 6.546875 -9.609375 C 6.171875 -11.285156 5.984375 -13.394531 5.984375 -15.9375 L 5.984375 -44.875 L 17.84375 -44.875 Z M 17.84375 -21.828125 "/></g></g></g><g fill="#000000" fill-opacity="1"><g transform="translate(120.305957, 70.743654)"><g><path d="M 27.03125 -45.90625 C 28.300781 -45.90625 29.640625 -45.703125 31.046875 -45.296875 C 32.460938 -44.898438 33.722656 -44.382812 34.828125 -43.75 L 31.09375 -33.34375 C 29.070312 -34.613281 27.222656 -35.25 25.546875 -35.25 C 23.296875 -35.25 21.59375 -34.484375 20.4375 -32.953125 C 19.289062 -31.429688 18.523438 -29.296875 18.140625 -26.546875 C 17.765625 -23.804688 17.578125 -20.15625 17.578125 -15.59375 L 17.578125 0 L 5.71875 0 L 5.71875 -44.875 L 16.71875 -44.875 L 16.71875 -38.546875 L 16.890625 -38.546875 C 18.335938 -40.972656 19.78125 -42.804688 21.21875 -44.046875 C 22.664062 -45.285156 24.601562 -45.90625 27.03125 -45.90625 Z M 27.03125 -45.90625 "/></g></g></g><g fill="#000000" fill-opacity="1"><g transform="translate(153.998552, 70.743654)"><g><path d="M 26.59375 -45.90625 C 31.445312 -45.90625 35.632812 -44.804688 39.15625 -42.609375 C 42.675781 -40.421875 45.332031 -37.535156 47.125 -33.953125 C 48.914062 -30.378906 49.8125 -26.597656 49.8125 -22.609375 C 49.8125 -18.453125 48.867188 -14.566406 46.984375 -10.953125 C 45.109375 -7.347656 42.425781 -4.445312 38.9375 -2.25 C 35.445312 -0.0507812 31.363281 1.046875 26.6875 1.046875 C 22.695312 1.046875 18.941406 0.222656 15.421875 -1.421875 C 11.898438 -3.066406 9.023438 -5.691406 6.796875 -9.296875 C 4.578125 -12.910156 3.46875 -17.492188 3.46875 -23.046875 C 3.46875 -26.910156 4.347656 -30.585938 6.109375 -34.078125 C 7.867188 -37.578125 10.492188 -40.421875 13.984375 -42.609375 C 17.484375 -44.804688 21.6875 -45.90625 26.59375 -45.90625 Z M 15.671875 -22.4375 C 15.671875 -17.925781 16.722656 -14.5 18.828125 -12.15625 C 20.941406 -9.820312 23.53125 -8.65625 26.59375 -8.65625 C 29.65625 -8.65625 32.253906 -9.8125 34.390625 -12.125 C 36.523438 -14.4375 37.59375 -17.898438 37.59375 -22.515625 C 37.59375 -26.796875 36.566406 -30.144531 34.515625 -32.5625 C 32.460938 -34.988281 29.789062 -36.203125 26.5 -36.203125 C 23.5 -36.203125 20.941406 -35.019531 18.828125 -32.65625 C 16.722656 -30.289062 15.671875 -26.882812 15.671875 -22.4375 Z M 15.671875 -22.4375 "/></g></g></g><g fill="#000000" fill-opacity="1"><g transform="translate(206.919314, 70.743654)"><g><path d="M 17.578125 -39.671875 C 21.222656 -43.828125 25.585938 -45.90625 30.671875 -45.90625 C 34.128906 -45.90625 37.285156 -45.050781 40.140625 -43.34375 C 43.003906 -41.644531 45.285156 -39.0625 46.984375 -35.59375 C 48.691406 -32.132812 49.546875 -27.894531 49.546875 -22.875 C 49.546875 -17.675781 48.664062 -13.285156 46.90625 -9.703125 C 45.144531 -6.117188 42.832031 -3.429688 39.96875 -1.640625 C 37.113281 0.148438 34.039062 1.046875 30.75 1.046875 C 28.5 1.046875 26.085938 0.441406 23.515625 -0.765625 C 20.941406 -1.984375 18.707031 -3.921875 16.8125 -6.578125 L 16.8125 0 L 5.71875 0 L 5.71875 -62.03125 L 17.578125 -62.03125 Z M 17.5 -23.390625 C 17.5 -20.785156 17.6875 -18.660156 18.0625 -17.015625 C 18.4375 -15.367188 19.054688 -13.941406 19.921875 -12.734375 C 22.003906 -9.847656 24.660156 -8.40625 27.890625 -8.40625 C 30.429688 -8.40625 32.640625 -9.5 34.515625 -11.6875 C 36.390625 -13.882812 37.328125 -17.4375 37.328125 -22.34375 C 37.328125 -26.738281 36.535156 -30.25 34.953125 -32.875 C 33.367188 -35.5 30.84375 -36.8125 27.375 -36.8125 C 24.488281 -36.8125 22.117188 -35.671875 20.265625 -33.390625 C 18.421875 -31.109375 17.5 -27.773438 17.5 -23.390625 Z M 17.5 -23.390625 "/></g></g></g><g fill="#000000" fill-opacity="1"><g transform="translate(259.840065, 70.743654)"><g><path d="M 26.59375 -45.90625 C 31.445312 -45.90625 35.632812 -44.804688 39.15625 -42.609375 C 42.675781 -40.421875 45.332031 -37.535156 47.125 -33.953125 C 48.914062 -30.378906 49.8125 -26.597656 49.8125 -22.609375 C 49.8125 -18.453125 48.867188 -14.566406 46.984375 -10.953125 C 45.109375 -7.347656 42.425781 -4.445312 38.9375 -2.25 C 35.445312 -0.0507812 31.363281 1.046875 26.6875 1.046875 C 22.695312 1.046875 18.941406 0.222656 15.421875 -1.421875 C 11.898438 -3.066406 9.023438 -5.691406 6.796875 -9.296875 C 4.578125 -12.910156 3.46875 -17.492188 3.46875 -23.046875 C 3.46875 -26.910156 4.347656 -30.585938 6.109375 -34.078125 C 7.867188 -37.578125 10.492188 -40.421875 13.984375 -42.609375 C 17.484375 -44.804688 21.6875 -45.90625 26.59375 -45.90625 Z M 15.671875 -22.4375 C 15.671875 -17.925781 16.722656 -14.5 18.828125 -12.15625 C 20.941406 -9.820312 23.53125 -8.65625 26.59375 -8.65625 C 29.65625 -8.65625 32.253906 -9.8125 34.390625 -12.125 C 36.523438 -14.4375 37.59375 -17.898438 37.59375 -22.515625 C 37.59375 -26.796875 36.566406 -30.144531 34.515625 -32.5625 C 32.460938 -34.988281 29.789062 -36.203125 26.5 -36.203125 C 23.5 -36.203125 20.941406 -35.019531 18.828125 -32.65625 C 16.722656 -30.289062 15.671875 -26.882812 15.671875 -22.4375 Z M 15.671875 -22.4375 "/></g></g></g><g fill="#000000" fill-opacity="1"><g transform="translate(312.760839, 70.743654)"><g><path d="M 27.03125 -45.90625 C 28.300781 -45.90625 29.640625 -45.703125 31.046875 -45.296875 C 32.460938 -44.898438 33.722656 -44.382812 34.828125 -43.75 L 31.09375 -33.34375 C 29.070312 -34.613281 27.222656 -35.25 25.546875 -35.25 C 23.296875 -35.25 21.59375 -34.484375 20.4375 -32.953125 C 19.289062 -31.429688 18.523438 -29.296875 18.140625 -26.546875 C 17.765625 -23.804688 17.578125 -20.15625 17.578125 -15.59375 L 17.578125 0 L 5.71875 0 L 5.71875 -44.875 L 16.71875 -44.875 L 16.71875 -38.546875 L 16.890625 -38.546875 C 18.335938 -40.972656 19.78125 -42.804688 21.21875 -44.046875 C 22.664062 -45.285156 24.601562 -45.90625 27.03125 -45.90625 Z M 27.03125 -45.90625 "/></g></g></g><g fill="#000000" fill-opacity="1"><g transform="translate(346.453434, 70.743654)"><g><path d="M 26.59375 -45.90625 C 31.445312 -45.90625 35.632812 -44.804688 39.15625 -42.609375 C 42.675781 -40.421875 45.332031 -37.535156 47.125 -33.953125 C 48.914062 -30.378906 49.8125 -26.597656 49.8125 -22.609375 C 49.8125 -18.453125 48.867188 -14.566406 46.984375 -10.953125 C 45.109375 -7.347656 42.425781 -4.445312 38.9375 -2.25 C 35.445312 -0.0507812 31.363281 1.046875 26.6875 1.046875 C 22.695312 1.046875 18.941406 0.222656 15.421875 -1.421875 C 11.898438 -3.066406 9.023438 -5.691406 6.796875 -9.296875 C 4.578125 -12.910156 3.46875 -17.492188 3.46875 -23.046875 C 3.46875 -26.910156 4.347656 -30.585938 6.109375 -34.078125 C 7.867188 -37.578125 10.492188 -40.421875 13.984375 -42.609375 C 17.484375 -44.804688 21.6875 -45.90625 26.59375 -45.90625 Z M 15.671875 -22.4375 C 15.671875 -17.925781 16.722656 -14.5 18.828125 -12.15625 C 20.941406 -9.820312 23.53125 -8.65625 26.59375 -8.65625 C 29.65625 -8.65625 32.253906 -9.8125 34.390625 -12.125 C 36.523438 -14.4375 37.59375 -17.898438 37.59375 -22.515625 C 37.59375 -26.796875 36.566406 -30.144531 34.515625 -32.5625 C 32.460938 -34.988281 29.789062 -36.203125 26.5 -36.203125 C 23.5 -36.203125 20.941406 -35.019531 18.828125 -32.65625 C 16.722656 -30.289062 15.671875 -26.882812 15.671875 -22.4375 Z M 15.671875 -22.4375 "/></g></g></g><g fill="#000000" fill-opacity="1"><g transform="translate(399.374207, 70.743654)"><g><path d="M 22.609375 -45.90625 C 28.210938 -45.90625 32.613281 -44.984375 35.8125 -43.140625 C 39.019531 -41.296875 41.234375 -38.265625 42.453125 -34.046875 L 31.1875 -31.96875 C 30.664062 -33.8125 29.722656 -35.179688 28.359375 -36.078125 C 27.003906 -36.972656 25.117188 -37.421875 22.703125 -37.421875 C 17.328125 -37.421875 14.640625 -36.179688 14.640625 -33.703125 C 14.640625 -32.484375 15.519531 -31.515625 17.28125 -30.796875 C 19.039062 -30.078125 21.597656 -29.34375 24.953125 -28.59375 C 29.046875 -27.664062 32.390625 -26.722656 34.984375 -25.765625 C 37.585938 -24.816406 39.726562 -23.40625 41.40625 -21.53125 C 43.082031 -19.65625 43.921875 -17.15625 43.921875 -14.03125 C 43.921875 -11.488281 43.210938 -9.078125 41.796875 -6.796875 C 40.378906 -4.515625 38.140625 -2.632812 35.078125 -1.15625 C 32.015625 0.3125 28.144531 1.046875 23.46875 1.046875 C 18.21875 1.046875 13.582031 -0.078125 9.5625 -2.328125 C 5.550781 -4.585938 3.03125 -8.085938 2 -12.828125 L 13.859375 -14.640625 C 14.953125 -9.847656 18.15625 -7.453125 23.46875 -7.453125 C 25.550781 -7.453125 27.5 -7.8125 29.3125 -8.53125 C 31.132812 -9.25 32.046875 -10.535156 32.046875 -12.390625 C 32.046875 -13.597656 31.628906 -14.445312 30.796875 -14.9375 C 29.960938 -15.425781 28.617188 -15.875 26.765625 -16.28125 C 21.273438 -17.5 17 -18.625 13.9375 -19.65625 C 10.882812 -20.695312 8.40625 -22.195312 6.5 -24.15625 C 4.59375 -26.125 3.640625 -28.785156 3.640625 -32.140625 C 3.640625 -36.816406 5.425781 -40.28125 9 -42.53125 C 12.582031 -44.78125 17.117188 -45.90625 22.609375 -45.90625 Z M 22.609375 -45.90625 "/></g></g></g><g fill="#000000" fill-opacity="1"><g transform="translate(447.531218, 70.743654)"><g/></g></g><g fill="#000000" fill-opacity="1"><g transform="translate(471.609723, 70.743654)"><g><path d="M 30.3125 -45.90625 C 36.144531 -45.90625 40.390625 -43.539062 43.046875 -38.8125 C 46.921875 -43.539062 51.484375 -45.90625 56.734375 -45.90625 C 61.703125 -45.90625 65.398438 -44.546875 67.828125 -41.828125 C 70.253906 -39.117188 71.46875 -35.050781 71.46875 -29.625 L 71.46875 0 L 59.59375 0 L 59.59375 -26.859375 C 59.59375 -30.085938 59.175781 -32.550781 58.34375 -34.25 C 57.507812 -35.957031 55.820312 -36.8125 53.28125 -36.8125 C 50.851562 -36.8125 48.898438 -35.972656 47.421875 -34.296875 C 45.953125 -32.628906 45.046875 -30.46875 44.703125 -27.8125 C 44.472656 -25.726562 44.359375 -23.878906 44.359375 -22.265625 L 44.359375 0 L 32.484375 0 L 32.484375 -26.421875 C 32.484375 -30.054688 32.09375 -32.695312 31.3125 -34.34375 C 30.53125 -35.988281 28.867188 -36.8125 26.328125 -36.8125 C 24.484375 -36.8125 22.820312 -36.320312 21.34375 -35.34375 C 19.875 -34.363281 18.851562 -33.003906 18.28125 -31.265625 C 17.582031 -29.191406 17.234375 -26.273438 17.234375 -22.515625 L 17.234375 0 L 5.375 0 L 5.375 -44.875 L 16.375 -44.875 L 16.546875 -38.8125 C 18.390625 -41.0625 20.335938 -42.804688 22.390625 -44.046875 C 24.441406 -45.285156 27.082031 -45.90625 30.3125 -45.90625 Z M 30.3125 -45.90625 "/></g></g></g><g fill="#000000" fill-opacity="1"><g transform="translate(548.609002, 70.743654)"><g><path d="M 23.390625 -45.90625 C 30.546875 -45.90625 35.882812 -43.582031 39.40625 -38.9375 C 42.9375 -34.289062 44.703125 -27.664062 44.703125 -19.0625 L 14.90625 -19.0625 C 15.019531 -16.050781 15.898438 -13.460938 17.546875 -11.296875 C 19.191406 -9.140625 21.570312 -8.0625 24.6875 -8.0625 C 26.65625 -8.0625 28.257812 -8.566406 29.5 -9.578125 C 30.738281 -10.585938 31.644531 -12.160156 32.21875 -14.296875 L 44.09375 -12.296875 C 42.59375 -7.910156 40.164062 -4.585938 36.8125 -2.328125 C 33.46875 -0.078125 29.367188 1.046875 24.515625 1.046875 C 17.296875 1.046875 11.835938 -1.117188 8.140625 -5.453125 C 6.410156 -7.472656 5.082031 -10.015625 4.15625 -13.078125 C 3.226562 -16.140625 2.765625 -19.171875 2.765625 -22.171875 C 2.765625 -26.273438 3.5 -30.128906 4.96875 -33.734375 C 6.445312 -37.347656 8.726562 -40.28125 11.8125 -42.53125 C 14.90625 -44.78125 18.765625 -45.90625 23.390625 -45.90625 Z M 15.15625 -26.328125 L 32.921875 -26.328125 C 32.859375 -29.972656 31.945312 -32.628906 30.1875 -34.296875 C 28.425781 -35.972656 26.363281 -36.8125 24 -36.8125 C 21.226562 -36.8125 19.0625 -35.816406 17.5 -33.828125 C 15.9375 -31.835938 15.15625 -29.335938 15.15625 -26.328125 Z M 15.15625 -26.328125 "/></g></g></g><g fill="#000000" fill-opacity="1"><g transform="translate(596.766013, 70.743654)"><g><path d="M 23.390625 -45.90625 C 30.546875 -45.90625 35.882812 -43.582031 39.40625 -38.9375 C 42.9375 -34.289062 44.703125 -27.664062 44.703125 -19.0625 L 14.90625 -19.0625 C 15.019531 -16.050781 15.898438 -13.460938 17.546875 -11.296875 C 19.191406 -9.140625 21.570312 -8.0625 24.6875 -8.0625 C 26.65625 -8.0625 28.257812 -8.566406 29.5 -9.578125 C 30.738281 -10.585938 31.644531 -12.160156 32.21875 -14.296875 L 44.09375 -12.296875 C 42.59375 -7.910156 40.164062 -4.585938 36.8125 -2.328125 C 33.46875 -0.078125 29.367188 1.046875 24.515625 1.046875 C 17.296875 1.046875 11.835938 -1.117188 8.140625 -5.453125 C 6.410156 -7.472656 5.082031 -10.015625 4.15625 -13.078125 C 3.226562 -16.140625 2.765625 -19.171875 2.765625 -22.171875 C 2.765625 -26.273438 3.5 -30.128906 4.96875 -33.734375 C 6.445312 -37.347656 8.726562 -40.28125 11.8125 -42.53125 C 14.90625 -44.78125 18.765625 -45.90625 23.390625 -45.90625 Z M 15.15625 -26.328125 L 32.921875 -26.328125 C 32.859375 -29.972656 31.945312 -32.628906 30.1875 -34.296875 C 28.425781 -35.972656 26.363281 -36.8125 24 -36.8125 C 21.226562 -36.8125 19.0625 -35.816406 17.5 -33.828125 C 15.9375 -31.835938 15.15625 -29.335938 15.15625 -26.328125 Z M 15.15625 -26.328125 "/></g></g></g><g fill="#000000" fill-opacity="1"><g transform="translate(644.923024, 70.743654)"><g><path d="M 18.71875 -44.875 L 26.765625 -44.875 L 26.765625 -35.421875 L 18.71875 -35.421875 L 18.71875 -15.671875 C 18.71875 -13.773438 18.785156 -12.363281 18.921875 -11.4375 C 19.066406 -10.507812 19.367188 -9.84375 19.828125 -9.4375 C 20.296875 -9.03125 21.019531 -8.828125 22 -8.828125 C 23.21875 -8.828125 24.804688 -9.207031 26.765625 -9.96875 L 27.8125 -0.78125 C 26.59375 -0.195312 25.117188 0.25 23.390625 0.5625 C 21.660156 0.882812 20.015625 1.046875 18.453125 1.046875 C 16.203125 1.046875 14.207031 0.671875 12.46875 -0.078125 C 10.738281 -0.835938 9.46875 -1.851562 8.65625 -3.125 C 7.789062 -4.5625 7.253906 -6.160156 7.046875 -7.921875 C 6.847656 -9.679688 6.75 -11.890625 6.75 -14.546875 L 6.75 -35.421875 L 1.296875 -35.421875 L 1.296875 -44.875 L 6.75 -44.875 L 6.75 -53.796875 L 18.71875 -60.8125 Z M 18.71875 -44.875 "/></g></g></g><g fill="#000000" fill-opacity="1"><g transform="translate(673.765292, 70.743654)"><g><path d="M 22.609375 -45.90625 C 28.210938 -45.90625 32.613281 -44.984375 35.8125 -43.140625 C 39.019531 -41.296875 41.234375 -38.265625 42.453125 -34.046875 L 31.1875 -31.96875 C 30.664062 -33.8125 29.722656 -35.179688 28.359375 -36.078125 C 27.003906 -36.972656 25.117188 -37.421875 22.703125 -37.421875 C 17.328125 -37.421875 14.640625 -36.179688 14.640625 -33.703125 C 14.640625 -32.484375 15.519531 -31.515625 17.28125 -30.796875 C 19.039062 -30.078125 21.597656 -29.34375 24.953125 -28.59375 C 29.046875 -27.664062 32.390625 -26.722656 34.984375 -25.765625 C 37.585938 -24.816406 39.726562 -23.40625 41.40625 -21.53125 C 43.082031 -19.65625 43.921875 -17.15625 43.921875 -14.03125 C 43.921875 -11.488281 43.210938 -9.078125 41.796875 -6.796875 C 40.378906 -4.515625 38.140625 -2.632812 35.078125 -1.15625 C 32.015625 0.3125 28.144531 1.046875 23.46875 1.046875 C 18.21875 1.046875 13.582031 -0.078125 9.5625 -2.328125 C 5.550781 -4.585938 3.03125 -8.085938 2 -12.828125 L 13.859375 -14.640625 C 14.953125 -9.847656 18.15625 -7.453125 23.46875 -7.453125 C 25.550781 -7.453125 27.5 -7.8125 29.3125 -8.53125 C 31.132812 -9.25 32.046875 -10.535156 32.046875 -12.390625 C 32.046875 -13.597656 31.628906 -14.445312 30.796875 -14.9375 C 29.960938 -15.425781 28.617188 -15.875 26.765625 -16.28125 C 21.273438 -17.5 17 -18.625 13.9375 -19.65625 C 10.882812 -20.695312 8.40625 -22.195312 6.5 -24.15625 C 4.59375 -26.125 3.640625 -28.785156 3.640625 -32.140625 C 3.640625 -36.816406 5.425781 -40.28125 9 -42.53125 C 12.582031 -44.78125 17.117188 -45.90625 22.609375 -45.90625 Z M 22.609375 -45.90625 "/></g></g></g><g fill="#000000" fill-opacity="1"><g transform="translate(721.922303, 70.743654)"><g/></g></g><g fill="#000000" fill-opacity="1"><g transform="translate(746.000808, 70.743654)"><g><path d="M 19.140625 -10.484375 L 50.328125 -10.484375 L 50.328125 0 L 6.671875 0 L 6.671875 -62.03125 L 19.140625 -62.03125 Z M 19.140625 -10.484375 "/></g></g></g><g fill="#000000" fill-opacity="1"><g transform="translate(798.921536, 70.743654)"><g><path d="M 26.59375 -45.90625 C 31.445312 -45.90625 35.632812 -44.804688 39.15625 -42.609375 C 42.675781 -40.421875 45.332031 -37.535156 47.125 -33.953125 C 48.914062 -30.378906 49.8125 -26.597656 49.8125 -22.609375 C 49.8125 -18.453125 48.867188 -14.566406 46.984375 -10.953125 C 45.109375 -7.347656 42.425781 -4.445312 38.9375 -2.25 C 35.445312 -0.0507812 31.363281 1.046875 26.6875 1.046875 C 22.695312 1.046875 18.941406 0.222656 15.421875 -1.421875 C 11.898438 -3.066406 9.023438 -5.691406 6.796875 -9.296875 C 4.578125 -12.910156 3.46875 -17.492188 3.46875 -23.046875 C 3.46875 -26.910156 4.347656 -30.585938 6.109375 -34.078125 C 7.867188 -37.578125 10.492188 -40.421875 13.984375 -42.609375 C 17.484375 -44.804688 21.6875 -45.90625 26.59375 -45.90625 Z M 15.671875 -22.4375 C 15.671875 -17.925781 16.722656 -14.5 18.828125 -12.15625 C 20.941406 -9.820312 23.53125 -8.65625 26.59375 -8.65625 C 29.65625 -8.65625 32.253906 -9.8125 34.390625 -12.125 C 36.523438 -14.4375 37.59375 -17.898438 37.59375 -22.515625 C 37.59375 -26.796875 36.566406 -30.144531 34.515625 -32.5625 C 32.460938 -34.988281 29.789062 -36.203125 26.5 -36.203125 C 23.5 -36.203125 20.941406 -35.019531 18.828125 -32.65625 C 16.722656 -30.289062 15.671875 -26.882812 15.671875 -22.4375 Z M 15.671875 -22.4375 "/></g></g></g><g fill="#000000" fill-opacity="1"><g transform="translate(851.842309, 70.743654)"><g><path d="M 17.671875 -29.109375 L 31.625 -44.875 L 46.25 -44.875 L 30.921875 -28.5 L 47.296875 0 L 34.484375 0 L 23.21875 -20.1875 L 17.671875 -14.375 L 17.671875 0 L 5.796875 0 L 5.796875 -62.03125 L 17.671875 -62.03125 Z M 17.671875 -29.109375 "/></g></g></g><g fill="#000000" fill-opacity="1"><g transform="translate(899.99932, 70.743654)"><g><path d="M 18.109375 -51.015625 L 6.234375 -51.015625 L 6.234375 -62.03125 L 18.109375 -62.03125 Z M 18.109375 0 L 6.234375 0 L 6.234375 -44.875 L 18.109375 -44.875 Z M 18.109375 0 "/></g></g></g><g fill="#000000" fill-opacity="1"><g transform="translate(0.00000525, 220.743646)"><g><path d="M 22.8125 0.671875 C 19.40625 0.671875 16.347656 -0.144531 13.640625 -1.78125 C 10.929688 -3.425781 8.773438 -6.03125 7.171875 -9.59375 C 5.566406 -13.15625 4.765625 -17.6875 4.765625 -23.1875 C 4.765625 -28.6875 5.566406 -33.21875 7.171875 -36.78125 C 8.773438 -40.34375 10.929688 -42.941406 13.640625 -44.578125 C 16.347656 -46.222656 19.40625 -47.046875 22.8125 -47.046875 C 26.21875 -47.046875 29.269531 -46.222656 31.96875 -44.578125 C 34.675781 -42.941406 36.828125 -40.34375 38.421875 -36.78125 C 40.023438 -33.21875 40.828125 -28.6875 40.828125 -23.1875 C 40.828125 -17.6875 40.023438 -13.15625 38.421875 -9.59375 C 36.828125 -6.03125 34.675781 -3.425781 31.96875 -1.78125 C 29.269531 -0.144531 26.21875 0.671875 22.8125 0.671875 Z M 22.8125 -4.375 C 26.851562 -4.375 29.914062 -5.828125 32 -8.734375 C 34.082031 -11.648438 35.125 -16.46875 35.125 -23.1875 C 35.125 -29.914062 34.082031 -34.734375 32 -37.640625 C 29.914062 -40.546875 26.851562 -42 22.8125 -42 C 20.144531 -42 17.898438 -41.382812 16.078125 -40.15625 C 14.265625 -38.9375 12.875 -36.941406 11.90625 -34.171875 C 10.945312 -31.398438 10.46875 -27.738281 10.46875 -23.1875 C 10.46875 -18.644531 10.945312 -14.988281 11.90625 -12.21875 C 12.875 -9.445312 14.265625 -7.445312 16.078125 -6.21875 C 17.898438 -4.988281 20.144531 -4.375 22.8125 -4.375 Z M 22.8125 -4.375 "/></g></g></g><g fill="#000000" fill-opacity="1"><g transform="translate(45.609481, 220.743646)"><g><path d="M 29.03125 0 L 23.859375 0 L 23.859375 -11.078125 L 2.125 -11.078125 L 2.125 -15.453125 L 22.59375 -46.375 L 29.03125 -46.375 L 29.03125 -15.453125 L 37.046875 -15.453125 L 37.046875 -11.078125 L 29.03125 -11.078125 Z M 8.53125 -16.109375 L 8.8125 -15.453125 L 23.859375 -15.453125 L 23.859375 -38.828125 L 23.125 -38.953125 Z M 8.53125 -16.109375 "/></g></g></g><g fill="#000000" fill-opacity="1"><g transform="translate(84.90722, 220.743646)"><g/></g></g><g fill="#000000" fill-opacity="1"><g transform="translate(100.829303, 220.743646)"><g><path d="M 12.34375 0 L 7.015625 0 L 7.015625 -46.375 L 13.703125 -46.375 L 36.328125 -10.9375 L 37.109375 -11.078125 L 37.109375 -46.375 L 42.40625 -46.375 L 42.40625 0 L 36.703125 0 L 13.140625 -37.90625 L 12.34375 -37.78125 Z M 12.34375 0 "/></g></g></g><g fill="#000000" fill-opacity="1"><g transform="translate(150.276578, 220.743646)"><g><path d="M 20.078125 0.671875 C 16.773438 0.671875 13.898438 -0.0234375 11.453125 -1.421875 C 9.015625 -2.816406 7.132812 -4.875 5.8125 -7.59375 C 4.5 -10.3125 3.84375 -13.609375 3.84375 -17.484375 C 3.84375 -21.347656 4.5 -24.644531 5.8125 -27.375 C 7.132812 -30.101562 9.015625 -32.164062 11.453125 -33.5625 C 13.898438 -34.957031 16.773438 -35.65625 20.078125 -35.65625 C 23.378906 -35.65625 26.25 -34.957031 28.6875 -33.5625 C 31.132812 -32.164062 33.019531 -30.101562 34.34375 -27.375 C 35.664062 -24.644531 36.328125 -21.347656 36.328125 -17.484375 C 36.328125 -13.609375 35.664062 -10.3125 34.34375 -7.59375 C 33.019531 -4.875 31.132812 -2.816406 28.6875 -1.421875 C 26.25 -0.0234375 23.378906 0.671875 20.078125 0.671875 Z M 20.078125 -3.96875 C 23.566406 -3.96875 26.234375 -5.066406 28.078125 -7.265625 C 29.929688 -9.460938 30.859375 -12.867188 30.859375 -17.484375 C 30.859375 -22.109375 29.929688 -25.519531 28.078125 -27.71875 C 26.234375 -29.925781 23.566406 -31.03125 20.078125 -31.03125 C 16.585938 -31.03125 13.910156 -29.921875 12.046875 -27.703125 C 10.191406 -25.492188 9.265625 -22.085938 9.265625 -17.484375 C 9.265625 -12.867188 10.191406 -9.460938 12.046875 -7.265625 C 13.910156 -5.066406 16.585938 -3.96875 20.078125 -3.96875 Z M 20.078125 -3.96875 "/></g></g></g><g fill="#000000" fill-opacity="1"><g transform="translate(190.430678, 220.743646)"><g><path d="M 22.140625 0 L 15.03125 0 L 1.71875 -34.984375 L 7.296875 -34.984375 L 18.296875 -5.90625 L 19.03125 -5.90625 L 29.953125 -34.984375 L 35.40625 -34.984375 Z M 22.140625 0 "/></g></g></g><g fill="#000000" fill-opacity="1"><g transform="translate(227.519529, 220.743646)"><g/></g></g><g fill="#000000" fill-opacity="1"><g transform="translate(243.441613, 220.743646)"><g><path d="M 2.796875 -2.125 C 2.796875 -4.6875 3.070312 -6.75 3.625 -8.3125 C 4.1875 -9.875 5.144531 -11.332031 6.5 -12.6875 C 7.851562 -14.039062 10.007812 -15.796875 12.96875 -17.953125 L 18.078125 -21.671875 C 19.960938 -23.046875 21.492188 -24.3125 22.671875 -25.46875 C 23.859375 -26.632812 24.796875 -27.898438 25.484375 -29.265625 C 26.171875 -30.628906 26.515625 -32.15625 26.515625 -33.84375 C 26.515625 -36.59375 25.785156 -38.664062 24.328125 -40.0625 C 22.867188 -41.457031 20.585938 -42.15625 17.484375 -42.15625 C 15.023438 -42.15625 12.84375 -41.582031 10.9375 -40.4375 C 9.039062 -39.300781 7.519531 -37.6875 6.375 -35.59375 L 5.640625 -35.46875 L 2.375 -38.890625 C 3.945312 -41.429688 6.003906 -43.425781 8.546875 -44.875 C 11.097656 -46.320312 14.078125 -47.046875 17.484375 -47.046875 C 20.773438 -47.046875 23.507812 -46.484375 25.6875 -45.359375 C 27.875 -44.242188 29.484375 -42.695312 30.515625 -40.71875 C 31.554688 -38.738281 32.078125 -36.445312 32.078125 -33.84375 C 32.078125 -31.769531 31.640625 -29.832031 30.765625 -28.03125 C 29.898438 -26.238281 28.675781 -24.550781 27.09375 -22.96875 C 25.507812 -21.382812 23.519531 -19.710938 21.125 -17.953125 L 15.953125 -14.1875 C 14.023438 -12.769531 12.546875 -11.5625 11.515625 -10.5625 C 10.484375 -9.570312 9.726562 -8.601562 9.25 -7.65625 C 8.769531 -6.71875 8.53125 -5.664062 8.53125 -4.5 L 32.078125 -4.5 L 32.078125 0 L 2.796875 0 Z M 2.796875 -2.125 "/></g></g></g><g fill="#000000" fill-opacity="1"><g transform="translate(279.091856, 220.743646)"><g><path d="M 22.8125 0.671875 C 19.40625 0.671875 16.347656 -0.144531 13.640625 -1.78125 C 10.929688 -3.425781 8.773438 -6.03125 7.171875 -9.59375 C 5.566406 -13.15625 4.765625 -17.6875 4.765625 -23.1875 C 4.765625 -28.6875 5.566406 -33.21875 7.171875 -36.78125 C 8.773438 -40.34375 10.929688 -42.941406 13.640625 -44.578125 C 16.347656 -46.222656 19.40625 -47.046875 22.8125 -47.046875 C 26.21875 -47.046875 29.269531 -46.222656 31.96875 -44.578125 C 34.675781 -42.941406 36.828125 -40.34375 38.421875 -36.78125 C 40.023438 -33.21875 40.828125 -28.6875 40.828125 -23.1875 C 40.828125 -17.6875 40.023438 -13.15625 38.421875 -9.59375 C 36.828125 -6.03125 34.675781 -3.425781 31.96875 -1.78125 C 29.269531 -0.144531 26.21875 0.671875 22.8125 0.671875 Z M 22.8125 -4.375 C 26.851562 -4.375 29.914062 -5.828125 32 -8.734375 C 34.082031 -11.648438 35.125 -16.46875 35.125 -23.1875 C 35.125 -29.914062 34.082031 -34.734375 32 -37.640625 C 29.914062 -40.546875 26.851562 -42 22.8125 -42 C 20.144531 -42 17.898438 -41.382812 16.078125 -40.15625 C 14.265625 -38.9375 12.875 -36.941406 11.90625 -34.171875 C 10.945312 -31.398438 10.46875 -27.738281 10.46875 -23.1875 C 10.46875 -18.644531 10.945312 -14.988281 11.90625 -12.21875 C 12.875 -9.445312 14.265625 -7.445312 16.078125 -6.21875 C 17.898438 -4.988281 20.144531 -4.375 22.8125 -4.375 Z M 22.8125 -4.375 "/></g></g></g><g fill="#000000" fill-opacity="1"><g transform="translate(324.701332, 220.743646)"><g><path d="M 2.796875 -2.125 C 2.796875 -4.6875 3.070312 -6.75 3.625 -8.3125 C 4.1875 -9.875 5.144531 -11.332031 6.5 -12.6875 C 7.851562 -14.039062 10.007812 -15.796875 12.96875 -17.953125 L 18.078125 -21.671875 C 19.960938 -23.046875 21.492188 -24.3125 22.671875 -25.46875 C 23.859375 -26.632812 24.796875 -27.898438 25.484375 -29.265625 C 26.171875 -30.628906 26.515625 -32.15625 26.515625 -33.84375 C 26.515625 -36.59375 25.785156 -38.664062 24.328125 -40.0625 C 22.867188 -41.457031 20.585938 -42.15625 17.484375 -42.15625 C 15.023438 -42.15625 12.84375 -41.582031 10.9375 -40.4375 C 9.039062 -39.300781 7.519531 -37.6875 6.375 -35.59375 L 5.640625 -35.46875 L 2.375 -38.890625 C 3.945312 -41.429688 6.003906 -43.425781 8.546875 -44.875 C 11.097656 -46.320312 14.078125 -47.046875 17.484375 -47.046875 C 20.773438 -47.046875 23.507812 -46.484375 25.6875 -45.359375 C 27.875 -44.242188 29.484375 -42.695312 30.515625 -40.71875 C 31.554688 -38.738281 32.078125 -36.445312 32.078125 -33.84375 C 32.078125 -31.769531 31.640625 -29.832031 30.765625 -28.03125 C 29.898438 -26.238281 28.675781 -24.550781 27.09375 -22.96875 C 25.507812 -21.382812 23.519531 -19.710938 21.125 -17.953125 L 15.953125 -14.1875 C 14.023438 -12.769531 12.546875 -11.5625 11.515625 -10.5625 C 10.484375 -9.570312 9.726562 -8.601562 9.25 -7.65625 C 8.769531 -6.71875 8.53125 -5.664062 8.53125 -4.5 L 32.078125 -4.5 L 32.078125 0 L 2.796875 0 Z M 2.796875 -2.125 "/></g></g></g><g fill="#000000" fill-opacity="1"><g transform="translate(360.351576, 220.743646)"><g><path d="M 18.375 0.671875 C 13.863281 0.671875 10.285156 -0.34375 7.640625 -2.375 C 5.003906 -4.40625 3.289062 -7.21875 2.5 -10.8125 L 6.5625 -12.65625 L 7.296875 -12.53125 C 8.097656 -9.757812 9.335938 -7.6875 11.015625 -6.3125 C 12.703125 -4.9375 15.15625 -4.25 18.375 -4.25 C 21.644531 -4.25 24.132812 -5 25.84375 -6.5 C 27.5625 -8 28.421875 -10.210938 28.421875 -13.140625 C 28.421875 -15.992188 27.546875 -18.171875 25.796875 -19.671875 C 24.054688 -21.171875 21.316406 -21.921875 17.578125 -21.921875 L 12.53125 -21.921875 L 12.53125 -26.421875 L 17.03125 -26.421875 C 19.945312 -26.421875 22.265625 -27.144531 23.984375 -28.59375 C 25.710938 -30.039062 26.578125 -32.085938 26.578125 -34.734375 C 26.578125 -37.253906 25.832031 -39.140625 24.34375 -40.390625 C 22.851562 -41.648438 20.765625 -42.28125 18.078125 -42.28125 C 13.410156 -42.28125 10.082031 -40.421875 8.09375 -36.703125 L 7.359375 -36.578125 L 4.3125 -39.90625 C 5.5625 -42.039062 7.359375 -43.765625 9.703125 -45.078125 C 12.054688 -46.390625 14.847656 -47.046875 18.078125 -47.046875 C 21.035156 -47.046875 23.554688 -46.582031 25.640625 -45.65625 C 27.722656 -44.738281 29.304688 -43.410156 30.390625 -41.671875 C 31.472656 -39.941406 32.015625 -37.875 32.015625 -35.46875 C 32.015625 -33.1875 31.351562 -31.179688 30.03125 -29.453125 C 28.707031 -27.734375 26.957031 -26.375 24.78125 -25.375 L 24.78125 -24.71875 C 27.84375 -23.976562 30.144531 -22.597656 31.6875 -20.578125 C 33.226562 -18.554688 34 -16.078125 34 -13.140625 C 34 -8.734375 32.6875 -5.328125 30.0625 -2.921875 C 27.445312 -0.523438 23.550781 0.671875 18.375 0.671875 Z M 18.375 0.671875 "/></g></g></g><g fill="#000000" fill-opacity="1"><g transform="translate(398.031727, 220.743646)"><g/></g></g><g fill="#000000" fill-opacity="1"><g transform="translate(413.953811, 220.743646)"><g><path d="M 21.34375 -20.203125 L 3.296875 -20.203125 L 3.296875 -24.84375 L 21.34375 -24.84375 Z M 21.34375 -20.203125 "/></g></g></g><g fill="#000000" fill-opacity="1"><g transform="translate(438.566423, 220.743646)"><g/></g></g><g fill="#000000" fill-opacity="1"><g transform="translate(454.488495, 220.743646)"><g><path d="M 18.375 0.671875 C 13.863281 0.671875 10.285156 -0.34375 7.640625 -2.375 C 5.003906 -4.40625 3.289062 -7.21875 2.5 -10.8125 L 6.5625 -12.65625 L 7.296875 -12.53125 C 8.097656 -9.757812 9.335938 -7.6875 11.015625 -6.3125 C 12.703125 -4.9375 15.15625 -4.25 18.375 -4.25 C 21.644531 -4.25 24.132812 -5 25.84375 -6.5 C 27.5625 -8 28.421875 -10.210938 28.421875 -13.140625 C 28.421875 -15.992188 27.546875 -18.171875 25.796875 -19.671875 C 24.054688 -21.171875 21.316406 -21.921875 17.578125 -21.921875 L 12.53125 -21.921875 L 12.53125 -26.421875 L 17.03125 -26.421875 C 19.945312 -26.421875 22.265625 -27.144531 23.984375 -28.59375 C 25.710938 -30.039062 26.578125 -32.085938 26.578125 -34.734375 C 26.578125 -37.253906 25.832031 -39.140625 24.34375 -40.390625 C 22.851562 -41.648438 20.765625 -42.28125 18.078125 -42.28125 C 13.410156 -42.28125 10.082031 -40.421875 8.09375 -36.703125 L 7.359375 -36.578125 L 4.3125 -39.90625 C 5.5625 -42.039062 7.359375 -43.765625 9.703125 -45.078125 C 12.054688 -46.390625 14.847656 -47.046875 18.078125 -47.046875 C 21.035156 -47.046875 23.554688 -46.582031 25.640625 -45.65625 C 27.722656 -44.738281 29.304688 -43.410156 30.390625 -41.671875 C 31.472656 -39.941406 32.015625 -37.875 32.015625 -35.46875 C 32.015625 -33.1875 31.351562 -31.179688 30.03125 -29.453125 C 28.707031 -27.734375 26.957031 -26.375 24.78125 -25.375 L 24.78125 -24.71875 C 27.84375 -23.976562 30.144531 -22.597656 31.6875 -20.578125 C 33.226562 -18.554688 34 -16.078125 34 -13.140625 C 34 -8.734375 32.6875 -5.328125 30.0625 -2.921875 C 27.445312 -0.523438 23.550781 0.671875 18.375 0.671875 Z M 18.375 0.671875 "/></g></g></g><g fill="#000000" fill-opacity="1"><g transform="translate(492.168646, 220.743646)"><g/></g></g><g fill="#000000" fill-opacity="1"><g transform="translate(508.090742, 220.743646)"><g><path d="M 6.09375 0 L 6.09375 -49.046875 L 11.265625 -49.046875 L 11.265625 -30.015625 L 11.921875 -29.890625 C 14.421875 -33.734375 18.03125 -35.65625 22.75 -35.65625 C 26.957031 -35.65625 30.003906 -34.582031 31.890625 -32.4375 C 33.785156 -30.289062 34.734375 -26.984375 34.734375 -22.515625 L 34.734375 0 L 29.5625 0 L 29.5625 -22.390625 C 29.5625 -24.503906 29.289062 -26.203125 28.75 -27.484375 C 28.21875 -28.765625 27.382812 -29.695312 26.25 -30.28125 C 25.113281 -30.863281 23.628906 -31.15625 21.796875 -31.15625 C 18.617188 -31.15625 16.066406 -30.128906 14.140625 -28.078125 C 12.222656 -26.023438 11.265625 -22.648438 11.265625 -17.953125 L 11.265625 0 Z M 6.09375 0 "/></g></g></g><g fill="#000000" fill-opacity="1"><g transform="translate(548.3717, 220.743646)"><g><path d="M 20.078125 0.671875 C 16.773438 0.671875 13.898438 -0.0234375 11.453125 -1.421875 C 9.015625 -2.816406 7.132812 -4.875 5.8125 -7.59375 C 4.5 -10.3125 3.84375 -13.609375 3.84375 -17.484375 C 3.84375 -21.347656 4.5 -24.644531 5.8125 -27.375 C 7.132812 -30.101562 9.015625 -32.164062 11.453125 -33.5625 C 13.898438 -34.957031 16.773438 -35.65625 20.078125 -35.65625 C 23.378906 -35.65625 26.25 -34.957031 28.6875 -33.5625 C 31.132812 -32.164062 33.019531 -30.101562 34.34375 -27.375 C 35.664062 -24.644531 36.328125 -21.347656 36.328125 -17.484375 C 36.328125 -13.609375 35.664062 -10.3125 34.34375 -7.59375 C 33.019531 -4.875 31.132812 -2.816406 28.6875 -1.421875 C 26.25 -0.0234375 23.378906 0.671875 20.078125 0.671875 Z M 20.078125 -3.96875 C 23.566406 -3.96875 26.234375 -5.066406 28.078125 -7.265625 C 29.929688 -9.460938 30.859375 -12.867188 30.859375 -17.484375 C 30.859375 -22.109375 29.929688 -25.519531 28.078125 -27.71875 C 26.234375 -29.925781 23.566406 -31.03125 20.078125 -31.03125 C 16.585938 -31.03125 13.910156 -29.921875 12.046875 -27.703125 C 10.191406 -25.492188 9.265625 -22.085938 9.265625 -17.484375 C 9.265625 -12.867188 10.191406 -9.460938 12.046875 -7.265625 C 13.910156 -5.066406 16.585938 -3.96875 20.078125 -3.96875 Z M 20.078125 -3.96875 "/></g></g></g><g fill="#000000" fill-opacity="1"><g transform="translate(588.525812, 220.743646)"><g><path d="M 17.28125 0.671875 C 13.332031 0.671875 10.390625 -0.375 8.453125 -2.46875 C 6.515625 -4.5625 5.546875 -7.628906 5.546875 -11.671875 L 5.546875 -34.984375 L 10.71875 -34.984375 L 10.71875 -11.796875 C 10.71875 -6.492188 13.210938 -3.84375 18.203125 -3.84375 C 21.378906 -3.84375 23.882812 -4.878906 25.71875 -6.953125 C 27.5625 -9.023438 28.484375 -12.382812 28.484375 -17.03125 L 28.484375 -34.984375 L 33.65625 -34.984375 L 33.65625 0 L 28.765625 0 L 28.765625 -5.484375 L 28.109375 -5.640625 C 26.898438 -3.503906 25.453125 -1.914062 23.765625 -0.875 C 22.085938 0.15625 19.925781 0.671875 17.28125 0.671875 Z M 17.28125 0.671875 "/></g></g></g><g fill="#000000" fill-opacity="1"><g transform="translate(628.267616, 220.743646)"><g><path d="M 6.09375 0 L 6.09375 -34.984375 L 11.015625 -34.984375 L 11.015625 -29.5 L 11.671875 -29.34375 C 13.296875 -33.320312 16.363281 -35.3125 20.875 -35.3125 C 23.257812 -35.3125 25.046875 -34.875 26.234375 -34 L 24.90625 -29.625 L 24.265625 -29.5 C 22.953125 -30.15625 21.515625 -30.484375 19.953125 -30.484375 C 17.160156 -30.484375 15.015625 -29.4375 13.515625 -27.34375 C 12.015625 -25.25 11.265625 -21.851562 11.265625 -17.15625 L 11.265625 0 Z M 6.09375 0 "/></g></g></g><g fill="#000000" fill-opacity="1"><g transform="translate(655.290778, 220.743646)"><g><path d="M 15.953125 0.671875 C 13.753906 0.671875 11.71875 0.378906 9.84375 -0.203125 C 7.976562 -0.785156 6.398438 -1.582031 5.109375 -2.59375 C 3.816406 -3.613281 2.90625 -4.757812 2.375 -6.03125 L 5.421875 -9.203125 L 6.09375 -9.203125 C 7.226562 -7.460938 8.597656 -6.15625 10.203125 -5.28125 C 11.816406 -4.40625 13.734375 -3.96875 15.953125 -3.96875 C 18.535156 -3.96875 20.5 -4.46875 21.84375 -5.46875 C 23.1875 -6.476562 23.859375 -7.878906 23.859375 -9.671875 C 23.859375 -11.046875 23.445312 -12.179688 22.625 -13.078125 C 21.8125 -13.984375 20.5 -14.65625 18.6875 -15.09375 L 12.78125 -16.5625 C 9.632812 -17.320312 7.335938 -18.523438 5.890625 -20.171875 C 4.441406 -21.828125 3.71875 -23.867188 3.71875 -26.296875 C 3.71875 -28.203125 4.203125 -29.859375 5.171875 -31.265625 C 6.140625 -32.671875 7.539062 -33.753906 9.375 -34.515625 C 11.207031 -35.273438 13.378906 -35.65625 15.890625 -35.65625 C 19.109375 -35.65625 21.640625 -35.203125 23.484375 -34.296875 C 25.335938 -33.398438 26.785156 -32.148438 27.828125 -30.546875 L 24.90625 -27.6875 L 24.265625 -27.6875 C 23.148438 -28.976562 21.929688 -29.910156 20.609375 -30.484375 C 19.285156 -31.054688 17.710938 -31.34375 15.890625 -31.34375 C 13.585938 -31.34375 11.820312 -30.929688 10.59375 -30.109375 C 9.363281 -29.285156 8.75 -28.085938 8.75 -26.515625 C 8.75 -25.097656 9.179688 -23.957031 10.046875 -23.09375 C 10.921875 -22.226562 12.4375 -21.53125 14.59375 -21 L 20.390625 -19.609375 C 23.441406 -18.890625 25.644531 -17.691406 27 -16.015625 C 28.351562 -14.347656 29.03125 -12.253906 29.03125 -9.734375 C 29.03125 -7.679688 28.539062 -5.875 27.5625 -4.3125 C 26.59375 -2.75 25.125 -1.523438 23.15625 -0.640625 C 21.1875 0.234375 18.785156 0.671875 15.953125 0.671875 Z M 15.953125 0.671875 "/></g></g></g><g fill="#000000" fill-opacity="1"><g transform="translate(0.00000525, 410.493637)"><g><path d="M 15.109375 -58.703125 L 17.296875 -54.078125 C 15.179688 -53.429688 13.609375 -52.441406 12.578125 -51.109375 C 11.554688 -49.785156 11.019531 -47.988281 10.96875 -45.71875 L 16.328125 -45.71875 L 16.328125 -34.59375 L 5.203125 -34.59375 L 5.203125 -43.53125 C 5.203125 -47.582031 5.957031 -50.785156 7.46875 -53.140625 C 8.988281 -55.503906 11.535156 -57.359375 15.109375 -58.703125 Z M 33.78125 -58.703125 L 35.96875 -54.078125 C 33.800781 -53.429688 32.226562 -52.429688 31.25 -51.078125 C 30.28125 -49.722656 29.742188 -47.9375 29.640625 -45.71875 L 35 -45.71875 L 35 -34.59375 L 23.875 -34.59375 L 23.875 -43.609375 C 23.875 -47.671875 24.644531 -50.863281 26.1875 -53.1875 C 27.726562 -55.519531 30.257812 -57.359375 33.78125 -58.703125 Z M 33.78125 -58.703125 "/></g></g></g><g fill="#000000" fill-opacity="1"><g transform="translate(40.599613, 410.493637)"><g><path d="M 17.21875 0 L 5.515625 0 L 5.515625 -58.140625 L 17.21875 -58.140625 Z M 17.21875 0 "/></g></g></g><g fill="#000000" fill-opacity="1"><g transform="translate(63.173003, 410.493637)"><g><path d="M 16.640625 -49.125 C 16.640625 -45.125 15.867188 -41.941406 14.328125 -39.578125 C 12.785156 -37.222656 10.253906 -35.375 6.734375 -34.03125 L 4.546875 -38.65625 C 6.710938 -39.351562 8.296875 -40.351562 9.296875 -41.65625 C 10.296875 -42.957031 10.820312 -44.742188 10.875 -47.015625 L 5.515625 -47.015625 L 5.515625 -58.140625 L 16.640625 -58.140625 Z M 16.640625 -49.125 "/></g></g></g><g fill="#000000" fill-opacity="1"><g transform="translate(85.746393, 410.493637)"><g><path d="M 28.421875 -43.03125 C 33.890625 -43.03125 37.867188 -40.8125 40.359375 -36.375 C 43.984375 -40.8125 48.257812 -43.03125 53.1875 -43.03125 C 57.84375 -43.03125 61.304688 -41.757812 63.578125 -39.21875 C 65.859375 -36.675781 67 -32.859375 67 -27.765625 L 67 0 L 55.875 0 L 55.875 -25.171875 C 55.875 -28.203125 55.476562 -30.515625 54.6875 -32.109375 C 53.90625 -33.710938 52.320312 -34.515625 49.9375 -34.515625 C 47.664062 -34.515625 45.835938 -33.726562 44.453125 -32.15625 C 43.078125 -30.582031 42.226562 -28.550781 41.90625 -26.0625 C 41.6875 -24.113281 41.578125 -22.382812 41.578125 -20.875 L 41.578125 0 L 30.453125 0 L 30.453125 -24.765625 C 30.453125 -28.171875 30.085938 -30.644531 29.359375 -32.1875 C 28.628906 -33.738281 27.070312 -34.515625 24.6875 -34.515625 C 22.957031 -34.515625 21.398438 -34.050781 20.015625 -33.125 C 18.640625 -32.207031 17.679688 -30.9375 17.140625 -29.3125 C 16.484375 -27.363281 16.15625 -24.628906 16.15625 -21.109375 L 16.15625 0 L 5.03125 0 L 5.03125 -42.0625 L 15.34375 -42.0625 L 15.515625 -36.375 C 17.242188 -38.488281 19.066406 -40.125 20.984375 -41.28125 C 22.910156 -42.445312 25.390625 -43.03125 28.421875 -43.03125 Z M 28.421875 -43.03125 "/></g></g></g><g fill="#000000" fill-opacity="1"><g transform="translate(157.932505, 410.493637)"><g/></g></g><g fill="#000000" fill-opacity="1"><g transform="translate(180.505895, 410.493637)"><g><path d="M 31.59375 -59.109375 C 37.707031 -59.109375 42.875 -57.8125 47.09375 -55.21875 C 51.320312 -52.625 54.488281 -49.050781 56.59375 -44.5 C 58.707031 -39.945312 59.765625 -34.773438 59.765625 -28.984375 C 59.765625 -22.816406 58.640625 -17.484375 56.390625 -12.984375 C 54.148438 -8.492188 50.914062 -5.046875 46.6875 -2.640625 C 42.46875 -0.234375 37.488281 0.96875 31.75 0.96875 C 25.738281 0.96875 20.609375 -0.273438 16.359375 -2.765625 C 12.109375 -5.253906 8.898438 -8.726562 6.734375 -13.1875 C 4.566406 -17.65625 3.484375 -22.84375 3.484375 -28.75 C 3.484375 -34.863281 4.566406 -40.207031 6.734375 -44.78125 C 8.898438 -49.351562 12.082031 -52.882812 16.28125 -55.375 C 20.476562 -57.863281 25.582031 -59.109375 31.59375 -59.109375 Z M 15.59375 -29.078125 C 15.59375 -24.523438 16.320312 -20.757812 17.78125 -17.78125 C 19.238281 -14.800781 21.1875 -12.609375 23.625 -11.203125 C 26.0625 -9.796875 28.742188 -9.09375 31.671875 -9.09375 C 34.378906 -9.09375 36.921875 -9.710938 39.296875 -10.953125 C 41.679688 -12.203125 43.671875 -14.328125 45.265625 -17.328125 C 46.867188 -20.335938 47.671875 -24.304688 47.671875 -29.234375 C 47.671875 -35.023438 46.394531 -39.773438 43.84375 -43.484375 C 41.300781 -47.191406 37.21875 -49.046875 31.59375 -49.046875 C 26.007812 -49.046875 21.945312 -47.175781 19.40625 -43.4375 C 16.863281 -39.707031 15.59375 -34.921875 15.59375 -29.078125 Z M 15.59375 -29.078125 "/></g></g></g><g fill="#000000" fill-opacity="1"><g transform="translate(243.678903, 410.493637)"><g><path d="M 16.734375 -20.46875 C 16.734375 -17.488281 16.800781 -15.320312 16.9375 -13.96875 C 17.070312 -12.613281 17.351562 -11.53125 17.78125 -10.71875 C 18.269531 -9.800781 19.015625 -9.039062 20.015625 -8.4375 C 21.015625 -7.84375 22.25 -7.546875 23.71875 -7.546875 C 25.664062 -7.546875 27.421875 -8.085938 28.984375 -9.171875 C 30.554688 -10.253906 31.5625 -11.582031 32 -13.15625 C 32.476562 -14.726562 32.71875 -18.082031 32.71875 -23.21875 L 32.71875 -42.0625 L 43.84375 -42.0625 L 43.84375 0 L 33.53125 0 L 33.53125 -6.328125 L 33.375 -6.328125 C 31.800781 -3.953125 29.769531 -2.140625 27.28125 -0.890625 C 24.789062 0.347656 22.21875 0.96875 19.5625 0.96875 C 17.1875 0.96875 14.925781 0.484375 12.78125 -0.484375 C 10.644531 -1.460938 9.007812 -2.867188 7.875 -4.703125 C 7.0625 -6.003906 6.476562 -7.441406 6.125 -9.015625 C 5.78125 -10.585938 5.609375 -12.5625 5.609375 -14.9375 L 5.609375 -42.0625 L 16.734375 -42.0625 Z M 16.734375 -20.46875 "/></g></g></g><g fill="#000000" fill-opacity="1"><g transform="translate(293.291625, 410.493637)"><g><path d="M 25.328125 -43.03125 C 26.523438 -43.03125 27.785156 -42.84375 29.109375 -42.46875 C 30.429688 -42.09375 31.609375 -41.601562 32.640625 -41 L 29.15625 -31.265625 C 27.257812 -32.453125 25.523438 -33.046875 23.953125 -33.046875 C 21.835938 -33.046875 20.238281 -32.328125 19.15625 -30.890625 C 18.082031 -29.460938 17.367188 -27.460938 17.015625 -24.890625 C 16.660156 -22.316406 16.484375 -18.890625 16.484375 -14.609375 L 16.484375 0 L 5.359375 0 L 5.359375 -42.0625 L 15.671875 -42.0625 L 15.671875 -36.140625 L 15.828125 -36.140625 C 17.179688 -38.410156 18.535156 -40.125 19.890625 -41.28125 C 21.242188 -42.445312 23.054688 -43.03125 25.328125 -43.03125 Z M 25.328125 -43.03125 "/></g></g></g><g fill="#000000" fill-opacity="1"><g transform="translate(324.878118, 410.493637)"><g><path d="M 24.921875 -43.03125 C 29.472656 -43.03125 33.398438 -42 36.703125 -39.9375 C 40.003906 -37.882812 42.492188 -35.179688 44.171875 -31.828125 C 45.847656 -28.472656 46.6875 -24.925781 46.6875 -21.1875 C 46.6875 -17.289062 45.804688 -13.648438 44.046875 -10.265625 C 42.285156 -6.890625 39.769531 -4.171875 36.5 -2.109375 C 33.226562 -0.0546875 29.398438 0.96875 25.015625 0.96875 C 21.273438 0.96875 17.753906 0.195312 14.453125 -1.34375 C 11.148438 -2.882812 8.457031 -5.34375 6.375 -8.71875 C 4.289062 -12.101562 3.25 -16.394531 3.25 -21.59375 C 3.25 -25.226562 4.070312 -28.679688 5.71875 -31.953125 C 7.375 -35.222656 9.835938 -37.882812 13.109375 -39.9375 C 16.390625 -42 20.328125 -43.03125 24.921875 -43.03125 Z M 14.703125 -21.03125 C 14.703125 -16.8125 15.6875 -13.601562 17.65625 -11.40625 C 19.632812 -9.21875 22.054688 -8.125 24.921875 -8.125 C 27.796875 -8.125 30.234375 -9.203125 32.234375 -11.359375 C 34.242188 -13.523438 35.25 -16.773438 35.25 -21.109375 C 35.25 -25.117188 34.285156 -28.257812 32.359375 -30.53125 C 30.441406 -32.800781 27.9375 -33.9375 24.84375 -33.9375 C 22.03125 -33.9375 19.632812 -32.828125 17.65625 -30.609375 C 15.6875 -28.390625 14.703125 -25.195312 14.703125 -21.03125 Z M 14.703125 -21.03125 "/></g></g></g><g fill="#000000" fill-opacity="1"><g transform="translate(374.49084, 410.493637)"><g><path d="M 16.484375 -37.1875 C 19.890625 -41.082031 23.976562 -43.03125 28.75 -43.03125 C 32 -43.03125 34.960938 -42.234375 37.640625 -40.640625 C 40.316406 -39.046875 42.453125 -36.625 44.046875 -33.375 C 45.648438 -30.125 46.453125 -26.144531 46.453125 -21.4375 C 46.453125 -16.5625 45.625 -12.445312 43.96875 -9.09375 C 42.320312 -5.738281 40.15625 -3.222656 37.46875 -1.546875 C 34.789062 0.128906 31.910156 0.96875 28.828125 0.96875 C 26.710938 0.96875 24.453125 0.398438 22.046875 -0.734375 C 19.640625 -1.867188 17.539062 -3.679688 15.75 -6.171875 L 15.75 0 L 5.359375 0 L 5.359375 -58.140625 L 16.484375 -58.140625 Z M 16.40625 -21.921875 C 16.40625 -19.484375 16.578125 -17.492188 16.921875 -15.953125 C 17.273438 -14.410156 17.859375 -13.070312 18.671875 -11.9375 C 20.617188 -9.226562 23.109375 -7.875 26.140625 -7.875 C 28.523438 -7.875 30.597656 -8.898438 32.359375 -10.953125 C 34.117188 -13.015625 35 -16.347656 35 -20.953125 C 35 -25.066406 34.253906 -28.351562 32.765625 -30.8125 C 31.273438 -33.28125 28.90625 -34.515625 25.65625 -34.515625 C 22.945312 -34.515625 20.726562 -33.441406 19 -31.296875 C 17.269531 -29.160156 16.40625 -26.035156 16.40625 -21.921875 Z M 16.40625 -21.921875 "/></g></g></g><g fill="#000000" fill-opacity="1"><g transform="translate(424.103562, 410.493637)"><g><path d="M 24.921875 -43.03125 C 29.472656 -43.03125 33.398438 -42 36.703125 -39.9375 C 40.003906 -37.882812 42.492188 -35.179688 44.171875 -31.828125 C 45.847656 -28.472656 46.6875 -24.925781 46.6875 -21.1875 C 46.6875 -17.289062 45.804688 -13.648438 44.046875 -10.265625 C 42.285156 -6.890625 39.769531 -4.171875 36.5 -2.109375 C 33.226562 -0.0546875 29.398438 0.96875 25.015625 0.96875 C 21.273438 0.96875 17.753906 0.195312 14.453125 -1.34375 C 11.148438 -2.882812 8.457031 -5.34375 6.375 -8.71875 C 4.289062 -12.101562 3.25 -16.394531 3.25 -21.59375 C 3.25 -25.226562 4.070312 -28.679688 5.71875 -31.953125 C 7.375 -35.222656 9.835938 -37.882812 13.109375 -39.9375 C 16.390625 -42 20.328125 -43.03125 24.921875 -43.03125 Z M 14.703125 -21.03125 C 14.703125 -16.8125 15.6875 -13.601562 17.65625 -11.40625 C 19.632812 -9.21875 22.054688 -8.125 24.921875 -8.125 C 27.796875 -8.125 30.234375 -9.203125 32.234375 -11.359375 C 34.242188 -13.523438 35.25 -16.773438 35.25 -21.109375 C 35.25 -25.117188 34.285156 -28.257812 32.359375 -30.53125 C 30.441406 -32.800781 27.9375 -33.9375 24.84375 -33.9375 C 22.03125 -33.9375 19.632812 -32.828125 17.65625 -30.609375 C 15.6875 -28.390625 14.703125 -25.195312 14.703125 -21.03125 Z M 14.703125 -21.03125 "/></g></g></g><g fill="#000000" fill-opacity="1"><g transform="translate(473.716261, 410.493637)"><g><path d="M 25.328125 -43.03125 C 26.523438 -43.03125 27.785156 -42.84375 29.109375 -42.46875 C 30.429688 -42.09375 31.609375 -41.601562 32.640625 -41 L 29.15625 -31.265625 C 27.257812 -32.453125 25.523438 -33.046875 23.953125 -33.046875 C 21.835938 -33.046875 20.238281 -32.328125 19.15625 -30.890625 C 18.082031 -29.460938 17.367188 -27.460938 17.015625 -24.890625 C 16.660156 -22.316406 16.484375 -18.890625 16.484375 -14.609375 L 16.484375 0 L 5.359375 0 L 5.359375 -42.0625 L 15.671875 -42.0625 L 15.671875 -36.140625 L 15.828125 -36.140625 C 17.179688 -38.410156 18.535156 -40.125 19.890625 -41.28125 C 21.242188 -42.445312 23.054688 -43.03125 25.328125 -43.03125 Z M 25.328125 -43.03125 "/></g></g></g><g fill="#000000" fill-opacity="1"><g transform="translate(505.302776, 410.493637)"><g><path d="M 16.734375 -20.46875 C 16.734375 -17.488281 16.800781 -15.320312 16.9375 -13.96875 C 17.070312 -12.613281 17.351562 -11.53125 17.78125 -10.71875 C 18.269531 -9.800781 19.015625 -9.039062 20.015625 -8.4375 C 21.015625 -7.84375 22.25 -7.546875 23.71875 -7.546875 C 25.664062 -7.546875 27.421875 -8.085938 28.984375 -9.171875 C 30.554688 -10.253906 31.5625 -11.582031 32 -13.15625 C 32.476562 -14.726562 32.71875 -18.082031 32.71875 -23.21875 L 32.71875 -42.0625 L 43.84375 -42.0625 L 43.84375 0 L 33.53125 0 L 33.53125 -6.328125 L 33.375 -6.328125 C 31.800781 -3.953125 29.769531 -2.140625 27.28125 -0.890625 C 24.789062 0.347656 22.21875 0.96875 19.5625 0.96875 C 17.1875 0.96875 14.925781 0.484375 12.78125 -0.484375 C 10.644531 -1.460938 9.007812 -2.867188 7.875 -4.703125 C 7.0625 -6.003906 6.476562 -7.441406 6.125 -9.015625 C 5.78125 -10.585938 5.609375 -12.5625 5.609375 -14.9375 L 5.609375 -42.0625 L 16.734375 -42.0625 Z M 16.734375 -20.46875 "/></g></g></g><g fill="#000000" fill-opacity="1"><g transform="translate(554.915476, 410.493637)"><g><path d="M 21.1875 -43.03125 C 26.445312 -43.03125 30.578125 -42.164062 33.578125 -40.4375 C 36.578125 -38.707031 38.648438 -35.863281 39.796875 -31.90625 L 29.234375 -29.96875 C 28.742188 -31.695312 27.863281 -32.976562 26.59375 -33.8125 C 25.320312 -34.65625 23.550781 -35.078125 21.28125 -35.078125 C 16.238281 -35.078125 13.71875 -33.914062 13.71875 -31.59375 C 13.71875 -30.445312 14.539062 -29.535156 16.1875 -28.859375 C 17.84375 -28.191406 20.242188 -27.503906 23.390625 -26.796875 C 27.234375 -25.929688 30.367188 -25.050781 32.796875 -24.15625 C 35.234375 -23.257812 37.238281 -21.929688 38.8125 -20.171875 C 40.382812 -18.421875 41.171875 -16.082031 41.171875 -13.15625 C 41.171875 -10.769531 40.503906 -8.507812 39.171875 -6.375 C 37.847656 -4.238281 35.75 -2.476562 32.875 -1.09375 C 30.007812 0.28125 26.382812 0.96875 22 0.96875 C 17.070312 0.96875 12.726562 -0.0820312 8.96875 -2.1875 C 5.207031 -4.300781 2.84375 -7.578125 1.875 -12.015625 L 13 -13.71875 C 14.019531 -9.226562 17.019531 -6.984375 22 -6.984375 C 23.945312 -6.984375 25.773438 -7.320312 27.484375 -8 C 29.191406 -8.675781 30.046875 -9.878906 30.046875 -11.609375 C 30.046875 -12.742188 29.648438 -13.539062 28.859375 -14 C 28.078125 -14.46875 26.820312 -14.890625 25.09375 -15.265625 C 19.945312 -16.398438 15.9375 -17.453125 13.0625 -18.421875 C 10.195312 -19.398438 7.867188 -20.8125 6.078125 -22.65625 C 4.296875 -24.5 3.40625 -26.988281 3.40625 -30.125 C 3.40625 -34.507812 5.082031 -37.753906 8.4375 -39.859375 C 11.800781 -41.972656 16.050781 -43.03125 21.1875 -43.03125 Z M 21.1875 -43.03125 "/></g></g></g><g fill="#000000" fill-opacity="1"><g transform="translate(600.062233, 410.493637)"><g><path d="M 16.734375 -2.1875 C 16.734375 1.863281 15.972656 5.066406 14.453125 7.421875 C 12.941406 9.785156 10.398438 11.644531 6.828125 13 L 4.625 8.359375 C 6.738281 7.710938 8.296875 6.722656 9.296875 5.390625 C 10.296875 4.066406 10.851562 2.269531 10.96875 0 L 5.609375 0 L 5.609375 -11.125 L 16.734375 -11.125 Z M 16.734375 -2.1875 "/></g></g></g><g fill="#000000" fill-opacity="1"><g transform="translate(622.635611, 410.493637)"><g/></g></g><g fill="#000000" fill-opacity="1"><g transform="translate(645.208989, 410.493637)"><g><path d="M 30.046875 -43.03125 C 32.535156 -43.03125 34.695312 -42.609375 36.53125 -41.765625 C 38.375 -40.929688 39.835938 -39.945312 40.921875 -38.8125 C 42.222656 -37.40625 43.078125 -35.738281 43.484375 -33.8125 C 43.890625 -31.894531 44.09375 -29.773438 44.09375 -27.453125 L 44.09375 0 L 32.96875 0 L 32.96875 -22.984375 C 32.96875 -26.878906 32.535156 -29.773438 31.671875 -31.671875 C 30.804688 -33.566406 28.960938 -34.515625 26.140625 -34.515625 C 23.492188 -34.515625 21.4375 -33.753906 19.96875 -32.234375 C 18.507812 -30.722656 17.644531 -28.960938 17.375 -26.953125 C 17.21875 -25.660156 17.097656 -24.5 17.015625 -23.46875 C 16.929688 -22.4375 16.890625 -21.269531 16.890625 -19.96875 L 16.890625 0 L 5.765625 0 L 5.765625 -42.0625 L 16.328125 -42.0625 L 16.328125 -35.890625 C 17.515625 -37.679688 19.285156 -39.316406 21.640625 -40.796875 C 23.992188 -42.285156 26.796875 -43.03125 30.046875 -43.03125 Z M 30.046875 -43.03125 "/></g></g></g><g fill="#000000" fill-opacity="1"><g transform="translate(694.821688, 410.493637)"><g><path d="M 16.96875 -47.828125 L 5.84375 -47.828125 L 5.84375 -58.140625 L 16.96875 -58.140625 Z M 16.96875 0 L 5.84375 0 L 5.84375 -42.0625 L 16.96875 -42.0625 Z M 16.96875 0 "/></g></g></g><g fill="#000000" fill-opacity="1"><g transform="translate(717.395066, 410.493637)"><g><path d="M 8.4375 -36.703125 C 12.070312 -40.921875 17.21875 -43.03125 23.875 -43.03125 C 33.882812 -43.03125 40.132812 -38.566406 42.625 -29.640625 L 31.671875 -27.6875 C 30.742188 -32.125 28.195312 -34.34375 24.03125 -34.34375 C 21.21875 -34.34375 18.984375 -33.367188 17.328125 -31.421875 C 15.679688 -29.472656 14.859375 -26.304688 14.859375 -21.921875 C 14.859375 -17.648438 15.5625 -14.28125 16.96875 -11.8125 C 18.375 -9.351562 20.785156 -8.125 24.203125 -8.125 C 26.421875 -8.125 28.191406 -8.785156 29.515625 -10.109375 C 30.835938 -11.429688 31.742188 -13.445312 32.234375 -16.15625 L 43.203125 -14.296875 C 40.929688 -4.117188 34.40625 0.96875 23.625 0.96875 C 17.238281 0.96875 12.3125 -0.976562 8.84375 -4.875 C 7.0625 -6.875 5.707031 -9.304688 4.78125 -12.171875 C 3.863281 -15.046875 3.40625 -18 3.40625 -21.03125 C 3.40625 -24.164062 3.835938 -27.085938 4.703125 -29.796875 C 5.578125 -32.503906 6.820312 -34.804688 8.4375 -36.703125 Z M 8.4375 -36.703125 "/></g></g></g><g fill="#000000" fill-opacity="1"><g transform="translate(762.541823, 410.493637)"><g><path d="M 21.921875 -43.03125 C 28.640625 -43.03125 33.648438 -40.851562 36.953125 -36.5 C 40.253906 -32.144531 41.90625 -25.929688 41.90625 -17.859375 L 13.96875 -17.859375 C 14.070312 -15.046875 14.894531 -12.625 16.4375 -10.59375 C 17.988281 -8.5625 20.222656 -7.546875 23.140625 -7.546875 C 24.984375 -7.546875 26.484375 -8.019531 27.640625 -8.96875 C 28.804688 -9.914062 29.660156 -11.394531 30.203125 -13.40625 L 41.328125 -11.53125 C 39.921875 -7.414062 37.644531 -4.300781 34.5 -2.1875 C 31.363281 -0.0820312 27.523438 0.96875 22.984375 0.96875 C 16.210938 0.96875 11.097656 -1.054688 7.640625 -5.109375 C 6.015625 -7.003906 4.765625 -9.382812 3.890625 -12.25 C 3.023438 -15.125 2.59375 -17.96875 2.59375 -20.78125 C 2.59375 -24.625 3.28125 -28.238281 4.65625 -31.625 C 6.039062 -35.007812 8.179688 -37.753906 11.078125 -39.859375 C 13.972656 -41.972656 17.585938 -43.03125 21.921875 -43.03125 Z M 14.203125 -24.6875 L 30.859375 -24.6875 C 30.804688 -28.09375 29.953125 -30.582031 28.296875 -32.15625 C 26.648438 -33.726562 24.71875 -34.515625 22.5 -34.515625 C 19.894531 -34.515625 17.859375 -33.578125 16.390625 -31.703125 C 14.929688 -29.835938 14.203125 -27.5 14.203125 -24.6875 Z M 14.203125 -24.6875 "/></g></g></g><g fill="#000000" fill-opacity="1"><g transform="translate(807.688626, 410.493637)"><g/></g></g><g fill="#000000" fill-opacity="1"><g transform="translate(830.26205, 410.493637)"><g><path d="M 17.546875 -42.0625 L 25.09375 -42.0625 L 25.09375 -33.21875 L 17.546875 -33.21875 L 17.546875 -14.703125 C 17.546875 -12.910156 17.613281 -11.582031 17.75 -10.71875 C 17.882812 -9.851562 18.164062 -9.226562 18.59375 -8.84375 C 19.03125 -8.46875 19.707031 -8.28125 20.625 -8.28125 C 21.757812 -8.28125 23.25 -8.632812 25.09375 -9.34375 L 26.0625 -0.734375 C 24.925781 -0.191406 23.546875 0.222656 21.921875 0.515625 C 20.296875 0.816406 18.753906 0.96875 17.296875 0.96875 C 15.179688 0.96875 13.3125 0.617188 11.6875 -0.078125 C 10.0625 -0.785156 8.875 -1.734375 8.125 -2.921875 C 7.3125 -4.273438 6.804688 -5.773438 6.609375 -7.421875 C 6.421875 -9.078125 6.328125 -11.148438 6.328125 -13.640625 L 6.328125 -33.21875 L 1.21875 -33.21875 L 1.21875 -42.0625 L 6.328125 -42.0625 L 6.328125 -50.421875 L 17.546875 -57 Z M 17.546875 -42.0625 "/></g></g></g><g fill="#000000" fill-opacity="1"><g transform="translate(857.301416, 410.493637)"><g><path d="M 24.921875 -43.03125 C 29.472656 -43.03125 33.398438 -42 36.703125 -39.9375 C 40.003906 -37.882812 42.492188 -35.179688 44.171875 -31.828125 C 45.847656 -28.472656 46.6875 -24.925781 46.6875 -21.1875 C 46.6875 -17.289062 45.804688 -13.648438 44.046875 -10.265625 C 42.285156 -6.890625 39.769531 -4.171875 36.5 -2.109375 C 33.226562 -0.0546875 29.398438 0.96875 25.015625 0.96875 C 21.273438 0.96875 17.753906 0.195312 14.453125 -1.34375 C 11.148438 -2.882812 8.457031 -5.34375 6.375 -8.71875 C 4.289062 -12.101562 3.25 -16.394531 3.25 -21.59375 C 3.25 -25.226562 4.070312 -28.679688 5.71875 -31.953125 C 7.375 -35.222656 9.835938 -37.882812 13.109375 -39.9375 C 16.390625 -42 20.328125 -43.03125 24.921875 -43.03125 Z M 14.703125 -21.03125 C 14.703125 -16.8125 15.6875 -13.601562 17.65625 -11.40625 C 19.632812 -9.21875 22.054688 -8.125 24.921875 -8.125 C 27.796875 -8.125 30.234375 -9.203125 32.234375 -11.359375 C 34.242188 -13.523438 35.25 -16.773438 35.25 -21.109375 C 35.25 -25.117188 34.285156 -28.257812 32.359375 -30.53125 C 30.441406 -32.800781 27.9375 -33.9375 24.84375 -33.9375 C 22.03125 -33.9375 19.632812 -32.828125 17.65625 -30.609375 C 15.6875 -28.390625 14.703125 -25.195312 14.703125 -21.03125 Z M 14.703125 -21.03125 "/></g></g></g><g fill="#000000" fill-opacity="1"><g transform="translate(906.914115, 410.493637)"><g/></g></g><g fill="#000000" fill-opacity="1"><g transform="translate(929.487539, 410.493637)"><g><path d="M 28.421875 -43.03125 C 33.890625 -43.03125 37.867188 -40.8125 40.359375 -36.375 C 43.984375 -40.8125 48.257812 -43.03125 53.1875 -43.03125 C 57.84375 -43.03125 61.304688 -41.757812 63.578125 -39.21875 C 65.859375 -36.675781 67 -32.859375 67 -27.765625 L 67 0 L 55.875 0 L 55.875 -25.171875 C 55.875 -28.203125 55.476562 -30.515625 54.6875 -32.109375 C 53.90625 -33.710938 52.320312 -34.515625 49.9375 -34.515625 C 47.664062 -34.515625 45.835938 -33.726562 44.453125 -32.15625 C 43.078125 -30.582031 42.226562 -28.550781 41.90625 -26.0625 C 41.6875 -24.113281 41.578125 -22.382812 41.578125 -20.875 L 41.578125 0 L 30.453125 0 L 30.453125 -24.765625 C 30.453125 -28.171875 30.085938 -30.644531 29.359375 -32.1875 C 28.628906 -33.738281 27.070312 -34.515625 24.6875 -34.515625 C 22.957031 -34.515625 21.398438 -34.050781 20.015625 -33.125 C 18.640625 -32.207031 17.679688 -30.9375 17.140625 -29.3125 C 16.484375 -27.363281 16.15625 -24.628906 16.15625 -21.109375 L 16.15625 0 L 5.03125 0 L 5.03125 -42.0625 L 15.34375 -42.0625 L 15.515625 -36.375 C 17.242188 -38.488281 19.066406 -40.125 20.984375 -41.28125 C 22.910156 -42.445312 25.390625 -43.03125 28.421875 -43.03125 Z M 28.421875 -43.03125 "/></g></g></g><g fill="#000000" fill-opacity="1"><g transform="translate(1001.673662, 410.493637)"><g><path d="M 21.921875 -43.03125 C 28.640625 -43.03125 33.648438 -40.851562 36.953125 -36.5 C 40.253906 -32.144531 41.90625 -25.929688 41.90625 -17.859375 L 13.96875 -17.859375 C 14.070312 -15.046875 14.894531 -12.625 16.4375 -10.59375 C 17.988281 -8.5625 20.222656 -7.546875 23.140625 -7.546875 C 24.984375 -7.546875 26.484375 -8.019531 27.640625 -8.96875 C 28.804688 -9.914062 29.660156 -11.394531 30.203125 -13.40625 L 41.328125 -11.53125 C 39.921875 -7.414062 37.644531 -4.300781 34.5 -2.1875 C 31.363281 -0.0820312 27.523438 0.96875 22.984375 0.96875 C 16.210938 0.96875 11.097656 -1.054688 7.640625 -5.109375 C 6.015625 -7.003906 4.765625 -9.382812 3.890625 -12.25 C 3.023438 -15.125 2.59375 -17.96875 2.59375 -20.78125 C 2.59375 -24.625 3.28125 -28.238281 4.65625 -31.625 C 6.039062 -35.007812 8.179688 -37.753906 11.078125 -39.859375 C 13.972656 -41.972656 17.585938 -43.03125 21.921875 -43.03125 Z M 14.203125 -24.6875 L 30.859375 -24.6875 C 30.804688 -28.09375 29.953125 -30.582031 28.296875 -32.15625 C 26.648438 -33.726562 24.71875 -34.515625 22.5 -34.515625 C 19.894531 -34.515625 17.859375 -33.578125 16.390625 -31.703125 C 14.929688 -29.835938 14.203125 -27.5 14.203125 -24.6875 Z M 14.203125 -24.6875 "/></g></g></g><g fill="#000000" fill-opacity="1"><g transform="translate(1046.820419, 410.493637)"><g><path d="M 21.921875 -43.03125 C 28.640625 -43.03125 33.648438 -40.851562 36.953125 -36.5 C 40.253906 -32.144531 41.90625 -25.929688 41.90625 -17.859375 L 13.96875 -17.859375 C 14.070312 -15.046875 14.894531 -12.625 16.4375 -10.59375 C 17.988281 -8.5625 20.222656 -7.546875 23.140625 -7.546875 C 24.984375 -7.546875 26.484375 -8.019531 27.640625 -8.96875 C 28.804688 -9.914062 29.660156 -11.394531 30.203125 -13.40625 L 41.328125 -11.53125 C 39.921875 -7.414062 37.644531 -4.300781 34.5 -2.1875 C 31.363281 -0.0820312 27.523438 0.96875 22.984375 0.96875 C 16.210938 0.96875 11.097656 -1.054688 7.640625 -5.109375 C 6.015625 -7.003906 4.765625 -9.382812 3.890625 -12.25 C 3.023438 -15.125 2.59375 -17.96875 2.59375 -20.78125 C 2.59375 -24.625 3.28125 -28.238281 4.65625 -31.625 C 6.039062 -35.007812 8.179688 -37.753906 11.078125 -39.859375 C 13.972656 -41.972656 17.585938 -43.03125 21.921875 -43.03125 Z M 14.203125 -24.6875 L 30.859375 -24.6875 C 30.804688 -28.09375 29.953125 -30.582031 28.296875 -32.15625 C 26.648438 -33.726562 24.71875 -34.515625 22.5 -34.515625 C 19.894531 -34.515625 17.859375 -33.578125 16.390625 -31.703125 C 14.929688 -29.835938 14.203125 -27.5 14.203125 -24.6875 Z M 14.203125 -24.6875 "/></g></g></g><g fill="#000000" fill-opacity="1"><g transform="translate(1091.967176, 410.493637)"><g><path d="M 17.546875 -42.0625 L 25.09375 -42.0625 L 25.09375 -33.21875 L 17.546875 -33.21875 L 17.546875 -14.703125 C 17.546875 -12.910156 17.613281 -11.582031 17.75 -10.71875 C 17.882812 -9.851562 18.164062 -9.226562 18.59375 -8.84375 C 19.03125 -8.46875 19.707031 -8.28125 20.625 -8.28125 C 21.757812 -8.28125 23.25 -8.632812 25.09375 -9.34375 L 26.0625 -0.734375 C 24.925781 -0.191406 23.546875 0.222656 21.921875 0.515625 C 20.296875 0.816406 18.753906 0.96875 17.296875 0.96875 C 15.179688 0.96875 13.3125 0.617188 11.6875 -0.078125 C 10.0625 -0.785156 8.875 -1.734375 8.125 -2.921875 C 7.3125 -4.273438 6.804688 -5.773438 6.609375 -7.421875 C 6.421875 -9.078125 6.328125 -11.148438 6.328125 -13.640625 L 6.328125 -33.21875 L 1.21875 -33.21875 L 1.21875 -42.0625 L 6.328125 -42.0625 L 6.328125 -50.421875 L 17.546875 -57 Z M 17.546875 -42.0625 "/></g></g></g><g fill="#000000" fill-opacity="1"><g transform="translate(0.00000525, 483.243633)"><g><path d="M 22.40625 -12.1875 L 22.578125 -12.1875 L 32.3125 -42.0625 L 43.84375 -42.0625 L 28.984375 -1.546875 L 28.015625 1.296875 C 26.609375 5.253906 25.347656 8.242188 24.234375 10.265625 C 23.128906 12.296875 21.503906 13.929688 19.359375 15.171875 C 17.222656 16.421875 14.289062 17.046875 10.5625 17.046875 C 8.34375 17.046875 6.226562 16.832031 4.21875 16.40625 L 3.25 7.71875 C 5.144531 8.039062 6.6875 8.203125 7.875 8.203125 C 10.207031 8.203125 12.007812 7.59375 13.28125 6.375 C 14.550781 5.15625 15.644531 3.054688 16.5625 0.078125 L 0.5625 -42.0625 L 12.421875 -42.0625 Z M 22.40625 -12.1875 "/></g></g></g><g fill="#000000" fill-opacity="1"><g transform="translate(45.146773, 483.243633)"><g><path d="M 24.921875 -43.03125 C 29.472656 -43.03125 33.398438 -42 36.703125 -39.9375 C 40.003906 -37.882812 42.492188 -35.179688 44.171875 -31.828125 C 45.847656 -28.472656 46.6875 -24.925781 46.6875 -21.1875 C 46.6875 -17.289062 45.804688 -13.648438 44.046875 -10.265625 C 42.285156 -6.890625 39.769531 -4.171875 36.5 -2.109375 C 33.226562 -0.0546875 29.398438 0.96875 25.015625 0.96875 C 21.273438 0.96875 17.753906 0.195312 14.453125 -1.34375 C 11.148438 -2.882812 8.457031 -5.34375 6.375 -8.71875 C 4.289062 -12.101562 3.25 -16.394531 3.25 -21.59375 C 3.25 -25.226562 4.070312 -28.679688 5.71875 -31.953125 C 7.375 -35.222656 9.835938 -37.882812 13.109375 -39.9375 C 16.390625 -42 20.328125 -43.03125 24.921875 -43.03125 Z M 14.703125 -21.03125 C 14.703125 -16.8125 15.6875 -13.601562 17.65625 -11.40625 C 19.632812 -9.21875 22.054688 -8.125 24.921875 -8.125 C 27.796875 -8.125 30.234375 -9.203125 32.234375 -11.359375 C 34.242188 -13.523438 35.25 -16.773438 35.25 -21.109375 C 35.25 -25.117188 34.285156 -28.257812 32.359375 -30.53125 C 30.441406 -32.800781 27.9375 -33.9375 24.84375 -33.9375 C 22.03125 -33.9375 19.632812 -32.828125 17.65625 -30.609375 C 15.6875 -28.390625 14.703125 -25.195312 14.703125 -21.03125 Z M 14.703125 -21.03125 "/></g></g></g><g fill="#000000" fill-opacity="1"><g transform="translate(94.759495, 483.243633)"><g><path d="M 16.734375 -20.46875 C 16.734375 -17.488281 16.800781 -15.320312 16.9375 -13.96875 C 17.070312 -12.613281 17.351562 -11.53125 17.78125 -10.71875 C 18.269531 -9.800781 19.015625 -9.039062 20.015625 -8.4375 C 21.015625 -7.84375 22.25 -7.546875 23.71875 -7.546875 C 25.664062 -7.546875 27.421875 -8.085938 28.984375 -9.171875 C 30.554688 -10.253906 31.5625 -11.582031 32 -13.15625 C 32.476562 -14.726562 32.71875 -18.082031 32.71875 -23.21875 L 32.71875 -42.0625 L 43.84375 -42.0625 L 43.84375 0 L 33.53125 0 L 33.53125 -6.328125 L 33.375 -6.328125 C 31.800781 -3.953125 29.769531 -2.140625 27.28125 -0.890625 C 24.789062 0.347656 22.21875 0.96875 19.5625 0.96875 C 17.1875 0.96875 14.925781 0.484375 12.78125 -0.484375 C 10.644531 -1.460938 9.007812 -2.867188 7.875 -4.703125 C 7.0625 -6.003906 6.476562 -7.441406 6.125 -9.015625 C 5.78125 -10.585938 5.609375 -12.5625 5.609375 -14.9375 L 5.609375 -42.0625 L 16.734375 -42.0625 Z M 16.734375 -20.46875 "/></g></g></g><g fill="#000000" fill-opacity="1"><g transform="translate(144.372217, 483.243633)"><g/></g></g><g fill="#000000" fill-opacity="1"><g transform="translate(166.945607, 483.243633)"><g><path d="M 17.953125 -9.828125 L 47.171875 -9.828125 L 47.171875 0 L 6.25 0 L 6.25 -58.140625 L 17.953125 -58.140625 Z M 17.953125 -9.828125 "/></g></g></g><g fill="#000000" fill-opacity="1"><g transform="translate(216.558329, 483.243633)"><g><path d="M 24.921875 -43.03125 C 29.472656 -43.03125 33.398438 -42 36.703125 -39.9375 C 40.003906 -37.882812 42.492188 -35.179688 44.171875 -31.828125 C 45.847656 -28.472656 46.6875 -24.925781 46.6875 -21.1875 C 46.6875 -17.289062 45.804688 -13.648438 44.046875 -10.265625 C 42.285156 -6.890625 39.769531 -4.171875 36.5 -2.109375 C 33.226562 -0.0546875 29.398438 0.96875 25.015625 0.96875 C 21.273438 0.96875 17.753906 0.195312 14.453125 -1.34375 C 11.148438 -2.882812 8.457031 -5.34375 6.375 -8.71875 C 4.289062 -12.101562 3.25 -16.394531 3.25 -21.59375 C 3.25 -25.226562 4.070312 -28.679688 5.71875 -31.953125 C 7.375 -35.222656 9.835938 -37.882812 13.109375 -39.9375 C 16.390625 -42 20.328125 -43.03125 24.921875 -43.03125 Z M 14.703125 -21.03125 C 14.703125 -16.8125 15.6875 -13.601562 17.65625 -11.40625 C 19.632812 -9.21875 22.054688 -8.125 24.921875 -8.125 C 27.796875 -8.125 30.234375 -9.203125 32.234375 -11.359375 C 34.242188 -13.523438 35.25 -16.773438 35.25 -21.109375 C 35.25 -25.117188 34.285156 -28.257812 32.359375 -30.53125 C 30.441406 -32.800781 27.9375 -33.9375 24.84375 -33.9375 C 22.03125 -33.9375 19.632812 -32.828125 17.65625 -30.609375 C 15.6875 -28.390625 14.703125 -25.195312 14.703125 -21.03125 Z M 14.703125 -21.03125 "/></g></g></g><g fill="#000000" fill-opacity="1"><g transform="translate(266.171051, 483.243633)"><g><path d="M 16.5625 -27.28125 L 29.640625 -42.0625 L 43.359375 -42.0625 L 28.984375 -26.71875 L 44.34375 0 L 32.3125 0 L 21.765625 -18.921875 L 16.5625 -13.484375 L 16.5625 0 L 5.4375 0 L 5.4375 -58.140625 L 16.5625 -58.140625 Z M 16.5625 -27.28125 "/></g></g></g><g fill="#000000" fill-opacity="1"><g transform="translate(311.31783, 483.243633)"><g><path d="M 16.96875 -47.828125 L 5.84375 -47.828125 L 5.84375 -58.140625 L 16.96875 -58.140625 Z M 16.96875 0 L 5.84375 0 L 5.84375 -42.0625 L 16.96875 -42.0625 Z M 16.96875 0 "/></g></g></g><g fill="#000000" fill-opacity="1"><g transform="translate(333.891208, 483.243633)"><g><path d="M 16.96875 0 L 5.84375 0 L 5.84375 -11.125 L 16.96875 -11.125 Z M 16.96875 0 "/></g></g></g><g fill="#000000" fill-opacity="1"><g transform="translate(356.464586, 483.243633)"><g><path d="M 16.234375 -49.203125 C 16.234375 -45.148438 15.472656 -41.941406 13.953125 -39.578125 C 12.441406 -37.222656 9.898438 -35.375 6.328125 -34.03125 L 4.140625 -38.65625 C 6.253906 -39.300781 7.8125 -40.285156 8.8125 -41.609375 C 9.8125 -42.941406 10.363281 -44.742188 10.46875 -47.015625 L 5.109375 -47.015625 L 5.109375 -58.140625 L 16.234375 -58.140625 Z M 34.921875 -49.203125 C 34.921875 -45.148438 34.160156 -41.941406 32.640625 -39.578125 C 31.128906 -37.222656 28.585938 -35.375 25.015625 -34.03125 L 22.8125 -38.65625 C 24.925781 -39.300781 26.484375 -40.285156 27.484375 -41.609375 C 28.484375 -42.941406 29.039062 -44.742188 29.15625 -47.015625 L 23.796875 -47.015625 L 23.796875 -58.140625 L 34.921875 -58.140625 Z M 34.921875 -49.203125 "/></g></g></g><g fill="#000000" fill-opacity="1"><g transform="translate(0.00000525, 628.743626)"><g><path d="M 15.109375 -58.703125 L 17.296875 -54.078125 C 15.179688 -53.429688 13.609375 -52.441406 12.578125 -51.109375 C 11.554688 -49.785156 11.019531 -47.988281 10.96875 -45.71875 L 16.328125 -45.71875 L 16.328125 -34.59375 L 5.203125 -34.59375 L 5.203125 -43.53125 C 5.203125 -47.582031 5.957031 -50.785156 7.46875 -53.140625 C 8.988281 -55.503906 11.535156 -57.359375 15.109375 -58.703125 Z M 33.78125 -58.703125 L 35.96875 -54.078125 C 33.800781 -53.429688 32.226562 -52.429688 31.25 -51.078125 C 30.28125 -49.722656 29.742188 -47.9375 29.640625 -45.71875 L 35 -45.71875 L 35 -34.59375 L 23.875 -34.59375 L 23.875 -43.609375 C 23.875 -47.671875 24.644531 -50.863281 26.1875 -53.1875 C 27.726562 -55.519531 30.257812 -57.359375 33.78125 -58.703125 Z M 33.78125 -58.703125 "/></g></g></g><g fill="#000000" fill-opacity="1"><g transform="translate(40.605472, 628.743626)"><g><path d="M 42.21875 -56.84375 C 44.875 -55.925781 47.132812 -54.25 49 -51.8125 C 50.875 -49.375 51.8125 -46.613281 51.8125 -43.53125 C 51.8125 -40.382812 50.941406 -37.703125 49.203125 -35.484375 C 47.472656 -33.265625 45.609375 -31.75 43.609375 -30.9375 C 47.503906 -29.800781 50.316406 -27.929688 52.046875 -25.328125 C 53.785156 -22.734375 54.65625 -19.921875 54.65625 -16.890625 C 54.65625 -13.535156 53.675781 -10.34375 51.71875 -7.3125 C 49.769531 -4.28125 47.144531 -2.25 43.84375 -1.21875 C 42.382812 -0.726562 40.546875 -0.398438 38.328125 -0.234375 C 36.109375 -0.078125 33.398438 0 30.203125 0 L 5.921875 0 L 5.921875 -58.140625 L 30.203125 -58.140625 C 33.023438 -58.140625 35.367188 -58.054688 37.234375 -57.890625 C 39.097656 -57.734375 40.757812 -57.382812 42.21875 -56.84375 Z M 40.359375 -41.65625 C 40.359375 -43.175781 39.992188 -44.4375 39.265625 -45.4375 C 38.535156 -46.4375 37.597656 -47.179688 36.453125 -47.671875 C 35.429688 -48.097656 33.457031 -48.3125 30.53125 -48.3125 L 17.625 -48.3125 L 17.625 -35 L 30.78125 -35 C 37.164062 -35 40.359375 -37.21875 40.359375 -41.65625 Z M 36.375 -10.15625 C 38.164062 -10.425781 39.640625 -11.164062 40.796875 -12.375 C 41.960938 -13.59375 42.546875 -15.207031 42.546875 -17.21875 C 42.546875 -19.488281 41.976562 -21.207031 40.84375 -22.375 C 39.707031 -23.539062 38.175781 -24.296875 36.25 -24.640625 C 34.332031 -24.992188 31.832031 -25.171875 28.75 -25.171875 L 17.625 -25.171875 L 17.625 -9.828125 L 29.796875 -9.828125 C 32.617188 -9.828125 34.8125 -9.9375 36.375 -10.15625 Z M 36.375 -10.15625 "/></g></g></g><g fill="#000000" fill-opacity="1"><g transform="translate(99.231309, 628.743626)"><g><path d="M 16.734375 -20.46875 C 16.734375 -17.488281 16.800781 -15.320312 16.9375 -13.96875 C 17.070312 -12.613281 17.351562 -11.53125 17.78125 -10.71875 C 18.269531 -9.800781 19.015625 -9.039062 20.015625 -8.4375 C 21.015625 -7.84375 22.25 -7.546875 23.71875 -7.546875 C 25.664062 -7.546875 27.421875 -8.085938 28.984375 -9.171875 C 30.554688 -10.253906 31.5625 -11.582031 32 -13.15625 C 32.476562 -14.726562 32.71875 -18.082031 32.71875 -23.21875 L 32.71875 -42.0625 L 43.84375 -42.0625 L 43.84375 0 L 33.53125 0 L 33.53125 -6.328125 L 33.375 -6.328125 C 31.800781 -3.953125 29.769531 -2.140625 27.28125 -0.890625 C 24.789062 0.347656 22.21875 0.96875 19.5625 0.96875 C 17.1875 0.96875 14.925781 0.484375 12.78125 -0.484375 C 10.644531 -1.460938 9.007812 -2.867188 7.875 -4.703125 C 7.0625 -6.003906 6.476562 -7.441406 6.125 -9.015625 C 5.78125 -10.585938 5.609375 -12.5625 5.609375 -14.9375 L 5.609375 -42.0625 L 16.734375 -42.0625 Z M 16.734375 -20.46875 "/></g></g></g><g fill="#000000" fill-opacity="1"><g transform="translate(148.84403, 628.743626)"><g><path d="M 17.546875 -42.0625 L 25.09375 -42.0625 L 25.09375 -33.21875 L 17.546875 -33.21875 L 17.546875 -14.703125 C 17.546875 -12.910156 17.613281 -11.582031 17.75 -10.71875 C 17.882812 -9.851562 18.164062 -9.226562 18.59375 -8.84375 C 19.03125 -8.46875 19.707031 -8.28125 20.625 -8.28125 C 21.757812 -8.28125 23.25 -8.632812 25.09375 -9.34375 L 26.0625 -0.734375 C 24.925781 -0.191406 23.546875 0.222656 21.921875 0.515625 C 20.296875 0.816406 18.753906 0.96875 17.296875 0.96875 C 15.179688 0.96875 13.3125 0.617188 11.6875 -0.078125 C 10.0625 -0.785156 8.875 -1.734375 8.125 -2.921875 C 7.3125 -4.273438 6.804688 -5.773438 6.609375 -7.421875 C 6.421875 -9.078125 6.328125 -11.148438 6.328125 -13.640625 L 6.328125 -33.21875 L 1.21875 -33.21875 L 1.21875 -42.0625 L 6.328125 -42.0625 L 6.328125 -50.421875 L 17.546875 -57 Z M 17.546875 -42.0625 "/></g></g></g><g fill="#000000" fill-opacity="1"><g transform="translate(175.883374, 628.743626)"><g/></g></g><g fill="#000000" fill-opacity="1"><g transform="translate(198.456764, 628.743626)"><g><path d="M 16.890625 -36.703125 C 18.785156 -38.921875 20.773438 -40.53125 22.859375 -41.53125 C 24.941406 -42.53125 27.203125 -43.03125 29.640625 -43.03125 C 31.960938 -43.03125 34.03125 -42.675781 35.84375 -41.96875 C 37.664062 -41.269531 39.171875 -40.351562 40.359375 -39.21875 C 42.796875 -36.832031 44.015625 -32.445312 44.015625 -26.0625 L 44.015625 0 L 32.890625 0 L 32.890625 -23.71875 C 32.890625 -26.257812 32.722656 -28.285156 32.390625 -29.796875 C 32.066406 -31.316406 31.414062 -32.484375 30.4375 -33.296875 C 29.46875 -34.109375 27.984375 -34.515625 25.984375 -34.515625 C 22.460938 -34.515625 20.066406 -33.375 18.796875 -31.09375 C 17.523438 -28.820312 16.890625 -25.789062 16.890625 -22 L 16.890625 0 L 5.765625 0 L 5.765625 -58.140625 L 16.890625 -58.140625 Z M 16.890625 -36.703125 "/></g></g></g><g fill="#000000" fill-opacity="1"><g transform="translate(248.069497, 628.743626)"><g><path d="M 21.921875 -43.03125 C 28.640625 -43.03125 33.648438 -40.851562 36.953125 -36.5 C 40.253906 -32.144531 41.90625 -25.929688 41.90625 -17.859375 L 13.96875 -17.859375 C 14.070312 -15.046875 14.894531 -12.625 16.4375 -10.59375 C 17.988281 -8.5625 20.222656 -7.546875 23.140625 -7.546875 C 24.984375 -7.546875 26.484375 -8.019531 27.640625 -8.96875 C 28.804688 -9.914062 29.660156 -11.394531 30.203125 -13.40625 L 41.328125 -11.53125 C 39.921875 -7.414062 37.644531 -4.300781 34.5 -2.1875 C 31.363281 -0.0820312 27.523438 0.96875 22.984375 0.96875 C 16.210938 0.96875 11.097656 -1.054688 7.640625 -5.109375 C 6.015625 -7.003906 4.765625 -9.382812 3.890625 -12.25 C 3.023438 -15.125 2.59375 -17.96875 2.59375 -20.78125 C 2.59375 -24.625 3.28125 -28.238281 4.65625 -31.625 C 6.039062 -35.007812 8.179688 -37.753906 11.078125 -39.859375 C 13.972656 -41.972656 17.585938 -43.03125 21.921875 -43.03125 Z M 14.203125 -24.6875 L 30.859375 -24.6875 C 30.804688 -28.09375 29.953125 -30.582031 28.296875 -32.15625 C 26.648438 -33.726562 24.71875 -34.515625 22.5 -34.515625 C 19.894531 -34.515625 17.859375 -33.578125 16.390625 -31.703125 C 14.929688 -29.835938 14.203125 -27.5 14.203125 -24.6875 Z M 14.203125 -24.6875 "/></g></g></g><g fill="#000000" fill-opacity="1"><g transform="translate(293.216254, 628.743626)"><g/></g></g><g fill="#000000" fill-opacity="1"><g transform="translate(315.789632, 628.743626)"><g><path d="M 8.4375 -36.703125 C 12.070312 -40.921875 17.21875 -43.03125 23.875 -43.03125 C 33.882812 -43.03125 40.132812 -38.566406 42.625 -29.640625 L 31.671875 -27.6875 C 30.742188 -32.125 28.195312 -34.34375 24.03125 -34.34375 C 21.21875 -34.34375 18.984375 -33.367188 17.328125 -31.421875 C 15.679688 -29.472656 14.859375 -26.304688 14.859375 -21.921875 C 14.859375 -17.648438 15.5625 -14.28125 16.96875 -11.8125 C 18.375 -9.351562 20.785156 -8.125 24.203125 -8.125 C 26.421875 -8.125 28.191406 -8.785156 29.515625 -10.109375 C 30.835938 -11.429688 31.742188 -13.445312 32.234375 -16.15625 L 43.203125 -14.296875 C 40.929688 -4.117188 34.40625 0.96875 23.625 0.96875 C 17.238281 0.96875 12.3125 -0.976562 8.84375 -4.875 C 7.0625 -6.875 5.707031 -9.304688 4.78125 -12.171875 C 3.863281 -15.046875 3.40625 -18 3.40625 -21.03125 C 3.40625 -24.164062 3.835938 -27.085938 4.703125 -29.796875 C 5.578125 -32.503906 6.820312 -34.804688 8.4375 -36.703125 Z M 8.4375 -36.703125 "/></g></g></g><g fill="#000000" fill-opacity="1"><g transform="translate(360.936389, 628.743626)"><g><path d="M 22.25 -43.03125 C 27.601562 -43.03125 31.578125 -42.335938 34.171875 -40.953125 C 36.773438 -39.578125 38.414062 -37.765625 39.09375 -35.515625 C 39.769531 -33.273438 40.082031 -30.316406 40.03125 -26.640625 L 39.953125 -14.375 C 39.898438 -10.53125 40.035156 -7.738281 40.359375 -6 C 40.679688 -4.269531 41.359375 -2.269531 42.390625 0 L 31.421875 0 C 31.148438 -0.59375 30.664062 -2.132812 29.96875 -4.625 C 27.957031 -2.675781 25.882812 -1.253906 23.75 -0.359375 C 21.613281 0.523438 19.328125 0.96875 16.890625 0.96875 C 12.722656 0.96875 9.351562 -0.175781 6.78125 -2.46875 C 4.207031 -4.769531 2.921875 -7.765625 2.921875 -11.453125 C 2.921875 -14.535156 3.691406 -16.984375 5.234375 -18.796875 C 6.773438 -20.609375 8.65625 -21.921875 10.875 -22.734375 C 13.09375 -23.546875 15.722656 -24.25 18.765625 -24.84375 C 23.410156 -25.707031 26.847656 -26.578125 29.078125 -27.453125 L 29.078125 -29.234375 C 29.078125 -31.078125 28.535156 -32.414062 27.453125 -33.25 C 26.367188 -34.09375 24.390625 -34.515625 21.515625 -34.515625 C 19.296875 -34.515625 17.644531 -34.066406 16.5625 -33.171875 C 15.476562 -32.273438 14.664062 -30.960938 14.125 -29.234375 L 4.0625 -31.09375 C 5.144531 -35.207031 7.09375 -38.222656 9.90625 -40.140625 C 12.71875 -42.066406 16.832031 -43.03125 22.25 -43.03125 Z M 22.09375 -18.4375 L 20.21875 -18.03125 C 16.101562 -17.164062 14.046875 -15.378906 14.046875 -12.671875 C 14.046875 -11.046875 14.628906 -9.675781 15.796875 -8.5625 C 16.960938 -7.457031 18.4375 -6.90625 20.21875 -6.90625 C 21.675781 -6.90625 23.132812 -7.28125 24.59375 -8.03125 C 26.0625 -8.789062 27.203125 -9.796875 28.015625 -11.046875 C 28.722656 -12.179688 29.078125 -14.128906 29.078125 -16.890625 L 29.078125 -20.21875 C 26.960938 -19.570312 24.632812 -18.976562 22.09375 -18.4375 Z M 22.09375 -18.4375 "/></g></g></g><g fill="#000000" fill-opacity="1"><g transform="translate(406.083146, 628.743626)"><g><path d="M 16.96875 0 L 5.84375 0 L 5.84375 -58.140625 L 16.96875 -58.140625 Z M 16.96875 0 "/></g></g></g><g fill="#000000" fill-opacity="1"><g transform="translate(428.656524, 628.743626)"><g><path d="M 16.96875 0 L 5.84375 0 L 5.84375 -58.140625 L 16.96875 -58.140625 Z M 16.96875 0 "/></g></g></g><g fill="#000000" fill-opacity="1"><g transform="translate(451.229902, 628.743626)"><g><path d="M 21.1875 -43.03125 C 26.445312 -43.03125 30.578125 -42.164062 33.578125 -40.4375 C 36.578125 -38.707031 38.648438 -35.863281 39.796875 -31.90625 L 29.234375 -29.96875 C 28.742188 -31.695312 27.863281 -32.976562 26.59375 -33.8125 C 25.320312 -34.65625 23.550781 -35.078125 21.28125 -35.078125 C 16.238281 -35.078125 13.71875 -33.914062 13.71875 -31.59375 C 13.71875 -30.445312 14.539062 -29.535156 16.1875 -28.859375 C 17.84375 -28.191406 20.242188 -27.503906 23.390625 -26.796875 C 27.234375 -25.929688 30.367188 -25.050781 32.796875 -24.15625 C 35.234375 -23.257812 37.238281 -21.929688 38.8125 -20.171875 C 40.382812 -18.421875 41.171875 -16.082031 41.171875 -13.15625 C 41.171875 -10.769531 40.503906 -8.507812 39.171875 -6.375 C 37.847656 -4.238281 35.75 -2.476562 32.875 -1.09375 C 30.007812 0.28125 26.382812 0.96875 22 0.96875 C 17.070312 0.96875 12.726562 -0.0820312 8.96875 -2.1875 C 5.207031 -4.300781 2.84375 -7.578125 1.875 -12.015625 L 13 -13.71875 C 14.019531 -9.226562 17.019531 -6.984375 22 -6.984375 C 23.945312 -6.984375 25.773438 -7.320312 27.484375 -8 C 29.191406 -8.675781 30.046875 -9.878906 30.046875 -11.609375 C 30.046875 -12.742188 29.648438 -13.539062 28.859375 -14 C 28.078125 -14.46875 26.820312 -14.890625 25.09375 -15.265625 C 19.945312 -16.398438 15.9375 -17.453125 13.0625 -18.421875 C 10.195312 -19.398438 7.867188 -20.8125 6.078125 -22.65625 C 4.296875 -24.5 3.40625 -26.988281 3.40625 -30.125 C 3.40625 -34.507812 5.082031 -37.753906 8.4375 -39.859375 C 11.800781 -41.972656 16.050781 -43.03125 21.1875 -43.03125 Z M 21.1875 -43.03125 "/></g></g></g><g fill="#000000" fill-opacity="1"><g transform="translate(496.376659, 628.743626)"><g/></g></g><g fill="#000000" fill-opacity="1"><g transform="translate(518.950037, 628.743626)"><g><path d="M 28.421875 -43.03125 C 33.890625 -43.03125 37.867188 -40.8125 40.359375 -36.375 C 43.984375 -40.8125 48.257812 -43.03125 53.1875 -43.03125 C 57.84375 -43.03125 61.304688 -41.757812 63.578125 -39.21875 C 65.859375 -36.675781 67 -32.859375 67 -27.765625 L 67 0 L 55.875 0 L 55.875 -25.171875 C 55.875 -28.203125 55.476562 -30.515625 54.6875 -32.109375 C 53.90625 -33.710938 52.320312 -34.515625 49.9375 -34.515625 C 47.664062 -34.515625 45.835938 -33.726562 44.453125 -32.15625 C 43.078125 -30.582031 42.226562 -28.550781 41.90625 -26.0625 C 41.6875 -24.113281 41.578125 -22.382812 41.578125 -20.875 L 41.578125 0 L 30.453125 0 L 30.453125 -24.765625 C 30.453125 -28.171875 30.085938 -30.644531 29.359375 -32.1875 C 28.628906 -33.738281 27.070312 -34.515625 24.6875 -34.515625 C 22.957031 -34.515625 21.398438 -34.050781 20.015625 -33.125 C 18.640625 -32.207031 17.679688 -30.9375 17.140625 -29.3125 C 16.484375 -27.363281 16.15625 -24.628906 16.15625 -21.109375 L 16.15625 0 L 5.03125 0 L 5.03125 -42.0625 L 15.34375 -42.0625 L 15.515625 -36.375 C 17.242188 -38.488281 19.066406 -40.125 20.984375 -41.28125 C 22.910156 -42.445312 25.390625 -43.03125 28.421875 -43.03125 Z M 28.421875 -43.03125 "/></g></g></g><g fill="#000000" fill-opacity="1"><g transform="translate(591.136161, 628.743626)"><g><path d="M 21.921875 -43.03125 C 28.640625 -43.03125 33.648438 -40.851562 36.953125 -36.5 C 40.253906 -32.144531 41.90625 -25.929688 41.90625 -17.859375 L 13.96875 -17.859375 C 14.070312 -15.046875 14.894531 -12.625 16.4375 -10.59375 C 17.988281 -8.5625 20.222656 -7.546875 23.140625 -7.546875 C 24.984375 -7.546875 26.484375 -8.019531 27.640625 -8.96875 C 28.804688 -9.914062 29.660156 -11.394531 30.203125 -13.40625 L 41.328125 -11.53125 C 39.921875 -7.414062 37.644531 -4.300781 34.5 -2.1875 C 31.363281 -0.0820312 27.523438 0.96875 22.984375 0.96875 C 16.210938 0.96875 11.097656 -1.054688 7.640625 -5.109375 C 6.015625 -7.003906 4.765625 -9.382812 3.890625 -12.25 C 3.023438 -15.125 2.59375 -17.96875 2.59375 -20.78125 C 2.59375 -24.625 3.28125 -28.238281 4.65625 -31.625 C 6.039062 -35.007812 8.179688 -37.753906 11.078125 -39.859375 C 13.972656 -41.972656 17.585938 -43.03125 21.921875 -43.03125 Z M 14.203125 -24.6875 L 30.859375 -24.6875 C 30.804688 -28.09375 29.953125 -30.582031 28.296875 -32.15625 C 26.648438 -33.726562 24.71875 -34.515625 22.5 -34.515625 C 19.894531 -34.515625 17.859375 -33.578125 16.390625 -31.703125 C 14.929688 -29.835938 14.203125 -27.5 14.203125 -24.6875 Z M 14.203125 -24.6875 "/></g></g></g><g fill="#000000" fill-opacity="1"><g transform="translate(636.282917, 628.743626)"><g/></g></g><g fill="#000000" fill-opacity="1"><g transform="translate(658.856296, 628.743626)"><g><path d="M 31.59375 -59.109375 C 37.707031 -59.109375 42.875 -57.8125 47.09375 -55.21875 C 51.320312 -52.625 54.488281 -49.050781 56.59375 -44.5 C 58.707031 -39.945312 59.765625 -34.773438 59.765625 -28.984375 C 59.765625 -22.816406 58.640625 -17.484375 56.390625 -12.984375 C 54.148438 -8.492188 50.914062 -5.046875 46.6875 -2.640625 C 42.46875 -0.234375 37.488281 0.96875 31.75 0.96875 C 25.738281 0.96875 20.609375 -0.273438 16.359375 -2.765625 C 12.109375 -5.253906 8.898438 -8.726562 6.734375 -13.1875 C 4.566406 -17.65625 3.484375 -22.84375 3.484375 -28.75 C 3.484375 -34.863281 4.566406 -40.207031 6.734375 -44.78125 C 8.898438 -49.351562 12.082031 -52.882812 16.28125 -55.375 C 20.476562 -57.863281 25.582031 -59.109375 31.59375 -59.109375 Z M 15.59375 -29.078125 C 15.59375 -24.523438 16.320312 -20.757812 17.78125 -17.78125 C 19.238281 -14.800781 21.1875 -12.609375 23.625 -11.203125 C 26.0625 -9.796875 28.742188 -9.09375 31.671875 -9.09375 C 34.378906 -9.09375 36.921875 -9.710938 39.296875 -10.953125 C 41.679688 -12.203125 43.671875 -14.328125 45.265625 -17.328125 C 46.867188 -20.335938 47.671875 -24.304688 47.671875 -29.234375 C 47.671875 -35.023438 46.394531 -39.773438 43.84375 -43.484375 C 41.300781 -47.191406 37.21875 -49.046875 31.59375 -49.046875 C 26.007812 -49.046875 21.945312 -47.175781 19.40625 -43.4375 C 16.863281 -39.707031 15.59375 -34.921875 15.59375 -29.078125 Z M 15.59375 -29.078125 "/></g></g></g><g fill="#000000" fill-opacity="1"><g transform="translate(722.029281, 628.743626)"><g><path d="M 16.96875 0 L 5.84375 0 L 5.84375 -11.125 L 16.96875 -11.125 Z M 16.96875 0 "/></g></g></g><g fill="#000000" fill-opacity="1"><g transform="translate(744.60266, 628.743626)"><g><path d="M 42.21875 -56.84375 C 44.875 -55.925781 47.132812 -54.25 49 -51.8125 C 50.875 -49.375 51.8125 -46.613281 51.8125 -43.53125 C 51.8125 -40.382812 50.941406 -37.703125 49.203125 -35.484375 C 47.472656 -33.265625 45.609375 -31.75 43.609375 -30.9375 C 47.503906 -29.800781 50.316406 -27.929688 52.046875 -25.328125 C 53.785156 -22.734375 54.65625 -19.921875 54.65625 -16.890625 C 54.65625 -13.535156 53.675781 -10.34375 51.71875 -7.3125 C 49.769531 -4.28125 47.144531 -2.25 43.84375 -1.21875 C 42.382812 -0.726562 40.546875 -0.398438 38.328125 -0.234375 C 36.109375 -0.078125 33.398438 0 30.203125 0 L 5.921875 0 L 5.921875 -58.140625 L 30.203125 -58.140625 C 33.023438 -58.140625 35.367188 -58.054688 37.234375 -57.890625 C 39.097656 -57.734375 40.757812 -57.382812 42.21875 -56.84375 Z M 40.359375 -41.65625 C 40.359375 -43.175781 39.992188 -44.4375 39.265625 -45.4375 C 38.535156 -46.4375 37.597656 -47.179688 36.453125 -47.671875 C 35.429688 -48.097656 33.457031 -48.3125 30.53125 -48.3125 L 17.625 -48.3125 L 17.625 -35 L 30.78125 -35 C 37.164062 -35 40.359375 -37.21875 40.359375 -41.65625 Z M 36.375 -10.15625 C 38.164062 -10.425781 39.640625 -11.164062 40.796875 -12.375 C 41.960938 -13.59375 42.546875 -15.207031 42.546875 -17.21875 C 42.546875 -19.488281 41.976562 -21.207031 40.84375 -22.375 C 39.707031 -23.539062 38.175781 -24.296875 36.25 -24.640625 C 34.332031 -24.992188 31.832031 -25.171875 28.75 -25.171875 L 17.625 -25.171875 L 17.625 -9.828125 L 29.796875 -9.828125 C 32.617188 -9.828125 34.8125 -9.9375 36.375 -10.15625 Z M 36.375 -10.15625 "/></g></g></g><g fill="#000000" fill-opacity="1"><g transform="translate(803.228496, 628.743626)"><g><path d="M 16.96875 0 L 5.84375 0 L 5.84375 -11.125 L 16.96875 -11.125 Z M 16.96875 0 "/></g></g></g><g fill="#000000" fill-opacity="1"><g transform="translate(825.801874, 628.743626)"><g><path d="M 16.234375 -49.203125 C 16.234375 -45.148438 15.472656 -41.941406 13.953125 -39.578125 C 12.441406 -37.222656 9.898438 -35.375 6.328125 -34.03125 L 4.140625 -38.65625 C 6.253906 -39.300781 7.8125 -40.285156 8.8125 -41.609375 C 9.8125 -42.941406 10.363281 -44.742188 10.46875 -47.015625 L 5.109375 -47.015625 L 5.109375 -58.140625 L 16.234375 -58.140625 Z M 34.921875 -49.203125 C 34.921875 -45.148438 34.160156 -41.941406 32.640625 -39.578125 C 31.128906 -37.222656 28.585938 -35.375 25.015625 -34.03125 L 22.8125 -38.65625 C 24.925781 -39.300781 26.484375 -40.285156 27.484375 -41.609375 C 28.484375 -42.941406 29.039062 -44.742188 29.15625 -47.015625 L 23.796875 -47.015625 L 23.796875 -58.140625 L 34.921875 -58.140625 Z M 34.921875 -49.203125 "/></g></g></g></svg>