<svg xmlns="http://www.w3.org/2000/svg" xmlns:xlink="http://www.w3.org/1999/xlink" width="1620" zoomAndPan="magnify" viewBox="0 0 1215 809.999993" height="1080" preserveAspectRatio="xMidYMid meet" version="1.0"><defs><g/><clipPath id="1eeff7a8b5"><path d="M 1 167.839844 L 132 167.839844 L 132 300.589844 L 1 300.589844 Z M 1 167.839844 " clip-rule="nonzero"/></clipPath><clipPath id="c752c10d36"><path d="M 31 434 L 101 434 L 101 466.480469 L 31 466.480469 Z M 31 434 " clip-rule="nonzero"/></clipPath><clipPath id="7f7a5b267f"><path d="M 24 333.730469 L 109 333.730469 L 109 449 L 24 449 Z M 24 333.730469 " clip-rule="nonzero"/></clipPath><clipPath id="942e783439"><path d="M 0 499.988281 L 131.25 499.988281 L 131.25 631.238281 L 0 631.238281 Z M 0 499.988281 " clip-rule="nonzero"/></clipPath><clipPath id="4dfa02a0aa"><path d="M 33 665.335938 L 98 665.335938 L 98 734 L 33 734 Z M 33 665.335938 " clip-rule="nonzero"/></clipPath><clipPath id="0831a19a8c"><path d="M 6 733 L 125.835938 733 L 125.835938 796.585938 L 6 796.585938 Z M 6 733 " clip-rule="nonzero"/></clipPath></defs><g clip-path="url(#1eeff7a8b5)"><path fill="#000000" d="M 128.757812 206.644531 L 36.613281 206.644531 L 127.15625 189.539062 C 127.519531 189.46875 127.851562 189.335938 128.160156 189.136719 C 128.46875 188.9375 128.726562 188.683594 128.933594 188.382812 C 129.140625 188.078125 129.285156 187.746094 129.359375 187.386719 C 129.433594 187.027344 129.4375 186.667969 129.371094 186.308594 L 126.277344 170.007812 C 126.210938 169.644531 126.078125 169.3125 125.878906 169.003906 C 125.675781 168.695312 125.425781 168.4375 125.121094 168.230469 C 124.820312 168.023438 124.488281 167.882812 124.128906 167.804688 C 123.769531 167.730469 123.410156 167.726562 123.046875 167.792969 L 3.480469 190.390625 C 3.117188 190.457031 2.785156 190.589844 2.476562 190.789062 C 2.167969 190.992188 1.910156 191.242188 1.703125 191.546875 C 1.496094 191.847656 1.355469 192.179688 1.277344 192.539062 C 1.203125 192.898438 1.199219 193.257812 1.265625 193.621094 L 4.296875 209.660156 L 4.296875 287.683594 C 4.300781 288.535156 4.382812 289.382812 4.550781 290.21875 C 4.71875 291.054688 4.964844 291.867188 5.292969 292.652344 C 5.617188 293.441406 6.019531 294.1875 6.492188 294.898438 C 6.964844 295.605469 7.503906 296.261719 8.109375 296.867188 C 8.710938 297.46875 9.367188 298.007812 10.074219 298.480469 C 10.785156 298.957031 11.535156 299.355469 12.320312 299.683594 C 13.109375 300.011719 13.921875 300.257812 14.757812 300.425781 C 15.59375 300.589844 16.4375 300.675781 17.289062 300.675781 L 118.511719 300.675781 C 119.363281 300.675781 120.210938 300.589844 121.046875 300.425781 C 121.882812 300.257812 122.691406 300.011719 123.480469 299.683594 C 124.269531 299.355469 125.015625 298.957031 125.722656 298.480469 C 126.433594 298.007812 127.089844 297.46875 127.691406 296.867188 C 128.292969 296.261719 128.832031 295.605469 129.304688 294.898438 C 129.777344 294.1875 130.179688 293.441406 130.503906 292.652344 C 130.832031 291.863281 131.078125 291.054688 131.242188 290.21875 C 131.410156 289.378906 131.492188 288.535156 131.496094 287.683594 L 131.496094 209.410156 C 131.496094 209.046875 131.425781 208.695312 131.285156 208.359375 C 131.148438 208.023438 130.949219 207.722656 130.695312 207.464844 C 130.4375 207.207031 130.140625 207.003906 129.804688 206.863281 C 129.472656 206.722656 129.121094 206.648438 128.757812 206.644531 Z M 125.992188 223.238281 L 119.175781 223.238281 L 111.804688 212.175781 L 125.992188 212.175781 Z M 97.050781 223.238281 L 89.679688 212.175781 L 105.164062 212.175781 L 112.539062 223.238281 Z M 74.925781 223.238281 L 67.554688 212.175781 L 83.039062 212.175781 L 90.414062 223.238281 Z M 52.800781 223.238281 L 45.429688 212.175781 L 60.914062 212.175781 L 68.289062 223.238281 Z M 30.675781 223.238281 L 23.304688 212.175781 L 38.789062 212.175781 L 46.164062 223.238281 Z M 35.660156 189.964844 L 44.964844 199.464844 L 29.753906 202.335938 L 20.464844 192.8125 Z M 57.402344 185.859375 L 66.707031 195.328125 L 51.496094 198.203125 L 42.191406 188.703125 Z M 79.140625 181.75 L 88.4375 191.253906 L 73.238281 194.121094 L 63.9375 184.597656 Z M 100.882812 177.644531 L 110.183594 187.121094 L 94.972656 189.992188 L 85.671875 180.488281 Z M 9.835938 212.175781 L 16.65625 212.175781 L 24.027344 223.238281 L 9.835938 223.238281 Z M 123.417969 184.621094 L 116.710938 185.886719 L 107.417969 176.378906 L 121.355469 173.746094 Z M 13.898438 194.023438 L 23.230469 203.542969 L 9.285156 206.179688 L 7.222656 195.304688 Z M 118.539062 295.144531 L 17.296875 295.144531 C 16.804688 295.144531 16.320312 295.097656 15.839844 295 C 15.359375 294.902344 14.894531 294.761719 14.441406 294.574219 C 13.988281 294.386719 13.558594 294.15625 13.152344 293.882812 C 12.746094 293.613281 12.371094 293.304688 12.023438 292.957031 C 11.675781 292.609375 11.367188 292.234375 11.09375 291.828125 C 10.824219 291.417969 10.59375 290.988281 10.40625 290.539062 C 10.21875 290.085938 10.074219 289.617188 9.980469 289.140625 C 9.882812 288.660156 9.835938 288.171875 9.835938 287.683594 L 9.835938 228.769531 L 125.992188 228.769531 L 125.992188 287.683594 C 125.992188 288.171875 125.941406 288.65625 125.847656 289.136719 C 125.753906 289.617188 125.609375 290.085938 125.425781 290.535156 C 125.238281 290.988281 125.007812 291.417969 124.734375 291.824219 C 124.464844 292.234375 124.15625 292.609375 123.808594 292.957031 C 123.464844 293.300781 123.085938 293.613281 122.679688 293.882812 C 122.273438 294.15625 121.84375 294.386719 121.390625 294.574219 C 120.941406 294.761719 120.472656 294.902344 119.996094 295 C 119.515625 295.097656 119.03125 295.144531 118.539062 295.144531 Z M 118.539062 295.144531 " fill-opacity="1" fill-rule="nonzero"/></g><path fill="#000000" d="M 58.273438 240.226562 C 57.84375 239.96875 57.382812 239.839844 56.882812 239.832031 C 56.386719 239.828125 55.921875 239.945312 55.488281 240.191406 C 55.054688 240.4375 54.710938 240.777344 54.460938 241.207031 C 54.210938 241.636719 54.085938 242.101562 54.085938 242.597656 L 54.085938 281.316406 C 54.085938 281.683594 54.15625 282.035156 54.296875 282.375 C 54.433594 282.714844 54.636719 283.011719 54.894531 283.273438 C 55.152344 283.53125 55.453125 283.730469 55.792969 283.871094 C 56.128906 284.011719 56.484375 284.082031 56.851562 284.082031 C 57.359375 284.082031 57.835938 283.949219 58.273438 283.683594 L 90.535156 264.324219 C 90.738281 264.203125 90.925781 264.054688 91.09375 263.882812 C 91.257812 263.714844 91.398438 263.523438 91.519531 263.316406 C 91.636719 263.109375 91.722656 262.890625 91.785156 262.660156 C 91.84375 262.429688 91.875 262.195312 91.875 261.957031 C 91.875 261.714844 91.84375 261.480469 91.785156 261.25 C 91.722656 261.019531 91.636719 260.800781 91.519531 260.59375 C 91.398438 260.386719 91.257812 260.195312 91.09375 260.027344 C 90.925781 259.855469 90.738281 259.707031 90.535156 259.585938 Z M 59.617188 276.425781 L 59.617188 247.488281 L 83.742188 261.964844 Z M 59.617188 276.425781 " fill-opacity="1" fill-rule="nonzero"/><g clip-path="url(#c752c10d36)"><path fill="#000000" d="M 45.253906 442.347656 C 45.714844 442.113281 46.195312 441.886719 46.683594 441.671875 C 48.449219 440.898438 49.253906 438.835938 48.480469 437.070312 C 47.707031 435.304688 45.644531 434.503906 43.882812 435.273438 C 43.273438 435.539062 42.679688 435.824219 42.085938 436.125 C 35.539062 439.484375 31.929688 443.96875 31.929688 448.75 C 31.929688 453.558594 35.539062 458.050781 42.089844 461.394531 C 48.523438 464.671875 57.078125 466.480469 66.1875 466.480469 C 75.296875 466.480469 83.851562 464.671875 90.277344 461.394531 C 96.832031 458.046875 100.441406 453.558594 100.441406 448.75 C 100.441406 443.96875 96.832031 439.484375 90.277344 436.121094 C 89.605469 435.777344 88.90625 435.449219 88.1875 435.140625 C 86.417969 434.378906 84.367188 435.195312 83.605469 436.964844 C 82.84375 438.738281 83.660156 440.792969 85.429688 441.554688 C 86.007812 441.804688 86.566406 442.066406 87.101562 442.339844 C 91.796875 444.75 93.464844 447.296875 93.464844 448.75 C 93.464844 450.214844 91.800781 452.773438 87.109375 455.167969 C 81.644531 457.960938 74.214844 459.492188 66.1875 459.492188 C 58.160156 459.492188 50.726562 457.960938 45.261719 455.167969 C 40.570312 452.777344 38.910156 450.214844 38.910156 448.75 C 38.90625 447.300781 40.570312 444.75 45.253906 442.347656 Z M 45.253906 442.347656 " fill-opacity="1" fill-rule="nonzero"/></g><g clip-path="url(#7f7a5b267f)"><path fill="#000000" d="M 66.648438 333.742188 C 66.550781 333.734375 66.457031 333.730469 66.363281 333.730469 L 66.011719 333.730469 C 65.914062 333.730469 65.820312 333.734375 65.730469 333.742188 C 42.742188 334.082031 24.085938 353.015625 24.085938 376.007812 C 23.722656 398.886719 41.203125 419.820312 53.96875 435.105469 C 57.710938 439.585938 60.945312 443.460938 63.132812 446.667969 C 63.777344 447.621094 64.859375 448.191406 66.011719 448.191406 L 66.363281 448.191406 C 67.515625 448.191406 68.597656 447.621094 69.246094 446.667969 C 71.429688 443.457031 74.667969 439.585938 78.410156 435.101562 C 91.171875 419.820312 108.648438 398.882812 108.289062 376.066406 C 108.289062 353.019531 89.628906 334.085938 66.648438 333.742188 Z M 73.054688 430.621094 C 70.492188 433.691406 68.160156 436.484375 66.1875 439.035156 C 64.210938 436.484375 61.882812 433.691406 59.320312 430.625 C 47.257812 416.179688 30.742188 396.394531 31.0625 376.066406 C 31.0625 356.753906 46.753906 340.898438 66.042969 340.726562 C 66.089844 340.726562 66.136719 340.722656 66.1875 340.71875 C 66.234375 340.722656 66.28125 340.726562 66.332031 340.726562 C 85.617188 340.898438 101.308594 356.753906 101.308594 376.121094 C 101.632812 396.394531 85.117188 416.175781 73.054688 430.621094 Z M 73.054688 430.621094 " fill-opacity="1" fill-rule="nonzero"/></g><path fill="#000000" d="M 66.1875 360.632812 C 57.660156 360.722656 50.769531 367.597656 50.769531 376.070312 C 50.769531 384.546875 57.652344 391.417969 66.1875 391.511719 C 74.71875 391.417969 81.605469 384.546875 81.605469 376.070312 C 81.605469 367.597656 74.710938 360.722656 66.1875 360.632812 Z M 66.1875 360.632812 " fill-opacity="1" fill-rule="nonzero"/><g clip-path="url(#942e783439)"><path fill="#000000" d="M 65.625 499.988281 C 29.429688 499.988281 0 529.417969 0 565.613281 C 0 601.808594 29.429688 631.238281 65.625 631.238281 C 101.820312 631.238281 131.25 601.808594 131.25 565.613281 C 131.25 529.417969 101.820312 499.988281 65.625 499.988281 Z M 65.625 627.136719 C 31.683594 627.136719 4.101562 599.554688 4.101562 565.613281 C 4.101562 531.671875 31.683594 504.089844 65.625 504.089844 C 99.566406 504.089844 127.148438 531.671875 127.148438 565.613281 C 127.148438 599.554688 99.566406 627.136719 65.625 627.136719 Z M 65.625 627.136719 " fill-opacity="1" fill-rule="nonzero"/></g><path fill="#000000" d="M 65.625 508.910156 C 34.351562 508.910156 8.921875 534.339844 8.921875 565.613281 C 8.921875 596.886719 34.351562 622.316406 65.625 622.316406 C 96.898438 622.316406 122.328125 596.886719 122.328125 565.613281 C 122.328125 534.339844 96.898438 508.910156 65.625 508.910156 Z M 67.675781 618.113281 L 67.675781 611.242188 C 67.675781 610.113281 66.753906 609.191406 65.625 609.191406 C 64.496094 609.191406 63.574219 610.113281 63.574219 611.242188 L 63.574219 618.113281 C 36.195312 617.085938 14.152344 594.9375 13.125 567.664062 L 21.019531 567.664062 C 22.148438 567.664062 23.070312 566.742188 23.070312 565.613281 C 23.070312 564.484375 22.148438 563.5625 21.019531 563.5625 L 13.125 563.5625 C 14.152344 536.183594 36.300781 514.136719 63.574219 513.113281 L 63.574219 519.984375 C 63.574219 521.109375 64.496094 522.035156 65.625 522.035156 C 66.753906 522.035156 67.675781 521.109375 67.675781 519.984375 L 67.675781 513.113281 C 95.054688 514.136719 117.097656 536.285156 118.125 563.5625 L 110.125 563.5625 C 109 563.5625 108.074219 564.484375 108.074219 565.613281 C 108.074219 566.742188 109 567.664062 110.125 567.664062 L 118.125 567.664062 C 117.097656 595.042969 95.054688 617.085938 67.675781 618.113281 Z M 67.675781 618.113281 " fill-opacity="1" fill-rule="nonzero"/><path fill="#000000" d="M 109.125 544.175781 C 109.457031 544.476562 109.71875 544.828125 109.914062 545.234375 C 110.105469 545.640625 110.210938 546.066406 110.234375 546.515625 C 110.257812 546.964844 110.191406 547.398438 110.042969 547.820312 C 109.890625 548.242188 109.664062 548.621094 109.363281 548.953125 C 109.0625 549.285156 108.707031 549.550781 108.304688 549.742188 C 107.898438 549.933594 107.472656 550.039062 107.023438 550.0625 C 106.574219 550.085938 106.140625 550.019531 105.714844 549.871094 C 105.292969 549.71875 104.917969 549.492188 104.582031 549.191406 C 104.25 548.890625 103.988281 548.539062 103.796875 548.132812 C 103.605469 547.726562 103.496094 547.300781 103.476562 546.851562 C 103.453125 546.402344 103.515625 545.96875 103.667969 545.546875 C 103.816406 545.121094 104.042969 544.746094 104.34375 544.414062 C 104.648438 544.078125 105 543.816406 105.40625 543.625 C 105.8125 543.433594 106.238281 543.324219 106.6875 543.304688 C 107.132812 543.28125 107.570312 543.34375 107.992188 543.496094 C 108.414062 543.648438 108.792969 543.875 109.125 544.175781 Z M 109.125 544.175781 " fill-opacity="1" fill-rule="nonzero"/><path fill="#000000" d="M 48.964844 521.875 C 49.296875 522.175781 49.558594 522.53125 49.75 522.9375 C 49.941406 523.339844 50.050781 523.769531 50.074219 524.214844 C 50.09375 524.664062 50.03125 525.101562 49.878906 525.523438 C 49.730469 525.945312 49.503906 526.324219 49.203125 526.65625 C 48.902344 526.988281 48.546875 527.25 48.140625 527.441406 C 47.738281 527.636719 47.308594 527.742188 46.863281 527.765625 C 46.414062 527.785156 45.976562 527.722656 45.554688 527.570312 C 45.132812 527.421875 44.753906 527.195312 44.421875 526.894531 C 44.089844 526.59375 43.828125 526.238281 43.636719 525.832031 C 43.441406 525.429688 43.335938 525 43.3125 524.554688 C 43.289062 524.105469 43.355469 523.667969 43.507812 523.246094 C 43.65625 522.824219 43.882812 522.445312 44.183594 522.113281 C 44.484375 521.78125 44.839844 521.519531 45.242188 521.328125 C 45.648438 521.136719 46.078125 521.027344 46.523438 521.003906 C 46.972656 520.984375 47.40625 521.046875 47.832031 521.199219 C 48.253906 521.347656 48.628906 521.574219 48.964844 521.875 Z M 48.964844 521.875 " fill-opacity="1" fill-rule="nonzero"/><path fill="#000000" d="M 86.824219 604.335938 C 87.15625 604.636719 87.421875 604.988281 87.613281 605.394531 C 87.804688 605.800781 87.910156 606.226562 87.933594 606.675781 C 87.957031 607.125 87.890625 607.558594 87.742188 607.980469 C 87.589844 608.40625 87.363281 608.78125 87.0625 609.113281 C 86.761719 609.449219 86.410156 609.710938 86.003906 609.902344 C 85.597656 610.09375 85.171875 610.203125 84.722656 610.222656 C 84.273438 610.246094 83.839844 610.183594 83.417969 610.03125 C 82.996094 609.878906 82.617188 609.652344 82.285156 609.351562 C 81.953125 609.050781 81.6875 608.699219 81.496094 608.292969 C 81.304688 607.886719 81.199219 607.460938 81.175781 607.011719 C 81.152344 606.566406 81.21875 606.128906 81.367188 605.707031 C 81.519531 605.285156 81.746094 604.90625 82.046875 604.574219 C 82.347656 604.242188 82.699219 603.980469 83.105469 603.785156 C 83.511719 603.59375 83.9375 603.488281 84.386719 603.464844 C 84.835938 603.441406 85.269531 603.507812 85.691406 603.65625 C 86.113281 603.808594 86.492188 604.035156 86.824219 604.335938 Z M 86.824219 604.335938 " fill-opacity="1" fill-rule="nonzero"/><path fill="#000000" d="M 26.664062 582.035156 C 26.996094 582.339844 27.257812 582.691406 27.453125 583.097656 C 27.644531 583.503906 27.75 583.929688 27.773438 584.378906 C 27.796875 584.824219 27.730469 585.261719 27.582031 585.683594 C 27.429688 586.105469 27.203125 586.484375 26.902344 586.816406 C 26.601562 587.148438 26.246094 587.410156 25.84375 587.605469 C 25.4375 587.796875 25.011719 587.902344 24.5625 587.925781 C 24.113281 587.949219 23.679688 587.882812 23.253906 587.734375 C 22.832031 587.582031 22.457031 587.355469 22.121094 587.054688 C 21.789062 586.753906 21.527344 586.398438 21.335938 585.996094 C 21.144531 585.589844 21.035156 585.164062 21.015625 584.714844 C 20.992188 584.265625 21.054688 583.832031 21.207031 583.40625 C 21.355469 582.984375 21.582031 582.609375 21.882812 582.273438 C 22.1875 581.941406 22.539062 581.679688 22.945312 581.488281 C 23.351562 581.296875 23.777344 581.1875 24.226562 581.167969 C 24.671875 581.144531 25.109375 581.207031 25.53125 581.359375 C 25.953125 581.511719 26.332031 581.734375 26.664062 582.035156 Z M 26.664062 582.035156 " fill-opacity="1" fill-rule="nonzero"/><path fill="#000000" d="M 27.699219 543.046875 C 28.03125 543.347656 28.292969 543.699219 28.484375 544.105469 C 28.675781 544.511719 28.785156 544.9375 28.808594 545.386719 C 28.828125 545.835938 28.765625 546.269531 28.613281 546.691406 C 28.464844 547.113281 28.238281 547.492188 27.9375 547.824219 C 27.636719 548.15625 27.28125 548.421875 26.875 548.613281 C 26.46875 548.804688 26.042969 548.910156 25.59375 548.933594 C 25.148438 548.957031 24.710938 548.890625 24.289062 548.742188 C 23.867188 548.589844 23.488281 548.363281 23.15625 548.0625 C 22.824219 547.761719 22.5625 547.410156 22.371094 547.003906 C 22.175781 546.597656 22.070312 546.171875 22.046875 545.722656 C 22.023438 545.273438 22.089844 544.839844 22.242188 544.417969 C 22.390625 543.996094 22.617188 543.617188 22.917969 543.285156 C 23.21875 542.953125 23.574219 542.6875 23.976562 542.496094 C 24.382812 542.304688 24.808594 542.199219 25.257812 542.175781 C 25.707031 542.152344 26.140625 542.21875 26.566406 542.367188 C 26.988281 542.519531 27.363281 542.746094 27.699219 543.046875 Z M 27.699219 543.046875 " fill-opacity="1" fill-rule="nonzero"/><path fill="#000000" d="M 87.953125 522.90625 C 88.285156 523.210938 88.550781 523.5625 88.742188 523.96875 C 88.933594 524.375 89.039062 524.800781 89.0625 525.25 C 89.085938 525.695312 89.019531 526.132812 88.871094 526.554688 C 88.71875 526.976562 88.492188 527.355469 88.191406 527.6875 C 87.890625 528.019531 87.539062 528.28125 87.132812 528.476562 C 86.726562 528.667969 86.300781 528.773438 85.851562 528.796875 C 85.402344 528.820312 84.96875 528.753906 84.546875 528.605469 C 84.121094 528.453125 83.746094 528.226562 83.414062 527.925781 C 83.078125 527.625 82.816406 527.273438 82.625 526.867188 C 82.433594 526.460938 82.324219 526.035156 82.304688 525.585938 C 82.28125 525.136719 82.34375 524.703125 82.496094 524.28125 C 82.648438 523.855469 82.875 523.480469 83.175781 523.144531 C 83.476562 522.8125 83.828125 522.550781 84.234375 522.359375 C 84.640625 522.167969 85.066406 522.058594 85.515625 522.039062 C 85.960938 522.015625 86.398438 522.078125 86.820312 522.230469 C 87.242188 522.382812 87.621094 522.605469 87.953125 522.90625 Z M 87.953125 522.90625 " fill-opacity="1" fill-rule="nonzero"/><path fill="#000000" d="M 107.882812 583.394531 C 108.1875 583.667969 108.425781 583.988281 108.601562 584.355469 C 108.773438 584.726562 108.871094 585.113281 108.894531 585.519531 C 108.914062 585.929688 108.855469 586.324219 108.71875 586.707031 C 108.582031 587.09375 108.375 587.4375 108.101562 587.738281 C 107.828125 588.039062 107.507812 588.28125 107.136719 588.453125 C 106.769531 588.628906 106.382812 588.726562 105.972656 588.746094 C 105.566406 588.765625 105.171875 588.707031 104.785156 588.570312 C 104.402344 588.433594 104.058594 588.230469 103.757812 587.953125 C 103.453125 587.679688 103.214844 587.359375 103.039062 586.992188 C 102.867188 586.621094 102.769531 586.234375 102.75 585.828125 C 102.726562 585.421875 102.785156 585.023438 102.921875 584.640625 C 103.058594 584.253906 103.265625 583.914062 103.539062 583.609375 C 103.8125 583.308594 104.132812 583.070312 104.503906 582.894531 C 104.871094 582.71875 105.261719 582.621094 105.667969 582.601562 C 106.074219 582.582031 106.46875 582.640625 106.855469 582.777344 C 107.238281 582.914062 107.582031 583.121094 107.882812 583.394531 Z M 107.882812 583.394531 " fill-opacity="1" fill-rule="nonzero"/><path fill="#000000" d="M 47.835938 603.300781 C 48.167969 603.601562 48.429688 603.957031 48.621094 604.363281 C 48.816406 604.765625 48.921875 605.195312 48.945312 605.640625 C 48.964844 606.089844 48.902344 606.527344 48.75 606.949219 C 48.601562 607.371094 48.375 607.75 48.074219 608.082031 C 47.773438 608.414062 47.417969 608.675781 47.015625 608.867188 C 46.609375 609.0625 46.179688 609.167969 45.734375 609.191406 C 45.285156 609.210938 44.851562 609.148438 44.425781 608.996094 C 44.003906 608.847656 43.625 608.621094 43.292969 608.320312 C 42.960938 608.019531 42.699219 607.664062 42.507812 607.261719 C 42.316406 606.855469 42.207031 606.425781 42.183594 605.980469 C 42.164062 605.53125 42.226562 605.097656 42.378906 604.671875 C 42.527344 604.25 42.753906 603.871094 43.054688 603.539062 C 43.355469 603.207031 43.710938 602.945312 44.117188 602.753906 C 44.519531 602.5625 44.949219 602.453125 45.394531 602.429688 C 45.84375 602.410156 46.28125 602.472656 46.703125 602.625 C 47.125 602.773438 47.503906 603 47.835938 603.300781 Z M 47.835938 603.300781 " fill-opacity="1" fill-rule="nonzero"/><path fill="#000000" d="M 82.542969 551.15625 C 82.542969 547.769531 81.828125 544.695312 80.59375 542.234375 C 79.261719 539.671875 77.210938 537.722656 74.648438 536.390625 C 72.085938 535.054688 69.109375 534.441406 65.726562 534.441406 C 62.34375 534.441406 59.472656 535.160156 56.910156 536.695312 C 54.347656 538.132812 52.398438 540.386719 51.066406 543.15625 C 49.730469 545.824219 49.015625 549.105469 48.910156 553 C 48.910156 554.128906 49.835938 555.050781 50.960938 555.050781 L 59.0625 555.050781 C 60.191406 555.050781 61.113281 554.128906 61.113281 553 C 61.113281 550.640625 61.625 548.796875 62.445312 547.566406 C 63.265625 546.539062 64.292969 546.027344 65.726562 546.027344 C 67.265625 546.027344 68.394531 546.4375 69.113281 547.257812 C 69.933594 548.078125 70.339844 549.410156 70.339844 551.257812 C 70.339844 552.386719 70.136719 553.308594 69.828125 554.230469 C 69.519531 555.257812 69.113281 556.078125 68.597656 556.898438 C 67.984375 557.820312 67.164062 558.949219 66.238281 560.382812 C 64.804688 562.332031 63.574219 564.175781 62.652344 565.714844 C 61.625 567.355469 60.804688 569.40625 60.191406 571.664062 C 59.472656 574.019531 59.164062 576.6875 59.164062 579.660156 C 59.164062 580.789062 60.085938 581.710938 61.214844 581.710938 L 69.214844 581.710938 C 70.339844 581.710938 71.265625 580.789062 71.265625 579.660156 C 71.265625 577.507812 71.46875 575.558594 71.980469 573.917969 C 72.496094 572.277344 73.109375 570.84375 73.828125 569.714844 C 74.648438 568.484375 75.675781 567.046875 76.90625 565.40625 C 78.132812 563.765625 79.160156 562.433594 79.878906 561.203125 C 80.699219 559.972656 81.3125 558.539062 81.828125 556.898438 C 82.234375 555.152344 82.542969 553.308594 82.542969 551.15625 Z M 77.828125 555.5625 C 77.417969 556.898438 76.90625 558.023438 76.289062 558.949219 C 75.675781 559.972656 74.75 561.304688 73.519531 562.742188 C 72.1875 564.484375 71.058594 566.023438 70.238281 567.355469 C 69.316406 568.792969 68.597656 570.535156 67.984375 572.484375 C 67.574219 573.917969 67.265625 575.558594 67.164062 577.300781 L 63.265625 577.300781 C 63.371094 575.558594 63.675781 573.917969 64.085938 572.484375 C 64.703125 570.535156 65.316406 568.792969 66.136719 567.457031 C 66.957031 566.023438 68.085938 564.382812 69.523438 562.433594 C 70.546875 561 71.46875 559.769531 72.085938 558.742188 C 72.804688 557.71875 73.316406 556.488281 73.828125 555.152344 C 74.339844 553.820312 74.546875 552.386719 74.546875 550.746094 C 74.546875 547.976562 73.726562 545.71875 72.289062 544.078125 C 70.753906 542.4375 68.597656 541.515625 65.933594 541.515625 C 63.164062 541.515625 60.910156 542.644531 59.371094 544.695312 C 58.242188 546.234375 57.523438 548.179688 57.320312 550.539062 L 53.320312 550.539062 C 53.527344 548.285156 54.140625 546.234375 54.960938 544.59375 C 55.988281 542.4375 57.421875 540.902344 59.269531 539.875 C 61.113281 538.746094 63.371094 538.234375 65.933594 538.234375 C 68.703125 538.234375 71.058594 538.746094 73.007812 539.773438 C 74.855469 540.695312 76.289062 542.132812 77.210938 543.976562 C 78.238281 545.824219 78.75 548.179688 78.75 550.949219 C 78.441406 552.898438 78.238281 554.332031 77.828125 555.5625 Z M 77.828125 555.5625 " fill-opacity="1" fill-rule="nonzero"/><path fill="#000000" d="M 69.316406 583.863281 L 60.90625 583.863281 C 59.78125 583.863281 58.855469 584.789062 58.855469 585.914062 L 58.855469 594.324219 C 58.855469 595.453125 59.78125 596.375 60.90625 596.375 L 69.316406 596.375 C 70.445312 596.375 71.367188 595.453125 71.367188 594.324219 L 71.367188 585.914062 C 71.367188 584.683594 70.445312 583.863281 69.316406 583.863281 Z M 67.265625 592.273438 L 62.957031 592.273438 L 62.957031 587.964844 L 67.265625 587.964844 Z M 67.265625 592.273438 " fill-opacity="1" fill-rule="nonzero"/><g clip-path="url(#4dfa02a0aa)"><path fill="#000000" d="M 65.835938 733.414062 C 83.464844 733.414062 97.804688 714.765625 97.804688 697.199219 C 97.804688 679.628906 83.464844 665.335938 65.835938 665.335938 C 48.207031 665.335938 33.867188 679.628906 33.867188 697.199219 C 33.871094 714.765625 48.210938 733.414062 65.835938 733.414062 Z M 65.835938 733.414062 " fill-opacity="1" fill-rule="nonzero"/></g><g clip-path="url(#0831a19a8c)"><path fill="#000000" d="M 89.835938 733.742188 C 83.636719 738.449219 75.898438 741.253906 67.519531 741.253906 L 64.152344 741.253906 C 55.773438 741.253906 48.035156 738.449219 41.835938 733.742188 C 21.589844 737.003906 6.128906 754.496094 6.128906 775.59375 C 6.128906 787.183594 32.859375 796.585938 65.835938 796.585938 C 98.8125 796.585938 125.546875 787.183594 125.546875 775.59375 C 125.546875 754.496094 110.082031 737.003906 89.835938 733.742188 Z M 89.835938 733.742188 " fill-opacity="1" fill-rule="nonzero"/></g><g fill="#000000" fill-opacity="1"><g transform="translate(0.00000525, 62.122959)"><g><path d="M 16.984375 0 L 5.453125 0 L 5.453125 -57.375 L 16.984375 -57.375 Z M 16.984375 0 "/></g></g></g><g fill="#000000" fill-opacity="1"><g transform="translate(22.267916, 62.122959)"><g><path d="M 29.640625 -42.46875 C 32.097656 -42.46875 34.234375 -42.050781 36.046875 -41.21875 C 37.867188 -40.394531 39.316406 -39.421875 40.390625 -38.296875 C 41.671875 -36.910156 42.507812 -35.269531 42.90625 -33.375 C 43.3125 -31.476562 43.515625 -29.378906 43.515625 -27.078125 L 43.515625 0 L 32.53125 0 L 32.53125 -22.671875 C 32.53125 -26.515625 32.101562 -29.367188 31.25 -31.234375 C 30.394531 -33.109375 28.578125 -34.046875 25.796875 -34.046875 C 23.179688 -34.046875 21.148438 -33.296875 19.703125 -31.796875 C 18.265625 -30.304688 17.410156 -28.570312 17.140625 -26.59375 C 16.984375 -25.3125 16.863281 -24.164062 16.78125 -23.15625 C 16.707031 -22.144531 16.671875 -20.992188 16.671875 -19.703125 L 16.671875 0 L 5.6875 0 L 5.6875 -41.5 L 16.109375 -41.5 L 16.109375 -35.421875 C 17.285156 -37.179688 19.035156 -38.796875 21.359375 -40.265625 C 23.679688 -41.734375 26.441406 -42.46875 29.640625 -42.46875 Z M 29.640625 -42.46875 "/></g></g></g><g fill="#000000" fill-opacity="1"><g transform="translate(71.20925, 62.122959)"><g><path d="M 20.90625 -42.46875 C 26.09375 -42.46875 30.164062 -41.613281 33.125 -39.90625 C 36.09375 -38.195312 38.140625 -35.390625 39.265625 -31.484375 L 28.84375 -29.5625 C 28.363281 -31.269531 27.492188 -32.535156 26.234375 -33.359375 C 24.984375 -34.191406 23.238281 -34.609375 21 -34.609375 C 16.03125 -34.609375 13.546875 -33.460938 13.546875 -31.171875 C 13.546875 -30.046875 14.359375 -29.148438 15.984375 -28.484375 C 17.609375 -27.816406 19.972656 -27.132812 23.078125 -26.4375 C 26.867188 -25.582031 29.960938 -24.710938 32.359375 -23.828125 C 34.765625 -22.953125 36.742188 -21.644531 38.296875 -19.90625 C 39.847656 -18.175781 40.625 -15.867188 40.625 -12.984375 C 40.625 -10.628906 39.96875 -8.394531 38.65625 -6.28125 C 37.351562 -4.175781 35.285156 -2.441406 32.453125 -1.078125 C 29.617188 0.285156 26.039062 0.96875 21.71875 0.96875 C 16.851562 0.96875 12.5625 -0.0703125 8.84375 -2.15625 C 5.132812 -4.238281 2.800781 -7.472656 1.84375 -11.859375 L 12.8125 -13.546875 C 13.832031 -9.109375 16.800781 -6.890625 21.71875 -6.890625 C 23.632812 -6.890625 25.429688 -7.222656 27.109375 -7.890625 C 28.796875 -8.554688 29.640625 -9.742188 29.640625 -11.453125 C 29.640625 -12.578125 29.253906 -13.363281 28.484375 -13.8125 C 27.710938 -14.269531 26.472656 -14.6875 24.765625 -15.0625 C 19.679688 -16.1875 15.722656 -17.226562 12.890625 -18.1875 C 10.066406 -19.144531 7.769531 -20.53125 6 -22.34375 C 4.238281 -24.164062 3.359375 -26.625 3.359375 -29.71875 C 3.359375 -34.050781 5.015625 -37.257812 8.328125 -39.34375 C 11.640625 -41.425781 15.832031 -42.46875 20.90625 -42.46875 Z M 20.90625 -42.46875 "/></g></g></g><g fill="#000000" fill-opacity="1"><g transform="translate(115.74507, 62.122959)"><g><path d="M 28.609375 -42.46875 C 31.648438 -42.46875 34.492188 -41.640625 37.140625 -39.984375 C 39.785156 -38.328125 41.921875 -35.84375 43.546875 -32.53125 C 45.171875 -29.21875 45.984375 -25.160156 45.984375 -20.359375 C 45.984375 -15.703125 45.195312 -11.769531 43.625 -8.5625 C 42.050781 -5.363281 39.941406 -2.972656 37.296875 -1.390625 C 34.648438 0.179688 31.726562 0.96875 28.53125 0.96875 C 23.820312 0.96875 19.785156 -0.957031 16.421875 -4.8125 L 16.421875 15.78125 L 5.453125 15.78125 L 5.453125 -41.5 L 15.703125 -41.5 L 15.703125 -35.421875 L 15.859375 -35.421875 C 17.140625 -37.335938 18.914062 -38.988281 21.1875 -40.375 C 23.457031 -41.769531 25.929688 -42.46875 28.609375 -42.46875 Z M 17.234375 -26.921875 C 16.640625 -25.210938 16.34375 -22.863281 16.34375 -19.875 C 16.34375 -15.757812 17.207031 -12.660156 18.9375 -10.578125 C 20.675781 -8.492188 22.882812 -7.453125 25.5625 -7.453125 C 28.820312 -7.453125 31.15625 -8.734375 32.5625 -11.296875 C 33.976562 -13.859375 34.6875 -17.035156 34.6875 -20.828125 C 34.6875 -25.265625 33.84375 -28.523438 32.15625 -30.609375 C 30.476562 -32.691406 28.382812 -33.734375 25.875 -33.734375 C 24.007812 -33.734375 22.285156 -33.144531 20.703125 -31.96875 C 19.128906 -30.789062 17.972656 -29.109375 17.234375 -26.921875 Z M 17.234375 -26.921875 "/></g></g></g><g fill="#000000" fill-opacity="1"><g transform="translate(164.686404, 62.122959)"><g><path d="M 16.75 -47.1875 L 5.765625 -47.1875 L 5.765625 -57.375 L 16.75 -57.375 Z M 16.75 0 L 5.765625 0 L 5.765625 -41.5 L 16.75 -41.5 Z M 16.75 0 "/></g></g></g><g fill="#000000" fill-opacity="1"><g transform="translate(186.954315, 62.122959)"><g><path d="M 25 -42.46875 C 26.175781 -42.46875 27.414062 -42.28125 28.71875 -41.90625 C 30.03125 -41.53125 31.191406 -41.050781 32.203125 -40.46875 L 28.765625 -30.84375 C 26.890625 -32.019531 25.179688 -32.609375 23.640625 -32.609375 C 21.554688 -32.609375 19.976562 -31.898438 18.90625 -30.484375 C 17.84375 -29.066406 17.132812 -27.085938 16.78125 -24.546875 C 16.4375 -22.015625 16.265625 -18.640625 16.265625 -14.421875 L 16.265625 0 L 5.28125 0 L 5.28125 -41.5 L 15.46875 -41.5 L 15.46875 -35.65625 L 15.625 -35.65625 C 16.957031 -37.894531 18.289062 -39.585938 19.625 -40.734375 C 20.96875 -41.890625 22.757812 -42.46875 25 -42.46875 Z M 25 -42.46875 "/></g></g></g><g fill="#000000" fill-opacity="1"><g transform="translate(218.113345, 62.122959)"><g><path d="M 21.953125 -42.46875 C 27.242188 -42.46875 31.171875 -41.785156 33.734375 -40.421875 C 36.296875 -39.054688 37.910156 -37.265625 38.578125 -35.046875 C 39.242188 -32.835938 39.550781 -29.914062 39.5 -26.28125 L 39.421875 -14.1875 C 39.367188 -10.394531 39.5 -7.640625 39.8125 -5.921875 C 40.132812 -4.210938 40.804688 -2.238281 41.828125 0 L 31.015625 0 C 30.742188 -0.582031 30.257812 -2.101562 29.5625 -4.5625 C 27.582031 -2.644531 25.535156 -1.242188 23.421875 -0.359375 C 21.316406 0.523438 19.066406 0.96875 16.671875 0.96875 C 12.554688 0.96875 9.226562 -0.164062 6.6875 -2.4375 C 4.15625 -4.707031 2.890625 -7.660156 2.890625 -11.296875 C 2.890625 -14.335938 3.648438 -16.753906 5.171875 -18.546875 C 6.691406 -20.335938 8.546875 -21.632812 10.734375 -22.4375 C 12.921875 -23.238281 15.515625 -23.929688 18.515625 -24.515625 C 23.109375 -25.367188 26.5 -26.222656 28.6875 -27.078125 L 28.6875 -28.84375 C 28.6875 -30.65625 28.148438 -31.972656 27.078125 -32.796875 C 26.015625 -33.628906 24.066406 -34.046875 21.234375 -34.046875 C 19.046875 -34.046875 17.414062 -33.601562 16.34375 -32.71875 C 15.28125 -31.84375 14.476562 -30.550781 13.9375 -28.84375 L 4 -30.6875 C 5.070312 -34.75 6.992188 -37.726562 9.765625 -39.625 C 12.546875 -41.519531 16.609375 -42.46875 21.953125 -42.46875 Z M 21.796875 -18.1875 L 19.953125 -17.78125 C 15.890625 -16.925781 13.859375 -15.164062 13.859375 -12.5 C 13.859375 -10.894531 14.429688 -9.546875 15.578125 -8.453125 C 16.734375 -7.359375 18.191406 -6.8125 19.953125 -6.8125 C 21.390625 -6.8125 22.828125 -7.179688 24.265625 -7.921875 C 25.710938 -8.671875 26.835938 -9.660156 27.640625 -10.890625 C 28.335938 -12.015625 28.6875 -13.941406 28.6875 -16.671875 L 28.6875 -19.953125 C 26.601562 -19.304688 24.304688 -18.71875 21.796875 -18.1875 Z M 21.796875 -18.1875 "/></g></g></g><g fill="#000000" fill-opacity="1"><g transform="translate(262.649166, 62.122959)"><g><path d="M 17.3125 -41.5 L 24.765625 -41.5 L 24.765625 -32.765625 L 17.3125 -32.765625 L 17.3125 -14.5 C 17.3125 -12.738281 17.375 -11.429688 17.5 -10.578125 C 17.632812 -9.722656 17.914062 -9.109375 18.34375 -8.734375 C 18.769531 -8.359375 19.441406 -8.171875 20.359375 -8.171875 C 21.472656 -8.171875 22.941406 -8.519531 24.765625 -9.21875 L 25.71875 -0.71875 C 24.59375 -0.1875 23.226562 0.222656 21.625 0.515625 C 20.03125 0.816406 18.507812 0.96875 17.0625 0.96875 C 14.976562 0.96875 13.132812 0.617188 11.53125 -0.078125 C 9.9375 -0.773438 8.765625 -1.710938 8.015625 -2.890625 C 7.210938 -4.222656 6.71875 -5.703125 6.53125 -7.328125 C 6.34375 -8.960938 6.25 -11.007812 6.25 -13.46875 L 6.25 -32.765625 L 1.203125 -32.765625 L 1.203125 -41.5 L 6.25 -41.5 L 6.25 -49.75 L 17.3125 -56.25 Z M 17.3125 -41.5 "/></g></g></g><g fill="#000000" fill-opacity="1"><g transform="translate(289.32259, 62.122959)"><g><path d="M 16.75 -47.1875 L 5.765625 -47.1875 L 5.765625 -57.375 L 16.75 -57.375 Z M 16.75 0 L 5.765625 0 L 5.765625 -41.5 L 16.75 -41.5 Z M 16.75 0 "/></g></g></g><g fill="#000000" fill-opacity="1"><g transform="translate(311.5905, 62.122959)"><g><path d="M 24.59375 -42.46875 C 29.082031 -42.46875 32.957031 -41.453125 36.21875 -39.421875 C 39.476562 -37.390625 41.9375 -34.71875 43.59375 -31.40625 C 45.25 -28.09375 46.078125 -24.59375 46.078125 -20.90625 C 46.078125 -17.0625 45.207031 -13.46875 43.46875 -10.125 C 41.726562 -6.789062 39.242188 -4.109375 36.015625 -2.078125 C 32.785156 -0.046875 29.003906 0.96875 24.671875 0.96875 C 20.992188 0.96875 17.523438 0.207031 14.265625 -1.3125 C 11.003906 -2.84375 8.34375 -5.273438 6.28125 -8.609375 C 4.226562 -11.953125 3.203125 -16.1875 3.203125 -21.3125 C 3.203125 -24.894531 4.015625 -28.300781 5.640625 -31.53125 C 7.273438 -34.757812 9.707031 -37.390625 12.9375 -39.421875 C 16.164062 -41.453125 20.050781 -42.46875 24.59375 -42.46875 Z M 14.5 -20.75 C 14.5 -16.582031 15.472656 -13.414062 17.421875 -11.25 C 19.378906 -9.09375 21.769531 -8.015625 24.59375 -8.015625 C 27.425781 -8.015625 29.832031 -9.082031 31.8125 -11.21875 C 33.789062 -13.351562 34.78125 -16.554688 34.78125 -20.828125 C 34.78125 -24.785156 33.828125 -27.882812 31.921875 -30.125 C 30.023438 -32.375 27.554688 -33.5 24.515625 -33.5 C 21.742188 -33.5 19.378906 -32.398438 17.421875 -30.203125 C 15.472656 -28.015625 14.5 -24.863281 14.5 -20.75 Z M 14.5 -20.75 "/></g></g></g><g fill="#000000" fill-opacity="1"><g transform="translate(360.531834, 62.122959)"><g><path d="M 29.640625 -42.46875 C 32.097656 -42.46875 34.234375 -42.050781 36.046875 -41.21875 C 37.867188 -40.394531 39.316406 -39.421875 40.390625 -38.296875 C 41.671875 -36.910156 42.507812 -35.269531 42.90625 -33.375 C 43.3125 -31.476562 43.515625 -29.378906 43.515625 -27.078125 L 43.515625 0 L 32.53125 0 L 32.53125 -22.671875 C 32.53125 -26.515625 32.101562 -29.367188 31.25 -31.234375 C 30.394531 -33.109375 28.578125 -34.046875 25.796875 -34.046875 C 23.179688 -34.046875 21.148438 -33.296875 19.703125 -31.796875 C 18.265625 -30.304688 17.410156 -28.570312 17.140625 -26.59375 C 16.984375 -25.3125 16.863281 -24.164062 16.78125 -23.15625 C 16.707031 -22.144531 16.671875 -20.992188 16.671875 -19.703125 L 16.671875 0 L 5.6875 0 L 5.6875 -41.5 L 16.109375 -41.5 L 16.109375 -35.421875 C 17.285156 -37.179688 19.035156 -38.796875 21.359375 -40.265625 C 23.679688 -41.734375 26.441406 -42.46875 29.640625 -42.46875 Z M 29.640625 -42.46875 "/></g></g></g><g fill="#000000" fill-opacity="1"><g transform="translate(409.473168, 62.122959)"><g><path d="M 20.90625 -42.46875 C 26.09375 -42.46875 30.164062 -41.613281 33.125 -39.90625 C 36.09375 -38.195312 38.140625 -35.390625 39.265625 -31.484375 L 28.84375 -29.5625 C 28.363281 -31.269531 27.492188 -32.535156 26.234375 -33.359375 C 24.984375 -34.191406 23.238281 -34.609375 21 -34.609375 C 16.03125 -34.609375 13.546875 -33.460938 13.546875 -31.171875 C 13.546875 -30.046875 14.359375 -29.148438 15.984375 -28.484375 C 17.609375 -27.816406 19.972656 -27.132812 23.078125 -26.4375 C 26.867188 -25.582031 29.960938 -24.710938 32.359375 -23.828125 C 34.765625 -22.953125 36.742188 -21.644531 38.296875 -19.90625 C 39.847656 -18.175781 40.625 -15.867188 40.625 -12.984375 C 40.625 -10.628906 39.96875 -8.394531 38.65625 -6.28125 C 37.351562 -4.175781 35.285156 -2.441406 32.453125 -1.078125 C 29.617188 0.285156 26.039062 0.96875 21.71875 0.96875 C 16.851562 0.96875 12.5625 -0.0703125 8.84375 -2.15625 C 5.132812 -4.238281 2.800781 -7.472656 1.84375 -11.859375 L 12.8125 -13.546875 C 13.832031 -9.109375 16.800781 -6.890625 21.71875 -6.890625 C 23.632812 -6.890625 25.429688 -7.222656 27.109375 -7.890625 C 28.796875 -8.554688 29.640625 -9.742188 29.640625 -11.453125 C 29.640625 -12.578125 29.253906 -13.363281 28.484375 -13.8125 C 27.710938 -14.269531 26.472656 -14.6875 24.765625 -15.0625 C 19.679688 -16.1875 15.722656 -17.226562 12.890625 -18.1875 C 10.066406 -19.144531 7.769531 -20.53125 6 -22.34375 C 4.238281 -24.164062 3.359375 -26.625 3.359375 -29.71875 C 3.359375 -34.050781 5.015625 -37.257812 8.328125 -39.34375 C 11.640625 -41.425781 15.832031 -42.46875 20.90625 -42.46875 Z M 20.90625 -42.46875 "/></g></g></g><g fill="#000000" fill-opacity="1"><g transform="translate(205.936855, 252.4587)"><g><path d="M 11.53125 -42.90625 L 11.53125 -4.171875 L 32.1875 -4.171875 L 32.1875 0 L 6.484375 0 L 6.484375 -42.90625 Z M 11.53125 -42.90625 "/></g></g></g><g fill="#000000" fill-opacity="1"><g transform="translate(239.916537, 252.4587)"><g><path d="M 18.578125 0.609375 C 15.523438 0.609375 12.867188 -0.03125 10.609375 -1.3125 C 8.347656 -2.601562 6.601562 -4.503906 5.375 -7.015625 C 4.15625 -9.535156 3.546875 -12.585938 3.546875 -16.171875 C 3.546875 -19.742188 4.15625 -22.789062 5.375 -25.3125 C 6.601562 -27.84375 8.347656 -29.753906 10.609375 -31.046875 C 12.867188 -32.335938 15.523438 -32.984375 18.578125 -32.984375 C 21.628906 -32.984375 24.28125 -32.335938 26.53125 -31.046875 C 28.789062 -29.753906 30.53125 -27.84375 31.75 -25.3125 C 32.976562 -22.789062 33.59375 -19.742188 33.59375 -16.171875 C 33.59375 -12.585938 32.976562 -9.535156 31.75 -7.015625 C 30.53125 -4.503906 28.789062 -2.601562 26.53125 -1.3125 C 24.28125 -0.03125 21.628906 0.609375 18.578125 0.609375 Z M 18.578125 -3.671875 C 21.804688 -3.671875 24.273438 -4.6875 25.984375 -6.71875 C 27.691406 -8.75 28.546875 -11.898438 28.546875 -16.171875 C 28.546875 -20.453125 27.691406 -23.609375 25.984375 -25.640625 C 24.273438 -27.679688 21.804688 -28.703125 18.578125 -28.703125 C 15.347656 -28.703125 12.867188 -27.675781 11.140625 -25.625 C 9.421875 -23.582031 8.5625 -20.429688 8.5625 -16.171875 C 8.5625 -11.898438 9.421875 -8.75 11.140625 -6.71875 C 12.867188 -4.6875 15.347656 -3.671875 18.578125 -3.671875 Z M 18.578125 -3.671875 "/></g></g></g><g fill="#000000" fill-opacity="1"><g transform="translate(277.033256, 252.4587)"><g><path d="M 5.640625 0 L 5.640625 -45.359375 L 10.421875 -45.359375 L 10.421875 -18.875 L 11.203125 -18.875 L 23.234375 -32.359375 L 28.25 -32.359375 L 28.25 -31.6875 L 15.4375 -17.171875 L 29.484375 -0.734375 L 29.484375 0 L 24.15625 0 L 11.203125 -14.96875 L 10.421875 -14.96875 L 10.421875 0 Z M 5.640625 0 "/></g></g></g><g fill="#000000" fill-opacity="1"><g transform="translate(307.11363, 252.4587)"><g><path d="M 8.046875 -38.609375 C 7.023438 -38.609375 6.195312 -38.925781 5.5625 -39.5625 C 4.925781 -40.195312 4.609375 -41.003906 4.609375 -41.984375 C 4.609375 -42.960938 4.925781 -43.769531 5.5625 -44.40625 C 6.195312 -45.039062 7.023438 -45.359375 8.046875 -45.359375 C 9.054688 -45.359375 9.878906 -45.039062 10.515625 -44.40625 C 11.148438 -43.769531 11.46875 -42.960938 11.46875 -41.984375 C 11.46875 -41.003906 11.148438 -40.195312 10.515625 -39.5625 C 9.878906 -38.925781 9.054688 -38.609375 8.046875 -38.609375 Z M 5.640625 0 L 5.640625 -32.359375 L 10.421875 -32.359375 L 10.421875 0 Z M 5.640625 0 "/></g></g></g><g fill="#000000" fill-opacity="1"><g transform="translate(323.150633, 252.4587)"><g><path d="M 1.84375 8.953125 C 3.550781 7.835938 4.988281 6.546875 6.15625 5.078125 C 7.332031 3.609375 7.941406 1.992188 7.984375 0.234375 C 6.828125 0.234375 5.921875 -0.078125 5.265625 -0.703125 C 4.609375 -1.328125 4.28125 -2.160156 4.28125 -3.203125 C 4.28125 -4.210938 4.597656 -5.046875 5.234375 -5.703125 C 5.867188 -6.359375 6.71875 -6.6875 7.78125 -6.6875 C 8.925781 -6.6875 9.859375 -6.285156 10.578125 -5.484375 C 11.296875 -4.679688 11.65625 -3.421875 11.65625 -1.703125 C 11.65625 1.347656 11 3.914062 9.6875 6 C 8.375 8.082031 6.4375 9.984375 3.875 11.703125 Z M 1.84375 8.953125 "/></g></g></g><g fill="#000000" fill-opacity="1"><g transform="translate(339.070363, 252.4587)"><g/></g></g><g fill="#000000" fill-opacity="1"><g transform="translate(353.788051, 252.4587)"><g><path d="M 18.75 0.609375 C 16.050781 0.609375 13.628906 0.242188 11.484375 -0.484375 C 9.347656 -1.210938 7.5625 -2.175781 6.125 -3.375 C 4.695312 -4.570312 3.632812 -5.882812 2.9375 -7.3125 L 5.6875 -10.65625 L 6.421875 -10.65625 C 9.085938 -6.175781 13.195312 -3.9375 18.75 -3.9375 C 21.976562 -3.9375 24.378906 -4.609375 25.953125 -5.953125 C 27.523438 -7.304688 28.3125 -9.1875 28.3125 -11.59375 C 28.3125 -13 28.050781 -14.191406 27.53125 -15.171875 C 27.019531 -16.148438 26.164062 -16.984375 24.96875 -17.671875 C 23.78125 -18.367188 22.15625 -18.972656 20.09375 -19.484375 L 15.078125 -20.71875 C 11.347656 -21.613281 8.597656 -23.046875 6.828125 -25.015625 C 5.054688 -26.984375 4.171875 -29.472656 4.171875 -32.484375 C 4.171875 -34.617188 4.71875 -36.519531 5.8125 -38.1875 C 6.90625 -39.863281 8.507812 -41.171875 10.625 -42.109375 C 12.738281 -43.046875 15.257812 -43.515625 18.1875 -43.515625 C 21.414062 -43.515625 24.140625 -43.054688 26.359375 -42.140625 C 28.578125 -41.234375 30.351562 -39.875 31.6875 -38.0625 L 29.21875 -34.734375 L 28.484375 -34.734375 C 27.253906 -36.242188 25.796875 -37.347656 24.109375 -38.046875 C 22.429688 -38.753906 20.457031 -39.109375 18.1875 -39.109375 C 15.21875 -39.109375 12.972656 -38.53125 11.453125 -37.375 C 9.941406 -36.226562 9.1875 -34.632812 9.1875 -32.59375 C 9.1875 -30.65625 9.742188 -29.113281 10.859375 -27.96875 C 11.972656 -26.832031 13.847656 -25.953125 16.484375 -25.328125 L 21.625 -24.09375 C 25.789062 -23.113281 28.804688 -21.609375 30.671875 -19.578125 C 32.546875 -17.554688 33.484375 -14.972656 33.484375 -11.828125 C 33.484375 -9.398438 32.9375 -7.25 31.84375 -5.375 C 30.757812 -3.507812 29.113281 -2.046875 26.90625 -0.984375 C 24.695312 0.078125 21.976562 0.609375 18.75 0.609375 Z M 18.75 0.609375 "/></g></g></g><g fill="#000000" fill-opacity="1"><g transform="translate(390.523635, 252.4587)"><g><path d="M 2.578125 -1.96875 C 2.578125 -4.332031 2.835938 -6.238281 3.359375 -7.6875 C 3.878906 -9.132812 4.765625 -10.484375 6.015625 -11.734375 C 7.265625 -12.984375 9.257812 -14.609375 12 -16.609375 L 16.71875 -20.046875 C 18.46875 -21.316406 19.890625 -22.488281 20.984375 -23.5625 C 22.078125 -24.632812 22.941406 -25.800781 23.578125 -27.0625 C 24.210938 -28.332031 24.53125 -29.75 24.53125 -31.3125 C 24.53125 -33.851562 23.851562 -35.769531 22.5 -37.0625 C 21.15625 -38.351562 19.046875 -39 16.171875 -39 C 13.898438 -39 11.882812 -38.46875 10.125 -37.40625 C 8.363281 -36.351562 6.953125 -34.859375 5.890625 -32.921875 L 5.21875 -32.8125 L 2.203125 -35.96875 C 3.648438 -38.320312 5.550781 -40.164062 7.90625 -41.5 C 10.257812 -42.84375 13.015625 -43.515625 16.171875 -43.515625 C 19.222656 -43.515625 21.753906 -42.992188 23.765625 -41.953125 C 25.785156 -40.921875 27.273438 -39.488281 28.234375 -37.65625 C 29.191406 -35.832031 29.671875 -33.71875 29.671875 -31.3125 C 29.671875 -29.394531 29.269531 -27.601562 28.46875 -25.9375 C 27.664062 -24.269531 26.53125 -22.703125 25.0625 -21.234375 C 23.59375 -19.773438 21.753906 -18.234375 19.546875 -16.609375 L 14.765625 -13.109375 C 12.984375 -11.804688 11.613281 -10.691406 10.65625 -9.765625 C 9.695312 -8.847656 8.992188 -7.953125 8.546875 -7.078125 C 8.109375 -6.210938 7.890625 -5.242188 7.890625 -4.171875 L 29.671875 -4.171875 L 29.671875 0 L 2.578125 0 Z M 2.578125 -1.96875 "/></g></g></g><g fill="#000000" fill-opacity="1"><g transform="translate(423.477183, 252.4587)"><g/></g></g><g fill="#000000" fill-opacity="1"><g transform="translate(438.194871, 252.4587)"><g><path d="M 21.09375 0.609375 C 17.945312 0.609375 15.117188 -0.144531 12.609375 -1.65625 C 10.109375 -3.175781 8.113281 -5.582031 6.625 -8.875 C 5.144531 -12.175781 4.40625 -16.367188 4.40625 -21.453125 C 4.40625 -26.535156 5.144531 -30.722656 6.625 -34.015625 C 8.113281 -37.316406 10.109375 -39.722656 12.609375 -41.234375 C 15.117188 -42.753906 17.945312 -43.515625 21.09375 -43.515625 C 24.25 -43.515625 27.078125 -42.753906 29.578125 -41.234375 C 32.078125 -39.722656 34.066406 -37.316406 35.546875 -34.015625 C 37.023438 -30.722656 37.765625 -26.535156 37.765625 -21.453125 C 37.765625 -16.367188 37.023438 -12.175781 35.546875 -8.875 C 34.066406 -5.582031 32.078125 -3.175781 29.578125 -1.65625 C 27.078125 -0.144531 24.25 0.609375 21.09375 0.609375 Z M 21.09375 -4.046875 C 24.832031 -4.046875 27.664062 -5.390625 29.59375 -8.078125 C 31.519531 -10.773438 32.484375 -15.234375 32.484375 -21.453125 C 32.484375 -27.671875 31.519531 -32.125 29.59375 -34.8125 C 27.664062 -37.5 24.832031 -38.84375 21.09375 -38.84375 C 18.632812 -38.84375 16.5625 -38.273438 14.875 -37.140625 C 13.195312 -36.015625 11.910156 -34.171875 11.015625 -31.609375 C 10.128906 -29.046875 9.6875 -25.660156 9.6875 -21.453125 C 9.6875 -17.242188 10.128906 -13.859375 11.015625 -11.296875 C 11.910156 -8.734375 13.195312 -6.882812 14.875 -5.75 C 16.5625 -4.613281 18.632812 -4.046875 21.09375 -4.046875 Z M 21.09375 -4.046875 "/></g></g></g><g fill="#000000" fill-opacity="1"><g transform="translate(480.354304, 252.4587)"><g><path d="M 3.046875 0 L 3.046875 -4.171875 L 14.765625 -4.171875 L 14.765625 -36.96875 L 14.078125 -37.140625 C 12.179688 -36.203125 10.519531 -35.484375 9.09375 -34.984375 C 7.664062 -34.492188 5.835938 -34.007812 3.609375 -33.53125 L 3.609375 -38.171875 C 5.816406 -38.640625 8 -39.273438 10.15625 -40.078125 C 12.320312 -40.878906 14.285156 -41.820312 16.046875 -42.90625 L 19.6875 -42.90625 L 19.6875 -4.171875 L 30.171875 -4.171875 L 30.171875 0 Z M 3.046875 0 "/></g></g></g><g fill="#000000" fill-opacity="1"><g transform="translate(205.936855, 420.725881)"><g><path d="M 33.484375 -42.90625 L 33.484375 -38.609375 L 20.046875 -38.609375 L 20.046875 0 L 15.03125 0 L 15.03125 -38.609375 L 1.578125 -38.609375 L 1.578125 -42.90625 Z M 33.484375 -42.90625 "/></g></g></g><g fill="#000000" fill-opacity="1"><g transform="translate(240.94267, 420.725881)"><g><path d="M 23.359375 0 L 16.71875 0 L 1.84375 -42.90625 L 7.21875 -42.90625 L 19.8125 -6.3125 L 20.546875 -6.3125 L 32.984375 -42.90625 L 38.265625 -42.90625 Z M 23.359375 0 "/></g></g></g><g fill="#000000" fill-opacity="1"><g transform="translate(280.9912, 420.725881)"><g><path d="M 38.609375 0 L 33.21875 0 L 29.25 -11.765625 L 10.96875 -11.765625 L 6.984375 0 L 1.703125 0 L 16.671875 -42.90625 L 23.65625 -42.90625 Z M 19.75 -37.703125 L 12.375 -15.984375 L 27.8125 -15.984375 L 20.484375 -37.703125 Z M 19.75 -37.703125 "/></g></g></g><g fill="#000000" fill-opacity="1"><g transform="translate(205.936855, 584.1527)"><g><path d="M 23.53125 0.609375 C 19.8125 0.609375 16.503906 -0.191406 13.609375 -1.796875 C 10.710938 -3.398438 8.429688 -5.847656 6.765625 -9.140625 C 5.109375 -12.429688 4.28125 -16.535156 4.28125 -21.453125 C 4.28125 -26.359375 5.109375 -30.457031 6.765625 -33.75 C 8.429688 -37.050781 10.710938 -39.503906 13.609375 -41.109375 C 16.503906 -42.710938 19.8125 -43.515625 23.53125 -43.515625 C 27.25 -43.515625 30.554688 -42.710938 33.453125 -41.109375 C 36.347656 -39.503906 38.625 -37.050781 40.28125 -33.75 C 41.945312 -30.457031 42.78125 -26.359375 42.78125 -21.453125 C 42.78125 -16.535156 41.945312 -12.429688 40.28125 -9.140625 C 38.625 -5.847656 36.347656 -3.398438 33.453125 -1.796875 C 30.554688 -0.191406 27.25 0.609375 23.53125 0.609375 Z M 23.53125 -4.046875 C 27.988281 -4.046875 31.410156 -5.4375 33.796875 -8.21875 C 36.179688 -11.007812 37.375 -15.421875 37.375 -21.453125 C 37.375 -27.472656 36.179688 -31.875 33.796875 -34.65625 C 31.410156 -37.445312 27.988281 -38.84375 23.53125 -38.84375 C 14.300781 -38.84375 9.6875 -33.046875 9.6875 -21.453125 C 9.6875 -9.847656 14.300781 -4.046875 23.53125 -4.046875 Z M 23.53125 -4.046875 "/></g></g></g><g fill="#000000" fill-opacity="1"><g transform="translate(252.963093, 584.1527)"><g><path d="M 15.984375 0.609375 C 12.328125 0.609375 9.601562 -0.351562 7.8125 -2.28125 C 6.03125 -4.21875 5.140625 -7.054688 5.140625 -10.796875 L 5.140625 -32.359375 L 9.921875 -32.359375 L 9.921875 -10.921875 C 9.921875 -6.003906 12.226562 -3.546875 16.84375 -3.546875 C 19.78125 -3.546875 22.097656 -4.503906 23.796875 -6.421875 C 25.492188 -8.335938 26.34375 -11.445312 26.34375 -15.75 L 26.34375 -32.359375 L 31.125 -32.359375 L 31.125 0 L 26.609375 0 L 26.609375 -5.078125 L 26 -5.21875 C 24.882812 -3.25 23.546875 -1.785156 21.984375 -0.828125 C 20.429688 0.128906 18.429688 0.609375 15.984375 0.609375 Z M 15.984375 0.609375 "/></g></g></g><g fill="#000000" fill-opacity="1"><g transform="translate(289.698676, 584.1527)"><g><path d="M 21.890625 -5.140625 L 23.421875 -1.703125 C 22.648438 -0.941406 21.644531 -0.367188 20.40625 0.015625 C 19.164062 0.410156 17.820312 0.609375 16.375 0.609375 C 10.1875 0.609375 7.09375 -2.519531 7.09375 -8.78125 L 7.09375 -28.46875 L 1.46875 -28.46875 L 1.46875 -32.390625 L 7.09375 -32.390625 L 7.09375 -39.234375 L 11.890625 -40.015625 L 11.890625 -32.390625 L 22.296875 -32.390625 L 22.296875 -28.46875 L 11.890625 -28.46875 L 11.890625 -9.25 C 11.890625 -5.53125 13.5 -3.671875 16.71875 -3.671875 C 18.476562 -3.671875 19.992188 -4.160156 21.265625 -5.140625 Z M 21.890625 -5.140625 "/></g></g></g><g fill="#000000" fill-opacity="1"><g transform="translate(314.325883, 584.1527)"><g><path d="M 14.765625 0.609375 C 12.722656 0.609375 10.835938 0.34375 9.109375 -0.1875 C 7.378906 -0.726562 5.914062 -1.46875 4.71875 -2.40625 C 3.53125 -3.34375 2.691406 -4.398438 2.203125 -5.578125 L 5.015625 -8.515625 L 5.640625 -8.515625 C 6.691406 -6.910156 7.957031 -5.703125 9.4375 -4.890625 C 10.925781 -4.078125 12.703125 -3.671875 14.765625 -3.671875 C 17.148438 -3.671875 18.960938 -4.132812 20.203125 -5.0625 C 21.441406 -5.988281 22.0625 -7.285156 22.0625 -8.953125 C 22.0625 -10.222656 21.6875 -11.269531 20.9375 -12.09375 C 20.1875 -12.925781 18.96875 -13.550781 17.28125 -13.96875 L 11.828125 -15.3125 C 8.910156 -16.019531 6.78125 -17.132812 5.4375 -18.65625 C 4.101562 -20.1875 3.4375 -22.078125 3.4375 -24.328125 C 3.4375 -26.085938 3.882812 -27.617188 4.78125 -28.921875 C 5.675781 -30.222656 6.96875 -31.222656 8.65625 -31.921875 C 10.351562 -32.628906 12.367188 -32.984375 14.703125 -32.984375 C 17.671875 -32.984375 20.007812 -32.566406 21.71875 -31.734375 C 23.4375 -30.898438 24.773438 -29.738281 25.734375 -28.25 L 23.03125 -25.609375 L 22.453125 -25.609375 C 21.410156 -26.804688 20.273438 -27.664062 19.046875 -28.1875 C 17.828125 -28.71875 16.378906 -28.984375 14.703125 -28.984375 C 12.566406 -28.984375 10.929688 -28.601562 9.796875 -27.84375 C 8.660156 -27.082031 8.09375 -25.976562 8.09375 -24.53125 C 8.09375 -23.21875 8.492188 -22.160156 9.296875 -21.359375 C 10.097656 -20.554688 11.5 -19.910156 13.5 -19.421875 L 18.875 -18.140625 C 21.6875 -17.472656 23.71875 -16.363281 24.96875 -14.8125 C 26.21875 -13.269531 26.84375 -11.335938 26.84375 -9.015625 C 26.84375 -7.109375 26.394531 -5.429688 25.5 -3.984375 C 24.601562 -2.535156 23.242188 -1.40625 21.421875 -0.59375 C 19.597656 0.207031 17.378906 0.609375 14.765625 0.609375 Z M 14.765625 0.609375 "/></g></g></g><g fill="#000000" fill-opacity="1"><g transform="translate(344.230349, 584.1527)"><g><path d="M 8.046875 -38.609375 C 7.023438 -38.609375 6.195312 -38.925781 5.5625 -39.5625 C 4.925781 -40.195312 4.609375 -41.003906 4.609375 -41.984375 C 4.609375 -42.960938 4.925781 -43.769531 5.5625 -44.40625 C 6.195312 -45.039062 7.023438 -45.359375 8.046875 -45.359375 C 9.054688 -45.359375 9.878906 -45.039062 10.515625 -44.40625 C 11.148438 -43.769531 11.46875 -42.960938 11.46875 -41.984375 C 11.46875 -41.003906 11.148438 -40.195312 10.515625 -39.5625 C 9.878906 -38.925781 9.054688 -38.609375 8.046875 -38.609375 Z M 5.640625 0 L 5.640625 -32.359375 L 10.421875 -32.359375 L 10.421875 0 Z M 5.640625 0 "/></g></g></g><g fill="#000000" fill-opacity="1"><g transform="translate(360.267351, 584.1527)"><g><path d="M 16.78125 0.609375 C 14.175781 0.609375 11.878906 -0.0078125 9.890625 -1.25 C 7.910156 -2.488281 6.359375 -4.359375 5.234375 -6.859375 C 4.109375 -9.367188 3.546875 -12.472656 3.546875 -16.171875 C 3.546875 -19.867188 4.132812 -22.972656 5.3125 -25.484375 C 6.488281 -27.992188 8.109375 -29.867188 10.171875 -31.109375 C 12.234375 -32.359375 14.625 -32.984375 17.34375 -32.984375 C 19.488281 -32.984375 21.421875 -32.578125 23.140625 -31.765625 C 24.867188 -30.953125 26.347656 -29.617188 27.578125 -27.765625 L 28.203125 -27.875 L 28.203125 -45.359375 L 32.984375 -45.359375 L 32.984375 0 L 28.203125 0 L 28.203125 -4.71875 L 27.578125 -4.84375 C 26.523438 -3.238281 25.09375 -1.925781 23.28125 -0.90625 C 21.46875 0.101562 19.300781 0.609375 16.78125 0.609375 Z M 18.28125 -3.671875 C 21.289062 -3.671875 23.695312 -4.703125 25.5 -6.765625 C 27.300781 -8.828125 28.203125 -11.960938 28.203125 -16.171875 C 28.203125 -20.390625 27.300781 -23.53125 25.5 -25.59375 C 23.695312 -27.664062 21.289062 -28.703125 18.28125 -28.703125 C 15.164062 -28.703125 12.765625 -27.691406 11.078125 -25.671875 C 9.398438 -23.660156 8.5625 -20.492188 8.5625 -16.171875 C 8.5625 -7.835938 11.800781 -3.671875 18.28125 -3.671875 Z M 18.28125 -3.671875 "/></g></g></g><g fill="#000000" fill-opacity="1"><g transform="translate(398.879293, 584.1527)"><g><path d="M 30.84375 -15.078125 L 8.59375 -15.078125 C 8.726562 -11.148438 9.671875 -8.265625 11.421875 -6.421875 C 13.179688 -4.585938 15.582031 -3.671875 18.625 -3.671875 C 20.9375 -3.671875 22.796875 -4.078125 24.203125 -4.890625 C 25.617188 -5.710938 26.722656 -7.007812 27.515625 -8.78125 L 28.140625 -8.78125 L 31.25 -6.921875 C 30.3125 -4.578125 28.8125 -2.734375 26.75 -1.390625 C 24.6875 -0.0546875 21.976562 0.609375 18.625 0.609375 C 15.5 0.609375 12.8125 -0.00390625 10.5625 -1.234375 C 8.3125 -2.460938 6.578125 -4.328125 5.359375 -6.828125 C 4.148438 -9.335938 3.546875 -12.453125 3.546875 -16.171875 C 3.546875 -19.847656 4.1875 -22.945312 5.46875 -25.46875 C 6.75 -27.988281 8.5 -29.867188 10.71875 -31.109375 C 12.945312 -32.359375 15.488281 -32.984375 18.34375 -32.984375 C 22.488281 -32.984375 25.722656 -31.8125 28.046875 -29.46875 C 30.378906 -27.132812 31.554688 -23.671875 31.578125 -19.078125 C 31.578125 -17.273438 31.535156 -16.0625 31.453125 -15.4375 Z M 26.84375 -19.078125 C 26.769531 -22.515625 26.007812 -25.015625 24.5625 -26.578125 C 23.113281 -28.148438 21.039062 -28.9375 18.34375 -28.9375 C 15.5 -28.9375 13.269531 -28.144531 11.65625 -26.5625 C 10.050781 -24.988281 9.070312 -22.492188 8.71875 -19.078125 Z M 26.84375 -19.078125 "/></g></g></g><g fill="#000000" fill-opacity="1"><g transform="translate(433.357383, 584.1527)"><g/></g></g><g fill="#000000" fill-opacity="1"><g transform="translate(448.075071, 584.1527)"><g><path d="M 18.578125 0.609375 C 15.523438 0.609375 12.867188 -0.03125 10.609375 -1.3125 C 8.347656 -2.601562 6.601562 -4.503906 5.375 -7.015625 C 4.15625 -9.535156 3.546875 -12.585938 3.546875 -16.171875 C 3.546875 -19.742188 4.15625 -22.789062 5.375 -25.3125 C 6.601562 -27.84375 8.347656 -29.753906 10.609375 -31.046875 C 12.867188 -32.335938 15.523438 -32.984375 18.578125 -32.984375 C 21.628906 -32.984375 24.28125 -32.335938 26.53125 -31.046875 C 28.789062 -29.753906 30.53125 -27.84375 31.75 -25.3125 C 32.976562 -22.789062 33.59375 -19.742188 33.59375 -16.171875 C 33.59375 -12.585938 32.976562 -9.535156 31.75 -7.015625 C 30.53125 -4.503906 28.789062 -2.601562 26.53125 -1.3125 C 24.28125 -0.03125 21.628906 0.609375 18.578125 0.609375 Z M 18.578125 -3.671875 C 21.804688 -3.671875 24.273438 -4.6875 25.984375 -6.71875 C 27.691406 -8.75 28.546875 -11.898438 28.546875 -16.171875 C 28.546875 -20.453125 27.691406 -23.609375 25.984375 -25.640625 C 24.273438 -27.679688 21.804688 -28.703125 18.578125 -28.703125 C 15.347656 -28.703125 12.867188 -27.675781 11.140625 -25.625 C 9.421875 -23.582031 8.5625 -20.429688 8.5625 -16.171875 C 8.5625 -11.898438 9.421875 -8.75 11.140625 -6.71875 C 12.867188 -4.6875 15.347656 -3.671875 18.578125 -3.671875 Z M 18.578125 -3.671875 "/></g></g></g><g fill="#000000" fill-opacity="1"><g transform="translate(485.19179, 584.1527)"><g><path d="M 7.21875 0 L 7.21875 -28.46875 L 1.578125 -28.46875 L 1.578125 -32.390625 L 7.21875 -32.390625 C 6.863281 -33.796875 6.6875 -35.140625 6.6875 -36.421875 C 6.6875 -38.503906 7.128906 -40.265625 8.015625 -41.703125 C 8.910156 -43.148438 10.148438 -44.222656 11.734375 -44.921875 C 13.316406 -45.628906 15.144531 -45.984375 17.21875 -45.984375 C 20.445312 -45.984375 22.921875 -45.285156 24.640625 -43.890625 L 22.796875 -40.515625 L 22.1875 -40.40625 C 20.914062 -41.425781 19.257812 -41.9375 17.21875 -41.9375 C 15.320312 -41.9375 13.890625 -41.445312 12.921875 -40.46875 C 11.953125 -39.488281 11.46875 -38.097656 11.46875 -36.296875 C 11.46875 -35.179688 11.644531 -33.878906 12 -32.390625 L 22.296875 -32.390625 L 22.296875 -28.46875 L 12 -28.46875 L 12 0 Z M 7.21875 0 "/></g></g></g><g fill="#000000" fill-opacity="1"><g transform="translate(508.235819, 584.1527)"><g/></g></g><g fill="#000000" fill-opacity="1"><g transform="translate(522.953507, 584.1527)"><g><path d="M 14.765625 0.609375 C 12.722656 0.609375 10.835938 0.34375 9.109375 -0.1875 C 7.378906 -0.726562 5.914062 -1.46875 4.71875 -2.40625 C 3.53125 -3.34375 2.691406 -4.398438 2.203125 -5.578125 L 5.015625 -8.515625 L 5.640625 -8.515625 C 6.691406 -6.910156 7.957031 -5.703125 9.4375 -4.890625 C 10.925781 -4.078125 12.703125 -3.671875 14.765625 -3.671875 C 17.148438 -3.671875 18.960938 -4.132812 20.203125 -5.0625 C 21.441406 -5.988281 22.0625 -7.285156 22.0625 -8.953125 C 22.0625 -10.222656 21.6875 -11.269531 20.9375 -12.09375 C 20.1875 -12.925781 18.96875 -13.550781 17.28125 -13.96875 L 11.828125 -15.3125 C 8.910156 -16.019531 6.78125 -17.132812 5.4375 -18.65625 C 4.101562 -20.1875 3.4375 -22.078125 3.4375 -24.328125 C 3.4375 -26.085938 3.882812 -27.617188 4.78125 -28.921875 C 5.675781 -30.222656 6.96875 -31.222656 8.65625 -31.921875 C 10.351562 -32.628906 12.367188 -32.984375 14.703125 -32.984375 C 17.671875 -32.984375 20.007812 -32.566406 21.71875 -31.734375 C 23.4375 -30.898438 24.773438 -29.738281 25.734375 -28.25 L 23.03125 -25.609375 L 22.453125 -25.609375 C 21.410156 -26.804688 20.273438 -27.664062 19.046875 -28.1875 C 17.828125 -28.71875 16.378906 -28.984375 14.703125 -28.984375 C 12.566406 -28.984375 10.929688 -28.601562 9.796875 -27.84375 C 8.660156 -27.082031 8.09375 -25.976562 8.09375 -24.53125 C 8.09375 -23.21875 8.492188 -22.160156 9.296875 -21.359375 C 10.097656 -20.554688 11.5 -19.910156 13.5 -19.421875 L 18.875 -18.140625 C 21.6875 -17.472656 23.71875 -16.363281 24.96875 -14.8125 C 26.21875 -13.269531 26.84375 -11.335938 26.84375 -9.015625 C 26.84375 -7.109375 26.394531 -5.429688 25.5 -3.984375 C 24.601562 -2.535156 23.242188 -1.40625 21.421875 -0.59375 C 19.597656 0.207031 17.378906 0.609375 14.765625 0.609375 Z M 14.765625 0.609375 "/></g></g></g><g fill="#000000" fill-opacity="1"><g transform="translate(552.857973, 584.1527)"><g><path d="M 5.640625 13.109375 L 5.640625 -32.359375 L 10.421875 -32.359375 L 10.421875 -27.515625 L 11.03125 -27.40625 C 13.4375 -31.125 16.96875 -32.984375 21.625 -32.984375 C 24.320312 -32.984375 26.675781 -32.363281 28.6875 -31.125 C 30.707031 -29.894531 32.273438 -28.023438 33.390625 -25.515625 C 34.503906 -23.003906 35.0625 -19.890625 35.0625 -16.171875 C 35.0625 -12.472656 34.472656 -9.367188 33.296875 -6.859375 C 32.128906 -4.359375 30.507812 -2.488281 28.4375 -1.25 C 26.363281 -0.0078125 23.972656 0.609375 21.265625 0.609375 C 19.078125 0.609375 17.128906 0.226562 15.421875 -0.53125 C 13.722656 -1.289062 12.257812 -2.539062 11.03125 -4.28125 L 10.421875 -4.171875 L 10.421875 13.109375 Z M 20.21875 -3.671875 C 26.769531 -3.671875 30.046875 -7.835938 30.046875 -16.171875 C 30.046875 -24.523438 26.769531 -28.703125 20.21875 -28.703125 C 18.300781 -28.703125 16.609375 -28.257812 15.140625 -27.375 C 13.671875 -26.5 12.515625 -25.125 11.671875 -23.25 C 10.835938 -21.382812 10.421875 -19.023438 10.421875 -16.171875 C 10.421875 -13.328125 10.835938 -10.972656 11.671875 -9.109375 C 12.515625 -7.242188 13.671875 -5.867188 15.140625 -4.984375 C 16.609375 -4.109375 18.300781 -3.671875 20.21875 -3.671875 Z M 20.21875 -3.671875 "/></g></g></g><g fill="#000000" fill-opacity="1"><g transform="translate(591.440597, 584.1527)"><g><path d="M 13.34375 0.609375 C 10.15625 0.609375 7.664062 -0.21875 5.875 -1.875 C 4.09375 -3.539062 3.203125 -5.921875 3.203125 -9.015625 C 3.203125 -10.929688 3.597656 -12.546875 4.390625 -13.859375 C 5.179688 -15.179688 6.40625 -16.257812 8.0625 -17.09375 C 9.726562 -17.925781 11.898438 -18.566406 14.578125 -19.015625 C 16.929688 -19.398438 18.71875 -19.835938 19.9375 -20.328125 C 21.15625 -20.816406 21.972656 -21.363281 22.390625 -21.96875 C 22.816406 -22.582031 23.03125 -23.347656 23.03125 -24.265625 C 23.03125 -25.734375 22.523438 -26.859375 21.515625 -27.640625 C 20.515625 -28.421875 18.898438 -28.8125 16.671875 -28.8125 C 14.578125 -28.8125 12.78125 -28.40625 11.28125 -27.59375 C 9.78125 -26.78125 8.40625 -25.570312 7.15625 -23.96875 L 6.578125 -23.96875 L 4.21875 -27.28125 C 5.59375 -29.03125 7.335938 -30.414062 9.453125 -31.4375 C 11.566406 -32.46875 13.972656 -32.984375 16.671875 -32.984375 C 20.484375 -32.984375 23.289062 -32.144531 25.09375 -30.46875 C 26.90625 -28.800781 27.8125 -26.488281 27.8125 -23.53125 L 27.8125 -6.375 C 27.8125 -4.570312 28.578125 -3.671875 30.109375 -3.671875 C 30.617188 -3.671875 31.109375 -3.757812 31.578125 -3.9375 L 31.984375 -3.8125 L 32.546875 -0.5 C 32.191406 -0.257812 31.722656 -0.078125 31.140625 0.046875 C 30.566406 0.171875 29.976562 0.234375 29.375 0.234375 C 27.59375 0.234375 26.242188 -0.15625 25.328125 -0.9375 C 24.421875 -1.71875 23.84375 -2.875 23.59375 -4.40625 L 22.96875 -4.453125 C 22.050781 -2.753906 20.8125 -1.484375 19.25 -0.640625 C 17.6875 0.191406 15.71875 0.609375 13.34375 0.609375 Z M 14.40625 -3.203125 C 16.207031 -3.203125 17.765625 -3.613281 19.078125 -4.4375 C 20.398438 -5.269531 21.414062 -6.441406 22.125 -7.953125 C 22.832031 -9.460938 23.1875 -11.203125 23.1875 -13.171875 L 23.1875 -17.28125 L 22.625 -17.40625 C 21.894531 -16.894531 21.007812 -16.46875 19.96875 -16.125 C 18.9375 -15.78125 17.492188 -15.472656 15.640625 -15.203125 C 13.765625 -14.941406 12.269531 -14.546875 11.15625 -14.015625 C 10.050781 -13.492188 9.265625 -12.828125 8.796875 -12.015625 C 8.328125 -11.203125 8.09375 -10.203125 8.09375 -9.015625 C 8.09375 -7.109375 8.648438 -5.660156 9.765625 -4.671875 C 10.878906 -3.691406 12.425781 -3.203125 14.40625 -3.203125 Z M 14.40625 -3.203125 "/></g></g></g><g fill="#000000" fill-opacity="1"><g transform="translate(624.892553, 584.1527)"><g><path d="M 18.578125 0.609375 C 15.722656 0.609375 13.160156 -0.0351562 10.890625 -1.328125 C 8.617188 -2.628906 6.828125 -4.546875 5.515625 -7.078125 C 4.203125 -9.617188 3.546875 -12.648438 3.546875 -16.171875 C 3.546875 -19.710938 4.203125 -22.75 5.515625 -25.28125 C 6.828125 -27.8125 8.617188 -29.726562 10.890625 -31.03125 C 13.160156 -32.332031 15.722656 -32.984375 18.578125 -32.984375 C 21.992188 -32.984375 24.710938 -32.335938 26.734375 -31.046875 C 28.765625 -29.753906 30.226562 -28.03125 31.125 -25.875 L 27.875 -23.53125 L 27.28125 -23.53125 C 26.40625 -25.3125 25.273438 -26.617188 23.890625 -27.453125 C 22.515625 -28.285156 20.742188 -28.703125 18.578125 -28.703125 C 16.578125 -28.703125 14.820312 -28.226562 13.3125 -27.28125 C 11.8125 -26.34375 10.644531 -24.9375 9.8125 -23.0625 C 8.976562 -21.1875 8.5625 -18.890625 8.5625 -16.171875 C 8.5625 -13.472656 8.984375 -11.1875 9.828125 -9.3125 C 10.671875 -7.445312 11.835938 -6.039062 13.328125 -5.09375 C 14.828125 -4.144531 16.578125 -3.671875 18.578125 -3.671875 C 20.828125 -3.671875 22.6875 -4.175781 24.15625 -5.1875 C 25.632812 -6.207031 26.796875 -7.8125 27.640625 -10 L 28.25 -10 L 31.390625 -8.15625 C 30.554688 -5.4375 29.054688 -3.296875 26.890625 -1.734375 C 24.734375 -0.171875 21.960938 0.609375 18.578125 0.609375 Z M 18.578125 0.609375 "/></g></g></g><g fill="#000000" fill-opacity="1"><g transform="translate(658.227237, 584.1527)"><g><path d="M 30.84375 -15.078125 L 8.59375 -15.078125 C 8.726562 -11.148438 9.671875 -8.265625 11.421875 -6.421875 C 13.179688 -4.585938 15.582031 -3.671875 18.625 -3.671875 C 20.9375 -3.671875 22.796875 -4.078125 24.203125 -4.890625 C 25.617188 -5.710938 26.722656 -7.007812 27.515625 -8.78125 L 28.140625 -8.78125 L 31.25 -6.921875 C 30.3125 -4.578125 28.8125 -2.734375 26.75 -1.390625 C 24.6875 -0.0546875 21.976562 0.609375 18.625 0.609375 C 15.5 0.609375 12.8125 -0.00390625 10.5625 -1.234375 C 8.3125 -2.460938 6.578125 -4.328125 5.359375 -6.828125 C 4.148438 -9.335938 3.546875 -12.453125 3.546875 -16.171875 C 3.546875 -19.847656 4.1875 -22.945312 5.46875 -25.46875 C 6.75 -27.988281 8.5 -29.867188 10.71875 -31.109375 C 12.945312 -32.359375 15.488281 -32.984375 18.34375 -32.984375 C 22.488281 -32.984375 25.722656 -31.8125 28.046875 -29.46875 C 30.378906 -27.132812 31.554688 -23.671875 31.578125 -19.078125 C 31.578125 -17.273438 31.535156 -16.0625 31.453125 -15.4375 Z M 26.84375 -19.078125 C 26.769531 -22.515625 26.007812 -25.015625 24.5625 -26.578125 C 23.113281 -28.148438 21.039062 -28.9375 18.34375 -28.9375 C 15.5 -28.9375 13.269531 -28.144531 11.65625 -26.5625 C 10.050781 -24.988281 9.070312 -22.492188 8.71875 -19.078125 Z M 26.84375 -19.078125 "/></g></g></g><g fill="#000000" fill-opacity="1"><g transform="translate(692.705326, 584.1527)"><g><path d="M 19.75 -18.6875 L 3.046875 -18.6875 L 3.046875 -22.96875 L 19.75 -22.96875 Z M 19.75 -18.6875 "/></g></g></g><g fill="#000000" fill-opacity="1"><g transform="translate(715.456174, 584.1527)"><g><path d="M 21.890625 -5.140625 L 23.421875 -1.703125 C 22.648438 -0.941406 21.644531 -0.367188 20.40625 0.015625 C 19.164062 0.410156 17.820312 0.609375 16.375 0.609375 C 10.1875 0.609375 7.09375 -2.519531 7.09375 -8.78125 L 7.09375 -28.46875 L 1.46875 -28.46875 L 1.46875 -32.390625 L 7.09375 -32.390625 L 7.09375 -39.234375 L 11.890625 -40.015625 L 11.890625 -32.390625 L 22.296875 -32.390625 L 22.296875 -28.46875 L 11.890625 -28.46875 L 11.890625 -9.25 C 11.890625 -5.53125 13.5 -3.671875 16.71875 -3.671875 C 18.476562 -3.671875 19.992188 -4.160156 21.265625 -5.140625 Z M 21.890625 -5.140625 "/></g></g></g><g fill="#000000" fill-opacity="1"><g transform="translate(740.083381, 584.1527)"><g><path d="M 8.046875 -38.609375 C 7.023438 -38.609375 6.195312 -38.925781 5.5625 -39.5625 C 4.925781 -40.195312 4.609375 -41.003906 4.609375 -41.984375 C 4.609375 -42.960938 4.925781 -43.769531 5.5625 -44.40625 C 6.195312 -45.039062 7.023438 -45.359375 8.046875 -45.359375 C 9.054688 -45.359375 9.878906 -45.039062 10.515625 -44.40625 C 11.148438 -43.769531 11.46875 -42.960938 11.46875 -41.984375 C 11.46875 -41.003906 11.148438 -40.195312 10.515625 -39.5625 C 9.878906 -38.925781 9.054688 -38.609375 8.046875 -38.609375 Z M 5.640625 0 L 5.640625 -32.359375 L 10.421875 -32.359375 L 10.421875 0 Z M 5.640625 0 "/></g></g></g><g fill="#000000" fill-opacity="1"><g transform="translate(756.120384, 584.1527)"><g><path d="M 5.640625 0 L 5.640625 -32.359375 L 10.1875 -32.359375 L 10.1875 -27.578125 L 10.796875 -27.46875 C 11.890625 -29.28125 13.210938 -30.648438 14.765625 -31.578125 C 16.328125 -32.515625 18.191406 -32.984375 20.359375 -32.984375 C 22.867188 -32.984375 24.804688 -32.507812 26.171875 -31.5625 C 27.546875 -30.613281 28.613281 -29.082031 29.375 -26.96875 L 29.984375 -26.96875 C 31.097656 -28.9375 32.472656 -30.429688 34.109375 -31.453125 C 35.742188 -32.472656 37.753906 -32.984375 40.140625 -32.984375 C 43.460938 -32.984375 45.941406 -32.082031 47.578125 -30.28125 C 49.210938 -28.476562 50.03125 -25.738281 50.03125 -22.0625 L 50.03125 0 L 45.25 0 L 45.25 -21.953125 C 45.25 -24.296875 44.753906 -26.023438 43.765625 -27.140625 C 42.773438 -28.253906 41.1875 -28.8125 39 -28.8125 C 36.414062 -28.8125 34.304688 -27.875 32.671875 -26 C 31.035156 -24.125 30.21875 -21.03125 30.21875 -16.71875 L 30.21875 0 L 25.4375 0 L 25.4375 -21.953125 C 25.4375 -24.296875 24.941406 -26.023438 23.953125 -27.140625 C 22.960938 -28.253906 21.375 -28.8125 19.1875 -28.8125 C 16.601562 -28.8125 14.492188 -27.898438 12.859375 -26.078125 C 11.234375 -24.265625 10.421875 -21.3125 10.421875 -17.21875 L 10.421875 0 Z M 5.640625 0 "/></g></g></g><g fill="#000000" fill-opacity="1"><g transform="translate(811.238418, 584.1527)"><g><path d="M 30.84375 -15.078125 L 8.59375 -15.078125 C 8.726562 -11.148438 9.671875 -8.265625 11.421875 -6.421875 C 13.179688 -4.585938 15.582031 -3.671875 18.625 -3.671875 C 20.9375 -3.671875 22.796875 -4.078125 24.203125 -4.890625 C 25.617188 -5.710938 26.722656 -7.007812 27.515625 -8.78125 L 28.140625 -8.78125 L 31.25 -6.921875 C 30.3125 -4.578125 28.8125 -2.734375 26.75 -1.390625 C 24.6875 -0.0546875 21.976562 0.609375 18.625 0.609375 C 15.5 0.609375 12.8125 -0.00390625 10.5625 -1.234375 C 8.3125 -2.460938 6.578125 -4.328125 5.359375 -6.828125 C 4.148438 -9.335938 3.546875 -12.453125 3.546875 -16.171875 C 3.546875 -19.847656 4.1875 -22.945312 5.46875 -25.46875 C 6.75 -27.988281 8.5 -29.867188 10.71875 -31.109375 C 12.945312 -32.359375 15.488281 -32.984375 18.34375 -32.984375 C 22.488281 -32.984375 25.722656 -31.8125 28.046875 -29.46875 C 30.378906 -27.132812 31.554688 -23.671875 31.578125 -19.078125 C 31.578125 -17.273438 31.535156 -16.0625 31.453125 -15.4375 Z M 26.84375 -19.078125 C 26.769531 -22.515625 26.007812 -25.015625 24.5625 -26.578125 C 23.113281 -28.148438 21.039062 -28.9375 18.34375 -28.9375 C 15.5 -28.9375 13.269531 -28.144531 11.65625 -26.5625 C 10.050781 -24.988281 9.070312 -22.492188 8.71875 -19.078125 Z M 26.84375 -19.078125 "/></g></g></g><g fill="#000000" fill-opacity="1"><g transform="translate(205.936855, 747.396323)"><g><path d="M 23.53125 0.609375 C 19.8125 0.609375 16.503906 -0.191406 13.609375 -1.796875 C 10.710938 -3.398438 8.429688 -5.847656 6.765625 -9.140625 C 5.109375 -12.429688 4.28125 -16.535156 4.28125 -21.453125 C 4.28125 -26.359375 5.109375 -30.457031 6.765625 -33.75 C 8.429688 -37.050781 10.710938 -39.503906 13.609375 -41.109375 C 16.503906 -42.710938 19.8125 -43.515625 23.53125 -43.515625 C 27.25 -43.515625 30.554688 -42.710938 33.453125 -41.109375 C 36.347656 -39.503906 38.625 -37.050781 40.28125 -33.75 C 41.945312 -30.457031 42.78125 -26.359375 42.78125 -21.453125 C 42.78125 -16.535156 41.945312 -12.429688 40.28125 -9.140625 C 38.625 -5.847656 36.347656 -3.398438 33.453125 -1.796875 C 30.554688 -0.191406 27.25 0.609375 23.53125 0.609375 Z M 23.53125 -4.046875 C 27.988281 -4.046875 31.410156 -5.4375 33.796875 -8.21875 C 36.179688 -11.007812 37.375 -15.421875 37.375 -21.453125 C 37.375 -27.472656 36.179688 -31.875 33.796875 -34.65625 C 31.410156 -37.445312 27.988281 -38.84375 23.53125 -38.84375 C 14.300781 -38.84375 9.6875 -33.046875 9.6875 -21.453125 C 9.6875 -9.847656 14.300781 -4.046875 23.53125 -4.046875 Z M 23.53125 -4.046875 "/></g></g></g><g fill="#000000" fill-opacity="1"><g transform="translate(252.963093, 747.396323)"><g><path d="M 15.984375 0.609375 C 12.328125 0.609375 9.601562 -0.351562 7.8125 -2.28125 C 6.03125 -4.21875 5.140625 -7.054688 5.140625 -10.796875 L 5.140625 -32.359375 L 9.921875 -32.359375 L 9.921875 -10.921875 C 9.921875 -6.003906 12.226562 -3.546875 16.84375 -3.546875 C 19.78125 -3.546875 22.097656 -4.503906 23.796875 -6.421875 C 25.492188 -8.335938 26.34375 -11.445312 26.34375 -15.75 L 26.34375 -32.359375 L 31.125 -32.359375 L 31.125 0 L 26.609375 0 L 26.609375 -5.078125 L 26 -5.21875 C 24.882812 -3.25 23.546875 -1.785156 21.984375 -0.828125 C 20.429688 0.128906 18.429688 0.609375 15.984375 0.609375 Z M 15.984375 0.609375 "/></g></g></g><g fill="#000000" fill-opacity="1"><g transform="translate(289.698676, 747.396323)"><g><path d="M 5.640625 0 L 5.640625 -32.359375 L 10.1875 -32.359375 L 10.1875 -27.28125 L 10.796875 -27.140625 C 12.304688 -30.816406 15.144531 -32.65625 19.3125 -32.65625 C 21.519531 -32.65625 23.171875 -32.253906 24.265625 -31.453125 L 23.03125 -27.40625 L 22.453125 -27.28125 C 21.234375 -27.894531 19.898438 -28.203125 18.453125 -28.203125 C 15.867188 -28.203125 13.882812 -27.234375 12.5 -25.296875 C 11.113281 -23.359375 10.421875 -20.21875 10.421875 -15.875 L 10.421875 0 Z M 5.640625 0 "/></g></g></g><g fill="#000000" fill-opacity="1"><g transform="translate(314.677701, 747.396323)"><g><path d="M 18.578125 0.609375 C 15.523438 0.609375 12.867188 -0.03125 10.609375 -1.3125 C 8.347656 -2.601562 6.601562 -4.503906 5.375 -7.015625 C 4.15625 -9.535156 3.546875 -12.585938 3.546875 -16.171875 C 3.546875 -19.742188 4.15625 -22.789062 5.375 -25.3125 C 6.601562 -27.84375 8.347656 -29.753906 10.609375 -31.046875 C 12.867188 -32.335938 15.523438 -32.984375 18.578125 -32.984375 C 21.628906 -32.984375 24.28125 -32.335938 26.53125 -31.046875 C 28.789062 -29.753906 30.53125 -27.84375 31.75 -25.3125 C 32.976562 -22.789062 33.59375 -19.742188 33.59375 -16.171875 C 33.59375 -12.585938 32.976562 -9.535156 31.75 -7.015625 C 30.53125 -4.503906 28.789062 -2.601562 26.53125 -1.3125 C 24.28125 -0.03125 21.628906 0.609375 18.578125 0.609375 Z M 18.578125 -3.671875 C 21.804688 -3.671875 24.273438 -4.6875 25.984375 -6.71875 C 27.691406 -8.75 28.546875 -11.898438 28.546875 -16.171875 C 28.546875 -20.453125 27.691406 -23.609375 25.984375 -25.640625 C 24.273438 -27.679688 21.804688 -28.703125 18.578125 -28.703125 C 15.347656 -28.703125 12.867188 -27.675781 11.140625 -25.625 C 9.421875 -23.582031 8.5625 -20.429688 8.5625 -16.171875 C 8.5625 -11.898438 9.421875 -8.75 11.140625 -6.71875 C 12.867188 -4.6875 15.347656 -3.671875 18.578125 -3.671875 Z M 18.578125 -3.671875 "/></g></g></g><g fill="#000000" fill-opacity="1"><g transform="translate(351.79442, 747.396323)"><g><path d="M 21.515625 0.609375 C 19.109375 0.609375 17.019531 0.144531 15.25 -0.78125 C 13.476562 -1.707031 12.070312 -2.929688 11.03125 -4.453125 L 10.421875 -4.34375 L 10.421875 0 L 5.640625 0 L 5.640625 -45.359375 L 10.421875 -45.359375 L 10.421875 -27.515625 L 11.03125 -27.40625 C 13.5 -31.125 17.078125 -32.984375 21.765625 -32.984375 C 24.429688 -32.984375 26.757812 -32.363281 28.75 -31.125 C 30.75 -29.894531 32.300781 -28.023438 33.40625 -25.515625 C 34.507812 -23.003906 35.0625 -19.890625 35.0625 -16.171875 C 35.0625 -12.492188 34.476562 -9.394531 33.3125 -6.875 C 32.15625 -4.363281 30.554688 -2.488281 28.515625 -1.25 C 26.484375 -0.0078125 24.148438 0.609375 21.515625 0.609375 Z M 20.359375 -3.671875 C 26.816406 -3.671875 30.046875 -7.835938 30.046875 -16.171875 C 30.046875 -20.492188 29.203125 -23.660156 27.515625 -25.671875 C 25.835938 -27.691406 23.453125 -28.703125 20.359375 -28.703125 C 17.328125 -28.703125 14.910156 -27.664062 13.109375 -25.59375 C 11.316406 -23.53125 10.421875 -20.390625 10.421875 -16.171875 C 10.421875 -11.960938 11.316406 -8.828125 13.109375 -6.765625 C 14.910156 -4.703125 17.328125 -3.671875 20.359375 -3.671875 Z M 20.359375 -3.671875 "/></g></g></g><g fill="#000000" fill-opacity="1"><g transform="translate(390.377044, 747.396323)"><g><path d="M 18.578125 0.609375 C 15.523438 0.609375 12.867188 -0.03125 10.609375 -1.3125 C 8.347656 -2.601562 6.601562 -4.503906 5.375 -7.015625 C 4.15625 -9.535156 3.546875 -12.585938 3.546875 -16.171875 C 3.546875 -19.742188 4.15625 -22.789062 5.375 -25.3125 C 6.601562 -27.84375 8.347656 -29.753906 10.609375 -31.046875 C 12.867188 -32.335938 15.523438 -32.984375 18.578125 -32.984375 C 21.628906 -32.984375 24.28125 -32.335938 26.53125 -31.046875 C 28.789062 -29.753906 30.53125 -27.84375 31.75 -25.3125 C 32.976562 -22.789062 33.59375 -19.742188 33.59375 -16.171875 C 33.59375 -12.585938 32.976562 -9.535156 31.75 -7.015625 C 30.53125 -4.503906 28.789062 -2.601562 26.53125 -1.3125 C 24.28125 -0.03125 21.628906 0.609375 18.578125 0.609375 Z M 18.578125 -3.671875 C 21.804688 -3.671875 24.273438 -4.6875 25.984375 -6.71875 C 27.691406 -8.75 28.546875 -11.898438 28.546875 -16.171875 C 28.546875 -20.453125 27.691406 -23.609375 25.984375 -25.640625 C 24.273438 -27.679688 21.804688 -28.703125 18.578125 -28.703125 C 15.347656 -28.703125 12.867188 -27.675781 11.140625 -25.625 C 9.421875 -23.582031 8.5625 -20.429688 8.5625 -16.171875 C 8.5625 -11.898438 9.421875 -8.75 11.140625 -6.71875 C 12.867188 -4.6875 15.347656 -3.671875 18.578125 -3.671875 Z M 18.578125 -3.671875 "/></g></g></g><g fill="#000000" fill-opacity="1"><g transform="translate(427.493763, 747.396323)"><g><path d="M 5.640625 0 L 5.640625 -32.359375 L 10.1875 -32.359375 L 10.1875 -27.28125 L 10.796875 -27.140625 C 12.304688 -30.816406 15.144531 -32.65625 19.3125 -32.65625 C 21.519531 -32.65625 23.171875 -32.253906 24.265625 -31.453125 L 23.03125 -27.40625 L 22.453125 -27.28125 C 21.234375 -27.894531 19.898438 -28.203125 18.453125 -28.203125 C 15.867188 -28.203125 13.882812 -27.234375 12.5 -25.296875 C 11.113281 -23.359375 10.421875 -20.21875 10.421875 -15.875 L 10.421875 0 Z M 5.640625 0 "/></g></g></g><g fill="#000000" fill-opacity="1"><g transform="translate(452.472787, 747.396323)"><g><path d="M 18.578125 0.609375 C 15.523438 0.609375 12.867188 -0.03125 10.609375 -1.3125 C 8.347656 -2.601562 6.601562 -4.503906 5.375 -7.015625 C 4.15625 -9.535156 3.546875 -12.585938 3.546875 -16.171875 C 3.546875 -19.742188 4.15625 -22.789062 5.375 -25.3125 C 6.601562 -27.84375 8.347656 -29.753906 10.609375 -31.046875 C 12.867188 -32.335938 15.523438 -32.984375 18.578125 -32.984375 C 21.628906 -32.984375 24.28125 -32.335938 26.53125 -31.046875 C 28.789062 -29.753906 30.53125 -27.84375 31.75 -25.3125 C 32.976562 -22.789062 33.59375 -19.742188 33.59375 -16.171875 C 33.59375 -12.585938 32.976562 -9.535156 31.75 -7.015625 C 30.53125 -4.503906 28.789062 -2.601562 26.53125 -1.3125 C 24.28125 -0.03125 21.628906 0.609375 18.578125 0.609375 Z M 18.578125 -3.671875 C 21.804688 -3.671875 24.273438 -4.6875 25.984375 -6.71875 C 27.691406 -8.75 28.546875 -11.898438 28.546875 -16.171875 C 28.546875 -20.453125 27.691406 -23.609375 25.984375 -25.640625 C 24.273438 -27.679688 21.804688 -28.703125 18.578125 -28.703125 C 15.347656 -28.703125 12.867188 -27.675781 11.140625 -25.625 C 9.421875 -23.582031 8.5625 -20.429688 8.5625 -16.171875 C 8.5625 -11.898438 9.421875 -8.75 11.140625 -6.71875 C 12.867188 -4.6875 15.347656 -3.671875 18.578125 -3.671875 Z M 18.578125 -3.671875 "/></g></g></g><g fill="#000000" fill-opacity="1"><g transform="translate(489.589506, 747.396323)"><g><path d="M 14.765625 0.609375 C 12.722656 0.609375 10.835938 0.34375 9.109375 -0.1875 C 7.378906 -0.726562 5.914062 -1.46875 4.71875 -2.40625 C 3.53125 -3.34375 2.691406 -4.398438 2.203125 -5.578125 L 5.015625 -8.515625 L 5.640625 -8.515625 C 6.691406 -6.910156 7.957031 -5.703125 9.4375 -4.890625 C 10.925781 -4.078125 12.703125 -3.671875 14.765625 -3.671875 C 17.148438 -3.671875 18.960938 -4.132812 20.203125 -5.0625 C 21.441406 -5.988281 22.0625 -7.285156 22.0625 -8.953125 C 22.0625 -10.222656 21.6875 -11.269531 20.9375 -12.09375 C 20.1875 -12.925781 18.96875 -13.550781 17.28125 -13.96875 L 11.828125 -15.3125 C 8.910156 -16.019531 6.78125 -17.132812 5.4375 -18.65625 C 4.101562 -20.1875 3.4375 -22.078125 3.4375 -24.328125 C 3.4375 -26.085938 3.882812 -27.617188 4.78125 -28.921875 C 5.675781 -30.222656 6.96875 -31.222656 8.65625 -31.921875 C 10.351562 -32.628906 12.367188 -32.984375 14.703125 -32.984375 C 17.671875 -32.984375 20.007812 -32.566406 21.71875 -31.734375 C 23.4375 -30.898438 24.773438 -29.738281 25.734375 -28.25 L 23.03125 -25.609375 L 22.453125 -25.609375 C 21.410156 -26.804688 20.273438 -27.664062 19.046875 -28.1875 C 17.828125 -28.71875 16.378906 -28.984375 14.703125 -28.984375 C 12.566406 -28.984375 10.929688 -28.601562 9.796875 -27.84375 C 8.660156 -27.082031 8.09375 -25.976562 8.09375 -24.53125 C 8.09375 -23.21875 8.492188 -22.160156 9.296875 -21.359375 C 10.097656 -20.554688 11.5 -19.910156 13.5 -19.421875 L 18.875 -18.140625 C 21.6875 -17.472656 23.71875 -16.363281 24.96875 -14.8125 C 26.21875 -13.269531 26.84375 -11.335938 26.84375 -9.015625 C 26.84375 -7.109375 26.394531 -5.429688 25.5 -3.984375 C 24.601562 -2.535156 23.242188 -1.40625 21.421875 -0.59375 C 19.597656 0.207031 17.378906 0.609375 14.765625 0.609375 Z M 14.765625 0.609375 "/></g></g></g><g fill="#000000" fill-opacity="1"><g transform="translate(519.493971, 747.396323)"><g><path d="M 1.84375 8.953125 C 3.550781 7.835938 4.988281 6.546875 6.15625 5.078125 C 7.332031 3.609375 7.941406 1.992188 7.984375 0.234375 C 6.828125 0.234375 5.921875 -0.078125 5.265625 -0.703125 C 4.609375 -1.328125 4.28125 -2.160156 4.28125 -3.203125 C 4.28125 -4.210938 4.597656 -5.046875 5.234375 -5.703125 C 5.867188 -6.359375 6.71875 -6.6875 7.78125 -6.6875 C 8.925781 -6.6875 9.859375 -6.285156 10.578125 -5.484375 C 11.296875 -4.679688 11.65625 -3.421875 11.65625 -1.703125 C 11.65625 1.347656 11 3.914062 9.6875 6 C 8.375 8.082031 6.4375 9.984375 3.875 11.703125 Z M 1.84375 8.953125 "/></g></g></g><g fill="#000000" fill-opacity="1"><g transform="translate(535.413702, 747.396323)"><g/></g></g><g fill="#000000" fill-opacity="1"><g transform="translate(550.13139, 747.396323)"><g><path d="M 11.53125 -42.90625 L 11.53125 -4.171875 L 32.1875 -4.171875 L 32.1875 0 L 6.484375 0 L 6.484375 -42.90625 Z M 11.53125 -42.90625 "/></g></g></g><g fill="#000000" fill-opacity="1"><g transform="translate(584.111072, 747.396323)"><g><path d="M 18.578125 0.609375 C 15.523438 0.609375 12.867188 -0.03125 10.609375 -1.3125 C 8.347656 -2.601562 6.601562 -4.503906 5.375 -7.015625 C 4.15625 -9.535156 3.546875 -12.585938 3.546875 -16.171875 C 3.546875 -19.742188 4.15625 -22.789062 5.375 -25.3125 C 6.601562 -27.84375 8.347656 -29.753906 10.609375 -31.046875 C 12.867188 -32.335938 15.523438 -32.984375 18.578125 -32.984375 C 21.628906 -32.984375 24.28125 -32.335938 26.53125 -31.046875 C 28.789062 -29.753906 30.53125 -27.84375 31.75 -25.3125 C 32.976562 -22.789062 33.59375 -19.742188 33.59375 -16.171875 C 33.59375 -12.585938 32.976562 -9.535156 31.75 -7.015625 C 30.53125 -4.503906 28.789062 -2.601562 26.53125 -1.3125 C 24.28125 -0.03125 21.628906 0.609375 18.578125 0.609375 Z M 18.578125 -3.671875 C 21.804688 -3.671875 24.273438 -4.6875 25.984375 -6.71875 C 27.691406 -8.75 28.546875 -11.898438 28.546875 -16.171875 C 28.546875 -20.453125 27.691406 -23.609375 25.984375 -25.640625 C 24.273438 -27.679688 21.804688 -28.703125 18.578125 -28.703125 C 15.347656 -28.703125 12.867188 -27.675781 11.140625 -25.625 C 9.421875 -23.582031 8.5625 -20.429688 8.5625 -16.171875 C 8.5625 -11.898438 9.421875 -8.75 11.140625 -6.71875 C 12.867188 -4.6875 15.347656 -3.671875 18.578125 -3.671875 Z M 18.578125 -3.671875 "/></g></g></g><g fill="#000000" fill-opacity="1"><g transform="translate(621.227791, 747.396323)"><g><path d="M 5.640625 0 L 5.640625 -45.359375 L 10.421875 -45.359375 L 10.421875 -18.875 L 11.203125 -18.875 L 23.234375 -32.359375 L 28.25 -32.359375 L 28.25 -31.6875 L 15.4375 -17.171875 L 29.484375 -0.734375 L 29.484375 0 L 24.15625 0 L 11.203125 -14.96875 L 10.421875 -14.96875 L 10.421875 0 Z M 5.640625 0 "/></g></g></g><g fill="#000000" fill-opacity="1"><g transform="translate(651.308165, 747.396323)"><g><path d="M 8.046875 -38.609375 C 7.023438 -38.609375 6.195312 -38.925781 5.5625 -39.5625 C 4.925781 -40.195312 4.609375 -41.003906 4.609375 -41.984375 C 4.609375 -42.960938 4.925781 -43.769531 5.5625 -44.40625 C 6.195312 -45.039062 7.023438 -45.359375 8.046875 -45.359375 C 9.054688 -45.359375 9.878906 -45.039062 10.515625 -44.40625 C 11.148438 -43.769531 11.46875 -42.960938 11.46875 -41.984375 C 11.46875 -41.003906 11.148438 -40.195312 10.515625 -39.5625 C 9.878906 -38.925781 9.054688 -38.609375 8.046875 -38.609375 Z M 5.640625 0 L 5.640625 -32.359375 L 10.421875 -32.359375 L 10.421875 0 Z M 5.640625 0 "/></g></g></g><g fill="#000000" fill-opacity="1"><g transform="translate(667.345168, 747.396323)"><g><path d="M 1.84375 8.953125 C 3.550781 7.835938 4.988281 6.546875 6.15625 5.078125 C 7.332031 3.609375 7.941406 1.992188 7.984375 0.234375 C 6.828125 0.234375 5.921875 -0.078125 5.265625 -0.703125 C 4.609375 -1.328125 4.28125 -2.160156 4.28125 -3.203125 C 4.28125 -4.210938 4.597656 -5.046875 5.234375 -5.703125 C 5.867188 -6.359375 6.71875 -6.6875 7.78125 -6.6875 C 8.925781 -6.6875 9.859375 -6.285156 10.578125 -5.484375 C 11.296875 -4.679688 11.65625 -3.421875 11.65625 -1.703125 C 11.65625 1.347656 11 3.914062 9.6875 6 C 8.375 8.082031 6.4375 9.984375 3.875 11.703125 Z M 1.84375 8.953125 "/></g></g></g><g fill="#000000" fill-opacity="1"><g transform="translate(683.264898, 747.396323)"><g/></g></g><g fill="#000000" fill-opacity="1"><g transform="translate(697.982586, 747.396323)"><g><path d="M 11.15625 0 L 6.484375 0 L 6.484375 -42.90625 L 13.96875 -42.90625 L 26.96875 -6.578125 L 27.578125 -6.578125 L 40.578125 -42.90625 L 47.796875 -42.90625 L 47.796875 0 L 43.015625 0 L 43.015625 -35 L 42.28125 -35.125 L 29.609375 0 L 24.59375 0 L 11.890625 -35.125 L 11.15625 -35 Z M 11.15625 0 "/></g></g></g><g fill="#000000" fill-opacity="1"><g transform="translate(752.250395, 747.396323)"><g><path d="M 18.578125 0.609375 C 15.523438 0.609375 12.867188 -0.03125 10.609375 -1.3125 C 8.347656 -2.601562 6.601562 -4.503906 5.375 -7.015625 C 4.15625 -9.535156 3.546875 -12.585938 3.546875 -16.171875 C 3.546875 -19.742188 4.15625 -22.789062 5.375 -25.3125 C 6.601562 -27.84375 8.347656 -29.753906 10.609375 -31.046875 C 12.867188 -32.335938 15.523438 -32.984375 18.578125 -32.984375 C 21.628906 -32.984375 24.28125 -32.335938 26.53125 -31.046875 C 28.789062 -29.753906 30.53125 -27.84375 31.75 -25.3125 C 32.976562 -22.789062 33.59375 -19.742188 33.59375 -16.171875 C 33.59375 -12.585938 32.976562 -9.535156 31.75 -7.015625 C 30.53125 -4.503906 28.789062 -2.601562 26.53125 -1.3125 C 24.28125 -0.03125 21.628906 0.609375 18.578125 0.609375 Z M 18.578125 -3.671875 C 21.804688 -3.671875 24.273438 -4.6875 25.984375 -6.71875 C 27.691406 -8.75 28.546875 -11.898438 28.546875 -16.171875 C 28.546875 -20.453125 27.691406 -23.609375 25.984375 -25.640625 C 24.273438 -27.679688 21.804688 -28.703125 18.578125 -28.703125 C 15.347656 -28.703125 12.867188 -27.675781 11.140625 -25.625 C 9.421875 -23.582031 8.5625 -20.429688 8.5625 -16.171875 C 8.5625 -11.898438 9.421875 -8.75 11.140625 -6.71875 C 12.867188 -4.6875 15.347656 -3.671875 18.578125 -3.671875 Z M 18.578125 -3.671875 "/></g></g></g><g fill="#000000" fill-opacity="1"><g transform="translate(789.367114, 747.396323)"><g><path d="M 21.515625 0.609375 C 19.109375 0.609375 17.019531 0.144531 15.25 -0.78125 C 13.476562 -1.707031 12.070312 -2.929688 11.03125 -4.453125 L 10.421875 -4.34375 L 10.421875 0 L 5.640625 0 L 5.640625 -45.359375 L 10.421875 -45.359375 L 10.421875 -27.515625 L 11.03125 -27.40625 C 13.5 -31.125 17.078125 -32.984375 21.765625 -32.984375 C 24.429688 -32.984375 26.757812 -32.363281 28.75 -31.125 C 30.75 -29.894531 32.300781 -28.023438 33.40625 -25.515625 C 34.507812 -23.003906 35.0625 -19.890625 35.0625 -16.171875 C 35.0625 -12.492188 34.476562 -9.394531 33.3125 -6.875 C 32.15625 -4.363281 30.554688 -2.488281 28.515625 -1.25 C 26.484375 -0.0078125 24.148438 0.609375 21.515625 0.609375 Z M 20.359375 -3.671875 C 26.816406 -3.671875 30.046875 -7.835938 30.046875 -16.171875 C 30.046875 -20.492188 29.203125 -23.660156 27.515625 -25.671875 C 25.835938 -27.691406 23.453125 -28.703125 20.359375 -28.703125 C 17.328125 -28.703125 14.910156 -27.664062 13.109375 -25.59375 C 11.316406 -23.53125 10.421875 -20.390625 10.421875 -16.171875 C 10.421875 -11.960938 11.316406 -8.828125 13.109375 -6.765625 C 14.910156 -4.703125 17.328125 -3.671875 20.359375 -3.671875 Z M 20.359375 -3.671875 "/></g></g></g><g fill="#000000" fill-opacity="1"><g transform="translate(827.949738, 747.396323)"><g><path d="M 8.046875 -38.609375 C 7.023438 -38.609375 6.195312 -38.925781 5.5625 -39.5625 C 4.925781 -40.195312 4.609375 -41.003906 4.609375 -41.984375 C 4.609375 -42.960938 4.925781 -43.769531 5.5625 -44.40625 C 6.195312 -45.039062 7.023438 -45.359375 8.046875 -45.359375 C 9.054688 -45.359375 9.878906 -45.039062 10.515625 -44.40625 C 11.148438 -43.769531 11.46875 -42.960938 11.46875 -41.984375 C 11.46875 -41.003906 11.148438 -40.195312 10.515625 -39.5625 C 9.878906 -38.925781 9.054688 -38.609375 8.046875 -38.609375 Z M 5.640625 0 L 5.640625 -32.359375 L 10.421875 -32.359375 L 10.421875 0 Z M 5.640625 0 "/></g></g></g><g fill="#000000" fill-opacity="1"><g transform="translate(843.986741, 747.396323)"><g><path d="M 15.984375 0.609375 C 12.328125 0.609375 9.601562 -0.351562 7.8125 -2.28125 C 6.03125 -4.21875 5.140625 -7.054688 5.140625 -10.796875 L 5.140625 -32.359375 L 9.921875 -32.359375 L 9.921875 -10.921875 C 9.921875 -6.003906 12.226562 -3.546875 16.84375 -3.546875 C 19.78125 -3.546875 22.097656 -4.503906 23.796875 -6.421875 C 25.492188 -8.335938 26.34375 -11.445312 26.34375 -15.75 L 26.34375 -32.359375 L 31.125 -32.359375 L 31.125 0 L 26.609375 0 L 26.609375 -5.078125 L 26 -5.21875 C 24.882812 -3.25 23.546875 -1.785156 21.984375 -0.828125 C 20.429688 0.128906 18.429688 0.609375 15.984375 0.609375 Z M 15.984375 0.609375 "/></g></g></g><g fill="#000000" fill-opacity="1"><g transform="translate(880.722324, 747.396323)"><g><path d="M 14.765625 0.609375 C 12.722656 0.609375 10.835938 0.34375 9.109375 -0.1875 C 7.378906 -0.726562 5.914062 -1.46875 4.71875 -2.40625 C 3.53125 -3.34375 2.691406 -4.398438 2.203125 -5.578125 L 5.015625 -8.515625 L 5.640625 -8.515625 C 6.691406 -6.910156 7.957031 -5.703125 9.4375 -4.890625 C 10.925781 -4.078125 12.703125 -3.671875 14.765625 -3.671875 C 17.148438 -3.671875 18.960938 -4.132812 20.203125 -5.0625 C 21.441406 -5.988281 22.0625 -7.285156 22.0625 -8.953125 C 22.0625 -10.222656 21.6875 -11.269531 20.9375 -12.09375 C 20.1875 -12.925781 18.96875 -13.550781 17.28125 -13.96875 L 11.828125 -15.3125 C 8.910156 -16.019531 6.78125 -17.132812 5.4375 -18.65625 C 4.101562 -20.1875 3.4375 -22.078125 3.4375 -24.328125 C 3.4375 -26.085938 3.882812 -27.617188 4.78125 -28.921875 C 5.675781 -30.222656 6.96875 -31.222656 8.65625 -31.921875 C 10.351562 -32.628906 12.367188 -32.984375 14.703125 -32.984375 C 17.671875 -32.984375 20.007812 -32.566406 21.71875 -31.734375 C 23.4375 -30.898438 24.773438 -29.738281 25.734375 -28.25 L 23.03125 -25.609375 L 22.453125 -25.609375 C 21.410156 -26.804688 20.273438 -27.664062 19.046875 -28.1875 C 17.828125 -28.71875 16.378906 -28.984375 14.703125 -28.984375 C 12.566406 -28.984375 10.929688 -28.601562 9.796875 -27.84375 C 8.660156 -27.082031 8.09375 -25.976562 8.09375 -24.53125 C 8.09375 -23.21875 8.492188 -22.160156 9.296875 -21.359375 C 10.097656 -20.554688 11.5 -19.910156 13.5 -19.421875 L 18.875 -18.140625 C 21.6875 -17.472656 23.71875 -16.363281 24.96875 -14.8125 C 26.21875 -13.269531 26.84375 -11.335938 26.84375 -9.015625 C 26.84375 -7.109375 26.394531 -5.429688 25.5 -3.984375 C 24.601562 -2.535156 23.242188 -1.40625 21.421875 -0.59375 C 19.597656 0.207031 17.378906 0.609375 14.765625 0.609375 Z M 14.765625 0.609375 "/></g></g></g></svg>