<svg xmlns="http://www.w3.org/2000/svg" xmlns:xlink="http://www.w3.org/1999/xlink" width="1620" zoomAndPan="magnify" viewBox="0 0 1215 809.999993" height="1080" preserveAspectRatio="xMidYMid meet" version="1.0"><defs><g/></defs><g fill="#000000" fill-opacity="1"><g transform="translate(0.00000525, 70.743654)"><g><path d="M 51.015625 -51.546875 L 32.65625 -51.546875 L 32.65625 0 L 20.1875 0 L 20.1875 -51.546875 L 1.8125 -51.546875 L 1.8125 -62.03125 L 51.015625 -62.03125 Z M 51.015625 -51.546875 "/></g></g></g><g fill="#000000" fill-opacity="1"><g transform="translate(52.920768, 70.743654)"><g><path d="M 18.015625 -39.15625 C 20.035156 -41.519531 22.15625 -43.234375 24.375 -44.296875 C 26.601562 -45.367188 29.019531 -45.90625 31.625 -45.90625 C 34.101562 -45.90625 36.304688 -45.53125 38.234375 -44.78125 C 40.171875 -44.03125 41.773438 -43.050781 43.046875 -41.84375 C 45.648438 -39.300781 46.953125 -34.625 46.953125 -27.8125 L 46.953125 0 L 35.078125 0 L 35.078125 -25.296875 C 35.078125 -28.003906 34.90625 -30.164062 34.5625 -31.78125 C 34.21875 -33.40625 33.523438 -34.648438 32.484375 -35.515625 C 31.441406 -36.378906 29.851562 -36.8125 27.71875 -36.8125 C 23.96875 -36.8125 21.410156 -35.597656 20.046875 -33.171875 C 18.691406 -30.753906 18.015625 -27.519531 18.015625 -23.46875 L 18.015625 0 L 6.15625 0 L 6.15625 -62.03125 L 18.015625 -62.03125 Z M 18.015625 -39.15625 "/></g></g></g><g fill="#000000" fill-opacity="1"><g transform="translate(105.84153, 70.743654)"><g><path d="M 23.390625 -45.90625 C 30.546875 -45.90625 35.882812 -43.582031 39.40625 -38.9375 C 42.9375 -34.289062 44.703125 -27.664062 44.703125 -19.0625 L 14.90625 -19.0625 C 15.019531 -16.050781 15.898438 -13.460938 17.546875 -11.296875 C 19.191406 -9.140625 21.570312 -8.0625 24.6875 -8.0625 C 26.65625 -8.0625 28.257812 -8.566406 29.5 -9.578125 C 30.738281 -10.585938 31.644531 -12.160156 32.21875 -14.296875 L 44.09375 -12.296875 C 42.59375 -7.910156 40.164062 -4.585938 36.8125 -2.328125 C 33.46875 -0.078125 29.367188 1.046875 24.515625 1.046875 C 17.296875 1.046875 11.835938 -1.117188 8.140625 -5.453125 C 6.410156 -7.472656 5.082031 -10.015625 4.15625 -13.078125 C 3.226562 -16.140625 2.765625 -19.171875 2.765625 -22.171875 C 2.765625 -26.273438 3.5 -30.128906 4.96875 -33.734375 C 6.445312 -37.347656 8.726562 -40.28125 11.8125 -42.53125 C 14.90625 -44.78125 18.765625 -45.90625 23.390625 -45.90625 Z M 15.15625 -26.328125 L 32.921875 -26.328125 C 32.859375 -29.972656 31.945312 -32.628906 30.1875 -34.296875 C 28.425781 -35.972656 26.363281 -36.8125 24 -36.8125 C 21.226562 -36.8125 19.0625 -35.816406 17.5 -33.828125 C 15.9375 -31.835938 15.15625 -29.335938 15.15625 -26.328125 Z M 15.15625 -26.328125 "/></g></g></g><g fill="#000000" fill-opacity="1"><g transform="translate(178.078121, 70.743654)"><g><path d="M 47.90625 -60.03125 C 50.5 -58.9375 52.660156 -57 54.390625 -54.21875 C 56.128906 -51.445312 57 -48.242188 57 -44.609375 C 57 -39.992188 55.566406 -36.109375 52.703125 -32.953125 C 49.847656 -29.804688 45.820312 -27.914062 40.625 -27.28125 C 42.875 -25.726562 44.59375 -24.445312 45.78125 -23.4375 C 46.96875 -22.425781 48.265625 -21.007812 49.671875 -19.1875 C 51.085938 -17.363281 52.835938 -14.78125 54.921875 -11.4375 L 62.03125 0 L 47.03125 0 L 36.984375 -15.078125 C 34.734375 -18.421875 32.988281 -20.800781 31.75 -22.21875 C 30.507812 -23.632812 29.195312 -24.601562 27.8125 -25.125 C 26.425781 -25.644531 24.460938 -25.90625 21.921875 -25.90625 L 18.796875 -25.90625 L 18.796875 0 L 6.328125 0 L 6.328125 -62.03125 L 33.4375 -62.03125 C 36.382812 -62.03125 39.054688 -61.898438 41.453125 -61.640625 C 43.847656 -61.378906 46 -60.84375 47.90625 -60.03125 Z M 39.0625 -36.46875 C 40.5625 -36.925781 41.773438 -37.789062 42.703125 -39.0625 C 43.628906 -40.332031 44.09375 -41.921875 44.09375 -43.828125 C 44.09375 -47.117188 42.675781 -49.398438 39.84375 -50.671875 C 39.09375 -51.023438 38.164062 -51.257812 37.0625 -51.375 C 35.96875 -51.488281 34.09375 -51.546875 31.4375 -51.546875 L 18.796875 -51.546875 L 18.796875 -35.78125 L 29.796875 -35.78125 C 34.304688 -35.78125 37.394531 -36.007812 39.0625 -36.46875 Z M 39.0625 -36.46875 "/></g></g></g><g fill="#000000" fill-opacity="1"><g transform="translate(240.612961, 70.743654)"><g><path d="M 23.390625 -45.90625 C 30.546875 -45.90625 35.882812 -43.582031 39.40625 -38.9375 C 42.9375 -34.289062 44.703125 -27.664062 44.703125 -19.0625 L 14.90625 -19.0625 C 15.019531 -16.050781 15.898438 -13.460938 17.546875 -11.296875 C 19.191406 -9.140625 21.570312 -8.0625 24.6875 -8.0625 C 26.65625 -8.0625 28.257812 -8.566406 29.5 -9.578125 C 30.738281 -10.585938 31.644531 -12.160156 32.21875 -14.296875 L 44.09375 -12.296875 C 42.59375 -7.910156 40.164062 -4.585938 36.8125 -2.328125 C 33.46875 -0.078125 29.367188 1.046875 24.515625 1.046875 C 17.296875 1.046875 11.835938 -1.117188 8.140625 -5.453125 C 6.410156 -7.472656 5.082031 -10.015625 4.15625 -13.078125 C 3.226562 -16.140625 2.765625 -19.171875 2.765625 -22.171875 C 2.765625 -26.273438 3.5 -30.128906 4.96875 -33.734375 C 6.445312 -37.347656 8.726562 -40.28125 11.8125 -42.53125 C 14.90625 -44.78125 18.765625 -45.90625 23.390625 -45.90625 Z M 15.15625 -26.328125 L 32.921875 -26.328125 C 32.859375 -29.972656 31.945312 -32.628906 30.1875 -34.296875 C 28.425781 -35.972656 26.363281 -36.8125 24 -36.8125 C 21.226562 -36.8125 19.0625 -35.816406 17.5 -33.828125 C 15.9375 -31.835938 15.15625 -29.335938 15.15625 -26.328125 Z M 15.15625 -26.328125 "/></g></g></g><g fill="#000000" fill-opacity="1"><g transform="translate(288.769983, 70.743654)"><g><path d="M 22.609375 -45.90625 C 28.210938 -45.90625 32.613281 -44.984375 35.8125 -43.140625 C 39.019531 -41.296875 41.234375 -38.265625 42.453125 -34.046875 L 31.1875 -31.96875 C 30.664062 -33.8125 29.722656 -35.179688 28.359375 -36.078125 C 27.003906 -36.972656 25.117188 -37.421875 22.703125 -37.421875 C 17.328125 -37.421875 14.640625 -36.179688 14.640625 -33.703125 C 14.640625 -32.484375 15.519531 -31.515625 17.28125 -30.796875 C 19.039062 -30.078125 21.597656 -29.34375 24.953125 -28.59375 C 29.046875 -27.664062 32.390625 -26.722656 34.984375 -25.765625 C 37.585938 -24.816406 39.726562 -23.40625 41.40625 -21.53125 C 43.082031 -19.65625 43.921875 -17.15625 43.921875 -14.03125 C 43.921875 -11.488281 43.210938 -9.078125 41.796875 -6.796875 C 40.378906 -4.515625 38.140625 -2.632812 35.078125 -1.15625 C 32.015625 0.3125 28.144531 1.046875 23.46875 1.046875 C 18.21875 1.046875 13.582031 -0.078125 9.5625 -2.328125 C 5.550781 -4.585938 3.03125 -8.085938 2 -12.828125 L 13.859375 -14.640625 C 14.953125 -9.847656 18.15625 -7.453125 23.46875 -7.453125 C 25.550781 -7.453125 27.5 -7.8125 29.3125 -8.53125 C 31.132812 -9.25 32.046875 -10.535156 32.046875 -12.390625 C 32.046875 -13.597656 31.628906 -14.445312 30.796875 -14.9375 C 29.960938 -15.425781 28.617188 -15.875 26.765625 -16.28125 C 21.273438 -17.5 17 -18.625 13.9375 -19.65625 C 10.882812 -20.695312 8.40625 -22.195312 6.5 -24.15625 C 4.59375 -26.125 3.640625 -28.785156 3.640625 -32.140625 C 3.640625 -36.816406 5.425781 -40.28125 9 -42.53125 C 12.582031 -44.78125 17.117188 -45.90625 22.609375 -45.90625 Z M 22.609375 -45.90625 "/></g></g></g><g fill="#000000" fill-opacity="1"><g transform="translate(336.927006, 70.743654)"><g><path d="M 18.109375 -51.015625 L 6.234375 -51.015625 L 6.234375 -62.03125 L 18.109375 -62.03125 Z M 18.109375 0 L 6.234375 0 L 6.234375 -44.875 L 18.109375 -44.875 Z M 18.109375 0 "/></g></g></g><g fill="#000000" fill-opacity="1"><g transform="translate(361.005523, 70.743654)"><g><path d="M 22.609375 -45.90625 C 28.210938 -45.90625 32.613281 -44.984375 35.8125 -43.140625 C 39.019531 -41.296875 41.234375 -38.265625 42.453125 -34.046875 L 31.1875 -31.96875 C 30.664062 -33.8125 29.722656 -35.179688 28.359375 -36.078125 C 27.003906 -36.972656 25.117188 -37.421875 22.703125 -37.421875 C 17.328125 -37.421875 14.640625 -36.179688 14.640625 -33.703125 C 14.640625 -32.484375 15.519531 -31.515625 17.28125 -30.796875 C 19.039062 -30.078125 21.597656 -29.34375 24.953125 -28.59375 C 29.046875 -27.664062 32.390625 -26.722656 34.984375 -25.765625 C 37.585938 -24.816406 39.726562 -23.40625 41.40625 -21.53125 C 43.082031 -19.65625 43.921875 -17.15625 43.921875 -14.03125 C 43.921875 -11.488281 43.210938 -9.078125 41.796875 -6.796875 C 40.378906 -4.515625 38.140625 -2.632812 35.078125 -1.15625 C 32.015625 0.3125 28.144531 1.046875 23.46875 1.046875 C 18.21875 1.046875 13.582031 -0.078125 9.5625 -2.328125 C 5.550781 -4.585938 3.03125 -8.085938 2 -12.828125 L 13.859375 -14.640625 C 14.953125 -9.847656 18.15625 -7.453125 23.46875 -7.453125 C 25.550781 -7.453125 27.5 -7.8125 29.3125 -8.53125 C 31.132812 -9.25 32.046875 -10.535156 32.046875 -12.390625 C 32.046875 -13.597656 31.628906 -14.445312 30.796875 -14.9375 C 29.960938 -15.425781 28.617188 -15.875 26.765625 -16.28125 C 21.273438 -17.5 17 -18.625 13.9375 -19.65625 C 10.882812 -20.695312 8.40625 -22.195312 6.5 -24.15625 C 4.59375 -26.125 3.640625 -28.785156 3.640625 -32.140625 C 3.640625 -36.816406 5.425781 -40.28125 9 -42.53125 C 12.582031 -44.78125 17.117188 -45.90625 22.609375 -45.90625 Z M 22.609375 -45.90625 "/></g></g></g><g fill="#000000" fill-opacity="1"><g transform="translate(409.162545, 70.743654)"><g><path d="M 18.71875 -44.875 L 26.765625 -44.875 L 26.765625 -35.421875 L 18.71875 -35.421875 L 18.71875 -15.671875 C 18.71875 -13.773438 18.785156 -12.363281 18.921875 -11.4375 C 19.066406 -10.507812 19.367188 -9.84375 19.828125 -9.4375 C 20.296875 -9.03125 21.019531 -8.828125 22 -8.828125 C 23.21875 -8.828125 24.804688 -9.207031 26.765625 -9.96875 L 27.8125 -0.78125 C 26.59375 -0.195312 25.117188 0.25 23.390625 0.5625 C 21.660156 0.882812 20.015625 1.046875 18.453125 1.046875 C 16.203125 1.046875 14.207031 0.671875 12.46875 -0.078125 C 10.738281 -0.835938 9.46875 -1.851562 8.65625 -3.125 C 7.789062 -4.5625 7.253906 -6.160156 7.046875 -7.921875 C 6.847656 -9.679688 6.75 -11.890625 6.75 -14.546875 L 6.75 -35.421875 L 1.296875 -35.421875 L 1.296875 -44.875 L 6.75 -44.875 L 6.75 -53.796875 L 18.71875 -60.8125 Z M 18.71875 -44.875 "/></g></g></g><g fill="#000000" fill-opacity="1"><g transform="translate(438.00479, 70.743654)"><g><path d="M 23.734375 -45.90625 C 29.453125 -45.90625 33.695312 -45.171875 36.46875 -43.703125 C 39.238281 -42.234375 40.984375 -40.296875 41.703125 -37.890625 C 42.429688 -35.492188 42.765625 -32.332031 42.703125 -28.40625 L 42.625 -15.328125 C 42.5625 -11.234375 42.703125 -8.257812 43.046875 -6.40625 C 43.398438 -4.5625 44.125 -2.425781 45.21875 0 L 33.53125 0 C 33.238281 -0.632812 32.71875 -2.28125 31.96875 -4.9375 C 29.832031 -2.851562 27.625 -1.332031 25.34375 -0.375 C 23.0625 0.570312 20.617188 1.046875 18.015625 1.046875 C 13.566406 1.046875 9.972656 -0.179688 7.234375 -2.640625 C 4.492188 -5.097656 3.125 -8.289062 3.125 -12.21875 C 3.125 -15.507812 3.945312 -18.117188 5.59375 -20.046875 C 7.238281 -21.984375 9.242188 -23.382812 11.609375 -24.25 C 13.972656 -25.113281 16.773438 -25.863281 20.015625 -26.5 C 24.972656 -27.425781 28.640625 -28.351562 31.015625 -29.28125 L 31.015625 -31.1875 C 31.015625 -33.144531 30.4375 -34.570312 29.28125 -35.46875 C 28.125 -36.363281 26.015625 -36.8125 22.953125 -36.8125 C 20.585938 -36.8125 18.828125 -36.332031 17.671875 -35.375 C 16.515625 -34.425781 15.648438 -33.03125 15.078125 -31.1875 L 4.328125 -33.171875 C 5.484375 -37.566406 7.5625 -40.785156 10.5625 -42.828125 C 13.570312 -44.878906 17.960938 -45.90625 23.734375 -45.90625 Z M 23.5625 -19.65625 L 21.5625 -19.234375 C 17.175781 -18.304688 14.984375 -16.398438 14.984375 -13.515625 C 14.984375 -11.785156 15.601562 -10.328125 16.84375 -9.140625 C 18.09375 -7.953125 19.664062 -7.359375 21.5625 -7.359375 C 23.125 -7.359375 24.6875 -7.757812 26.25 -8.5625 C 27.8125 -9.375 29.023438 -10.445312 29.890625 -11.78125 C 30.640625 -12.988281 31.015625 -15.066406 31.015625 -18.015625 L 31.015625 -21.5625 C 28.765625 -20.875 26.28125 -20.238281 23.5625 -19.65625 Z M 23.5625 -19.65625 "/></g></g></g><g fill="#000000" fill-opacity="1"><g transform="translate(486.161801, 70.743654)"><g><path d="M 32.046875 -45.90625 C 34.703125 -45.90625 37.007812 -45.457031 38.96875 -44.5625 C 40.9375 -43.664062 42.5 -42.613281 43.65625 -41.40625 C 45.039062 -39.90625 45.945312 -38.128906 46.375 -36.078125 C 46.8125 -34.023438 47.03125 -31.757812 47.03125 -29.28125 L 47.03125 0 L 35.171875 0 L 35.171875 -24.515625 C 35.171875 -28.671875 34.707031 -31.757812 33.78125 -33.78125 C 32.851562 -35.800781 30.890625 -36.8125 27.890625 -36.8125 C 25.066406 -36.8125 22.875 -36.003906 21.3125 -34.390625 C 19.75 -32.773438 18.820312 -30.898438 18.53125 -28.765625 C 18.363281 -27.378906 18.234375 -26.132812 18.140625 -25.03125 C 18.054688 -23.9375 18.015625 -22.695312 18.015625 -21.3125 L 18.015625 0 L 6.15625 0 L 6.15625 -44.875 L 17.40625 -44.875 L 17.40625 -38.28125 C 18.675781 -40.1875 20.566406 -41.929688 23.078125 -43.515625 C 25.597656 -45.109375 28.585938 -45.90625 32.046875 -45.90625 Z M 32.046875 -45.90625 "/></g></g></g><g fill="#000000" fill-opacity="1"><g transform="translate(539.082574, 70.743654)"><g><path d="M 9.015625 -39.15625 C 12.878906 -43.65625 18.363281 -45.90625 25.46875 -45.90625 C 36.15625 -45.90625 42.828125 -41.144531 45.484375 -31.625 L 33.78125 -29.546875 C 32.800781 -34.273438 30.085938 -36.640625 25.640625 -36.640625 C 22.640625 -36.640625 20.257812 -35.597656 18.5 -33.515625 C 16.738281 -31.441406 15.859375 -28.066406 15.859375 -23.390625 C 15.859375 -18.828125 16.609375 -15.226562 18.109375 -12.59375 C 19.609375 -9.96875 22.175781 -8.65625 25.8125 -8.65625 C 28.175781 -8.65625 30.066406 -9.363281 31.484375 -10.78125 C 32.898438 -12.195312 33.867188 -14.347656 34.390625 -17.234375 L 46.078125 -15.25 C 43.660156 -4.382812 36.703125 1.046875 25.203125 1.046875 C 18.390625 1.046875 13.132812 -1.035156 9.4375 -5.203125 C 7.53125 -7.335938 6.085938 -9.929688 5.109375 -12.984375 C 4.128906 -16.046875 3.640625 -19.195312 3.640625 -22.4375 C 3.640625 -25.78125 4.097656 -28.894531 5.015625 -31.78125 C 5.941406 -34.675781 7.273438 -37.132812 9.015625 -39.15625 Z M 9.015625 -39.15625 "/></g></g></g><g fill="#000000" fill-opacity="1"><g transform="translate(587.239585, 70.743654)"><g><path d="M 23.390625 -45.90625 C 30.546875 -45.90625 35.882812 -43.582031 39.40625 -38.9375 C 42.9375 -34.289062 44.703125 -27.664062 44.703125 -19.0625 L 14.90625 -19.0625 C 15.019531 -16.050781 15.898438 -13.460938 17.546875 -11.296875 C 19.191406 -9.140625 21.570312 -8.0625 24.6875 -8.0625 C 26.65625 -8.0625 28.257812 -8.566406 29.5 -9.578125 C 30.738281 -10.585938 31.644531 -12.160156 32.21875 -14.296875 L 44.09375 -12.296875 C 42.59375 -7.910156 40.164062 -4.585938 36.8125 -2.328125 C 33.46875 -0.078125 29.367188 1.046875 24.515625 1.046875 C 17.296875 1.046875 11.835938 -1.117188 8.140625 -5.453125 C 6.410156 -7.472656 5.082031 -10.015625 4.15625 -13.078125 C 3.226562 -16.140625 2.765625 -19.171875 2.765625 -22.171875 C 2.765625 -26.273438 3.5 -30.128906 4.96875 -33.734375 C 6.445312 -37.347656 8.726562 -40.28125 11.8125 -42.53125 C 14.90625 -44.78125 18.765625 -45.90625 23.390625 -45.90625 Z M 15.15625 -26.328125 L 32.921875 -26.328125 C 32.859375 -29.972656 31.945312 -32.628906 30.1875 -34.296875 C 28.425781 -35.972656 26.363281 -36.8125 24 -36.8125 C 21.226562 -36.8125 19.0625 -35.816406 17.5 -33.828125 C 15.9375 -31.835938 15.15625 -29.335938 15.15625 -26.328125 Z M 15.15625 -26.328125 "/></g></g></g><g fill="#000000" fill-opacity="1"><g transform="translate(635.396596, 70.743654)"><g/></g></g><g fill="#000000" fill-opacity="1"><g transform="translate(659.475101, 70.743654)"><g><path d="M 9.015625 -39.15625 C 12.878906 -43.65625 18.363281 -45.90625 25.46875 -45.90625 C 36.15625 -45.90625 42.828125 -41.144531 45.484375 -31.625 L 33.78125 -29.546875 C 32.800781 -34.273438 30.085938 -36.640625 25.640625 -36.640625 C 22.640625 -36.640625 20.257812 -35.597656 18.5 -33.515625 C 16.738281 -31.441406 15.859375 -28.066406 15.859375 -23.390625 C 15.859375 -18.828125 16.609375 -15.226562 18.109375 -12.59375 C 19.609375 -9.96875 22.175781 -8.65625 25.8125 -8.65625 C 28.175781 -8.65625 30.066406 -9.363281 31.484375 -10.78125 C 32.898438 -12.195312 33.867188 -14.347656 34.390625 -17.234375 L 46.078125 -15.25 C 43.660156 -4.382812 36.703125 1.046875 25.203125 1.046875 C 18.390625 1.046875 13.132812 -1.035156 9.4375 -5.203125 C 7.53125 -7.335938 6.085938 -9.929688 5.109375 -12.984375 C 4.128906 -16.046875 3.640625 -19.195312 3.640625 -22.4375 C 3.640625 -25.78125 4.097656 -28.894531 5.015625 -31.78125 C 5.941406 -34.675781 7.273438 -37.132812 9.015625 -39.15625 Z M 9.015625 -39.15625 "/></g></g></g><g fill="#000000" fill-opacity="1"><g transform="translate(707.632112, 70.743654)"><g><path d="M 26.59375 -45.90625 C 31.445312 -45.90625 35.632812 -44.804688 39.15625 -42.609375 C 42.675781 -40.421875 45.332031 -37.535156 47.125 -33.953125 C 48.914062 -30.378906 49.8125 -26.597656 49.8125 -22.609375 C 49.8125 -18.453125 48.867188 -14.566406 46.984375 -10.953125 C 45.109375 -7.347656 42.425781 -4.445312 38.9375 -2.25 C 35.445312 -0.0507812 31.363281 1.046875 26.6875 1.046875 C 22.695312 1.046875 18.941406 0.222656 15.421875 -1.421875 C 11.898438 -3.066406 9.023438 -5.691406 6.796875 -9.296875 C 4.578125 -12.910156 3.46875 -17.492188 3.46875 -23.046875 C 3.46875 -26.910156 4.347656 -30.585938 6.109375 -34.078125 C 7.867188 -37.578125 10.492188 -40.421875 13.984375 -42.609375 C 17.484375 -44.804688 21.6875 -45.90625 26.59375 -45.90625 Z M 15.671875 -22.4375 C 15.671875 -17.925781 16.722656 -14.5 18.828125 -12.15625 C 20.941406 -9.820312 23.53125 -8.65625 26.59375 -8.65625 C 29.65625 -8.65625 32.253906 -9.8125 34.390625 -12.125 C 36.523438 -14.4375 37.59375 -17.898438 37.59375 -22.515625 C 37.59375 -26.796875 36.566406 -30.144531 34.515625 -32.5625 C 32.460938 -34.988281 29.789062 -36.203125 26.5 -36.203125 C 23.5 -36.203125 20.941406 -35.019531 18.828125 -32.65625 C 16.722656 -30.289062 15.671875 -26.882812 15.671875 -22.4375 Z M 15.671875 -22.4375 "/></g></g></g><g fill="#000000" fill-opacity="1"><g transform="translate(760.552885, 70.743654)"><g><path d="M 30.921875 -45.90625 C 34.210938 -45.90625 37.285156 -45.007812 40.140625 -43.21875 C 43.003906 -41.4375 45.316406 -38.753906 47.078125 -35.171875 C 48.835938 -31.585938 49.71875 -27.195312 49.71875 -22 C 49.71875 -16.976562 48.863281 -12.734375 47.15625 -9.265625 C 45.457031 -5.804688 43.175781 -3.222656 40.3125 -1.515625 C 37.457031 0.191406 34.300781 1.046875 30.84375 1.046875 C 25.757812 1.046875 21.398438 -1.035156 17.765625 -5.203125 L 17.765625 17.0625 L 5.890625 17.0625 L 5.890625 -44.875 L 16.984375 -44.875 L 16.984375 -38.28125 L 17.15625 -38.28125 C 18.539062 -40.363281 20.457031 -42.15625 22.90625 -43.65625 C 25.363281 -45.15625 28.035156 -45.90625 30.921875 -45.90625 Z M 18.625 -29.109375 C 17.988281 -27.253906 17.671875 -24.710938 17.671875 -21.484375 C 17.671875 -17.035156 18.609375 -13.6875 20.484375 -11.4375 C 22.359375 -9.1875 24.742188 -8.0625 27.640625 -8.0625 C 31.160156 -8.0625 33.6875 -9.445312 35.21875 -12.21875 C 36.75 -14.988281 37.515625 -18.421875 37.515625 -22.515625 C 37.515625 -27.316406 36.601562 -30.84375 34.78125 -33.09375 C 32.957031 -35.34375 30.691406 -36.46875 27.984375 -36.46875 C 25.960938 -36.46875 24.097656 -35.832031 22.390625 -34.5625 C 20.691406 -33.289062 19.4375 -31.472656 18.625 -29.109375 Z M 18.625 -29.109375 "/></g></g></g><g fill="#000000" fill-opacity="1"><g transform="translate(813.473659, 70.743654)"><g><path d="M 23.90625 -13 L 24.078125 -13 L 34.484375 -44.875 L 46.78125 -44.875 L 30.921875 -1.640625 L 29.890625 1.390625 C 28.390625 5.597656 27.046875 8.785156 25.859375 10.953125 C 24.671875 13.117188 22.9375 14.863281 20.65625 16.1875 C 18.375 17.519531 15.242188 18.1875 11.265625 18.1875 C 8.890625 18.1875 6.632812 17.957031 4.5 17.5 L 3.46875 8.234375 C 5.488281 8.578125 7.132812 8.75 8.40625 8.75 C 10.882812 8.75 12.800781 8.097656 14.15625 6.796875 C 15.519531 5.492188 16.691406 3.257812 17.671875 0.09375 L 0.609375 -44.875 L 13.25 -44.875 Z M 23.90625 -13 "/></g></g></g><g fill="#000000" fill-opacity="1"><g transform="translate(861.63067, 70.743654)"><g><path d="M 18.109375 -51.015625 L 6.234375 -51.015625 L 6.234375 -62.03125 L 18.109375 -62.03125 Z M 18.109375 0 L 6.234375 0 L 6.234375 -44.875 L 18.109375 -44.875 Z M 18.109375 0 "/></g></g></g><g fill="#000000" fill-opacity="1"><g transform="translate(885.709175, 70.743654)"><g><path d="M 32.046875 -45.90625 C 34.703125 -45.90625 37.007812 -45.457031 38.96875 -44.5625 C 40.9375 -43.664062 42.5 -42.613281 43.65625 -41.40625 C 45.039062 -39.90625 45.945312 -38.128906 46.375 -36.078125 C 46.8125 -34.023438 47.03125 -31.757812 47.03125 -29.28125 L 47.03125 0 L 35.171875 0 L 35.171875 -24.515625 C 35.171875 -28.671875 34.707031 -31.757812 33.78125 -33.78125 C 32.851562 -35.800781 30.890625 -36.8125 27.890625 -36.8125 C 25.066406 -36.8125 22.875 -36.003906 21.3125 -34.390625 C 19.75 -32.773438 18.820312 -30.898438 18.53125 -28.765625 C 18.363281 -27.378906 18.234375 -26.132812 18.140625 -25.03125 C 18.054688 -23.9375 18.015625 -22.695312 18.015625 -21.3125 L 18.015625 0 L 6.15625 0 L 6.15625 -44.875 L 17.40625 -44.875 L 17.40625 -38.28125 C 18.675781 -40.1875 20.566406 -41.929688 23.078125 -43.515625 C 25.597656 -45.109375 28.585938 -45.90625 32.046875 -45.90625 Z M 32.046875 -45.90625 "/></g></g></g><g fill="#000000" fill-opacity="1"><g transform="translate(938.629949, 70.743654)"><g><path d="M 22.515625 -45.90625 C 25.578125 -45.90625 28.25 -45.238281 30.53125 -43.90625 C 32.8125 -42.582031 34.675781 -40.828125 36.125 -38.640625 L 36.296875 -38.640625 L 36.296875 -44.875 L 47.390625 -44.875 L 47.390625 -3.8125 C 47.390625 1.207031 46.8125 5.289062 45.65625 8.4375 C 44.5 11.59375 42.375 14.003906 39.28125 15.671875 C 36.195312 17.347656 31.796875 18.1875 26.078125 18.1875 C 18.796875 18.1875 13.492188 16.898438 10.171875 14.328125 C 6.859375 11.765625 5.171875 7.96875 5.109375 2.9375 L 18.71875 4.59375 C 18.945312 6.382812 19.625 7.582031 20.75 8.1875 C 21.875 8.789062 23.503906 9.09375 25.640625 9.09375 C 29.335938 9.09375 31.90625 8.441406 33.34375 7.140625 C 34.789062 5.847656 35.515625 3.582031 35.515625 0.34375 L 35.515625 -7.28125 L 35.34375 -7.28125 C 33.84375 -5.082031 31.921875 -3.316406 29.578125 -1.984375 C 27.242188 -0.660156 24.75 0 22.09375 0 C 18.394531 0 15.144531 -0.976562 12.34375 -2.9375 C 9.539062 -4.90625 7.375 -7.617188 5.84375 -11.078125 C 4.3125 -14.546875 3.546875 -18.421875 3.546875 -22.703125 C 3.546875 -28.296875 4.515625 -32.828125 6.453125 -36.296875 C 8.390625 -39.765625 10.800781 -42.234375 13.6875 -43.703125 C 16.570312 -45.171875 19.515625 -45.90625 22.515625 -45.90625 Z M 15.765625 -23.390625 C 15.765625 -19.640625 16.515625 -16.421875 18.015625 -13.734375 C 19.515625 -11.046875 21.96875 -9.703125 25.375 -9.703125 C 27.976562 -9.703125 30.363281 -10.710938 32.53125 -12.734375 C 34.695312 -14.753906 35.78125 -18.21875 35.78125 -23.125 C 35.78125 -26.769531 34.984375 -29.960938 33.390625 -32.703125 C 31.804688 -35.441406 29.164062 -36.8125 25.46875 -36.8125 C 21.882812 -36.8125 19.367188 -35.425781 17.921875 -32.65625 C 16.484375 -29.882812 15.765625 -26.796875 15.765625 -23.390625 Z M 15.765625 -23.390625 "/></g></g></g><g fill="#000000" fill-opacity="1"><g transform="translate(0.00000525, 147.99365)"><g><path d="M 18.015625 -39.15625 C 20.035156 -41.519531 22.15625 -43.234375 24.375 -44.296875 C 26.601562 -45.367188 29.019531 -45.90625 31.625 -45.90625 C 34.101562 -45.90625 36.304688 -45.53125 38.234375 -44.78125 C 40.171875 -44.03125 41.773438 -43.050781 43.046875 -41.84375 C 45.648438 -39.300781 46.953125 -34.625 46.953125 -27.8125 L 46.953125 0 L 35.078125 0 L 35.078125 -25.296875 C 35.078125 -28.003906 34.90625 -30.164062 34.5625 -31.78125 C 34.21875 -33.40625 33.523438 -34.648438 32.484375 -35.515625 C 31.441406 -36.378906 29.851562 -36.8125 27.71875 -36.8125 C 23.96875 -36.8125 21.410156 -35.597656 20.046875 -33.171875 C 18.691406 -30.753906 18.015625 -27.519531 18.015625 -23.46875 L 18.015625 0 L 6.15625 0 L 6.15625 -62.03125 L 18.015625 -62.03125 Z M 18.015625 -39.15625 "/></g></g></g><g fill="#000000" fill-opacity="1"><g transform="translate(52.920768, 147.99365)"><g><path d="M 17.84375 -21.828125 C 17.84375 -18.648438 17.914062 -16.335938 18.0625 -14.890625 C 18.207031 -13.453125 18.507812 -12.300781 18.96875 -11.4375 C 19.488281 -10.457031 20.28125 -9.648438 21.34375 -9.015625 C 22.414062 -8.378906 23.734375 -8.0625 25.296875 -8.0625 C 27.367188 -8.0625 29.242188 -8.632812 30.921875 -9.78125 C 32.597656 -10.9375 33.664062 -12.351562 34.125 -14.03125 C 34.644531 -15.707031 34.90625 -19.289062 34.90625 -24.78125 L 34.90625 -44.875 L 46.78125 -44.875 L 46.78125 0 L 35.78125 0 L 35.78125 -6.75 L 35.609375 -6.75 C 33.929688 -4.207031 31.765625 -2.269531 29.109375 -0.9375 C 26.453125 0.382812 23.707031 1.046875 20.875 1.046875 C 18.332031 1.046875 15.921875 0.523438 13.640625 -0.515625 C 11.359375 -1.554688 9.613281 -3.0625 8.40625 -5.03125 C 7.539062 -6.414062 6.921875 -7.941406 6.546875 -9.609375 C 6.171875 -11.285156 5.984375 -13.394531 5.984375 -15.9375 L 5.984375 -44.875 L 17.84375 -44.875 Z M 17.84375 -21.828125 "/></g></g></g><g fill="#000000" fill-opacity="1"><g transform="translate(105.84153, 147.99365)"><g><path d="M 30.3125 -45.90625 C 36.144531 -45.90625 40.390625 -43.539062 43.046875 -38.8125 C 46.921875 -43.539062 51.484375 -45.90625 56.734375 -45.90625 C 61.703125 -45.90625 65.398438 -44.546875 67.828125 -41.828125 C 70.253906 -39.117188 71.46875 -35.050781 71.46875 -29.625 L 71.46875 0 L 59.59375 0 L 59.59375 -26.859375 C 59.59375 -30.085938 59.175781 -32.550781 58.34375 -34.25 C 57.507812 -35.957031 55.820312 -36.8125 53.28125 -36.8125 C 50.851562 -36.8125 48.898438 -35.972656 47.421875 -34.296875 C 45.953125 -32.628906 45.046875 -30.46875 44.703125 -27.8125 C 44.472656 -25.726562 44.359375 -23.878906 44.359375 -22.265625 L 44.359375 0 L 32.484375 0 L 32.484375 -26.421875 C 32.484375 -30.054688 32.09375 -32.695312 31.3125 -34.34375 C 30.53125 -35.988281 28.867188 -36.8125 26.328125 -36.8125 C 24.484375 -36.8125 22.820312 -36.320312 21.34375 -35.34375 C 19.875 -34.363281 18.851562 -33.003906 18.28125 -31.265625 C 17.582031 -29.191406 17.234375 -26.273438 17.234375 -22.515625 L 17.234375 0 L 5.375 0 L 5.375 -44.875 L 16.375 -44.875 L 16.546875 -38.8125 C 18.390625 -41.0625 20.335938 -42.804688 22.390625 -44.046875 C 24.441406 -45.285156 27.082031 -45.90625 30.3125 -45.90625 Z M 30.3125 -45.90625 "/></g></g></g><g fill="#000000" fill-opacity="1"><g transform="translate(182.840797, 147.99365)"><g><path d="M 23.734375 -45.90625 C 29.453125 -45.90625 33.695312 -45.171875 36.46875 -43.703125 C 39.238281 -42.234375 40.984375 -40.296875 41.703125 -37.890625 C 42.429688 -35.492188 42.765625 -32.332031 42.703125 -28.40625 L 42.625 -15.328125 C 42.5625 -11.234375 42.703125 -8.257812 43.046875 -6.40625 C 43.398438 -4.5625 44.125 -2.425781 45.21875 0 L 33.53125 0 C 33.238281 -0.632812 32.71875 -2.28125 31.96875 -4.9375 C 29.832031 -2.851562 27.625 -1.332031 25.34375 -0.375 C 23.0625 0.570312 20.617188 1.046875 18.015625 1.046875 C 13.566406 1.046875 9.972656 -0.179688 7.234375 -2.640625 C 4.492188 -5.097656 3.125 -8.289062 3.125 -12.21875 C 3.125 -15.507812 3.945312 -18.117188 5.59375 -20.046875 C 7.238281 -21.984375 9.242188 -23.382812 11.609375 -24.25 C 13.972656 -25.113281 16.773438 -25.863281 20.015625 -26.5 C 24.972656 -27.425781 28.640625 -28.351562 31.015625 -29.28125 L 31.015625 -31.1875 C 31.015625 -33.144531 30.4375 -34.570312 29.28125 -35.46875 C 28.125 -36.363281 26.015625 -36.8125 22.953125 -36.8125 C 20.585938 -36.8125 18.828125 -36.332031 17.671875 -35.375 C 16.515625 -34.425781 15.648438 -33.03125 15.078125 -31.1875 L 4.328125 -33.171875 C 5.484375 -37.566406 7.5625 -40.785156 10.5625 -42.828125 C 13.570312 -44.878906 17.960938 -45.90625 23.734375 -45.90625 Z M 23.5625 -19.65625 L 21.5625 -19.234375 C 17.175781 -18.304688 14.984375 -16.398438 14.984375 -13.515625 C 14.984375 -11.785156 15.601562 -10.328125 16.84375 -9.140625 C 18.09375 -7.953125 19.664062 -7.359375 21.5625 -7.359375 C 23.125 -7.359375 24.6875 -7.757812 26.25 -8.5625 C 27.8125 -9.375 29.023438 -10.445312 29.890625 -11.78125 C 30.640625 -12.988281 31.015625 -15.066406 31.015625 -18.015625 L 31.015625 -21.5625 C 28.765625 -20.875 26.28125 -20.238281 23.5625 -19.65625 Z M 23.5625 -19.65625 "/></g></g></g><g fill="#000000" fill-opacity="1"><g transform="translate(230.997819, 147.99365)"><g><path d="M 32.046875 -45.90625 C 34.703125 -45.90625 37.007812 -45.457031 38.96875 -44.5625 C 40.9375 -43.664062 42.5 -42.613281 43.65625 -41.40625 C 45.039062 -39.90625 45.945312 -38.128906 46.375 -36.078125 C 46.8125 -34.023438 47.03125 -31.757812 47.03125 -29.28125 L 47.03125 0 L 35.171875 0 L 35.171875 -24.515625 C 35.171875 -28.671875 34.707031 -31.757812 33.78125 -33.78125 C 32.851562 -35.800781 30.890625 -36.8125 27.890625 -36.8125 C 25.066406 -36.8125 22.875 -36.003906 21.3125 -34.390625 C 19.75 -32.773438 18.820312 -30.898438 18.53125 -28.765625 C 18.363281 -27.378906 18.234375 -26.132812 18.140625 -25.03125 C 18.054688 -23.9375 18.015625 -22.695312 18.015625 -21.3125 L 18.015625 0 L 6.15625 0 L 6.15625 -44.875 L 17.40625 -44.875 L 17.40625 -38.28125 C 18.675781 -40.1875 20.566406 -41.929688 23.078125 -43.515625 C 25.597656 -45.109375 28.585938 -45.90625 32.046875 -45.90625 Z M 32.046875 -45.90625 "/></g></g></g><g fill="#000000" fill-opacity="1"><g transform="translate(283.91857, 147.99365)"><g/></g></g><g fill="#000000" fill-opacity="1"><g transform="translate(307.997076, 147.99365)"><g><path d="M 18.109375 -51.015625 L 6.234375 -51.015625 L 6.234375 -62.03125 L 18.109375 -62.03125 Z M 18.109375 0 L 6.234375 0 L 6.234375 -44.875 L 18.109375 -44.875 Z M 18.109375 0 "/></g></g></g><g fill="#000000" fill-opacity="1"><g transform="translate(332.075581, 147.99365)"><g><path d="M 47.390625 -62.03125 L 47.390625 0 L 36.296875 0 L 36.296875 -6.578125 L 36.125 -6.578125 C 34.21875 -3.691406 31.976562 -1.695312 29.40625 -0.59375 C 26.832031 0.5 24.476562 1.046875 22.34375 1.046875 C 19.050781 1.046875 15.972656 0.148438 13.109375 -1.640625 C 10.253906 -3.429688 7.945312 -6.117188 6.1875 -9.703125 C 4.425781 -13.285156 3.546875 -17.675781 3.546875 -22.875 C 3.546875 -27.894531 4.394531 -32.132812 6.09375 -35.59375 C 7.800781 -39.0625 10.082031 -41.644531 12.9375 -43.34375 C 15.800781 -45.050781 18.96875 -45.90625 22.4375 -45.90625 C 27.519531 -45.90625 31.878906 -43.828125 35.515625 -39.671875 L 35.515625 -62.03125 Z M 15.765625 -22.34375 C 15.765625 -17.382812 16.703125 -13.820312 18.578125 -11.65625 C 20.453125 -9.488281 22.660156 -8.40625 25.203125 -8.40625 C 26.765625 -8.40625 28.335938 -8.804688 29.921875 -9.609375 C 31.515625 -10.421875 32.890625 -11.953125 34.046875 -14.203125 C 35.085938 -16.222656 35.609375 -19.285156 35.609375 -23.390625 C 35.609375 -27.722656 34.679688 -31.039062 32.828125 -33.34375 C 30.984375 -35.65625 28.554688 -36.8125 25.546875 -36.8125 L 25.125 -36.8125 C 21.769531 -36.644531 19.367188 -35.1875 17.921875 -32.4375 C 16.484375 -29.695312 15.765625 -26.332031 15.765625 -22.34375 Z M 15.765625 -22.34375 "/></g></g></g><g fill="#000000" fill-opacity="1"><g transform="translate(384.996354, 147.99365)"><g><path d="M 23.390625 -45.90625 C 30.546875 -45.90625 35.882812 -43.582031 39.40625 -38.9375 C 42.9375 -34.289062 44.703125 -27.664062 44.703125 -19.0625 L 14.90625 -19.0625 C 15.019531 -16.050781 15.898438 -13.460938 17.546875 -11.296875 C 19.191406 -9.140625 21.570312 -8.0625 24.6875 -8.0625 C 26.65625 -8.0625 28.257812 -8.566406 29.5 -9.578125 C 30.738281 -10.585938 31.644531 -12.160156 32.21875 -14.296875 L 44.09375 -12.296875 C 42.59375 -7.910156 40.164062 -4.585938 36.8125 -2.328125 C 33.46875 -0.078125 29.367188 1.046875 24.515625 1.046875 C 17.296875 1.046875 11.835938 -1.117188 8.140625 -5.453125 C 6.410156 -7.472656 5.082031 -10.015625 4.15625 -13.078125 C 3.226562 -16.140625 2.765625 -19.171875 2.765625 -22.171875 C 2.765625 -26.273438 3.5 -30.128906 4.96875 -33.734375 C 6.445312 -37.347656 8.726562 -40.28125 11.8125 -42.53125 C 14.90625 -44.78125 18.765625 -45.90625 23.390625 -45.90625 Z M 15.15625 -26.328125 L 32.921875 -26.328125 C 32.859375 -29.972656 31.945312 -32.628906 30.1875 -34.296875 C 28.425781 -35.972656 26.363281 -36.8125 24 -36.8125 C 21.226562 -36.8125 19.0625 -35.816406 17.5 -33.828125 C 15.9375 -31.835938 15.15625 -29.335938 15.15625 -26.328125 Z M 15.15625 -26.328125 "/></g></g></g><g fill="#000000" fill-opacity="1"><g transform="translate(433.153365, 147.99365)"><g><path d="M 32.046875 -45.90625 C 34.703125 -45.90625 37.007812 -45.457031 38.96875 -44.5625 C 40.9375 -43.664062 42.5 -42.613281 43.65625 -41.40625 C 45.039062 -39.90625 45.945312 -38.128906 46.375 -36.078125 C 46.8125 -34.023438 47.03125 -31.757812 47.03125 -29.28125 L 47.03125 0 L 35.171875 0 L 35.171875 -24.515625 C 35.171875 -28.671875 34.707031 -31.757812 33.78125 -33.78125 C 32.851562 -35.800781 30.890625 -36.8125 27.890625 -36.8125 C 25.066406 -36.8125 22.875 -36.003906 21.3125 -34.390625 C 19.75 -32.773438 18.820312 -30.898438 18.53125 -28.765625 C 18.363281 -27.378906 18.234375 -26.132812 18.140625 -25.03125 C 18.054688 -23.9375 18.015625 -22.695312 18.015625 -21.3125 L 18.015625 0 L 6.15625 0 L 6.15625 -44.875 L 17.40625 -44.875 L 17.40625 -38.28125 C 18.675781 -40.1875 20.566406 -41.929688 23.078125 -43.515625 C 25.597656 -45.109375 28.585938 -45.90625 32.046875 -45.90625 Z M 32.046875 -45.90625 "/></g></g></g><g fill="#000000" fill-opacity="1"><g transform="translate(486.074139, 147.99365)"><g><path d="M 18.71875 -44.875 L 26.765625 -44.875 L 26.765625 -35.421875 L 18.71875 -35.421875 L 18.71875 -15.671875 C 18.71875 -13.773438 18.785156 -12.363281 18.921875 -11.4375 C 19.066406 -10.507812 19.367188 -9.84375 19.828125 -9.4375 C 20.296875 -9.03125 21.019531 -8.828125 22 -8.828125 C 23.21875 -8.828125 24.804688 -9.207031 26.765625 -9.96875 L 27.8125 -0.78125 C 26.59375 -0.195312 25.117188 0.25 23.390625 0.5625 C 21.660156 0.882812 20.015625 1.046875 18.453125 1.046875 C 16.203125 1.046875 14.207031 0.671875 12.46875 -0.078125 C 10.738281 -0.835938 9.46875 -1.851562 8.65625 -3.125 C 7.789062 -4.5625 7.253906 -6.160156 7.046875 -7.921875 C 6.847656 -9.679688 6.75 -11.890625 6.75 -14.546875 L 6.75 -35.421875 L 1.296875 -35.421875 L 1.296875 -44.875 L 6.75 -44.875 L 6.75 -53.796875 L 18.71875 -60.8125 Z M 18.71875 -44.875 "/></g></g></g><g fill="#000000" fill-opacity="1"><g transform="translate(514.916361, 147.99365)"><g><path d="M 18.109375 -51.015625 L 6.234375 -51.015625 L 6.234375 -62.03125 L 18.109375 -62.03125 Z M 18.109375 0 L 6.234375 0 L 6.234375 -44.875 L 18.109375 -44.875 Z M 18.109375 0 "/></g></g></g><g fill="#000000" fill-opacity="1"><g transform="translate(538.994866, 147.99365)"><g><path d="M 18.71875 -44.875 L 26.765625 -44.875 L 26.765625 -35.421875 L 18.71875 -35.421875 L 18.71875 -15.671875 C 18.71875 -13.773438 18.785156 -12.363281 18.921875 -11.4375 C 19.066406 -10.507812 19.367188 -9.84375 19.828125 -9.4375 C 20.296875 -9.03125 21.019531 -8.828125 22 -8.828125 C 23.21875 -8.828125 24.804688 -9.207031 26.765625 -9.96875 L 27.8125 -0.78125 C 26.59375 -0.195312 25.117188 0.25 23.390625 0.5625 C 21.660156 0.882812 20.015625 1.046875 18.453125 1.046875 C 16.203125 1.046875 14.207031 0.671875 12.46875 -0.078125 C 10.738281 -0.835938 9.46875 -1.851562 8.65625 -3.125 C 7.789062 -4.5625 7.253906 -6.160156 7.046875 -7.921875 C 6.847656 -9.679688 6.75 -11.890625 6.75 -14.546875 L 6.75 -35.421875 L 1.296875 -35.421875 L 1.296875 -44.875 L 6.75 -44.875 L 6.75 -53.796875 L 18.71875 -60.8125 Z M 18.71875 -44.875 "/></g></g></g><g fill="#000000" fill-opacity="1"><g transform="translate(567.837135, 147.99365)"><g><path d="M 18.109375 -51.015625 L 6.234375 -51.015625 L 6.234375 -62.03125 L 18.109375 -62.03125 Z M 18.109375 0 L 6.234375 0 L 6.234375 -44.875 L 18.109375 -44.875 Z M 18.109375 0 "/></g></g></g><g fill="#000000" fill-opacity="1"><g transform="translate(591.91564, 147.99365)"><g><path d="M 23.390625 -45.90625 C 30.546875 -45.90625 35.882812 -43.582031 39.40625 -38.9375 C 42.9375 -34.289062 44.703125 -27.664062 44.703125 -19.0625 L 14.90625 -19.0625 C 15.019531 -16.050781 15.898438 -13.460938 17.546875 -11.296875 C 19.191406 -9.140625 21.570312 -8.0625 24.6875 -8.0625 C 26.65625 -8.0625 28.257812 -8.566406 29.5 -9.578125 C 30.738281 -10.585938 31.644531 -12.160156 32.21875 -14.296875 L 44.09375 -12.296875 C 42.59375 -7.910156 40.164062 -4.585938 36.8125 -2.328125 C 33.46875 -0.078125 29.367188 1.046875 24.515625 1.046875 C 17.296875 1.046875 11.835938 -1.117188 8.140625 -5.453125 C 6.410156 -7.472656 5.082031 -10.015625 4.15625 -13.078125 C 3.226562 -16.140625 2.765625 -19.171875 2.765625 -22.171875 C 2.765625 -26.273438 3.5 -30.128906 4.96875 -33.734375 C 6.445312 -37.347656 8.726562 -40.28125 11.8125 -42.53125 C 14.90625 -44.78125 18.765625 -45.90625 23.390625 -45.90625 Z M 15.15625 -26.328125 L 32.921875 -26.328125 C 32.859375 -29.972656 31.945312 -32.628906 30.1875 -34.296875 C 28.425781 -35.972656 26.363281 -36.8125 24 -36.8125 C 21.226562 -36.8125 19.0625 -35.816406 17.5 -33.828125 C 15.9375 -31.835938 15.15625 -29.335938 15.15625 -26.328125 Z M 15.15625 -26.328125 "/></g></g></g><g fill="#000000" fill-opacity="1"><g transform="translate(640.072651, 147.99365)"><g><path d="M 22.609375 -45.90625 C 28.210938 -45.90625 32.613281 -44.984375 35.8125 -43.140625 C 39.019531 -41.296875 41.234375 -38.265625 42.453125 -34.046875 L 31.1875 -31.96875 C 30.664062 -33.8125 29.722656 -35.179688 28.359375 -36.078125 C 27.003906 -36.972656 25.117188 -37.421875 22.703125 -37.421875 C 17.328125 -37.421875 14.640625 -36.179688 14.640625 -33.703125 C 14.640625 -32.484375 15.519531 -31.515625 17.28125 -30.796875 C 19.039062 -30.078125 21.597656 -29.34375 24.953125 -28.59375 C 29.046875 -27.664062 32.390625 -26.722656 34.984375 -25.765625 C 37.585938 -24.816406 39.726562 -23.40625 41.40625 -21.53125 C 43.082031 -19.65625 43.921875 -17.15625 43.921875 -14.03125 C 43.921875 -11.488281 43.210938 -9.078125 41.796875 -6.796875 C 40.378906 -4.515625 38.140625 -2.632812 35.078125 -1.15625 C 32.015625 0.3125 28.144531 1.046875 23.46875 1.046875 C 18.21875 1.046875 13.582031 -0.078125 9.5625 -2.328125 C 5.550781 -4.585938 3.03125 -8.085938 2 -12.828125 L 13.859375 -14.640625 C 14.953125 -9.847656 18.15625 -7.453125 23.46875 -7.453125 C 25.550781 -7.453125 27.5 -7.8125 29.3125 -8.53125 C 31.132812 -9.25 32.046875 -10.535156 32.046875 -12.390625 C 32.046875 -13.597656 31.628906 -14.445312 30.796875 -14.9375 C 29.960938 -15.425781 28.617188 -15.875 26.765625 -16.28125 C 21.273438 -17.5 17 -18.625 13.9375 -19.65625 C 10.882812 -20.695312 8.40625 -22.195312 6.5 -24.15625 C 4.59375 -26.125 3.640625 -28.785156 3.640625 -32.140625 C 3.640625 -36.816406 5.425781 -40.28125 9 -42.53125 C 12.582031 -44.78125 17.117188 -45.90625 22.609375 -45.90625 Z M 22.609375 -45.90625 "/></g></g></g><g fill="#000000" fill-opacity="1"><g transform="translate(0.00000525, 297.993642)"><g><path d="M 22.8125 0.671875 C 19.40625 0.671875 16.347656 -0.144531 13.640625 -1.78125 C 10.929688 -3.425781 8.773438 -6.03125 7.171875 -9.59375 C 5.566406 -13.15625 4.765625 -17.6875 4.765625 -23.1875 C 4.765625 -28.6875 5.566406 -33.21875 7.171875 -36.78125 C 8.773438 -40.34375 10.929688 -42.941406 13.640625 -44.578125 C 16.347656 -46.222656 19.40625 -47.046875 22.8125 -47.046875 C 26.21875 -47.046875 29.269531 -46.222656 31.96875 -44.578125 C 34.675781 -42.941406 36.828125 -40.34375 38.421875 -36.78125 C 40.023438 -33.21875 40.828125 -28.6875 40.828125 -23.1875 C 40.828125 -17.6875 40.023438 -13.15625 38.421875 -9.59375 C 36.828125 -6.03125 34.675781 -3.425781 31.96875 -1.78125 C 29.269531 -0.144531 26.21875 0.671875 22.8125 0.671875 Z M 22.8125 -4.375 C 26.851562 -4.375 29.914062 -5.828125 32 -8.734375 C 34.082031 -11.648438 35.125 -16.46875 35.125 -23.1875 C 35.125 -29.914062 34.082031 -34.734375 32 -37.640625 C 29.914062 -40.546875 26.851562 -42 22.8125 -42 C 20.144531 -42 17.898438 -41.382812 16.078125 -40.15625 C 14.265625 -38.9375 12.875 -36.941406 11.90625 -34.171875 C 10.945312 -31.398438 10.46875 -27.738281 10.46875 -23.1875 C 10.46875 -18.644531 10.945312 -14.988281 11.90625 -12.21875 C 12.875 -9.445312 14.265625 -7.445312 16.078125 -6.21875 C 17.898438 -4.988281 20.144531 -4.375 22.8125 -4.375 Z M 22.8125 -4.375 "/></g></g></g><g fill="#000000" fill-opacity="1"><g transform="translate(45.609481, 297.993642)"><g><path d="M 22.140625 0.671875 C 18.859375 0.671875 15.914062 -0.113281 13.3125 -1.6875 C 10.71875 -3.269531 8.644531 -5.835938 7.09375 -9.390625 C 5.539062 -12.941406 4.765625 -17.539062 4.765625 -23.1875 C 4.765625 -28.664062 5.539062 -33.1875 7.09375 -36.75 C 8.644531 -40.3125 10.765625 -42.914062 13.453125 -44.5625 C 16.140625 -46.21875 19.207031 -47.046875 22.65625 -47.046875 C 28.59375 -47.046875 32.96875 -45.238281 35.78125 -41.625 L 33.125 -38.03125 L 32.328125 -38.03125 C 30.046875 -40.78125 26.820312 -42.15625 22.65625 -42.15625 C 18.632812 -42.15625 15.566406 -40.640625 13.453125 -37.609375 C 11.335938 -34.578125 10.28125 -29.726562 10.28125 -23.0625 L 10.9375 -22.875 C 12.207031 -25.5 13.859375 -27.460938 15.890625 -28.765625 C 17.921875 -30.078125 20.414062 -30.734375 23.375 -30.734375 C 26.320312 -30.734375 28.867188 -30.109375 31.015625 -28.859375 C 33.160156 -27.617188 34.800781 -25.816406 35.9375 -23.453125 C 37.082031 -21.097656 37.65625 -18.3125 37.65625 -15.09375 C 37.65625 -11.882812 37.019531 -9.09375 35.75 -6.71875 C 34.476562 -4.351562 32.675781 -2.53125 30.34375 -1.25 C 28.007812 0.03125 25.273438 0.671875 22.140625 0.671875 Z M 22.140625 -4.25 C 25.210938 -4.25 27.613281 -5.175781 29.34375 -7.03125 C 31.070312 -8.894531 31.9375 -11.582031 31.9375 -15.09375 C 31.9375 -18.625 31.070312 -21.320312 29.34375 -23.1875 C 27.613281 -25.050781 25.210938 -25.984375 22.140625 -25.984375 C 20.046875 -25.984375 18.226562 -25.550781 16.6875 -24.6875 C 15.144531 -23.832031 13.953125 -22.59375 13.109375 -20.96875 C 12.273438 -19.34375 11.859375 -17.382812 11.859375 -15.09375 C 11.859375 -12.832031 12.273438 -10.890625 13.109375 -9.265625 C 13.953125 -7.640625 15.144531 -6.394531 16.6875 -5.53125 C 18.226562 -4.675781 20.046875 -4.25 22.140625 -4.25 Z M 22.140625 -4.25 "/></g></g></g><g fill="#000000" fill-opacity="1"><g transform="translate(87.381169, 297.993642)"><g/></g></g><g fill="#000000" fill-opacity="1"><g transform="translate(103.303253, 297.993642)"><g><path d="M 15.328125 0.671875 C 13.015625 0.671875 10.894531 0.328125 8.96875 -0.359375 C 7.050781 -1.046875 5.429688 -1.984375 4.109375 -3.171875 C 2.785156 -4.359375 1.816406 -5.671875 1.203125 -7.109375 L 4.03125 -10.8125 L 4.828125 -10.8125 C 5.753906 -8.820312 7.117188 -7.25 8.921875 -6.09375 C 10.734375 -4.945312 12.867188 -4.375 15.328125 -4.375 C 17.304688 -4.375 18.921875 -4.695312 20.171875 -5.34375 C 21.421875 -5.988281 22.359375 -7.054688 22.984375 -8.546875 C 23.609375 -10.035156 23.921875 -12.050781 23.921875 -14.59375 L 23.921875 -46.375 L 29.34375 -46.375 L 29.34375 -14.5 C 29.34375 -9.25 28.171875 -5.40625 25.828125 -2.96875 C 23.492188 -0.539062 19.992188 0.671875 15.328125 0.671875 Z M 15.328125 0.671875 "/></g></g></g><g fill="#000000" fill-opacity="1"><g transform="translate(139.238958, 297.993642)"><g><path d="M 17.28125 0.671875 C 13.332031 0.671875 10.390625 -0.375 8.453125 -2.46875 C 6.515625 -4.5625 5.546875 -7.628906 5.546875 -11.671875 L 5.546875 -34.984375 L 10.71875 -34.984375 L 10.71875 -11.796875 C 10.71875 -6.492188 13.210938 -3.84375 18.203125 -3.84375 C 21.378906 -3.84375 23.882812 -4.878906 25.71875 -6.953125 C 27.5625 -9.023438 28.484375 -12.382812 28.484375 -17.03125 L 28.484375 -34.984375 L 33.65625 -34.984375 L 33.65625 0 L 28.765625 0 L 28.765625 -5.484375 L 28.109375 -5.640625 C 26.898438 -3.503906 25.453125 -1.914062 23.765625 -0.875 C 22.085938 0.15625 19.925781 0.671875 17.28125 0.671875 Z M 17.28125 0.671875 "/></g></g></g><g fill="#000000" fill-opacity="1"><g transform="translate(178.980739, 297.993642)"><g><path d="M 13.921875 0.671875 C 11.453125 0.671875 9.507812 -0.03125 8.09375 -1.4375 C 6.675781 -2.84375 5.96875 -4.941406 5.96875 -7.734375 L 5.96875 -49.046875 L 11.140625 -49.046875 L 11.140625 -8.09375 C 11.140625 -6.632812 11.414062 -5.582031 11.96875 -4.9375 C 12.53125 -4.289062 13.40625 -3.96875 14.59375 -3.96875 C 15.3125 -3.96875 16.039062 -4.082031 16.78125 -4.3125 L 17.21875 -4.1875 L 17.828125 -0.125 C 17.441406 0.125 16.894531 0.316406 16.1875 0.453125 C 15.476562 0.597656 14.722656 0.671875 13.921875 0.671875 Z M 13.921875 0.671875 "/></g></g></g><g fill="#000000" fill-opacity="1"><g transform="translate(198.011718, 297.993642)"><g/></g></g><g fill="#000000" fill-opacity="1"><g transform="translate(213.933801, 297.993642)"><g><path d="M 2.796875 -2.125 C 2.796875 -4.6875 3.070312 -6.75 3.625 -8.3125 C 4.1875 -9.875 5.144531 -11.332031 6.5 -12.6875 C 7.851562 -14.039062 10.007812 -15.796875 12.96875 -17.953125 L 18.078125 -21.671875 C 19.960938 -23.046875 21.492188 -24.3125 22.671875 -25.46875 C 23.859375 -26.632812 24.796875 -27.898438 25.484375 -29.265625 C 26.171875 -30.628906 26.515625 -32.15625 26.515625 -33.84375 C 26.515625 -36.59375 25.785156 -38.664062 24.328125 -40.0625 C 22.867188 -41.457031 20.585938 -42.15625 17.484375 -42.15625 C 15.023438 -42.15625 12.84375 -41.582031 10.9375 -40.4375 C 9.039062 -39.300781 7.519531 -37.6875 6.375 -35.59375 L 5.640625 -35.46875 L 2.375 -38.890625 C 3.945312 -41.429688 6.003906 -43.425781 8.546875 -44.875 C 11.097656 -46.320312 14.078125 -47.046875 17.484375 -47.046875 C 20.773438 -47.046875 23.507812 -46.484375 25.6875 -45.359375 C 27.875 -44.242188 29.484375 -42.695312 30.515625 -40.71875 C 31.554688 -38.738281 32.078125 -36.445312 32.078125 -33.84375 C 32.078125 -31.769531 31.640625 -29.832031 30.765625 -28.03125 C 29.898438 -26.238281 28.675781 -24.550781 27.09375 -22.96875 C 25.507812 -21.382812 23.519531 -19.710938 21.125 -17.953125 L 15.953125 -14.1875 C 14.023438 -12.769531 12.546875 -11.5625 11.515625 -10.5625 C 10.484375 -9.570312 9.726562 -8.601562 9.25 -7.65625 C 8.769531 -6.71875 8.53125 -5.664062 8.53125 -4.5 L 32.078125 -4.5 L 32.078125 0 L 2.796875 0 Z M 2.796875 -2.125 "/></g></g></g><g fill="#000000" fill-opacity="1"><g transform="translate(249.584045, 297.993642)"><g><path d="M 22.8125 0.671875 C 19.40625 0.671875 16.347656 -0.144531 13.640625 -1.78125 C 10.929688 -3.425781 8.773438 -6.03125 7.171875 -9.59375 C 5.566406 -13.15625 4.765625 -17.6875 4.765625 -23.1875 C 4.765625 -28.6875 5.566406 -33.21875 7.171875 -36.78125 C 8.773438 -40.34375 10.929688 -42.941406 13.640625 -44.578125 C 16.347656 -46.222656 19.40625 -47.046875 22.8125 -47.046875 C 26.21875 -47.046875 29.269531 -46.222656 31.96875 -44.578125 C 34.675781 -42.941406 36.828125 -40.34375 38.421875 -36.78125 C 40.023438 -33.21875 40.828125 -28.6875 40.828125 -23.1875 C 40.828125 -17.6875 40.023438 -13.15625 38.421875 -9.59375 C 36.828125 -6.03125 34.675781 -3.425781 31.96875 -1.78125 C 29.269531 -0.144531 26.21875 0.671875 22.8125 0.671875 Z M 22.8125 -4.375 C 26.851562 -4.375 29.914062 -5.828125 32 -8.734375 C 34.082031 -11.648438 35.125 -16.46875 35.125 -23.1875 C 35.125 -29.914062 34.082031 -34.734375 32 -37.640625 C 29.914062 -40.546875 26.851562 -42 22.8125 -42 C 20.144531 -42 17.898438 -41.382812 16.078125 -40.15625 C 14.265625 -38.9375 12.875 -36.941406 11.90625 -34.171875 C 10.945312 -31.398438 10.46875 -27.738281 10.46875 -23.1875 C 10.46875 -18.644531 10.945312 -14.988281 11.90625 -12.21875 C 12.875 -9.445312 14.265625 -7.445312 16.078125 -6.21875 C 17.898438 -4.988281 20.144531 -4.375 22.8125 -4.375 Z M 22.8125 -4.375 "/></g></g></g><g fill="#000000" fill-opacity="1"><g transform="translate(295.193521, 297.993642)"><g><path d="M 2.796875 -2.125 C 2.796875 -4.6875 3.070312 -6.75 3.625 -8.3125 C 4.1875 -9.875 5.144531 -11.332031 6.5 -12.6875 C 7.851562 -14.039062 10.007812 -15.796875 12.96875 -17.953125 L 18.078125 -21.671875 C 19.960938 -23.046875 21.492188 -24.3125 22.671875 -25.46875 C 23.859375 -26.632812 24.796875 -27.898438 25.484375 -29.265625 C 26.171875 -30.628906 26.515625 -32.15625 26.515625 -33.84375 C 26.515625 -36.59375 25.785156 -38.664062 24.328125 -40.0625 C 22.867188 -41.457031 20.585938 -42.15625 17.484375 -42.15625 C 15.023438 -42.15625 12.84375 -41.582031 10.9375 -40.4375 C 9.039062 -39.300781 7.519531 -37.6875 6.375 -35.59375 L 5.640625 -35.46875 L 2.375 -38.890625 C 3.945312 -41.429688 6.003906 -43.425781 8.546875 -44.875 C 11.097656 -46.320312 14.078125 -47.046875 17.484375 -47.046875 C 20.773438 -47.046875 23.507812 -46.484375 25.6875 -45.359375 C 27.875 -44.242188 29.484375 -42.695312 30.515625 -40.71875 C 31.554688 -38.738281 32.078125 -36.445312 32.078125 -33.84375 C 32.078125 -31.769531 31.640625 -29.832031 30.765625 -28.03125 C 29.898438 -26.238281 28.675781 -24.550781 27.09375 -22.96875 C 25.507812 -21.382812 23.519531 -19.710938 21.125 -17.953125 L 15.953125 -14.1875 C 14.023438 -12.769531 12.546875 -11.5625 11.515625 -10.5625 C 10.484375 -9.570312 9.726562 -8.601562 9.25 -7.65625 C 8.769531 -6.71875 8.53125 -5.664062 8.53125 -4.5 L 32.078125 -4.5 L 32.078125 0 L 2.796875 0 Z M 2.796875 -2.125 "/></g></g></g><g fill="#000000" fill-opacity="1"><g transform="translate(330.843765, 297.993642)"><g><path d="M 18.375 0.671875 C 13.863281 0.671875 10.285156 -0.34375 7.640625 -2.375 C 5.003906 -4.40625 3.289062 -7.21875 2.5 -10.8125 L 6.5625 -12.65625 L 7.296875 -12.53125 C 8.097656 -9.757812 9.335938 -7.6875 11.015625 -6.3125 C 12.703125 -4.9375 15.15625 -4.25 18.375 -4.25 C 21.644531 -4.25 24.132812 -5 25.84375 -6.5 C 27.5625 -8 28.421875 -10.210938 28.421875 -13.140625 C 28.421875 -15.992188 27.546875 -18.171875 25.796875 -19.671875 C 24.054688 -21.171875 21.316406 -21.921875 17.578125 -21.921875 L 12.53125 -21.921875 L 12.53125 -26.421875 L 17.03125 -26.421875 C 19.945312 -26.421875 22.265625 -27.144531 23.984375 -28.59375 C 25.710938 -30.039062 26.578125 -32.085938 26.578125 -34.734375 C 26.578125 -37.253906 25.832031 -39.140625 24.34375 -40.390625 C 22.851562 -41.648438 20.765625 -42.28125 18.078125 -42.28125 C 13.410156 -42.28125 10.082031 -40.421875 8.09375 -36.703125 L 7.359375 -36.578125 L 4.3125 -39.90625 C 5.5625 -42.039062 7.359375 -43.765625 9.703125 -45.078125 C 12.054688 -46.390625 14.847656 -47.046875 18.078125 -47.046875 C 21.035156 -47.046875 23.554688 -46.582031 25.640625 -45.65625 C 27.722656 -44.738281 29.304688 -43.410156 30.390625 -41.671875 C 31.472656 -39.941406 32.015625 -37.875 32.015625 -35.46875 C 32.015625 -33.1875 31.351562 -31.179688 30.03125 -29.453125 C 28.707031 -27.734375 26.957031 -26.375 24.78125 -25.375 L 24.78125 -24.71875 C 27.84375 -23.976562 30.144531 -22.597656 31.6875 -20.578125 C 33.226562 -18.554688 34 -16.078125 34 -13.140625 C 34 -8.734375 32.6875 -5.328125 30.0625 -2.921875 C 27.445312 -0.523438 23.550781 0.671875 18.375 0.671875 Z M 18.375 0.671875 "/></g></g></g><g fill="#000000" fill-opacity="1"><g transform="translate(368.523916, 297.993642)"><g/></g></g><g fill="#000000" fill-opacity="1"><g transform="translate(384.446, 297.993642)"><g><path d="M 21.34375 -20.203125 L 3.296875 -20.203125 L 3.296875 -24.84375 L 21.34375 -24.84375 Z M 21.34375 -20.203125 "/></g></g></g><g fill="#000000" fill-opacity="1"><g transform="translate(409.058612, 297.993642)"><g/></g></g><g fill="#000000" fill-opacity="1"><g transform="translate(424.980684, 297.993642)"><g><path d="M 2.796875 -2.125 C 2.796875 -4.6875 3.070312 -6.75 3.625 -8.3125 C 4.1875 -9.875 5.144531 -11.332031 6.5 -12.6875 C 7.851562 -14.039062 10.007812 -15.796875 12.96875 -17.953125 L 18.078125 -21.671875 C 19.960938 -23.046875 21.492188 -24.3125 22.671875 -25.46875 C 23.859375 -26.632812 24.796875 -27.898438 25.484375 -29.265625 C 26.171875 -30.628906 26.515625 -32.15625 26.515625 -33.84375 C 26.515625 -36.59375 25.785156 -38.664062 24.328125 -40.0625 C 22.867188 -41.457031 20.585938 -42.15625 17.484375 -42.15625 C 15.023438 -42.15625 12.84375 -41.582031 10.9375 -40.4375 C 9.039062 -39.300781 7.519531 -37.6875 6.375 -35.59375 L 5.640625 -35.46875 L 2.375 -38.890625 C 3.945312 -41.429688 6.003906 -43.425781 8.546875 -44.875 C 11.097656 -46.320312 14.078125 -47.046875 17.484375 -47.046875 C 20.773438 -47.046875 23.507812 -46.484375 25.6875 -45.359375 C 27.875 -44.242188 29.484375 -42.695312 30.515625 -40.71875 C 31.554688 -38.738281 32.078125 -36.445312 32.078125 -33.84375 C 32.078125 -31.769531 31.640625 -29.832031 30.765625 -28.03125 C 29.898438 -26.238281 28.675781 -24.550781 27.09375 -22.96875 C 25.507812 -21.382812 23.519531 -19.710938 21.125 -17.953125 L 15.953125 -14.1875 C 14.023438 -12.769531 12.546875 -11.5625 11.515625 -10.5625 C 10.484375 -9.570312 9.726562 -8.601562 9.25 -7.65625 C 8.769531 -6.71875 8.53125 -5.664062 8.53125 -4.5 L 32.078125 -4.5 L 32.078125 0 L 2.796875 0 Z M 2.796875 -2.125 "/></g></g></g><g fill="#000000" fill-opacity="1"><g transform="translate(460.630928, 297.993642)"><g/></g></g><g fill="#000000" fill-opacity="1"><g transform="translate(476.553024, 297.993642)"><g><path d="M 6.09375 0 L 6.09375 -49.046875 L 11.265625 -49.046875 L 11.265625 -30.015625 L 11.921875 -29.890625 C 14.421875 -33.734375 18.03125 -35.65625 22.75 -35.65625 C 26.957031 -35.65625 30.003906 -34.582031 31.890625 -32.4375 C 33.785156 -30.289062 34.734375 -26.984375 34.734375 -22.515625 L 34.734375 0 L 29.5625 0 L 29.5625 -22.390625 C 29.5625 -24.503906 29.289062 -26.203125 28.75 -27.484375 C 28.21875 -28.765625 27.382812 -29.695312 26.25 -30.28125 C 25.113281 -30.863281 23.628906 -31.15625 21.796875 -31.15625 C 18.617188 -31.15625 16.066406 -30.128906 14.140625 -28.078125 C 12.222656 -26.023438 11.265625 -22.648438 11.265625 -17.953125 L 11.265625 0 Z M 6.09375 0 "/></g></g></g><g fill="#000000" fill-opacity="1"><g transform="translate(516.833982, 297.993642)"><g><path d="M 20.078125 0.671875 C 16.773438 0.671875 13.898438 -0.0234375 11.453125 -1.421875 C 9.015625 -2.816406 7.132812 -4.875 5.8125 -7.59375 C 4.5 -10.3125 3.84375 -13.609375 3.84375 -17.484375 C 3.84375 -21.347656 4.5 -24.644531 5.8125 -27.375 C 7.132812 -30.101562 9.015625 -32.164062 11.453125 -33.5625 C 13.898438 -34.957031 16.773438 -35.65625 20.078125 -35.65625 C 23.378906 -35.65625 26.25 -34.957031 28.6875 -33.5625 C 31.132812 -32.164062 33.019531 -30.101562 34.34375 -27.375 C 35.664062 -24.644531 36.328125 -21.347656 36.328125 -17.484375 C 36.328125 -13.609375 35.664062 -10.3125 34.34375 -7.59375 C 33.019531 -4.875 31.132812 -2.816406 28.6875 -1.421875 C 26.25 -0.0234375 23.378906 0.671875 20.078125 0.671875 Z M 20.078125 -3.96875 C 23.566406 -3.96875 26.234375 -5.066406 28.078125 -7.265625 C 29.929688 -9.460938 30.859375 -12.867188 30.859375 -17.484375 C 30.859375 -22.109375 29.929688 -25.519531 28.078125 -27.71875 C 26.234375 -29.925781 23.566406 -31.03125 20.078125 -31.03125 C 16.585938 -31.03125 13.910156 -29.921875 12.046875 -27.703125 C 10.191406 -25.492188 9.265625 -22.085938 9.265625 -17.484375 C 9.265625 -12.867188 10.191406 -9.460938 12.046875 -7.265625 C 13.910156 -5.066406 16.585938 -3.96875 20.078125 -3.96875 Z M 20.078125 -3.96875 "/></g></g></g><g fill="#000000" fill-opacity="1"><g transform="translate(556.988094, 297.993642)"><g><path d="M 17.28125 0.671875 C 13.332031 0.671875 10.390625 -0.375 8.453125 -2.46875 C 6.515625 -4.5625 5.546875 -7.628906 5.546875 -11.671875 L 5.546875 -34.984375 L 10.71875 -34.984375 L 10.71875 -11.796875 C 10.71875 -6.492188 13.210938 -3.84375 18.203125 -3.84375 C 21.378906 -3.84375 23.882812 -4.878906 25.71875 -6.953125 C 27.5625 -9.023438 28.484375 -12.382812 28.484375 -17.03125 L 28.484375 -34.984375 L 33.65625 -34.984375 L 33.65625 0 L 28.765625 0 L 28.765625 -5.484375 L 28.109375 -5.640625 C 26.898438 -3.503906 25.453125 -1.914062 23.765625 -0.875 C 22.085938 0.15625 19.925781 0.671875 17.28125 0.671875 Z M 17.28125 0.671875 "/></g></g></g><g fill="#000000" fill-opacity="1"><g transform="translate(596.729898, 297.993642)"><g><path d="M 6.09375 0 L 6.09375 -34.984375 L 11.015625 -34.984375 L 11.015625 -29.5 L 11.671875 -29.34375 C 13.296875 -33.320312 16.363281 -35.3125 20.875 -35.3125 C 23.257812 -35.3125 25.046875 -34.875 26.234375 -34 L 24.90625 -29.625 L 24.265625 -29.5 C 22.953125 -30.15625 21.515625 -30.484375 19.953125 -30.484375 C 17.160156 -30.484375 15.015625 -29.4375 13.515625 -27.34375 C 12.015625 -25.25 11.265625 -21.851562 11.265625 -17.15625 L 11.265625 0 Z M 6.09375 0 "/></g></g></g><g fill="#000000" fill-opacity="1"><g transform="translate(623.75306, 297.993642)"><g><path d="M 15.953125 0.671875 C 13.753906 0.671875 11.71875 0.378906 9.84375 -0.203125 C 7.976562 -0.785156 6.398438 -1.582031 5.109375 -2.59375 C 3.816406 -3.613281 2.90625 -4.757812 2.375 -6.03125 L 5.421875 -9.203125 L 6.09375 -9.203125 C 7.226562 -7.460938 8.597656 -6.15625 10.203125 -5.28125 C 11.816406 -4.40625 13.734375 -3.96875 15.953125 -3.96875 C 18.535156 -3.96875 20.5 -4.46875 21.84375 -5.46875 C 23.1875 -6.476562 23.859375 -7.878906 23.859375 -9.671875 C 23.859375 -11.046875 23.445312 -12.179688 22.625 -13.078125 C 21.8125 -13.984375 20.5 -14.65625 18.6875 -15.09375 L 12.78125 -16.5625 C 9.632812 -17.320312 7.335938 -18.523438 5.890625 -20.171875 C 4.441406 -21.828125 3.71875 -23.867188 3.71875 -26.296875 C 3.71875 -28.203125 4.203125 -29.859375 5.171875 -31.265625 C 6.140625 -32.671875 7.539062 -33.753906 9.375 -34.515625 C 11.207031 -35.273438 13.378906 -35.65625 15.890625 -35.65625 C 19.109375 -35.65625 21.640625 -35.203125 23.484375 -34.296875 C 25.335938 -33.398438 26.785156 -32.148438 27.828125 -30.546875 L 24.90625 -27.6875 L 24.265625 -27.6875 C 23.148438 -28.976562 21.929688 -29.910156 20.609375 -30.484375 C 19.285156 -31.054688 17.710938 -31.34375 15.890625 -31.34375 C 13.585938 -31.34375 11.820312 -30.929688 10.59375 -30.109375 C 9.363281 -29.285156 8.75 -28.085938 8.75 -26.515625 C 8.75 -25.097656 9.179688 -23.957031 10.046875 -23.09375 C 10.921875 -22.226562 12.4375 -21.53125 14.59375 -21 L 20.390625 -19.609375 C 23.441406 -18.890625 25.644531 -17.691406 27 -16.015625 C 28.351562 -14.347656 29.03125 -12.253906 29.03125 -9.734375 C 29.03125 -7.679688 28.539062 -5.875 27.5625 -4.3125 C 26.59375 -2.75 25.125 -1.523438 23.15625 -0.640625 C 21.1875 0.234375 18.785156 0.671875 15.953125 0.671875 Z M 15.953125 0.671875 "/></g></g></g><g fill="#000000" fill-opacity="1"><g transform="translate(0.00000525, 502.743632)"><g><path d="M 15.109375 -58.703125 L 17.296875 -54.078125 C 15.179688 -53.429688 13.609375 -52.441406 12.578125 -51.109375 C 11.554688 -49.785156 11.019531 -47.988281 10.96875 -45.71875 L 16.328125 -45.71875 L 16.328125 -34.59375 L 5.203125 -34.59375 L 5.203125 -43.53125 C 5.203125 -47.582031 5.957031 -50.785156 7.46875 -53.140625 C 8.988281 -55.503906 11.535156 -57.359375 15.109375 -58.703125 Z M 33.78125 -58.703125 L 35.96875 -54.078125 C 33.800781 -53.429688 32.226562 -52.429688 31.25 -51.078125 C 30.28125 -49.722656 29.742188 -47.9375 29.640625 -45.71875 L 35 -45.71875 L 35 -34.59375 L 23.875 -34.59375 L 23.875 -43.609375 C 23.875 -47.671875 24.644531 -50.863281 26.1875 -53.1875 C 27.726562 -55.519531 30.257812 -57.359375 33.78125 -58.703125 Z M 33.78125 -58.703125 "/></g></g></g><g fill="#000000" fill-opacity="1"><g transform="translate(40.599613, 502.743632)"><g><path d="M 21.109375 -18.1875 L 31.671875 -58.140625 L 45.640625 -58.140625 L 55.953125 -17.546875 L 64.71875 -58.140625 L 76.578125 -58.140625 L 62.4375 0 L 49.9375 0 L 38.328125 -43.4375 L 26.875 0 L 14.125 0 L 0.25 -58.140625 L 12.265625 -58.140625 Z M 21.109375 -18.1875 "/></g></g></g><g fill="#000000" fill-opacity="1"><g transform="translate(117.251678, 502.743632)"><g><path d="M 16.890625 -36.703125 C 18.785156 -38.921875 20.773438 -40.53125 22.859375 -41.53125 C 24.941406 -42.53125 27.203125 -43.03125 29.640625 -43.03125 C 31.960938 -43.03125 34.03125 -42.675781 35.84375 -41.96875 C 37.664062 -41.269531 39.171875 -40.351562 40.359375 -39.21875 C 42.796875 -36.832031 44.015625 -32.445312 44.015625 -26.0625 L 44.015625 0 L 32.890625 0 L 32.890625 -23.71875 C 32.890625 -26.257812 32.722656 -28.285156 32.390625 -29.796875 C 32.066406 -31.316406 31.414062 -32.484375 30.4375 -33.296875 C 29.46875 -34.109375 27.984375 -34.515625 25.984375 -34.515625 C 22.460938 -34.515625 20.066406 -33.375 18.796875 -31.09375 C 17.523438 -28.820312 16.890625 -25.789062 16.890625 -22 L 16.890625 0 L 5.765625 0 L 5.765625 -58.140625 L 16.890625 -58.140625 Z M 16.890625 -36.703125 "/></g></g></g><g fill="#000000" fill-opacity="1"><g transform="translate(166.8644, 502.743632)"><g><path d="M 22.25 -43.03125 C 27.601562 -43.03125 31.578125 -42.335938 34.171875 -40.953125 C 36.773438 -39.578125 38.414062 -37.765625 39.09375 -35.515625 C 39.769531 -33.273438 40.082031 -30.316406 40.03125 -26.640625 L 39.953125 -14.375 C 39.898438 -10.53125 40.035156 -7.738281 40.359375 -6 C 40.679688 -4.269531 41.359375 -2.269531 42.390625 0 L 31.421875 0 C 31.148438 -0.59375 30.664062 -2.132812 29.96875 -4.625 C 27.957031 -2.675781 25.882812 -1.253906 23.75 -0.359375 C 21.613281 0.523438 19.328125 0.96875 16.890625 0.96875 C 12.722656 0.96875 9.351562 -0.175781 6.78125 -2.46875 C 4.207031 -4.769531 2.921875 -7.765625 2.921875 -11.453125 C 2.921875 -14.535156 3.691406 -16.984375 5.234375 -18.796875 C 6.773438 -20.609375 8.65625 -21.921875 10.875 -22.734375 C 13.09375 -23.546875 15.722656 -24.25 18.765625 -24.84375 C 23.410156 -25.707031 26.847656 -26.578125 29.078125 -27.453125 L 29.078125 -29.234375 C 29.078125 -31.078125 28.535156 -32.414062 27.453125 -33.25 C 26.367188 -34.09375 24.390625 -34.515625 21.515625 -34.515625 C 19.296875 -34.515625 17.644531 -34.066406 16.5625 -33.171875 C 15.476562 -32.273438 14.664062 -30.960938 14.125 -29.234375 L 4.0625 -31.09375 C 5.144531 -35.207031 7.09375 -38.222656 9.90625 -40.140625 C 12.71875 -42.066406 16.832031 -43.03125 22.25 -43.03125 Z M 22.09375 -18.4375 L 20.21875 -18.03125 C 16.101562 -17.164062 14.046875 -15.378906 14.046875 -12.671875 C 14.046875 -11.046875 14.628906 -9.675781 15.796875 -8.5625 C 16.960938 -7.457031 18.4375 -6.90625 20.21875 -6.90625 C 21.675781 -6.90625 23.132812 -7.28125 24.59375 -8.03125 C 26.0625 -8.789062 27.203125 -9.796875 28.015625 -11.046875 C 28.722656 -12.179688 29.078125 -14.128906 29.078125 -16.890625 L 29.078125 -20.21875 C 26.960938 -19.570312 24.632812 -18.976562 22.09375 -18.4375 Z M 22.09375 -18.4375 "/></g></g></g><g fill="#000000" fill-opacity="1"><g transform="translate(212.01118, 502.743632)"><g><path d="M 17.546875 -42.0625 L 25.09375 -42.0625 L 25.09375 -33.21875 L 17.546875 -33.21875 L 17.546875 -14.703125 C 17.546875 -12.910156 17.613281 -11.582031 17.75 -10.71875 C 17.882812 -9.851562 18.164062 -9.226562 18.59375 -8.84375 C 19.03125 -8.46875 19.707031 -8.28125 20.625 -8.28125 C 21.757812 -8.28125 23.25 -8.632812 25.09375 -9.34375 L 26.0625 -0.734375 C 24.925781 -0.191406 23.546875 0.222656 21.921875 0.515625 C 20.296875 0.816406 18.753906 0.96875 17.296875 0.96875 C 15.179688 0.96875 13.3125 0.617188 11.6875 -0.078125 C 10.0625 -0.785156 8.875 -1.734375 8.125 -2.921875 C 7.3125 -4.273438 6.804688 -5.773438 6.609375 -7.421875 C 6.421875 -9.078125 6.328125 -11.148438 6.328125 -13.640625 L 6.328125 -33.21875 L 1.21875 -33.21875 L 1.21875 -42.0625 L 6.328125 -42.0625 L 6.328125 -50.421875 L 17.546875 -57 Z M 17.546875 -42.0625 "/></g></g></g><g fill="#000000" fill-opacity="1"><g transform="translate(239.050523, 502.743632)"><g/></g></g><g fill="#000000" fill-opacity="1"><g transform="translate(261.623925, 502.743632)"><g><path d="M 44.421875 -58.140625 L 44.421875 0 L 34.03125 0 L 34.03125 -6.171875 L 33.859375 -6.171875 C 32.078125 -3.460938 29.976562 -1.59375 27.5625 -0.5625 C 25.15625 0.457031 22.953125 0.96875 20.953125 0.96875 C 17.867188 0.96875 14.984375 0.128906 12.296875 -1.546875 C 9.617188 -3.222656 7.453125 -5.738281 5.796875 -9.09375 C 4.148438 -12.445312 3.328125 -16.5625 3.328125 -21.4375 C 3.328125 -26.144531 4.125 -30.125 5.71875 -33.375 C 7.320312 -36.625 9.460938 -39.046875 12.140625 -40.640625 C 14.816406 -42.234375 17.78125 -43.03125 21.03125 -43.03125 C 25.789062 -43.03125 29.878906 -41.082031 33.296875 -37.1875 L 33.296875 -58.140625 Z M 14.78125 -20.953125 C 14.78125 -16.296875 15.660156 -12.953125 17.421875 -10.921875 C 19.179688 -8.890625 21.25 -7.875 23.625 -7.875 C 25.09375 -7.875 26.566406 -8.253906 28.046875 -9.015625 C 29.535156 -9.773438 30.820312 -11.207031 31.90625 -13.3125 C 32.882812 -15.207031 33.375 -18.078125 33.375 -21.921875 C 33.375 -25.984375 32.503906 -29.097656 30.765625 -31.265625 C 29.035156 -33.429688 26.765625 -34.515625 23.953125 -34.515625 L 23.546875 -34.515625 C 20.410156 -34.347656 18.164062 -32.976562 16.8125 -30.40625 C 15.457031 -27.832031 14.78125 -24.679688 14.78125 -20.953125 Z M 14.78125 -20.953125 "/></g></g></g><g fill="#000000" fill-opacity="1"><g transform="translate(311.236646, 502.743632)"><g><path d="M 24.921875 -43.03125 C 29.472656 -43.03125 33.398438 -42 36.703125 -39.9375 C 40.003906 -37.882812 42.492188 -35.179688 44.171875 -31.828125 C 45.847656 -28.472656 46.6875 -24.925781 46.6875 -21.1875 C 46.6875 -17.289062 45.804688 -13.648438 44.046875 -10.265625 C 42.285156 -6.890625 39.769531 -4.171875 36.5 -2.109375 C 33.226562 -0.0546875 29.398438 0.96875 25.015625 0.96875 C 21.273438 0.96875 17.753906 0.195312 14.453125 -1.34375 C 11.148438 -2.882812 8.457031 -5.34375 6.375 -8.71875 C 4.289062 -12.101562 3.25 -16.394531 3.25 -21.59375 C 3.25 -25.226562 4.070312 -28.679688 5.71875 -31.953125 C 7.375 -35.222656 9.835938 -37.882812 13.109375 -39.9375 C 16.390625 -42 20.328125 -43.03125 24.921875 -43.03125 Z M 14.703125 -21.03125 C 14.703125 -16.8125 15.6875 -13.601562 17.65625 -11.40625 C 19.632812 -9.21875 22.054688 -8.125 24.921875 -8.125 C 27.796875 -8.125 30.234375 -9.203125 32.234375 -11.359375 C 34.242188 -13.523438 35.25 -16.773438 35.25 -21.109375 C 35.25 -25.117188 34.285156 -28.257812 32.359375 -30.53125 C 30.441406 -32.800781 27.9375 -33.9375 24.84375 -33.9375 C 22.03125 -33.9375 19.632812 -32.828125 17.65625 -30.609375 C 15.6875 -28.390625 14.703125 -25.195312 14.703125 -21.03125 Z M 14.703125 -21.03125 "/></g></g></g><g fill="#000000" fill-opacity="1"><g transform="translate(360.849368, 502.743632)"><g/></g></g><g fill="#000000" fill-opacity="1"><g transform="translate(383.422746, 502.743632)"><g><path d="M 22.40625 -12.1875 L 22.578125 -12.1875 L 32.3125 -42.0625 L 43.84375 -42.0625 L 28.984375 -1.546875 L 28.015625 1.296875 C 26.609375 5.253906 25.347656 8.242188 24.234375 10.265625 C 23.128906 12.296875 21.503906 13.929688 19.359375 15.171875 C 17.222656 16.421875 14.289062 17.046875 10.5625 17.046875 C 8.34375 17.046875 6.226562 16.832031 4.21875 16.40625 L 3.25 7.71875 C 5.144531 8.039062 6.6875 8.203125 7.875 8.203125 C 10.207031 8.203125 12.007812 7.59375 13.28125 6.375 C 14.550781 5.15625 15.644531 3.054688 16.5625 0.078125 L 0.5625 -42.0625 L 12.421875 -42.0625 Z M 22.40625 -12.1875 "/></g></g></g><g fill="#000000" fill-opacity="1"><g transform="translate(428.569503, 502.743632)"><g><path d="M 24.921875 -43.03125 C 29.472656 -43.03125 33.398438 -42 36.703125 -39.9375 C 40.003906 -37.882812 42.492188 -35.179688 44.171875 -31.828125 C 45.847656 -28.472656 46.6875 -24.925781 46.6875 -21.1875 C 46.6875 -17.289062 45.804688 -13.648438 44.046875 -10.265625 C 42.285156 -6.890625 39.769531 -4.171875 36.5 -2.109375 C 33.226562 -0.0546875 29.398438 0.96875 25.015625 0.96875 C 21.273438 0.96875 17.753906 0.195312 14.453125 -1.34375 C 11.148438 -2.882812 8.457031 -5.34375 6.375 -8.71875 C 4.289062 -12.101562 3.25 -16.394531 3.25 -21.59375 C 3.25 -25.226562 4.070312 -28.679688 5.71875 -31.953125 C 7.375 -35.222656 9.835938 -37.882812 13.109375 -39.9375 C 16.390625 -42 20.328125 -43.03125 24.921875 -43.03125 Z M 14.703125 -21.03125 C 14.703125 -16.8125 15.6875 -13.601562 17.65625 -11.40625 C 19.632812 -9.21875 22.054688 -8.125 24.921875 -8.125 C 27.796875 -8.125 30.234375 -9.203125 32.234375 -11.359375 C 34.242188 -13.523438 35.25 -16.773438 35.25 -21.109375 C 35.25 -25.117188 34.285156 -28.257812 32.359375 -30.53125 C 30.441406 -32.800781 27.9375 -33.9375 24.84375 -33.9375 C 22.03125 -33.9375 19.632812 -32.828125 17.65625 -30.609375 C 15.6875 -28.390625 14.703125 -25.195312 14.703125 -21.03125 Z M 14.703125 -21.03125 "/></g></g></g><g fill="#000000" fill-opacity="1"><g transform="translate(478.182202, 502.743632)"><g><path d="M 16.734375 -20.46875 C 16.734375 -17.488281 16.800781 -15.320312 16.9375 -13.96875 C 17.070312 -12.613281 17.351562 -11.53125 17.78125 -10.71875 C 18.269531 -9.800781 19.015625 -9.039062 20.015625 -8.4375 C 21.015625 -7.84375 22.25 -7.546875 23.71875 -7.546875 C 25.664062 -7.546875 27.421875 -8.085938 28.984375 -9.171875 C 30.554688 -10.253906 31.5625 -11.582031 32 -13.15625 C 32.476562 -14.726562 32.71875 -18.082031 32.71875 -23.21875 L 32.71875 -42.0625 L 43.84375 -42.0625 L 43.84375 0 L 33.53125 0 L 33.53125 -6.328125 L 33.375 -6.328125 C 31.800781 -3.953125 29.769531 -2.140625 27.28125 -0.890625 C 24.789062 0.347656 22.21875 0.96875 19.5625 0.96875 C 17.1875 0.96875 14.925781 0.484375 12.78125 -0.484375 C 10.644531 -1.460938 9.007812 -2.867188 7.875 -4.703125 C 7.0625 -6.003906 6.476562 -7.441406 6.125 -9.015625 C 5.78125 -10.585938 5.609375 -12.5625 5.609375 -14.9375 L 5.609375 -42.0625 L 16.734375 -42.0625 Z M 16.734375 -20.46875 "/></g></g></g><g fill="#000000" fill-opacity="1"><g transform="translate(527.794902, 502.743632)"><g/></g></g><g fill="#000000" fill-opacity="1"><g transform="translate(550.36828, 502.743632)"><g><path d="M 19 -14.53125 L 19.15625 -14.53125 L 26.3125 -42.0625 L 37.109375 -42.0625 L 44.015625 -14.53125 L 44.171875 -14.53125 L 52.125 -42.0625 L 63.09375 -42.0625 L 49.609375 0 L 38.890625 0 L 31.75 -27.125 L 31.59375 -27.125 L 24.515625 0 L 13.71875 0 L 0.328125 -42.0625 L 11.203125 -42.0625 Z M 19 -14.53125 "/></g></g></g><g fill="#000000" fill-opacity="1"><g transform="translate(613.541266, 502.743632)"><g><path d="M 22.25 -43.03125 C 27.601562 -43.03125 31.578125 -42.335938 34.171875 -40.953125 C 36.773438 -39.578125 38.414062 -37.765625 39.09375 -35.515625 C 39.769531 -33.273438 40.082031 -30.316406 40.03125 -26.640625 L 39.953125 -14.375 C 39.898438 -10.53125 40.035156 -7.738281 40.359375 -6 C 40.679688 -4.269531 41.359375 -2.269531 42.390625 0 L 31.421875 0 C 31.148438 -0.59375 30.664062 -2.132812 29.96875 -4.625 C 27.957031 -2.675781 25.882812 -1.253906 23.75 -0.359375 C 21.613281 0.523438 19.328125 0.96875 16.890625 0.96875 C 12.722656 0.96875 9.351562 -0.175781 6.78125 -2.46875 C 4.207031 -4.769531 2.921875 -7.765625 2.921875 -11.453125 C 2.921875 -14.535156 3.691406 -16.984375 5.234375 -18.796875 C 6.773438 -20.609375 8.65625 -21.921875 10.875 -22.734375 C 13.09375 -23.546875 15.722656 -24.25 18.765625 -24.84375 C 23.410156 -25.707031 26.847656 -26.578125 29.078125 -27.453125 L 29.078125 -29.234375 C 29.078125 -31.078125 28.535156 -32.414062 27.453125 -33.25 C 26.367188 -34.09375 24.390625 -34.515625 21.515625 -34.515625 C 19.296875 -34.515625 17.644531 -34.066406 16.5625 -33.171875 C 15.476562 -32.273438 14.664062 -30.960938 14.125 -29.234375 L 4.0625 -31.09375 C 5.144531 -35.207031 7.09375 -38.222656 9.90625 -40.140625 C 12.71875 -42.066406 16.832031 -43.03125 22.25 -43.03125 Z M 22.09375 -18.4375 L 20.21875 -18.03125 C 16.101562 -17.164062 14.046875 -15.378906 14.046875 -12.671875 C 14.046875 -11.046875 14.628906 -9.675781 15.796875 -8.5625 C 16.960938 -7.457031 18.4375 -6.90625 20.21875 -6.90625 C 21.675781 -6.90625 23.132812 -7.28125 24.59375 -8.03125 C 26.0625 -8.789062 27.203125 -9.796875 28.015625 -11.046875 C 28.722656 -12.179688 29.078125 -14.128906 29.078125 -16.890625 L 29.078125 -20.21875 C 26.960938 -19.570312 24.632812 -18.976562 22.09375 -18.4375 Z M 22.09375 -18.4375 "/></g></g></g><g fill="#000000" fill-opacity="1"><g transform="translate(658.688023, 502.743632)"><g><path d="M 30.046875 -43.03125 C 32.535156 -43.03125 34.695312 -42.609375 36.53125 -41.765625 C 38.375 -40.929688 39.835938 -39.945312 40.921875 -38.8125 C 42.222656 -37.40625 43.078125 -35.738281 43.484375 -33.8125 C 43.890625 -31.894531 44.09375 -29.773438 44.09375 -27.453125 L 44.09375 0 L 32.96875 0 L 32.96875 -22.984375 C 32.96875 -26.878906 32.535156 -29.773438 31.671875 -31.671875 C 30.804688 -33.566406 28.960938 -34.515625 26.140625 -34.515625 C 23.492188 -34.515625 21.4375 -33.753906 19.96875 -32.234375 C 18.507812 -30.722656 17.644531 -28.960938 17.375 -26.953125 C 17.21875 -25.660156 17.097656 -24.5 17.015625 -23.46875 C 16.929688 -22.4375 16.890625 -21.269531 16.890625 -19.96875 L 16.890625 0 L 5.765625 0 L 5.765625 -42.0625 L 16.328125 -42.0625 L 16.328125 -35.890625 C 17.515625 -37.679688 19.285156 -39.316406 21.640625 -40.796875 C 23.992188 -42.285156 26.796875 -43.03125 30.046875 -43.03125 Z M 30.046875 -43.03125 "/></g></g></g><g fill="#000000" fill-opacity="1"><g transform="translate(708.300722, 502.743632)"><g><path d="M 17.546875 -42.0625 L 25.09375 -42.0625 L 25.09375 -33.21875 L 17.546875 -33.21875 L 17.546875 -14.703125 C 17.546875 -12.910156 17.613281 -11.582031 17.75 -10.71875 C 17.882812 -9.851562 18.164062 -9.226562 18.59375 -8.84375 C 19.03125 -8.46875 19.707031 -8.28125 20.625 -8.28125 C 21.757812 -8.28125 23.25 -8.632812 25.09375 -9.34375 L 26.0625 -0.734375 C 24.925781 -0.191406 23.546875 0.222656 21.921875 0.515625 C 20.296875 0.816406 18.753906 0.96875 17.296875 0.96875 C 15.179688 0.96875 13.3125 0.617188 11.6875 -0.078125 C 10.0625 -0.785156 8.875 -1.734375 8.125 -2.921875 C 7.3125 -4.273438 6.804688 -5.773438 6.609375 -7.421875 C 6.421875 -9.078125 6.328125 -11.148438 6.328125 -13.640625 L 6.328125 -33.21875 L 1.21875 -33.21875 L 1.21875 -42.0625 L 6.328125 -42.0625 L 6.328125 -50.421875 L 17.546875 -57 Z M 17.546875 -42.0625 "/></g></g></g><g fill="#000000" fill-opacity="1"><g transform="translate(735.340088, 502.743632)"><g><path d="M 25.015625 -58.703125 C 29.015625 -58.703125 32.613281 -57.957031 35.8125 -56.46875 C 39.007812 -54.988281 41.5 -52.972656 43.28125 -50.421875 C 45.070312 -47.878906 45.96875 -45.09375 45.96875 -42.0625 C 45.96875 -39.351562 45.164062 -36.863281 43.5625 -34.59375 C 41.96875 -32.320312 39.195312 -29.5625 35.25 -26.3125 C 33.5625 -24.957031 32.335938 -23.832031 31.578125 -22.9375 C 30.828125 -22.039062 30.328125 -21.144531 30.078125 -20.25 C 29.835938 -19.363281 29.71875 -18.160156 29.71875 -16.640625 C 29.71875 -15.941406 29.742188 -15.398438 29.796875 -15.015625 L 19.65625 -15.015625 C 19.59375 -18.265625 19.75 -20.8125 20.125 -22.65625 C 20.507812 -24.5 21.3125 -26.203125 22.53125 -27.765625 C 23.75 -29.335938 25.710938 -31.207031 28.421875 -33.375 C 31.128906 -35.539062 32.914062 -37.175781 33.78125 -38.28125 C 34.644531 -39.394531 35.078125 -40.738281 35.078125 -42.3125 C 35.078125 -44.800781 34.113281 -46.734375 32.1875 -48.109375 C 30.269531 -49.492188 28.015625 -50.1875 25.421875 -50.1875 C 22.441406 -50.1875 20.03125 -49.347656 18.1875 -47.671875 C 16.34375 -45.992188 15.097656 -43.582031 14.453125 -40.4375 L 4.21875 -41.734375 C 4.382812 -44.554688 5.28125 -47.25 6.90625 -49.8125 C 8.53125 -52.382812 10.867188 -54.507812 13.921875 -56.1875 C 16.984375 -57.863281 20.679688 -58.703125 25.015625 -58.703125 Z M 30.78125 0 L 19.65625 0 L 19.65625 -11.125 L 30.78125 -11.125 Z M 30.78125 0 "/></g></g></g><g fill="#000000" fill-opacity="1"><g transform="translate(784.952787, 502.743632)"><g><path d="M 16.640625 -48.3125 L 14.78125 -37.4375 L 6.578125 -37.4375 L 4.46875 -48.3125 L 4.46875 -58.140625 L 16.640625 -58.140625 Z M 35.40625 -48.3125 L 33.53125 -37.4375 L 25.328125 -37.4375 L 23.21875 -48.3125 L 23.21875 -58.140625 L 35.40625 -58.140625 Z M 35.40625 -48.3125 "/></g></g></g><g fill="#000000" fill-opacity="1"><g transform="translate(0.00000525, 575.493628)"><g><path d="M 16.640625 -48.3125 L 14.78125 -37.4375 L 6.578125 -37.4375 L 4.46875 -48.3125 L 4.46875 -58.140625 L 16.640625 -58.140625 Z M 35.40625 -48.3125 L 33.53125 -37.4375 L 25.328125 -37.4375 L 23.21875 -48.3125 L 23.21875 -58.140625 L 35.40625 -58.140625 Z M 35.40625 -48.3125 "/></g></g></g><g fill="#000000" fill-opacity="1"><g transform="translate(38.488441, 575.493628)"><g><path d="M 17.625 -35.25 L 40.609375 -35.25 L 40.609375 -58.140625 L 52.296875 -58.140625 L 52.296875 0 L 40.609375 0 L 40.609375 -25.421875 L 17.625 -25.421875 L 17.625 0 L 5.921875 0 L 5.921875 -58.140625 L 17.625 -58.140625 Z M 17.625 -35.25 "/></g></g></g><g fill="#000000" fill-opacity="1"><g transform="translate(97.114278, 575.493628)"><g><path d="M 24.921875 -43.03125 C 29.472656 -43.03125 33.398438 -42 36.703125 -39.9375 C 40.003906 -37.882812 42.492188 -35.179688 44.171875 -31.828125 C 45.847656 -28.472656 46.6875 -24.925781 46.6875 -21.1875 C 46.6875 -17.289062 45.804688 -13.648438 44.046875 -10.265625 C 42.285156 -6.890625 39.769531 -4.171875 36.5 -2.109375 C 33.226562 -0.0546875 29.398438 0.96875 25.015625 0.96875 C 21.273438 0.96875 17.753906 0.195312 14.453125 -1.34375 C 11.148438 -2.882812 8.457031 -5.34375 6.375 -8.71875 C 4.289062 -12.101562 3.25 -16.394531 3.25 -21.59375 C 3.25 -25.226562 4.070312 -28.679688 5.71875 -31.953125 C 7.375 -35.222656 9.835938 -37.882812 13.109375 -39.9375 C 16.390625 -42 20.328125 -43.03125 24.921875 -43.03125 Z M 14.703125 -21.03125 C 14.703125 -16.8125 15.6875 -13.601562 17.65625 -11.40625 C 19.632812 -9.21875 22.054688 -8.125 24.921875 -8.125 C 27.796875 -8.125 30.234375 -9.203125 32.234375 -11.359375 C 34.242188 -13.523438 35.25 -16.773438 35.25 -21.109375 C 35.25 -25.117188 34.285156 -28.257812 32.359375 -30.53125 C 30.441406 -32.800781 27.9375 -33.9375 24.84375 -33.9375 C 22.03125 -33.9375 19.632812 -32.828125 17.65625 -30.609375 C 15.6875 -28.390625 14.703125 -25.195312 14.703125 -21.03125 Z M 14.703125 -21.03125 "/></g></g></g><g fill="#000000" fill-opacity="1"><g transform="translate(146.726999, 575.493628)"><g><path d="M 28.421875 -43.03125 C 33.890625 -43.03125 37.867188 -40.8125 40.359375 -36.375 C 43.984375 -40.8125 48.257812 -43.03125 53.1875 -43.03125 C 57.84375 -43.03125 61.304688 -41.757812 63.578125 -39.21875 C 65.859375 -36.675781 67 -32.859375 67 -27.765625 L 67 0 L 55.875 0 L 55.875 -25.171875 C 55.875 -28.203125 55.476562 -30.515625 54.6875 -32.109375 C 53.90625 -33.710938 52.320312 -34.515625 49.9375 -34.515625 C 47.664062 -34.515625 45.835938 -33.726562 44.453125 -32.15625 C 43.078125 -30.582031 42.226562 -28.550781 41.90625 -26.0625 C 41.6875 -24.113281 41.578125 -22.382812 41.578125 -20.875 L 41.578125 0 L 30.453125 0 L 30.453125 -24.765625 C 30.453125 -28.171875 30.085938 -30.644531 29.359375 -32.1875 C 28.628906 -33.738281 27.070312 -34.515625 24.6875 -34.515625 C 22.957031 -34.515625 21.398438 -34.050781 20.015625 -33.125 C 18.640625 -32.207031 17.679688 -30.9375 17.140625 -29.3125 C 16.484375 -27.363281 16.15625 -24.628906 16.15625 -21.109375 L 16.15625 0 L 5.03125 0 L 5.03125 -42.0625 L 15.34375 -42.0625 L 15.515625 -36.375 C 17.242188 -38.488281 19.066406 -40.125 20.984375 -41.28125 C 22.910156 -42.445312 25.390625 -43.03125 28.421875 -43.03125 Z M 28.421875 -43.03125 "/></g></g></g><g fill="#000000" fill-opacity="1"><g transform="translate(218.913111, 575.493628)"><g><path d="M 21.921875 -43.03125 C 28.640625 -43.03125 33.648438 -40.851562 36.953125 -36.5 C 40.253906 -32.144531 41.90625 -25.929688 41.90625 -17.859375 L 13.96875 -17.859375 C 14.070312 -15.046875 14.894531 -12.625 16.4375 -10.59375 C 17.988281 -8.5625 20.222656 -7.546875 23.140625 -7.546875 C 24.984375 -7.546875 26.484375 -8.019531 27.640625 -8.96875 C 28.804688 -9.914062 29.660156 -11.394531 30.203125 -13.40625 L 41.328125 -11.53125 C 39.921875 -7.414062 37.644531 -4.300781 34.5 -2.1875 C 31.363281 -0.0820312 27.523438 0.96875 22.984375 0.96875 C 16.210938 0.96875 11.097656 -1.054688 7.640625 -5.109375 C 6.015625 -7.003906 4.765625 -9.382812 3.890625 -12.25 C 3.023438 -15.125 2.59375 -17.96875 2.59375 -20.78125 C 2.59375 -24.625 3.28125 -28.238281 4.65625 -31.625 C 6.039062 -35.007812 8.179688 -37.753906 11.078125 -39.859375 C 13.972656 -41.972656 17.585938 -43.03125 21.921875 -43.03125 Z M 14.203125 -24.6875 L 30.859375 -24.6875 C 30.804688 -28.09375 29.953125 -30.582031 28.296875 -32.15625 C 26.648438 -33.726562 24.71875 -34.515625 22.5 -34.515625 C 19.894531 -34.515625 17.859375 -33.578125 16.390625 -31.703125 C 14.929688 -29.835938 14.203125 -27.5 14.203125 -24.6875 Z M 14.203125 -24.6875 "/></g></g></g><g fill="#000000" fill-opacity="1"><g transform="translate(264.059868, 575.493628)"><g/></g></g><g fill="#000000" fill-opacity="1"><g transform="translate(286.633246, 575.493628)"><g><path d="M 16.96875 -47.828125 L 5.84375 -47.828125 L 5.84375 -58.140625 L 16.96875 -58.140625 Z M 16.96875 0 L 5.84375 0 L 5.84375 -42.0625 L 16.96875 -42.0625 Z M 16.96875 0 "/></g></g></g><g fill="#000000" fill-opacity="1"><g transform="translate(309.206624, 575.493628)"><g><path d="M 30.046875 -43.03125 C 32.535156 -43.03125 34.695312 -42.609375 36.53125 -41.765625 C 38.375 -40.929688 39.835938 -39.945312 40.921875 -38.8125 C 42.222656 -37.40625 43.078125 -35.738281 43.484375 -33.8125 C 43.890625 -31.894531 44.09375 -29.773438 44.09375 -27.453125 L 44.09375 0 L 32.96875 0 L 32.96875 -22.984375 C 32.96875 -26.878906 32.535156 -29.773438 31.671875 -31.671875 C 30.804688 -33.566406 28.960938 -34.515625 26.140625 -34.515625 C 23.492188 -34.515625 21.4375 -33.753906 19.96875 -32.234375 C 18.507812 -30.722656 17.644531 -28.960938 17.375 -26.953125 C 17.21875 -25.660156 17.097656 -24.5 17.015625 -23.46875 C 16.929688 -22.4375 16.890625 -21.269531 16.890625 -19.96875 L 16.890625 0 L 5.765625 0 L 5.765625 -42.0625 L 16.328125 -42.0625 L 16.328125 -35.890625 C 17.515625 -37.679688 19.285156 -39.316406 21.640625 -40.796875 C 23.992188 -42.285156 26.796875 -43.03125 30.046875 -43.03125 Z M 30.046875 -43.03125 "/></g></g></g><g fill="#000000" fill-opacity="1"><g transform="translate(358.819346, 575.493628)"><g/></g></g><g fill="#000000" fill-opacity="1"><g transform="translate(381.392748, 575.493628)"><g><path d="M 28.421875 -43.03125 C 33.890625 -43.03125 37.867188 -40.8125 40.359375 -36.375 C 43.984375 -40.8125 48.257812 -43.03125 53.1875 -43.03125 C 57.84375 -43.03125 61.304688 -41.757812 63.578125 -39.21875 C 65.859375 -36.675781 67 -32.859375 67 -27.765625 L 67 0 L 55.875 0 L 55.875 -25.171875 C 55.875 -28.203125 55.476562 -30.515625 54.6875 -32.109375 C 53.90625 -33.710938 52.320312 -34.515625 49.9375 -34.515625 C 47.664062 -34.515625 45.835938 -33.726562 44.453125 -32.15625 C 43.078125 -30.582031 42.226562 -28.550781 41.90625 -26.0625 C 41.6875 -24.113281 41.578125 -22.382812 41.578125 -20.875 L 41.578125 0 L 30.453125 0 L 30.453125 -24.765625 C 30.453125 -28.171875 30.085938 -30.644531 29.359375 -32.1875 C 28.628906 -33.738281 27.070312 -34.515625 24.6875 -34.515625 C 22.957031 -34.515625 21.398438 -34.050781 20.015625 -33.125 C 18.640625 -32.207031 17.679688 -30.9375 17.140625 -29.3125 C 16.484375 -27.363281 16.15625 -24.628906 16.15625 -21.109375 L 16.15625 0 L 5.03125 0 L 5.03125 -42.0625 L 15.34375 -42.0625 L 15.515625 -36.375 C 17.242188 -38.488281 19.066406 -40.125 20.984375 -41.28125 C 22.910156 -42.445312 25.390625 -43.03125 28.421875 -43.03125 Z M 28.421875 -43.03125 "/></g></g></g><g fill="#000000" fill-opacity="1"><g transform="translate(453.578871, 575.493628)"><g><path d="M 22.40625 -12.1875 L 22.578125 -12.1875 L 32.3125 -42.0625 L 43.84375 -42.0625 L 28.984375 -1.546875 L 28.015625 1.296875 C 26.609375 5.253906 25.347656 8.242188 24.234375 10.265625 C 23.128906 12.296875 21.503906 13.929688 19.359375 15.171875 C 17.222656 16.421875 14.289062 17.046875 10.5625 17.046875 C 8.34375 17.046875 6.226562 16.832031 4.21875 16.40625 L 3.25 7.71875 C 5.144531 8.039062 6.6875 8.203125 7.875 8.203125 C 10.207031 8.203125 12.007812 7.59375 13.28125 6.375 C 14.550781 5.15625 15.644531 3.054688 16.5625 0.078125 L 0.5625 -42.0625 L 12.421875 -42.0625 Z M 22.40625 -12.1875 "/></g></g></g><g fill="#000000" fill-opacity="1"><g transform="translate(498.725628, 575.493628)"><g/></g></g><g fill="#000000" fill-opacity="1"><g transform="translate(521.299006, 575.493628)"><g><path d="M 24.921875 -43.03125 C 29.472656 -43.03125 33.398438 -42 36.703125 -39.9375 C 40.003906 -37.882812 42.492188 -35.179688 44.171875 -31.828125 C 45.847656 -28.472656 46.6875 -24.925781 46.6875 -21.1875 C 46.6875 -17.289062 45.804688 -13.648438 44.046875 -10.265625 C 42.285156 -6.890625 39.769531 -4.171875 36.5 -2.109375 C 33.226562 -0.0546875 29.398438 0.96875 25.015625 0.96875 C 21.273438 0.96875 17.753906 0.195312 14.453125 -1.34375 C 11.148438 -2.882812 8.457031 -5.34375 6.375 -8.71875 C 4.289062 -12.101562 3.25 -16.394531 3.25 -21.59375 C 3.25 -25.226562 4.070312 -28.679688 5.71875 -31.953125 C 7.375 -35.222656 9.835938 -37.882812 13.109375 -39.9375 C 16.390625 -42 20.328125 -43.03125 24.921875 -43.03125 Z M 14.703125 -21.03125 C 14.703125 -16.8125 15.6875 -13.601562 17.65625 -11.40625 C 19.632812 -9.21875 22.054688 -8.125 24.921875 -8.125 C 27.796875 -8.125 30.234375 -9.203125 32.234375 -11.359375 C 34.242188 -13.523438 35.25 -16.773438 35.25 -21.109375 C 35.25 -25.117188 34.285156 -28.257812 32.359375 -30.53125 C 30.441406 -32.800781 27.9375 -33.9375 24.84375 -33.9375 C 22.03125 -33.9375 19.632812 -32.828125 17.65625 -30.609375 C 15.6875 -28.390625 14.703125 -25.195312 14.703125 -21.03125 Z M 14.703125 -21.03125 "/></g></g></g><g fill="#000000" fill-opacity="1"><g transform="translate(570.911751, 575.493628)"><g><path d="M 19 -14.53125 L 19.15625 -14.53125 L 26.3125 -42.0625 L 37.109375 -42.0625 L 44.015625 -14.53125 L 44.171875 -14.53125 L 52.125 -42.0625 L 63.09375 -42.0625 L 49.609375 0 L 38.890625 0 L 31.75 -27.125 L 31.59375 -27.125 L 24.515625 0 L 13.71875 0 L 0.328125 -42.0625 L 11.203125 -42.0625 Z M 19 -14.53125 "/></g></g></g><g fill="#000000" fill-opacity="1"><g transform="translate(634.084737, 575.493628)"><g><path d="M 30.046875 -43.03125 C 32.535156 -43.03125 34.695312 -42.609375 36.53125 -41.765625 C 38.375 -40.929688 39.835938 -39.945312 40.921875 -38.8125 C 42.222656 -37.40625 43.078125 -35.738281 43.484375 -33.8125 C 43.890625 -31.894531 44.09375 -29.773438 44.09375 -27.453125 L 44.09375 0 L 32.96875 0 L 32.96875 -22.984375 C 32.96875 -26.878906 32.535156 -29.773438 31.671875 -31.671875 C 30.804688 -33.566406 28.960938 -34.515625 26.140625 -34.515625 C 23.492188 -34.515625 21.4375 -33.753906 19.96875 -32.234375 C 18.507812 -30.722656 17.644531 -28.960938 17.375 -26.953125 C 17.21875 -25.660156 17.097656 -24.5 17.015625 -23.46875 C 16.929688 -22.4375 16.890625 -21.269531 16.890625 -19.96875 L 16.890625 0 L 5.765625 0 L 5.765625 -42.0625 L 16.328125 -42.0625 L 16.328125 -35.890625 C 17.515625 -37.679688 19.285156 -39.316406 21.640625 -40.796875 C 23.992188 -42.285156 26.796875 -43.03125 30.046875 -43.03125 Z M 30.046875 -43.03125 "/></g></g></g><g fill="#000000" fill-opacity="1"><g transform="translate(683.697482, 575.493628)"><g/></g></g><g fill="#000000" fill-opacity="1"><g transform="translate(706.27086, 575.493628)"><g><path d="M 21.1875 -43.03125 C 26.445312 -43.03125 30.578125 -42.164062 33.578125 -40.4375 C 36.578125 -38.707031 38.648438 -35.863281 39.796875 -31.90625 L 29.234375 -29.96875 C 28.742188 -31.695312 27.863281 -32.976562 26.59375 -33.8125 C 25.320312 -34.65625 23.550781 -35.078125 21.28125 -35.078125 C 16.238281 -35.078125 13.71875 -33.914062 13.71875 -31.59375 C 13.71875 -30.445312 14.539062 -29.535156 16.1875 -28.859375 C 17.84375 -28.191406 20.242188 -27.503906 23.390625 -26.796875 C 27.234375 -25.929688 30.367188 -25.050781 32.796875 -24.15625 C 35.234375 -23.257812 37.238281 -21.929688 38.8125 -20.171875 C 40.382812 -18.421875 41.171875 -16.082031 41.171875 -13.15625 C 41.171875 -10.769531 40.503906 -8.507812 39.171875 -6.375 C 37.847656 -4.238281 35.75 -2.476562 32.875 -1.09375 C 30.007812 0.28125 26.382812 0.96875 22 0.96875 C 17.070312 0.96875 12.726562 -0.0820312 8.96875 -2.1875 C 5.207031 -4.300781 2.84375 -7.578125 1.875 -12.015625 L 13 -13.71875 C 14.019531 -9.226562 17.019531 -6.984375 22 -6.984375 C 23.945312 -6.984375 25.773438 -7.320312 27.484375 -8 C 29.191406 -8.675781 30.046875 -9.878906 30.046875 -11.609375 C 30.046875 -12.742188 29.648438 -13.539062 28.859375 -14 C 28.078125 -14.46875 26.820312 -14.890625 25.09375 -15.265625 C 19.945312 -16.398438 15.9375 -17.453125 13.0625 -18.421875 C 10.195312 -19.398438 7.867188 -20.8125 6.078125 -22.65625 C 4.296875 -24.5 3.40625 -26.988281 3.40625 -30.125 C 3.40625 -34.507812 5.082031 -37.753906 8.4375 -39.859375 C 11.800781 -41.972656 16.050781 -43.03125 21.1875 -43.03125 Z M 21.1875 -43.03125 "/></g></g></g><g fill="#000000" fill-opacity="1"><g transform="translate(751.417617, 575.493628)"><g><path d="M 16.5625 -27.28125 L 29.640625 -42.0625 L 43.359375 -42.0625 L 28.984375 -26.71875 L 44.34375 0 L 32.3125 0 L 21.765625 -18.921875 L 16.5625 -13.484375 L 16.5625 0 L 5.4375 0 L 5.4375 -58.140625 L 16.5625 -58.140625 Z M 16.5625 -27.28125 "/></g></g></g><g fill="#000000" fill-opacity="1"><g transform="translate(796.564419, 575.493628)"><g><path d="M 16.96875 -47.828125 L 5.84375 -47.828125 L 5.84375 -58.140625 L 16.96875 -58.140625 Z M 16.96875 0 L 5.84375 0 L 5.84375 -42.0625 L 16.96875 -42.0625 Z M 16.96875 0 "/></g></g></g><g fill="#000000" fill-opacity="1"><g transform="translate(819.137843, 575.493628)"><g><path d="M 30.046875 -43.03125 C 32.535156 -43.03125 34.695312 -42.609375 36.53125 -41.765625 C 38.375 -40.929688 39.835938 -39.945312 40.921875 -38.8125 C 42.222656 -37.40625 43.078125 -35.738281 43.484375 -33.8125 C 43.890625 -31.894531 44.09375 -29.773438 44.09375 -27.453125 L 44.09375 0 L 32.96875 0 L 32.96875 -22.984375 C 32.96875 -26.878906 32.535156 -29.773438 31.671875 -31.671875 C 30.804688 -33.566406 28.960938 -34.515625 26.140625 -34.515625 C 23.492188 -34.515625 21.4375 -33.753906 19.96875 -32.234375 C 18.507812 -30.722656 17.644531 -28.960938 17.375 -26.953125 C 17.21875 -25.660156 17.097656 -24.5 17.015625 -23.46875 C 16.929688 -22.4375 16.890625 -21.269531 16.890625 -19.96875 L 16.890625 0 L 5.765625 0 L 5.765625 -42.0625 L 16.328125 -42.0625 L 16.328125 -35.890625 C 17.515625 -37.679688 19.285156 -39.316406 21.640625 -40.796875 C 23.992188 -42.285156 26.796875 -43.03125 30.046875 -43.03125 Z M 30.046875 -43.03125 "/></g></g></g><g fill="#000000" fill-opacity="1"><g transform="translate(868.750543, 575.493628)"><g><path d="M 16.234375 -49.203125 C 16.234375 -45.148438 15.472656 -41.941406 13.953125 -39.578125 C 12.441406 -37.222656 9.898438 -35.375 6.328125 -34.03125 L 4.140625 -38.65625 C 6.253906 -39.300781 7.8125 -40.285156 8.8125 -41.609375 C 9.8125 -42.941406 10.363281 -44.742188 10.46875 -47.015625 L 5.109375 -47.015625 L 5.109375 -58.140625 L 16.234375 -58.140625 Z M 34.921875 -49.203125 C 34.921875 -45.148438 34.160156 -41.941406 32.640625 -39.578125 C 31.128906 -37.222656 28.585938 -35.375 25.015625 -34.03125 L 22.8125 -38.65625 C 24.925781 -39.300781 26.484375 -40.285156 27.484375 -41.609375 C 28.484375 -42.941406 29.039062 -44.742188 29.15625 -47.015625 L 23.796875 -47.015625 L 23.796875 -58.140625 L 34.921875 -58.140625 Z M 34.921875 -49.203125 "/></g></g></g></svg>