<svg xmlns="http://www.w3.org/2000/svg" xmlns:xlink="http://www.w3.org/1999/xlink" width="1620" zoomAndPan="magnify" viewBox="0 0 1215 809.999993" height="1080" preserveAspectRatio="xMidYMid meet" version="1.0"><defs><g/></defs><g fill="#000000" fill-opacity="1"><g transform="translate(0.00000525, 65.359786)"><g><path d="M 46.609375 -53.34375 C 52.359375 -48.195312 55.234375 -39.976562 55.234375 -28.6875 C 55.234375 -19.207031 52.6875 -11.78125 47.59375 -6.40625 C 43.59375 -2.132812 37.425781 0 29.09375 0 L 5.921875 0 L 5.921875 -58.859375 L 28.859375 -58.859375 C 33.015625 -58.859375 36.460938 -58.429688 39.203125 -57.578125 C 41.953125 -56.734375 44.421875 -55.320312 46.609375 -53.34375 Z M 43 -29.34375 C 43 -34.988281 42.328125 -39.222656 40.984375 -42.046875 C 39.640625 -44.867188 37.707031 -46.71875 35.1875 -47.59375 C 32.664062 -48.46875 29.210938 -48.90625 24.828125 -48.90625 L 17.75 -48.90625 L 17.75 -9.953125 L 27.625 -9.953125 C 31.289062 -9.953125 34.207031 -10.429688 36.375 -11.390625 C 38.539062 -12.347656 40.1875 -14.222656 41.3125 -17.015625 C 42.4375 -19.804688 43 -23.914062 43 -29.34375 Z M 43 -29.34375 "/></g></g></g><g fill="#000000" fill-opacity="1"><g transform="translate(59.317495, 65.359786)"><g><path d="M 22.1875 -43.5625 C 28.988281 -43.5625 34.0625 -41.351562 37.40625 -36.9375 C 40.75 -32.53125 42.421875 -26.242188 42.421875 -18.078125 L 14.140625 -18.078125 C 14.242188 -15.234375 15.078125 -12.78125 16.640625 -10.71875 C 18.203125 -8.664062 20.460938 -7.640625 23.421875 -7.640625 C 25.285156 -7.640625 26.804688 -8.117188 27.984375 -9.078125 C 29.160156 -10.035156 30.023438 -11.53125 30.578125 -13.5625 L 41.84375 -11.671875 C 40.414062 -7.503906 38.113281 -4.351562 34.9375 -2.21875 C 31.757812 -0.0820312 27.867188 0.984375 23.265625 0.984375 C 16.410156 0.984375 11.234375 -1.066406 7.734375 -5.171875 C 6.085938 -7.097656 4.820312 -9.507812 3.9375 -12.40625 C 3.0625 -15.3125 2.625 -18.191406 2.625 -21.046875 C 2.625 -24.929688 3.320312 -28.585938 4.71875 -32.015625 C 6.125 -35.441406 8.289062 -38.222656 11.21875 -40.359375 C 14.15625 -42.492188 17.8125 -43.5625 22.1875 -43.5625 Z M 14.390625 -24.984375 L 31.234375 -24.984375 C 31.179688 -28.441406 30.316406 -30.960938 28.640625 -32.546875 C 26.972656 -34.140625 25.015625 -34.9375 22.765625 -34.9375 C 20.140625 -34.9375 18.085938 -33.988281 16.609375 -32.09375 C 15.128906 -30.207031 14.390625 -27.835938 14.390625 -24.984375 Z M 14.390625 -24.984375 "/></g></g></g><g fill="#000000" fill-opacity="1"><g transform="translate(104.99687, 65.359786)"><g><path d="M 21.453125 -43.5625 C 26.765625 -43.5625 30.941406 -42.6875 33.984375 -40.9375 C 37.023438 -39.1875 39.125 -36.3125 40.28125 -32.3125 L 29.59375 -30.328125 C 29.101562 -32.085938 28.210938 -33.390625 26.921875 -34.234375 C 25.628906 -35.085938 23.832031 -35.515625 21.53125 -35.515625 C 16.4375 -35.515625 13.890625 -34.335938 13.890625 -31.984375 C 13.890625 -30.828125 14.722656 -29.90625 16.390625 -29.21875 C 18.066406 -28.539062 20.492188 -27.84375 23.671875 -27.125 C 27.566406 -26.25 30.742188 -25.359375 33.203125 -24.453125 C 35.671875 -23.546875 37.695312 -22.203125 39.28125 -20.421875 C 40.875 -18.640625 41.671875 -16.269531 41.671875 -13.3125 C 41.671875 -10.90625 41 -8.617188 39.65625 -6.453125 C 38.320312 -4.285156 36.203125 -2.503906 33.296875 -1.109375 C 30.390625 0.285156 26.71875 0.984375 22.28125 0.984375 C 17.289062 0.984375 12.890625 -0.0820312 9.078125 -2.21875 C 5.273438 -4.351562 2.878906 -7.671875 1.890625 -12.171875 L 13.15625 -13.890625 C 14.195312 -9.335938 17.238281 -7.0625 22.28125 -7.0625 C 24.25 -7.0625 26.097656 -7.40625 27.828125 -8.09375 C 29.554688 -8.78125 30.421875 -10 30.421875 -11.75 C 30.421875 -12.90625 30.019531 -13.710938 29.21875 -14.171875 C 28.425781 -14.640625 27.15625 -15.066406 25.40625 -15.453125 C 20.195312 -16.609375 16.140625 -17.675781 13.234375 -18.65625 C 10.328125 -19.644531 7.96875 -21.070312 6.15625 -22.9375 C 4.351562 -24.800781 3.453125 -27.320312 3.453125 -30.5 C 3.453125 -34.9375 5.148438 -38.222656 8.546875 -40.359375 C 11.941406 -42.492188 16.242188 -43.5625 21.453125 -43.5625 Z M 21.453125 -43.5625 "/></g></g></g><g fill="#000000" fill-opacity="1"><g transform="translate(150.676245, 65.359786)"><g><path d="M 8.546875 -37.15625 C 12.222656 -41.425781 17.429688 -43.5625 24.171875 -43.5625 C 34.304688 -43.5625 40.632812 -39.039062 43.15625 -30 L 32.0625 -28.03125 C 31.125 -32.519531 28.546875 -34.765625 24.328125 -34.765625 C 21.484375 -34.765625 19.222656 -33.78125 17.546875 -31.8125 C 15.878906 -29.84375 15.046875 -26.632812 15.046875 -22.1875 C 15.046875 -17.863281 15.753906 -14.453125 17.171875 -11.953125 C 18.597656 -9.460938 21.039062 -8.21875 24.5 -8.21875 C 26.738281 -8.21875 28.53125 -8.890625 29.875 -10.234375 C 31.21875 -11.578125 32.140625 -13.617188 32.640625 -16.359375 L 43.734375 -14.46875 C 41.429688 -4.164062 34.828125 0.984375 23.921875 0.984375 C 17.453125 0.984375 12.460938 -0.988281 8.953125 -4.9375 C 7.148438 -6.957031 5.78125 -9.421875 4.84375 -12.328125 C 3.914062 -15.234375 3.453125 -18.222656 3.453125 -21.296875 C 3.453125 -24.472656 3.890625 -27.429688 4.765625 -30.171875 C 5.640625 -32.910156 6.898438 -35.238281 8.546875 -37.15625 Z M 8.546875 -37.15625 "/></g></g></g><g fill="#000000" fill-opacity="1"><g transform="translate(196.35562, 65.359786)"><g><path d="M 25.640625 -43.5625 C 26.847656 -43.5625 28.125 -43.367188 29.46875 -42.984375 C 30.8125 -42.609375 32.003906 -42.117188 33.046875 -41.515625 L 29.515625 -31.640625 C 27.597656 -32.847656 25.84375 -33.453125 24.25 -33.453125 C 22.113281 -33.453125 20.492188 -32.722656 19.390625 -31.265625 C 18.296875 -29.816406 17.570312 -27.789062 17.21875 -25.1875 C 16.863281 -22.59375 16.6875 -19.128906 16.6875 -14.796875 L 16.6875 0 L 5.421875 0 L 5.421875 -42.578125 L 15.859375 -42.578125 L 15.859375 -36.578125 L 16.03125 -36.578125 C 17.394531 -38.878906 18.757812 -40.617188 20.125 -41.796875 C 21.5 -42.972656 23.335938 -43.5625 25.640625 -43.5625 Z M 25.640625 -43.5625 "/></g></g></g><g fill="#000000" fill-opacity="1"><g transform="translate(228.314781, 65.359786)"><g><path d="M 17.1875 -48.421875 L 5.921875 -48.421875 L 5.921875 -58.859375 L 17.1875 -58.859375 Z M 17.1875 0 L 5.921875 0 L 5.921875 -42.578125 L 17.1875 -42.578125 Z M 17.1875 0 "/></g></g></g><g fill="#000000" fill-opacity="1"><g transform="translate(251.1545, 65.359786)"><g><path d="M 29.34375 -43.5625 C 32.46875 -43.5625 35.382812 -42.710938 38.09375 -41.015625 C 40.8125 -39.316406 43.003906 -36.769531 44.671875 -33.375 C 46.347656 -29.976562 47.1875 -25.8125 47.1875 -20.875 C 47.1875 -16.113281 46.375 -12.085938 44.75 -8.796875 C 43.132812 -5.503906 40.972656 -3.050781 38.265625 -1.4375 C 35.554688 0.175781 32.554688 0.984375 29.265625 0.984375 C 24.441406 0.984375 20.304688 -0.988281 16.859375 -4.9375 L 16.859375 16.1875 L 5.59375 16.1875 L 5.59375 -42.578125 L 16.109375 -42.578125 L 16.109375 -36.328125 L 16.28125 -36.328125 C 17.59375 -38.304688 19.410156 -40.003906 21.734375 -41.421875 C 24.066406 -42.847656 26.601562 -43.5625 29.34375 -43.5625 Z M 17.671875 -27.625 C 17.066406 -25.863281 16.765625 -23.453125 16.765625 -20.390625 C 16.765625 -16.171875 17.65625 -12.988281 19.4375 -10.84375 C 21.21875 -8.707031 23.476562 -7.640625 26.21875 -7.640625 C 29.5625 -7.640625 31.957031 -8.953125 33.40625 -11.578125 C 34.863281 -14.210938 35.59375 -17.476562 35.59375 -21.375 C 35.59375 -25.925781 34.726562 -29.269531 33 -31.40625 C 31.28125 -33.539062 29.128906 -34.609375 26.546875 -34.609375 C 24.628906 -34.609375 22.863281 -34.003906 21.25 -32.796875 C 19.632812 -31.585938 18.441406 -29.863281 17.671875 -27.625 Z M 17.671875 -27.625 "/></g></g></g><g fill="#000000" fill-opacity="1"><g transform="translate(301.352547, 65.359786)"><g><path d="M 17.75 -42.578125 L 25.40625 -42.578125 L 25.40625 -33.625 L 17.75 -33.625 L 17.75 -14.875 C 17.75 -13.070312 17.816406 -11.726562 17.953125 -10.84375 C 18.097656 -9.96875 18.390625 -9.335938 18.828125 -8.953125 C 19.265625 -8.578125 19.945312 -8.390625 20.875 -8.390625 C 22.03125 -8.390625 23.539062 -8.742188 25.40625 -9.453125 L 26.390625 -0.734375 C 25.234375 -0.191406 23.832031 0.226562 22.1875 0.53125 C 20.550781 0.832031 18.992188 0.984375 17.515625 0.984375 C 15.367188 0.984375 13.472656 0.628906 11.828125 -0.078125 C 10.191406 -0.796875 8.988281 -1.753906 8.21875 -2.953125 C 7.394531 -4.328125 6.882812 -5.847656 6.6875 -7.515625 C 6.5 -9.191406 6.40625 -11.289062 6.40625 -13.8125 L 6.40625 -33.625 L 1.234375 -33.625 L 1.234375 -42.578125 L 6.40625 -42.578125 L 6.40625 -51.046875 L 17.75 -57.703125 Z M 17.75 -42.578125 "/></g></g></g><g fill="#000000" fill-opacity="1"><g transform="translate(328.710875, 65.359786)"><g><path d="M 17.1875 -48.421875 L 5.921875 -48.421875 L 5.921875 -58.859375 L 17.1875 -58.859375 Z M 17.1875 0 L 5.921875 0 L 5.921875 -42.578125 L 17.1875 -42.578125 Z M 17.1875 0 "/></g></g></g><g fill="#000000" fill-opacity="1"><g transform="translate(351.550594, 65.359786)"><g><path d="M 25.234375 -43.5625 C 29.835938 -43.5625 33.8125 -42.519531 37.15625 -40.4375 C 40.5 -38.351562 43.019531 -35.613281 44.71875 -32.21875 C 46.414062 -28.820312 47.265625 -25.234375 47.265625 -21.453125 C 47.265625 -17.503906 46.375 -13.816406 44.59375 -10.390625 C 42.8125 -6.972656 40.265625 -4.222656 36.953125 -2.140625 C 33.640625 -0.0546875 29.757812 0.984375 25.3125 0.984375 C 21.53125 0.984375 17.96875 0.203125 14.625 -1.359375 C 11.289062 -2.921875 8.566406 -5.410156 6.453125 -8.828125 C 4.335938 -12.253906 3.28125 -16.597656 3.28125 -21.859375 C 3.28125 -25.535156 4.113281 -29.03125 5.78125 -32.34375 C 7.457031 -35.65625 9.953125 -38.351562 13.265625 -40.4375 C 16.585938 -42.519531 20.578125 -43.5625 25.234375 -43.5625 Z M 14.875 -21.296875 C 14.875 -17.015625 15.875 -13.765625 17.875 -11.546875 C 19.875 -9.328125 22.328125 -8.21875 25.234375 -8.21875 C 28.140625 -8.21875 30.601562 -9.3125 32.625 -11.5 C 34.65625 -13.695312 35.671875 -16.988281 35.671875 -21.375 C 35.671875 -25.425781 34.695312 -28.601562 32.75 -30.90625 C 30.8125 -33.207031 28.28125 -34.359375 25.15625 -34.359375 C 22.300781 -34.359375 19.875 -33.234375 17.875 -30.984375 C 15.875 -28.742188 14.875 -25.515625 14.875 -21.296875 Z M 14.875 -21.296875 "/></g></g></g><g fill="#000000" fill-opacity="1"><g transform="translate(401.748641, 65.359786)"><g><path d="M 30.421875 -43.5625 C 32.941406 -43.5625 35.128906 -43.132812 36.984375 -42.28125 C 38.847656 -41.4375 40.332031 -40.441406 41.4375 -39.296875 C 42.75 -37.867188 43.609375 -36.179688 44.015625 -34.234375 C 44.429688 -32.285156 44.640625 -30.132812 44.640625 -27.78125 L 44.640625 0 L 33.375 0 L 33.375 -23.265625 C 33.375 -27.210938 32.9375 -30.144531 32.0625 -32.0625 C 31.1875 -33.976562 29.320312 -34.9375 26.46875 -34.9375 C 23.78125 -34.9375 21.695312 -34.164062 20.21875 -32.625 C 18.738281 -31.09375 17.863281 -29.316406 17.59375 -27.296875 C 17.425781 -25.972656 17.300781 -24.789062 17.21875 -23.75 C 17.132812 -22.707031 17.09375 -21.53125 17.09375 -20.21875 L 17.09375 0 L 5.84375 0 L 5.84375 -42.578125 L 16.515625 -42.578125 L 16.515625 -36.328125 C 17.722656 -38.140625 19.519531 -39.796875 21.90625 -41.296875 C 24.289062 -42.804688 27.128906 -43.5625 30.421875 -43.5625 Z M 30.421875 -43.5625 "/></g></g></g></svg>