<svg xmlns="http://www.w3.org/2000/svg" xmlns:xlink="http://www.w3.org/1999/xlink" width="1620" zoomAndPan="magnify" viewBox="0 0 1215 809.999993" height="1080" preserveAspectRatio="xMidYMid meet" version="1.0"><defs><g/></defs><g fill="#000000" fill-opacity="1"><g transform="translate(0.00000525, 69.713092)"><g><path d="M 51.015625 -51.546875 L 32.65625 -51.546875 L 32.65625 0 L 20.1875 0 L 20.1875 -51.546875 L 1.8125 -51.546875 L 1.8125 -62.03125 L 51.015625 -62.03125 Z M 51.015625 -51.546875 "/></g></g></g><g fill="#000000" fill-opacity="1"><g transform="translate(52.911531, 69.713092)"><g><path d="M 18.015625 -39.15625 C 20.035156 -41.519531 22.15625 -43.234375 24.375 -44.296875 C 26.601562 -45.367188 29.019531 -45.90625 31.625 -45.90625 C 34.101562 -45.90625 36.304688 -45.53125 38.234375 -44.78125 C 40.171875 -44.03125 41.773438 -43.050781 43.046875 -41.84375 C 45.648438 -39.300781 46.953125 -34.625 46.953125 -27.8125 L 46.953125 0 L 35.078125 0 L 35.078125 -25.296875 C 35.078125 -28.003906 34.90625 -30.164062 34.5625 -31.78125 C 34.21875 -33.40625 33.523438 -34.648438 32.484375 -35.515625 C 31.441406 -36.378906 29.851562 -36.8125 27.71875 -36.8125 C 23.96875 -36.8125 21.410156 -35.597656 20.046875 -33.171875 C 18.691406 -30.753906 18.015625 -27.519531 18.015625 -23.46875 L 18.015625 0 L 6.15625 0 L 6.15625 -62.03125 L 18.015625 -62.03125 Z M 18.015625 -39.15625 "/></g></g></g><g fill="#000000" fill-opacity="1"><g transform="translate(105.823056, 69.713092)"><g><path d="M 23.390625 -45.90625 C 30.546875 -45.90625 35.882812 -43.582031 39.40625 -38.9375 C 42.9375 -34.289062 44.703125 -27.664062 44.703125 -19.0625 L 14.90625 -19.0625 C 15.019531 -16.050781 15.898438 -13.460938 17.546875 -11.296875 C 19.191406 -9.140625 21.570312 -8.0625 24.6875 -8.0625 C 26.65625 -8.0625 28.257812 -8.566406 29.5 -9.578125 C 30.738281 -10.585938 31.644531 -12.160156 32.21875 -14.296875 L 44.09375 -12.296875 C 42.59375 -7.910156 40.164062 -4.585938 36.8125 -2.328125 C 33.46875 -0.078125 29.367188 1.046875 24.515625 1.046875 C 17.296875 1.046875 11.835938 -1.117188 8.140625 -5.453125 C 6.410156 -7.472656 5.082031 -10.015625 4.15625 -13.078125 C 3.226562 -16.140625 2.765625 -19.171875 2.765625 -22.171875 C 2.765625 -26.273438 3.5 -30.128906 4.96875 -33.734375 C 6.445312 -37.347656 8.726562 -40.28125 11.8125 -42.53125 C 14.90625 -44.78125 18.765625 -45.90625 23.390625 -45.90625 Z M 15.15625 -26.328125 L 32.921875 -26.328125 C 32.859375 -29.972656 31.945312 -32.628906 30.1875 -34.296875 C 28.425781 -35.972656 26.363281 -36.8125 24 -36.8125 C 21.226562 -36.8125 19.0625 -35.816406 17.5 -33.828125 C 15.9375 -31.835938 15.15625 -29.335938 15.15625 -26.328125 Z M 15.15625 -26.328125 "/></g></g></g><g fill="#000000" fill-opacity="1"><g transform="translate(153.97165, 69.713092)"><g/></g></g><g fill="#000000" fill-opacity="1"><g transform="translate(178.045947, 69.713092)"><g><path d="M 18.359375 0 L 5.890625 0 L 5.890625 -62.03125 L 18.359375 -62.03125 Z M 18.359375 0 "/></g></g></g><g fill="#000000" fill-opacity="1"><g transform="translate(202.120244, 69.713092)"><g><path d="M 18.109375 0 L 6.234375 0 L 6.234375 -62.03125 L 18.109375 -62.03125 Z M 18.109375 0 "/></g></g></g><g fill="#000000" fill-opacity="1"><g transform="translate(226.194541, 69.713092)"><g><path d="M 18.109375 0 L 6.234375 0 L 6.234375 -62.03125 L 18.109375 -62.03125 Z M 18.109375 0 "/></g></g></g><g fill="#000000" fill-opacity="1"><g transform="translate(250.268838, 69.713092)"><g><path d="M 17.84375 -21.828125 C 17.84375 -18.648438 17.914062 -16.335938 18.0625 -14.890625 C 18.207031 -13.453125 18.507812 -12.300781 18.96875 -11.4375 C 19.488281 -10.457031 20.28125 -9.648438 21.34375 -9.015625 C 22.414062 -8.378906 23.734375 -8.0625 25.296875 -8.0625 C 27.367188 -8.0625 29.242188 -8.632812 30.921875 -9.78125 C 32.597656 -10.9375 33.664062 -12.351562 34.125 -14.03125 C 34.644531 -15.707031 34.90625 -19.289062 34.90625 -24.78125 L 34.90625 -44.875 L 46.78125 -44.875 L 46.78125 0 L 35.78125 0 L 35.78125 -6.75 L 35.609375 -6.75 C 33.929688 -4.207031 31.765625 -2.269531 29.109375 -0.9375 C 26.453125 0.382812 23.707031 1.046875 20.875 1.046875 C 18.332031 1.046875 15.921875 0.523438 13.640625 -0.515625 C 11.359375 -1.554688 9.613281 -3.0625 8.40625 -5.03125 C 7.539062 -6.414062 6.921875 -7.941406 6.546875 -9.609375 C 6.171875 -11.285156 5.984375 -13.394531 5.984375 -15.9375 L 5.984375 -44.875 L 17.84375 -44.875 Z M 17.84375 -21.828125 "/></g></g></g><g fill="#000000" fill-opacity="1"><g transform="translate(303.180363, 69.713092)"><g><path d="M 30.3125 -45.90625 C 36.144531 -45.90625 40.390625 -43.539062 43.046875 -38.8125 C 46.921875 -43.539062 51.484375 -45.90625 56.734375 -45.90625 C 61.703125 -45.90625 65.398438 -44.546875 67.828125 -41.828125 C 70.253906 -39.117188 71.46875 -35.050781 71.46875 -29.625 L 71.46875 0 L 59.59375 0 L 59.59375 -26.859375 C 59.59375 -30.085938 59.175781 -32.550781 58.34375 -34.25 C 57.507812 -35.957031 55.820312 -36.8125 53.28125 -36.8125 C 50.851562 -36.8125 48.898438 -35.972656 47.421875 -34.296875 C 45.953125 -32.628906 45.046875 -30.46875 44.703125 -27.8125 C 44.472656 -25.726562 44.359375 -23.878906 44.359375 -22.265625 L 44.359375 0 L 32.484375 0 L 32.484375 -26.421875 C 32.484375 -30.054688 32.09375 -32.695312 31.3125 -34.34375 C 30.53125 -35.988281 28.867188 -36.8125 26.328125 -36.8125 C 24.484375 -36.8125 22.820312 -36.320312 21.34375 -35.34375 C 19.875 -34.363281 18.851562 -33.003906 18.28125 -31.265625 C 17.582031 -29.191406 17.234375 -26.273438 17.234375 -22.515625 L 17.234375 0 L 5.375 0 L 5.375 -44.875 L 16.375 -44.875 L 16.546875 -38.8125 C 18.390625 -41.0625 20.335938 -42.804688 22.390625 -44.046875 C 24.441406 -45.285156 27.082031 -45.90625 30.3125 -45.90625 Z M 30.3125 -45.90625 "/></g></g></g><g fill="#000000" fill-opacity="1"><g transform="translate(380.166184, 69.713092)"><g><path d="M 18.109375 -51.015625 L 6.234375 -51.015625 L 6.234375 -62.03125 L 18.109375 -62.03125 Z M 18.109375 0 L 6.234375 0 L 6.234375 -44.875 L 18.109375 -44.875 Z M 18.109375 0 "/></g></g></g><g fill="#000000" fill-opacity="1"><g transform="translate(404.240481, 69.713092)"><g><path d="M 32.046875 -45.90625 C 34.703125 -45.90625 37.007812 -45.457031 38.96875 -44.5625 C 40.9375 -43.664062 42.5 -42.613281 43.65625 -41.40625 C 45.039062 -39.90625 45.945312 -38.128906 46.375 -36.078125 C 46.8125 -34.023438 47.03125 -31.757812 47.03125 -29.28125 L 47.03125 0 L 35.171875 0 L 35.171875 -24.515625 C 35.171875 -28.671875 34.707031 -31.757812 33.78125 -33.78125 C 32.851562 -35.800781 30.890625 -36.8125 27.890625 -36.8125 C 25.066406 -36.8125 22.875 -36.003906 21.3125 -34.390625 C 19.75 -32.773438 18.820312 -30.898438 18.53125 -28.765625 C 18.363281 -27.378906 18.234375 -26.132812 18.140625 -25.03125 C 18.054688 -23.9375 18.015625 -22.695312 18.015625 -21.3125 L 18.015625 0 L 6.15625 0 L 6.15625 -44.875 L 17.40625 -44.875 L 17.40625 -38.28125 C 18.675781 -40.1875 20.566406 -41.929688 23.078125 -43.515625 C 25.597656 -45.109375 28.585938 -45.90625 32.046875 -45.90625 Z M 32.046875 -45.90625 "/></g></g></g><g fill="#000000" fill-opacity="1"><g transform="translate(457.152006, 69.713092)"><g><path d="M 23.734375 -45.90625 C 29.453125 -45.90625 33.695312 -45.171875 36.46875 -43.703125 C 39.238281 -42.234375 40.984375 -40.296875 41.703125 -37.890625 C 42.429688 -35.492188 42.765625 -32.332031 42.703125 -28.40625 L 42.625 -15.328125 C 42.5625 -11.234375 42.703125 -8.257812 43.046875 -6.40625 C 43.398438 -4.5625 44.125 -2.425781 45.21875 0 L 33.53125 0 C 33.238281 -0.632812 32.71875 -2.28125 31.96875 -4.9375 C 29.832031 -2.851562 27.625 -1.332031 25.34375 -0.375 C 23.0625 0.570312 20.617188 1.046875 18.015625 1.046875 C 13.566406 1.046875 9.972656 -0.179688 7.234375 -2.640625 C 4.492188 -5.097656 3.125 -8.289062 3.125 -12.21875 C 3.125 -15.507812 3.945312 -18.117188 5.59375 -20.046875 C 7.238281 -21.984375 9.242188 -23.382812 11.609375 -24.25 C 13.972656 -25.113281 16.773438 -25.863281 20.015625 -26.5 C 24.972656 -27.425781 28.640625 -28.351562 31.015625 -29.28125 L 31.015625 -31.1875 C 31.015625 -33.144531 30.4375 -34.570312 29.28125 -35.46875 C 28.125 -36.363281 26.015625 -36.8125 22.953125 -36.8125 C 20.585938 -36.8125 18.828125 -36.332031 17.671875 -35.375 C 16.515625 -34.425781 15.648438 -33.03125 15.078125 -31.1875 L 4.328125 -33.171875 C 5.484375 -37.566406 7.5625 -40.785156 10.5625 -42.828125 C 13.570312 -44.878906 17.960938 -45.90625 23.734375 -45.90625 Z M 23.5625 -19.65625 L 21.5625 -19.234375 C 17.175781 -18.304688 14.984375 -16.398438 14.984375 -13.515625 C 14.984375 -11.785156 15.601562 -10.328125 16.84375 -9.140625 C 18.09375 -7.953125 19.664062 -7.359375 21.5625 -7.359375 C 23.125 -7.359375 24.6875 -7.757812 26.25 -8.5625 C 27.8125 -9.375 29.023438 -10.445312 29.890625 -11.78125 C 30.640625 -12.988281 31.015625 -15.066406 31.015625 -18.015625 L 31.015625 -21.5625 C 28.765625 -20.875 26.28125 -20.238281 23.5625 -19.65625 Z M 23.5625 -19.65625 "/></g></g></g><g fill="#000000" fill-opacity="1"><g transform="translate(505.3006, 69.713092)"><g><path d="M 18.71875 -44.875 L 26.765625 -44.875 L 26.765625 -35.421875 L 18.71875 -35.421875 L 18.71875 -15.671875 C 18.71875 -13.773438 18.785156 -12.363281 18.921875 -11.4375 C 19.066406 -10.507812 19.367188 -9.84375 19.828125 -9.4375 C 20.296875 -9.03125 21.019531 -8.828125 22 -8.828125 C 23.21875 -8.828125 24.804688 -9.207031 26.765625 -9.96875 L 27.8125 -0.78125 C 26.59375 -0.195312 25.117188 0.25 23.390625 0.5625 C 21.660156 0.882812 20.015625 1.046875 18.453125 1.046875 C 16.203125 1.046875 14.207031 0.671875 12.46875 -0.078125 C 10.738281 -0.835938 9.46875 -1.851562 8.65625 -3.125 C 7.789062 -4.5625 7.253906 -6.160156 7.046875 -7.921875 C 6.847656 -9.679688 6.75 -11.890625 6.75 -14.546875 L 6.75 -35.421875 L 1.296875 -35.421875 L 1.296875 -44.875 L 6.75 -44.875 L 6.75 -53.796875 L 18.71875 -60.8125 Z M 18.71875 -44.875 "/></g></g></g><g fill="#000000" fill-opacity="1"><g transform="translate(534.137829, 69.713092)"><g><path d="M 18.109375 -51.015625 L 6.234375 -51.015625 L 6.234375 -62.03125 L 18.109375 -62.03125 Z M 18.109375 0 L 6.234375 0 L 6.234375 -44.875 L 18.109375 -44.875 Z M 18.109375 0 "/></g></g></g><g fill="#000000" fill-opacity="1"><g transform="translate(558.212126, 69.713092)"><g/></g></g><g fill="#000000" fill-opacity="1"><g transform="translate(582.286423, 69.713092)"><g><path d="M 26.59375 -45.90625 C 31.445312 -45.90625 35.632812 -44.804688 39.15625 -42.609375 C 42.675781 -40.421875 45.332031 -37.535156 47.125 -33.953125 C 48.914062 -30.378906 49.8125 -26.597656 49.8125 -22.609375 C 49.8125 -18.453125 48.867188 -14.566406 46.984375 -10.953125 C 45.109375 -7.347656 42.425781 -4.445312 38.9375 -2.25 C 35.445312 -0.0507812 31.363281 1.046875 26.6875 1.046875 C 22.695312 1.046875 18.941406 0.222656 15.421875 -1.421875 C 11.898438 -3.066406 9.023438 -5.691406 6.796875 -9.296875 C 4.578125 -12.910156 3.46875 -17.492188 3.46875 -23.046875 C 3.46875 -26.910156 4.347656 -30.585938 6.109375 -34.078125 C 7.867188 -37.578125 10.492188 -40.421875 13.984375 -42.609375 C 17.484375 -44.804688 21.6875 -45.90625 26.59375 -45.90625 Z M 15.671875 -22.4375 C 15.671875 -17.925781 16.722656 -14.5 18.828125 -12.15625 C 20.941406 -9.820312 23.53125 -8.65625 26.59375 -8.65625 C 29.65625 -8.65625 32.253906 -9.8125 34.390625 -12.125 C 36.523438 -14.4375 37.59375 -17.898438 37.59375 -22.515625 C 37.59375 -26.796875 36.566406 -30.144531 34.515625 -32.5625 C 32.460938 -34.988281 29.789062 -36.203125 26.5 -36.203125 C 23.5 -36.203125 20.941406 -35.019531 18.828125 -32.65625 C 16.722656 -30.289062 15.671875 -26.882812 15.671875 -22.4375 Z M 15.671875 -22.4375 "/></g></g></g><g fill="#000000" fill-opacity="1"><g transform="translate(635.197948, 69.713092)"><g><path d="M 10.140625 -58.8125 C 11.296875 -60.257812 12.796875 -61.328125 14.640625 -62.015625 C 16.484375 -62.710938 18.765625 -63.0625 21.484375 -63.0625 C 24.828125 -63.0625 28.117188 -62.570312 31.359375 -61.59375 L 29.796875 -53.28125 C 27.773438 -53.738281 25.957031 -53.96875 24.34375 -53.96875 C 22.488281 -53.96875 21.210938 -53.519531 20.515625 -52.625 C 19.828125 -51.726562 19.484375 -50.414062 19.484375 -48.6875 L 19.484375 -44.875 L 28.40625 -44.875 L 28.40625 -35.421875 L 19.484375 -35.421875 L 19.484375 0 L 7.625 0 L 7.625 -35.421875 L 1.046875 -35.421875 L 1.046875 -44.875 L 7.625 -44.875 L 7.625 -49.296875 C 7.625 -53.566406 8.460938 -56.738281 10.140625 -58.8125 Z M 10.140625 -58.8125 "/></g></g></g><g fill="#000000" fill-opacity="1"><g transform="translate(664.035176, 69.713092)"><g/></g></g><g fill="#000000" fill-opacity="1"><g transform="translate(688.109473, 69.713092)"><g><path d="M 52.328125 -51.546875 L 18.796875 -51.546875 L 18.796875 -37.765625 L 49.984375 -37.765625 L 49.984375 -27.28125 L 18.796875 -27.28125 L 18.796875 -10.484375 L 53.453125 -10.484375 L 53.453125 0 L 6.328125 0 L 6.328125 -62.03125 L 52.328125 -62.03125 Z M 52.328125 -51.546875 "/></g></g></g><g fill="#000000" fill-opacity="1"><g transform="translate(745.870477, 69.713092)"><g><path d="M 23.734375 -45.90625 C 29.453125 -45.90625 33.695312 -45.171875 36.46875 -43.703125 C 39.238281 -42.234375 40.984375 -40.296875 41.703125 -37.890625 C 42.429688 -35.492188 42.765625 -32.332031 42.703125 -28.40625 L 42.625 -15.328125 C 42.5625 -11.234375 42.703125 -8.257812 43.046875 -6.40625 C 43.398438 -4.5625 44.125 -2.425781 45.21875 0 L 33.53125 0 C 33.238281 -0.632812 32.71875 -2.28125 31.96875 -4.9375 C 29.832031 -2.851562 27.625 -1.332031 25.34375 -0.375 C 23.0625 0.570312 20.617188 1.046875 18.015625 1.046875 C 13.566406 1.046875 9.972656 -0.179688 7.234375 -2.640625 C 4.492188 -5.097656 3.125 -8.289062 3.125 -12.21875 C 3.125 -15.507812 3.945312 -18.117188 5.59375 -20.046875 C 7.238281 -21.984375 9.242188 -23.382812 11.609375 -24.25 C 13.972656 -25.113281 16.773438 -25.863281 20.015625 -26.5 C 24.972656 -27.425781 28.640625 -28.351562 31.015625 -29.28125 L 31.015625 -31.1875 C 31.015625 -33.144531 30.4375 -34.570312 29.28125 -35.46875 C 28.125 -36.363281 26.015625 -36.8125 22.953125 -36.8125 C 20.585938 -36.8125 18.828125 -36.332031 17.671875 -35.375 C 16.515625 -34.425781 15.648438 -33.03125 15.078125 -31.1875 L 4.328125 -33.171875 C 5.484375 -37.566406 7.5625 -40.785156 10.5625 -42.828125 C 13.570312 -44.878906 17.960938 -45.90625 23.734375 -45.90625 Z M 23.5625 -19.65625 L 21.5625 -19.234375 C 17.175781 -18.304688 14.984375 -16.398438 14.984375 -13.515625 C 14.984375 -11.785156 15.601562 -10.328125 16.84375 -9.140625 C 18.09375 -7.953125 19.664062 -7.359375 21.5625 -7.359375 C 23.125 -7.359375 24.6875 -7.757812 26.25 -8.5625 C 27.8125 -9.375 29.023438 -10.445312 29.890625 -11.78125 C 30.640625 -12.988281 31.015625 -15.066406 31.015625 -18.015625 L 31.015625 -21.5625 C 28.765625 -20.875 26.28125 -20.238281 23.5625 -19.65625 Z M 23.5625 -19.65625 "/></g></g></g><g fill="#000000" fill-opacity="1"><g transform="translate(794.019071, 69.713092)"><g><path d="M 27.03125 -45.90625 C 28.300781 -45.90625 29.640625 -45.703125 31.046875 -45.296875 C 32.460938 -44.898438 33.722656 -44.382812 34.828125 -43.75 L 31.09375 -33.34375 C 29.070312 -34.613281 27.222656 -35.25 25.546875 -35.25 C 23.296875 -35.25 21.59375 -34.484375 20.4375 -32.953125 C 19.289062 -31.429688 18.523438 -29.296875 18.140625 -26.546875 C 17.765625 -23.804688 17.578125 -20.15625 17.578125 -15.59375 L 17.578125 0 L 5.71875 0 L 5.71875 -44.875 L 16.71875 -44.875 L 16.71875 -38.546875 L 16.890625 -38.546875 C 18.335938 -40.972656 19.78125 -42.804688 21.21875 -44.046875 C 22.664062 -45.285156 24.601562 -45.90625 27.03125 -45.90625 Z M 27.03125 -45.90625 "/></g></g></g><g fill="#000000" fill-opacity="1"><g transform="translate(827.705778, 69.713092)"><g><path d="M 18.71875 -44.875 L 26.765625 -44.875 L 26.765625 -35.421875 L 18.71875 -35.421875 L 18.71875 -15.671875 C 18.71875 -13.773438 18.785156 -12.363281 18.921875 -11.4375 C 19.066406 -10.507812 19.367188 -9.84375 19.828125 -9.4375 C 20.296875 -9.03125 21.019531 -8.828125 22 -8.828125 C 23.21875 -8.828125 24.804688 -9.207031 26.765625 -9.96875 L 27.8125 -0.78125 C 26.59375 -0.195312 25.117188 0.25 23.390625 0.5625 C 21.660156 0.882812 20.015625 1.046875 18.453125 1.046875 C 16.203125 1.046875 14.207031 0.671875 12.46875 -0.078125 C 10.738281 -0.835938 9.46875 -1.851562 8.65625 -3.125 C 7.789062 -4.5625 7.253906 -6.160156 7.046875 -7.921875 C 6.847656 -9.679688 6.75 -11.890625 6.75 -14.546875 L 6.75 -35.421875 L 1.296875 -35.421875 L 1.296875 -44.875 L 6.75 -44.875 L 6.75 -53.796875 L 18.71875 -60.8125 Z M 18.71875 -44.875 "/></g></g></g><g fill="#000000" fill-opacity="1"><g transform="translate(856.543006, 69.713092)"><g><path d="M 18.015625 -39.15625 C 20.035156 -41.519531 22.15625 -43.234375 24.375 -44.296875 C 26.601562 -45.367188 29.019531 -45.90625 31.625 -45.90625 C 34.101562 -45.90625 36.304688 -45.53125 38.234375 -44.78125 C 40.171875 -44.03125 41.773438 -43.050781 43.046875 -41.84375 C 45.648438 -39.300781 46.953125 -34.625 46.953125 -27.8125 L 46.953125 0 L 35.078125 0 L 35.078125 -25.296875 C 35.078125 -28.003906 34.90625 -30.164062 34.5625 -31.78125 C 34.21875 -33.40625 33.523438 -34.648438 32.484375 -35.515625 C 31.441406 -36.378906 29.851562 -36.8125 27.71875 -36.8125 C 23.96875 -36.8125 21.410156 -35.597656 20.046875 -33.171875 C 18.691406 -30.753906 18.015625 -27.519531 18.015625 -23.46875 L 18.015625 0 L 6.15625 0 L 6.15625 -62.03125 L 18.015625 -62.03125 Z M 18.015625 -39.15625 "/></g></g></g><g fill="#000000" fill-opacity="1"><g transform="translate(909.454531, 69.713092)"><g><path d="M 28.15625 -16.546875 L 4.84375 -16.546875 L 4.84375 -28.40625 L 28.15625 -28.40625 Z M 28.15625 -16.546875 "/></g></g></g><g fill="#000000" fill-opacity="1"><g transform="translate(938.291759, 69.713092)"><g><path d="M 23.828125 -62.28125 C 27.984375 -62.28125 31.445312 -61.53125 34.21875 -60.03125 C 36.988281 -58.53125 39.035156 -56.566406 40.359375 -54.140625 C 41.691406 -51.710938 42.359375 -49.082031 42.359375 -46.25 C 42.359375 -42.726562 41.445312 -39.925781 39.625 -37.84375 C 37.8125 -35.769531 35.894531 -34.300781 33.875 -33.4375 C 37.445312 -31.988281 40.097656 -29.9375 41.828125 -27.28125 C 43.566406 -24.625 44.4375 -21.625 44.4375 -18.28125 C 44.4375 -14.351562 43.566406 -10.929688 41.828125 -8.015625 C 40.097656 -5.097656 37.71875 -2.859375 34.6875 -1.296875 C 31.65625 0.265625 28.207031 1.046875 24.34375 1.046875 C 20.644531 1.046875 17.207031 0.335938 14.03125 -1.078125 C 10.851562 -2.492188 8.3125 -4.613281 6.40625 -7.4375 C 4.5 -10.269531 3.546875 -13.679688 3.546875 -17.671875 C 3.546875 -21.421875 4.46875 -24.640625 6.3125 -27.328125 C 8.164062 -30.015625 10.710938 -32.050781 13.953125 -33.4375 C 8.171875 -35.976562 5.28125 -40.25 5.28125 -46.25 C 5.28125 -49.082031 5.929688 -51.710938 7.234375 -54.140625 C 8.535156 -56.566406 10.582031 -58.53125 13.375 -60.03125 C 16.175781 -61.53125 19.660156 -62.28125 23.828125 -62.28125 Z M 16.375 -45.390625 C 16.375 -42.847656 17.15625 -40.914062 18.71875 -39.59375 C 20.039062 -38.4375 21.742188 -37.859375 23.828125 -37.859375 C 24.804688 -37.859375 25.769531 -38.015625 26.71875 -38.328125 C 27.675781 -38.648438 28.441406 -39.097656 29.015625 -39.671875 C 30.515625 -41.003906 31.265625 -42.941406 31.265625 -45.484375 C 31.265625 -47.734375 30.585938 -49.503906 29.234375 -50.796875 C 27.878906 -52.097656 26.078125 -52.75 23.828125 -52.75 C 21.453125 -52.75 19.613281 -52.039062 18.3125 -50.625 C 17.019531 -49.21875 16.375 -47.472656 16.375 -45.390625 Z M 15.421875 -18.796875 C 15.421875 -15.441406 16.269531 -12.882812 17.96875 -11.125 C 19.675781 -9.363281 21.710938 -8.484375 24.078125 -8.484375 C 26.273438 -8.484375 28.238281 -9.289062 29.96875 -10.90625 C 31.707031 -12.53125 32.578125 -15.132812 32.578125 -18.71875 C 32.578125 -21.195312 31.851562 -23.414062 30.40625 -25.375 C 28.957031 -27.34375 26.765625 -28.328125 23.828125 -28.328125 C 20.992188 -28.328125 18.882812 -27.316406 17.5 -25.296875 C 16.113281 -23.273438 15.421875 -21.109375 15.421875 -18.796875 Z M 15.421875 -18.796875 "/></g></g></g><g fill="#000000" fill-opacity="1"><g transform="translate(986.440353, 69.713092)"><g><path d="M 23.296875 -62.28125 C 27.054688 -62.28125 30.332031 -61.484375 33.125 -59.890625 C 35.925781 -58.304688 38.050781 -56.285156 39.5 -53.828125 C 40.945312 -51.378906 41.671875 -48.882812 41.671875 -46.34375 C 41.671875 -43.625 40.90625 -41.15625 39.375 -38.9375 C 37.84375 -36.71875 35.660156 -34.828125 32.828125 -33.265625 C 36.410156 -32.515625 39.253906 -30.820312 41.359375 -28.1875 C 43.472656 -25.5625 44.53125 -22.375 44.53125 -18.625 C 44.53125 -14.925781 43.601562 -11.578125 41.75 -8.578125 C 39.90625 -5.578125 37.394531 -3.222656 34.21875 -1.515625 C 31.039062 0.191406 27.546875 1.046875 23.734375 1.046875 C 19.753906 1.046875 16.289062 0.253906 13.34375 -1.328125 C 10.394531 -2.921875 8.082031 -5.046875 6.40625 -7.703125 C 4.726562 -10.359375 3.691406 -13.273438 3.296875 -16.453125 L 14.8125 -17.84375 C 15.039062 -15.414062 15.890625 -13.304688 17.359375 -11.515625 C 18.835938 -9.722656 20.9375 -8.828125 23.65625 -8.828125 C 26.476562 -8.828125 28.625 -9.878906 30.09375 -11.984375 C 31.570312 -14.097656 32.3125 -16.484375 32.3125 -19.140625 C 32.3125 -21.742188 31.585938 -24.007812 30.140625 -25.9375 C 28.703125 -27.875 26.679688 -28.84375 24.078125 -28.84375 C 22.347656 -28.84375 20.53125 -28.554688 18.625 -27.984375 L 19.921875 -37.59375 L 20.1875 -37.59375 C 23.363281 -37.65625 25.757812 -38.40625 27.375 -39.84375 C 28.988281 -41.289062 29.796875 -43.226562 29.796875 -45.65625 C 29.796875 -47.726562 29.175781 -49.367188 27.9375 -50.578125 C 26.695312 -51.796875 25.035156 -52.40625 22.953125 -52.40625 C 20.929688 -52.40625 19.210938 -51.726562 17.796875 -50.375 C 16.378906 -49.019531 15.5 -46.953125 15.15625 -44.171875 L 4.15625 -46.078125 C 5.25 -51.679688 7.457031 -55.78125 10.78125 -58.375 C 14.101562 -60.976562 18.273438 -62.28125 23.296875 -62.28125 Z M 23.296875 -62.28125 "/></g></g></g><g fill="#000000" fill-opacity="1"><g transform="translate(1034.588947, 69.713092)"><g><path d="M 23.828125 -62.28125 C 27.984375 -62.28125 31.445312 -61.53125 34.21875 -60.03125 C 36.988281 -58.53125 39.035156 -56.566406 40.359375 -54.140625 C 41.691406 -51.710938 42.359375 -49.082031 42.359375 -46.25 C 42.359375 -42.726562 41.445312 -39.925781 39.625 -37.84375 C 37.8125 -35.769531 35.894531 -34.300781 33.875 -33.4375 C 37.445312 -31.988281 40.097656 -29.9375 41.828125 -27.28125 C 43.566406 -24.625 44.4375 -21.625 44.4375 -18.28125 C 44.4375 -14.351562 43.566406 -10.929688 41.828125 -8.015625 C 40.097656 -5.097656 37.71875 -2.859375 34.6875 -1.296875 C 31.65625 0.265625 28.207031 1.046875 24.34375 1.046875 C 20.644531 1.046875 17.207031 0.335938 14.03125 -1.078125 C 10.851562 -2.492188 8.3125 -4.613281 6.40625 -7.4375 C 4.5 -10.269531 3.546875 -13.679688 3.546875 -17.671875 C 3.546875 -21.421875 4.46875 -24.640625 6.3125 -27.328125 C 8.164062 -30.015625 10.710938 -32.050781 13.953125 -33.4375 C 8.171875 -35.976562 5.28125 -40.25 5.28125 -46.25 C 5.28125 -49.082031 5.929688 -51.710938 7.234375 -54.140625 C 8.535156 -56.566406 10.582031 -58.53125 13.375 -60.03125 C 16.175781 -61.53125 19.660156 -62.28125 23.828125 -62.28125 Z M 16.375 -45.390625 C 16.375 -42.847656 17.15625 -40.914062 18.71875 -39.59375 C 20.039062 -38.4375 21.742188 -37.859375 23.828125 -37.859375 C 24.804688 -37.859375 25.769531 -38.015625 26.71875 -38.328125 C 27.675781 -38.648438 28.441406 -39.097656 29.015625 -39.671875 C 30.515625 -41.003906 31.265625 -42.941406 31.265625 -45.484375 C 31.265625 -47.734375 30.585938 -49.503906 29.234375 -50.796875 C 27.878906 -52.097656 26.078125 -52.75 23.828125 -52.75 C 21.453125 -52.75 19.613281 -52.039062 18.3125 -50.625 C 17.019531 -49.21875 16.375 -47.472656 16.375 -45.390625 Z M 15.421875 -18.796875 C 15.421875 -15.441406 16.269531 -12.882812 17.96875 -11.125 C 19.675781 -9.363281 21.710938 -8.484375 24.078125 -8.484375 C 26.273438 -8.484375 28.238281 -9.289062 29.96875 -10.90625 C 31.707031 -12.53125 32.578125 -15.132812 32.578125 -18.71875 C 32.578125 -21.195312 31.851562 -23.414062 30.40625 -25.375 C 28.957031 -27.34375 26.765625 -28.328125 23.828125 -28.328125 C 20.992188 -28.328125 18.882812 -27.316406 17.5 -25.296875 C 16.113281 -23.273438 15.421875 -21.109375 15.421875 -18.796875 Z M 15.421875 -18.796875 "/></g></g></g><g fill="#000000" fill-opacity="1"><g transform="translate(0.00000525, 219.614553)"><g><path d="M 3.296875 0 L 3.296875 -4.5 L 15.953125 -4.5 L 15.953125 -39.953125 L 15.21875 -40.140625 C 13.164062 -39.128906 11.367188 -38.351562 9.828125 -37.8125 C 8.285156 -37.269531 6.3125 -36.742188 3.90625 -36.234375 L 3.90625 -41.25 C 6.289062 -41.757812 8.648438 -42.445312 10.984375 -43.3125 C 13.316406 -44.175781 15.4375 -45.191406 17.34375 -46.359375 L 21.28125 -46.359375 L 21.28125 -4.5 L 32.59375 -4.5 L 32.59375 0 Z M 3.296875 0 "/></g></g></g><g fill="#000000" fill-opacity="1"><g transform="translate(34.533822, 219.614553)"><g><path d="M 22.796875 0.671875 C 19.390625 0.671875 16.332031 -0.144531 13.625 -1.78125 C 10.925781 -3.425781 8.769531 -6.03125 7.15625 -9.59375 C 5.550781 -13.15625 4.75 -17.679688 4.75 -23.171875 C 4.75 -28.671875 5.550781 -33.203125 7.15625 -36.765625 C 8.769531 -40.328125 10.925781 -42.925781 13.625 -44.5625 C 16.332031 -46.195312 19.390625 -47.015625 22.796875 -47.015625 C 26.203125 -47.015625 29.253906 -46.195312 31.953125 -44.5625 C 34.660156 -42.925781 36.8125 -40.328125 38.40625 -36.765625 C 40.007812 -33.203125 40.8125 -28.671875 40.8125 -23.171875 C 40.8125 -17.679688 40.007812 -13.15625 38.40625 -9.59375 C 36.8125 -6.03125 34.660156 -3.425781 31.953125 -1.78125 C 29.253906 -0.144531 26.203125 0.671875 22.796875 0.671875 Z M 22.796875 -4.375 C 26.835938 -4.375 29.894531 -5.828125 31.96875 -8.734375 C 34.050781 -11.640625 35.09375 -16.453125 35.09375 -23.171875 C 35.09375 -29.898438 34.050781 -34.71875 31.96875 -37.625 C 29.894531 -40.53125 26.835938 -41.984375 22.796875 -41.984375 C 20.128906 -41.984375 17.882812 -41.367188 16.0625 -40.140625 C 14.25 -38.910156 12.863281 -36.910156 11.90625 -34.140625 C 10.945312 -31.378906 10.46875 -27.722656 10.46875 -23.171875 C 10.46875 -18.628906 10.945312 -14.972656 11.90625 -12.203125 C 12.863281 -9.429688 14.25 -7.429688 16.0625 -6.203125 C 17.882812 -4.984375 20.128906 -4.375 22.796875 -4.375 Z M 22.796875 -4.375 "/></g></g></g><g fill="#000000" fill-opacity="1"><g transform="translate(80.093114, 219.614553)"><g/></g></g><g fill="#000000" fill-opacity="1"><g transform="translate(95.997679, 219.614553)"><g><path d="M 15.3125 0.671875 C 13.007812 0.671875 10.894531 0.328125 8.96875 -0.359375 C 7.050781 -1.046875 5.429688 -1.984375 4.109375 -3.171875 C 2.785156 -4.359375 1.816406 -5.671875 1.203125 -7.109375 L 4.03125 -10.8125 L 4.8125 -10.8125 C 5.75 -8.820312 7.117188 -7.25 8.921875 -6.09375 C 10.734375 -4.945312 12.863281 -4.375 15.3125 -4.375 C 17.300781 -4.375 18.914062 -4.695312 20.15625 -5.34375 C 21.40625 -5.988281 22.34375 -7.054688 22.96875 -8.546875 C 23.59375 -10.035156 23.90625 -12.046875 23.90625 -14.578125 L 23.90625 -46.359375 L 29.328125 -46.359375 L 29.328125 -14.484375 C 29.328125 -9.242188 28.160156 -5.40625 25.828125 -2.96875 C 23.492188 -0.539062 19.988281 0.671875 15.3125 0.671875 Z M 15.3125 0.671875 "/></g></g></g><g fill="#000000" fill-opacity="1"><g transform="translate(131.89387, 219.614553)"><g><path d="M 17.28125 0.671875 C 13.320312 0.671875 10.375 -0.375 8.4375 -2.46875 C 6.507812 -4.5625 5.546875 -7.628906 5.546875 -11.671875 L 5.546875 -34.96875 L 10.71875 -34.96875 L 10.71875 -11.796875 C 10.71875 -6.492188 13.210938 -3.84375 18.203125 -3.84375 C 21.367188 -3.84375 23.867188 -4.875 25.703125 -6.9375 C 27.546875 -9.007812 28.46875 -12.375 28.46875 -17.03125 L 28.46875 -34.96875 L 33.640625 -34.96875 L 33.640625 0 L 28.765625 0 L 28.765625 -5.484375 L 28.09375 -5.640625 C 26.882812 -3.503906 25.441406 -1.914062 23.765625 -0.875 C 22.085938 0.15625 19.925781 0.671875 17.28125 0.671875 Z M 17.28125 0.671875 "/></g></g></g><g fill="#000000" fill-opacity="1"><g transform="translate(171.591949, 219.614553)"><g><path d="M 13.921875 0.671875 C 11.441406 0.671875 9.492188 -0.03125 8.078125 -1.4375 C 6.671875 -2.84375 5.96875 -4.941406 5.96875 -7.734375 L 5.96875 -49.015625 L 11.125 -49.015625 L 11.125 -8.078125 C 11.125 -6.617188 11.40625 -5.566406 11.96875 -4.921875 C 12.53125 -4.285156 13.398438 -3.96875 14.578125 -3.96875 C 15.296875 -3.96875 16.023438 -4.082031 16.765625 -4.3125 L 17.21875 -4.1875 L 17.8125 -0.125 C 17.4375 0.125 16.894531 0.316406 16.1875 0.453125 C 15.476562 0.597656 14.722656 0.671875 13.921875 0.671875 Z M 13.921875 0.671875 "/></g></g></g><g fill="#000000" fill-opacity="1"><g transform="translate(190.605283, 219.614553)"><g/></g></g><g fill="#000000" fill-opacity="1"><g transform="translate(206.509849, 219.614553)"><g><path d="M 2.796875 -2.125 C 2.796875 -4.6875 3.070312 -6.75 3.625 -8.3125 C 4.1875 -9.875 5.144531 -11.332031 6.5 -12.6875 C 7.851562 -14.039062 10.007812 -15.796875 12.96875 -17.953125 L 18.078125 -21.65625 C 19.953125 -23.03125 21.484375 -24.296875 22.671875 -25.453125 C 23.859375 -26.617188 24.789062 -27.882812 25.46875 -29.25 C 26.15625 -30.613281 26.5 -32.140625 26.5 -33.828125 C 26.5 -36.578125 25.769531 -38.648438 24.3125 -40.046875 C 22.851562 -41.441406 20.570312 -42.140625 17.46875 -42.140625 C 15.019531 -42.140625 12.84375 -41.566406 10.9375 -40.421875 C 9.03125 -39.285156 7.507812 -37.671875 6.375 -35.578125 L 5.640625 -35.453125 L 2.375 -38.875 C 3.9375 -41.40625 5.988281 -43.394531 8.53125 -44.84375 C 11.082031 -46.289062 14.0625 -47.015625 17.46875 -47.015625 C 20.769531 -47.015625 23.507812 -46.453125 25.6875 -45.328125 C 27.863281 -44.210938 29.46875 -42.664062 30.5 -40.6875 C 31.539062 -38.71875 32.0625 -36.429688 32.0625 -33.828125 C 32.0625 -31.753906 31.625 -29.816406 30.75 -28.015625 C 29.882812 -26.222656 28.660156 -24.535156 27.078125 -22.953125 C 25.492188 -21.367188 23.507812 -19.703125 21.125 -17.953125 L 15.953125 -14.171875 C 14.023438 -12.753906 12.539062 -11.546875 11.5 -10.546875 C 10.46875 -9.554688 9.710938 -8.59375 9.234375 -7.65625 C 8.765625 -6.71875 8.53125 -5.664062 8.53125 -4.5 L 32.0625 -4.5 L 32.0625 0 L 2.796875 0 Z M 2.796875 -2.125 "/></g></g></g><g fill="#000000" fill-opacity="1"><g transform="translate(242.120867, 219.614553)"><g><path d="M 22.796875 0.671875 C 19.390625 0.671875 16.332031 -0.144531 13.625 -1.78125 C 10.925781 -3.425781 8.769531 -6.03125 7.15625 -9.59375 C 5.550781 -13.15625 4.75 -17.679688 4.75 -23.171875 C 4.75 -28.671875 5.550781 -33.203125 7.15625 -36.765625 C 8.769531 -40.328125 10.925781 -42.925781 13.625 -44.5625 C 16.332031 -46.195312 19.390625 -47.015625 22.796875 -47.015625 C 26.203125 -47.015625 29.253906 -46.195312 31.953125 -44.5625 C 34.660156 -42.925781 36.8125 -40.328125 38.40625 -36.765625 C 40.007812 -33.203125 40.8125 -28.671875 40.8125 -23.171875 C 40.8125 -17.679688 40.007812 -13.15625 38.40625 -9.59375 C 36.8125 -6.03125 34.660156 -3.425781 31.953125 -1.78125 C 29.253906 -0.144531 26.203125 0.671875 22.796875 0.671875 Z M 22.796875 -4.375 C 26.835938 -4.375 29.894531 -5.828125 31.96875 -8.734375 C 34.050781 -11.640625 35.09375 -16.453125 35.09375 -23.171875 C 35.09375 -29.898438 34.050781 -34.71875 31.96875 -37.625 C 29.894531 -40.53125 26.835938 -41.984375 22.796875 -41.984375 C 20.128906 -41.984375 17.882812 -41.367188 16.0625 -40.140625 C 14.25 -38.910156 12.863281 -36.910156 11.90625 -34.140625 C 10.945312 -31.378906 10.46875 -27.722656 10.46875 -23.171875 C 10.46875 -18.628906 10.945312 -14.972656 11.90625 -12.203125 C 12.863281 -9.429688 14.25 -7.429688 16.0625 -6.203125 C 17.882812 -4.984375 20.128906 -4.375 22.796875 -4.375 Z M 22.796875 -4.375 "/></g></g></g><g fill="#000000" fill-opacity="1"><g transform="translate(287.680159, 219.614553)"><g><path d="M 2.796875 -2.125 C 2.796875 -4.6875 3.070312 -6.75 3.625 -8.3125 C 4.1875 -9.875 5.144531 -11.332031 6.5 -12.6875 C 7.851562 -14.039062 10.007812 -15.796875 12.96875 -17.953125 L 18.078125 -21.65625 C 19.953125 -23.03125 21.484375 -24.296875 22.671875 -25.453125 C 23.859375 -26.617188 24.789062 -27.882812 25.46875 -29.25 C 26.15625 -30.613281 26.5 -32.140625 26.5 -33.828125 C 26.5 -36.578125 25.769531 -38.648438 24.3125 -40.046875 C 22.851562 -41.441406 20.570312 -42.140625 17.46875 -42.140625 C 15.019531 -42.140625 12.84375 -41.566406 10.9375 -40.421875 C 9.03125 -39.285156 7.507812 -37.671875 6.375 -35.578125 L 5.640625 -35.453125 L 2.375 -38.875 C 3.9375 -41.40625 5.988281 -43.394531 8.53125 -44.84375 C 11.082031 -46.289062 14.0625 -47.015625 17.46875 -47.015625 C 20.769531 -47.015625 23.507812 -46.453125 25.6875 -45.328125 C 27.863281 -44.210938 29.46875 -42.664062 30.5 -40.6875 C 31.539062 -38.71875 32.0625 -36.429688 32.0625 -33.828125 C 32.0625 -31.753906 31.625 -29.816406 30.75 -28.015625 C 29.882812 -26.222656 28.660156 -24.535156 27.078125 -22.953125 C 25.492188 -21.367188 23.507812 -19.703125 21.125 -17.953125 L 15.953125 -14.171875 C 14.023438 -12.753906 12.539062 -11.546875 11.5 -10.546875 C 10.46875 -9.554688 9.710938 -8.59375 9.234375 -7.65625 C 8.765625 -6.71875 8.53125 -5.664062 8.53125 -4.5 L 32.0625 -4.5 L 32.0625 0 L 2.796875 0 Z M 2.796875 -2.125 "/></g></g></g><g fill="#000000" fill-opacity="1"><g transform="translate(323.291177, 219.614553)"><g><path d="M 2.796875 -2.125 C 2.796875 -4.6875 3.070312 -6.75 3.625 -8.3125 C 4.1875 -9.875 5.144531 -11.332031 6.5 -12.6875 C 7.851562 -14.039062 10.007812 -15.796875 12.96875 -17.953125 L 18.078125 -21.65625 C 19.953125 -23.03125 21.484375 -24.296875 22.671875 -25.453125 C 23.859375 -26.617188 24.789062 -27.882812 25.46875 -29.25 C 26.15625 -30.613281 26.5 -32.140625 26.5 -33.828125 C 26.5 -36.578125 25.769531 -38.648438 24.3125 -40.046875 C 22.851562 -41.441406 20.570312 -42.140625 17.46875 -42.140625 C 15.019531 -42.140625 12.84375 -41.566406 10.9375 -40.421875 C 9.03125 -39.285156 7.507812 -37.671875 6.375 -35.578125 L 5.640625 -35.453125 L 2.375 -38.875 C 3.9375 -41.40625 5.988281 -43.394531 8.53125 -44.84375 C 11.082031 -46.289062 14.0625 -47.015625 17.46875 -47.015625 C 20.769531 -47.015625 23.507812 -46.453125 25.6875 -45.328125 C 27.863281 -44.210938 29.46875 -42.664062 30.5 -40.6875 C 31.539062 -38.71875 32.0625 -36.429688 32.0625 -33.828125 C 32.0625 -31.753906 31.625 -29.816406 30.75 -28.015625 C 29.882812 -26.222656 28.660156 -24.535156 27.078125 -22.953125 C 25.492188 -21.367188 23.507812 -19.703125 21.125 -17.953125 L 15.953125 -14.171875 C 14.023438 -12.753906 12.539062 -11.546875 11.5 -10.546875 C 10.46875 -9.554688 9.710938 -8.59375 9.234375 -7.65625 C 8.765625 -6.71875 8.53125 -5.664062 8.53125 -4.5 L 32.0625 -4.5 L 32.0625 0 L 2.796875 0 Z M 2.796875 -2.125 "/></g></g></g><g fill="#000000" fill-opacity="1"><g transform="translate(358.902195, 219.614553)"><g/></g></g><g fill="#000000" fill-opacity="1"><g transform="translate(374.80676, 219.614553)"><g><path d="M 21.34375 -20.203125 L 3.296875 -20.203125 L 3.296875 -24.828125 L 21.34375 -24.828125 Z M 21.34375 -20.203125 "/></g></g></g><g fill="#000000" fill-opacity="1"><g transform="translate(399.392303, 219.614553)"><g/></g></g><g fill="#000000" fill-opacity="1"><g transform="translate(415.296868, 219.614553)"><g><path d="M 29.015625 0 L 23.84375 0 L 23.84375 -11.0625 L 2.125 -11.0625 L 2.125 -15.4375 L 22.578125 -46.359375 L 29.015625 -46.359375 L 29.015625 -15.4375 L 37.03125 -15.4375 L 37.03125 -11.0625 L 29.015625 -11.0625 Z M 8.53125 -16.109375 L 8.8125 -15.4375 L 23.84375 -15.4375 L 23.84375 -38.8125 L 23.109375 -38.9375 Z M 8.53125 -16.109375 "/></g></g></g><g fill="#000000" fill-opacity="1"><g transform="translate(454.551393, 219.614553)"><g/></g></g><g fill="#000000" fill-opacity="1"><g transform="translate(470.455959, 219.614553)"><g><path d="M 6.09375 0 L 6.09375 -49.015625 L 11.25 -49.015625 L 11.25 -30 L 11.921875 -29.875 C 14.410156 -33.71875 18.015625 -35.640625 22.734375 -35.640625 C 26.941406 -35.640625 29.988281 -34.566406 31.875 -32.421875 C 33.769531 -30.273438 34.71875 -26.972656 34.71875 -22.515625 L 34.71875 0 L 29.546875 0 L 29.546875 -22.390625 C 29.546875 -24.503906 29.273438 -26.195312 28.734375 -27.46875 C 28.203125 -28.75 27.367188 -29.679688 26.234375 -30.265625 C 25.109375 -30.847656 23.625 -31.140625 21.78125 -31.140625 C 18.613281 -31.140625 16.066406 -30.113281 14.140625 -28.0625 C 12.210938 -26.007812 11.25 -22.640625 11.25 -17.953125 L 11.25 0 Z M 6.09375 0 "/></g></g></g><g fill="#000000" fill-opacity="1"><g transform="translate(510.692607, 219.614553)"><g><path d="M 20.078125 0.671875 C 16.773438 0.671875 13.898438 -0.0234375 11.453125 -1.421875 C 9.015625 -2.816406 7.132812 -4.875 5.8125 -7.59375 C 4.5 -10.3125 3.84375 -13.601562 3.84375 -17.46875 C 3.84375 -21.34375 4.5 -24.640625 5.8125 -27.359375 C 7.132812 -30.085938 9.015625 -32.148438 11.453125 -33.546875 C 13.898438 -34.941406 16.773438 -35.640625 20.078125 -35.640625 C 23.367188 -35.640625 26.234375 -34.941406 28.671875 -33.546875 C 31.117188 -32.148438 33.003906 -30.085938 34.328125 -27.359375 C 35.648438 -24.640625 36.3125 -21.34375 36.3125 -17.46875 C 36.3125 -13.601562 35.648438 -10.3125 34.328125 -7.59375 C 33.003906 -4.875 31.117188 -2.816406 28.671875 -1.421875 C 26.234375 -0.0234375 23.367188 0.671875 20.078125 0.671875 Z M 20.078125 -3.96875 C 23.554688 -3.96875 26.222656 -5.066406 28.078125 -7.265625 C 29.929688 -9.460938 30.859375 -12.863281 30.859375 -17.46875 C 30.859375 -22.101562 29.929688 -25.519531 28.078125 -27.71875 C 26.222656 -29.914062 23.554688 -31.015625 20.078125 -31.015625 C 16.585938 -31.015625 13.910156 -29.910156 12.046875 -27.703125 C 10.191406 -25.492188 9.265625 -22.082031 9.265625 -17.46875 C 9.265625 -12.863281 10.191406 -9.460938 12.046875 -7.265625 C 13.910156 -5.066406 16.585938 -3.96875 20.078125 -3.96875 Z M 20.078125 -3.96875 "/></g></g></g><g fill="#000000" fill-opacity="1"><g transform="translate(550.802526, 219.614553)"><g><path d="M 17.28125 0.671875 C 13.320312 0.671875 10.375 -0.375 8.4375 -2.46875 C 6.507812 -4.5625 5.546875 -7.628906 5.546875 -11.671875 L 5.546875 -34.96875 L 10.71875 -34.96875 L 10.71875 -11.796875 C 10.71875 -6.492188 13.210938 -3.84375 18.203125 -3.84375 C 21.367188 -3.84375 23.867188 -4.875 25.703125 -6.9375 C 27.546875 -9.007812 28.46875 -12.375 28.46875 -17.03125 L 28.46875 -34.96875 L 33.640625 -34.96875 L 33.640625 0 L 28.765625 0 L 28.765625 -5.484375 L 28.09375 -5.640625 C 26.882812 -3.503906 25.441406 -1.914062 23.765625 -0.875 C 22.085938 0.15625 19.925781 0.671875 17.28125 0.671875 Z M 17.28125 0.671875 "/></g></g></g><g fill="#000000" fill-opacity="1"><g transform="translate(590.500605, 219.614553)"><g><path d="M 6.09375 0 L 6.09375 -34.96875 L 11 -34.96875 L 11 -29.484375 L 11.671875 -29.328125 C 13.296875 -33.304688 16.359375 -35.296875 20.859375 -35.296875 C 23.253906 -35.296875 25.039062 -34.859375 26.21875 -33.984375 L 24.890625 -29.609375 L 24.25 -29.484375 C 22.945312 -30.140625 21.507812 -30.46875 19.9375 -30.46875 C 17.15625 -30.46875 15.007812 -29.421875 13.5 -27.328125 C 12 -25.234375 11.25 -21.84375 11.25 -17.15625 L 11.25 0 Z M 6.09375 0 "/></g></g></g><g fill="#000000" fill-opacity="1"><g transform="translate(617.49401, 219.614553)"><g><path d="M 15.953125 0.671875 C 13.753906 0.671875 11.71875 0.378906 9.84375 -0.203125 C 7.976562 -0.785156 6.398438 -1.582031 5.109375 -2.59375 C 3.816406 -3.613281 2.90625 -4.757812 2.375 -6.03125 L 5.421875 -9.1875 L 6.09375 -9.1875 C 7.226562 -7.457031 8.597656 -6.15625 10.203125 -5.28125 C 11.816406 -4.40625 13.734375 -3.96875 15.953125 -3.96875 C 18.523438 -3.96875 20.484375 -4.46875 21.828125 -5.46875 C 23.171875 -6.46875 23.84375 -7.867188 23.84375 -9.671875 C 23.84375 -11.046875 23.4375 -12.179688 22.625 -13.078125 C 21.8125 -13.972656 20.492188 -14.644531 18.671875 -15.09375 L 12.78125 -16.546875 C 9.625 -17.304688 7.320312 -18.507812 5.875 -20.15625 C 4.425781 -21.8125 3.703125 -23.851562 3.703125 -26.28125 C 3.703125 -28.1875 4.1875 -29.84375 5.15625 -31.25 C 6.132812 -32.65625 7.535156 -33.738281 9.359375 -34.5 C 11.191406 -35.257812 13.367188 -35.640625 15.890625 -35.640625 C 19.097656 -35.640625 21.625 -35.1875 23.46875 -34.28125 C 25.320312 -33.382812 26.769531 -32.132812 27.8125 -30.53125 L 24.890625 -27.6875 L 24.25 -27.6875 C 23.132812 -28.96875 21.914062 -29.894531 20.59375 -30.46875 C 19.269531 -31.039062 17.703125 -31.328125 15.890625 -31.328125 C 13.578125 -31.328125 11.804688 -30.914062 10.578125 -30.09375 C 9.359375 -29.269531 8.75 -28.070312 8.75 -26.5 C 8.75 -25.09375 9.179688 -23.953125 10.046875 -23.078125 C 10.910156 -22.210938 12.421875 -21.515625 14.578125 -20.984375 L 20.390625 -19.59375 C 23.429688 -18.875 25.628906 -17.675781 26.984375 -16 C 28.335938 -14.332031 29.015625 -12.242188 29.015625 -9.734375 C 29.015625 -7.679688 28.523438 -5.875 27.546875 -4.3125 C 26.578125 -2.75 25.109375 -1.523438 23.140625 -0.640625 C 21.179688 0.234375 18.785156 0.671875 15.953125 0.671875 Z M 15.953125 0.671875 "/></g></g></g><g fill="#000000" fill-opacity="1"><g transform="translate(0.00000525, 389.772968)"><g><path d="M 15.09375 -58.703125 L 17.296875 -54.078125 C 15.179688 -53.421875 13.609375 -52.429688 12.578125 -51.109375 C 11.554688 -49.785156 11.015625 -47.984375 10.953125 -45.703125 L 16.3125 -45.703125 L 16.3125 -34.578125 L 5.203125 -34.578125 L 5.203125 -43.515625 C 5.203125 -47.578125 5.957031 -50.785156 7.46875 -53.140625 C 8.988281 -55.492188 11.53125 -57.347656 15.09375 -58.703125 Z M 33.78125 -58.703125 L 35.96875 -54.078125 C 33.800781 -53.421875 32.226562 -52.414062 31.25 -51.0625 C 30.28125 -49.707031 29.742188 -47.921875 29.640625 -45.703125 L 34.984375 -45.703125 L 34.984375 -34.578125 L 23.875 -34.578125 L 23.875 -43.59375 C 23.875 -47.65625 24.644531 -50.847656 26.1875 -53.171875 C 27.726562 -55.503906 30.257812 -57.347656 33.78125 -58.703125 Z M 33.78125 -58.703125 "/></g></g></g><g fill="#000000" fill-opacity="1"><g transform="translate(40.577155, 389.772968)"><g><path d="M 21.109375 -18.1875 L 31.65625 -58.125 L 45.625 -58.125 L 55.9375 -17.53125 L 64.703125 -58.125 L 76.5625 -58.125 L 62.4375 0 L 49.9375 0 L 38.328125 -43.4375 L 26.875 0 L 14.125 0 L 0.25 -58.125 L 12.265625 -58.125 Z M 21.109375 -18.1875 "/></g></g></g><g fill="#000000" fill-opacity="1"><g transform="translate(117.186808, 389.772968)"><g><path d="M 21.921875 -43.03125 C 28.628906 -43.03125 33.632812 -40.847656 36.9375 -36.484375 C 40.238281 -32.128906 41.890625 -25.921875 41.890625 -17.859375 L 13.96875 -17.859375 C 14.070312 -15.046875 14.894531 -12.625 16.4375 -10.59375 C 17.976562 -8.5625 20.210938 -7.546875 23.140625 -7.546875 C 24.984375 -7.546875 26.484375 -8.019531 27.640625 -8.96875 C 28.804688 -9.914062 29.660156 -11.390625 30.203125 -13.390625 L 41.328125 -11.53125 C 39.921875 -7.414062 37.644531 -4.300781 34.5 -2.1875 C 31.363281 -0.0820312 27.519531 0.96875 22.96875 0.96875 C 16.207031 0.96875 11.09375 -1.054688 7.625 -5.109375 C 6.007812 -7.003906 4.765625 -9.382812 3.890625 -12.25 C 3.023438 -15.125 2.59375 -17.96875 2.59375 -20.78125 C 2.59375 -24.625 3.28125 -28.238281 4.65625 -31.625 C 6.039062 -35.007812 8.179688 -37.753906 11.078125 -39.859375 C 13.972656 -41.972656 17.585938 -43.03125 21.921875 -43.03125 Z M 14.203125 -24.6875 L 30.84375 -24.6875 C 30.789062 -28.09375 29.9375 -30.578125 28.28125 -32.140625 C 26.632812 -33.710938 24.703125 -34.5 22.484375 -34.5 C 19.890625 -34.5 17.859375 -33.566406 16.390625 -31.703125 C 14.929688 -29.835938 14.203125 -27.5 14.203125 -24.6875 Z M 14.203125 -24.6875 "/></g></g></g><g fill="#000000" fill-opacity="1"><g transform="translate(162.308605, 389.772968)"><g/></g></g><g fill="#000000" fill-opacity="1"><g transform="translate(184.869503, 389.772968)"><g><path d="M 21.1875 -43.03125 C 26.4375 -43.03125 30.5625 -42.160156 33.5625 -40.421875 C 36.570312 -38.691406 38.644531 -35.851562 39.78125 -31.90625 L 29.234375 -29.953125 C 28.742188 -31.691406 27.863281 -32.976562 26.59375 -33.8125 C 25.320312 -34.65625 23.546875 -35.078125 21.265625 -35.078125 C 16.234375 -35.078125 13.71875 -33.910156 13.71875 -31.578125 C 13.71875 -30.441406 14.539062 -29.535156 16.1875 -28.859375 C 17.84375 -28.179688 20.238281 -27.492188 23.375 -26.796875 C 27.21875 -25.929688 30.359375 -25.050781 32.796875 -24.15625 C 35.234375 -23.257812 37.234375 -21.929688 38.796875 -20.171875 C 40.367188 -18.410156 41.15625 -16.070312 41.15625 -13.15625 C 41.15625 -10.769531 40.492188 -8.507812 39.171875 -6.375 C 37.847656 -4.238281 35.75 -2.476562 32.875 -1.09375 C 30.007812 0.28125 26.382812 0.96875 22 0.96875 C 17.070312 0.96875 12.726562 -0.0820312 8.96875 -2.1875 C 5.207031 -4.300781 2.84375 -7.578125 1.875 -12.015625 L 12.984375 -13.71875 C 14.015625 -9.226562 17.019531 -6.984375 22 -6.984375 C 23.945312 -6.984375 25.773438 -7.320312 27.484375 -8 C 29.191406 -8.675781 30.046875 -9.878906 30.046875 -11.609375 C 30.046875 -12.742188 29.648438 -13.539062 28.859375 -14 C 28.078125 -14.457031 26.820312 -14.878906 25.09375 -15.265625 C 19.945312 -16.398438 15.9375 -17.453125 13.0625 -18.421875 C 10.195312 -19.398438 7.867188 -20.804688 6.078125 -22.640625 C 4.296875 -24.484375 3.40625 -26.976562 3.40625 -30.125 C 3.40625 -34.507812 5.082031 -37.753906 8.4375 -39.859375 C 11.800781 -41.972656 16.050781 -43.03125 21.1875 -43.03125 Z M 21.1875 -43.03125 "/></g></g></g><g fill="#000000" fill-opacity="1"><g transform="translate(229.9913, 389.772968)"><g><path d="M 16.890625 -36.703125 C 18.785156 -38.921875 20.773438 -40.53125 22.859375 -41.53125 C 24.941406 -42.53125 27.203125 -43.03125 29.640625 -43.03125 C 31.960938 -43.03125 34.03125 -42.675781 35.84375 -41.96875 C 37.65625 -41.269531 39.15625 -40.351562 40.34375 -39.21875 C 42.78125 -36.832031 44 -32.445312 44 -26.0625 L 44 0 L 32.875 0 L 32.875 -23.703125 C 32.875 -26.242188 32.710938 -28.269531 32.390625 -29.78125 C 32.066406 -31.300781 31.414062 -32.46875 30.4375 -33.28125 C 29.46875 -34.09375 27.984375 -34.5 25.984375 -34.5 C 22.460938 -34.5 20.066406 -33.363281 18.796875 -31.09375 C 17.523438 -28.820312 16.890625 -25.789062 16.890625 -22 L 16.890625 0 L 5.765625 0 L 5.765625 -58.125 L 16.890625 -58.125 Z M 16.890625 -36.703125 "/></g></g></g><g fill="#000000" fill-opacity="1"><g transform="translate(279.576575, 389.772968)"><g><path d="M 24.921875 -43.03125 C 29.472656 -43.03125 33.398438 -42 36.703125 -39.9375 C 40.003906 -37.882812 42.492188 -35.179688 44.171875 -31.828125 C 45.847656 -28.472656 46.6875 -24.925781 46.6875 -21.1875 C 46.6875 -17.289062 45.804688 -13.648438 44.046875 -10.265625 C 42.285156 -6.890625 39.765625 -4.171875 36.484375 -2.109375 C 33.210938 -0.0546875 29.382812 0.96875 25 0.96875 C 21.269531 0.96875 17.753906 0.195312 14.453125 -1.34375 C 11.148438 -2.882812 8.457031 -5.34375 6.375 -8.71875 C 4.289062 -12.101562 3.25 -16.394531 3.25 -21.59375 C 3.25 -25.21875 4.070312 -28.664062 5.71875 -31.9375 C 7.375 -35.21875 9.835938 -37.882812 13.109375 -39.9375 C 16.390625 -42 20.328125 -43.03125 24.921875 -43.03125 Z M 14.6875 -21.03125 C 14.6875 -16.800781 15.675781 -13.59375 17.65625 -11.40625 C 19.632812 -9.21875 22.054688 -8.125 24.921875 -8.125 C 27.796875 -8.125 30.234375 -9.203125 32.234375 -11.359375 C 34.234375 -13.523438 35.234375 -16.773438 35.234375 -21.109375 C 35.234375 -25.109375 34.269531 -28.242188 32.34375 -30.515625 C 30.425781 -32.796875 27.925781 -33.9375 24.84375 -33.9375 C 22.03125 -33.9375 19.632812 -32.828125 17.65625 -30.609375 C 15.675781 -28.390625 14.6875 -25.195312 14.6875 -21.03125 Z M 14.6875 -21.03125 "/></g></g></g><g fill="#000000" fill-opacity="1"><g transform="translate(329.16185, 389.772968)"><g><path d="M 16.71875 -20.453125 C 16.71875 -17.484375 16.785156 -15.320312 16.921875 -13.96875 C 17.054688 -12.613281 17.34375 -11.53125 17.78125 -10.71875 C 18.269531 -9.800781 19.015625 -9.039062 20.015625 -8.4375 C 21.015625 -7.84375 22.242188 -7.546875 23.703125 -7.546875 C 25.648438 -7.546875 27.410156 -8.085938 28.984375 -9.171875 C 30.554688 -10.253906 31.554688 -11.582031 31.984375 -13.15625 C 32.472656 -14.71875 32.71875 -18.070312 32.71875 -23.21875 L 32.71875 -42.0625 L 43.84375 -42.0625 L 43.84375 0 L 33.53125 0 L 33.53125 -6.328125 L 33.375 -6.328125 C 31.800781 -3.953125 29.769531 -2.140625 27.28125 -0.890625 C 24.789062 0.347656 22.21875 0.96875 19.5625 0.96875 C 17.1875 0.96875 14.925781 0.484375 12.78125 -0.484375 C 10.644531 -1.460938 9.007812 -2.867188 7.875 -4.703125 C 7.0625 -6.003906 6.476562 -7.4375 6.125 -9 C 5.78125 -10.570312 5.609375 -12.550781 5.609375 -14.9375 L 5.609375 -42.0625 L 16.71875 -42.0625 Z M 16.71875 -20.453125 "/></g></g></g><g fill="#000000" fill-opacity="1"><g transform="translate(378.747125, 389.772968)"><g><path d="M 16.96875 0 L 5.84375 0 L 5.84375 -58.125 L 16.96875 -58.125 Z M 16.96875 0 "/></g></g></g><g fill="#000000" fill-opacity="1"><g transform="translate(401.308023, 389.772968)"><g><path d="M 44.40625 -58.125 L 44.40625 0 L 34.015625 0 L 34.015625 -6.171875 L 33.859375 -6.171875 C 32.066406 -3.460938 29.96875 -1.59375 27.5625 -0.5625 C 25.15625 0.457031 22.953125 0.96875 20.953125 0.96875 C 17.859375 0.96875 14.972656 0.128906 12.296875 -1.546875 C 9.617188 -3.222656 7.453125 -5.738281 5.796875 -9.09375 C 4.148438 -12.445312 3.328125 -16.5625 3.328125 -21.4375 C 3.328125 -26.144531 4.125 -30.117188 5.71875 -33.359375 C 7.320312 -36.609375 9.460938 -39.03125 12.140625 -40.625 C 14.816406 -42.226562 17.78125 -43.03125 21.03125 -43.03125 C 25.789062 -43.03125 29.875 -41.082031 33.28125 -37.1875 L 33.28125 -58.125 Z M 14.78125 -20.953125 C 14.78125 -16.296875 15.65625 -12.953125 17.40625 -10.921875 C 19.164062 -8.890625 21.238281 -7.875 23.625 -7.875 C 25.082031 -7.875 26.554688 -8.25 28.046875 -9 C 29.535156 -9.757812 30.820312 -11.195312 31.90625 -13.3125 C 32.882812 -15.207031 33.375 -18.078125 33.375 -21.921875 C 33.375 -25.984375 32.503906 -29.09375 30.765625 -31.25 C 29.035156 -33.414062 26.765625 -34.5 23.953125 -34.5 L 23.546875 -34.5 C 20.398438 -34.34375 18.148438 -32.976562 16.796875 -30.40625 C 15.453125 -27.832031 14.78125 -24.679688 14.78125 -20.953125 Z M 14.78125 -20.953125 "/></g></g></g><g fill="#000000" fill-opacity="1"><g transform="translate(450.893298, 389.772968)"><g/></g></g><g fill="#000000" fill-opacity="1"><g transform="translate(473.454197, 389.772968)"><g><path d="M 17.53125 -42.0625 L 25.09375 -42.0625 L 25.09375 -33.203125 L 17.53125 -33.203125 L 17.53125 -14.6875 C 17.53125 -12.90625 17.597656 -11.582031 17.734375 -10.71875 C 17.867188 -9.851562 18.148438 -9.226562 18.578125 -8.84375 C 19.015625 -8.46875 19.695312 -8.28125 20.625 -8.28125 C 21.757812 -8.28125 23.25 -8.632812 25.09375 -9.34375 L 26.0625 -0.734375 C 24.925781 -0.191406 23.546875 0.222656 21.921875 0.515625 C 20.296875 0.816406 18.753906 0.96875 17.296875 0.96875 C 15.179688 0.96875 13.3125 0.617188 11.6875 -0.078125 C 10.0625 -0.785156 8.875 -1.734375 8.125 -2.921875 C 7.3125 -4.273438 6.804688 -5.773438 6.609375 -7.421875 C 6.421875 -9.078125 6.328125 -11.148438 6.328125 -13.640625 L 6.328125 -33.203125 L 1.21875 -33.203125 L 1.21875 -42.0625 L 6.328125 -42.0625 L 6.328125 -50.421875 L 17.53125 -57 Z M 17.53125 -42.0625 "/></g></g></g><g fill="#000000" fill-opacity="1"><g transform="translate(500.478573, 389.772968)"><g><path d="M 21.921875 -43.03125 C 28.628906 -43.03125 33.632812 -40.847656 36.9375 -36.484375 C 40.238281 -32.128906 41.890625 -25.921875 41.890625 -17.859375 L 13.96875 -17.859375 C 14.070312 -15.046875 14.894531 -12.625 16.4375 -10.59375 C 17.976562 -8.5625 20.210938 -7.546875 23.140625 -7.546875 C 24.984375 -7.546875 26.484375 -8.019531 27.640625 -8.96875 C 28.804688 -9.914062 29.660156 -11.390625 30.203125 -13.390625 L 41.328125 -11.53125 C 39.921875 -7.414062 37.644531 -4.300781 34.5 -2.1875 C 31.363281 -0.0820312 27.519531 0.96875 22.96875 0.96875 C 16.207031 0.96875 11.09375 -1.054688 7.625 -5.109375 C 6.007812 -7.003906 4.765625 -9.382812 3.890625 -12.25 C 3.023438 -15.125 2.59375 -17.96875 2.59375 -20.78125 C 2.59375 -24.625 3.28125 -28.238281 4.65625 -31.625 C 6.039062 -35.007812 8.179688 -37.753906 11.078125 -39.859375 C 13.972656 -41.972656 17.585938 -43.03125 21.921875 -43.03125 Z M 14.203125 -24.6875 L 30.84375 -24.6875 C 30.789062 -28.09375 29.9375 -30.578125 28.28125 -32.140625 C 26.632812 -33.710938 24.703125 -34.5 22.484375 -34.5 C 19.890625 -34.5 17.859375 -33.566406 16.390625 -31.703125 C 14.929688 -29.835938 14.203125 -27.5 14.203125 -24.6875 Z M 14.203125 -24.6875 "/></g></g></g><g fill="#000000" fill-opacity="1"><g transform="translate(545.60037, 389.772968)"><g><path d="M 16.96875 0 L 5.84375 0 L 5.84375 -58.125 L 16.96875 -58.125 Z M 16.96875 0 "/></g></g></g><g fill="#000000" fill-opacity="1"><g transform="translate(568.161268, 389.772968)"><g><path d="M 16.96875 0 L 5.84375 0 L 5.84375 -58.125 L 16.96875 -58.125 Z M 16.96875 0 "/></g></g></g><g fill="#000000" fill-opacity="1"><g transform="translate(590.722167, 389.772968)"><g/></g></g><g fill="#000000" fill-opacity="1"><g transform="translate(613.283065, 389.772968)"><g><path d="M 16.890625 -36.703125 C 18.785156 -38.921875 20.773438 -40.53125 22.859375 -41.53125 C 24.941406 -42.53125 27.203125 -43.03125 29.640625 -43.03125 C 31.960938 -43.03125 34.03125 -42.675781 35.84375 -41.96875 C 37.65625 -41.269531 39.15625 -40.351562 40.34375 -39.21875 C 42.78125 -36.832031 44 -32.445312 44 -26.0625 L 44 0 L 32.875 0 L 32.875 -23.703125 C 32.875 -26.242188 32.710938 -28.269531 32.390625 -29.78125 C 32.066406 -31.300781 31.414062 -32.46875 30.4375 -33.28125 C 29.46875 -34.09375 27.984375 -34.5 25.984375 -34.5 C 22.460938 -34.5 20.066406 -33.363281 18.796875 -31.09375 C 17.523438 -28.820312 16.890625 -25.789062 16.890625 -22 L 16.890625 0 L 5.765625 0 L 5.765625 -58.125 L 16.890625 -58.125 Z M 16.890625 -36.703125 "/></g></g></g><g fill="#000000" fill-opacity="1"><g transform="translate(662.86834, 389.772968)"><g><path d="M 16.96875 -47.8125 L 5.84375 -47.8125 L 5.84375 -58.125 L 16.96875 -58.125 Z M 16.96875 0 L 5.84375 0 L 5.84375 -42.0625 L 16.96875 -42.0625 Z M 16.96875 0 "/></g></g></g><g fill="#000000" fill-opacity="1"><g transform="translate(685.429238, 389.772968)"><g><path d="M 28.421875 -43.03125 C 33.878906 -43.03125 37.851562 -40.8125 40.34375 -36.375 C 43.976562 -40.8125 48.253906 -43.03125 53.171875 -43.03125 C 57.828125 -43.03125 61.289062 -41.753906 63.5625 -39.203125 C 65.84375 -36.660156 66.984375 -32.847656 66.984375 -27.765625 L 66.984375 0 L 55.859375 0 L 55.859375 -25.171875 C 55.859375 -28.203125 55.460938 -30.515625 54.671875 -32.109375 C 53.890625 -33.703125 52.3125 -34.5 49.9375 -34.5 C 47.65625 -34.5 45.820312 -33.710938 44.4375 -32.140625 C 43.0625 -30.578125 42.210938 -28.550781 41.890625 -26.0625 C 41.671875 -24.113281 41.5625 -22.378906 41.5625 -20.859375 L 41.5625 0 L 30.4375 0 L 30.4375 -24.765625 C 30.4375 -28.171875 30.070312 -30.644531 29.34375 -32.1875 C 28.613281 -33.726562 27.0625 -34.5 24.6875 -34.5 C 22.945312 -34.5 21.382812 -34.039062 20 -33.125 C 18.625 -32.207031 17.664062 -30.9375 17.125 -29.3125 C 16.476562 -27.363281 16.15625 -24.628906 16.15625 -21.109375 L 16.15625 0 L 5.03125 0 L 5.03125 -42.0625 L 15.34375 -42.0625 L 15.5 -36.375 C 17.238281 -38.476562 19.066406 -40.113281 20.984375 -41.28125 C 22.910156 -42.445312 25.390625 -43.03125 28.421875 -43.03125 Z M 28.421875 -43.03125 "/></g></g></g><g fill="#000000" fill-opacity="1"><g transform="translate(757.575414, 389.772968)"><g/></g></g><g fill="#000000" fill-opacity="1"><g transform="translate(780.136312, 389.772968)"><g><path d="M 17.53125 -42.0625 L 25.09375 -42.0625 L 25.09375 -33.203125 L 17.53125 -33.203125 L 17.53125 -14.6875 C 17.53125 -12.90625 17.597656 -11.582031 17.734375 -10.71875 C 17.867188 -9.851562 18.148438 -9.226562 18.578125 -8.84375 C 19.015625 -8.46875 19.695312 -8.28125 20.625 -8.28125 C 21.757812 -8.28125 23.25 -8.632812 25.09375 -9.34375 L 26.0625 -0.734375 C 24.925781 -0.191406 23.546875 0.222656 21.921875 0.515625 C 20.296875 0.816406 18.753906 0.96875 17.296875 0.96875 C 15.179688 0.96875 13.3125 0.617188 11.6875 -0.078125 C 10.0625 -0.785156 8.875 -1.734375 8.125 -2.921875 C 7.3125 -4.273438 6.804688 -5.773438 6.609375 -7.421875 C 6.421875 -9.078125 6.328125 -11.148438 6.328125 -13.640625 L 6.328125 -33.203125 L 1.21875 -33.203125 L 1.21875 -42.0625 L 6.328125 -42.0625 L 6.328125 -50.421875 L 17.53125 -57 Z M 17.53125 -42.0625 "/></g></g></g><g fill="#000000" fill-opacity="1"><g transform="translate(807.160689, 389.772968)"><g><path d="M 16.890625 -36.703125 C 18.785156 -38.921875 20.773438 -40.53125 22.859375 -41.53125 C 24.941406 -42.53125 27.203125 -43.03125 29.640625 -43.03125 C 31.960938 -43.03125 34.03125 -42.675781 35.84375 -41.96875 C 37.65625 -41.269531 39.15625 -40.351562 40.34375 -39.21875 C 42.78125 -36.832031 44 -32.445312 44 -26.0625 L 44 0 L 32.875 0 L 32.875 -23.703125 C 32.875 -26.242188 32.710938 -28.269531 32.390625 -29.78125 C 32.066406 -31.300781 31.414062 -32.46875 30.4375 -33.28125 C 29.46875 -34.09375 27.984375 -34.5 25.984375 -34.5 C 22.460938 -34.5 20.066406 -33.363281 18.796875 -31.09375 C 17.523438 -28.820312 16.890625 -25.789062 16.890625 -22 L 16.890625 0 L 5.765625 0 L 5.765625 -58.125 L 16.890625 -58.125 Z M 16.890625 -36.703125 "/></g></g></g><g fill="#000000" fill-opacity="1"><g transform="translate(856.745964, 389.772968)"><g><path d="M 21.921875 -43.03125 C 28.628906 -43.03125 33.632812 -40.847656 36.9375 -36.484375 C 40.238281 -32.128906 41.890625 -25.921875 41.890625 -17.859375 L 13.96875 -17.859375 C 14.070312 -15.046875 14.894531 -12.625 16.4375 -10.59375 C 17.976562 -8.5625 20.210938 -7.546875 23.140625 -7.546875 C 24.984375 -7.546875 26.484375 -8.019531 27.640625 -8.96875 C 28.804688 -9.914062 29.660156 -11.390625 30.203125 -13.390625 L 41.328125 -11.53125 C 39.921875 -7.414062 37.644531 -4.300781 34.5 -2.1875 C 31.363281 -0.0820312 27.519531 0.96875 22.96875 0.96875 C 16.207031 0.96875 11.09375 -1.054688 7.625 -5.109375 C 6.007812 -7.003906 4.765625 -9.382812 3.890625 -12.25 C 3.023438 -15.125 2.59375 -17.96875 2.59375 -20.78125 C 2.59375 -24.625 3.28125 -28.238281 4.65625 -31.625 C 6.039062 -35.007812 8.179688 -37.753906 11.078125 -39.859375 C 13.972656 -41.972656 17.585938 -43.03125 21.921875 -43.03125 Z M 14.203125 -24.6875 L 30.84375 -24.6875 C 30.789062 -28.09375 29.9375 -30.578125 28.28125 -32.140625 C 26.632812 -33.710938 24.703125 -34.5 22.484375 -34.5 C 19.890625 -34.5 17.859375 -33.566406 16.390625 -31.703125 C 14.929688 -29.835938 14.203125 -27.5 14.203125 -24.6875 Z M 14.203125 -24.6875 "/></g></g></g><g fill="#000000" fill-opacity="1"><g transform="translate(901.867761, 389.772968)"><g/></g></g><g fill="#000000" fill-opacity="1"><g transform="translate(924.428659, 389.772968)"><g><path d="M 17.53125 -42.0625 L 25.09375 -42.0625 L 25.09375 -33.203125 L 17.53125 -33.203125 L 17.53125 -14.6875 C 17.53125 -12.90625 17.597656 -11.582031 17.734375 -10.71875 C 17.867188 -9.851562 18.148438 -9.226562 18.578125 -8.84375 C 19.015625 -8.46875 19.695312 -8.28125 20.625 -8.28125 C 21.757812 -8.28125 23.25 -8.632812 25.09375 -9.34375 L 26.0625 -0.734375 C 24.925781 -0.191406 23.546875 0.222656 21.921875 0.515625 C 20.296875 0.816406 18.753906 0.96875 17.296875 0.96875 C 15.179688 0.96875 13.3125 0.617188 11.6875 -0.078125 C 10.0625 -0.785156 8.875 -1.734375 8.125 -2.921875 C 7.3125 -4.273438 6.804688 -5.773438 6.609375 -7.421875 C 6.421875 -9.078125 6.328125 -11.148438 6.328125 -13.640625 L 6.328125 -33.203125 L 1.21875 -33.203125 L 1.21875 -42.0625 L 6.328125 -42.0625 L 6.328125 -50.421875 L 17.53125 -57 Z M 17.53125 -42.0625 "/></g></g></g><g fill="#000000" fill-opacity="1"><g transform="translate(951.453036, 389.772968)"><g><path d="M 25.328125 -43.03125 C 26.515625 -43.03125 27.769531 -42.835938 29.09375 -42.453125 C 30.425781 -42.078125 31.609375 -41.59375 32.640625 -41 L 29.140625 -31.25 C 27.253906 -32.445312 25.523438 -33.046875 23.953125 -33.046875 C 21.835938 -33.046875 20.238281 -32.328125 19.15625 -30.890625 C 18.070312 -29.453125 17.351562 -27.445312 17 -24.875 C 16.65625 -22.3125 16.484375 -18.890625 16.484375 -14.609375 L 16.484375 0 L 5.359375 0 L 5.359375 -42.0625 L 15.671875 -42.0625 L 15.671875 -36.125 L 15.828125 -36.125 C 17.179688 -38.394531 18.535156 -40.113281 19.890625 -41.28125 C 21.242188 -42.445312 23.054688 -43.03125 25.328125 -43.03125 Z M 25.328125 -43.03125 "/></g></g></g><g fill="#000000" fill-opacity="1"><g transform="translate(983.02206, 389.772968)"><g><path d="M 16.71875 -20.453125 C 16.71875 -17.484375 16.785156 -15.320312 16.921875 -13.96875 C 17.054688 -12.613281 17.34375 -11.53125 17.78125 -10.71875 C 18.269531 -9.800781 19.015625 -9.039062 20.015625 -8.4375 C 21.015625 -7.84375 22.242188 -7.546875 23.703125 -7.546875 C 25.648438 -7.546875 27.410156 -8.085938 28.984375 -9.171875 C 30.554688 -10.253906 31.554688 -11.582031 31.984375 -13.15625 C 32.472656 -14.71875 32.71875 -18.070312 32.71875 -23.21875 L 32.71875 -42.0625 L 43.84375 -42.0625 L 43.84375 0 L 33.53125 0 L 33.53125 -6.328125 L 33.375 -6.328125 C 31.800781 -3.953125 29.769531 -2.140625 27.28125 -0.890625 C 24.789062 0.347656 22.21875 0.96875 19.5625 0.96875 C 17.1875 0.96875 14.925781 0.484375 12.78125 -0.484375 C 10.644531 -1.460938 9.007812 -2.867188 7.875 -4.703125 C 7.0625 -6.003906 6.476562 -7.4375 6.125 -9 C 5.78125 -10.570312 5.609375 -12.550781 5.609375 -14.9375 L 5.609375 -42.0625 L 16.71875 -42.0625 Z M 16.71875 -20.453125 "/></g></g></g><g fill="#000000" fill-opacity="1"><g transform="translate(1032.607335, 389.772968)"><g><path d="M 17.53125 -42.0625 L 25.09375 -42.0625 L 25.09375 -33.203125 L 17.53125 -33.203125 L 17.53125 -14.6875 C 17.53125 -12.90625 17.597656 -11.582031 17.734375 -10.71875 C 17.867188 -9.851562 18.148438 -9.226562 18.578125 -8.84375 C 19.015625 -8.46875 19.695312 -8.28125 20.625 -8.28125 C 21.757812 -8.28125 23.25 -8.632812 25.09375 -9.34375 L 26.0625 -0.734375 C 24.925781 -0.191406 23.546875 0.222656 21.921875 0.515625 C 20.296875 0.816406 18.753906 0.96875 17.296875 0.96875 C 15.179688 0.96875 13.3125 0.617188 11.6875 -0.078125 C 10.0625 -0.785156 8.875 -1.734375 8.125 -2.921875 C 7.3125 -4.273438 6.804688 -5.773438 6.609375 -7.421875 C 6.421875 -9.078125 6.328125 -11.148438 6.328125 -13.640625 L 6.328125 -33.203125 L 1.21875 -33.203125 L 1.21875 -42.0625 L 6.328125 -42.0625 L 6.328125 -50.421875 L 17.53125 -57 Z M 17.53125 -42.0625 "/></g></g></g><g fill="#000000" fill-opacity="1"><g transform="translate(1059.631711, 389.772968)"><g><path d="M 16.890625 -36.703125 C 18.785156 -38.921875 20.773438 -40.53125 22.859375 -41.53125 C 24.941406 -42.53125 27.203125 -43.03125 29.640625 -43.03125 C 31.960938 -43.03125 34.03125 -42.675781 35.84375 -41.96875 C 37.65625 -41.269531 39.15625 -40.351562 40.34375 -39.21875 C 42.78125 -36.832031 44 -32.445312 44 -26.0625 L 44 0 L 32.875 0 L 32.875 -23.703125 C 32.875 -26.242188 32.710938 -28.269531 32.390625 -29.78125 C 32.066406 -31.300781 31.414062 -32.46875 30.4375 -33.28125 C 29.46875 -34.09375 27.984375 -34.5 25.984375 -34.5 C 22.460938 -34.5 20.066406 -33.363281 18.796875 -31.09375 C 17.523438 -28.820312 16.890625 -25.789062 16.890625 -22 L 16.890625 0 L 5.765625 0 L 5.765625 -58.125 L 16.890625 -58.125 Z M 16.890625 -36.703125 "/></g></g></g><g fill="#000000" fill-opacity="1"><g transform="translate(1109.216987, 389.772968)"><g><path d="M 16.234375 -49.203125 C 16.234375 -45.140625 15.472656 -41.929688 13.953125 -39.578125 C 12.441406 -37.222656 9.898438 -35.367188 6.328125 -34.015625 L 4.140625 -38.640625 C 6.253906 -39.296875 7.8125 -40.285156 8.8125 -41.609375 C 9.8125 -42.929688 10.363281 -44.726562 10.46875 -47 L 5.109375 -47 L 5.109375 -58.125 L 16.234375 -58.125 Z M 34.90625 -49.203125 C 34.90625 -45.140625 34.144531 -41.929688 32.625 -39.578125 C 31.113281 -37.222656 28.570312 -35.367188 25 -34.015625 L 22.8125 -38.640625 C 24.925781 -39.296875 26.484375 -40.285156 27.484375 -41.609375 C 28.484375 -42.929688 29.035156 -44.726562 29.140625 -47 L 23.78125 -47 L 23.78125 -58.125 L 34.90625 -58.125 Z M 34.90625 -49.203125 "/></g></g></g></svg>