<svg xmlns="http://www.w3.org/2000/svg" xmlns:xlink="http://www.w3.org/1999/xlink" width="1620" zoomAndPan="magnify" viewBox="0 0 1215 809.999993" height="1080" preserveAspectRatio="xMidYMid meet" version="1.0"><defs><g/></defs><g fill="#000000" fill-opacity="1"><g transform="translate(0.00000525, 69.713092)"><g><path d="M 51.015625 -51.546875 L 32.65625 -51.546875 L 32.65625 0 L 20.1875 0 L 20.1875 -51.546875 L 1.8125 -51.546875 L 1.8125 -62.03125 L 51.015625 -62.03125 Z M 51.015625 -51.546875 "/></g></g></g><g fill="#000000" fill-opacity="1"><g transform="translate(52.911531, 69.713092)"><g><path d="M 26.59375 -45.90625 C 31.445312 -45.90625 35.632812 -44.804688 39.15625 -42.609375 C 42.675781 -40.421875 45.332031 -37.535156 47.125 -33.953125 C 48.914062 -30.378906 49.8125 -26.597656 49.8125 -22.609375 C 49.8125 -18.453125 48.867188 -14.566406 46.984375 -10.953125 C 45.109375 -7.347656 42.425781 -4.445312 38.9375 -2.25 C 35.445312 -0.0507812 31.363281 1.046875 26.6875 1.046875 C 22.695312 1.046875 18.941406 0.222656 15.421875 -1.421875 C 11.898438 -3.066406 9.023438 -5.691406 6.796875 -9.296875 C 4.578125 -12.910156 3.46875 -17.492188 3.46875 -23.046875 C 3.46875 -26.910156 4.347656 -30.585938 6.109375 -34.078125 C 7.867188 -37.578125 10.492188 -40.421875 13.984375 -42.609375 C 17.484375 -44.804688 21.6875 -45.90625 26.59375 -45.90625 Z M 15.671875 -22.4375 C 15.671875 -17.925781 16.722656 -14.5 18.828125 -12.15625 C 20.941406 -9.820312 23.53125 -8.65625 26.59375 -8.65625 C 29.65625 -8.65625 32.253906 -9.8125 34.390625 -12.125 C 36.523438 -14.4375 37.59375 -17.898438 37.59375 -22.515625 C 37.59375 -26.796875 36.566406 -30.144531 34.515625 -32.5625 C 32.460938 -34.988281 29.789062 -36.203125 26.5 -36.203125 C 23.5 -36.203125 20.941406 -35.019531 18.828125 -32.65625 C 16.722656 -30.289062 15.671875 -26.882812 15.671875 -22.4375 Z M 15.671875 -22.4375 "/></g></g></g><g fill="#000000" fill-opacity="1"><g transform="translate(105.823056, 69.713092)"><g><path d="M 32.046875 -45.90625 C 34.703125 -45.90625 37.007812 -45.457031 38.96875 -44.5625 C 40.9375 -43.664062 42.5 -42.613281 43.65625 -41.40625 C 45.039062 -39.90625 45.945312 -38.128906 46.375 -36.078125 C 46.8125 -34.023438 47.03125 -31.757812 47.03125 -29.28125 L 47.03125 0 L 35.171875 0 L 35.171875 -24.515625 C 35.171875 -28.671875 34.707031 -31.757812 33.78125 -33.78125 C 32.851562 -35.800781 30.890625 -36.8125 27.890625 -36.8125 C 25.066406 -36.8125 22.875 -36.003906 21.3125 -34.390625 C 19.75 -32.773438 18.820312 -30.898438 18.53125 -28.765625 C 18.363281 -27.378906 18.234375 -26.132812 18.140625 -25.03125 C 18.054688 -23.9375 18.015625 -22.695312 18.015625 -21.3125 L 18.015625 0 L 6.15625 0 L 6.15625 -44.875 L 17.40625 -44.875 L 17.40625 -38.28125 C 18.675781 -40.1875 20.566406 -41.929688 23.078125 -43.515625 C 25.597656 -45.109375 28.585938 -45.90625 32.046875 -45.90625 Z M 32.046875 -45.90625 "/></g></g></g><g fill="#000000" fill-opacity="1"><g transform="translate(158.734581, 69.713092)"><g><path d="M 23.90625 -13 L 24.078125 -13 L 34.484375 -44.875 L 46.78125 -44.875 L 30.921875 -1.640625 L 29.890625 1.390625 C 28.390625 5.597656 27.046875 8.785156 25.859375 10.953125 C 24.671875 13.117188 22.9375 14.863281 20.65625 16.1875 C 18.375 17.519531 15.242188 18.1875 11.265625 18.1875 C 8.890625 18.1875 6.632812 17.957031 4.5 17.5 L 3.46875 8.234375 C 5.488281 8.578125 7.132812 8.75 8.40625 8.75 C 10.882812 8.75 12.800781 8.097656 14.15625 6.796875 C 15.519531 5.492188 16.691406 3.257812 17.671875 0.09375 L 0.609375 -44.875 L 13.25 -44.875 Z M 23.90625 -13 "/></g></g></g><g fill="#000000" fill-opacity="1"><g transform="translate(206.883175, 69.713092)"><g/></g></g><g fill="#000000" fill-opacity="1"><g transform="translate(230.957472, 69.713092)"><g><path d="M 27.984375 -63.0625 C 34.847656 -63.0625 40.460938 -61.53125 44.828125 -58.46875 C 49.191406 -55.40625 51.488281 -50.671875 51.71875 -44.265625 L 39.15625 -43.75 C 38.75 -46.632812 37.691406 -48.851562 35.984375 -50.40625 C 34.285156 -51.96875 31.5625 -52.75 27.8125 -52.75 C 25.207031 -52.75 22.804688 -52.285156 20.609375 -51.359375 C 18.421875 -50.441406 17.328125 -48.859375 17.328125 -46.609375 C 17.328125 -44.703125 18.304688 -43.1875 20.265625 -42.0625 C 22.234375 -40.9375 25.726562 -39.796875 30.75 -38.640625 C 35.425781 -37.535156 39.28125 -36.363281 42.3125 -35.125 C 45.34375 -33.882812 47.957031 -31.890625 50.15625 -29.140625 C 52.351562 -26.398438 53.453125 -22.691406 53.453125 -18.015625 C 53.453125 -15.648438 52.898438 -13.140625 51.796875 -10.484375 C 50.703125 -7.828125 48.914062 -5.546875 46.4375 -3.640625 C 44.582031 -2.140625 42.140625 -0.984375 39.109375 -0.171875 C 36.078125 0.640625 32.570312 1.046875 28.59375 1.046875 C 20.851562 1.046875 14.898438 -0.695312 10.734375 -4.1875 C 6.578125 -7.6875 4.039062 -13.019531 3.125 -20.1875 L 15.25 -21.3125 C 16.570312 -13.394531 21.078125 -9.4375 28.765625 -9.4375 C 32.804688 -9.4375 35.847656 -10.285156 37.890625 -11.984375 C 39.941406 -13.691406 40.96875 -15.703125 40.96875 -18.015625 C 40.96875 -19.691406 40.460938 -21.019531 39.453125 -22 C 38.441406 -22.976562 36.851562 -23.828125 34.6875 -24.546875 C 32.519531 -25.273438 29.128906 -26.1875 24.515625 -27.28125 C 18.742188 -28.550781 14.109375 -30.6875 10.609375 -33.6875 C 7.117188 -36.695312 5.375 -40.710938 5.375 -45.734375 C 5.375 -48.453125 6.066406 -51.125 7.453125 -53.75 C 8.835938 -56.375 11.21875 -58.582031 14.59375 -60.375 C 17.96875 -62.164062 22.429688 -63.0625 27.984375 -63.0625 Z M 27.984375 -63.0625 "/></g></g></g><g fill="#000000" fill-opacity="1"><g transform="translate(288.718476, 69.713092)"><g><path d="M 18.71875 -44.875 L 26.765625 -44.875 L 26.765625 -35.421875 L 18.71875 -35.421875 L 18.71875 -15.671875 C 18.71875 -13.773438 18.785156 -12.363281 18.921875 -11.4375 C 19.066406 -10.507812 19.367188 -9.84375 19.828125 -9.4375 C 20.296875 -9.03125 21.019531 -8.828125 22 -8.828125 C 23.21875 -8.828125 24.804688 -9.207031 26.765625 -9.96875 L 27.8125 -0.78125 C 26.59375 -0.195312 25.117188 0.25 23.390625 0.5625 C 21.660156 0.882812 20.015625 1.046875 18.453125 1.046875 C 16.203125 1.046875 14.207031 0.671875 12.46875 -0.078125 C 10.738281 -0.835938 9.46875 -1.851562 8.65625 -3.125 C 7.789062 -4.5625 7.253906 -6.160156 7.046875 -7.921875 C 6.847656 -9.679688 6.75 -11.890625 6.75 -14.546875 L 6.75 -35.421875 L 1.296875 -35.421875 L 1.296875 -44.875 L 6.75 -44.875 L 6.75 -53.796875 L 18.71875 -60.8125 Z M 18.71875 -44.875 "/></g></g></g><g fill="#000000" fill-opacity="1"><g transform="translate(317.555704, 69.713092)"><g><path d="M 23.734375 -45.90625 C 29.453125 -45.90625 33.695312 -45.171875 36.46875 -43.703125 C 39.238281 -42.234375 40.984375 -40.296875 41.703125 -37.890625 C 42.429688 -35.492188 42.765625 -32.332031 42.703125 -28.40625 L 42.625 -15.328125 C 42.5625 -11.234375 42.703125 -8.257812 43.046875 -6.40625 C 43.398438 -4.5625 44.125 -2.425781 45.21875 0 L 33.53125 0 C 33.238281 -0.632812 32.71875 -2.28125 31.96875 -4.9375 C 29.832031 -2.851562 27.625 -1.332031 25.34375 -0.375 C 23.0625 0.570312 20.617188 1.046875 18.015625 1.046875 C 13.566406 1.046875 9.972656 -0.179688 7.234375 -2.640625 C 4.492188 -5.097656 3.125 -8.289062 3.125 -12.21875 C 3.125 -15.507812 3.945312 -18.117188 5.59375 -20.046875 C 7.238281 -21.984375 9.242188 -23.382812 11.609375 -24.25 C 13.972656 -25.113281 16.773438 -25.863281 20.015625 -26.5 C 24.972656 -27.425781 28.640625 -28.351562 31.015625 -29.28125 L 31.015625 -31.1875 C 31.015625 -33.144531 30.4375 -34.570312 29.28125 -35.46875 C 28.125 -36.363281 26.015625 -36.8125 22.953125 -36.8125 C 20.585938 -36.8125 18.828125 -36.332031 17.671875 -35.375 C 16.515625 -34.425781 15.648438 -33.03125 15.078125 -31.1875 L 4.328125 -33.171875 C 5.484375 -37.566406 7.5625 -40.785156 10.5625 -42.828125 C 13.570312 -44.878906 17.960938 -45.90625 23.734375 -45.90625 Z M 23.5625 -19.65625 L 21.5625 -19.234375 C 17.175781 -18.304688 14.984375 -16.398438 14.984375 -13.515625 C 14.984375 -11.785156 15.601562 -10.328125 16.84375 -9.140625 C 18.09375 -7.953125 19.664062 -7.359375 21.5625 -7.359375 C 23.125 -7.359375 24.6875 -7.757812 26.25 -8.5625 C 27.8125 -9.375 29.023438 -10.445312 29.890625 -11.78125 C 30.640625 -12.988281 31.015625 -15.066406 31.015625 -18.015625 L 31.015625 -21.5625 C 28.765625 -20.875 26.28125 -20.238281 23.5625 -19.65625 Z M 23.5625 -19.65625 "/></g></g></g><g fill="#000000" fill-opacity="1"><g transform="translate(365.704298, 69.713092)"><g><path d="M 27.03125 -45.90625 C 28.300781 -45.90625 29.640625 -45.703125 31.046875 -45.296875 C 32.460938 -44.898438 33.722656 -44.382812 34.828125 -43.75 L 31.09375 -33.34375 C 29.070312 -34.613281 27.222656 -35.25 25.546875 -35.25 C 23.296875 -35.25 21.59375 -34.484375 20.4375 -32.953125 C 19.289062 -31.429688 18.523438 -29.296875 18.140625 -26.546875 C 17.765625 -23.804688 17.578125 -20.15625 17.578125 -15.59375 L 17.578125 0 L 5.71875 0 L 5.71875 -44.875 L 16.71875 -44.875 L 16.71875 -38.546875 L 16.890625 -38.546875 C 18.335938 -40.972656 19.78125 -42.804688 21.21875 -44.046875 C 22.664062 -45.285156 24.601562 -45.90625 27.03125 -45.90625 Z M 27.03125 -45.90625 "/></g></g></g><g fill="#000000" fill-opacity="1"><g transform="translate(399.391005, 69.713092)"><g><path d="M 17.671875 -29.109375 L 31.625 -44.875 L 46.25 -44.875 L 30.921875 -28.5 L 47.296875 0 L 34.484375 0 L 23.21875 -20.1875 L 17.671875 -14.375 L 17.671875 0 L 5.796875 0 L 5.796875 -62.03125 L 17.671875 -62.03125 Z M 17.671875 -29.109375 "/></g></g></g><g fill="#000000" fill-opacity="1"><g transform="translate(447.539599, 69.713092)"><g/></g></g><g fill="#000000" fill-opacity="1"><g transform="translate(471.613896, 69.713092)"><g><path d="M 47.390625 -62.03125 L 47.390625 0 L 36.296875 0 L 36.296875 -6.578125 L 36.125 -6.578125 C 34.21875 -3.691406 31.976562 -1.695312 29.40625 -0.59375 C 26.832031 0.5 24.476562 1.046875 22.34375 1.046875 C 19.050781 1.046875 15.972656 0.148438 13.109375 -1.640625 C 10.253906 -3.429688 7.945312 -6.117188 6.1875 -9.703125 C 4.425781 -13.285156 3.546875 -17.675781 3.546875 -22.875 C 3.546875 -27.894531 4.394531 -32.132812 6.09375 -35.59375 C 7.800781 -39.0625 10.082031 -41.644531 12.9375 -43.34375 C 15.800781 -45.050781 18.96875 -45.90625 22.4375 -45.90625 C 27.519531 -45.90625 31.878906 -43.828125 35.515625 -39.671875 L 35.515625 -62.03125 Z M 15.765625 -22.34375 C 15.765625 -17.382812 16.703125 -13.820312 18.578125 -11.65625 C 20.453125 -9.488281 22.660156 -8.40625 25.203125 -8.40625 C 26.765625 -8.40625 28.335938 -8.804688 29.921875 -9.609375 C 31.515625 -10.421875 32.890625 -11.953125 34.046875 -14.203125 C 35.085938 -16.222656 35.609375 -19.285156 35.609375 -23.390625 C 35.609375 -27.722656 34.679688 -31.039062 32.828125 -33.34375 C 30.984375 -35.65625 28.554688 -36.8125 25.546875 -36.8125 L 25.125 -36.8125 C 21.769531 -36.644531 19.367188 -35.1875 17.921875 -32.4375 C 16.484375 -29.695312 15.765625 -26.332031 15.765625 -22.34375 Z M 15.765625 -22.34375 "/></g></g></g><g fill="#000000" fill-opacity="1"><g transform="translate(524.525421, 69.713092)"><g><path d="M 18.109375 -51.015625 L 6.234375 -51.015625 L 6.234375 -62.03125 L 18.109375 -62.03125 Z M 18.109375 0 L 6.234375 0 L 6.234375 -44.875 L 18.109375 -44.875 Z M 18.109375 0 "/></g></g></g><g fill="#000000" fill-opacity="1"><g transform="translate(548.599718, 69.713092)"><g><path d="M 22.609375 -45.90625 C 28.210938 -45.90625 32.613281 -44.984375 35.8125 -43.140625 C 39.019531 -41.296875 41.234375 -38.265625 42.453125 -34.046875 L 31.1875 -31.96875 C 30.664062 -33.8125 29.722656 -35.179688 28.359375 -36.078125 C 27.003906 -36.972656 25.117188 -37.421875 22.703125 -37.421875 C 17.328125 -37.421875 14.640625 -36.179688 14.640625 -33.703125 C 14.640625 -32.484375 15.519531 -31.515625 17.28125 -30.796875 C 19.039062 -30.078125 21.597656 -29.34375 24.953125 -28.59375 C 29.046875 -27.664062 32.390625 -26.722656 34.984375 -25.765625 C 37.585938 -24.816406 39.726562 -23.40625 41.40625 -21.53125 C 43.082031 -19.65625 43.921875 -17.15625 43.921875 -14.03125 C 43.921875 -11.488281 43.210938 -9.078125 41.796875 -6.796875 C 40.378906 -4.515625 38.140625 -2.632812 35.078125 -1.15625 C 32.015625 0.3125 28.144531 1.046875 23.46875 1.046875 C 18.21875 1.046875 13.582031 -0.078125 9.5625 -2.328125 C 5.550781 -4.585938 3.03125 -8.085938 2 -12.828125 L 13.859375 -14.640625 C 14.953125 -9.847656 18.15625 -7.453125 23.46875 -7.453125 C 25.550781 -7.453125 27.5 -7.8125 29.3125 -8.53125 C 31.132812 -9.25 32.046875 -10.535156 32.046875 -12.390625 C 32.046875 -13.597656 31.628906 -14.445312 30.796875 -14.9375 C 29.960938 -15.425781 28.617188 -15.875 26.765625 -16.28125 C 21.273438 -17.5 17 -18.625 13.9375 -19.65625 C 10.882812 -20.695312 8.40625 -22.195312 6.5 -24.15625 C 4.59375 -26.125 3.640625 -28.785156 3.640625 -32.140625 C 3.640625 -36.816406 5.425781 -40.28125 9 -42.53125 C 12.582031 -44.78125 17.117188 -45.90625 22.609375 -45.90625 Z M 22.609375 -45.90625 "/></g></g></g><g fill="#000000" fill-opacity="1"><g transform="translate(596.748312, 69.713092)"><g><path d="M 9.015625 -39.15625 C 12.878906 -43.65625 18.363281 -45.90625 25.46875 -45.90625 C 36.15625 -45.90625 42.828125 -41.144531 45.484375 -31.625 L 33.78125 -29.546875 C 32.800781 -34.273438 30.085938 -36.640625 25.640625 -36.640625 C 22.640625 -36.640625 20.257812 -35.597656 18.5 -33.515625 C 16.738281 -31.441406 15.859375 -28.066406 15.859375 -23.390625 C 15.859375 -18.828125 16.609375 -15.226562 18.109375 -12.59375 C 19.609375 -9.96875 22.175781 -8.65625 25.8125 -8.65625 C 28.175781 -8.65625 30.066406 -9.363281 31.484375 -10.78125 C 32.898438 -12.195312 33.867188 -14.347656 34.390625 -17.234375 L 46.078125 -15.25 C 43.660156 -4.382812 36.703125 1.046875 25.203125 1.046875 C 18.390625 1.046875 13.132812 -1.035156 9.4375 -5.203125 C 7.53125 -7.335938 6.085938 -9.929688 5.109375 -12.984375 C 4.128906 -16.046875 3.640625 -19.195312 3.640625 -22.4375 C 3.640625 -25.78125 4.097656 -28.894531 5.015625 -31.78125 C 5.941406 -34.675781 7.273438 -37.132812 9.015625 -39.15625 Z M 9.015625 -39.15625 "/></g></g></g><g fill="#000000" fill-opacity="1"><g transform="translate(644.896906, 69.713092)"><g><path d="M 26.59375 -45.90625 C 31.445312 -45.90625 35.632812 -44.804688 39.15625 -42.609375 C 42.675781 -40.421875 45.332031 -37.535156 47.125 -33.953125 C 48.914062 -30.378906 49.8125 -26.597656 49.8125 -22.609375 C 49.8125 -18.453125 48.867188 -14.566406 46.984375 -10.953125 C 45.109375 -7.347656 42.425781 -4.445312 38.9375 -2.25 C 35.445312 -0.0507812 31.363281 1.046875 26.6875 1.046875 C 22.695312 1.046875 18.941406 0.222656 15.421875 -1.421875 C 11.898438 -3.066406 9.023438 -5.691406 6.796875 -9.296875 C 4.578125 -12.910156 3.46875 -17.492188 3.46875 -23.046875 C 3.46875 -26.910156 4.347656 -30.585938 6.109375 -34.078125 C 7.867188 -37.578125 10.492188 -40.421875 13.984375 -42.609375 C 17.484375 -44.804688 21.6875 -45.90625 26.59375 -45.90625 Z M 15.671875 -22.4375 C 15.671875 -17.925781 16.722656 -14.5 18.828125 -12.15625 C 20.941406 -9.820312 23.53125 -8.65625 26.59375 -8.65625 C 29.65625 -8.65625 32.253906 -9.8125 34.390625 -12.125 C 36.523438 -14.4375 37.59375 -17.898438 37.59375 -22.515625 C 37.59375 -26.796875 36.566406 -30.144531 34.515625 -32.5625 C 32.460938 -34.988281 29.789062 -36.203125 26.5 -36.203125 C 23.5 -36.203125 20.941406 -35.019531 18.828125 -32.65625 C 16.722656 -30.289062 15.671875 -26.882812 15.671875 -22.4375 Z M 15.671875 -22.4375 "/></g></g></g><g fill="#000000" fill-opacity="1"><g transform="translate(697.808431, 69.713092)"><g><path d="M 21.3125 -22.265625 L 22.953125 -16.984375 C 23.296875 -15.710938 23.554688 -14.84375 23.734375 -14.375 L 23.90625 -14.375 C 24.769531 -17.613281 25.578125 -20.15625 26.328125 -22 L 34.90625 -44.875 L 47.125 -44.875 L 29.28125 0 L 18.53125 0 L 0.4375 -44.875 L 12.90625 -44.875 Z M 21.3125 -22.265625 "/></g></g></g><g fill="#000000" fill-opacity="1"><g transform="translate(745.957025, 69.713092)"><g><path d="M 23.390625 -45.90625 C 30.546875 -45.90625 35.882812 -43.582031 39.40625 -38.9375 C 42.9375 -34.289062 44.703125 -27.664062 44.703125 -19.0625 L 14.90625 -19.0625 C 15.019531 -16.050781 15.898438 -13.460938 17.546875 -11.296875 C 19.191406 -9.140625 21.570312 -8.0625 24.6875 -8.0625 C 26.65625 -8.0625 28.257812 -8.566406 29.5 -9.578125 C 30.738281 -10.585938 31.644531 -12.160156 32.21875 -14.296875 L 44.09375 -12.296875 C 42.59375 -7.910156 40.164062 -4.585938 36.8125 -2.328125 C 33.46875 -0.078125 29.367188 1.046875 24.515625 1.046875 C 17.296875 1.046875 11.835938 -1.117188 8.140625 -5.453125 C 6.410156 -7.472656 5.082031 -10.015625 4.15625 -13.078125 C 3.226562 -16.140625 2.765625 -19.171875 2.765625 -22.171875 C 2.765625 -26.273438 3.5 -30.128906 4.96875 -33.734375 C 6.445312 -37.347656 8.726562 -40.28125 11.8125 -42.53125 C 14.90625 -44.78125 18.765625 -45.90625 23.390625 -45.90625 Z M 15.15625 -26.328125 L 32.921875 -26.328125 C 32.859375 -29.972656 31.945312 -32.628906 30.1875 -34.296875 C 28.425781 -35.972656 26.363281 -36.8125 24 -36.8125 C 21.226562 -36.8125 19.0625 -35.816406 17.5 -33.828125 C 15.9375 -31.835938 15.15625 -29.335938 15.15625 -26.328125 Z M 15.15625 -26.328125 "/></g></g></g><g fill="#000000" fill-opacity="1"><g transform="translate(794.105619, 69.713092)"><g><path d="M 27.03125 -45.90625 C 28.300781 -45.90625 29.640625 -45.703125 31.046875 -45.296875 C 32.460938 -44.898438 33.722656 -44.382812 34.828125 -43.75 L 31.09375 -33.34375 C 29.070312 -34.613281 27.222656 -35.25 25.546875 -35.25 C 23.296875 -35.25 21.59375 -34.484375 20.4375 -32.953125 C 19.289062 -31.429688 18.523438 -29.296875 18.140625 -26.546875 C 17.765625 -23.804688 17.578125 -20.15625 17.578125 -15.59375 L 17.578125 0 L 5.71875 0 L 5.71875 -44.875 L 16.71875 -44.875 L 16.71875 -38.546875 L 16.890625 -38.546875 C 18.335938 -40.972656 19.78125 -42.804688 21.21875 -44.046875 C 22.664062 -45.285156 24.601562 -45.90625 27.03125 -45.90625 Z M 27.03125 -45.90625 "/></g></g></g><g fill="#000000" fill-opacity="1"><g transform="translate(827.792326, 69.713092)"><g><path d="M 22.609375 -45.90625 C 28.210938 -45.90625 32.613281 -44.984375 35.8125 -43.140625 C 39.019531 -41.296875 41.234375 -38.265625 42.453125 -34.046875 L 31.1875 -31.96875 C 30.664062 -33.8125 29.722656 -35.179688 28.359375 -36.078125 C 27.003906 -36.972656 25.117188 -37.421875 22.703125 -37.421875 C 17.328125 -37.421875 14.640625 -36.179688 14.640625 -33.703125 C 14.640625 -32.484375 15.519531 -31.515625 17.28125 -30.796875 C 19.039062 -30.078125 21.597656 -29.34375 24.953125 -28.59375 C 29.046875 -27.664062 32.390625 -26.722656 34.984375 -25.765625 C 37.585938 -24.816406 39.726562 -23.40625 41.40625 -21.53125 C 43.082031 -19.65625 43.921875 -17.15625 43.921875 -14.03125 C 43.921875 -11.488281 43.210938 -9.078125 41.796875 -6.796875 C 40.378906 -4.515625 38.140625 -2.632812 35.078125 -1.15625 C 32.015625 0.3125 28.144531 1.046875 23.46875 1.046875 C 18.21875 1.046875 13.582031 -0.078125 9.5625 -2.328125 C 5.550781 -4.585938 3.03125 -8.085938 2 -12.828125 L 13.859375 -14.640625 C 14.953125 -9.847656 18.15625 -7.453125 23.46875 -7.453125 C 25.550781 -7.453125 27.5 -7.8125 29.3125 -8.53125 C 31.132812 -9.25 32.046875 -10.535156 32.046875 -12.390625 C 32.046875 -13.597656 31.628906 -14.445312 30.796875 -14.9375 C 29.960938 -15.425781 28.617188 -15.875 26.765625 -16.28125 C 21.273438 -17.5 17 -18.625 13.9375 -19.65625 C 10.882812 -20.695312 8.40625 -22.195312 6.5 -24.15625 C 4.59375 -26.125 3.640625 -28.785156 3.640625 -32.140625 C 3.640625 -36.816406 5.425781 -40.28125 9 -42.53125 C 12.582031 -44.78125 17.117188 -45.90625 22.609375 -45.90625 Z M 22.609375 -45.90625 "/></g></g></g><g fill="#000000" fill-opacity="1"><g transform="translate(875.94092, 69.713092)"><g/></g></g><g fill="#000000" fill-opacity="1"><g transform="translate(900.015217, 69.713092)"><g><path d="M 18.71875 -44.875 L 26.765625 -44.875 L 26.765625 -35.421875 L 18.71875 -35.421875 L 18.71875 -15.671875 C 18.71875 -13.773438 18.785156 -12.363281 18.921875 -11.4375 C 19.066406 -10.507812 19.367188 -9.84375 19.828125 -9.4375 C 20.296875 -9.03125 21.019531 -8.828125 22 -8.828125 C 23.21875 -8.828125 24.804688 -9.207031 26.765625 -9.96875 L 27.8125 -0.78125 C 26.59375 -0.195312 25.117188 0.25 23.390625 0.5625 C 21.660156 0.882812 20.015625 1.046875 18.453125 1.046875 C 16.203125 1.046875 14.207031 0.671875 12.46875 -0.078125 C 10.738281 -0.835938 9.46875 -1.851562 8.65625 -3.125 C 7.789062 -4.5625 7.253906 -6.160156 7.046875 -7.921875 C 6.847656 -9.679688 6.75 -11.890625 6.75 -14.546875 L 6.75 -35.421875 L 1.296875 -35.421875 L 1.296875 -44.875 L 6.75 -44.875 L 6.75 -53.796875 L 18.71875 -60.8125 Z M 18.71875 -44.875 "/></g></g></g><g fill="#000000" fill-opacity="1"><g transform="translate(928.852445, 69.713092)"><g><path d="M 18.109375 -51.015625 L 6.234375 -51.015625 L 6.234375 -62.03125 L 18.109375 -62.03125 Z M 18.109375 0 L 6.234375 0 L 6.234375 -44.875 L 18.109375 -44.875 Z M 18.109375 0 "/></g></g></g><g fill="#000000" fill-opacity="1"><g transform="translate(952.926742, 69.713092)"><g><path d="M 30.3125 -45.90625 C 36.144531 -45.90625 40.390625 -43.539062 43.046875 -38.8125 C 46.921875 -43.539062 51.484375 -45.90625 56.734375 -45.90625 C 61.703125 -45.90625 65.398438 -44.546875 67.828125 -41.828125 C 70.253906 -39.117188 71.46875 -35.050781 71.46875 -29.625 L 71.46875 0 L 59.59375 0 L 59.59375 -26.859375 C 59.59375 -30.085938 59.175781 -32.550781 58.34375 -34.25 C 57.507812 -35.957031 55.820312 -36.8125 53.28125 -36.8125 C 50.851562 -36.8125 48.898438 -35.972656 47.421875 -34.296875 C 45.953125 -32.628906 45.046875 -30.46875 44.703125 -27.8125 C 44.472656 -25.726562 44.359375 -23.878906 44.359375 -22.265625 L 44.359375 0 L 32.484375 0 L 32.484375 -26.421875 C 32.484375 -30.054688 32.09375 -32.695312 31.3125 -34.34375 C 30.53125 -35.988281 28.867188 -36.8125 26.328125 -36.8125 C 24.484375 -36.8125 22.820312 -36.320312 21.34375 -35.34375 C 19.875 -34.363281 18.851562 -33.003906 18.28125 -31.265625 C 17.582031 -29.191406 17.234375 -26.273438 17.234375 -22.515625 L 17.234375 0 L 5.375 0 L 5.375 -44.875 L 16.375 -44.875 L 16.546875 -38.8125 C 18.390625 -41.0625 20.335938 -42.804688 22.390625 -44.046875 C 24.441406 -45.285156 27.082031 -45.90625 30.3125 -45.90625 Z M 30.3125 -45.90625 "/></g></g></g><g fill="#000000" fill-opacity="1"><g transform="translate(1029.912563, 69.713092)"><g><path d="M 23.390625 -45.90625 C 30.546875 -45.90625 35.882812 -43.582031 39.40625 -38.9375 C 42.9375 -34.289062 44.703125 -27.664062 44.703125 -19.0625 L 14.90625 -19.0625 C 15.019531 -16.050781 15.898438 -13.460938 17.546875 -11.296875 C 19.191406 -9.140625 21.570312 -8.0625 24.6875 -8.0625 C 26.65625 -8.0625 28.257812 -8.566406 29.5 -9.578125 C 30.738281 -10.585938 31.644531 -12.160156 32.21875 -14.296875 L 44.09375 -12.296875 C 42.59375 -7.910156 40.164062 -4.585938 36.8125 -2.328125 C 33.46875 -0.078125 29.367188 1.046875 24.515625 1.046875 C 17.296875 1.046875 11.835938 -1.117188 8.140625 -5.453125 C 6.410156 -7.472656 5.082031 -10.015625 4.15625 -13.078125 C 3.226562 -16.140625 2.765625 -19.171875 2.765625 -22.171875 C 2.765625 -26.273438 3.5 -30.128906 4.96875 -33.734375 C 6.445312 -37.347656 8.726562 -40.28125 11.8125 -42.53125 C 14.90625 -44.78125 18.765625 -45.90625 23.390625 -45.90625 Z M 15.15625 -26.328125 L 32.921875 -26.328125 C 32.859375 -29.972656 31.945312 -32.628906 30.1875 -34.296875 C 28.425781 -35.972656 26.363281 -36.8125 24 -36.8125 C 21.226562 -36.8125 19.0625 -35.816406 17.5 -33.828125 C 15.9375 -31.835938 15.15625 -29.335938 15.15625 -26.328125 Z M 15.15625 -26.328125 "/></g></g></g><g fill="#000000" fill-opacity="1"><g transform="translate(0.00000525, 146.689518)"><g><path d="M 18.71875 -44.875 L 26.765625 -44.875 L 26.765625 -35.421875 L 18.71875 -35.421875 L 18.71875 -15.671875 C 18.71875 -13.773438 18.785156 -12.363281 18.921875 -11.4375 C 19.066406 -10.507812 19.367188 -9.84375 19.828125 -9.4375 C 20.296875 -9.03125 21.019531 -8.828125 22 -8.828125 C 23.21875 -8.828125 24.804688 -9.207031 26.765625 -9.96875 L 27.8125 -0.78125 C 26.59375 -0.195312 25.117188 0.25 23.390625 0.5625 C 21.660156 0.882812 20.015625 1.046875 18.453125 1.046875 C 16.203125 1.046875 14.207031 0.671875 12.46875 -0.078125 C 10.738281 -0.835938 9.46875 -1.851562 8.65625 -3.125 C 7.789062 -4.5625 7.253906 -6.160156 7.046875 -7.921875 C 6.847656 -9.679688 6.75 -11.890625 6.75 -14.546875 L 6.75 -35.421875 L 1.296875 -35.421875 L 1.296875 -44.875 L 6.75 -44.875 L 6.75 -53.796875 L 18.71875 -60.8125 Z M 18.71875 -44.875 "/></g></g></g><g fill="#000000" fill-opacity="1"><g transform="translate(28.837234, 146.689518)"><g><path d="M 27.03125 -45.90625 C 28.300781 -45.90625 29.640625 -45.703125 31.046875 -45.296875 C 32.460938 -44.898438 33.722656 -44.382812 34.828125 -43.75 L 31.09375 -33.34375 C 29.070312 -34.613281 27.222656 -35.25 25.546875 -35.25 C 23.296875 -35.25 21.59375 -34.484375 20.4375 -32.953125 C 19.289062 -31.429688 18.523438 -29.296875 18.140625 -26.546875 C 17.765625 -23.804688 17.578125 -20.15625 17.578125 -15.59375 L 17.578125 0 L 5.71875 0 L 5.71875 -44.875 L 16.71875 -44.875 L 16.71875 -38.546875 L 16.890625 -38.546875 C 18.335938 -40.972656 19.78125 -42.804688 21.21875 -44.046875 C 22.664062 -45.285156 24.601562 -45.90625 27.03125 -45.90625 Z M 27.03125 -45.90625 "/></g></g></g><g fill="#000000" fill-opacity="1"><g transform="translate(62.52394, 146.689518)"><g><path d="M 23.734375 -45.90625 C 29.453125 -45.90625 33.695312 -45.171875 36.46875 -43.703125 C 39.238281 -42.234375 40.984375 -40.296875 41.703125 -37.890625 C 42.429688 -35.492188 42.765625 -32.332031 42.703125 -28.40625 L 42.625 -15.328125 C 42.5625 -11.234375 42.703125 -8.257812 43.046875 -6.40625 C 43.398438 -4.5625 44.125 -2.425781 45.21875 0 L 33.53125 0 C 33.238281 -0.632812 32.71875 -2.28125 31.96875 -4.9375 C 29.832031 -2.851562 27.625 -1.332031 25.34375 -0.375 C 23.0625 0.570312 20.617188 1.046875 18.015625 1.046875 C 13.566406 1.046875 9.972656 -0.179688 7.234375 -2.640625 C 4.492188 -5.097656 3.125 -8.289062 3.125 -12.21875 C 3.125 -15.507812 3.945312 -18.117188 5.59375 -20.046875 C 7.238281 -21.984375 9.242188 -23.382812 11.609375 -24.25 C 13.972656 -25.113281 16.773438 -25.863281 20.015625 -26.5 C 24.972656 -27.425781 28.640625 -28.351562 31.015625 -29.28125 L 31.015625 -31.1875 C 31.015625 -33.144531 30.4375 -34.570312 29.28125 -35.46875 C 28.125 -36.363281 26.015625 -36.8125 22.953125 -36.8125 C 20.585938 -36.8125 18.828125 -36.332031 17.671875 -35.375 C 16.515625 -34.425781 15.648438 -33.03125 15.078125 -31.1875 L 4.328125 -33.171875 C 5.484375 -37.566406 7.5625 -40.785156 10.5625 -42.828125 C 13.570312 -44.878906 17.960938 -45.90625 23.734375 -45.90625 Z M 23.5625 -19.65625 L 21.5625 -19.234375 C 17.175781 -18.304688 14.984375 -16.398438 14.984375 -13.515625 C 14.984375 -11.785156 15.601562 -10.328125 16.84375 -9.140625 C 18.09375 -7.953125 19.664062 -7.359375 21.5625 -7.359375 C 23.125 -7.359375 24.6875 -7.757812 26.25 -8.5625 C 27.8125 -9.375 29.023438 -10.445312 29.890625 -11.78125 C 30.640625 -12.988281 31.015625 -15.066406 31.015625 -18.015625 L 31.015625 -21.5625 C 28.765625 -20.875 26.28125 -20.238281 23.5625 -19.65625 Z M 23.5625 -19.65625 "/></g></g></g><g fill="#000000" fill-opacity="1"><g transform="translate(110.672534, 146.689518)"><g><path d="M 21.3125 -22.265625 L 22.953125 -16.984375 C 23.296875 -15.710938 23.554688 -14.84375 23.734375 -14.375 L 23.90625 -14.375 C 24.769531 -17.613281 25.578125 -20.15625 26.328125 -22 L 34.90625 -44.875 L 47.125 -44.875 L 29.28125 0 L 18.53125 0 L 0.4375 -44.875 L 12.90625 -44.875 Z M 21.3125 -22.265625 "/></g></g></g><g fill="#000000" fill-opacity="1"><g transform="translate(158.821128, 146.689518)"><g><path d="M 23.390625 -45.90625 C 30.546875 -45.90625 35.882812 -43.582031 39.40625 -38.9375 C 42.9375 -34.289062 44.703125 -27.664062 44.703125 -19.0625 L 14.90625 -19.0625 C 15.019531 -16.050781 15.898438 -13.460938 17.546875 -11.296875 C 19.191406 -9.140625 21.570312 -8.0625 24.6875 -8.0625 C 26.65625 -8.0625 28.257812 -8.566406 29.5 -9.578125 C 30.738281 -10.585938 31.644531 -12.160156 32.21875 -14.296875 L 44.09375 -12.296875 C 42.59375 -7.910156 40.164062 -4.585938 36.8125 -2.328125 C 33.46875 -0.078125 29.367188 1.046875 24.515625 1.046875 C 17.296875 1.046875 11.835938 -1.117188 8.140625 -5.453125 C 6.410156 -7.472656 5.082031 -10.015625 4.15625 -13.078125 C 3.226562 -16.140625 2.765625 -19.171875 2.765625 -22.171875 C 2.765625 -26.273438 3.5 -30.128906 4.96875 -33.734375 C 6.445312 -37.347656 8.726562 -40.28125 11.8125 -42.53125 C 14.90625 -44.78125 18.765625 -45.90625 23.390625 -45.90625 Z M 15.15625 -26.328125 L 32.921875 -26.328125 C 32.859375 -29.972656 31.945312 -32.628906 30.1875 -34.296875 C 28.425781 -35.972656 26.363281 -36.8125 24 -36.8125 C 21.226562 -36.8125 19.0625 -35.816406 17.5 -33.828125 C 15.9375 -31.835938 15.15625 -29.335938 15.15625 -26.328125 Z M 15.15625 -26.328125 "/></g></g></g><g fill="#000000" fill-opacity="1"><g transform="translate(206.969722, 146.689518)"><g><path d="M 18.109375 0 L 6.234375 0 L 6.234375 -62.03125 L 18.109375 -62.03125 Z M 18.109375 0 "/></g></g></g><g fill="#000000" fill-opacity="1"><g transform="translate(0.00000525, 296.590979)"><g><path d="M 22.796875 0.671875 C 19.390625 0.671875 16.332031 -0.144531 13.625 -1.78125 C 10.925781 -3.425781 8.769531 -6.03125 7.15625 -9.59375 C 5.550781 -13.15625 4.75 -17.679688 4.75 -23.171875 C 4.75 -28.671875 5.550781 -33.203125 7.15625 -36.765625 C 8.769531 -40.328125 10.925781 -42.925781 13.625 -44.5625 C 16.332031 -46.195312 19.390625 -47.015625 22.796875 -47.015625 C 26.203125 -47.015625 29.253906 -46.195312 31.953125 -44.5625 C 34.660156 -42.925781 36.8125 -40.328125 38.40625 -36.765625 C 40.007812 -33.203125 40.8125 -28.671875 40.8125 -23.171875 C 40.8125 -17.679688 40.007812 -13.15625 38.40625 -9.59375 C 36.8125 -6.03125 34.660156 -3.425781 31.953125 -1.78125 C 29.253906 -0.144531 26.203125 0.671875 22.796875 0.671875 Z M 22.796875 -4.375 C 26.835938 -4.375 29.894531 -5.828125 31.96875 -8.734375 C 34.050781 -11.640625 35.09375 -16.453125 35.09375 -23.171875 C 35.09375 -29.898438 34.050781 -34.71875 31.96875 -37.625 C 29.894531 -40.53125 26.835938 -41.984375 22.796875 -41.984375 C 20.128906 -41.984375 17.882812 -41.367188 16.0625 -40.140625 C 14.25 -38.910156 12.863281 -36.910156 11.90625 -34.140625 C 10.945312 -31.378906 10.46875 -27.722656 10.46875 -23.171875 C 10.46875 -18.628906 10.945312 -14.972656 11.90625 -12.203125 C 12.863281 -9.429688 14.25 -7.429688 16.0625 -6.203125 C 17.882812 -4.984375 20.128906 -4.375 22.796875 -4.375 Z M 22.796875 -4.375 "/></g></g></g><g fill="#000000" fill-opacity="1"><g transform="translate(45.559297, 296.590979)"><g><path d="M 12.59375 0 L 7.296875 0 L 24.515625 -41.0625 L 24.3125 -41.734375 L 1.71875 -41.734375 L 1.71875 -46.359375 L 30 -46.359375 L 30 -41.34375 Z M 12.59375 0 "/></g></g></g><g fill="#000000" fill-opacity="1"><g transform="translate(77.558522, 296.590979)"><g/></g></g><g fill="#000000" fill-opacity="1"><g transform="translate(93.463087, 296.590979)"><g><path d="M 41.734375 0 L 35.890625 0 L 31.609375 -12.71875 L 11.859375 -12.71875 L 7.546875 0 L 1.84375 0 L 18.015625 -46.359375 L 25.5625 -46.359375 Z M 21.34375 -40.75 L 13.375 -17.28125 L 30.0625 -17.28125 L 22.125 -40.75 Z M 21.34375 -40.75 "/></g></g></g><g fill="#000000" fill-opacity="1"><g transform="translate(136.994706, 296.590979)"><g><path d="M 17.28125 0.671875 C 13.320312 0.671875 10.375 -0.375 8.4375 -2.46875 C 6.507812 -4.5625 5.546875 -7.628906 5.546875 -11.671875 L 5.546875 -34.96875 L 10.71875 -34.96875 L 10.71875 -11.796875 C 10.71875 -6.492188 13.210938 -3.84375 18.203125 -3.84375 C 21.367188 -3.84375 23.867188 -4.875 25.703125 -6.9375 C 27.546875 -9.007812 28.46875 -12.375 28.46875 -17.03125 L 28.46875 -34.96875 L 33.640625 -34.96875 L 33.640625 0 L 28.765625 0 L 28.765625 -5.484375 L 28.09375 -5.640625 C 26.882812 -3.503906 25.441406 -1.914062 23.765625 -0.875 C 22.085938 0.15625 19.925781 0.671875 17.28125 0.671875 Z M 17.28125 0.671875 "/></g></g></g><g fill="#000000" fill-opacity="1"><g transform="translate(176.692785, 296.590979)"><g><path d="M 18.015625 14.84375 C 12.492188 14.84375 8.460938 13.921875 5.921875 12.078125 C 3.390625 10.242188 2.125 7.800781 2.125 4.75 C 2.125 2.789062 2.710938 1.226562 3.890625 0.0625 C 5.078125 -1.101562 6.800781 -1.9375 9.0625 -2.4375 L 9.0625 -3.109375 C 7.988281 -3.722656 7.179688 -4.441406 6.640625 -5.265625 C 6.097656 -6.085938 5.828125 -7.070312 5.828125 -8.21875 C 5.828125 -9.5625 6.253906 -10.65625 7.109375 -11.5 C 7.972656 -12.351562 9.25 -13 10.9375 -13.4375 L 10.9375 -14.109375 C 7.132812 -16.117188 5.234375 -19.382812 5.234375 -23.90625 C 5.234375 -26.1875 5.75 -28.210938 6.78125 -29.984375 C 7.820312 -31.765625 9.300781 -33.148438 11.21875 -34.140625 C 13.144531 -35.140625 15.390625 -35.640625 17.953125 -35.640625 C 20.890625 -35.640625 23.335938 -34.992188 25.296875 -33.703125 C 26.035156 -34.523438 26.585938 -35.40625 26.953125 -36.34375 C 27.328125 -37.289062 27.570312 -38.359375 27.6875 -39.546875 L 28.34375 -39.953125 L 32.59375 -38.9375 C 32.382812 -37.164062 31.847656 -35.664062 30.984375 -34.4375 C 30.128906 -33.207031 28.921875 -32.191406 27.359375 -31.390625 L 27.359375 -30.71875 C 28.484375 -29.832031 29.3125 -28.789062 29.84375 -27.59375 C 30.382812 -26.40625 30.65625 -25.019531 30.65625 -23.4375 C 30.65625 -21.238281 30.125 -19.257812 29.0625 -17.5 C 28.007812 -15.75 26.519531 -14.367188 24.59375 -13.359375 C 22.675781 -12.359375 20.460938 -11.859375 17.953125 -11.859375 C 17.648438 -11.859375 17.117188 -11.878906 16.359375 -11.921875 C 15.515625 -11.960938 14.890625 -11.984375 14.484375 -11.984375 C 13.390625 -11.984375 12.515625 -11.695312 11.859375 -11.125 C 11.203125 -10.550781 10.875 -9.820312 10.875 -8.9375 C 10.875 -7.84375 11.226562 -7.035156 11.9375 -6.515625 C 12.644531 -5.992188 13.8125 -5.703125 15.4375 -5.640625 L 23.71875 -5.359375 C 27.289062 -5.234375 29.9375 -4.40625 31.65625 -2.875 C 33.382812 -1.34375 34.25 0.828125 34.25 3.640625 C 34.25 5.734375 33.6875 7.617188 32.5625 9.296875 C 31.445312 10.984375 29.671875 12.328125 27.234375 13.328125 C 24.804688 14.335938 21.734375 14.84375 18.015625 14.84375 Z M 17.953125 -16.296875 C 20.421875 -16.296875 22.332031 -16.941406 23.6875 -18.234375 C 25.039062 -19.523438 25.71875 -21.332031 25.71875 -23.65625 C 25.71875 -26.0625 25.046875 -27.921875 23.703125 -29.234375 C 22.359375 -30.546875 20.441406 -31.203125 17.953125 -31.203125 C 15.453125 -31.203125 13.546875 -30.550781 12.234375 -29.25 C 10.921875 -27.945312 10.265625 -26.082031 10.265625 -23.65625 C 10.265625 -21.3125 10.921875 -19.5 12.234375 -18.21875 C 13.546875 -16.9375 15.453125 -16.296875 17.953125 -16.296875 Z M 18.015625 10.40625 C 20.585938 10.40625 22.691406 10.117188 24.328125 9.546875 C 25.972656 8.972656 27.15625 8.210938 27.875 7.265625 C 28.59375 6.328125 28.953125 5.28125 28.953125 4.125 C 28.953125 3.082031 28.753906 2.242188 28.359375 1.609375 C 27.972656 0.984375 27.34375 0.507812 26.46875 0.1875 C 25.601562 -0.125 24.421875 -0.320312 22.921875 -0.40625 L 15.09375 -0.796875 L 13.984375 -0.796875 C 9.609375 -0.734375 7.421875 0.96875 7.421875 4.3125 C 7.421875 8.375 10.953125 10.40625 18.015625 10.40625 Z M 18.015625 10.40625 "/></g></g></g><g fill="#000000" fill-opacity="1"><g transform="translate(212.493897, 296.590979)"><g/></g></g><g fill="#000000" fill-opacity="1"><g transform="translate(228.398463, 296.590979)"><g><path d="M 2.796875 -2.125 C 2.796875 -4.6875 3.070312 -6.75 3.625 -8.3125 C 4.1875 -9.875 5.144531 -11.332031 6.5 -12.6875 C 7.851562 -14.039062 10.007812 -15.796875 12.96875 -17.953125 L 18.078125 -21.65625 C 19.953125 -23.03125 21.484375 -24.296875 22.671875 -25.453125 C 23.859375 -26.617188 24.789062 -27.882812 25.46875 -29.25 C 26.15625 -30.613281 26.5 -32.140625 26.5 -33.828125 C 26.5 -36.578125 25.769531 -38.648438 24.3125 -40.046875 C 22.851562 -41.441406 20.570312 -42.140625 17.46875 -42.140625 C 15.019531 -42.140625 12.84375 -41.566406 10.9375 -40.421875 C 9.03125 -39.285156 7.507812 -37.671875 6.375 -35.578125 L 5.640625 -35.453125 L 2.375 -38.875 C 3.9375 -41.40625 5.988281 -43.394531 8.53125 -44.84375 C 11.082031 -46.289062 14.0625 -47.015625 17.46875 -47.015625 C 20.769531 -47.015625 23.507812 -46.453125 25.6875 -45.328125 C 27.863281 -44.210938 29.46875 -42.664062 30.5 -40.6875 C 31.539062 -38.71875 32.0625 -36.429688 32.0625 -33.828125 C 32.0625 -31.753906 31.625 -29.816406 30.75 -28.015625 C 29.882812 -26.222656 28.660156 -24.535156 27.078125 -22.953125 C 25.492188 -21.367188 23.507812 -19.703125 21.125 -17.953125 L 15.953125 -14.171875 C 14.023438 -12.753906 12.539062 -11.546875 11.5 -10.546875 C 10.46875 -9.554688 9.710938 -8.59375 9.234375 -7.65625 C 8.765625 -6.71875 8.53125 -5.664062 8.53125 -4.5 L 32.0625 -4.5 L 32.0625 0 L 2.796875 0 Z M 2.796875 -2.125 "/></g></g></g><g fill="#000000" fill-opacity="1"><g transform="translate(264.009481, 296.590979)"><g><path d="M 22.796875 0.671875 C 19.390625 0.671875 16.332031 -0.144531 13.625 -1.78125 C 10.925781 -3.425781 8.769531 -6.03125 7.15625 -9.59375 C 5.550781 -13.15625 4.75 -17.679688 4.75 -23.171875 C 4.75 -28.671875 5.550781 -33.203125 7.15625 -36.765625 C 8.769531 -40.328125 10.925781 -42.925781 13.625 -44.5625 C 16.332031 -46.195312 19.390625 -47.015625 22.796875 -47.015625 C 26.203125 -47.015625 29.253906 -46.195312 31.953125 -44.5625 C 34.660156 -42.925781 36.8125 -40.328125 38.40625 -36.765625 C 40.007812 -33.203125 40.8125 -28.671875 40.8125 -23.171875 C 40.8125 -17.679688 40.007812 -13.15625 38.40625 -9.59375 C 36.8125 -6.03125 34.660156 -3.425781 31.953125 -1.78125 C 29.253906 -0.144531 26.203125 0.671875 22.796875 0.671875 Z M 22.796875 -4.375 C 26.835938 -4.375 29.894531 -5.828125 31.96875 -8.734375 C 34.050781 -11.640625 35.09375 -16.453125 35.09375 -23.171875 C 35.09375 -29.898438 34.050781 -34.71875 31.96875 -37.625 C 29.894531 -40.53125 26.835938 -41.984375 22.796875 -41.984375 C 20.128906 -41.984375 17.882812 -41.367188 16.0625 -40.140625 C 14.25 -38.910156 12.863281 -36.910156 11.90625 -34.140625 C 10.945312 -31.378906 10.46875 -27.722656 10.46875 -23.171875 C 10.46875 -18.628906 10.945312 -14.972656 11.90625 -12.203125 C 12.863281 -9.429688 14.25 -7.429688 16.0625 -6.203125 C 17.882812 -4.984375 20.128906 -4.375 22.796875 -4.375 Z M 22.796875 -4.375 "/></g></g></g><g fill="#000000" fill-opacity="1"><g transform="translate(309.568773, 296.590979)"><g><path d="M 2.796875 -2.125 C 2.796875 -4.6875 3.070312 -6.75 3.625 -8.3125 C 4.1875 -9.875 5.144531 -11.332031 6.5 -12.6875 C 7.851562 -14.039062 10.007812 -15.796875 12.96875 -17.953125 L 18.078125 -21.65625 C 19.953125 -23.03125 21.484375 -24.296875 22.671875 -25.453125 C 23.859375 -26.617188 24.789062 -27.882812 25.46875 -29.25 C 26.15625 -30.613281 26.5 -32.140625 26.5 -33.828125 C 26.5 -36.578125 25.769531 -38.648438 24.3125 -40.046875 C 22.851562 -41.441406 20.570312 -42.140625 17.46875 -42.140625 C 15.019531 -42.140625 12.84375 -41.566406 10.9375 -40.421875 C 9.03125 -39.285156 7.507812 -37.671875 6.375 -35.578125 L 5.640625 -35.453125 L 2.375 -38.875 C 3.9375 -41.40625 5.988281 -43.394531 8.53125 -44.84375 C 11.082031 -46.289062 14.0625 -47.015625 17.46875 -47.015625 C 20.769531 -47.015625 23.507812 -46.453125 25.6875 -45.328125 C 27.863281 -44.210938 29.46875 -42.664062 30.5 -40.6875 C 31.539062 -38.71875 32.0625 -36.429688 32.0625 -33.828125 C 32.0625 -31.753906 31.625 -29.816406 30.75 -28.015625 C 29.882812 -26.222656 28.660156 -24.535156 27.078125 -22.953125 C 25.492188 -21.367188 23.507812 -19.703125 21.125 -17.953125 L 15.953125 -14.171875 C 14.023438 -12.753906 12.539062 -11.546875 11.5 -10.546875 C 10.46875 -9.554688 9.710938 -8.59375 9.234375 -7.65625 C 8.765625 -6.71875 8.53125 -5.664062 8.53125 -4.5 L 32.0625 -4.5 L 32.0625 0 L 2.796875 0 Z M 2.796875 -2.125 "/></g></g></g><g fill="#000000" fill-opacity="1"><g transform="translate(345.179791, 296.590979)"><g><path d="M 2.796875 -2.125 C 2.796875 -4.6875 3.070312 -6.75 3.625 -8.3125 C 4.1875 -9.875 5.144531 -11.332031 6.5 -12.6875 C 7.851562 -14.039062 10.007812 -15.796875 12.96875 -17.953125 L 18.078125 -21.65625 C 19.953125 -23.03125 21.484375 -24.296875 22.671875 -25.453125 C 23.859375 -26.617188 24.789062 -27.882812 25.46875 -29.25 C 26.15625 -30.613281 26.5 -32.140625 26.5 -33.828125 C 26.5 -36.578125 25.769531 -38.648438 24.3125 -40.046875 C 22.851562 -41.441406 20.570312 -42.140625 17.46875 -42.140625 C 15.019531 -42.140625 12.84375 -41.566406 10.9375 -40.421875 C 9.03125 -39.285156 7.507812 -37.671875 6.375 -35.578125 L 5.640625 -35.453125 L 2.375 -38.875 C 3.9375 -41.40625 5.988281 -43.394531 8.53125 -44.84375 C 11.082031 -46.289062 14.0625 -47.015625 17.46875 -47.015625 C 20.769531 -47.015625 23.507812 -46.453125 25.6875 -45.328125 C 27.863281 -44.210938 29.46875 -42.664062 30.5 -40.6875 C 31.539062 -38.71875 32.0625 -36.429688 32.0625 -33.828125 C 32.0625 -31.753906 31.625 -29.816406 30.75 -28.015625 C 29.882812 -26.222656 28.660156 -24.535156 27.078125 -22.953125 C 25.492188 -21.367188 23.507812 -19.703125 21.125 -17.953125 L 15.953125 -14.171875 C 14.023438 -12.753906 12.539062 -11.546875 11.5 -10.546875 C 10.46875 -9.554688 9.710938 -8.59375 9.234375 -7.65625 C 8.765625 -6.71875 8.53125 -5.664062 8.53125 -4.5 L 32.0625 -4.5 L 32.0625 0 L 2.796875 0 Z M 2.796875 -2.125 "/></g></g></g><g fill="#000000" fill-opacity="1"><g transform="translate(380.790809, 296.590979)"><g/></g></g><g fill="#000000" fill-opacity="1"><g transform="translate(396.695374, 296.590979)"><g><path d="M 21.34375 -20.203125 L 3.296875 -20.203125 L 3.296875 -24.828125 L 21.34375 -24.828125 Z M 21.34375 -20.203125 "/></g></g></g><g fill="#000000" fill-opacity="1"><g transform="translate(421.280917, 296.590979)"><g/></g></g><g fill="#000000" fill-opacity="1"><g transform="translate(437.185482, 296.590979)"><g><path d="M 29.015625 0 L 23.84375 0 L 23.84375 -11.0625 L 2.125 -11.0625 L 2.125 -15.4375 L 22.578125 -46.359375 L 29.015625 -46.359375 L 29.015625 -15.4375 L 37.03125 -15.4375 L 37.03125 -11.0625 L 29.015625 -11.0625 Z M 8.53125 -16.109375 L 8.8125 -15.4375 L 23.84375 -15.4375 L 23.84375 -38.8125 L 23.109375 -38.9375 Z M 8.53125 -16.109375 "/></g></g></g><g fill="#000000" fill-opacity="1"><g transform="translate(476.440007, 296.590979)"><g/></g></g><g fill="#000000" fill-opacity="1"><g transform="translate(492.344572, 296.590979)"><g><path d="M 6.09375 0 L 6.09375 -49.015625 L 11.25 -49.015625 L 11.25 -30 L 11.921875 -29.875 C 14.410156 -33.71875 18.015625 -35.640625 22.734375 -35.640625 C 26.941406 -35.640625 29.988281 -34.566406 31.875 -32.421875 C 33.769531 -30.273438 34.71875 -26.972656 34.71875 -22.515625 L 34.71875 0 L 29.546875 0 L 29.546875 -22.390625 C 29.546875 -24.503906 29.273438 -26.195312 28.734375 -27.46875 C 28.203125 -28.75 27.367188 -29.679688 26.234375 -30.265625 C 25.109375 -30.847656 23.625 -31.140625 21.78125 -31.140625 C 18.613281 -31.140625 16.066406 -30.113281 14.140625 -28.0625 C 12.210938 -26.007812 11.25 -22.640625 11.25 -17.953125 L 11.25 0 Z M 6.09375 0 "/></g></g></g><g fill="#000000" fill-opacity="1"><g transform="translate(532.581221, 296.590979)"><g><path d="M 20.078125 0.671875 C 16.773438 0.671875 13.898438 -0.0234375 11.453125 -1.421875 C 9.015625 -2.816406 7.132812 -4.875 5.8125 -7.59375 C 4.5 -10.3125 3.84375 -13.601562 3.84375 -17.46875 C 3.84375 -21.34375 4.5 -24.640625 5.8125 -27.359375 C 7.132812 -30.085938 9.015625 -32.148438 11.453125 -33.546875 C 13.898438 -34.941406 16.773438 -35.640625 20.078125 -35.640625 C 23.367188 -35.640625 26.234375 -34.941406 28.671875 -33.546875 C 31.117188 -32.148438 33.003906 -30.085938 34.328125 -27.359375 C 35.648438 -24.640625 36.3125 -21.34375 36.3125 -17.46875 C 36.3125 -13.601562 35.648438 -10.3125 34.328125 -7.59375 C 33.003906 -4.875 31.117188 -2.816406 28.671875 -1.421875 C 26.234375 -0.0234375 23.367188 0.671875 20.078125 0.671875 Z M 20.078125 -3.96875 C 23.554688 -3.96875 26.222656 -5.066406 28.078125 -7.265625 C 29.929688 -9.460938 30.859375 -12.863281 30.859375 -17.46875 C 30.859375 -22.101562 29.929688 -25.519531 28.078125 -27.71875 C 26.222656 -29.914062 23.554688 -31.015625 20.078125 -31.015625 C 16.585938 -31.015625 13.910156 -29.910156 12.046875 -27.703125 C 10.191406 -25.492188 9.265625 -22.082031 9.265625 -17.46875 C 9.265625 -12.863281 10.191406 -9.460938 12.046875 -7.265625 C 13.910156 -5.066406 16.585938 -3.96875 20.078125 -3.96875 Z M 20.078125 -3.96875 "/></g></g></g><g fill="#000000" fill-opacity="1"><g transform="translate(572.69114, 296.590979)"><g><path d="M 17.28125 0.671875 C 13.320312 0.671875 10.375 -0.375 8.4375 -2.46875 C 6.507812 -4.5625 5.546875 -7.628906 5.546875 -11.671875 L 5.546875 -34.96875 L 10.71875 -34.96875 L 10.71875 -11.796875 C 10.71875 -6.492188 13.210938 -3.84375 18.203125 -3.84375 C 21.367188 -3.84375 23.867188 -4.875 25.703125 -6.9375 C 27.546875 -9.007812 28.46875 -12.375 28.46875 -17.03125 L 28.46875 -34.96875 L 33.640625 -34.96875 L 33.640625 0 L 28.765625 0 L 28.765625 -5.484375 L 28.09375 -5.640625 C 26.882812 -3.503906 25.441406 -1.914062 23.765625 -0.875 C 22.085938 0.15625 19.925781 0.671875 17.28125 0.671875 Z M 17.28125 0.671875 "/></g></g></g><g fill="#000000" fill-opacity="1"><g transform="translate(612.389219, 296.590979)"><g><path d="M 6.09375 0 L 6.09375 -34.96875 L 11 -34.96875 L 11 -29.484375 L 11.671875 -29.328125 C 13.296875 -33.304688 16.359375 -35.296875 20.859375 -35.296875 C 23.253906 -35.296875 25.039062 -34.859375 26.21875 -33.984375 L 24.890625 -29.609375 L 24.25 -29.484375 C 22.945312 -30.140625 21.507812 -30.46875 19.9375 -30.46875 C 17.15625 -30.46875 15.007812 -29.421875 13.5 -27.328125 C 12 -25.234375 11.25 -21.84375 11.25 -17.15625 L 11.25 0 Z M 6.09375 0 "/></g></g></g><g fill="#000000" fill-opacity="1"><g transform="translate(639.382624, 296.590979)"><g><path d="M 15.953125 0.671875 C 13.753906 0.671875 11.71875 0.378906 9.84375 -0.203125 C 7.976562 -0.785156 6.398438 -1.582031 5.109375 -2.59375 C 3.816406 -3.613281 2.90625 -4.757812 2.375 -6.03125 L 5.421875 -9.1875 L 6.09375 -9.1875 C 7.226562 -7.457031 8.597656 -6.15625 10.203125 -5.28125 C 11.816406 -4.40625 13.734375 -3.96875 15.953125 -3.96875 C 18.523438 -3.96875 20.484375 -4.46875 21.828125 -5.46875 C 23.171875 -6.46875 23.84375 -7.867188 23.84375 -9.671875 C 23.84375 -11.046875 23.4375 -12.179688 22.625 -13.078125 C 21.8125 -13.972656 20.492188 -14.644531 18.671875 -15.09375 L 12.78125 -16.546875 C 9.625 -17.304688 7.320312 -18.507812 5.875 -20.15625 C 4.425781 -21.8125 3.703125 -23.851562 3.703125 -26.28125 C 3.703125 -28.1875 4.1875 -29.84375 5.15625 -31.25 C 6.132812 -32.65625 7.535156 -33.738281 9.359375 -34.5 C 11.191406 -35.257812 13.367188 -35.640625 15.890625 -35.640625 C 19.097656 -35.640625 21.625 -35.1875 23.46875 -34.28125 C 25.320312 -33.382812 26.769531 -32.132812 27.8125 -30.53125 L 24.890625 -27.6875 L 24.25 -27.6875 C 23.132812 -28.96875 21.914062 -29.894531 20.59375 -30.46875 C 19.269531 -31.039062 17.703125 -31.328125 15.890625 -31.328125 C 13.578125 -31.328125 11.804688 -30.914062 10.578125 -30.09375 C 9.359375 -29.269531 8.75 -28.070312 8.75 -26.5 C 8.75 -25.09375 9.179688 -23.953125 10.046875 -23.078125 C 10.910156 -22.210938 12.421875 -21.515625 14.578125 -20.984375 L 20.390625 -19.59375 C 23.429688 -18.875 25.628906 -17.675781 26.984375 -16 C 28.335938 -14.332031 29.015625 -12.242188 29.015625 -9.734375 C 29.015625 -7.679688 28.523438 -5.875 27.546875 -4.3125 C 26.578125 -2.75 25.109375 -1.523438 23.140625 -0.640625 C 21.179688 0.234375 18.785156 0.671875 15.953125 0.671875 Z M 15.953125 0.671875 "/></g></g></g><g fill="#000000" fill-opacity="1"><g transform="translate(0.00000525, 466.749394)"><g><path d="M 15.09375 -58.703125 L 17.296875 -54.078125 C 15.179688 -53.421875 13.609375 -52.429688 12.578125 -51.109375 C 11.554688 -49.785156 11.015625 -47.984375 10.953125 -45.703125 L 16.3125 -45.703125 L 16.3125 -34.578125 L 5.203125 -34.578125 L 5.203125 -43.515625 C 5.203125 -47.578125 5.957031 -50.785156 7.46875 -53.140625 C 8.988281 -55.492188 11.53125 -57.347656 15.09375 -58.703125 Z M 33.78125 -58.703125 L 35.96875 -54.078125 C 33.800781 -53.421875 32.226562 -52.414062 31.25 -51.0625 C 30.28125 -49.707031 29.742188 -47.921875 29.640625 -45.703125 L 34.984375 -45.703125 L 34.984375 -34.578125 L 23.875 -34.578125 L 23.875 -43.59375 C 23.875 -47.65625 24.644531 -50.847656 26.1875 -53.171875 C 27.726562 -55.503906 30.257812 -57.347656 33.78125 -58.703125 Z M 33.78125 -58.703125 "/></g></g></g><g fill="#000000" fill-opacity="1"><g transform="translate(40.577155, 466.749394)"><g><path d="M 26.21875 -59.109375 C 32.664062 -59.109375 37.929688 -57.671875 42.015625 -54.796875 C 46.097656 -51.929688 48.25 -47.492188 48.46875 -41.484375 L 36.703125 -41 C 36.316406 -43.707031 35.328125 -45.789062 33.734375 -47.25 C 32.140625 -48.707031 29.582031 -49.4375 26.0625 -49.4375 C 23.625 -49.4375 21.375 -49.003906 19.3125 -48.140625 C 17.257812 -47.273438 16.234375 -45.785156 16.234375 -43.671875 C 16.234375 -41.890625 17.15625 -40.46875 19 -39.40625 C 20.84375 -38.351562 24.117188 -37.285156 28.828125 -36.203125 C 33.203125 -35.179688 36.8125 -34.085938 39.65625 -32.921875 C 42.5 -31.753906 44.945312 -29.882812 47 -27.3125 C 49.0625 -24.75 50.09375 -21.273438 50.09375 -16.890625 C 50.09375 -14.671875 49.578125 -12.316406 48.546875 -9.828125 C 47.515625 -7.335938 45.835938 -5.195312 43.515625 -3.40625 C 41.785156 -2 39.5 -0.914062 36.65625 -0.15625 C 33.8125 0.59375 30.523438 0.96875 26.796875 0.96875 C 19.535156 0.96875 13.957031 -0.664062 10.0625 -3.9375 C 6.164062 -7.207031 3.785156 -12.203125 2.921875 -18.921875 L 14.28125 -19.96875 C 15.53125 -12.550781 19.753906 -8.84375 26.953125 -8.84375 C 30.742188 -8.84375 33.597656 -9.640625 35.515625 -11.234375 C 37.441406 -12.835938 38.40625 -14.722656 38.40625 -16.890625 C 38.40625 -18.453125 37.929688 -19.691406 36.984375 -20.609375 C 36.035156 -21.535156 34.546875 -22.335938 32.515625 -23.015625 C 30.484375 -23.691406 27.300781 -24.546875 22.96875 -25.578125 C 17.5625 -26.765625 13.21875 -28.765625 9.9375 -31.578125 C 6.664062 -34.390625 5.03125 -38.148438 5.03125 -42.859375 C 5.03125 -45.410156 5.679688 -47.914062 6.984375 -50.375 C 8.285156 -52.84375 10.515625 -54.914062 13.671875 -56.59375 C 16.835938 -58.269531 21.019531 -59.109375 26.21875 -59.109375 Z M 26.21875 -59.109375 "/></g></g></g><g fill="#000000" fill-opacity="1"><g transform="translate(94.707077, 466.749394)"><g><path d="M 17.78125 -48.46875 C 20.863281 -49.875 24.191406 -51.335938 27.765625 -52.859375 L 29.875 -45.625 C 26.46875 -44.925781 23.054688 -44.273438 19.640625 -43.671875 C 19.703125 -43.566406 19.945312 -43.269531 20.375 -42.78125 C 20.8125 -42.300781 21.273438 -41.816406 21.765625 -41.328125 L 24.109375 -38.71875 L 26.625 -35.71875 L 20.625 -31.65625 L 19.890625 -32.875 C 17.722656 -36.289062 16.179688 -38.835938 15.265625 -40.515625 L 13.96875 -38.328125 C 13.039062 -36.703125 11.632812 -34.398438 9.75 -31.421875 L 3.734375 -36.046875 L 4.875 -37.265625 C 5.957031 -38.566406 6.847656 -39.539062 7.546875 -40.1875 L 11.203125 -43.671875 C 5.734375 -44.921875 2.378906 -45.765625 1.140625 -46.203125 L 3.40625 -53.171875 C 4.875 -52.578125 6.550781 -51.804688 8.4375 -50.859375 C 10.332031 -49.910156 11.769531 -49.140625 12.75 -48.546875 C 12.09375 -52.828125 11.765625 -56.347656 11.765625 -59.109375 L 18.828125 -59.109375 C 18.828125 -56.941406 18.476562 -53.394531 17.78125 -48.46875 Z M 17.78125 -48.46875 "/></g></g></g><g fill="#000000" fill-opacity="1"><g transform="translate(126.276101, 466.749394)"><g><path d="M 17.78125 -48.46875 C 20.863281 -49.875 24.191406 -51.335938 27.765625 -52.859375 L 29.875 -45.625 C 26.46875 -44.925781 23.054688 -44.273438 19.640625 -43.671875 C 19.703125 -43.566406 19.945312 -43.269531 20.375 -42.78125 C 20.8125 -42.300781 21.273438 -41.816406 21.765625 -41.328125 L 24.109375 -38.71875 L 26.625 -35.71875 L 20.625 -31.65625 L 19.890625 -32.875 C 17.722656 -36.289062 16.179688 -38.835938 15.265625 -40.515625 L 13.96875 -38.328125 C 13.039062 -36.703125 11.632812 -34.398438 9.75 -31.421875 L 3.734375 -36.046875 L 4.875 -37.265625 C 5.957031 -38.566406 6.847656 -39.539062 7.546875 -40.1875 L 11.203125 -43.671875 C 5.734375 -44.921875 2.378906 -45.765625 1.140625 -46.203125 L 3.40625 -53.171875 C 4.875 -52.578125 6.550781 -51.804688 8.4375 -50.859375 C 10.332031 -49.910156 11.769531 -49.140625 12.75 -48.546875 C 12.09375 -52.828125 11.765625 -56.347656 11.765625 -59.109375 L 18.828125 -59.109375 C 18.828125 -56.941406 18.476562 -53.394531 17.78125 -48.46875 Z M 17.78125 -48.46875 "/></g></g></g><g fill="#000000" fill-opacity="1"><g transform="translate(157.845125, 466.749394)"><g><path d="M 47.8125 -48.3125 L 30.609375 -48.3125 L 30.609375 0 L 18.921875 0 L 18.921875 -48.3125 L 1.703125 -48.3125 L 1.703125 -58.125 L 47.8125 -58.125 Z M 47.8125 -48.3125 "/></g></g></g><g fill="#000000" fill-opacity="1"><g transform="translate(207.4304, 466.749394)"><g/></g></g><g fill="#000000" fill-opacity="1"><g transform="translate(229.991298, 466.749394)"><g><path d="M 19.40625 -44.484375 L 16.5625 -15.015625 L 10.234375 -15.015625 L 7.3125 -44.484375 L 7.3125 -58.125 L 19.40625 -58.125 Z M 18.921875 0 L 7.796875 0 L 7.796875 -11.125 L 18.921875 -11.125 Z M 18.921875 0 "/></g></g></g><g fill="#000000" fill-opacity="1"><g transform="translate(257.015675, 466.749394)"><g><path d="M 16.234375 -49.203125 C 16.234375 -45.140625 15.472656 -41.929688 13.953125 -39.578125 C 12.441406 -37.222656 9.898438 -35.367188 6.328125 -34.015625 L 4.140625 -38.640625 C 6.253906 -39.296875 7.8125 -40.285156 8.8125 -41.609375 C 9.8125 -42.929688 10.363281 -44.726562 10.46875 -47 L 5.109375 -47 L 5.109375 -58.125 L 16.234375 -58.125 Z M 34.90625 -49.203125 C 34.90625 -45.140625 34.144531 -41.929688 32.625 -39.578125 C 31.113281 -37.222656 28.570312 -35.367188 25 -34.015625 L 22.8125 -38.640625 C 24.925781 -39.296875 26.484375 -40.285156 27.484375 -41.609375 C 28.484375 -42.929688 29.035156 -44.726562 29.140625 -47 L 23.78125 -47 L 23.78125 -58.125 L 34.90625 -58.125 Z M 34.90625 -49.203125 "/></g></g></g></svg>