<svg xmlns="http://www.w3.org/2000/svg" xmlns:xlink="http://www.w3.org/1999/xlink" width="1620" zoomAndPan="magnify" viewBox="0 0 1215 809.999993" height="1080" preserveAspectRatio="xMidYMid meet" version="1.0"><defs><g/></defs><g fill="#000000" fill-opacity="1"><g transform="translate(0.00000525, 70.743654)"><g><path d="M 48.9375 -51.546875 L 18.890625 -51.546875 L 18.890625 -36.8125 L 44.875 -36.8125 L 44.875 -26.328125 L 18.890625 -26.328125 L 18.890625 0 L 6.40625 0 L 6.40625 -62.03125 L 48.9375 -62.03125 Z M 48.9375 -51.546875 "/></g></g></g><g fill="#000000" fill-opacity="1"><g transform="translate(52.920768, 70.743654)"><g><path d="M 26.59375 -45.90625 C 31.445312 -45.90625 35.632812 -44.804688 39.15625 -42.609375 C 42.675781 -40.421875 45.332031 -37.535156 47.125 -33.953125 C 48.914062 -30.378906 49.8125 -26.597656 49.8125 -22.609375 C 49.8125 -18.453125 48.867188 -14.566406 46.984375 -10.953125 C 45.109375 -7.347656 42.425781 -4.445312 38.9375 -2.25 C 35.445312 -0.0507812 31.363281 1.046875 26.6875 1.046875 C 22.695312 1.046875 18.941406 0.222656 15.421875 -1.421875 C 11.898438 -3.066406 9.023438 -5.691406 6.796875 -9.296875 C 4.578125 -12.910156 3.46875 -17.492188 3.46875 -23.046875 C 3.46875 -26.910156 4.347656 -30.585938 6.109375 -34.078125 C 7.867188 -37.578125 10.492188 -40.421875 13.984375 -42.609375 C 17.484375 -44.804688 21.6875 -45.90625 26.59375 -45.90625 Z M 15.671875 -22.4375 C 15.671875 -17.925781 16.722656 -14.5 18.828125 -12.15625 C 20.941406 -9.820312 23.53125 -8.65625 26.59375 -8.65625 C 29.65625 -8.65625 32.253906 -9.8125 34.390625 -12.125 C 36.523438 -14.4375 37.59375 -17.898438 37.59375 -22.515625 C 37.59375 -26.796875 36.566406 -30.144531 34.515625 -32.5625 C 32.460938 -34.988281 29.789062 -36.203125 26.5 -36.203125 C 23.5 -36.203125 20.941406 -35.019531 18.828125 -32.65625 C 16.722656 -30.289062 15.671875 -26.882812 15.671875 -22.4375 Z M 15.671875 -22.4375 "/></g></g></g><g fill="#000000" fill-opacity="1"><g transform="translate(105.84153, 70.743654)"><g><path d="M 27.03125 -45.90625 C 28.300781 -45.90625 29.640625 -45.703125 31.046875 -45.296875 C 32.460938 -44.898438 33.722656 -44.382812 34.828125 -43.75 L 31.09375 -33.34375 C 29.070312 -34.613281 27.222656 -35.25 25.546875 -35.25 C 23.296875 -35.25 21.59375 -34.484375 20.4375 -32.953125 C 19.289062 -31.429688 18.523438 -29.296875 18.140625 -26.546875 C 17.765625 -23.804688 17.578125 -20.15625 17.578125 -15.59375 L 17.578125 0 L 5.71875 0 L 5.71875 -44.875 L 16.71875 -44.875 L 16.71875 -38.546875 L 16.890625 -38.546875 C 18.335938 -40.972656 19.78125 -42.804688 21.21875 -44.046875 C 22.664062 -45.285156 24.601562 -45.90625 27.03125 -45.90625 Z M 27.03125 -45.90625 "/></g></g></g><g fill="#000000" fill-opacity="1"><g transform="translate(139.534125, 70.743654)"><g><path d="M 30.3125 -45.90625 C 36.144531 -45.90625 40.390625 -43.539062 43.046875 -38.8125 C 46.921875 -43.539062 51.484375 -45.90625 56.734375 -45.90625 C 61.703125 -45.90625 65.398438 -44.546875 67.828125 -41.828125 C 70.253906 -39.117188 71.46875 -35.050781 71.46875 -29.625 L 71.46875 0 L 59.59375 0 L 59.59375 -26.859375 C 59.59375 -30.085938 59.175781 -32.550781 58.34375 -34.25 C 57.507812 -35.957031 55.820312 -36.8125 53.28125 -36.8125 C 50.851562 -36.8125 48.898438 -35.972656 47.421875 -34.296875 C 45.953125 -32.628906 45.046875 -30.46875 44.703125 -27.8125 C 44.472656 -25.726562 44.359375 -23.878906 44.359375 -22.265625 L 44.359375 0 L 32.484375 0 L 32.484375 -26.421875 C 32.484375 -30.054688 32.09375 -32.695312 31.3125 -34.34375 C 30.53125 -35.988281 28.867188 -36.8125 26.328125 -36.8125 C 24.484375 -36.8125 22.820312 -36.320312 21.34375 -35.34375 C 19.875 -34.363281 18.851562 -33.003906 18.28125 -31.265625 C 17.582031 -29.191406 17.234375 -26.273438 17.234375 -22.515625 L 17.234375 0 L 5.375 0 L 5.375 -44.875 L 16.375 -44.875 L 16.546875 -38.8125 C 18.390625 -41.0625 20.335938 -42.804688 22.390625 -44.046875 C 24.441406 -45.285156 27.082031 -45.90625 30.3125 -45.90625 Z M 30.3125 -45.90625 "/></g></g></g><g fill="#000000" fill-opacity="1"><g transform="translate(216.533381, 70.743654)"><g><path d="M 17.84375 -21.828125 C 17.84375 -18.648438 17.914062 -16.335938 18.0625 -14.890625 C 18.207031 -13.453125 18.507812 -12.300781 18.96875 -11.4375 C 19.488281 -10.457031 20.28125 -9.648438 21.34375 -9.015625 C 22.414062 -8.378906 23.734375 -8.0625 25.296875 -8.0625 C 27.367188 -8.0625 29.242188 -8.632812 30.921875 -9.78125 C 32.597656 -10.9375 33.664062 -12.351562 34.125 -14.03125 C 34.644531 -15.707031 34.90625 -19.289062 34.90625 -24.78125 L 34.90625 -44.875 L 46.78125 -44.875 L 46.78125 0 L 35.78125 0 L 35.78125 -6.75 L 35.609375 -6.75 C 33.929688 -4.207031 31.765625 -2.269531 29.109375 -0.9375 C 26.453125 0.382812 23.707031 1.046875 20.875 1.046875 C 18.332031 1.046875 15.921875 0.523438 13.640625 -0.515625 C 11.359375 -1.554688 9.613281 -3.0625 8.40625 -5.03125 C 7.539062 -6.414062 6.921875 -7.941406 6.546875 -9.609375 C 6.171875 -11.285156 5.984375 -13.394531 5.984375 -15.9375 L 5.984375 -44.875 L 17.84375 -44.875 Z M 17.84375 -21.828125 "/></g></g></g><g fill="#000000" fill-opacity="1"><g transform="translate(269.454154, 70.743654)"><g><path d="M 18.109375 0 L 6.234375 0 L 6.234375 -62.03125 L 18.109375 -62.03125 Z M 18.109375 0 "/></g></g></g><g fill="#000000" fill-opacity="1"><g transform="translate(293.532659, 70.743654)"><g><path d="M 23.734375 -45.90625 C 29.453125 -45.90625 33.695312 -45.171875 36.46875 -43.703125 C 39.238281 -42.234375 40.984375 -40.296875 41.703125 -37.890625 C 42.429688 -35.492188 42.765625 -32.332031 42.703125 -28.40625 L 42.625 -15.328125 C 42.5625 -11.234375 42.703125 -8.257812 43.046875 -6.40625 C 43.398438 -4.5625 44.125 -2.425781 45.21875 0 L 33.53125 0 C 33.238281 -0.632812 32.71875 -2.28125 31.96875 -4.9375 C 29.832031 -2.851562 27.625 -1.332031 25.34375 -0.375 C 23.0625 0.570312 20.617188 1.046875 18.015625 1.046875 C 13.566406 1.046875 9.972656 -0.179688 7.234375 -2.640625 C 4.492188 -5.097656 3.125 -8.289062 3.125 -12.21875 C 3.125 -15.507812 3.945312 -18.117188 5.59375 -20.046875 C 7.238281 -21.984375 9.242188 -23.382812 11.609375 -24.25 C 13.972656 -25.113281 16.773438 -25.863281 20.015625 -26.5 C 24.972656 -27.425781 28.640625 -28.351562 31.015625 -29.28125 L 31.015625 -31.1875 C 31.015625 -33.144531 30.4375 -34.570312 29.28125 -35.46875 C 28.125 -36.363281 26.015625 -36.8125 22.953125 -36.8125 C 20.585938 -36.8125 18.828125 -36.332031 17.671875 -35.375 C 16.515625 -34.425781 15.648438 -33.03125 15.078125 -31.1875 L 4.328125 -33.171875 C 5.484375 -37.566406 7.5625 -40.785156 10.5625 -42.828125 C 13.570312 -44.878906 17.960938 -45.90625 23.734375 -45.90625 Z M 23.5625 -19.65625 L 21.5625 -19.234375 C 17.175781 -18.304688 14.984375 -16.398438 14.984375 -13.515625 C 14.984375 -11.785156 15.601562 -10.328125 16.84375 -9.140625 C 18.09375 -7.953125 19.664062 -7.359375 21.5625 -7.359375 C 23.125 -7.359375 24.6875 -7.757812 26.25 -8.5625 C 27.8125 -9.375 29.023438 -10.445312 29.890625 -11.78125 C 30.640625 -12.988281 31.015625 -15.066406 31.015625 -18.015625 L 31.015625 -21.5625 C 28.765625 -20.875 26.28125 -20.238281 23.5625 -19.65625 Z M 23.5625 -19.65625 "/></g></g></g><g fill="#000000" fill-opacity="1"><g transform="translate(341.68967, 70.743654)"><g/></g></g><g fill="#000000" fill-opacity="1"><g transform="translate(365.768175, 70.743654)"><g><path d="M 34.125 0 L 22.171875 0 L 22.171875 -44.78125 C 17.785156 -40.738281 12.675781 -37.738281 6.84375 -35.78125 L 6.84375 -46.515625 C 10.019531 -47.671875 13.394531 -49.601562 16.96875 -52.3125 C 20.550781 -55.03125 23.035156 -58.351562 24.421875 -62.28125 L 34.125 -62.28125 Z M 34.125 0 "/></g></g></g><g fill="#000000" fill-opacity="1"><g transform="translate(0.00000525, 220.743646)"><g><path d="M 34.265625 -46.375 L 34.265625 -41.875 L 12.46875 -41.875 L 12.46875 -25 L 32.078125 -25 L 32.078125 -20.46875 L 12.46875 -20.46875 L 12.46875 0 L 7.015625 0 L 7.015625 -46.375 Z M 34.265625 -46.375 "/></g></g></g><g fill="#000000" fill-opacity="1"><g transform="translate(36.76036, 220.743646)"><g><path d="M 33.34375 -16.3125 L 9.296875 -16.3125 C 9.441406 -12.050781 10.460938 -8.925781 12.359375 -6.9375 C 14.253906 -4.957031 16.847656 -3.96875 20.140625 -3.96875 C 22.640625 -3.96875 24.648438 -4.410156 26.171875 -5.296875 C 27.691406 -6.179688 28.882812 -7.578125 29.75 -9.484375 L 30.421875 -9.484375 L 33.78125 -7.484375 C 32.769531 -4.953125 31.144531 -2.957031 28.90625 -1.5 C 26.675781 -0.0507812 23.753906 0.671875 20.140625 0.671875 C 16.753906 0.671875 13.84375 0.00390625 11.40625 -1.328125 C 8.976562 -2.660156 7.109375 -4.679688 5.796875 -7.390625 C 4.492188 -10.097656 3.84375 -13.460938 3.84375 -17.484375 C 3.84375 -21.453125 4.535156 -24.800781 5.921875 -27.53125 C 7.304688 -30.257812 9.195312 -32.296875 11.59375 -33.640625 C 14 -34.984375 16.742188 -35.65625 19.828125 -35.65625 C 24.304688 -35.65625 27.804688 -34.390625 30.328125 -31.859375 C 32.847656 -29.335938 34.117188 -25.59375 34.140625 -20.625 C 34.140625 -18.675781 34.09375 -17.363281 34 -16.6875 Z M 29.03125 -20.625 C 28.945312 -24.34375 28.117188 -27.046875 26.546875 -28.734375 C 24.984375 -30.429688 22.742188 -31.28125 19.828125 -31.28125 C 16.765625 -31.28125 14.359375 -30.425781 12.609375 -28.71875 C 10.867188 -27.019531 9.804688 -24.320312 9.421875 -20.625 Z M 29.03125 -20.625 "/></g></g></g><g fill="#000000" fill-opacity="1"><g transform="translate(74.059904, 220.743646)"><g><path d="M 6.09375 0 L 6.09375 -34.984375 L 11.015625 -34.984375 L 11.015625 -29.5 L 11.671875 -29.34375 C 13.296875 -33.320312 16.363281 -35.3125 20.875 -35.3125 C 23.257812 -35.3125 25.046875 -34.875 26.234375 -34 L 24.90625 -29.625 L 24.265625 -29.5 C 22.953125 -30.15625 21.515625 -30.484375 19.953125 -30.484375 C 17.160156 -30.484375 15.015625 -29.4375 13.515625 -27.34375 C 12.015625 -25.25 11.265625 -21.851562 11.265625 -17.15625 L 11.265625 0 Z M 6.09375 0 "/></g></g></g><g fill="#000000" fill-opacity="1"><g transform="translate(101.083042, 220.743646)"><g><path d="M 6.09375 0 L 6.09375 -34.984375 L 11.015625 -34.984375 L 11.015625 -29.5 L 11.671875 -29.34375 C 13.296875 -33.320312 16.363281 -35.3125 20.875 -35.3125 C 23.257812 -35.3125 25.046875 -34.875 26.234375 -34 L 24.90625 -29.625 L 24.265625 -29.5 C 22.953125 -30.15625 21.515625 -30.484375 19.953125 -30.484375 C 17.160156 -30.484375 15.015625 -29.4375 13.515625 -27.34375 C 12.015625 -25.25 11.265625 -21.851562 11.265625 -17.15625 L 11.265625 0 Z M 6.09375 0 "/></g></g></g><g fill="#000000" fill-opacity="1"><g transform="translate(128.10618, 220.743646)"><g><path d="M 14.4375 0.671875 C 10.988281 0.671875 8.296875 -0.226562 6.359375 -2.03125 C 4.421875 -3.832031 3.453125 -6.398438 3.453125 -9.734375 C 3.453125 -11.804688 3.878906 -13.554688 4.734375 -14.984375 C 5.597656 -16.410156 6.925781 -17.570312 8.71875 -18.46875 C 10.519531 -19.375 12.867188 -20.070312 15.765625 -20.5625 C 18.304688 -20.976562 20.234375 -21.453125 21.546875 -21.984375 C 22.867188 -22.515625 23.757812 -23.109375 24.21875 -23.765625 C 24.675781 -24.421875 24.90625 -25.242188 24.90625 -26.234375 C 24.90625 -27.816406 24.359375 -29.03125 23.265625 -29.875 C 22.179688 -30.726562 20.429688 -31.15625 18.015625 -31.15625 C 15.753906 -31.15625 13.8125 -30.710938 12.1875 -29.828125 C 10.570312 -28.953125 9.085938 -27.648438 7.734375 -25.921875 L 7.109375 -25.921875 L 4.5625 -29.5 C 6.039062 -31.382812 7.921875 -32.878906 10.203125 -33.984375 C 12.492188 -35.097656 15.097656 -35.65625 18.015625 -35.65625 C 22.140625 -35.65625 25.179688 -34.75 27.140625 -32.9375 C 29.097656 -31.132812 30.078125 -28.632812 30.078125 -25.4375 L 30.078125 -6.890625 C 30.078125 -4.941406 30.898438 -3.96875 32.546875 -3.96875 C 33.097656 -3.96875 33.628906 -4.0625 34.140625 -4.25 L 34.578125 -4.125 L 35.1875 -0.546875 C 34.800781 -0.285156 34.296875 -0.0859375 33.671875 0.046875 C 33.046875 0.179688 32.40625 0.25 31.75 0.25 C 29.832031 0.25 28.378906 -0.171875 27.390625 -1.015625 C 26.410156 -1.859375 25.78125 -3.109375 25.5 -4.765625 L 24.84375 -4.828125 C 23.84375 -2.984375 22.492188 -1.601562 20.796875 -0.6875 C 19.109375 0.21875 16.988281 0.671875 14.4375 0.671875 Z M 15.578125 -3.453125 C 17.523438 -3.453125 19.210938 -3.898438 20.640625 -4.796875 C 22.066406 -5.703125 23.160156 -6.96875 23.921875 -8.59375 C 24.679688 -10.226562 25.0625 -12.113281 25.0625 -14.25 L 25.0625 -18.6875 L 24.453125 -18.8125 C 23.671875 -18.257812 22.71875 -17.796875 21.59375 -17.421875 C 20.476562 -17.054688 18.914062 -16.726562 16.90625 -16.4375 C 14.875 -16.15625 13.257812 -15.726562 12.0625 -15.15625 C 10.875 -14.59375 10.023438 -13.867188 9.515625 -12.984375 C 9.003906 -12.109375 8.75 -11.023438 8.75 -9.734375 C 8.75 -7.679688 9.351562 -6.117188 10.5625 -5.046875 C 11.769531 -3.984375 13.441406 -3.453125 15.578125 -3.453125 Z M 15.578125 -3.453125 "/></g></g></g><g fill="#000000" fill-opacity="1"><g transform="translate(164.295624, 220.743646)"><g><path d="M 6.09375 0 L 6.09375 -34.984375 L 11.015625 -34.984375 L 11.015625 -29.5 L 11.671875 -29.34375 C 13.296875 -33.320312 16.363281 -35.3125 20.875 -35.3125 C 23.257812 -35.3125 25.046875 -34.875 26.234375 -34 L 24.90625 -29.625 L 24.265625 -29.5 C 22.953125 -30.15625 21.515625 -30.484375 19.953125 -30.484375 C 17.160156 -30.484375 15.015625 -29.4375 13.515625 -27.34375 C 12.015625 -25.25 11.265625 -21.851562 11.265625 -17.15625 L 11.265625 0 Z M 6.09375 0 "/></g></g></g><g fill="#000000" fill-opacity="1"><g transform="translate(191.318762, 220.743646)"><g><path d="M 8.6875 -41.75 C 7.59375 -41.75 6.703125 -42.09375 6.015625 -42.78125 C 5.328125 -43.46875 4.984375 -44.335938 4.984375 -45.390625 C 4.984375 -46.453125 5.328125 -47.328125 6.015625 -48.015625 C 6.703125 -48.703125 7.59375 -49.046875 8.6875 -49.046875 C 9.789062 -49.046875 10.6875 -48.703125 11.375 -48.015625 C 12.0625 -47.328125 12.40625 -46.453125 12.40625 -45.390625 C 12.40625 -44.335938 12.0625 -43.46875 11.375 -42.78125 C 10.6875 -42.09375 9.789062 -41.75 8.6875 -41.75 Z M 6.09375 0 L 6.09375 -34.984375 L 11.265625 -34.984375 L 11.265625 0 Z M 6.09375 0 "/></g></g></g><g fill="#000000" fill-opacity="1"><g transform="translate(208.668131, 220.743646)"><g/></g></g><g fill="#000000" fill-opacity="1"><g transform="translate(224.590203, 220.743646)"><g><path d="M 14.4375 0.671875 C 10.988281 0.671875 8.296875 -0.226562 6.359375 -2.03125 C 4.421875 -3.832031 3.453125 -6.398438 3.453125 -9.734375 C 3.453125 -11.804688 3.878906 -13.554688 4.734375 -14.984375 C 5.597656 -16.410156 6.925781 -17.570312 8.71875 -18.46875 C 10.519531 -19.375 12.867188 -20.070312 15.765625 -20.5625 C 18.304688 -20.976562 20.234375 -21.453125 21.546875 -21.984375 C 22.867188 -22.515625 23.757812 -23.109375 24.21875 -23.765625 C 24.675781 -24.421875 24.90625 -25.242188 24.90625 -26.234375 C 24.90625 -27.816406 24.359375 -29.03125 23.265625 -29.875 C 22.179688 -30.726562 20.429688 -31.15625 18.015625 -31.15625 C 15.753906 -31.15625 13.8125 -30.710938 12.1875 -29.828125 C 10.570312 -28.953125 9.085938 -27.648438 7.734375 -25.921875 L 7.109375 -25.921875 L 4.5625 -29.5 C 6.039062 -31.382812 7.921875 -32.878906 10.203125 -33.984375 C 12.492188 -35.097656 15.097656 -35.65625 18.015625 -35.65625 C 22.140625 -35.65625 25.179688 -34.75 27.140625 -32.9375 C 29.097656 -31.132812 30.078125 -28.632812 30.078125 -25.4375 L 30.078125 -6.890625 C 30.078125 -4.941406 30.898438 -3.96875 32.546875 -3.96875 C 33.097656 -3.96875 33.628906 -4.0625 34.140625 -4.25 L 34.578125 -4.125 L 35.1875 -0.546875 C 34.800781 -0.285156 34.296875 -0.0859375 33.671875 0.046875 C 33.046875 0.179688 32.40625 0.25 31.75 0.25 C 29.832031 0.25 28.378906 -0.171875 27.390625 -1.015625 C 26.410156 -1.859375 25.78125 -3.109375 25.5 -4.765625 L 24.84375 -4.828125 C 23.84375 -2.984375 22.492188 -1.601562 20.796875 -0.6875 C 19.109375 0.21875 16.988281 0.671875 14.4375 0.671875 Z M 15.578125 -3.453125 C 17.523438 -3.453125 19.210938 -3.898438 20.640625 -4.796875 C 22.066406 -5.703125 23.160156 -6.96875 23.921875 -8.59375 C 24.679688 -10.226562 25.0625 -12.113281 25.0625 -14.25 L 25.0625 -18.6875 L 24.453125 -18.8125 C 23.671875 -18.257812 22.71875 -17.796875 21.59375 -17.421875 C 20.476562 -17.054688 18.914062 -16.726562 16.90625 -16.4375 C 14.875 -16.15625 13.257812 -15.726562 12.0625 -15.15625 C 10.875 -14.59375 10.023438 -13.867188 9.515625 -12.984375 C 9.003906 -12.109375 8.75 -11.023438 8.75 -9.734375 C 8.75 -7.679688 9.351562 -6.117188 10.5625 -5.046875 C 11.769531 -3.984375 13.441406 -3.453125 15.578125 -3.453125 Z M 15.578125 -3.453125 "/></g></g></g><g fill="#000000" fill-opacity="1"><g transform="translate(260.779647, 220.743646)"><g><path d="M 6.09375 0 L 6.09375 -34.984375 L 11.015625 -34.984375 L 11.015625 -29.5 L 11.671875 -29.34375 C 12.835938 -31.394531 14.320312 -32.957031 16.125 -34.03125 C 17.9375 -35.113281 20.144531 -35.65625 22.75 -35.65625 C 26.957031 -35.65625 30.003906 -34.582031 31.890625 -32.4375 C 33.785156 -30.289062 34.734375 -26.984375 34.734375 -22.515625 L 34.734375 0 L 29.5625 0 L 29.5625 -22.390625 C 29.5625 -24.503906 29.289062 -26.203125 28.75 -27.484375 C 28.21875 -28.765625 27.382812 -29.695312 26.25 -30.28125 C 25.113281 -30.863281 23.628906 -31.15625 21.796875 -31.15625 C 18.640625 -31.15625 16.09375 -30.113281 14.15625 -28.03125 C 12.226562 -25.945312 11.265625 -22.585938 11.265625 -17.953125 L 11.265625 0 Z M 6.09375 0 "/></g></g></g><g fill="#000000" fill-opacity="1"><g transform="translate(301.060627, 220.743646)"><g><path d="M 18.140625 0.671875 C 15.328125 0.671875 12.847656 0 10.703125 -1.34375 C 8.554688 -2.6875 6.875 -4.710938 5.65625 -7.421875 C 4.445312 -10.128906 3.84375 -13.484375 3.84375 -17.484375 C 3.84375 -21.472656 4.472656 -24.828125 5.734375 -27.546875 C 7.003906 -30.265625 8.753906 -32.296875 10.984375 -33.640625 C 13.222656 -34.984375 15.8125 -35.65625 18.75 -35.65625 C 21.070312 -35.65625 23.164062 -35.21875 25.03125 -34.34375 C 26.894531 -33.46875 28.488281 -32.023438 29.8125 -30.015625 L 30.484375 -30.140625 L 30.484375 -49.046875 L 35.65625 -49.046875 L 35.65625 0 L 30.484375 0 L 30.484375 -5.109375 L 29.8125 -5.234375 C 28.675781 -3.503906 27.128906 -2.085938 25.171875 -0.984375 C 23.210938 0.117188 20.867188 0.671875 18.140625 0.671875 Z M 19.765625 -3.96875 C 23.023438 -3.96875 25.625 -5.082031 27.5625 -7.3125 C 29.507812 -9.539062 30.484375 -12.929688 30.484375 -17.484375 C 30.484375 -22.046875 29.507812 -25.441406 27.5625 -27.671875 C 25.625 -29.910156 23.023438 -31.03125 19.765625 -31.03125 C 16.398438 -31.03125 13.804688 -29.9375 11.984375 -27.75 C 10.171875 -25.570312 9.265625 -22.148438 9.265625 -17.484375 C 9.265625 -8.472656 12.765625 -3.96875 19.765625 -3.96875 Z M 19.765625 -3.96875 "/></g></g></g><g fill="#000000" fill-opacity="1"><g transform="translate(342.832316, 220.743646)"><g/></g></g><g fill="#000000" fill-opacity="1"><g transform="translate(358.754411, 220.743646)"><g><path d="M 41.75 0 L 35.90625 0 L 31.625 -12.71875 L 11.859375 -12.71875 L 7.546875 0 L 1.84375 0 L 18.015625 -46.375 L 25.5625 -46.375 Z M 21.34375 -40.765625 L 13.390625 -17.28125 L 30.078125 -17.28125 L 22.140625 -40.765625 Z M 21.34375 -40.765625 "/></g></g></g><g fill="#000000" fill-opacity="1"><g transform="translate(402.333968, 220.743646)"><g><path d="M 13.921875 0.671875 C 11.453125 0.671875 9.507812 -0.03125 8.09375 -1.4375 C 6.675781 -2.84375 5.96875 -4.941406 5.96875 -7.734375 L 5.96875 -49.046875 L 11.140625 -49.046875 L 11.140625 -8.09375 C 11.140625 -6.632812 11.414062 -5.582031 11.96875 -4.9375 C 12.53125 -4.289062 13.40625 -3.96875 14.59375 -3.96875 C 15.3125 -3.96875 16.039062 -4.082031 16.78125 -4.3125 L 17.21875 -4.1875 L 17.828125 -0.125 C 17.441406 0.125 16.894531 0.316406 16.1875 0.453125 C 15.476562 0.597656 14.722656 0.671875 13.921875 0.671875 Z M 13.921875 0.671875 "/></g></g></g><g fill="#000000" fill-opacity="1"><g transform="translate(421.364347, 220.743646)"><g><path d="M 6.09375 14.1875 L 6.09375 -34.984375 L 11.265625 -34.984375 L 11.265625 -29.75 L 11.921875 -29.625 C 14.523438 -33.644531 18.34375 -35.65625 23.375 -35.65625 C 26.289062 -35.65625 28.835938 -34.988281 31.015625 -33.65625 C 33.203125 -32.320312 34.894531 -30.296875 36.09375 -27.578125 C 37.300781 -24.859375 37.90625 -21.492188 37.90625 -17.484375 C 37.90625 -13.484375 37.269531 -10.128906 36 -7.421875 C 34.738281 -4.710938 32.984375 -2.6875 30.734375 -1.34375 C 28.492188 0 25.914062 0.671875 23 0.671875 C 20.632812 0.671875 18.53125 0.257812 16.6875 -0.5625 C 14.84375 -1.394531 13.253906 -2.75 11.921875 -4.625 L 11.265625 -4.5 L 11.265625 14.1875 Z M 21.859375 -3.96875 C 28.941406 -3.96875 32.484375 -8.472656 32.484375 -17.484375 C 32.484375 -26.515625 28.941406 -31.03125 21.859375 -31.03125 C 19.785156 -31.03125 17.953125 -30.550781 16.359375 -29.59375 C 14.773438 -28.644531 13.53125 -27.160156 12.625 -25.140625 C 11.71875 -23.117188 11.265625 -20.566406 11.265625 -17.484375 C 11.265625 -14.410156 11.71875 -11.863281 12.625 -9.84375 C 13.53125 -7.832031 14.773438 -6.347656 16.359375 -5.390625 C 17.953125 -4.441406 19.785156 -3.96875 21.859375 -3.96875 Z M 21.859375 -3.96875 "/></g></g></g><g fill="#000000" fill-opacity="1"><g transform="translate(463.104289, 220.743646)"><g><path d="M 8.6875 -41.75 C 7.59375 -41.75 6.703125 -42.09375 6.015625 -42.78125 C 5.328125 -43.46875 4.984375 -44.335938 4.984375 -45.390625 C 4.984375 -46.453125 5.328125 -47.328125 6.015625 -48.015625 C 6.703125 -48.703125 7.59375 -49.046875 8.6875 -49.046875 C 9.789062 -49.046875 10.6875 -48.703125 11.375 -48.015625 C 12.0625 -47.328125 12.40625 -46.453125 12.40625 -45.390625 C 12.40625 -44.335938 12.0625 -43.46875 11.375 -42.78125 C 10.6875 -42.09375 9.789062 -41.75 8.6875 -41.75 Z M 6.09375 0 L 6.09375 -34.984375 L 11.265625 -34.984375 L 11.265625 0 Z M 6.09375 0 "/></g></g></g><g fill="#000000" fill-opacity="1"><g transform="translate(480.453669, 220.743646)"><g><path d="M 6.09375 0 L 6.09375 -34.984375 L 11.015625 -34.984375 L 11.015625 -29.5 L 11.671875 -29.34375 C 12.835938 -31.394531 14.320312 -32.957031 16.125 -34.03125 C 17.9375 -35.113281 20.144531 -35.65625 22.75 -35.65625 C 26.957031 -35.65625 30.003906 -34.582031 31.890625 -32.4375 C 33.785156 -30.289062 34.734375 -26.984375 34.734375 -22.515625 L 34.734375 0 L 29.5625 0 L 29.5625 -22.390625 C 29.5625 -24.503906 29.289062 -26.203125 28.75 -27.484375 C 28.21875 -28.765625 27.382812 -29.695312 26.25 -30.28125 C 25.113281 -30.863281 23.628906 -31.15625 21.796875 -31.15625 C 18.640625 -31.15625 16.09375 -30.113281 14.15625 -28.03125 C 12.226562 -25.945312 11.265625 -22.585938 11.265625 -17.953125 L 11.265625 0 Z M 6.09375 0 "/></g></g></g><g fill="#000000" fill-opacity="1"><g transform="translate(520.734627, 220.743646)"><g><path d="M 33.34375 -16.3125 L 9.296875 -16.3125 C 9.441406 -12.050781 10.460938 -8.925781 12.359375 -6.9375 C 14.253906 -4.957031 16.847656 -3.96875 20.140625 -3.96875 C 22.640625 -3.96875 24.648438 -4.410156 26.171875 -5.296875 C 27.691406 -6.179688 28.882812 -7.578125 29.75 -9.484375 L 30.421875 -9.484375 L 33.78125 -7.484375 C 32.769531 -4.953125 31.144531 -2.957031 28.90625 -1.5 C 26.675781 -0.0507812 23.753906 0.671875 20.140625 0.671875 C 16.753906 0.671875 13.84375 0.00390625 11.40625 -1.328125 C 8.976562 -2.660156 7.109375 -4.679688 5.796875 -7.390625 C 4.492188 -10.097656 3.84375 -13.460938 3.84375 -17.484375 C 3.84375 -21.453125 4.535156 -24.800781 5.921875 -27.53125 C 7.304688 -30.257812 9.195312 -32.296875 11.59375 -33.640625 C 14 -34.984375 16.742188 -35.65625 19.828125 -35.65625 C 24.304688 -35.65625 27.804688 -34.390625 30.328125 -31.859375 C 32.847656 -29.335938 34.117188 -25.59375 34.140625 -20.625 C 34.140625 -18.675781 34.09375 -17.363281 34 -16.6875 Z M 29.03125 -20.625 C 28.945312 -24.34375 28.117188 -27.046875 26.546875 -28.734375 C 24.984375 -30.429688 22.742188 -31.28125 19.828125 -31.28125 C 16.765625 -31.28125 14.359375 -30.425781 12.609375 -28.71875 C 10.867188 -27.019531 9.804688 -24.320312 9.421875 -20.625 Z M 29.03125 -20.625 "/></g></g></g><g fill="#000000" fill-opacity="1"><g transform="translate(558.03417, 220.743646)"><g/></g></g><g fill="#000000" fill-opacity="1"><g transform="translate(573.956243, 220.743646)"><g><path d="M 34.265625 -46.375 L 34.265625 -41.875 L 12.46875 -41.875 L 12.46875 -25 L 32.078125 -25 L 32.078125 -20.46875 L 12.46875 -20.46875 L 12.46875 0 L 7.015625 0 L 7.015625 -46.375 Z M 34.265625 -46.375 "/></g></g></g><g fill="#000000" fill-opacity="1"><g transform="translate(610.716587, 220.743646)"><g><path d="M 3.296875 0 L 3.296875 -4.5 L 15.953125 -4.5 L 15.953125 -39.96875 L 15.234375 -40.15625 C 13.179688 -39.144531 11.378906 -38.367188 9.828125 -37.828125 C 8.285156 -37.285156 6.3125 -36.765625 3.90625 -36.265625 L 3.90625 -41.265625 C 6.289062 -41.773438 8.648438 -42.460938 10.984375 -43.328125 C 13.328125 -44.203125 15.453125 -45.21875 17.359375 -46.375 L 21.28125 -46.375 L 21.28125 -4.5 L 32.609375 -4.5 L 32.609375 0 Z M 3.296875 0 "/></g></g></g><g fill="#000000" fill-opacity="1"><g transform="translate(645.288454, 220.743646)"><g/></g></g><g fill="#000000" fill-opacity="1"><g transform="translate(661.210526, 220.743646)"><g><path d="M 36.203125 -46.375 L 36.203125 -41.75 L 21.671875 -41.75 L 21.671875 0 L 16.25 0 L 16.25 -41.75 L 1.71875 -41.75 L 1.71875 -46.375 Z M 36.203125 -46.375 "/></g></g></g><g fill="#000000" fill-opacity="1"><g transform="translate(699.080993, 220.743646)"><g><path d="M 33.34375 -16.3125 L 9.296875 -16.3125 C 9.441406 -12.050781 10.460938 -8.925781 12.359375 -6.9375 C 14.253906 -4.957031 16.847656 -3.96875 20.140625 -3.96875 C 22.640625 -3.96875 24.648438 -4.410156 26.171875 -5.296875 C 27.691406 -6.179688 28.882812 -7.578125 29.75 -9.484375 L 30.421875 -9.484375 L 33.78125 -7.484375 C 32.769531 -4.953125 31.144531 -2.957031 28.90625 -1.5 C 26.675781 -0.0507812 23.753906 0.671875 20.140625 0.671875 C 16.753906 0.671875 13.84375 0.00390625 11.40625 -1.328125 C 8.976562 -2.660156 7.109375 -4.679688 5.796875 -7.390625 C 4.492188 -10.097656 3.84375 -13.460938 3.84375 -17.484375 C 3.84375 -21.453125 4.535156 -24.800781 5.921875 -27.53125 C 7.304688 -30.257812 9.195312 -32.296875 11.59375 -33.640625 C 14 -34.984375 16.742188 -35.65625 19.828125 -35.65625 C 24.304688 -35.65625 27.804688 -34.390625 30.328125 -31.859375 C 32.847656 -29.335938 34.117188 -25.59375 34.140625 -20.625 C 34.140625 -18.675781 34.09375 -17.363281 34 -16.6875 Z M 29.03125 -20.625 C 28.945312 -24.34375 28.117188 -27.046875 26.546875 -28.734375 C 24.984375 -30.429688 22.742188 -31.28125 19.828125 -31.28125 C 16.765625 -31.28125 14.359375 -30.425781 12.609375 -28.71875 C 10.867188 -27.019531 9.804688 -24.320312 9.421875 -20.625 Z M 29.03125 -20.625 "/></g></g></g><g fill="#000000" fill-opacity="1"><g transform="translate(736.380536, 220.743646)"><g><path d="M 14.4375 0.671875 C 10.988281 0.671875 8.296875 -0.226562 6.359375 -2.03125 C 4.421875 -3.832031 3.453125 -6.398438 3.453125 -9.734375 C 3.453125 -11.804688 3.878906 -13.554688 4.734375 -14.984375 C 5.597656 -16.410156 6.925781 -17.570312 8.71875 -18.46875 C 10.519531 -19.375 12.867188 -20.070312 15.765625 -20.5625 C 18.304688 -20.976562 20.234375 -21.453125 21.546875 -21.984375 C 22.867188 -22.515625 23.757812 -23.109375 24.21875 -23.765625 C 24.675781 -24.421875 24.90625 -25.242188 24.90625 -26.234375 C 24.90625 -27.816406 24.359375 -29.03125 23.265625 -29.875 C 22.179688 -30.726562 20.429688 -31.15625 18.015625 -31.15625 C 15.753906 -31.15625 13.8125 -30.710938 12.1875 -29.828125 C 10.570312 -28.953125 9.085938 -27.648438 7.734375 -25.921875 L 7.109375 -25.921875 L 4.5625 -29.5 C 6.039062 -31.382812 7.921875 -32.878906 10.203125 -33.984375 C 12.492188 -35.097656 15.097656 -35.65625 18.015625 -35.65625 C 22.140625 -35.65625 25.179688 -34.75 27.140625 -32.9375 C 29.097656 -31.132812 30.078125 -28.632812 30.078125 -25.4375 L 30.078125 -6.890625 C 30.078125 -4.941406 30.898438 -3.96875 32.546875 -3.96875 C 33.097656 -3.96875 33.628906 -4.0625 34.140625 -4.25 L 34.578125 -4.125 L 35.1875 -0.546875 C 34.800781 -0.285156 34.296875 -0.0859375 33.671875 0.046875 C 33.046875 0.179688 32.40625 0.25 31.75 0.25 C 29.832031 0.25 28.378906 -0.171875 27.390625 -1.015625 C 26.410156 -1.859375 25.78125 -3.109375 25.5 -4.765625 L 24.84375 -4.828125 C 23.84375 -2.984375 22.492188 -1.601562 20.796875 -0.6875 C 19.109375 0.21875 16.988281 0.671875 14.4375 0.671875 Z M 15.578125 -3.453125 C 17.523438 -3.453125 19.210938 -3.898438 20.640625 -4.796875 C 22.066406 -5.703125 23.160156 -6.96875 23.921875 -8.59375 C 24.679688 -10.226562 25.0625 -12.113281 25.0625 -14.25 L 25.0625 -18.6875 L 24.453125 -18.8125 C 23.671875 -18.257812 22.71875 -17.796875 21.59375 -17.421875 C 20.476562 -17.054688 18.914062 -16.726562 16.90625 -16.4375 C 14.875 -16.15625 13.257812 -15.726562 12.0625 -15.15625 C 10.875 -14.59375 10.023438 -13.867188 9.515625 -12.984375 C 9.003906 -12.109375 8.75 -11.023438 8.75 -9.734375 C 8.75 -7.679688 9.351562 -6.117188 10.5625 -5.046875 C 11.769531 -3.984375 13.441406 -3.453125 15.578125 -3.453125 Z M 15.578125 -3.453125 "/></g></g></g><g fill="#000000" fill-opacity="1"><g transform="translate(772.570003, 220.743646)"><g><path d="M 6.09375 0 L 6.09375 -34.984375 L 11.015625 -34.984375 L 11.015625 -29.8125 L 11.671875 -29.6875 C 12.859375 -31.65625 14.289062 -33.140625 15.96875 -34.140625 C 17.65625 -35.148438 19.671875 -35.65625 22.015625 -35.65625 C 24.722656 -35.65625 26.816406 -35.140625 28.296875 -34.109375 C 29.773438 -33.085938 30.925781 -31.4375 31.75 -29.15625 L 32.421875 -29.15625 C 33.628906 -31.289062 35.113281 -32.90625 36.875 -34 C 38.644531 -35.101562 40.816406 -35.65625 43.390625 -35.65625 C 46.992188 -35.65625 49.675781 -34.679688 51.4375 -32.734375 C 53.207031 -30.785156 54.09375 -27.828125 54.09375 -23.859375 L 54.09375 0 L 48.921875 0 L 48.921875 -23.734375 C 48.921875 -26.265625 48.382812 -28.132812 47.3125 -29.34375 C 46.25 -30.550781 44.53125 -31.15625 42.15625 -31.15625 C 39.363281 -31.15625 37.082031 -30.140625 35.3125 -28.109375 C 33.550781 -26.078125 32.671875 -22.734375 32.671875 -18.078125 L 32.671875 0 L 27.5 0 L 27.5 -23.734375 C 27.5 -26.265625 26.960938 -28.132812 25.890625 -29.34375 C 24.828125 -30.550781 23.113281 -31.15625 20.75 -31.15625 C 17.957031 -31.15625 15.675781 -30.171875 13.90625 -28.203125 C 12.144531 -26.234375 11.265625 -23.039062 11.265625 -18.625 L 11.265625 0 Z M 6.09375 0 "/></g></g></g></svg>